# SSTK version 0.8.0
# 11
mtllib original-11.mtl
o mesh15/mesh15-geometry#mesh15-geometry
v -0.399477 -0.673231 0.188255
v -0.121709 -0.673231 -0.088308
v -0.399477 -0.673231 -0.326471
v 0.436182 -0.673231 0.188255
v -0.121709 -0.673231 -0.326471
v -0.441260 -0.832404 -0.358717
v -0.441260 -0.832404 0.318449
v 0.126999 -0.673231 -0.088308
v 0.436182 -0.673231 -0.326471
v -0.059532 -0.543903 -0.226802
v 0.480054 -0.832404 -0.358717
v 0.480054 -0.832404 0.318449
v 0.126999 -0.673231 -0.326471
v -0.059532 -0.543903 -0.306544
v 0.071622 -0.543903 -0.226802
v 0.071622 -0.543903 -0.306544
vn 0 1 0
vn 0 -1 0
vn -0.9672309991464187 0.2538979997759351 0
vn 0.9672309991464187 -0.2538979997759351 0
vn 0 0.6331247884967856 0.7740497414190516
vn 0 -0.6331247884967856 -0.7740497414190516
vn 0 0.1985509138406368 -0.9800905746986082
vn 0 -0.1985509138406368 0.9800905746986082
vn -0.9012525146423704 0.4332942474240848 0
vn 0.9012525146423704 -0.4332942474240848 0
vn 0 0.7308790300793271 0.6825070280885775
vn 0 -0.7308790300793271 -0.6825070280885775
vn 0.9640510700431332 0.26571701930567077 0
vn -0.9640510700431332 -0.26571701930567077 0
vn 0.919273722270444 0.39361888108047205 0
vn -0.919273722270444 -0.39361888108047205 0
vn 0 0.1522820127084677 -0.988337082480192
vn 0 -0.1522820127084677 0.988337082480192
usemtl material_0_0
f 1//1 2//1 3//1
f 2//1 1//1 4//1
f 3//2 2//2 1//2
f 4//2 1//2 2//2
f 5//1 3//1 2//1
f 2//2 3//2 5//2
f 6//3 1//3 3//3
f 3//4 1//4 6//4
f 7//5 4//5 1//5
f 1//6 4//6 7//6
f 2//1 4//1 8//1
f 8//2 4//2 2//2
f 9//7 3//7 5//7
f 5//8 3//8 9//8
f 10//9 5//9 2//9
f 2//10 5//10 10//10
f 1//3 6//3 7//3
f 7//4 6//4 1//4
f 3//7 11//7 6//7
f 6//8 11//8 3//8
f 4//5 7//5 12//5
f 12//6 7//6 4//6
f 8//1 4//1 13//1
f 13//2 4//2 8//2
f 8//11 10//11 2//11
f 2//12 10//12 8//12
f 11//7 3//7 9//7
f 9//8 3//8 11//8
f 9//7 5//7 13//7
f 13//8 5//8 9//8
f 5//9 10//9 14//9
f 14//10 10//10 5//10
f 11//2 7//2 6//2
f 6//1 7//1 11//1
f 7//2 11//2 12//2
f 12//1 11//1 7//1
f 11//13 4//13 12//13
f 12//14 4//14 11//14
f 13//1 4//1 9//1
f 9//2 4//2 13//2
f 13//15 15//15 8//15
f 8//16 15//16 13//16
f 10//11 8//11 15//11
f 15//12 8//12 10//12
f 4//13 11//13 9//13
f 9//14 11//14 4//14
f 14//17 13//17 5//17
f 5//18 13//18 14//18
f 15//1 14//1 10//1
f 10//2 14//2 15//2
f 15//15 13//15 16//15
f 16//16 13//16 15//16
f 13//17 14//17 16//17
f 16//18 14//18 13//18
f 14//1 15//1 16//1
f 16//2 15//2 14//2
