# SSTK version 0.8.0
# 6
mtllib original-6.mtl
o mesh5/mesh5-geometry#mesh5-geometry
v -0.648085 0.515295 0.029685
v -0.648085 0.506554 0.050788
v -0.687878 0.515295 0.029685
v -0.687878 0.506554 0.050788
v -0.648085 0.536399 0.020944
v -0.687878 0.566244 0.050788
v -0.648085 0.515295 0.071892
v -0.687878 0.536399 0.020944
v -0.687878 0.557502 0.071892
v -0.687878 0.557502 0.029685
v -0.687878 0.515295 0.071892
v -0.648085 0.557502 0.029685
v -0.648085 0.566244 0.050788
v -0.687878 0.536399 0.080633
v -0.648085 0.557502 0.071892
v -0.648085 0.536399 0.080633
vn 0 -0.7071067811865476 -0.7071067811865478
vn 0 -1 0
vn 0 0.7071067811865476 0.7071067811865478
vn 0 1 0
vn 0 0 -1
vn 0 0 1
vn -1 0 0
vn 1 0 0
vn 0 -0.7071067811865478 0.7071067811865476
vn 0 0.7071067811865478 -0.7071067811865476
usemtl material_0_0
f 1//1 2//2 3//1
f 3//3 2//4 1//3
f 4//2 3//1 2//2
f 2//4 3//3 4//4
f 1//1 3//1 5//5
f 5//6 3//3 1//3
f 3//7 4//7 6//7
f 6//8 4//8 3//8
f 2//2 7//9 4//2
f 4//4 7//10 2//4
f 8//5 5//5 3//1
f 3//3 5//6 8//6
f 6//7 4//7 9//7
f 9//8 4//8 6//8
f 10//7 3//7 6//7
f 6//8 3//8 10//8
f 11//9 4//2 7//9
f 7//10 4//4 11//10
f 5//5 8//5 12//10
f 12//9 8//6 5//6
f 8//7 3//7 10//7
f 10//8 3//8 8//8
f 4//7 11//7 9//7
f 9//8 11//8 4//8
f 6//4 9//3 13//4
f 13//2 9//1 6//2
f 10//10 6//4 12//10
f 12//9 6//2 10//9
f 11//9 7//9 14//6
f 14//5 7//10 11//10
f 10//10 12//10 8//5
f 8//6 12//9 10//9
f 14//7 9//7 11//7
f 11//8 9//8 14//8
f 15//3 13//4 9//3
f 9//1 13//2 15//1
f 13//4 12//10 6//4
f 6//2 12//9 13//2
f 16//6 14//6 7//9
f 7//10 14//5 16//5
f 14//6 16//6 9//3
f 9//1 16//5 14//5
f 15//3 9//3 16//6
f 16//5 9//1 15//1
