# SSTK version 0.8.0
# 13
mtllib original-13.mtl
o mesh17/mesh17-geometry#mesh17-geometry
v -0.672809 0.551104 -0.277166
v -0.019269 0.518910 -0.277166
v -0.672809 0.518910 -0.277166
v 0.005602 0.518910 -0.277166
v 0.030472 0.518910 -0.277166
v 0.684012 0.518910 -0.277166
v 0.684012 0.551104 -0.277166
v 0.005602 0.551104 -0.277166
vn 0 0 -1
vn 0 0 1
usemtl material_0_0
f 1//1 2//1 3//1
f 2//1 1//1 4//1
f 3//2 2//2 1//2
f 4//2 1//2 2//2
f 4//1 1//1 5//1
f 5//2 1//2 4//2
f 5//1 1//1 6//1
f 6//2 1//2 5//2
f 6//1 1//1 7//1
f 7//2 1//2 6//2
f 7//1 1//1 8//1
f 8//2 1//2 7//2
