# SSTK version 0.8.0
# 7
mtllib original-7.mtl
o mesh6/mesh6-geometry#mesh6-geometry
v -0.628189 0.536399 0.010995
v -0.648085 0.536399 0.010995
v -0.628189 0.556295 0.016327
v -0.648085 0.516502 0.016327
v -0.648085 0.556295 0.016327
v -0.628189 0.516502 0.016327
v -0.648085 0.570861 0.030892
v -0.628189 0.501937 0.030892
v -0.628189 0.570861 0.030892
v -0.648085 0.501937 0.030892
v -0.648085 0.576192 0.050788
v -0.628189 0.496605 0.050788
v -0.628189 0.576192 0.050788
v -0.648085 0.496605 0.050788
v -0.648085 0.570861 0.070685
v -0.628189 0.501937 0.070685
v -0.628189 0.570861 0.070685
v -0.648085 0.501937 0.070685
v -0.648085 0.556295 0.085250
v -0.648085 0.516502 0.085250
v -0.628189 0.556295 0.085250
v -0.628189 0.516502 0.085250
v -0.628189 0.536399 0.090582
v -0.648085 0.536399 0.090582
vn 0 0 -1
vn 0 0.500000174843842 -0.8660253028382761
vn 0 -0.500000174843842 0.8660253028382761
vn 0 0 1
vn 0 -0.5000001748438415 -0.8660253028382763
vn 0 0.5000001748438415 0.8660253028382763
vn -1 0 0
vn 1 0 0
vn 0 0.8660253028382763 -0.5000001748438415
vn 0 -0.8660253028382763 0.5000001748438415
vn 0 -0.8660253028382761 -0.500000174843842
vn 0 0.8660253028382761 0.500000174843842
vn 0 1 0
vn 0 -1 0
usemtl material_0_0
f 1//1 2//1 3//2
f 3//3 2//4 1//4
f 2//1 1//1 4//5
f 4//6 1//4 2//4
f 5//2 3//2 2//1
f 2//4 3//3 5//3
f 6//5 4//5 1//1
f 1//4 4//6 6//6
f 2//7 4//7 5//7
f 5//8 4//8 2//8
f 5//2 7//9 3//2
f 3//3 7//10 5//3
f 6//5 8//11 4//5
f 4//6 8//12 6//6
f 5//7 4//7 7//7
f 7//8 4//8 5//8
f 9//9 3//2 7//9
f 7//10 3//3 9//10
f 10//11 4//5 8//11
f 8//12 4//6 10//12
f 4//7 10//7 7//7
f 7//8 10//8 4//8
f 7//9 11//13 9//9
f 9//10 11//14 7//10
f 8//11 12//14 10//11
f 10//12 12//13 8//12
f 7//7 10//7 11//7
f 11//8 10//8 7//8
f 13//13 9//9 11//13
f 11//14 9//10 13//14
f 14//14 10//11 12//14
f 12//13 10//12 14//13
f 10//7 14//7 11//7
f 11//8 14//8 10//8
f 11//13 15//12 13//13
f 13//14 15//11 11//14
f 12//14 16//10 14//14
f 14//13 16//9 12//13
f 11//7 14//7 15//7
f 15//8 14//8 11//8
f 17//12 13//13 15//12
f 15//11 13//14 17//11
f 18//10 14//14 16//10
f 16//9 14//13 18//9
f 14//7 18//7 15//7
f 15//8 18//8 14//8
f 15//12 19//6 17//12
f 17//11 19//5 15//11
f 18//10 16//10 20//3
f 20//2 16//9 18//9
f 15//7 18//7 19//7
f 19//8 18//8 15//8
f 21//6 17//12 19//6
f 19//5 17//11 21//5
f 22//3 20//3 16//10
f 16//9 20//2 22//2
f 18//7 20//7 19//7
f 19//8 20//8 18//8
f 21//6 19//6 23//4
f 23//1 19//5 21//5
f 20//3 22//3 24//4
f 24//1 22//2 20//2
f 24//7 19//7 20//7
f 20//8 19//8 24//8
f 24//4 23//4 19//6
f 19//5 23//1 24//1
f 23//4 24//4 22//3
f 22//2 24//1 23//1
