# SSTK version 0.8.0
# 2
mtllib original-2.mtl
o #ID5
v 0.192215 0.620382 0.014557
v 0.189165 0.621535 0.091456
v 0.189165 0.621535 0.014557
v 0.192215 0.620382 0.091456
v 0.189165 0.621535 0.014557
v 0.186045 0.622484 0.091456
v 0.186045 0.622484 0.014557
v 0.189165 0.621535 0.091456
v 0.195183 0.619032 0.014557
v 0.192215 0.620382 0.091456
v 0.192215 0.620382 0.014557
v 0.195183 0.619032 0.091456
v 0.186045 0.622484 0.014557
v 0.173149 0.624188 0.091456
v 0.173149 0.624188 0.014557
v 0.186045 0.622484 0.091456
v 0.198057 0.617490 0.014557
v 0.195183 0.619032 0.091456
v 0.195183 0.619032 0.014557
v 0.198057 0.617490 0.091456
v 0.173149 0.624188 0.014557
v -0.216919 0.624188 0.091456
v -0.216919 0.624188 0.014557
v 0.173149 0.624188 0.091456
v 0.208359 0.609548 0.014557
v 0.198057 0.617490 0.091456
v 0.198057 0.617490 0.014557
v 0.208359 0.609548 0.091456
v -0.216919 0.624188 0.014557
v -0.230346 0.621517 0.091456
v -0.230346 0.621517 0.014557
v -0.216919 0.624188 0.091456
v 0.208359 0.609548 0.014557
v 0.342822 0.474370 0.091456
v 0.208359 0.609548 0.091456
v 0.342822 0.474370 0.014557
v -0.230346 0.621517 0.014557
v -0.241729 0.613911 0.091456
v -0.241729 0.613911 0.014557
v -0.230346 0.621517 0.091456
v 0.342822 0.474370 0.014557
v 0.352466 0.461634 0.091456
v 0.342822 0.474370 0.091456
v 0.352466 0.461634 0.014557
v -0.369584 0.486056 0.014557
v -0.241729 0.613911 0.091456
v -0.369584 0.486056 0.091456
v -0.241729 0.613911 0.014557
v 0.352466 0.461634 0.014557
v 0.360760 0.447981 0.091456
v 0.352466 0.461634 0.091456
v 0.360760 0.447981 0.014557
v -0.392629 0.462188 0.014557
v -0.369584 0.486056 0.091456
v -0.392629 0.462188 0.091456
v -0.369584 0.486056 0.014557
v 0.360760 0.447981 0.014557
v 0.367620 0.433553 0.091456
v 0.360760 0.447981 0.091456
v 0.367620 0.433553 0.014557
v -0.400864 0.450543 0.014557
v -0.392629 0.462188 0.091456
v -0.400864 0.450543 0.091456
v -0.392629 0.462188 0.014557
v 0.367620 0.433553 0.014557
v 0.372972 0.418501 0.091456
v 0.367620 0.433553 0.091456
v 0.372972 0.418501 0.014557
v -0.407531 0.437936 0.014557
v -0.400864 0.450543 0.091456
v -0.407531 0.437936 0.091456
v -0.400864 0.450543 0.014557
v 0.372972 0.418501 0.014557
v 0.376760 0.402981 0.091456
v 0.372972 0.418501 0.091456
v 0.376760 0.402981 0.014557
v -0.412521 0.424576 0.014557
v -0.407531 0.437936 0.091456
v -0.412521 0.424576 0.091456
v -0.407531 0.437936 0.014557
v 0.376760 0.402981 0.014557
v 0.378947 0.387156 0.091456
v 0.376760 0.402981 0.091456
v 0.378947 0.387156 0.014557
v -0.415749 0.410684 0.014557
v -0.412521 0.424576 0.091456
v -0.415749 0.410684 0.091456
v -0.412521 0.424576 0.014557
v 0.378947 0.387156 0.014557
v 0.379426 0.069748 0.091456
v 0.378947 0.387156 0.091456
v 0.379426 0.069748 0.014557
v -0.417163 0.396493 0.014557
v -0.415749 0.410684 0.091456
v -0.417163 0.396493 0.091456
v -0.415749 0.410684 0.014557
v 0.379426 0.069748 0.014557
v 0.377595 0.055837 0.091456
v 0.379426 0.069748 0.091456
v 0.377595 0.055837 0.014557
v -0.417163 0.371190 0.014557
v -0.417163 0.396493 0.091456
v -0.417163 0.371190 0.091456
v -0.417163 0.396493 0.014557
v 0.372226 0.042874 0.091456
v 0.372226 0.042874 0.014557
v -0.417163 0.320053 0.014557
v -0.417163 0.320053 0.091456
v 0.363684 0.031742 0.091456
v 0.363684 0.031742 0.014557
v -0.417163 0.069748 0.014557
v -0.417163 0.069748 0.091456
v 0.352553 0.023201 0.014557
v 0.352553 0.023201 0.091456
v -0.415329 0.055816 0.014557
v -0.417163 0.069748 0.091456
v -0.415329 0.055816 0.091456
v -0.417163 0.069748 0.014557
v 0.339589 0.017831 0.014557
v 0.339589 0.017831 0.091456
v -0.409951 0.042833 0.014557
v -0.409951 0.042833 0.091456
v 0.325679 0.015919 0.014557
v 0.325679 0.015919 0.091456
v -0.401397 0.031685 0.014557
v -0.401397 0.031685 0.091456
v 0.325679 0.015919 0.091456
v -0.363334 0.015919 0.014557
v -0.363334 0.015919 0.091456
v 0.325679 0.015919 0.014557
v -0.390249 0.023130 0.091456
v -0.390249 0.023130 0.014557
v -0.363334 0.015919 0.091456
v -0.377266 0.017753 0.014557
v -0.377266 0.017753 0.091456
v -0.363334 0.015919 0.014557
vn -0.3533884844199608 -0.9354766587571082 0
vn -0.29123710103575273 -0.9566509034022237 0
vn -0.41401628772525767 -0.9102694730123583 0
vn -0.13096480244851536 -0.991387018534952 0
vn -0.47285927809704287 -0.8811379591854748 0
vn 0 -1 0
vn -0.6105148858528288 -0.7920047816472497 0
vn 0.19509029708825978 -0.9807852853616915 0
vn -0.7089812899271554 -0.7052272899804903 0
vn 0.555570215874808 -0.8314696237583302 0
vn -0.7972246056359793 -0.6036828042677356 0
vn 0.7071067811865476 -0.7071067811865476 0
vn -0.8546358872395813 -0.5192277922475008 0
vn 0.7194032060920754 -0.6945927058819742 0
vn -0.903134383460286 -0.4293579921368752 0
vn 0.8164729271640139 -0.5773837192095278 0
vn -0.942214394969701 -0.3350104982114443 0
vn 0.8839904210755871 -0.4675050111459835 0
vn -0.9714683316857128 -0.2371693077355878 0
vn 0.9368054732444894 -0.34985069000813496 0
vn -0.9905911315447312 -0.13685470435804917 0
vn 0.9740395973576985 -0.22637769938589955 0
vn -0.9999988584404544 -0.0015109989372034992 0
vn 0.9950735285649962 -0.09913966284594455 0
vn -0.9914448610250887 0.1305261948688555 0
vn -0.9659258358036645 0.25881900959356163 0
vn 1 0 0
vn -0.866025402838329 0.5000000016387101 0
vn -0.7071067811865476 0.7071067811865476 0
vn -0.5000000016387101 0.866025402838329 0
vn 0.9659258358036645 0.25881900959356163 0
vn 0.9914448610250887 0.1305261948688555 0
vn -0.261591588473719 0.9651786574721782 0
vn 0.866025402838329 0.5000000016387101 0
vn -0.1362177037665217 0.9906789273930157 0
vn 0.7071067811865476 0.7071067811865476 0
vn 0 1 0
vn 0.5000000016387101 0.866025402838329 0
vn 0.1305261948688555 0.9914448610250887 0
vn 0.25881900959356163 0.9659258358036645 0
usemtl material_0_0
f 1//1 2//1 3//1
f 2//1 1//1 4//1
f 5//2 6//2 7//2
f 6//2 5//2 8//2
f 9//3 10//3 11//3
f 10//3 9//3 12//3
f 13//4 14//4 15//4
f 14//4 13//4 16//4
f 17//5 18//5 19//5
f 18//5 17//5 20//5
f 21//6 22//6 23//6
f 22//6 21//6 24//6
f 25//7 26//7 27//7
f 26//7 25//7 28//7
f 29//8 30//8 31//8
f 30//8 29//8 32//8
f 33//9 34//9 35//9
f 34//9 33//9 36//9
f 37//10 38//10 39//10
f 38//10 37//10 40//10
f 41//11 42//11 43//11
f 42//11 41//11 44//11
f 45//12 46//12 47//12
f 46//12 45//12 48//12
f 49//13 50//13 51//13
f 50//13 49//13 52//13
f 53//14 54//14 55//14
f 54//14 53//14 56//14
f 57//15 58//15 59//15
f 58//15 57//15 60//15
f 61//16 62//16 63//16
f 62//16 61//16 64//16
f 65//17 66//17 67//17
f 66//17 65//17 68//17
f 69//18 70//18 71//18
f 70//18 69//18 72//18
f 73//19 74//19 75//19
f 74//19 73//19 76//19
f 77//20 78//20 79//20
f 78//20 77//20 80//20
f 81//21 82//21 83//21
f 82//21 81//21 84//21
f 85//22 86//22 87//22
f 86//22 85//22 88//22
f 89//23 90//23 91//23
f 90//23 89//23 92//23
f 93//24 94//24 95//24
f 94//24 93//24 96//24
f 97//25 98//26 99//25
f 98//26 97//25 100//26
f 101//27 102//27 103//27
f 102//27 101//27 104//27
f 100//26 105//28 98//26
f 105//28 100//26 106//28
f 107//27 103//27 108//27
f 103//27 107//27 101//27
f 106//28 109//29 105//28
f 109//29 106//28 110//29
f 111//27 108//27 112//27
f 108//27 111//27 107//27
f 109//29 113//30 114//30
f 113//30 109//29 110//29
f 115//31 116//32 117//31
f 116//32 115//31 118//32
f 114//30 119//33 120//33
f 119//33 114//30 113//30
f 121//34 117//31 122//34
f 117//31 121//34 115//31
f 120//33 123//35 124//35
f 123//35 120//33 119//33
f 125//36 122//34 126//36
f 122//34 125//36 121//34
f 127//37 128//37 129//37
f 128//37 127//37 130//37
f 131//38 125//36 126//36
f 125//36 131//38 132//38
f 133//39 134//40 135//40
f 134//40 133//39 136//39
f 135//40 132//38 131//38
f 132//38 135//40 134//40
