# SSTK version 0.8.0
# 6
mtllib original-6.mtl
o #ID27
v -0.390249 0.320053 -0.271891
v -0.246439 0.185480 -0.271891
v -0.390249 0.071512 -0.271891
v -0.246439 0.320053 -0.271891
v -0.390249 0.371191 -0.271891
v -0.192610 0.320053 -0.271891
v -0.048800 0.320053 -0.271891
v -0.048800 0.454626 -0.271891
v -0.390249 0.395155 -0.271891
v -0.389140 0.406285 -0.271891
v -0.386698 0.416789 -0.271891
v -0.382926 0.426891 -0.271891
v -0.377884 0.436424 -0.271891
v -0.371840 0.444971 -0.271891
v -0.350386 0.467191 -0.271891
v 0.005029 0.454626 -0.271891
v 0.322460 0.456676 -0.271891
v 0.190526 0.589312 -0.271891
v -0.224572 0.593005 -0.271891
v 0.183379 0.594822 -0.271891
v -0.219845 0.596164 -0.271891
v 0.181877 0.595517 -0.271891
v 0.180480 0.596044 -0.271891
v 0.171379 0.597273 -0.271891
v -0.021885 0.597273 -0.271891
v -0.214268 0.597273 -0.271891
v -0.150878 0.597273 -0.271891
v -0.067443 0.597273 -0.271891
v 0.151667 0.185480 -0.271891
v -0.192610 0.185480 -0.271891
v 0.151667 0.320053 -0.271891
v 0.005029 0.320053 -0.271891
v 0.205496 0.320053 -0.271891
v 0.352035 0.385286 -0.271891
v 0.350288 0.397935 -0.271891
v 0.347151 0.410781 -0.271891
v 0.342722 0.423240 -0.271891
v 0.337044 0.435182 -0.271891
v 0.330178 0.446483 -0.271891
v -0.370240 0.043975 -0.271891
v 0.323837 0.042833 -0.271891
v -0.361570 0.042833 -0.271891
v 0.332491 0.044023 -0.271891
v -0.376675 0.046640 -0.271891
v 0.338979 0.046711 -0.271891
v -0.382201 0.050881 -0.271891
v 0.344488 0.050938 -0.271891
v -0.386442 0.056407 -0.271891
v 0.348716 0.056447 -0.271891
v -0.389107 0.062842 -0.271891
v 0.351373 0.062863 -0.271891
v 0.352509 0.071492 -0.271891
v 0.205496 0.185480 -0.271891
v 0.205496 0.320053 -0.271891
v 0.205496 0.185480 -0.271891
v 0.352035 0.385286 -0.271891
v 0.151667 0.185480 -0.271891
v -0.192610 0.185480 -0.271891
v -0.246439 0.185480 -0.271891
v -0.390249 0.071512 -0.271891
v 0.352509 0.071492 -0.271891
v 0.351373 0.062863 -0.271891
v -0.389107 0.062842 -0.271891
v 0.348716 0.056447 -0.271891
v -0.386442 0.056407 -0.271891
v 0.344488 0.050938 -0.271891
v -0.382201 0.050881 -0.271891
v 0.338979 0.046711 -0.271891
v -0.376675 0.046640 -0.271891
v 0.332491 0.044023 -0.271891
v -0.370240 0.043975 -0.271891
v 0.323837 0.042833 -0.271891
v -0.361570 0.042833 -0.271891
v 0.322460 0.456676 -0.271891
v 0.005029 0.454626 -0.271891
v 0.330178 0.446483 -0.271891
v 0.337044 0.435182 -0.271891
v 0.342722 0.423240 -0.271891
v 0.347151 0.410781 -0.271891
v 0.350288 0.397935 -0.271891
v 0.151667 0.320053 -0.271891
v 0.005029 0.320053 -0.271891
v -0.048800 0.320053 -0.271891
v -0.192610 0.320053 -0.271891
v -0.067443 0.597273 -0.271891
v -0.150878 0.597273 -0.271891
v -0.021885 0.597273 -0.271891
v -0.214268 0.597273 -0.271891
v -0.219845 0.596164 -0.271891
v 0.171379 0.597273 -0.271891
v 0.180480 0.596044 -0.271891
v 0.181877 0.595517 -0.271891
v 0.183379 0.594822 -0.271891
v -0.224572 0.593005 -0.271891
v 0.190526 0.589312 -0.271891
v -0.350386 0.467191 -0.271891
v -0.048800 0.454626 -0.271891
v -0.371840 0.444971 -0.271891
v -0.377884 0.436424 -0.271891
v -0.382926 0.426891 -0.271891
v -0.386698 0.416789 -0.271891
v -0.389140 0.406285 -0.271891
v -0.390249 0.395155 -0.271891
v -0.390249 0.371191 -0.271891
v -0.246439 0.320053 -0.271891
v -0.390249 0.320053 -0.271891
vn 0 0 -1
vn 0 0 1
usemtl material_0_0
f 1//1 2//1 3//1
f 2//1 1//1 4//1
f 4//1 1//1 5//1
f 4//1 5//1 6//1
f 6//1 5//1 7//1
f 7//1 5//1 8//1
f 8//1 5//1 9//1
f 8//1 9//1 10//1
f 8//1 10//1 11//1
f 8//1 11//1 12//1
f 8//1 12//1 13//1
f 8//1 13//1 14//1
f 8//1 14//1 15//1
f 8//1 15//1 16//1
f 16//1 15//1 17//1
f 17//1 15//1 18//1
f 18//1 15//1 19//1
f 18//1 19//1 20//1
f 20//1 19//1 21//1
f 20//1 21//1 22//1
f 22//1 21//1 23//1
f 23//1 21//1 24//1
f 24//1 21//1 25//1
f 25//1 21//1 26//1
f 25//1 26//1 27//1
f 25//1 27//1 28//1
f 6//1 29//1 30//1
f 29//1 6//1 31//1
f 31//1 6//1 7//1
f 31//1 7//1 32//1
f 31//1 32//1 16//1
f 31//1 16//1 33//1
f 33//1 16//1 34//1
f 34//1 16//1 35//1
f 35//1 16//1 36//1
f 36//1 16//1 37//1
f 37//1 16//1 38//1
f 38//1 16//1 39//1
f 39//1 16//1 17//1
f 40//1 41//1 42//1
f 41//1 40//1 43//1
f 43//1 40//1 44//1
f 43//1 44//1 45//1
f 45//1 44//1 46//1
f 45//1 46//1 47//1
f 47//1 46//1 48//1
f 47//1 48//1 49//1
f 49//1 48//1 50//1
f 49//1 50//1 51//1
f 51//1 50//1 3//1
f 51//1 3//1 52//1
f 52//1 3//1 53//1
f 52//1 53//1 34//1
f 53//1 3//1 2//1
f 53//1 2//1 30//1
f 53//1 30//1 29//1
f 34//1 53//1 33//1
usemtl material_1_0
f 54//2 55//2 56//2
f 57//2 58//2 55//2
f 58//2 59//2 55//2
f 59//2 60//2 55//2
f 56//2 55//2 61//2
f 55//2 60//2 61//2
f 61//2 60//2 62//2
f 60//2 63//2 62//2
f 62//2 63//2 64//2
f 63//2 65//2 64//2
f 64//2 65//2 66//2
f 65//2 67//2 66//2
f 66//2 67//2 68//2
f 67//2 69//2 68//2
f 68//2 69//2 70//2
f 69//2 71//2 70//2
f 70//2 71//2 72//2
f 73//2 72//2 71//2
f 74//2 75//2 76//2
f 76//2 75//2 77//2
f 77//2 75//2 78//2
f 78//2 75//2 79//2
f 79//2 75//2 80//2
f 80//2 75//2 56//2
f 56//2 75//2 54//2
f 54//2 75//2 81//2
f 75//2 82//2 81//2
f 82//2 83//2 81//2
f 83//2 84//2 81//2
f 81//2 84//2 57//2
f 58//2 57//2 84//2
f 85//2 86//2 87//2
f 86//2 88//2 87//2
f 88//2 89//2 87//2
f 87//2 89//2 90//2
f 90//2 89//2 91//2
f 91//2 89//2 92//2
f 92//2 89//2 93//2
f 89//2 94//2 93//2
f 93//2 94//2 95//2
f 94//2 96//2 95//2
f 95//2 96//2 74//2
f 74//2 96//2 75//2
f 75//2 96//2 97//2
f 96//2 98//2 97//2
f 98//2 99//2 97//2
f 99//2 100//2 97//2
f 100//2 101//2 97//2
f 101//2 102//2 97//2
f 102//2 103//2 97//2
f 103//2 104//2 97//2
f 97//2 104//2 83//2
f 83//2 104//2 84//2
f 84//2 104//2 105//2
f 104//2 106//2 105//2
f 105//2 106//2 59//2
f 60//2 59//2 106//2
