# SSTK version 0.8.0
# 7
mtllib original-7.mtl
o #ID35
v 0.151667 0.320053 0.051084
v 0.205496 0.293139 0.077998
v 0.151667 0.293139 0.077998
v 0.205496 0.320053 0.051084
v 0.205496 0.320053 0.051084
v 0.151667 0.320053 0.051084
v 0.205496 0.293139 0.077998
v 0.151667 0.293139 0.077998
v 0.205496 0.320053 0.051084
v 0.205496 0.212395 0.077998
v 0.205496 0.293139 0.077998
v 0.205496 0.185480 0.051084
v 0.205496 0.320053 -0.271891
v 0.205496 0.185480 -0.271891
v 0.205496 0.185480 -0.271891
v 0.205496 0.320053 -0.271891
v 0.205496 0.185480 0.051084
v 0.205496 0.320053 0.051084
v 0.205496 0.212395 0.077998
v 0.205496 0.293139 0.077998
v 0.151667 0.293139 0.077998
v 0.205496 0.212395 0.077998
v 0.151667 0.212395 0.077998
v 0.205496 0.293139 0.077998
v 0.205496 0.293139 0.077998
v 0.151667 0.293139 0.077998
v 0.205496 0.212395 0.077998
v 0.151667 0.212395 0.077998
v 0.151667 0.185480 0.051084
v 0.151667 0.293139 0.077998
v 0.151667 0.212395 0.077998
v 0.151667 0.320053 0.051084
v 0.151667 0.185480 -0.271891
v 0.151667 0.320053 -0.271891
v 0.151667 0.320053 -0.271891
v 0.151667 0.185480 -0.271891
v 0.151667 0.320053 0.051084
v 0.151667 0.185480 0.051084
v 0.151667 0.293139 0.077998
v 0.151667 0.212395 0.077998
v 0.205496 0.320053 -0.271891
v 0.151667 0.320053 0.051084
v 0.151667 0.320053 -0.271891
v 0.205496 0.320053 0.051084
v 0.205496 0.320053 0.051084
v 0.205496 0.320053 -0.271891
v 0.151667 0.320053 0.051084
v 0.151667 0.320053 -0.271891
v 0.205496 0.185480 0.051084
v 0.151667 0.185480 -0.271891
v 0.151667 0.185480 0.051084
v 0.205496 0.185480 -0.271891
v 0.205496 0.185480 -0.271891
v 0.205496 0.185480 0.051084
v 0.151667 0.185480 -0.271891
v 0.151667 0.185480 0.051084
v 0.151667 0.212395 0.077998
v 0.205496 0.185480 0.051084
v 0.151667 0.185480 0.051084
v 0.205496 0.212395 0.077998
v 0.205496 0.212395 0.077998
v 0.151667 0.212395 0.077998
v 0.205496 0.185480 0.051084
v 0.151667 0.185480 0.051084
vn 0 -0.7071067811865475 -0.7071067811865477
vn -1 0 0
vn 0 0 -1
vn 1 0 0
vn 0 -1 0
vn 0 1 0
vn 0 0.7071067811865477 -0.7071067811865475
vn 0 0.7071067811865475 0.7071067811865477
vn 0 0 1
vn 0 -0.7071067811865477 0.7071067811865475
usemtl material_0_0
f 1//1 2//1 3//1
f 2//1 1//1 4//1
f 9//2 10//2 11//2
f 10//2 9//2 12//2
f 12//2 9//2 13//2
f 12//2 13//2 14//2
f 21//3 22//3 23//3
f 22//3 21//3 24//3
f 29//4 30//4 31//4
f 30//4 29//4 32//4
f 32//4 29//4 33//4
f 32//4 33//4 34//4
f 41//5 42//5 43//5
f 42//5 41//5 44//5
f 49//6 50//6 51//6
f 50//6 49//6 52//6
f 57//7 58//7 59//7
f 58//7 57//7 60//7
usemtl material_1_0
f 5//8 6//8 7//8
f 8//8 7//8 6//8
f 15//4 16//4 17//4
f 16//4 18//4 17//4
f 17//4 18//4 19//4
f 20//4 19//4 18//4
f 25//9 26//9 27//9
f 28//9 27//9 26//9
f 35//2 36//2 37//2
f 36//2 38//2 37//2
f 37//2 38//2 39//2
f 40//2 39//2 38//2
f 45//6 46//6 47//6
f 48//6 47//6 46//6
f 53//5 54//5 55//5
f 56//5 55//5 54//5
f 61//10 62//10 63//10
f 64//10 63//10 62//10
