# SSTK version 0.8.0
# 3
mtllib original-3.mtl
o #ID13
v 0.439325 -0.892918 0.091456
v -0.429764 -0.899176 0.091456
v 0.391787 -0.899176 0.091456
v -0.477301 -0.892918 0.091456
v -0.533341 -0.869706 0.091456
v 0.495364 -0.869706 0.091456
v 0.543487 -0.832780 0.091456
v -0.581463 -0.832780 0.091456
v -0.618389 -0.784658 0.091456
v 0.580412 -0.784658 0.091456
v -0.641601 -0.728618 0.091456
v 0.603625 -0.728618 0.091456
v 0.609883 -0.681081 0.091456
v -0.647859 -0.681081 0.091456
v 0.352553 0.023201 0.091456
v 0.363684 0.031742 0.091456
v 0.372226 0.042874 0.091456
v 0.377595 0.055837 0.091456
v 0.609883 0.636788 0.091456
v 0.339589 0.017831 0.091456
v 0.325679 0.015919 0.091456
v 0.379426 0.069748 0.091456
v 0.378947 0.387156 0.091456
v 0.376760 0.402981 0.091456
v 0.372972 0.418501 0.091456
v 0.367620 0.433553 0.091456
v 0.360760 0.447981 0.091456
v 0.352466 0.461634 0.091456
v 0.342822 0.474370 0.091456
v 0.208359 0.609548 0.091456
v 0.198057 0.617490 0.091456
v 0.195183 0.619032 0.091456
v 0.192215 0.620382 0.091456
v 0.189165 0.621535 0.091456
v 0.186045 0.622484 0.091456
v 0.173149 0.624188 0.091456
v -0.415329 0.055816 0.091456
v -0.647859 0.636788 0.091456
v -0.409951 0.042833 0.091456
v -0.401397 0.031685 0.091456
v -0.390249 0.023130 0.091456
v -0.377266 0.017753 0.091456
v -0.363334 0.015919 0.091456
v -0.417163 0.069748 0.091456
v -0.417163 0.320053 0.091456
v -0.417163 0.371190 0.091456
v -0.417163 0.396493 0.091456
v -0.415749 0.410684 0.091456
v -0.412521 0.424576 0.091456
v -0.407531 0.437936 0.091456
v -0.400864 0.450543 0.091456
v -0.392629 0.462188 0.091456
v -0.369584 0.486056 0.091456
v -0.241729 0.613911 0.091456
v -0.230346 0.621517 0.091456
v -0.216919 0.624188 0.091456
v 0.603625 0.684326 0.091456
v -0.641601 0.684326 0.091456
v 0.580412 0.740365 0.091456
v -0.618389 0.740365 0.091456
v 0.543487 0.788488 0.091456
v -0.581463 0.788488 0.091456
v 0.495364 0.825413 0.091456
v -0.533341 0.825413 0.091456
v 0.439325 0.848626 0.091456
v -0.477301 0.848626 0.091456
v 0.391787 0.854884 0.091456
v -0.429764 0.854884 0.091456
v 0.543487 0.788488 0.091456
v 0.495364 0.825413 0.014557
v 0.495364 0.825413 0.091456
v 0.543487 0.788488 0.014557
v 0.439325 0.848626 0.014557
v 0.439325 0.848626 0.091456
v 0.391787 0.854884 0.014557
v 0.391787 0.854884 0.091456
v 0.391787 0.854884 0.091456
v -0.429764 0.854884 0.014557
v -0.429764 0.854884 0.091456
v 0.391787 0.854884 0.014557
v -0.429764 0.854884 0.091456
v -0.477301 0.848626 0.014557
v -0.477301 0.848626 0.091456
v -0.429764 0.854884 0.014557
v -0.533341 0.825413 0.014557
v -0.533341 0.825413 0.091456
v -0.581463 0.788488 0.014557
v -0.581463 0.788488 0.091456
v -0.618389 0.740365 0.091456
v -0.618389 0.740365 0.014557
v -0.641601 0.684326 0.091456
v -0.641601 0.684326 0.014557
v -0.647859 0.636788 0.091456
v -0.647859 0.636788 0.014557
v -0.647859 0.636788 0.014557
v -0.647859 -0.681081 0.091456
v -0.647859 0.636788 0.091456
v -0.647859 -0.681081 0.014557
v -0.647859 -0.681081 0.014557
v -0.641601 -0.728618 0.091456
v -0.647859 -0.681081 0.091456
v -0.641601 -0.728618 0.014557
v -0.618389 -0.784658 0.091456
v -0.618389 -0.784658 0.014557
v -0.581463 -0.832780 0.091456
v -0.581463 -0.832780 0.014557
v -0.533341 -0.869706 0.014557
v -0.533341 -0.869706 0.091456
v -0.477301 -0.892918 0.014557
v -0.477301 -0.892918 0.091456
v -0.429764 -0.899176 0.014557
v -0.429764 -0.899176 0.091456
v 0.391787 -0.899176 0.014557
v -0.429764 -0.899176 0.091456
v -0.429764 -0.899176 0.014557
v 0.391787 -0.899176 0.091456
v 0.439325 -0.892918 0.014557
v 0.391787 -0.899176 0.091456
v 0.391787 -0.899176 0.014557
v 0.439325 -0.892918 0.091456
v 0.495364 -0.869706 0.014557
v 0.495364 -0.869706 0.091456
v 0.543487 -0.832780 0.014557
v 0.543487 -0.832780 0.091456
v 0.580412 -0.784658 0.091456
v 0.580412 -0.784658 0.014557
v 0.603625 -0.728618 0.091456
v 0.603625 -0.728618 0.014557
v 0.609883 -0.681081 0.091456
v 0.609883 -0.681081 0.014557
v 0.609883 -0.681081 0.014557
v 0.609883 0.636788 0.091456
v 0.609883 -0.681081 0.091456
v 0.609883 0.636788 0.014557
v 0.609883 0.636788 0.014557
v 0.603625 0.684326 0.091456
v 0.609883 0.636788 0.091456
v 0.603625 0.684326 0.014557
v 0.580412 0.740365 0.091456
v 0.580412 0.740365 0.014557
v -0.647859 -0.681081 0.014557
v -0.377266 0.017753 0.014557
v -0.363334 0.015919 0.014557
v -0.390249 0.023130 0.014557
v -0.401397 0.031685 0.014557
v -0.409951 0.042833 0.014557
v -0.415329 0.055816 0.014557
v -0.647859 0.636788 0.014557
v -0.417163 0.069748 0.014557
v -0.417163 0.320053 0.014557
v -0.417163 0.371190 0.014557
v -0.417163 0.396493 0.014557
v -0.415749 0.410684 0.014557
v -0.412521 0.424576 0.014557
v -0.407531 0.437936 0.014557
v -0.400864 0.450543 0.014557
v -0.392629 0.462188 0.014557
v -0.369584 0.486056 0.014557
v -0.241729 0.613911 0.014557
v -0.230346 0.621517 0.014557
v -0.216919 0.624188 0.014557
v 0.173149 0.624188 0.014557
v 0.609883 0.636788 0.014557
v 0.603625 0.684326 0.014557
v -0.641601 0.684326 0.014557
v -0.618389 0.740365 0.014557
v 0.580412 0.740365 0.014557
v -0.581463 0.788488 0.014557
v 0.543487 0.788488 0.014557
v -0.533341 0.825413 0.014557
v 0.495364 0.825413 0.014557
v -0.477301 0.848626 0.014557
v 0.439325 0.848626 0.014557
v -0.429764 0.854884 0.014557
v 0.391787 0.854884 0.014557
v -0.429764 -0.899176 0.014557
v 0.439325 -0.892918 0.014557
v 0.391787 -0.899176 0.014557
v -0.477301 -0.892918 0.014557
v -0.533341 -0.869706 0.014557
v 0.495364 -0.869706 0.014557
v 0.543487 -0.832780 0.014557
v -0.581463 -0.832780 0.014557
v -0.618389 -0.784658 0.014557
v 0.580412 -0.784658 0.014557
v -0.641601 -0.728618 0.014557
v 0.603625 -0.728618 0.014557
v 0.609883 -0.681081 0.014557
v 0.352553 0.023201 0.014557
v 0.363684 0.031742 0.014557
v 0.372226 0.042874 0.014557
v 0.377595 0.055837 0.014557
v 0.339589 0.017831 0.014557
v 0.325679 0.015919 0.014557
v 0.379426 0.069748 0.014557
v 0.378947 0.387156 0.014557
v 0.376760 0.402981 0.014557
v 0.372972 0.418501 0.014557
v 0.367620 0.433553 0.014557
v 0.360760 0.447981 0.014557
v 0.352466 0.461634 0.014557
v 0.342822 0.474370 0.014557
v 0.208359 0.609548 0.014557
v 0.198057 0.617490 0.014557
v 0.195183 0.619032 0.014557
v 0.192215 0.620382 0.014557
v 0.189165 0.621535 0.014557
v 0.186045 0.622484 0.014557
vn 0 0 1
vn 0.7071067811865476 0.7071067811865476 0
vn 0.5000000016387101 0.866025402838329 0
vn 0.25881900959356163 0.9659258358036645 0
vn 0.1305261948688555 0.9914448610250887 0
vn 0 1 0
vn -0.1305261948688555 0.9914448610250887 0
vn -0.25881900959356163 0.9659258358036645 0
vn -0.5000000016387101 0.866025402838329 0
vn -0.7071067811865476 0.7071067811865476 0
vn -0.866025402838329 0.5000000016387101 0
vn -0.9659258358036645 0.25881900959356163 0
vn -0.9914448610250887 0.1305261948688555 0
vn -1 0 0
vn -0.9914448610250887 -0.1305261948688555 0
vn -0.9659258358036645 -0.25881900959356163 0
vn -0.866025402838329 -0.5000000016387101 0
vn -0.7071067811865476 -0.7071067811865476 0
vn -0.5000000016387101 -0.866025402838329 0
vn -0.25881900959356163 -0.9659258358036645 0
vn -0.1305261948688555 -0.9914448610250887 0
vn 0 -1 0
vn 0.25881900959356163 -0.9659258358036645 0
vn 0.1305261948688555 -0.9914448610250887 0
vn 0.5000000016387101 -0.866025402838329 0
vn 0.7071067811865476 -0.7071067811865476 0
vn 0.866025402838329 -0.5000000016387101 0
vn 0.9659258358036645 -0.25881900959356163 0
vn 0.9914448610250887 -0.1305261948688555 0
vn 1 0 0
vn 0.9914448610250887 0.1305261948688555 0
vn 0.9659258358036645 0.25881900959356163 0
vn 0.866025402838329 0.5000000016387101 0
vn 0 0 -1
usemtl material_0_0
f 1//1 2//1 3//1
f 2//1 1//1 4//1
f 4//1 1//1 5//1
f 5//1 1//1 6//1
f 5//1 6//1 7//1
f 5//1 7//1 8//1
f 8//1 7//1 9//1
f 9//1 7//1 10//1
f 9//1 10//1 11//1
f 11//1 10//1 12//1
f 11//1 12//1 13//1
f 11//1 13//1 14//1
f 14//1 13//1 15//1
f 15//1 13//1 16//1
f 16//1 13//1 17//1
f 17//1 13//1 18//1
f 18//1 13//1 19//1
f 14//1 15//1 20//1
f 14//1 20//1 21//1
f 18//1 19//1 22//1
f 22//1 19//1 23//1
f 23//1 19//1 24//1
f 24//1 19//1 25//1
f 25//1 19//1 26//1
f 26//1 19//1 27//1
f 27//1 19//1 28//1
f 28//1 19//1 29//1
f 29//1 19//1 30//1
f 30//1 19//1 31//1
f 31//1 19//1 32//1
f 32//1 19//1 33//1
f 33//1 19//1 34//1
f 34//1 19//1 35//1
f 35//1 19//1 36//1
f 14//1 37//1 38//1
f 37//1 14//1 39//1
f 39//1 14//1 40//1
f 40//1 14//1 41//1
f 41//1 14//1 42//1
f 42//1 14//1 43//1
f 43//1 14//1 21//1
f 38//1 37//1 44//1
f 38//1 44//1 45//1
f 38//1 45//1 46//1
f 38//1 46//1 47//1
f 38//1 47//1 48//1
f 38//1 48//1 49//1
f 38//1 49//1 50//1
f 38//1 50//1 51//1
f 38//1 51//1 52//1
f 38//1 52//1 53//1
f 38//1 53//1 54//1
f 38//1 54//1 55//1
f 38//1 55//1 56//1
f 38//1 56//1 36//1
f 38//1 36//1 19//1
f 38//1 19//1 57//1
f 38//1 57//1 58//1
f 58//1 57//1 59//1
f 58//1 59//1 60//1
f 60//1 59//1 61//1
f 60//1 61//1 62//1
f 62//1 61//1 63//1
f 62//1 63//1 64//1
f 64//1 63//1 65//1
f 64//1 65//1 66//1
f 66//1 65//1 67//1
f 66//1 67//1 68//1
f 69//2 70//3 71//3
f 70//3 69//2 72//2
f 71//3 73//4 74//4
f 73//4 71//3 70//3
f 74//4 75//5 76//5
f 75//5 74//4 73//4
f 77//6 78//6 79//6
f 78//6 77//6 80//6
f 81//7 82//8 83//8
f 82//8 81//7 84//7
f 83//8 85//9 86//9
f 85//9 83//8 82//8
f 86//9 87//10 88//10
f 87//10 86//9 85//9
f 87//10 89//11 88//10
f 89//11 87//10 90//11
f 90//11 91//12 89//11
f 91//12 90//11 92//12
f 92//12 93//13 91//12
f 93//13 92//12 94//13
f 95//14 96//14 97//14
f 96//14 95//14 98//14
f 99//15 100//16 101//15
f 100//16 99//15 102//16
f 102//16 103//17 100//16
f 103//17 102//16 104//17
f 104//17 105//18 103//17
f 105//18 104//17 106//18
f 107//19 105//18 106//18
f 105//18 107//19 108//19
f 109//20 108//19 107//19
f 108//19 109//20 110//20
f 111//21 110//20 109//20
f 110//20 111//21 112//21
f 113//22 114//22 115//22
f 114//22 113//22 116//22
f 117//23 118//24 119//24
f 118//24 117//23 120//23
f 121//25 120//23 117//23
f 120//23 121//25 122//25
f 123//26 122//25 121//25
f 122//25 123//26 124//26
f 123//26 125//27 124//26
f 125//27 123//26 126//27
f 126//27 127//28 125//27
f 127//28 126//27 128//28
f 128//28 129//29 127//28
f 129//29 128//28 130//29
f 131//30 132//30 133//30
f 132//30 131//30 134//30
f 135//31 136//32 137//31
f 136//32 135//31 138//32
f 138//32 139//33 136//32
f 139//33 138//32 140//33
f 140//33 69//2 139//33
f 69//2 140//33 72//2
f 141//34 142//34 143//34
f 142//34 141//34 144//34
f 144//34 141//34 145//34
f 145//34 141//34 146//34
f 146//34 141//34 147//34
f 147//34 141//34 148//34
f 147//34 148//34 149//34
f 149//34 148//34 150//34
f 150//34 148//34 151//34
f 151//34 148//34 152//34
f 152//34 148//34 153//34
f 153//34 148//34 154//34
f 154//34 148//34 155//34
f 155//34 148//34 156//34
f 156//34 148//34 157//34
f 157//34 148//34 158//34
f 158//34 148//34 159//34
f 159//34 148//34 160//34
f 160//34 148//34 161//34
f 161//34 148//34 162//34
f 162//34 148//34 163//34
f 163//34 148//34 164//34
f 164//34 148//34 165//34
f 164//34 165//34 166//34
f 164//34 166//34 167//34
f 167//34 166//34 168//34
f 167//34 168//34 169//34
f 169//34 168//34 170//34
f 169//34 170//34 171//34
f 171//34 170//34 172//34
f 171//34 172//34 173//34
f 173//34 172//34 174//34
f 173//34 174//34 175//34
f 176//34 177//34 178//34
f 177//34 176//34 179//34
f 177//34 179//34 180//34
f 177//34 180//34 181//34
f 181//34 180//34 182//34
f 182//34 180//34 183//34
f 182//34 183//34 184//34
f 182//34 184//34 185//34
f 185//34 184//34 186//34
f 185//34 186//34 187//34
f 187//34 186//34 141//34
f 187//34 141//34 188//34
f 188//34 141//34 189//34
f 188//34 189//34 190//34
f 188//34 190//34 191//34
f 188//34 191//34 192//34
f 188//34 192//34 163//34
f 189//34 141//34 193//34
f 193//34 141//34 194//34
f 194//34 141//34 143//34
f 163//34 192//34 195//34
f 163//34 195//34 196//34
f 163//34 196//34 197//34
f 163//34 197//34 198//34
f 163//34 198//34 199//34
f 163//34 199//34 200//34
f 163//34 200//34 201//34
f 163//34 201//34 202//34
f 163//34 202//34 203//34
f 163//34 203//34 204//34
f 163//34 204//34 205//34
f 163//34 205//34 206//34
f 163//34 206//34 207//34
f 163//34 207//34 208//34
f 163//34 208//34 162//34
