# SSTK version 0.8.0
# 12
mtllib original-12.mtl
o #ID73
v 0.389138 -0.705619 0.110680
v -0.417163 -0.706929 0.110680
v 0.379187 -0.706929 0.110680
v -0.427115 -0.705619 0.110680
v 0.398411 -0.701778 0.110680
v -0.436388 -0.701778 0.110680
v 0.406374 -0.695668 0.110680
v -0.444351 -0.695668 0.110680
v 0.412485 -0.687705 0.110680
v -0.450461 -0.687705 0.110680
v 0.416326 -0.678431 0.110680
v -0.454302 -0.678431 0.110680
v 0.417636 -0.668480 0.110680
v -0.455613 -0.668480 0.110680
v 0.363684 0.031742 0.110680
v 0.372226 0.042874 0.110680
v 0.377595 0.055837 0.110680
v 0.379426 0.069748 0.110680
v 0.417636 0.624188 0.110680
v 0.352553 0.023201 0.110680
v 0.339590 0.017831 0.110680
v 0.325679 0.015919 0.110680
v 0.378947 0.387156 0.110680
v 0.376761 0.402981 0.110680
v 0.372972 0.418501 0.110680
v 0.367620 0.433553 0.110680
v 0.360761 0.447981 0.110680
v 0.352466 0.461634 0.110680
v 0.342822 0.474370 0.110680
v 0.208359 0.609548 0.110680
v 0.198057 0.617490 0.110680
v 0.195183 0.619032 0.110680
v 0.192215 0.620382 0.110680
v 0.189165 0.621534 0.110680
v 0.186045 0.622484 0.110680
v 0.173149 0.624188 0.110680
v 0.416326 0.634139 0.110680
v -0.417163 0.069748 0.110680
v -0.455613 0.624188 0.110680
v -0.415329 0.055816 0.110680
v -0.409951 0.042833 0.110680
v -0.401397 0.031685 0.110680
v -0.390249 0.023130 0.110680
v -0.377266 0.017753 0.110680
v -0.363334 0.015919 0.110680
v -0.417163 0.320053 0.110680
v -0.417163 0.371191 0.110680
v -0.417163 0.396493 0.110680
v -0.415749 0.410684 0.110680
v -0.412521 0.424576 0.110680
v -0.407531 0.437936 0.110680
v -0.400864 0.450544 0.110680
v -0.392629 0.462188 0.110680
v -0.369584 0.486056 0.110680
v -0.241729 0.613911 0.110680
v -0.230346 0.621517 0.110680
v -0.216919 0.624188 0.110680
v -0.454302 0.634139 0.110680
v 0.412485 0.643412 0.110680
v -0.450461 0.643412 0.110680
v 0.406374 0.651376 0.110680
v -0.444351 0.651376 0.110680
v 0.398411 0.657486 0.110680
v -0.436388 0.657486 0.110680
v 0.389138 0.661327 0.110680
v -0.427115 0.661327 0.110680
v 0.379187 0.662637 0.110680
v -0.417163 0.662637 0.110680
v -0.417163 0.662637 0.110680
v 0.379187 0.662637 0.110680
v -0.427115 0.661327 0.110680
v 0.389138 0.661327 0.110680
v -0.436388 0.657486 0.110680
v 0.398411 0.657486 0.110680
v -0.444351 0.651376 0.110680
v 0.406374 0.651376 0.110680
v -0.450461 0.643412 0.110680
v 0.412485 0.643412 0.110680
v -0.454302 0.634139 0.110680
v 0.416326 0.634139 0.110680
v 0.173149 0.624188 0.110680
v -0.455613 0.624188 0.110680
v -0.216919 0.624188 0.110680
v -0.230346 0.621517 0.110680
v -0.241729 0.613911 0.110680
v -0.369584 0.486056 0.110680
v -0.392629 0.462188 0.110680
v -0.400864 0.450544 0.110680
v -0.407531 0.437936 0.110680
v -0.412521 0.424576 0.110680
v -0.415749 0.410684 0.110680
v -0.417163 0.396493 0.110680
v -0.417163 0.371191 0.110680
v -0.417163 0.320053 0.110680
v -0.417163 0.069748 0.110680
v 0.325679 0.015919 0.110680
v -0.455613 -0.668480 0.110680
v -0.363334 0.015919 0.110680
v -0.377266 0.017753 0.110680
v -0.390249 0.023130 0.110680
v -0.401397 0.031685 0.110680
v -0.409951 0.042833 0.110680
v -0.415329 0.055816 0.110680
v 0.417636 0.624188 0.110680
v 0.186045 0.622484 0.110680
v 0.189165 0.621534 0.110680
v 0.192215 0.620382 0.110680
v 0.195183 0.619032 0.110680
v 0.198057 0.617490 0.110680
v 0.208359 0.609548 0.110680
v 0.342822 0.474370 0.110680
v 0.352466 0.461634 0.110680
v 0.360761 0.447981 0.110680
v 0.367620 0.433553 0.110680
v 0.372972 0.418501 0.110680
v 0.376761 0.402981 0.110680
v 0.378947 0.387156 0.110680
v 0.379426 0.069748 0.110680
v 0.339590 0.017831 0.110680
v 0.352553 0.023201 0.110680
v 0.363684 0.031742 0.110680
v 0.417636 -0.668480 0.110680
v 0.377595 0.055837 0.110680
v 0.372226 0.042874 0.110680
v -0.454302 -0.678431 0.110680
v 0.416326 -0.678431 0.110680
v -0.450461 -0.687705 0.110680
v 0.412485 -0.687705 0.110680
v -0.444351 -0.695668 0.110680
v 0.406374 -0.695668 0.110680
v -0.436388 -0.701778 0.110680
v 0.398411 -0.701778 0.110680
v -0.427115 -0.705619 0.110680
v 0.389138 -0.705619 0.110680
v -0.417163 -0.706929 0.110680
v 0.379187 -0.706929 0.110680
v 0.417636 -0.668480 0.091456
v 0.417636 0.624188 0.110680
v 0.417636 -0.668480 0.110680
v 0.417636 0.624188 0.091456
v 0.417636 0.624188 0.091456
v 0.417636 -0.668480 0.091456
v 0.417636 0.624188 0.110680
v 0.417636 -0.668480 0.110680
v 0.417636 0.624188 0.091456
v 0.416326 0.634139 0.110680
v 0.417636 0.624188 0.110680
v 0.416326 0.634139 0.091456
v 0.416326 0.634139 0.091456
v 0.417636 0.624188 0.091456
v 0.416326 0.634139 0.110680
v 0.417636 0.624188 0.110680
v 0.412485 0.643412 0.110680
v 0.412485 0.643412 0.091456
v 0.412485 0.643412 0.091456
v 0.412485 0.643412 0.110680
v 0.406374 0.651376 0.110680
v 0.406374 0.651376 0.091456
v 0.406374 0.651376 0.091456
v 0.406374 0.651376 0.110680
v 0.398411 0.657486 0.091456
v 0.398411 0.657486 0.110680
v 0.398411 0.657486 0.091456
v 0.398411 0.657486 0.110680
v 0.389138 0.661327 0.091456
v 0.389138 0.661327 0.110680
v 0.389138 0.661327 0.091456
v 0.389138 0.661327 0.110680
v 0.379187 0.662637 0.091456
v 0.379187 0.662637 0.110680
v 0.379187 0.662637 0.091456
v 0.379187 0.662637 0.110680
v 0.379187 0.662637 0.110680
v -0.417163 0.662637 0.091456
v -0.417163 0.662637 0.110680
v 0.379187 0.662637 0.091456
v 0.379187 0.662637 0.091456
v 0.379187 0.662637 0.110680
v -0.417163 0.662637 0.091456
v -0.417163 0.662637 0.110680
v -0.417163 0.662637 0.110680
v -0.427115 0.661327 0.091456
v -0.427115 0.661327 0.110680
v -0.417163 0.662637 0.091456
v -0.417163 0.662637 0.091456
v -0.417163 0.662637 0.110680
v -0.427115 0.661327 0.091456
v -0.427115 0.661327 0.110680
v -0.436388 0.657486 0.091456
v -0.436388 0.657486 0.110680
v -0.436388 0.657486 0.091456
v -0.436388 0.657486 0.110680
v -0.444351 0.651376 0.091456
v -0.444351 0.651376 0.110680
v -0.444351 0.651376 0.091456
v -0.444351 0.651376 0.110680
v -0.450461 0.643412 0.110680
v -0.450461 0.643412 0.091456
v -0.450461 0.643412 0.091456
v -0.450461 0.643412 0.110680
v -0.454302 0.634139 0.110680
v -0.454302 0.634139 0.091456
v -0.454302 0.634139 0.091456
v -0.454302 0.634139 0.110680
v -0.455613 0.624188 0.110680
v -0.455613 0.624188 0.091456
v -0.455613 0.624188 0.091456
v -0.455613 0.624188 0.110680
v -0.455613 0.624188 0.091456
v -0.455613 -0.668480 0.110680
v -0.455613 0.624188 0.110680
v -0.455613 -0.668480 0.091456
v -0.455613 -0.668480 0.091456
v -0.455613 0.624188 0.091456
v -0.455613 -0.668480 0.110680
v -0.455613 0.624188 0.110680
v -0.455613 -0.668480 0.091456
v -0.454302 -0.678431 0.110680
v -0.455613 -0.668480 0.110680
v -0.454302 -0.678431 0.091456
v -0.454302 -0.678431 0.091456
v -0.455613 -0.668480 0.091456
v -0.454302 -0.678431 0.110680
v -0.455613 -0.668480 0.110680
v -0.450461 -0.687705 0.110680
v -0.450461 -0.687705 0.091456
v -0.450461 -0.687705 0.091456
v -0.450461 -0.687705 0.110680
v -0.444351 -0.695668 0.110680
v -0.444351 -0.695668 0.091456
v -0.444351 -0.695668 0.091456
v -0.444351 -0.695668 0.110680
v -0.436388 -0.701778 0.091456
v -0.436388 -0.701778 0.110680
v -0.436388 -0.701778 0.110680
v -0.436388 -0.701778 0.091456
v -0.427115 -0.705619 0.091456
v -0.427115 -0.705619 0.110680
v -0.427115 -0.705619 0.110680
v -0.427115 -0.705619 0.091456
v -0.417163 -0.706929 0.091456
v -0.417163 -0.706929 0.110680
v -0.417163 -0.706929 0.110680
v -0.417163 -0.706929 0.091456
v 0.379187 -0.706929 0.091456
v -0.417163 -0.706929 0.110680
v -0.417163 -0.706929 0.091456
v 0.379187 -0.706929 0.110680
v 0.379187 -0.706929 0.110680
v 0.379187 -0.706929 0.091456
v -0.417163 -0.706929 0.110680
v -0.417163 -0.706929 0.091456
v 0.389138 -0.705619 0.091456
v 0.379187 -0.706929 0.110680
v 0.379187 -0.706929 0.091456
v 0.389138 -0.705619 0.110680
v 0.389138 -0.705619 0.110680
v 0.389138 -0.705619 0.091456
v 0.379187 -0.706929 0.110680
v 0.379187 -0.706929 0.091456
v 0.398411 -0.701778 0.091456
v 0.398411 -0.701778 0.110680
v 0.398411 -0.701778 0.110680
v 0.398411 -0.701778 0.091456
v 0.406374 -0.695668 0.091456
v 0.406374 -0.695668 0.110680
v 0.406374 -0.695668 0.110680
v 0.406374 -0.695668 0.091456
v 0.412485 -0.687705 0.110680
v 0.412485 -0.687705 0.091456
v 0.412485 -0.687705 0.091456
v 0.412485 -0.687705 0.110680
v 0.416326 -0.678431 0.110680
v 0.416326 -0.678431 0.091456
v 0.416326 -0.678431 0.091456
v 0.416326 -0.678431 0.110680
v 0.417636 -0.668480 0.110680
v 0.417636 -0.668480 0.091456
v 0.417636 -0.668480 0.091456
v 0.417636 -0.668480 0.110680
v -0.427115 -0.705619 0.091456
v 0.379187 -0.706929 0.091456
v -0.417163 -0.706929 0.091456
v 0.389138 -0.705619 0.091456
v -0.436388 -0.701778 0.091456
v 0.398411 -0.701778 0.091456
v -0.444351 -0.695668 0.091456
v 0.406374 -0.695668 0.091456
v -0.450461 -0.687705 0.091456
v 0.412485 -0.687705 0.091456
v -0.454302 -0.678431 0.091456
v 0.416326 -0.678431 0.091456
v -0.455613 -0.668480 0.091456
v 0.417636 -0.668480 0.091456
v -0.401397 0.031685 0.091456
v -0.409951 0.042833 0.091456
v -0.415329 0.055816 0.091456
v -0.417163 0.069748 0.091456
v -0.455613 0.624188 0.091456
v -0.390249 0.023130 0.091456
v -0.377266 0.017753 0.091456
v -0.363334 0.015919 0.091456
v -0.417163 0.320053 0.091456
v -0.417163 0.371191 0.091456
v -0.417163 0.396493 0.091456
v -0.415749 0.410684 0.091456
v -0.412521 0.424576 0.091456
v -0.407531 0.437936 0.091456
v -0.400864 0.450544 0.091456
v -0.392629 0.462188 0.091456
v -0.369584 0.486056 0.091456
v -0.241729 0.613911 0.091456
v -0.230346 0.621517 0.091456
v -0.216919 0.624188 0.091456
v 0.173149 0.624188 0.091456
v -0.454302 0.634139 0.091456
v 0.379426 0.069748 0.091456
v 0.417636 0.624188 0.091456
v 0.377595 0.055837 0.091456
v 0.372226 0.042874 0.091456
v 0.363684 0.031742 0.091456
v 0.352553 0.023201 0.091456
v 0.339590 0.017831 0.091456
v 0.325679 0.015919 0.091456
v 0.378947 0.387156 0.091456
v 0.376761 0.402981 0.091456
v 0.372972 0.418501 0.091456
v 0.367620 0.433553 0.091456
v 0.360761 0.447981 0.091456
v 0.352466 0.461634 0.091456
v 0.342822 0.474370 0.091456
v 0.208359 0.609548 0.091456
v 0.198057 0.617490 0.091456
v 0.195183 0.619032 0.091456
v 0.192215 0.620382 0.091456
v 0.189165 0.621534 0.091456
v 0.186045 0.622484 0.091456
v 0.416326 0.634139 0.091456
v -0.450461 0.643412 0.091456
v 0.412485 0.643412 0.091456
v -0.444351 0.651376 0.091456
v 0.406374 0.651376 0.091456
v -0.436388 0.657486 0.091456
v 0.398411 0.657486 0.091456
v -0.427115 0.661327 0.091456
v 0.389138 0.661327 0.091456
v -0.417163 0.662637 0.091456
v 0.379187 0.662637 0.091456
v 0.379187 0.662637 0.091456
v -0.417163 0.662637 0.091456
v 0.389138 0.661327 0.091456
v -0.427115 0.661327 0.091456
v 0.398411 0.657486 0.091456
v -0.436388 0.657486 0.091456
v 0.406374 0.651376 0.091456
v -0.444351 0.651376 0.091456
v 0.412485 0.643412 0.091456
v -0.450461 0.643412 0.091456
v 0.416326 0.634139 0.091456
v -0.454302 0.634139 0.091456
v 0.173149 0.624188 0.091456
v 0.417636 0.624188 0.091456
v 0.186045 0.622484 0.091456
v 0.189165 0.621534 0.091456
v 0.192215 0.620382 0.091456
v 0.195183 0.619032 0.091456
v 0.198057 0.617490 0.091456
v 0.208359 0.609548 0.091456
v 0.342822 0.474370 0.091456
v 0.352466 0.461634 0.091456
v 0.360761 0.447981 0.091456
v 0.367620 0.433553 0.091456
v 0.372972 0.418501 0.091456
v 0.376761 0.402981 0.091456
v 0.378947 0.387156 0.091456
v 0.379426 0.069748 0.091456
v -0.363334 0.015919 0.091456
v 0.417636 -0.668480 0.091456
v 0.325679 0.015919 0.091456
v 0.339590 0.017831 0.091456
v 0.352553 0.023201 0.091456
v 0.363684 0.031742 0.091456
v 0.372226 0.042874 0.091456
v 0.377595 0.055837 0.091456
v -0.455613 0.624188 0.091456
v -0.216919 0.624188 0.091456
v -0.230346 0.621517 0.091456
v -0.241729 0.613911 0.091456
v -0.369584 0.486056 0.091456
v -0.392629 0.462188 0.091456
v -0.400864 0.450544 0.091456
v -0.407531 0.437936 0.091456
v -0.412521 0.424576 0.091456
v -0.415749 0.410684 0.091456
v -0.417163 0.396493 0.091456
v -0.417163 0.371191 0.091456
v -0.417163 0.320053 0.091456
v -0.417163 0.069748 0.091456
v -0.377266 0.017753 0.091456
v -0.390249 0.023130 0.091456
v -0.401397 0.031685 0.091456
v -0.455613 -0.668480 0.091456
v -0.415329 0.055816 0.091456
v -0.409951 0.042833 0.091456
v 0.416326 -0.678431 0.091456
v -0.454302 -0.678431 0.091456
v 0.412485 -0.687705 0.091456
v -0.450461 -0.687705 0.091456
v 0.406374 -0.695668 0.091456
v -0.444351 -0.695668 0.091456
v 0.398411 -0.701778 0.091456
v -0.436388 -0.701778 0.091456
v 0.389138 -0.705619 0.091456
v -0.427115 -0.705619 0.091456
v 0.379187 -0.706929 0.091456
v -0.417163 -0.706929 0.091456
vn 0 0 1
vn 0 0 -1
vn 1 0 0
vn -1 0 0
vn 0.9914448610250887 0.1305261948688555 0
vn 0.9659258358036645 0.25881900959356163 0
vn -0.9659258358036645 -0.25881900959356163 0
vn -0.9914448610250887 -0.1305261948688555 0
vn 0.866025402838329 0.5000000016387101 0
vn -0.866025402838329 -0.5000000016387101 0
vn 0.7071067811865476 0.7071067811865476 0
vn -0.7071067811865476 -0.7071067811865476 0
vn 0.5000000016387101 0.866025402838329 0
vn -0.5000000016387101 -0.866025402838329 0
vn 0.25881900959356163 0.9659258358036645 0
vn -0.25881900959356163 -0.9659258358036645 0
vn 0.1305261948688555 0.9914448610250887 0
vn -0.1305261948688555 -0.9914448610250887 0
vn 0 1 0
vn 0 -1 0
vn -0.1305261948688555 0.9914448610250887 0
vn -0.25881900959356163 0.9659258358036645 0
vn 0.1305261948688555 -0.9914448610250887 0
vn 0.25881900959356163 -0.9659258358036645 0
vn -0.5000000016387101 0.866025402838329 0
vn 0.5000000016387101 -0.866025402838329 0
vn -0.7071067811865476 0.7071067811865476 0
vn 0.7071067811865476 -0.7071067811865476 0
vn -0.866025402838329 0.5000000016387101 0
vn 0.866025402838329 -0.5000000016387101 0
vn -0.9659258358036645 0.25881900959356163 0
vn 0.9659258358036645 -0.25881900959356163 0
vn -0.9914448610250887 0.1305261948688555 0
vn 0.9914448610250887 -0.1305261948688555 0
usemtl material_0_0
f 1//1 2//1 3//1
f 2//1 1//1 4//1
f 4//1 1//1 5//1
f 4//1 5//1 6//1
f 6//1 5//1 7//1
f 6//1 7//1 8//1
f 8//1 7//1 9//1
f 8//1 9//1 10//1
f 10//1 9//1 11//1
f 10//1 11//1 12//1
f 12//1 11//1 13//1
f 12//1 13//1 14//1
f 14//1 13//1 15//1
f 15//1 13//1 16//1
f 16//1 13//1 17//1
f 17//1 13//1 18//1
f 18//1 13//1 19//1
f 14//1 15//1 20//1
f 14//1 20//1 21//1
f 14//1 21//1 22//1
f 18//1 19//1 23//1
f 23//1 19//1 24//1
f 24//1 19//1 25//1
f 25//1 19//1 26//1
f 26//1 19//1 27//1
f 27//1 19//1 28//1
f 28//1 19//1 29//1
f 29//1 19//1 30//1
f 30//1 19//1 31//1
f 31//1 19//1 32//1
f 32//1 19//1 33//1
f 33//1 19//1 34//1
f 34//1 19//1 35//1
f 35//1 19//1 36//1
f 36//1 19//1 37//1
f 14//1 38//1 39//1
f 38//1 14//1 40//1
f 40//1 14//1 41//1
f 41//1 14//1 42//1
f 42//1 14//1 43//1
f 43//1 14//1 44//1
f 44//1 14//1 45//1
f 45//1 14//1 22//1
f 39//1 38//1 46//1
f 39//1 46//1 47//1
f 39//1 47//1 48//1
f 39//1 48//1 49//1
f 39//1 49//1 50//1
f 39//1 50//1 51//1
f 39//1 51//1 52//1
f 39//1 52//1 53//1
f 39//1 53//1 54//1
f 39//1 54//1 55//1
f 39//1 55//1 56//1
f 39//1 56//1 57//1
f 39//1 57//1 36//1
f 39//1 36//1 58//1
f 58//1 36//1 37//1
f 58//1 37//1 59//1
f 58//1 59//1 60//1
f 60//1 59//1 61//1
f 60//1 61//1 62//1
f 62//1 61//1 63//1
f 62//1 63//1 64//1
f 64//1 63//1 65//1
f 64//1 65//1 66//1
f 66//1 65//1 67//1
f 66//1 67//1 68//1
f 69//2 70//2 71//2
f 70//2 72//2 71//2
f 71//2 72//2 73//2
f 72//2 74//2 73//2
f 73//2 74//2 75//2
f 74//2 76//2 75//2
f 75//2 76//2 77//2
f 76//2 78//2 77//2
f 77//2 78//2 79//2
f 78//2 80//2 79//2
f 80//2 81//2 79//2
f 79//2 81//2 82//2
f 81//2 83//2 82//2
f 83//2 84//2 82//2
f 84//2 85//2 82//2
f 85//2 86//2 82//2
f 86//2 87//2 82//2
f 87//2 88//2 82//2
f 88//2 89//2 82//2
f 89//2 90//2 82//2
f 90//2 91//2 82//2
f 91//2 92//2 82//2
f 92//2 93//2 82//2
f 93//2 94//2 82//2
f 94//2 95//2 82//2
f 96//2 97//2 98//2
f 98//2 97//2 99//2
f 99//2 97//2 100//2
f 100//2 97//2 101//2
f 101//2 97//2 102//2
f 102//2 97//2 103//2
f 103//2 97//2 95//2
f 82//2 95//2 97//2
f 80//2 104//2 81//2
f 81//2 104//2 105//2
f 105//2 104//2 106//2
f 106//2 104//2 107//2
f 107//2 104//2 108//2
f 108//2 104//2 109//2
f 109//2 104//2 110//2
f 110//2 104//2 111//2
f 111//2 104//2 112//2
f 112//2 104//2 113//2
f 113//2 104//2 114//2
f 114//2 104//2 115//2
f 115//2 104//2 116//2
f 116//2 104//2 117//2
f 117//2 104//2 118//2
f 96//2 119//2 97//2
f 119//2 120//2 97//2
f 120//2 121//2 97//2
f 104//2 122//2 118//2
f 118//2 122//2 123//2
f 123//2 122//2 124//2
f 124//2 122//2 121//2
f 121//2 122//2 97//2
f 97//2 122//2 125//2
f 122//2 126//2 125//2
f 125//2 126//2 127//2
f 126//2 128//2 127//2
f 127//2 128//2 129//2
f 128//2 130//2 129//2
f 129//2 130//2 131//2
f 130//2 132//2 131//2
f 131//2 132//2 133//2
f 132//2 134//2 133//2
f 133//2 134//2 135//2
f 136//2 135//2 134//2
f 137//3 138//3 139//3
f 138//3 137//3 140//3
f 141//4 142//4 143//4
f 144//4 143//4 142//4
f 145//5 146//6 147//5
f 146//6 145//5 148//6
f 149//7 150//8 151//7
f 152//8 151//7 150//8
f 148//6 153//9 146//6
f 153//9 148//6 154//9
f 155//10 149//7 156//10
f 151//7 156//10 149//7
f 154//9 157//11 153//9
f 157//11 154//9 158//11
f 159//12 155//10 160//12
f 156//10 160//12 155//10
f 157//11 161//13 162//13
f 161//13 157//11 158//11
f 159//12 160//12 163//14
f 164//14 163//14 160//12
f 162//13 165//15 166//15
f 165//15 162//13 161//13
f 163//14 164//14 167//16
f 168//16 167//16 164//14
f 166//15 169//17 170//17
f 169//17 166//15 165//15
f 167//16 168//16 171//18
f 172//18 171//18 168//16
f 173//19 174//19 175//19
f 174//19 173//19 176//19
f 177//20 178//20 179//20
f 180//20 179//20 178//20
f 181//21 182//22 183//22
f 182//22 181//21 184//21
f 185//23 186//23 187//24
f 188//24 187//24 186//23
f 183//22 189//25 190//25
f 189//25 183//22 182//22
f 187//24 188//24 191//26
f 192//26 191//26 188//24
f 190//25 193//27 194//27
f 193//27 190//25 189//25
f 191//26 192//26 195//28
f 196//28 195//28 192//26
f 193//27 197//29 194//27
f 197//29 193//27 198//29
f 199//30 195//28 200//30
f 196//28 200//30 195//28
f 198//29 201//31 197//29
f 201//31 198//29 202//31
f 203//32 199//30 204//32
f 200//30 204//32 199//30
f 202//31 205//33 201//31
f 205//33 202//31 206//33
f 207//34 203//32 208//34
f 204//32 208//34 203//32
f 209//4 210//4 211//4
f 210//4 209//4 212//4
f 213//3 214//3 215//3
f 216//3 215//3 214//3
f 217//8 218//7 219//8
f 218//7 217//8 220//7
f 221//6 222//5 223//6
f 224//5 223//6 222//5
f 220//7 225//10 218//7
f 225//10 220//7 226//10
f 227//9 221//6 228//9
f 223//6 228//9 221//6
f 226//10 229//12 225//10
f 229//12 226//10 230//12
f 231//11 227//9 232//11
f 228//9 232//11 227//9
f 233//14 229//12 230//12
f 229//12 233//14 234//14
f 235//13 236//13 232//11
f 231//11 232//11 236//13
f 237//16 234//14 233//14
f 234//14 237//16 238//16
f 239//15 240//15 235//13
f 236//13 235//13 240//15
f 241//18 238//16 237//16
f 238//16 241//18 242//18
f 243//17 244//17 239//15
f 240//15 239//15 244//17
f 245//20 246//20 247//20
f 246//20 245//20 248//20
f 249//19 250//19 251//19
f 252//19 251//19 250//19
f 253//24 254//23 255//23
f 254//23 253//24 256//24
f 257//22 258//22 259//21
f 260//21 259//21 258//22
f 261//26 256//24 253//24
f 256//24 261//26 262//26
f 263//25 264//25 257//22
f 258//22 257//22 264//25
f 265//28 262//26 261//26
f 262//26 265//28 266//28
f 267//27 268//27 263//25
f 264//25 263//25 268//27
f 265//28 269//30 266//28
f 269//30 265//28 270//30
f 271//29 268//27 272//29
f 267//27 272//29 268//27
f 270//30 273//32 269//30
f 273//32 270//30 274//32
f 275//31 271//29 276//31
f 272//29 276//31 271//29
f 274//32 277//34 273//32
f 277//34 274//32 278//34
f 279//33 275//31 280//33
f 276//31 280//33 275//31
f 281//2 282//2 283//2
f 282//2 281//2 284//2
f 284//2 281//2 285//2
f 284//2 285//2 286//2
f 286//2 285//2 287//2
f 286//2 287//2 288//2
f 288//2 287//2 289//2
f 288//2 289//2 290//2
f 290//2 289//2 291//2
f 290//2 291//2 292//2
f 292//2 291//2 293//2
f 292//2 293//2 294//2
f 294//2 293//2 295//2
f 295//2 293//2 296//2
f 296//2 293//2 297//2
f 297//2 293//2 298//2
f 298//2 293//2 299//2
f 294//2 295//2 300//2
f 294//2 300//2 301//2
f 294//2 301//2 302//2
f 298//2 299//2 303//2
f 303//2 299//2 304//2
f 304//2 299//2 305//2
f 305//2 299//2 306//2
f 306//2 299//2 307//2
f 307//2 299//2 308//2
f 308//2 299//2 309//2
f 309//2 299//2 310//2
f 310//2 299//2 311//2
f 311//2 299//2 312//2
f 312//2 299//2 313//2
f 313//2 299//2 314//2
f 314//2 299//2 315//2
f 315//2 299//2 316//2
f 294//2 317//2 318//2
f 317//2 294//2 319//2
f 319//2 294//2 320//2
f 320//2 294//2 321//2
f 321//2 294//2 322//2
f 322//2 294//2 323//2
f 323//2 294//2 324//2
f 324//2 294//2 302//2
f 318//2 317//2 325//2
f 318//2 325//2 326//2
f 318//2 326//2 327//2
f 318//2 327//2 328//2
f 318//2 328//2 329//2
f 318//2 329//2 330//2
f 318//2 330//2 331//2
f 318//2 331//2 332//2
f 318//2 332//2 333//2
f 318//2 333//2 334//2
f 318//2 334//2 335//2
f 318//2 335//2 336//2
f 318//2 336//2 337//2
f 318//2 337//2 315//2
f 318//2 315//2 338//2
f 338//2 315//2 316//2
f 338//2 316//2 339//2
f 338//2 339//2 340//2
f 340//2 339//2 341//2
f 340//2 341//2 342//2
f 342//2 341//2 343//2
f 342//2 343//2 344//2
f 344//2 343//2 345//2
f 344//2 345//2 346//2
f 346//2 345//2 347//2
f 346//2 347//2 348//2
f 349//1 350//1 351//1
f 350//1 352//1 351//1
f 351//1 352//1 353//1
f 352//1 354//1 353//1
f 353//1 354//1 355//1
f 354//1 356//1 355//1
f 355//1 356//1 357//1
f 356//1 358//1 357//1
f 357//1 358//1 359//1
f 358//1 360//1 359//1
f 360//1 361//1 359//1
f 359//1 361//1 362//1
f 361//1 363//1 362//1
f 363//1 364//1 362//1
f 364//1 365//1 362//1
f 365//1 366//1 362//1
f 366//1 367//1 362//1
f 367//1 368//1 362//1
f 368//1 369//1 362//1
f 369//1 370//1 362//1
f 370//1 371//1 362//1
f 371//1 372//1 362//1
f 372//1 373//1 362//1
f 373//1 374//1 362//1
f 374//1 375//1 362//1
f 375//1 376//1 362//1
f 377//1 378//1 379//1
f 379//1 378//1 380//1
f 380//1 378//1 381//1
f 381//1 378//1 382//1
f 382//1 378//1 383//1
f 383//1 378//1 384//1
f 384//1 378//1 376//1
f 362//1 376//1 378//1
f 360//1 385//1 361//1
f 361//1 385//1 386//1
f 386//1 385//1 387//1
f 387//1 385//1 388//1
f 388//1 385//1 389//1
f 389//1 385//1 390//1
f 390//1 385//1 391//1
f 391//1 385//1 392//1
f 392//1 385//1 393//1
f 393//1 385//1 394//1
f 394//1 385//1 395//1
f 395//1 385//1 396//1
f 396//1 385//1 397//1
f 397//1 385//1 398//1
f 377//1 399//1 378//1
f 399//1 400//1 378//1
f 400//1 401//1 378//1
f 385//1 402//1 398//1
f 398//1 402//1 403//1
f 403//1 402//1 404//1
f 404//1 402//1 401//1
f 401//1 402//1 378//1
f 378//1 402//1 405//1
f 402//1 406//1 405//1
f 405//1 406//1 407//1
f 406//1 408//1 407//1
f 407//1 408//1 409//1
f 408//1 410//1 409//1
f 409//1 410//1 411//1
f 410//1 412//1 411//1
f 411//1 412//1 413//1
f 412//1 414//1 413//1
f 413//1 414//1 415//1
f 416//1 415//1 414//1
