# SSTK version 0.8.0
# 9
mtllib original-9.mtl
o mesh8/mesh8-geometry/material_1/component_1#mesh8-geometry
v 0.038478 0.543891 -0.416594
v -0.044862 0.523056 -0.416594
v -0.044862 0.543891 -0.416594
v -0.044862 0.543891 -0.416594
v -0.044862 0.523056 -0.416594
v 0.038478 0.543891 -0.416594
v -0.044862 0.523056 -0.416594
v 0.038478 0.543891 -0.416594
v 0.038478 0.523056 -0.416594
v 0.038478 0.523056 -0.416594
v 0.038478 0.543891 -0.416594
v -0.044862 0.523056 -0.416594
vn 0 0 -1
vn 0 0 1
usemtl material_0_0
f 1//1 2//1 3//1
f 4//2 5//2 6//2
f 7//1 8//1 9//1
f 10//2 11//2 12//2
