# SSTK version 0.8.0
# 10
mtllib original-10.mtl
o mesh8/mesh8-geometry/material_2#mesh8-geometry
v -0.044862 -0.514517 -0.416594
v -0.044862 0.523056 -0.416594
v -0.044862 -0.535352 -0.416594
v 0.038478 -0.514517 -0.416594
v 0.038478 0.523056 -0.416594
v -0.044862 -0.514517 -0.416594
v 0.038478 -0.535352 -0.416594
v 0.242659 0.691818 -0.416594
v 0.038478 -0.514517 -0.416594
v 0.038478 -0.535352 -0.416594
v -0.044862 -0.535352 -0.416594
v 0.242659 -0.683279 -0.416594
v -0.044862 0.523056 -0.416594
v -0.044862 0.543891 -0.416594
v -0.044862 -0.535352 -0.416594
v -0.044862 0.523056 -0.416594
v -0.044862 -0.514517 -0.416594
v 0.038478 0.523056 -0.416594
v 0.038478 -0.514517 -0.416594
v 0.242659 0.691818 -0.416594
v 0.038478 0.523056 -0.416594
v 0.242659 0.691818 -0.416594
v 0.038478 -0.535352 -0.416594
v 0.242659 -0.683279 -0.416594
v 0.242659 -0.683279 -0.416594
v -0.044862 -0.535352 -0.416594
v -0.249043 -0.683279 -0.416594
v -0.044862 0.543891 -0.416594
v -0.249043 -0.683279 -0.416594
v -0.044862 -0.535352 -0.416594
v 0.038478 0.523056 -0.416594
v 0.242659 0.691818 -0.416594
v 0.038478 0.543891 -0.416594
v 0.242659 -0.683279 -0.416594
v -0.249043 -0.683279 -0.416594
v 0.242659 -0.683279 0.416798
v -0.249043 -0.683279 -0.416594
v -0.044862 0.543891 -0.416594
v -0.249043 0.691818 -0.416594
v 0.038478 0.543891 -0.416594
v 0.242659 0.691818 -0.416594
v -0.044862 0.543891 -0.416594
v -0.249043 -0.683279 0.416798
v 0.242659 -0.683279 0.416798
v -0.249043 -0.683279 -0.416594
v 0.242659 0.691818 -0.416594
v -0.249043 0.691818 -0.416594
v -0.044862 0.543891 -0.416594
v -0.249043 0.691818 -0.416594
v -0.249043 -0.683279 0.416798
v -0.249043 -0.683279 -0.416594
v 0.242659 0.691818 0.416798
v -0.249043 0.691818 0.416798
v 0.242659 0.691818 -0.416594
v 0.242659 -0.683279 0.416798
v 0.094037 0.247342 0.416798
v 0.242659 0.691818 0.416798
v 0.242659 -0.683279 0.416798
v -0.249043 -0.683279 0.416798
v -0.100421 -0.238803 0.416798
v -0.249043 0.691818 -0.416594
v 0.242659 0.691818 -0.416594
v -0.249043 0.691818 0.416798
v -0.249043 -0.683279 0.416798
v -0.249043 0.691818 -0.416594
v -0.249043 0.691818 0.416798
v 0.242659 0.691818 0.416798
v -0.100421 0.247342 0.416798
v -0.249043 0.691818 0.416798
v 0.094037 0.247342 0.416798
v -0.100421 0.247342 0.416798
v 0.242659 0.691818 0.416798
v 0.094037 0.247342 0.416798
v 0.242659 -0.683279 0.416798
v 0.094037 -0.016565 0.416798
v -0.249043 0.691818 0.416798
v -0.100421 -0.238803 0.416798
v -0.249043 -0.683279 0.416798
v 0.094037 -0.238803 0.416798
v 0.242659 -0.683279 0.416798
v -0.100421 -0.238803 0.416798
v -0.100421 -0.238803 0.416798
v -0.249043 0.691818 0.416798
v -0.100421 0.247342 0.416798
v -0.100421 0.247342 0.416798
v 0.094037 0.247342 0.416798
v -0.100421 0.247342 0.389852
v 0.094037 -0.016565 0.416798
v 0.242659 -0.683279 0.416798
v 0.094037 -0.238803 0.416798
v 0.094037 -0.016565 0.416798
v 0.094037 -0.016565 0.389852
v 0.094037 0.247342 0.416798
v -0.100421 -0.016565 0.416798
v -0.100421 -0.238803 0.416798
v -0.100421 0.247342 0.416798
v 0.094037 0.247342 0.389852
v -0.100421 0.247342 0.389852
v 0.094037 0.247342 0.416798
v -0.100421 0.247342 0.416798
v -0.100421 0.247342 0.389852
v -0.100421 -0.016565 0.416798
v 0.094037 0.247342 0.389852
v 0.094037 0.247342 0.416798
v 0.094037 -0.016565 0.389852
v 0.094037 0.247342 0.389852
v 0.094037 -0.016565 0.389852
v -0.100421 0.247342 0.389852
v -0.100421 -0.016565 0.389852
v -0.100421 -0.016565 0.416798
v -0.100421 0.247342 0.389852
v -0.100421 -0.016565 0.389852
v -0.100421 0.247342 0.389852
v 0.094037 -0.016565 0.389852
v -0.044862 -0.535352 -0.416594
v -0.044862 0.523056 -0.416594
v -0.044862 -0.514517 -0.416594
v -0.044862 -0.514517 -0.416594
v 0.038478 0.523056 -0.416594
v 0.038478 -0.514517 -0.416594
v 0.038478 -0.514517 -0.416594
v 0.242659 0.691818 -0.416594
v 0.038478 -0.535352 -0.416594
v 0.242659 -0.683279 -0.416594
v -0.044862 -0.535352 -0.416594
v 0.038478 -0.535352 -0.416594
v -0.044862 -0.535352 -0.416594
v -0.044862 0.543891 -0.416594
v -0.044862 0.523056 -0.416594
v 0.038478 0.523056 -0.416594
v -0.044862 -0.514517 -0.416594
v -0.044862 0.523056 -0.416594
v 0.038478 0.523056 -0.416594
v 0.242659 0.691818 -0.416594
v 0.038478 -0.514517 -0.416594
v 0.242659 -0.683279 -0.416594
v 0.038478 -0.535352 -0.416594
v 0.242659 0.691818 -0.416594
v -0.249043 -0.683279 -0.416594
v -0.044862 -0.535352 -0.416594
v 0.242659 -0.683279 -0.416594
v -0.044862 -0.535352 -0.416594
v -0.249043 -0.683279 -0.416594
v -0.044862 0.543891 -0.416594
v 0.038478 0.543891 -0.416594
v 0.242659 0.691818 -0.416594
v 0.038478 0.523056 -0.416594
v 0.242659 0.691818 -0.416594
v 0.242659 -0.683279 0.416798
v 0.242659 -0.683279 -0.416594
v 0.242659 -0.683279 -0.416594
v 0.242659 -0.683279 0.416798
v 0.242659 0.691818 -0.416594
v 0.242659 -0.683279 0.416798
v -0.249043 -0.683279 -0.416594
v 0.242659 -0.683279 -0.416594
v -0.249043 0.691818 -0.416594
v -0.044862 0.543891 -0.416594
v -0.249043 -0.683279 -0.416594
v -0.044862 0.543891 -0.416594
v 0.242659 0.691818 -0.416594
v 0.038478 0.543891 -0.416594
v 0.242659 -0.683279 0.416798
v 0.242659 0.691818 -0.416594
v 0.242659 0.691818 0.416798
v 0.242659 0.691818 0.416798
v 0.242659 0.691818 -0.416594
v 0.242659 -0.683279 0.416798
v -0.249043 -0.683279 -0.416594
v 0.242659 -0.683279 0.416798
v -0.249043 -0.683279 0.416798
v -0.044862 0.543891 -0.416594
v -0.249043 0.691818 -0.416594
v 0.242659 0.691818 -0.416594
v -0.249043 -0.683279 -0.416594
v -0.249043 -0.683279 0.416798
v -0.249043 0.691818 -0.416594
v 0.242659 0.691818 -0.416594
v -0.249043 0.691818 0.416798
v 0.242659 0.691818 0.416798
v 0.242659 0.691818 0.416798
v 0.094037 0.247342 0.416798
v 0.242659 -0.683279 0.416798
v -0.100421 -0.238803 0.416798
v -0.249043 -0.683279 0.416798
v 0.242659 -0.683279 0.416798
v -0.249043 0.691818 0.416798
v 0.242659 0.691818 -0.416594
v -0.249043 0.691818 -0.416594
v -0.249043 0.691818 0.416798
v -0.249043 0.691818 -0.416594
v -0.249043 -0.683279 0.416798
v -0.249043 0.691818 0.416798
v -0.100421 0.247342 0.416798
v 0.242659 0.691818 0.416798
v 0.242659 0.691818 0.416798
v -0.100421 0.247342 0.416798
v 0.094037 0.247342 0.416798
v 0.094037 -0.016565 0.416798
v 0.242659 -0.683279 0.416798
v 0.094037 0.247342 0.416798
v -0.249043 -0.683279 0.416798
v -0.100421 -0.238803 0.416798
v -0.249043 0.691818 0.416798
v -0.100421 -0.238803 0.416798
v 0.242659 -0.683279 0.416798
v 0.094037 -0.238803 0.416798
v -0.100421 0.247342 0.416798
v -0.249043 0.691818 0.416798
v -0.100421 -0.238803 0.416798
v -0.100421 0.247342 0.389852
v 0.094037 0.247342 0.416798
v -0.100421 0.247342 0.416798
v 0.094037 -0.238803 0.416798
v 0.242659 -0.683279 0.416798
v 0.094037 -0.016565 0.416798
v 0.094037 0.247342 0.416798
v 0.094037 -0.016565 0.389852
v 0.094037 -0.016565 0.416798
v -0.100421 0.247342 0.416798
v -0.100421 -0.238803 0.416798
v -0.100421 -0.016565 0.416798
v 0.094037 0.247342 0.416798
v -0.100421 0.247342 0.389852
v 0.094037 0.247342 0.389852
v -0.100421 -0.016565 0.416798
v -0.100421 0.247342 0.389852
v -0.100421 0.247342 0.416798
v 0.094037 -0.016565 0.389852
v 0.094037 0.247342 0.416798
v 0.094037 0.247342 0.389852
v -0.100421 0.247342 0.389852
v 0.094037 -0.016565 0.389852
v 0.094037 0.247342 0.389852
v -0.100421 0.247342 0.389852
v -0.100421 -0.016565 0.416798
v -0.100421 -0.016565 0.389852
v 0.094037 -0.016565 0.389852
v -0.100421 0.247342 0.389852
v -0.100421 -0.016565 0.389852
vn 0 0 1
vn 0 1 0
vn 1 0 0
vn 0 -1 0
vn 0 0 -1
vn -1 0 0
usemtl material_0_0
f 1//1 2//1 3//1
f 4//1 5//1 6//1
f 7//1 8//1 9//1
f 10//1 11//1 12//1
f 13//1 14//1 15//1
f 16//1 17//1 18//1
f 19//1 20//1 21//1
f 22//1 23//1 24//1
f 25//1 26//1 27//1
f 28//1 29//1 30//1
f 31//1 32//1 33//1
f 34//2 35//2 36//2
f 37//1 38//1 39//1
f 40//1 41//1 42//1
f 43//2 44//2 45//2
f 46//1 47//1 48//1
f 49//3 50//3 51//3
f 52//4 53//4 54//4
f 55//5 56//5 57//5
f 58//5 59//5 60//5
f 61//4 62//4 63//4
f 64//3 65//3 66//3
f 67//5 68//5 69//5
f 70//5 71//5 72//5
f 73//5 74//5 75//5
f 76//5 77//5 78//5
f 79//5 80//5 81//5
f 82//5 83//5 84//5
f 85//2 86//2 87//2
f 88//5 89//5 90//5
f 91//3 92//3 93//3
f 94//5 95//5 96//5
f 97//2 98//2 99//2
f 100//6 101//6 102//6
f 103//3 104//3 105//3
f 106//5 107//5 108//5
f 109//6 110//6 111//6
f 112//5 113//5 114//5
usemtl material_1_0
f 115//5 116//5 117//5
f 118//5 119//5 120//5
f 121//5 122//5 123//5
f 124//5 125//5 126//5
f 127//5 128//5 129//5
f 130//5 131//5 132//5
f 133//5 134//5 135//5
f 136//5 137//5 138//5
f 139//5 140//5 141//5
f 142//5 143//5 144//5
f 145//5 146//5 147//5
f 148//3 149//3 150//3
f 151//6 152//6 153//6
f 154//4 155//4 156//4
f 157//5 158//5 159//5
f 160//5 161//5 162//5
f 163//3 164//3 165//3
f 166//6 167//6 168//6
f 169//4 170//4 171//4
f 172//5 173//5 174//5
f 175//6 176//6 177//6
f 178//2 179//2 180//2
f 181//1 182//1 183//1
f 184//1 185//1 186//1
f 187//2 188//2 189//2
f 190//6 191//6 192//6
f 193//1 194//1 195//1
f 196//1 197//1 198//1
f 199//1 200//1 201//1
f 202//1 203//1 204//1
f 205//1 206//1 207//1
f 208//1 209//1 210//1
f 211//4 212//4 213//4
f 214//1 215//1 216//1
f 217//6 218//6 219//6
f 220//1 221//1 222//1
f 223//4 224//4 225//4
f 226//3 227//3 228//3
f 229//6 230//6 231//6
f 232//1 233//1 234//1
f 235//3 236//3 237//3
f 238//1 239//1 240//1
