# SSTK version 0.8.0
# 7
mtllib original-7.mtl
o mesh8/mesh8-geometry/material_0/component_1#mesh8-geometry
v -0.044862 0.543891 -0.416594
v -0.044862 0.523056 -0.861070
v -0.044862 0.523056 -0.416594
v -0.044862 0.523056 -0.861070
v 0.038478 0.523056 -0.416594
v -0.044862 0.523056 -0.416594
v 0.038478 0.543891 -0.861070
v -0.044862 0.543891 -0.416594
v 0.038478 0.543891 -0.416594
v -0.044862 0.523056 -0.861070
v -0.044862 0.543891 -0.416594
v -0.044862 0.543891 -0.861070
v 0.038478 0.523056 -0.416594
v 0.038478 0.543891 -0.861070
v 0.038478 0.543891 -0.416594
v 0.038478 0.523056 -0.416594
v -0.044862 0.523056 -0.861070
v 0.038478 0.523056 -0.861070
v -0.044862 0.543891 -0.416594
v 0.038478 0.543891 -0.861070
v -0.044862 0.543891 -0.861070
v 0.038478 0.543891 -0.861070
v -0.044862 0.523056 -0.861070
v -0.044862 0.543891 -0.861070
v 0.038478 0.543891 -0.861070
v 0.038478 0.523056 -0.416594
v 0.038478 0.523056 -0.861070
v -0.044862 0.523056 -0.861070
v 0.038478 0.543891 -0.861070
v 0.038478 0.523056 -0.861070
v -0.044862 0.523056 -0.416594
v -0.044862 0.523056 -0.861070
v -0.044862 0.543891 -0.416594
v -0.044862 0.523056 -0.416594
v 0.038478 0.523056 -0.416594
v -0.044862 0.523056 -0.861070
v 0.038478 0.543891 -0.416594
v -0.044862 0.543891 -0.416594
v 0.038478 0.543891 -0.861070
v -0.044862 0.543891 -0.861070
v -0.044862 0.543891 -0.416594
v -0.044862 0.523056 -0.861070
v 0.038478 0.543891 -0.416594
v 0.038478 0.543891 -0.861070
v 0.038478 0.523056 -0.416594
v 0.038478 0.523056 -0.861070
v -0.044862 0.523056 -0.861070
v 0.038478 0.523056 -0.416594
v -0.044862 0.543891 -0.861070
v 0.038478 0.543891 -0.861070
v -0.044862 0.543891 -0.416594
v -0.044862 0.543891 -0.861070
v -0.044862 0.523056 -0.861070
v 0.038478 0.543891 -0.861070
v 0.038478 0.523056 -0.861070
v 0.038478 0.523056 -0.416594
v 0.038478 0.543891 -0.861070
v 0.038478 0.523056 -0.861070
v 0.038478 0.543891 -0.861070
v -0.044862 0.523056 -0.861070
vn -1 0 0
vn 0 -1 0
vn 0 1 0
vn 1 0 0
vn 0 0 -1
vn 0 0 1
usemtl material_0_0
f 1//1 2//1 3//1
f 4//2 5//2 6//2
f 7//3 8//3 9//3
f 10//1 11//1 12//1
f 13//4 14//4 15//4
f 16//2 17//2 18//2
f 19//3 20//3 21//3
f 22//5 23//5 24//5
f 25//4 26//4 27//4
f 28//5 29//5 30//5
usemtl material_1_0
f 31//4 32//4 33//4
f 34//3 35//3 36//3
f 37//2 38//2 39//2
f 40//4 41//4 42//4
f 43//1 44//1 45//1
f 46//3 47//3 48//3
f 49//2 50//2 51//2
f 52//6 53//6 54//6
f 55//1 56//1 57//1
f 58//6 59//6 60//6
