# SSTK version 0.8.0
# 11
mtllib original-11.mtl
o mesh8/mesh8-geometry/material_3#mesh8-geometry
v -0.100421 -0.238803 0.555697
v 0.094037 -0.238803 0.416798
v -0.100421 -0.238803 0.416798
v 0.094037 -0.238803 0.416798
v 0.094037 -0.016565 0.555697
v 0.094037 -0.016565 0.416798
v 0.094037 -0.016565 0.416798
v -0.100421 -0.016565 0.416798
v 0.094037 -0.016565 0.389852
v 0.094037 -0.238803 0.416798
v -0.100421 -0.238803 0.555697
v 0.094037 -0.238803 0.555697
v -0.100421 -0.016565 0.416798
v -0.100421 -0.238803 0.555697
v -0.100421 -0.238803 0.416798
v 0.094037 -0.016565 0.555697
v 0.094037 -0.238803 0.416798
v 0.094037 -0.238803 0.555697
v 0.094037 -0.016565 0.555697
v -0.100421 -0.016565 0.555697
v 0.094037 -0.016565 0.416798
v -0.100421 -0.016565 0.389852
v 0.094037 -0.016565 0.389852
v -0.100421 -0.016565 0.416798
v -0.100421 -0.016565 0.555697
v -0.100421 -0.016565 0.416798
v 0.094037 -0.016565 0.416798
v -0.100421 -0.238803 0.555697
v 0.094037 -0.016565 0.555697
v 0.094037 -0.238803 0.555697
v -0.100421 -0.238803 0.555697
v -0.100421 -0.016565 0.416798
v -0.100421 -0.016565 0.555697
v 0.094037 -0.016565 0.555697
v -0.100421 -0.238803 0.555697
v -0.100421 -0.016565 0.555697
v -0.100421 -0.238803 0.416798
v 0.094037 -0.238803 0.416798
v -0.100421 -0.238803 0.555697
v 0.094037 -0.016565 0.416798
v 0.094037 -0.016565 0.555697
v 0.094037 -0.238803 0.416798
v 0.094037 -0.016565 0.389852
v -0.100421 -0.016565 0.416798
v 0.094037 -0.016565 0.416798
v 0.094037 -0.238803 0.555697
v -0.100421 -0.238803 0.555697
v 0.094037 -0.238803 0.416798
v -0.100421 -0.238803 0.416798
v -0.100421 -0.238803 0.555697
v -0.100421 -0.016565 0.416798
v 0.094037 -0.238803 0.555697
v 0.094037 -0.238803 0.416798
v 0.094037 -0.016565 0.555697
v 0.094037 -0.016565 0.416798
v -0.100421 -0.016565 0.555697
v 0.094037 -0.016565 0.555697
v -0.100421 -0.016565 0.416798
v 0.094037 -0.016565 0.389852
v -0.100421 -0.016565 0.389852
v 0.094037 -0.016565 0.416798
v -0.100421 -0.016565 0.416798
v -0.100421 -0.016565 0.555697
v 0.094037 -0.238803 0.555697
v 0.094037 -0.016565 0.555697
v -0.100421 -0.238803 0.555697
v -0.100421 -0.016565 0.555697
v -0.100421 -0.016565 0.416798
v -0.100421 -0.238803 0.555697
v -0.100421 -0.016565 0.555697
v -0.100421 -0.238803 0.555697
v 0.094037 -0.016565 0.555697
vn 0 1 0
vn -1 0 0
vn 0 -1 0
vn 1 0 0
vn 0 0 -1
vn 0 0 1
usemtl material_0_0
f 1//1 2//1 3//1
f 4//2 5//2 6//2
f 7//3 8//3 9//3
f 10//1 11//1 12//1
f 13//4 14//4 15//4
f 16//2 17//2 18//2
f 19//3 20//3 21//3
f 22//3 23//3 24//3
f 25//3 26//3 27//3
f 28//5 29//5 30//5
f 31//4 32//4 33//4
f 34//5 35//5 36//5
usemtl material_1_0
f 37//3 38//3 39//3
f 40//4 41//4 42//4
f 43//1 44//1 45//1
f 46//3 47//3 48//3
f 49//2 50//2 51//2
f 52//4 53//4 54//4
f 55//1 56//1 57//1
f 58//1 59//1 60//1
f 61//1 62//1 63//1
f 64//6 65//6 66//6
f 67//2 68//2 69//2
f 70//6 71//6 72//6
