# SSTK version 0.8.0
# 7
mtllib original-7.mtl
o #ID5
v 0.240212 -0.436893 0.084557
v 0.243592 -0.439795 0.084557
v 0.240212 -0.462313 0.084557
v 0.246000 -0.436893 0.084557
v 0.246170 -0.439795 0.084557
v 0.249198 -0.437028 0.084557
v 0.248270 -0.439885 0.084557
v 0.249994 -0.440154 0.084557
v 0.251625 -0.437431 0.084557
v 0.251484 -0.440628 0.084557
v 0.252880 -0.441332 0.084557
v 0.253513 -0.438069 0.084557
v 0.254557 -0.442721 0.084557
v 0.255099 -0.438908 0.084557
v 0.255765 -0.444567 0.084557
v 0.257280 -0.440796 0.084557
v 0.256495 -0.446857 0.084557
v 0.256738 -0.449578 0.084557
v 0.257197 -0.458404 0.084557
v 0.258846 -0.455911 0.084557
v 0.258906 -0.443218 0.084557
v 0.259903 -0.452941 0.084557
v 0.259496 -0.444627 0.084557
v 0.259918 -0.446165 0.084557
v 0.260255 -0.449629 0.084557
v 0.243592 -0.459411 0.084557
v 0.246068 -0.462313 0.084557
v 0.246170 -0.459411 0.084557
v 0.248883 -0.462211 0.084557
v 0.248283 -0.459321 0.084557
v 0.250114 -0.459052 0.084557
v 0.251147 -0.461904 0.084557
v 0.251732 -0.458540 0.084557
v 0.253121 -0.461293 0.084557
v 0.253204 -0.457721 0.084557
v 0.255065 -0.460282 0.084557
v 0.254745 -0.456327 0.084557
v 0.255850 -0.454537 0.084557
v 0.256516 -0.452303 0.084557
v 0.256738 -0.449578 0.084557
v 0.256516 -0.452303 0.084557
v 0.257197 -0.458404 0.084557
v 0.255850 -0.454537 0.084557
v 0.255065 -0.460282 0.084557
v 0.254745 -0.456327 0.084557
v 0.253204 -0.457721 0.084557
v 0.253121 -0.461293 0.084557
v 0.251732 -0.458540 0.084557
v 0.251147 -0.461904 0.084557
v 0.250114 -0.459052 0.084557
v 0.248883 -0.462211 0.084557
v 0.248283 -0.459321 0.084557
v 0.246170 -0.459411 0.084557
v 0.246068 -0.462313 0.084557
v 0.243592 -0.459411 0.084557
v 0.243592 -0.439795 0.084557
v 0.240212 -0.462313 0.084557
v 0.260255 -0.449629 0.084557
v 0.259918 -0.446165 0.084557
v 0.259903 -0.452941 0.084557
v 0.259496 -0.444627 0.084557
v 0.258906 -0.443218 0.084557
v 0.258846 -0.455911 0.084557
v 0.257280 -0.440796 0.084557
v 0.256495 -0.446857 0.084557
v 0.255765 -0.444567 0.084557
v 0.255099 -0.438908 0.084557
v 0.254557 -0.442721 0.084557
v 0.253513 -0.438069 0.084557
v 0.252880 -0.441332 0.084557
v 0.251625 -0.437431 0.084557
v 0.251484 -0.440628 0.084557
v 0.249994 -0.440154 0.084557
v 0.249198 -0.437028 0.084557
v 0.248270 -0.439885 0.084557
v 0.246170 -0.439795 0.084557
v 0.246000 -0.436893 0.084557
v 0.240212 -0.436893 0.084557
vn 0 0 -1
vn 0 0 1
usemtl material_0_0
f 1//1 2//1 3//1
f 2//1 1//1 4//1
f 2//1 4//1 5//1
f 5//1 4//1 6//1
f 5//1 6//1 7//1
f 7//1 6//1 8//1
f 8//1 6//1 9//1
f 8//1 9//1 10//1
f 10//1 9//1 11//1
f 11//1 9//1 12//1
f 11//1 12//1 13//1
f 13//1 12//1 14//1
f 13//1 14//1 15//1
f 15//1 14//1 16//1
f 15//1 16//1 17//1
f 17//1 16//1 18//1
f 18//1 16//1 19//1
f 19//1 16//1 20//1
f 20//1 16//1 21//1
f 20//1 21//1 22//1
f 22//1 21//1 23//1
f 22//1 23//1 24//1
f 22//1 24//1 25//1
f 3//1 26//1 27//1
f 26//1 3//1 2//1
f 27//1 26//1 28//1
f 27//1 28//1 29//1
f 29//1 28//1 30//1
f 29//1 30//1 31//1
f 29//1 31//1 32//1
f 32//1 31//1 33//1
f 32//1 33//1 34//1
f 34//1 33//1 35//1
f 34//1 35//1 36//1
f 36//1 35//1 37//1
f 36//1 37//1 38//1
f 36//1 38//1 19//1
f 19//1 38//1 39//1
f 19//1 39//1 18//1
f 40//2 41//2 42//2
f 41//2 43//2 42//2
f 42//2 43//2 44//2
f 43//2 45//2 44//2
f 45//2 46//2 44//2
f 44//2 46//2 47//2
f 46//2 48//2 47//2
f 47//2 48//2 49//2
f 48//2 50//2 49//2
f 49//2 50//2 51//2
f 50//2 52//2 51//2
f 52//2 53//2 51//2
f 51//2 53//2 54//2
f 53//2 55//2 54//2
f 56//2 57//2 55//2
f 54//2 55//2 57//2
f 58//2 59//2 60//2
f 59//2 61//2 60//2
f 61//2 62//2 60//2
f 60//2 62//2 63//2
f 62//2 64//2 63//2
f 63//2 64//2 42//2
f 42//2 64//2 40//2
f 40//2 64//2 65//2
f 65//2 64//2 66//2
f 64//2 67//2 66//2
f 66//2 67//2 68//2
f 67//2 69//2 68//2
f 68//2 69//2 70//2
f 69//2 71//2 70//2
f 70//2 71//2 72//2
f 72//2 71//2 73//2
f 71//2 74//2 73//2
f 73//2 74//2 75//2
f 75//2 74//2 76//2
f 74//2 77//2 76//2
f 76//2 77//2 56//2
f 77//2 78//2 56//2
f 57//2 56//2 78//2
