# SSTK version 0.8.0
# 12
mtllib original-12.mtl
o #ID37
v 0.304518 -0.450361 0.084557
v 0.304472 -0.454738 0.084557
v 0.304352 -0.452599 0.084557
v 0.304834 -0.456611 0.084557
v 0.305017 -0.448391 0.084557
v 0.305437 -0.458220 0.084557
v 0.305798 -0.446695 0.084557
v 0.306281 -0.459565 0.084557
v 0.306810 -0.445275 0.084557
v 0.307328 -0.460625 0.084557
v 0.307984 -0.444187 0.084557
v 0.307664 -0.452531 0.084557
v 0.308013 -0.449573 0.084557
v 0.309354 -0.443380 0.084557
v 0.308451 -0.448386 0.084557
v 0.309063 -0.447392 0.084557
v 0.309828 -0.446608 0.084557
v 0.310847 -0.442881 0.084557
v 0.310724 -0.446048 0.084557
v 0.311749 -0.445712 0.084557
v 0.312392 -0.442715 0.084557
v 0.312905 -0.445600 0.084557
v 0.314962 -0.443065 0.084557
v 0.314928 -0.445847 0.084557
v 0.317138 -0.446675 0.084557
v 0.317138 -0.444063 0.084557
v 0.317326 -0.443244 0.084557
v 0.317138 -0.457140 0.084557
v 0.317138 -0.459787 0.084557
v 0.317138 -0.461460 0.084557
v 0.306349 -0.465369 0.084557
v 0.306178 -0.468715 0.084557
v 0.306178 -0.465369 0.084557
v 0.308901 -0.469313 0.084557
v 0.307305 -0.465736 0.084557
v 0.308739 -0.466171 0.084557
v 0.310378 -0.466530 0.084557
v 0.311761 -0.469535 0.084557
v 0.312017 -0.466667 0.084557
v 0.313798 -0.469393 0.084557
v 0.313389 -0.466568 0.084557
v 0.314535 -0.466274 0.084557
v 0.315555 -0.468967 0.084557
v 0.315455 -0.465804 0.084557
v 0.316148 -0.465181 0.084557
v 0.317033 -0.468257 0.084557
v 0.316916 -0.463559 0.084557
v 0.318231 -0.467264 0.084557
v 0.320348 -0.443244 0.084557
v 0.319157 -0.465968 0.084557
v 0.319819 -0.464349 0.084557
v 0.320216 -0.462408 0.084557
v 0.320348 -0.460145 0.084557
v 0.307930 -0.455327 0.084557
v 0.308543 -0.461383 0.084557
v 0.308730 -0.457362 0.084557
v 0.309923 -0.461837 0.084557
v 0.309347 -0.458087 0.084557
v 0.310128 -0.458604 0.084557
v 0.311471 -0.461989 0.084557
v 0.311075 -0.458915 0.084557
v 0.312188 -0.459018 0.084557
v 0.313191 -0.461854 0.084557
v 0.313453 -0.458895 0.084557
v 0.314595 -0.461451 0.084557
v 0.314757 -0.458523 0.084557
v 0.315854 -0.460766 0.084557
v 0.316014 -0.457930 0.084557
v 0.317138 -0.457140 0.084557
v 0.316014 -0.457930 0.084557
v 0.317138 -0.459787 0.084557
v 0.315854 -0.460766 0.084557
v 0.314757 -0.458523 0.084557
v 0.314595 -0.461451 0.084557
v 0.313453 -0.458895 0.084557
v 0.313191 -0.461854 0.084557
v 0.312188 -0.459018 0.084557
v 0.311471 -0.461989 0.084557
v 0.311075 -0.458915 0.084557
v 0.310128 -0.458604 0.084557
v 0.309923 -0.461837 0.084557
v 0.309347 -0.458087 0.084557
v 0.308730 -0.457362 0.084557
v 0.308543 -0.461383 0.084557
v 0.307930 -0.455327 0.084557
v 0.307664 -0.452531 0.084557
v 0.307328 -0.460625 0.084557
v 0.320348 -0.460145 0.084557
v 0.320348 -0.443244 0.084557
v 0.320216 -0.462408 0.084557
v 0.319819 -0.464349 0.084557
v 0.319157 -0.465968 0.084557
v 0.318231 -0.467264 0.084557
v 0.317326 -0.443244 0.084557
v 0.317138 -0.461460 0.084557
v 0.317033 -0.468257 0.084557
v 0.316916 -0.463559 0.084557
v 0.316148 -0.465181 0.084557
v 0.315555 -0.468967 0.084557
v 0.315455 -0.465804 0.084557
v 0.314535 -0.466274 0.084557
v 0.313798 -0.469393 0.084557
v 0.313389 -0.466568 0.084557
v 0.312017 -0.466667 0.084557
v 0.311761 -0.469535 0.084557
v 0.310378 -0.466530 0.084557
v 0.308901 -0.469313 0.084557
v 0.308739 -0.466171 0.084557
v 0.307305 -0.465736 0.084557
v 0.306349 -0.465369 0.084557
v 0.306178 -0.468715 0.084557
v 0.306178 -0.465369 0.084557
v 0.317138 -0.446675 0.084557
v 0.317138 -0.444063 0.084557
v 0.314962 -0.443065 0.084557
v 0.314928 -0.445847 0.084557
v 0.312905 -0.445600 0.084557
v 0.312392 -0.442715 0.084557
v 0.311749 -0.445712 0.084557
v 0.310847 -0.442881 0.084557
v 0.310724 -0.446048 0.084557
v 0.309828 -0.446608 0.084557
v 0.309354 -0.443380 0.084557
v 0.309063 -0.447392 0.084557
v 0.308451 -0.448386 0.084557
v 0.308013 -0.449573 0.084557
v 0.307984 -0.444187 0.084557
v 0.306810 -0.445275 0.084557
v 0.306281 -0.459565 0.084557
v 0.305798 -0.446695 0.084557
v 0.305437 -0.458220 0.084557
v 0.305017 -0.448391 0.084557
v 0.304834 -0.456611 0.084557
v 0.304518 -0.450361 0.084557
v 0.304472 -0.454738 0.084557
v 0.304352 -0.452599 0.084557
vn 0 0 -1
vn 0 0 1
usemtl material_0_0
f 1//1 2//1 3//1
f 2//1 1//1 4//1
f 4//1 1//1 5//1
f 4//1 5//1 6//1
f 6//1 5//1 7//1
f 6//1 7//1 8//1
f 8//1 7//1 9//1
f 8//1 9//1 10//1
f 10//1 9//1 11//1
f 10//1 11//1 12//1
f 12//1 11//1 13//1
f 13//1 11//1 14//1
f 13//1 14//1 15//1
f 15//1 14//1 16//1
f 16//1 14//1 17//1
f 17//1 14//1 18//1
f 17//1 18//1 19//1
f 19//1 18//1 20//1
f 20//1 18//1 21//1
f 20//1 21//1 22//1
f 22//1 21//1 23//1
f 22//1 23//1 24//1
f 24//1 23//1 25//1
f 25//1 23//1 26//1
f 25//1 26//1 27//1
f 25//1 27//1 28//1
f 28//1 27//1 29//1
f 29//1 27//1 30//1
f 31//1 32//1 33//1
f 32//1 31//1 34//1
f 34//1 31//1 35//1
f 34//1 35//1 36//1
f 34//1 36//1 37//1
f 34//1 37//1 38//1
f 38//1 37//1 39//1
f 38//1 39//1 40//1
f 40//1 39//1 41//1
f 40//1 41//1 42//1
f 40//1 42//1 43//1
f 43//1 42//1 44//1
f 43//1 44//1 45//1
f 43//1 45//1 46//1
f 46//1 45//1 47//1
f 46//1 47//1 30//1
f 46//1 30//1 48//1
f 48//1 30//1 27//1
f 48//1 27//1 49//1
f 48//1 49//1 50//1
f 50//1 49//1 51//1
f 51//1 49//1 52//1
f 52//1 49//1 53//1
f 10//1 54//1 55//1
f 54//1 10//1 12//1
f 55//1 54//1 56//1
f 55//1 56//1 57//1
f 57//1 56//1 58//1
f 57//1 58//1 59//1
f 57//1 59//1 60//1
f 60//1 59//1 61//1
f 60//1 61//1 62//1
f 60//1 62//1 63//1
f 63//1 62//1 64//1
f 63//1 64//1 65//1
f 65//1 64//1 66//1
f 65//1 66//1 67//1
f 67//1 66//1 68//1
f 67//1 68//1 29//1
f 29//1 68//1 28//1
f 69//2 70//2 71//2
f 71//2 70//2 72//2
f 70//2 73//2 72//2
f 72//2 73//2 74//2
f 73//2 75//2 74//2
f 74//2 75//2 76//2
f 75//2 77//2 76//2
f 76//2 77//2 78//2
f 77//2 79//2 78//2
f 79//2 80//2 78//2
f 78//2 80//2 81//2
f 80//2 82//2 81//2
f 82//2 83//2 81//2
f 81//2 83//2 84//2
f 83//2 85//2 84//2
f 86//2 87//2 85//2
f 84//2 85//2 87//2
f 88//2 89//2 90//2
f 90//2 89//2 91//2
f 91//2 89//2 92//2
f 92//2 89//2 93//2
f 89//2 94//2 93//2
f 94//2 95//2 93//2
f 93//2 95//2 96//2
f 95//2 97//2 96//2
f 97//2 98//2 96//2
f 96//2 98//2 99//2
f 98//2 100//2 99//2
f 100//2 101//2 99//2
f 99//2 101//2 102//2
f 101//2 103//2 102//2
f 103//2 104//2 102//2
f 102//2 104//2 105//2
f 104//2 106//2 105//2
f 105//2 106//2 107//2
f 106//2 108//2 107//2
f 108//2 109//2 107//2
f 109//2 110//2 107//2
f 107//2 110//2 111//2
f 112//2 111//2 110//2
f 95//2 94//2 71//2
f 71//2 94//2 69//2
f 69//2 94//2 113//2
f 94//2 114//2 113//2
f 114//2 115//2 113//2
f 113//2 115//2 116//2
f 116//2 115//2 117//2
f 115//2 118//2 117//2
f 117//2 118//2 119//2
f 118//2 120//2 119//2
f 119//2 120//2 121//2
f 121//2 120//2 122//2
f 120//2 123//2 122//2
f 122//2 123//2 124//2
f 124//2 123//2 125//2
f 125//2 123//2 126//2
f 123//2 127//2 126//2
f 126//2 127//2 86//2
f 86//2 127//2 87//2
f 127//2 128//2 87//2
f 87//2 128//2 129//2
f 128//2 130//2 129//2
f 129//2 130//2 131//2
f 130//2 132//2 131//2
f 131//2 132//2 133//2
f 132//2 134//2 133//2
f 133//2 134//2 135//2
f 136//2 135//2 134//2
