# SSTK version 0.8.0
# 15
mtllib original-15.mtl
o #ID55
v 0.375985 -0.443244 0.084557
v 0.379451 -0.461391 0.084557
v 0.372520 -0.443244 0.084557
v 0.381192 -0.457362 0.084557
v 0.379468 -0.469347 0.084557
v 0.389728 -0.443244 0.084557
v 0.386382 -0.443244 0.084557
v 0.376037 -0.469347 0.084557
v 0.379451 -0.461391 0.084557
v 0.376037 -0.469347 0.084557
v 0.379468 -0.469347 0.084557
v 0.386382 -0.443244 0.084557
v 0.381192 -0.457362 0.084557
v 0.389728 -0.443244 0.084557
v 0.375985 -0.443244 0.084557
v 0.372520 -0.443244 0.084557
vn 0 0 -1
vn 0 0 1
usemtl material_0_0
f 1//1 2//1 3//1
f 2//1 1//1 4//1
f 2//1 4//1 5//1
f 5//1 4//1 6//1
f 6//1 4//1 7//1
f 5//1 8//1 2//1
f 9//2 10//2 11//2
f 12//2 13//2 14//2
f 14//2 13//2 11//2
f 11//2 13//2 9//2
f 13//2 15//2 9//2
f 16//2 9//2 15//2
