# SSTK version 0.8.0
# 4
mtllib original-4.mtl
o #ID164
v 0.557731 -0.376638 0.020917
v 0.539868 0.036534 0.128817
v 0.539868 -0.376638 0.128817
v 0.557731 0.036534 0.020917
v 0.030218 0.036534 -0.066413
v 0.557731 -0.376638 0.020917
v 0.030218 -0.376638 -0.066413
v 0.557731 0.036534 0.020917
v 0.557731 0.036534 0.020917
v 0.539868 0.449706 0.128817
v 0.539868 0.036534 0.128817
v 0.557731 0.449706 0.020917
v 0.539868 0.036534 0.128817
v 0.012355 -0.376638 0.041488
v 0.539868 -0.376638 0.128817
v 0.012355 0.036534 0.041488
v 0.030218 -0.376638 -0.066413
v 0.539868 -0.376638 0.128817
v 0.012355 -0.376638 0.041488
v 0.557731 -0.376638 0.020917
v 0.030218 0.036534 -0.066413
v 0.012355 -0.376638 0.041488
v 0.012355 0.036534 0.041488
v 0.030218 -0.376638 -0.066413
v 0.030218 0.449706 -0.066413
v 0.557731 0.036534 0.020917
v 0.030218 0.036534 -0.066413
v 0.557731 0.449706 0.020917
v 0.539868 0.449706 0.128817
v 0.030218 0.449706 -0.066413
v 0.012355 0.449706 0.041488
v 0.557731 0.449706 0.020917
v 0.539868 0.449706 0.128817
v 0.012355 0.036534 0.041488
v 0.539868 0.036534 0.128817
v 0.012355 0.439613 0.041488
v 0.012355 0.449706 0.041488
v 0.030218 0.036534 -0.066413
v 0.539868 0.036534 0.128817
v 0.012355 0.036534 0.041488
v 0.557731 0.036534 0.020917
v 0.030218 0.449706 -0.066413
v 0.012355 0.439613 0.041488
v 0.012355 0.449706 0.041488
v 0.012355 0.036534 0.041488
v 0.030218 0.036534 -0.066413
vt 6.128459 27.68326
vt 5.919657 28.8908
vt 5.919657 27.68326
vt 6.128459 28.8908
vt -37.03619 28.8908
vt -38.057 27.68326
vt -37.03619 27.68326
vt -38.057 28.8908
vt 5.919657 30.09833
vt 6.128459 30.09833
vt 38.057 28.8908
vt 37.03619 27.68326
vt 38.057 27.68326
vt 37.03619 28.8908
vt -37.53981 -0.004292095
vt -38.51281 -0.5748697
vt -37.50571 -0.3196416
vt -38.54691 -0.2595203
vt -6.128459 28.8908
vt -5.919657 27.68326
vt -5.919657 28.8908
vt -6.128459 27.68326
vt -37.03619 30.09833
vt -38.057 30.09833
vt 38.51281 -0.5748697
vt 37.53981 -0.004292095
vt 37.50571 -0.3196416
vt 38.54691 -0.2595203
vt 38.057 30.09833
vt 37.03619 30.06884
vt 37.03619 30.09833
vt -6.128459 30.09833
vt -5.919657 30.06884
vt -5.919657 30.09833
vn 0.9865721565470025 0 0.16332599280640153
vn 0.16332599280640153 0 -0.9865721565470025
vn -0.16332599280640153 0 0.9865721565470025
vn 0 -1 0
vn -0.9865721565470025 0 -0.16332599280640153
vn 0 1 0
usemtl material_0_0
f 1/1/1 2/2/1 3/3/1
f 2/2/1 1/1/1 4/4/1
f 5/5/2 6/6/2 7/7/2
f 6/6/2 5/5/2 8/8/2
f 9/4/1 10/9/1 11/2/1
f 10/9/1 9/4/1 12/10/1
f 13/11/3 14/12/3 15/13/3
f 14/12/3 13/11/3 16/14/3
f 17/15/4 18/16/4 19/17/4
f 18/16/4 17/15/4 20/18/4
f 21/19/5 22/20/5 23/21/5
f 22/20/5 21/19/5 24/22/5
f 25/23/2 26/8/2 27/5/2
f 26/8/2 25/23/2 28/24/2
f 29/25/6 30/26/6 31/27/6
f 30/26/6 29/25/6 32/28/6
f 33/29/3 34/14/3 35/11/3
f 34/14/3 33/29/3 36/30/3
f 36/30/3 33/29/3 37/31/3
f 38/15/4 39/16/4 40/17/4
f 39/16/4 38/15/4 41/18/4
f 42/32/5 43/33/5 44/34/5
f 43/33/5 42/32/5 45/21/5
f 45/21/5 42/32/5 46/19/5
