# SSTK version 0.8.0
# 14
mtllib original-14.mtl
o #ID49
v 0.359887 -0.444243 0.084557
v 0.358623 -0.447939 0.084557
v 0.358623 -0.445241 0.084557
v 0.359778 -0.447081 0.084557
v 0.361056 -0.446385 0.084557
v 0.361252 -0.443432 0.084557
v 0.362390 -0.445924 0.084557
v 0.362763 -0.442894 0.084557
v 0.363711 -0.445771 0.084557
v 0.364462 -0.442715 0.084557
v 0.364784 -0.445881 0.084557
v 0.365990 -0.442876 0.084557
v 0.365700 -0.446212 0.084557
v 0.366457 -0.446764 0.084557
v 0.367347 -0.443361 0.084557
v 0.367057 -0.447537 0.084557
v 0.367838 -0.449716 0.084557
v 0.368533 -0.444169 0.084557
v 0.368098 -0.452719 0.084557
v 0.358623 -0.435749 0.084557
v 0.355414 -0.462313 0.084557
v 0.355414 -0.435749 0.084557
v 0.358418 -0.462313 0.084557
v 0.358623 -0.461425 0.084557
v 0.358623 -0.458865 0.084557
v 0.360774 -0.459710 0.084557
v 0.360800 -0.462458 0.084557
v 0.362840 -0.459957 0.084557
v 0.362014 -0.462746 0.084557
v 0.363455 -0.462842 0.084557
v 0.364003 -0.459848 0.084557
v 0.365090 -0.462664 0.084557
v 0.365034 -0.459522 0.084557
v 0.365932 -0.458978 0.084557
v 0.366583 -0.462130 0.084557
v 0.366698 -0.458216 0.084557
v 0.367933 -0.461239 0.084557
v 0.367311 -0.457219 0.084557
v 0.367748 -0.455971 0.084557
v 0.368011 -0.454471 0.084557
v 0.369140 -0.459991 0.084557
v 0.369549 -0.445301 0.084557
v 0.370133 -0.458452 0.084557
v 0.370363 -0.446719 0.084557
v 0.370842 -0.456684 0.084557
v 0.370945 -0.448385 0.084557
v 0.371268 -0.454687 0.084557
v 0.371294 -0.450299 0.084557
v 0.371410 -0.452463 0.084557
v 0.371410 -0.452463 0.084557
v 0.371294 -0.450299 0.084557
v 0.371268 -0.454687 0.084557
v 0.370945 -0.448385 0.084557
v 0.370842 -0.456684 0.084557
v 0.370363 -0.446719 0.084557
v 0.370133 -0.458452 0.084557
v 0.369549 -0.445301 0.084557
v 0.369140 -0.459991 0.084557
v 0.368533 -0.444169 0.084557
v 0.368098 -0.452719 0.084557
v 0.368011 -0.454471 0.084557
v 0.367933 -0.461239 0.084557
v 0.367748 -0.455971 0.084557
v 0.367311 -0.457219 0.084557
v 0.366698 -0.458216 0.084557
v 0.366583 -0.462130 0.084557
v 0.365932 -0.458978 0.084557
v 0.365090 -0.462664 0.084557
v 0.365034 -0.459522 0.084557
v 0.364003 -0.459848 0.084557
v 0.363455 -0.462842 0.084557
v 0.362840 -0.459957 0.084557
v 0.362014 -0.462746 0.084557
v 0.360800 -0.462458 0.084557
v 0.360774 -0.459710 0.084557
v 0.358623 -0.461425 0.084557
v 0.358623 -0.458865 0.084557
v 0.358623 -0.447939 0.084557
v 0.358623 -0.445241 0.084557
v 0.358623 -0.435749 0.084557
v 0.358418 -0.462313 0.084557
v 0.355414 -0.462313 0.084557
v 0.355414 -0.435749 0.084557
v 0.367838 -0.449716 0.084557
v 0.367347 -0.443361 0.084557
v 0.367057 -0.447537 0.084557
v 0.366457 -0.446764 0.084557
v 0.365990 -0.442876 0.084557
v 0.365700 -0.446212 0.084557
v 0.364784 -0.445881 0.084557
v 0.364462 -0.442715 0.084557
v 0.363711 -0.445771 0.084557
v 0.362763 -0.442894 0.084557
v 0.362390 -0.445924 0.084557
v 0.361252 -0.443432 0.084557
v 0.361056 -0.446385 0.084557
v 0.359887 -0.444243 0.084557
v 0.359778 -0.447081 0.084557
vn 0 0 -1
vn 0 0 1
usemtl material_0_0
f 1//1 2//1 3//1
f 2//1 1//1 4//1
f 4//1 1//1 5//1
f 5//1 1//1 6//1
f 5//1 6//1 7//1
f 7//1 6//1 8//1
f 7//1 8//1 9//1
f 9//1 8//1 10//1
f 9//1 10//1 11//1
f 11//1 10//1 12//1
f 11//1 12//1 13//1
f 13//1 12//1 14//1
f 14//1 12//1 15//1
f 14//1 15//1 16//1
f 16//1 15//1 17//1
f 17//1 15//1 18//1
f 17//1 18//1 19//1
f 20//1 21//1 22//1
f 21//1 20//1 23//1
f 23//1 20//1 24//1
f 24//1 20//1 3//1
f 24//1 3//1 2//1
f 24//1 2//1 25//1
f 24//1 25//1 26//1
f 24//1 26//1 27//1
f 27//1 26//1 28//1
f 27//1 28//1 29//1
f 29//1 28//1 30//1
f 30//1 28//1 31//1
f 30//1 31//1 32//1
f 32//1 31//1 33//1
f 32//1 33//1 34//1
f 32//1 34//1 35//1
f 35//1 34//1 36//1
f 35//1 36//1 37//1
f 37//1 36//1 38//1
f 37//1 38//1 39//1
f 37//1 39//1 40//1
f 37//1 40//1 41//1
f 41//1 40//1 19//1
f 41//1 19//1 18//1
f 41//1 18//1 42//1
f 41//1 42//1 43//1
f 43//1 42//1 44//1
f 43//1 44//1 45//1
f 45//1 44//1 46//1
f 45//1 46//1 47//1
f 47//1 46//1 48//1
f 47//1 48//1 49//1
f 50//2 51//2 52//2
f 51//2 53//2 52//2
f 52//2 53//2 54//2
f 53//2 55//2 54//2
f 54//2 55//2 56//2
f 55//2 57//2 56//2
f 56//2 57//2 58//2
f 57//2 59//2 58//2
f 59//2 60//2 58//2
f 60//2 61//2 58//2
f 58//2 61//2 62//2
f 61//2 63//2 62//2
f 63//2 64//2 62//2
f 64//2 65//2 62//2
f 62//2 65//2 66//2
f 65//2 67//2 66//2
f 66//2 67//2 68//2
f 67//2 69//2 68//2
f 69//2 70//2 68//2
f 68//2 70//2 71//2
f 70//2 72//2 71//2
f 71//2 72//2 73//2
f 73//2 72//2 74//2
f 72//2 75//2 74//2
f 74//2 75//2 76//2
f 75//2 77//2 76//2
f 77//2 78//2 76//2
f 78//2 79//2 76//2
f 79//2 80//2 76//2
f 76//2 80//2 81//2
f 81//2 80//2 82//2
f 83//2 82//2 80//2
f 60//2 59//2 84//2
f 59//2 85//2 84//2
f 84//2 85//2 86//2
f 86//2 85//2 87//2
f 85//2 88//2 87//2
f 87//2 88//2 89//2
f 89//2 88//2 90//2
f 88//2 91//2 90//2
f 90//2 91//2 92//2
f 91//2 93//2 92//2
f 92//2 93//2 94//2
f 93//2 95//2 94//2
f 94//2 95//2 96//2
f 95//2 97//2 96//2
f 96//2 97//2 98//2
f 98//2 97//2 78//2
f 79//2 78//2 97//2
