# SSTK version 0.8.0
# 22
mtllib original-22.mtl
o #ID97
v 0.458503 -0.444230 0.084557
v 0.457077 -0.448075 0.084557
v 0.457077 -0.445361 0.084557
v 0.459561 -0.446411 0.084557
v 0.459911 -0.443398 0.084557
v 0.460814 -0.445931 0.084557
v 0.461349 -0.442885 0.084557
v 0.462028 -0.445771 0.084557
v 0.462865 -0.442715 0.084557
v 0.463112 -0.445858 0.084557
v 0.464196 -0.442830 0.084557
v 0.463940 -0.446121 0.084557
v 0.464563 -0.446562 0.084557
v 0.465374 -0.443178 0.084557
v 0.465033 -0.447187 0.084557
v 0.465519 -0.449006 0.084557
v 0.466398 -0.443757 0.084557
v 0.465647 -0.451455 0.084557
v 0.465647 -0.462313 0.084557
v 0.468857 -0.462313 0.084557
v 0.467269 -0.444567 0.084557
v 0.467964 -0.445597 0.084557
v 0.468460 -0.446835 0.084557
v 0.468758 -0.448282 0.084557
v 0.468857 -0.449936 0.084557
v 0.457077 -0.443244 0.084557
v 0.453868 -0.462313 0.084557
v 0.453868 -0.443244 0.084557
v 0.457077 -0.462313 0.084557
v 0.457077 -0.448075 0.084557
v 0.457077 -0.445361 0.084557
v 0.457077 -0.462313 0.084557
v 0.457077 -0.443244 0.084557
v 0.453868 -0.462313 0.084557
v 0.453868 -0.443244 0.084557
v 0.468857 -0.449936 0.084557
v 0.468758 -0.448282 0.084557
v 0.468857 -0.462313 0.084557
v 0.468460 -0.446835 0.084557
v 0.467964 -0.445597 0.084557
v 0.467269 -0.444567 0.084557
v 0.466398 -0.443757 0.084557
v 0.465647 -0.462313 0.084557
v 0.465647 -0.451455 0.084557
v 0.465519 -0.449006 0.084557
v 0.465374 -0.443178 0.084557
v 0.465033 -0.447187 0.084557
v 0.464563 -0.446562 0.084557
v 0.464196 -0.442830 0.084557
v 0.463940 -0.446121 0.084557
v 0.463112 -0.445858 0.084557
v 0.462865 -0.442715 0.084557
v 0.462028 -0.445771 0.084557
v 0.461349 -0.442885 0.084557
v 0.460814 -0.445931 0.084557
v 0.459911 -0.443398 0.084557
v 0.459561 -0.446411 0.084557
v 0.458503 -0.444230 0.084557
vn 0 0 -1
vn 0 0 1
usemtl material_0_0
f 1//1 2//1 3//1
f 2//1 1//1 4//1
f 4//1 1//1 5//1
f 4//1 5//1 6//1
f 6//1 5//1 7//1
f 6//1 7//1 8//1
f 8//1 7//1 9//1
f 8//1 9//1 10//1
f 10//1 9//1 11//1
f 10//1 11//1 12//1
f 12//1 11//1 13//1
f 13//1 11//1 14//1
f 13//1 14//1 15//1
f 15//1 14//1 16//1
f 16//1 14//1 17//1
f 16//1 17//1 18//1
f 18//1 17//1 19//1
f 19//1 17//1 20//1
f 20//1 17//1 21//1
f 20//1 21//1 22//1
f 20//1 22//1 23//1
f 20//1 23//1 24//1
f 20//1 24//1 25//1
f 26//1 27//1 28//1
f 27//1 26//1 29//1
f 29//1 26//1 3//1
f 29//1 3//1 2//1
f 30//2 31//2 32//2
f 31//2 33//2 32//2
f 32//2 33//2 34//2
f 35//2 34//2 33//2
f 36//2 37//2 38//2
f 37//2 39//2 38//2
f 39//2 40//2 38//2
f 40//2 41//2 38//2
f 41//2 42//2 38//2
f 38//2 42//2 43//2
f 43//2 42//2 44//2
f 44//2 42//2 45//2
f 42//2 46//2 45//2
f 45//2 46//2 47//2
f 47//2 46//2 48//2
f 46//2 49//2 48//2
f 48//2 49//2 50//2
f 50//2 49//2 51//2
f 49//2 52//2 51//2
f 51//2 52//2 53//2
f 52//2 54//2 53//2
f 53//2 54//2 55//2
f 54//2 56//2 55//2
f 55//2 56//2 57//2
f 56//2 58//2 57//2
f 57//2 58//2 30//2
f 31//2 30//2 58//2
