# SSTK version 0.8.0
# 25
mtllib original-25.mtl
o #ID115
v 0.519236 -0.443244 0.084557
v 0.516027 -0.457482 0.084557
v 0.516027 -0.443244 0.084557
v 0.516027 -0.460196 0.084557
v 0.516027 -0.462313 0.084557
v 0.519236 -0.462313 0.084557
v 0.507456 -0.443244 0.084557
v 0.504247 -0.455621 0.084557
v 0.504247 -0.443244 0.084557
v 0.504360 -0.457405 0.084557
v 0.504699 -0.458899 0.084557
v 0.505243 -0.460132 0.084557
v 0.505971 -0.461135 0.084557
v 0.506861 -0.461904 0.084557
v 0.507456 -0.454102 0.084557
v 0.507567 -0.456620 0.084557
v 0.507892 -0.462433 0.084557
v 0.508071 -0.458370 0.084557
v 0.509029 -0.462740 0.084557
v 0.508534 -0.459006 0.084557
v 0.509138 -0.459445 0.084557
v 0.510239 -0.462842 0.084557
v 0.509960 -0.459701 0.084557
v 0.511076 -0.459787 0.084557
v 0.511801 -0.462674 0.084557
v 0.512292 -0.459620 0.084557
v 0.513210 -0.462168 0.084557
v 0.513585 -0.459121 0.084557
v 0.514580 -0.461338 0.084557
v 0.516027 -0.460196 0.084557
v 0.516027 -0.457482 0.084557
v 0.514580 -0.461338 0.084557
v 0.513585 -0.459121 0.084557
v 0.513210 -0.462168 0.084557
v 0.512292 -0.459620 0.084557
v 0.511801 -0.462674 0.084557
v 0.511076 -0.459787 0.084557
v 0.510239 -0.462842 0.084557
v 0.509960 -0.459701 0.084557
v 0.509138 -0.459445 0.084557
v 0.509029 -0.462740 0.084557
v 0.508534 -0.459006 0.084557
v 0.508071 -0.458370 0.084557
v 0.507892 -0.462433 0.084557
v 0.507567 -0.456620 0.084557
v 0.506861 -0.461904 0.084557
v 0.507456 -0.454102 0.084557
v 0.507456 -0.443244 0.084557
v 0.505971 -0.461135 0.084557
v 0.505243 -0.460132 0.084557
v 0.504699 -0.458899 0.084557
v 0.504360 -0.457405 0.084557
v 0.504247 -0.455621 0.084557
v 0.504247 -0.443244 0.084557
v 0.519236 -0.462313 0.084557
v 0.519236 -0.443244 0.084557
v 0.516027 -0.462313 0.084557
v 0.516027 -0.443244 0.084557
vn 0 0 -1
vn 0 0 1
usemtl material_0_0
f 1//1 2//1 3//1
f 2//1 1//1 4//1
f 4//1 1//1 5//1
f 5//1 1//1 6//1
f 7//1 8//1 9//1
f 8//1 7//1 10//1
f 10//1 7//1 11//1
f 11//1 7//1 12//1
f 12//1 7//1 13//1
f 13//1 7//1 14//1
f 14//1 7//1 15//1
f 14//1 15//1 16//1
f 14//1 16//1 17//1
f 17//1 16//1 18//1
f 17//1 18//1 19//1
f 19//1 18//1 20//1
f 19//1 20//1 21//1
f 19//1 21//1 22//1
f 22//1 21//1 23//1
f 22//1 23//1 24//1
f 22//1 24//1 25//1
f 25//1 24//1 26//1
f 25//1 26//1 27//1
f 27//1 26//1 28//1
f 27//1 28//1 29//1
f 29//1 28//1 2//1
f 29//1 2//1 4//1
f 30//2 31//2 32//2
f 31//2 33//2 32//2
f 32//2 33//2 34//2
f 33//2 35//2 34//2
f 34//2 35//2 36//2
f 35//2 37//2 36//2
f 36//2 37//2 38//2
f 37//2 39//2 38//2
f 39//2 40//2 38//2
f 38//2 40//2 41//2
f 40//2 42//2 41//2
f 42//2 43//2 41//2
f 41//2 43//2 44//2
f 43//2 45//2 44//2
f 44//2 45//2 46//2
f 45//2 47//2 46//2
f 47//2 48//2 46//2
f 46//2 48//2 49//2
f 49//2 48//2 50//2
f 50//2 48//2 51//2
f 51//2 48//2 52//2
f 52//2 48//2 53//2
f 54//2 53//2 48//2
f 55//2 56//2 57//2
f 57//2 56//2 30//2
f 30//2 56//2 31//2
f 58//2 31//2 56//2
