# SSTK version 0.8.0
# 9
mtllib original-9.mtl
o #ID19
v 0.285193 -0.443188 0.084557
v 0.284258 -0.448178 0.084557
v 0.283979 -0.443695 0.084557
v 0.284531 -0.447000 0.084557
v 0.285350 -0.446163 0.084557
v 0.286566 -0.442884 0.084557
v 0.286567 -0.445664 0.084557
v 0.288099 -0.442783 0.084557
v 0.288031 -0.445497 0.084557
v 0.289561 -0.445638 0.084557
v 0.291291 -0.443176 0.084557
v 0.291078 -0.446061 0.084557
v 0.292519 -0.446727 0.084557
v 0.293989 -0.444166 0.084557
v 0.293818 -0.447597 0.084557
v 0.293989 -0.447597 0.084557
v 0.281102 -0.447375 0.084557
v 0.281228 -0.450344 0.084557
v 0.280980 -0.448604 0.084557
v 0.281467 -0.446266 0.084557
v 0.281970 -0.451805 0.084557
v 0.282075 -0.445275 0.084557
v 0.283259 -0.452956 0.084557
v 0.282926 -0.444405 0.084557
v 0.284420 -0.449221 0.084557
v 0.285146 -0.453760 0.084557
v 0.284907 -0.449962 0.084557
v 0.285752 -0.450497 0.084557
v 0.286972 -0.454204 0.084557
v 0.286989 -0.450926 0.084557
v 0.288577 -0.454563 0.084557
v 0.288586 -0.451293 0.084557
v 0.289924 -0.455002 0.084557
v 0.290438 -0.451712 0.084557
v 0.290788 -0.455536 0.084557
v 0.292292 -0.452416 0.084557
v 0.291255 -0.456257 0.084557
v 0.291411 -0.457260 0.084557
v 0.291686 -0.461784 0.084557
v 0.292777 -0.461033 0.084557
v 0.293622 -0.453470 0.084557
v 0.293603 -0.460169 0.084557
v 0.294202 -0.459146 0.084557
v 0.294422 -0.454921 0.084557
v 0.294567 -0.458013 0.084557
v 0.294689 -0.456816 0.084557
v 0.281065 -0.457567 0.084557
v 0.280895 -0.461169 0.084557
v 0.280895 -0.457567 0.084557
v 0.283652 -0.462262 0.084557
v 0.282030 -0.458284 0.084557
v 0.283507 -0.459104 0.084557
v 0.285308 -0.459770 0.084557
v 0.285378 -0.462646 0.084557
v 0.287348 -0.460060 0.084557
v 0.287228 -0.462774 0.084557
v 0.289010 -0.462663 0.084557
v 0.288987 -0.459880 0.084557
v 0.290284 -0.459428 0.084557
v 0.290464 -0.462330 0.084557
v 0.291146 -0.458592 0.084557
v 0.291411 -0.457260 0.084557
v 0.291146 -0.458592 0.084557
v 0.291686 -0.461784 0.084557
v 0.290464 -0.462330 0.084557
v 0.290284 -0.459428 0.084557
v 0.289010 -0.462663 0.084557
v 0.288987 -0.459880 0.084557
v 0.287348 -0.460060 0.084557
v 0.287228 -0.462774 0.084557
v 0.285378 -0.462646 0.084557
v 0.285308 -0.459770 0.084557
v 0.283652 -0.462262 0.084557
v 0.283507 -0.459104 0.084557
v 0.282030 -0.458284 0.084557
v 0.281065 -0.457567 0.084557
v 0.280895 -0.461169 0.084557
v 0.280895 -0.457567 0.084557
v 0.294689 -0.456816 0.084557
v 0.294422 -0.454921 0.084557
v 0.294567 -0.458013 0.084557
v 0.294202 -0.459146 0.084557
v 0.293622 -0.453470 0.084557
v 0.293603 -0.460169 0.084557
v 0.292777 -0.461033 0.084557
v 0.292292 -0.452416 0.084557
v 0.291255 -0.456257 0.084557
v 0.290788 -0.455536 0.084557
v 0.290438 -0.451712 0.084557
v 0.289924 -0.455002 0.084557
v 0.288586 -0.451293 0.084557
v 0.288577 -0.454563 0.084557
v 0.286989 -0.450926 0.084557
v 0.286972 -0.454204 0.084557
v 0.285752 -0.450497 0.084557
v 0.285146 -0.453760 0.084557
v 0.284907 -0.449962 0.084557
v 0.284420 -0.449221 0.084557
v 0.283259 -0.452956 0.084557
v 0.284258 -0.448178 0.084557
v 0.283979 -0.443695 0.084557
v 0.282926 -0.444405 0.084557
v 0.282075 -0.445275 0.084557
v 0.281970 -0.451805 0.084557
v 0.281467 -0.446266 0.084557
v 0.281228 -0.450344 0.084557
v 0.281102 -0.447375 0.084557
v 0.280980 -0.448604 0.084557
v 0.293989 -0.447597 0.084557
v 0.293989 -0.444166 0.084557
v 0.293818 -0.447597 0.084557
v 0.292519 -0.446727 0.084557
v 0.291291 -0.443176 0.084557
v 0.291078 -0.446061 0.084557
v 0.289561 -0.445638 0.084557
v 0.288099 -0.442783 0.084557
v 0.288031 -0.445497 0.084557
v 0.286567 -0.445664 0.084557
v 0.286566 -0.442884 0.084557
v 0.285350 -0.446163 0.084557
v 0.285193 -0.443188 0.084557
v 0.284531 -0.447000 0.084557
vn 0 0 -1
vn 0 0 1
usemtl material_0_0
f 1//1 2//1 3//1
f 2//1 1//1 4//1
f 4//1 1//1 5//1
f 5//1 1//1 6//1
f 5//1 6//1 7//1
f 7//1 6//1 8//1
f 7//1 8//1 9//1
f 9//1 8//1 10//1
f 10//1 8//1 11//1
f 10//1 11//1 12//1
f 12//1 11//1 13//1
f 13//1 11//1 14//1
f 13//1 14//1 15//1
f 15//1 14//1 16//1
f 17//1 18//1 19//1
f 18//1 17//1 20//1
f 18//1 20//1 21//1
f 21//1 20//1 22//1
f 21//1 22//1 23//1
f 23//1 22//1 24//1
f 23//1 24//1 3//1
f 23//1 3//1 2//1
f 23//1 2//1 25//1
f 23//1 25//1 26//1
f 26//1 25//1 27//1
f 26//1 27//1 28//1
f 26//1 28//1 29//1
f 29//1 28//1 30//1
f 29//1 30//1 31//1
f 31//1 30//1 32//1
f 31//1 32//1 33//1
f 33//1 32//1 34//1
f 33//1 34//1 35//1
f 35//1 34//1 36//1
f 35//1 36//1 37//1
f 37//1 36//1 38//1
f 38//1 36//1 39//1
f 39//1 36//1 40//1
f 40//1 36//1 41//1
f 40//1 41//1 42//1
f 42//1 41//1 43//1
f 43//1 41//1 44//1
f 43//1 44//1 45//1
f 45//1 44//1 46//1
f 47//1 48//1 49//1
f 48//1 47//1 50//1
f 50//1 47//1 51//1
f 50//1 51//1 52//1
f 50//1 52//1 53//1
f 50//1 53//1 54//1
f 54//1 53//1 55//1
f 54//1 55//1 56//1
f 56//1 55//1 57//1
f 57//1 55//1 58//1
f 57//1 58//1 59//1
f 57//1 59//1 60//1
f 60//1 59//1 61//1
f 60//1 61//1 39//1
f 39//1 61//1 38//1
f 62//2 63//2 64//2
f 64//2 63//2 65//2
f 63//2 66//2 65//2
f 65//2 66//2 67//2
f 66//2 68//2 67//2
f 68//2 69//2 67//2
f 67//2 69//2 70//2
f 70//2 69//2 71//2
f 69//2 72//2 71//2
f 71//2 72//2 73//2
f 72//2 74//2 73//2
f 74//2 75//2 73//2
f 75//2 76//2 73//2
f 73//2 76//2 77//2
f 78//2 77//2 76//2
f 79//2 80//2 81//2
f 81//2 80//2 82//2
f 80//2 83//2 82//2
f 82//2 83//2 84//2
f 84//2 83//2 85//2
f 83//2 86//2 85//2
f 85//2 86//2 64//2
f 64//2 86//2 62//2
f 62//2 86//2 87//2
f 87//2 86//2 88//2
f 86//2 89//2 88//2
f 88//2 89//2 90//2
f 89//2 91//2 90//2
f 90//2 91//2 92//2
f 91//2 93//2 92//2
f 92//2 93//2 94//2
f 93//2 95//2 94//2
f 94//2 95//2 96//2
f 95//2 97//2 96//2
f 97//2 98//2 96//2
f 96//2 98//2 99//2
f 98//2 100//2 99//2
f 100//2 101//2 99//2
f 101//2 102//2 99//2
f 102//2 103//2 99//2
f 99//2 103//2 104//2
f 103//2 105//2 104//2
f 104//2 105//2 106//2
f 105//2 107//2 106//2
f 108//2 106//2 107//2
f 109//2 110//2 111//2
f 111//2 110//2 112//2
f 110//2 113//2 112//2
f 112//2 113//2 114//2
f 114//2 113//2 115//2
f 113//2 116//2 115//2
f 115//2 116//2 117//2
f 117//2 116//2 118//2
f 116//2 119//2 118//2
f 118//2 119//2 120//2
f 119//2 121//2 120//2
f 120//2 121//2 122//2
f 122//2 121//2 100//2
f 101//2 100//2 121//2
