# SSTK version 0.8.0
# 1
mtllib original-1.mtl
o #ID133
v -0.762422 0.638490 0.041488
v -0.762422 -0.615301 0.040552
v -0.762422 -0.601026 0.041488
v -0.762422 0.652766 0.040552
v -0.762422 -0.629333 0.037761
v -0.762422 0.666797 0.037761
v -0.762422 -0.642880 0.033163
v -0.762422 0.680344 0.033163
v -0.762422 -0.655710 0.026835
v -0.762422 0.693175 0.026835
v -0.762422 -0.667606 0.018887
v -0.762422 0.705070 0.018887
v -0.762422 -0.678361 0.009454
v -0.762422 0.715826 0.009454
v -0.762422 -0.687794 -0.001302
v -0.762422 0.725258 -0.001302
v -0.762422 -0.695742 -0.013197
v -0.762422 0.733206 -0.013197
v -0.762422 -0.702070 -0.026027
v -0.762422 0.739534 -0.026027
v -0.762422 -0.706668 -0.039574
v -0.762422 0.744133 -0.039574
v -0.762422 -0.709459 -0.053606
v -0.762422 0.746923 -0.053606
v -0.762422 0.747859 -0.067881
v -0.762422 -0.710395 -0.067881
v -0.762422 -0.710395 -0.067881
v -0.762422 0.747859 -0.067881
v -0.762422 -0.709459 -0.053606
v -0.762422 0.746923 -0.053606
v -0.762422 0.744133 -0.039574
v -0.762422 -0.706668 -0.039574
v -0.762422 0.739534 -0.026027
v -0.762422 -0.702070 -0.026027
v -0.762422 0.733206 -0.013197
v -0.762422 -0.695742 -0.013197
v -0.762422 0.725258 -0.001302
v -0.762422 -0.687794 -0.001302
v -0.762422 0.715826 0.009454
v -0.762422 -0.678361 0.009454
v -0.762422 0.705070 0.018887
v -0.762422 -0.667606 0.018887
v -0.762422 0.693175 0.026835
v -0.762422 -0.655710 0.026835
v -0.762422 0.680344 0.033163
v -0.762422 -0.642880 0.033163
v -0.762422 0.666797 0.037761
v -0.762422 -0.629333 0.037761
v -0.762422 0.652766 0.040552
v -0.762422 -0.615301 0.040552
v -0.762422 0.638490 0.041488
v -0.762422 -0.601026 0.041488
v -0.762422 -0.710395 -0.067881
v -0.570947 -0.386731 -0.067881
v 0.732288 -0.710395 -0.067881
v -0.762422 0.747859 -0.067881
v -0.570947 0.439613 -0.067881
v -0.036253 0.439613 -0.067881
v 0.012355 0.439613 -0.067881
v 0.547048 0.439613 -0.067881
v 0.547048 -0.386731 -0.067881
v 0.732288 0.747859 -0.067881
v -0.036253 -0.386731 -0.067881
v 0.012355 -0.386731 -0.067881
v 0.012355 0.439613 -0.067881
v -0.036253 0.439613 -0.067881
v 0.012355 -0.386731 -0.067881
v -0.036253 -0.386731 -0.067881
v -0.762422 0.747859 -0.067881
v 0.547048 0.439613 -0.067881
v 0.732288 0.747859 -0.067881
v 0.547048 -0.386731 -0.067881
v -0.570947 -0.386731 -0.067881
v 0.732288 -0.710395 -0.067881
v -0.570947 0.439613 -0.067881
v -0.762422 -0.710395 -0.067881
v 0.732288 -0.710395 -0.067881
v -0.762422 -0.709459 -0.053606
v -0.762422 -0.710395 -0.067881
v 0.732288 -0.709459 -0.053606
v 0.732288 -0.709459 -0.053606
v 0.732288 -0.710395 -0.067881
v -0.762422 -0.709459 -0.053606
v -0.762422 -0.710395 -0.067881
v -0.762422 -0.706668 -0.039574
v 0.732288 -0.706668 -0.039574
v 0.732288 -0.706668 -0.039574
v -0.762422 -0.706668 -0.039574
v -0.762422 -0.702070 -0.026027
v 0.732288 -0.702070 -0.026027
v 0.732288 -0.702070 -0.026027
v -0.762422 -0.702070 -0.026027
v -0.762422 -0.695742 -0.013197
v 0.732288 -0.695742 -0.013197
v 0.732288 -0.695742 -0.013197
v -0.762422 -0.695742 -0.013197
v -0.762422 -0.687794 -0.001302
v 0.732288 -0.687794 -0.001302
v 0.732288 -0.687794 -0.001302
v -0.762422 -0.687794 -0.001302
v -0.762422 -0.678361 0.009454
v 0.732288 -0.678361 0.009454
v 0.732288 -0.678361 0.009454
v -0.762422 -0.678361 0.009454
v 0.732288 -0.667606 0.018887
v -0.762422 -0.667606 0.018887
v -0.762422 -0.667606 0.018887
v 0.732288 -0.667606 0.018887
v 0.732288 -0.655710 0.026835
v -0.762422 -0.655710 0.026835
v -0.762422 -0.655710 0.026835
v 0.732288 -0.655710 0.026835
v 0.732288 -0.642880 0.033163
v -0.762422 -0.642880 0.033163
v -0.762422 -0.642880 0.033163
v 0.732288 -0.642880 0.033163
v 0.732288 -0.629333 0.037761
v -0.762422 -0.629333 0.037761
v -0.762422 -0.629333 0.037761
v 0.732288 -0.629333 0.037761
v 0.732288 -0.615301 0.040552
v -0.762422 -0.615301 0.040552
v -0.762422 -0.615301 0.040552
v 0.732288 -0.615301 0.040552
v 0.732288 -0.601026 0.041488
v -0.762422 -0.601026 0.041488
v -0.762422 -0.601026 0.041488
v 0.732288 -0.601026 0.041488
v 0.547048 -0.386731 0.041488
v 0.732288 0.638490 0.041488
v 0.547048 0.439613 0.041488
v 0.012355 0.439613 0.041488
v -0.036253 0.439613 0.041488
v -0.570947 0.439613 0.041488
v -0.570947 -0.386731 0.041488
v -0.762422 0.638490 0.041488
v 0.012355 -0.386731 0.041488
v -0.036253 -0.386731 0.041488
v -0.570947 -0.376638 0.041488
v -0.570947 0.036534 0.041488
v 0.012355 -0.376638 0.041488
v 0.012355 0.036534 0.041488
v 0.012355 0.439613 0.041488
v 0.012355 0.036534 0.041488
v -0.036253 0.439613 0.041488
v 0.012355 -0.376638 0.041488
v -0.036253 -0.386731 0.041488
v 0.012355 -0.386731 0.041488
v 0.732288 0.638490 0.041488
v -0.570947 0.439613 0.041488
v -0.762422 0.638490 0.041488
v -0.570947 0.036534 0.041488
v -0.570947 -0.376638 0.041488
v -0.570947 -0.386731 0.041488
v 0.547048 -0.386731 0.041488
v 0.547048 0.439613 0.041488
v 0.732288 0.652766 0.040552
v -0.762422 0.652766 0.040552
v -0.762422 0.652766 0.040552
v 0.732288 0.652766 0.040552
v 0.732288 0.666797 0.037761
v -0.762422 0.666797 0.037761
v -0.762422 0.666797 0.037761
v 0.732288 0.666797 0.037761
v 0.732288 0.680344 0.033163
v -0.762422 0.680344 0.033163
v -0.762422 0.680344 0.033163
v 0.732288 0.680344 0.033163
v 0.732288 0.693175 0.026835
v -0.762422 0.693175 0.026835
v -0.762422 0.693175 0.026835
v 0.732288 0.693175 0.026835
v 0.732288 0.705070 0.018887
v -0.762422 0.705070 0.018887
v -0.762422 0.705070 0.018887
v 0.732288 0.705070 0.018887
v 0.732288 0.715826 0.009454
v -0.762422 0.715826 0.009454
v -0.762422 0.715826 0.009454
v 0.732288 0.715826 0.009454
v -0.762422 0.725258 -0.001302
v 0.732288 0.725258 -0.001302
v 0.732288 0.725258 -0.001302
v -0.762422 0.725258 -0.001302
v -0.762422 0.733206 -0.013197
v 0.732288 0.733206 -0.013197
v 0.732288 0.733206 -0.013197
v -0.762422 0.733206 -0.013197
v -0.762422 0.739534 -0.026027
v 0.732288 0.739534 -0.026027
v 0.732288 0.739534 -0.026027
v -0.762422 0.739534 -0.026027
v -0.762422 0.744133 -0.039574
v 0.732288 0.744133 -0.039574
v 0.732288 0.744133 -0.039574
v -0.762422 0.744133 -0.039574
v -0.762422 0.746923 -0.053606
v 0.732288 0.746923 -0.053606
v 0.732288 0.746923 -0.053606
v -0.762422 0.746923 -0.053606
v -0.762422 0.747859 -0.067881
v 0.732288 0.747859 -0.067881
v 0.732288 0.747859 -0.067881
v -0.762422 0.747859 -0.067881
v 0.732288 -0.615301 0.040552
v 0.732288 0.638490 0.041488
v 0.732288 -0.601026 0.041488
v 0.732288 0.652766 0.040552
v 0.732288 -0.629333 0.037761
v 0.732288 0.666797 0.037761
v 0.732288 -0.642880 0.033163
v 0.732288 0.680344 0.033163
v 0.732288 -0.655710 0.026835
v 0.732288 0.693175 0.026835
v 0.732288 -0.667606 0.018887
v 0.732288 0.705070 0.018887
v 0.732288 -0.678361 0.009454
v 0.732288 0.715826 0.009454
v 0.732288 -0.687794 -0.001302
v 0.732288 0.725258 -0.001302
v 0.732288 -0.695742 -0.013197
v 0.732288 0.733206 -0.013197
v 0.732288 -0.702070 -0.026027
v 0.732288 0.739534 -0.026027
v 0.732288 -0.706668 -0.039574
v 0.732288 0.744133 -0.039574
v 0.732288 -0.709459 -0.053606
v 0.732288 0.746923 -0.053606
v 0.732288 -0.710395 -0.067881
v 0.732288 0.747859 -0.067881
v 0.732288 0.747859 -0.067881
v 0.732288 -0.710395 -0.067881
v 0.732288 0.746923 -0.053606
v 0.732288 -0.709459 -0.053606
v 0.732288 0.744133 -0.039574
v 0.732288 -0.706668 -0.039574
v 0.732288 0.739534 -0.026027
v 0.732288 -0.702070 -0.026027
v 0.732288 0.733206 -0.013197
v 0.732288 -0.695742 -0.013197
v 0.732288 0.725258 -0.001302
v 0.732288 -0.687794 -0.001302
v 0.732288 0.715826 0.009454
v 0.732288 -0.678361 0.009454
v 0.732288 0.705070 0.018887
v 0.732288 -0.667606 0.018887
v 0.732288 0.693175 0.026835
v 0.732288 -0.655710 0.026835
v 0.732288 0.680344 0.033163
v 0.732288 -0.642880 0.033163
v 0.732288 0.666797 0.037761
v 0.732288 -0.629333 0.037761
v 0.732288 0.652766 0.040552
v 0.732288 -0.615301 0.040552
v 0.732288 0.638490 0.041488
v 0.732288 -0.601026 0.041488
vt 0.2088026 30.65007
vt 0.2070163 26.98575
vt 0.2088026 27.02747
vt 0.2070163 30.69179
vt 0.2016878 26.94474
vt 0.2016878 30.7328
vt 0.1929085 26.90515
vt 0.1929085 30.77239
vt 0.1808284 26.86765
vt 0.1808284 30.80989
vt 0.1656543 26.83288
vt 0.1656543 30.84466
vt 0.1476458 26.80145
vt 0.1476458 30.87609
vt 0.127111 26.77388
vt 0.127111 30.90366
vt 0.1044013 26.75065
vt 0.1044013 30.92689
vt 0.0799053 26.73216
vt 0.0799053 30.94538
vt 0.0540421 26.71872
vt 0.0540421 30.95882
vt 0.02725421 26.71056
vt 0.02725421 30.96698
vt 0 30.96971
vt 0 26.70783
vt -36.02654 26.70783
vt -36.39209 27.65377
vt -38.88017 26.70783
vt -36.02654 30.96971
vt -36.39209 30.06884
vt -37.41291 30.06884
vt -37.50571 30.06884
vt -38.52652 30.06884
vt -38.52652 27.65377
vt -38.88017 30.96971
vt -37.41291 27.65377
vt -37.50571 27.65377
vt 38.88017 1.746775
vt 36.02654 1.788587
vt 36.02654 1.746775
vt 38.88017 1.788587
vt 38.88017 5.251892
vt 36.02654 5.293703
vt 36.02654 5.251892
vt 38.88017 5.293703
vt 38.88017 8.66679
vt 36.02654 8.708601
vt 36.02654 8.66679
vt 38.88017 8.708601
vt 38.88017 11.93304
vt 36.02654 11.97485
vt 36.02654 11.93304
vt 38.88017 11.97485
vt 38.88017 14.99475
vt 36.02654 15.03656
vt 36.02654 14.99475
vt 38.88017 15.03656
vt 38.88017 17.79954
vt 36.02654 17.84135
vt 36.02654 17.79954
vt 38.88017 17.84135
vt 38.88017 20.34123
vt 36.02654 20.29942
vt 38.88017 20.29942
vt 36.02654 20.34123
vt 38.88017 22.49342
vt 36.02654 22.45161
vt 38.88017 22.45161
vt 36.02654 22.49342
vt 38.88017 24.26111
vt 36.02654 24.21929
vt 38.88017 24.21929
vt 36.02654 24.26111
vt 38.88017 25.61403
vt 36.02654 25.57222
vt 38.88017 25.57222
vt 36.02654 25.61403
vt 38.88017 26.52905
vt 36.02654 26.48724
vt 38.88017 26.48724
vt 36.02654 26.52905
vt 38.88017 26.99051
vt 36.02654 26.9487
vt 38.88017 26.9487
vt 36.02654 26.99051
vt 38.88017 27.02747
vt 38.52652 27.65377
vt 36.02654 27.02747
vt 38.88017 30.65007
vt 38.52652 30.06884
vt 37.50571 30.06884
vt 37.41291 30.06884
vt 36.39209 30.06884
vt 36.39209 27.65377
vt 36.02654 30.65007
vt 37.50571 27.65377
vt 37.41291 27.65377
vt 36.39209 27.68326
vt 36.39209 28.8908
vt 37.50571 27.68326
vt 37.50571 28.8908
vt 38.88017 30.60535
vt 36.02654 30.56354
vt 38.88017 30.56354
vt 36.02654 30.60535
vt 38.88017 30.08205
vt 36.02654 30.04024
vt 38.88017 30.04024
vt 36.02654 30.08205
vt 38.88017 29.04438
vt 36.02654 29.00257
vt 38.88017 29.00257
vt 36.02654 29.04438
vt 38.88017 27.51012
vt 36.02654 27.46831
vt 38.88017 27.46831
vt 36.02654 27.51012
vt 38.88017 25.50551
vt 36.02654 25.4637
vt 38.88017 25.4637
vt 36.02654 25.50551
vt 38.88017 23.06485
vt 36.02654 23.02304
vt 38.88017 23.02304
vt 36.02654 23.06485
vt 38.88017 20.18809
vt 36.02654 20.2299
vt 36.02654 20.18809
vt 38.88017 20.2299
vt 38.88017 17.00736
vt 36.02654 17.04917
vt 36.02654 17.00736
vt 38.88017 17.04917
vt 38.88017 13.53528
vt 36.02654 13.57709
vt 36.02654 13.53528
vt 38.88017 13.57709
vt 38.88017 9.831238
vt 36.02654 9.873049
vt 36.02654 9.831238
vt 38.88017 9.873049
vt 38.88017 5.958627
vt 36.02654 6.000438
vt 36.02654 5.958627
vt 38.88017 6.000438
vt 38.88017 1.983705
vt 36.02654 2.025516
vt 36.02654 1.983705
vt 38.88017 2.025516
vt -0.2070163 26.98575
vt -0.2088026 30.65007
vt -0.2088026 27.02747
vt -0.2070163 30.69179
vt -0.2016878 26.94474
vt -0.2016878 30.7328
vt -0.1929085 26.90515
vt -0.1929085 30.77239
vt -0.1808284 26.86765
vt -0.1808284 30.80989
vt -0.1656543 26.83288
vt -0.1656543 30.84466
vt -0.1476458 26.80145
vt -0.1476458 30.87609
vt -0.127111 26.77388
vt -0.127111 30.90366
vt -0.1044013 26.75065
vt -0.1044013 30.92689
vt -0.0799053 26.73216
vt -0.0799053 30.94538
vt -0.0540421 26.71872
vt -0.0540421 30.95882
vt -0.02725421 26.71056
vt -0.02725421 30.96698
vt 5.197509e-13 26.70783
vt 5.197509e-13 30.96971
vn -1 0 0
vn 0 0 -1
vn 0 -0.9978589230889555 0.06540313151332994
vn 0 -0.9914448610250887 0.13052619486885528
vn 0 -0.9659258358036646 0.2588190095935614
vn 0 -0.9238795391929067 0.3826834162342324
vn 0 -0.8660254028383291 0.5000000016387098
vn 0 -0.7933533393698234 0.6087614302095278
vn 0 -0.7071067811865477 0.7071067811865475
vn 0 -0.6087614302095282 0.7933533393698232
vn 0 -0.5000000016387103 0.8660254028383289
vn 0 -0.38268341623423285 0.9238795391929064
vn 0 -0.25881900959356186 0.9659258358036644
vn 0 -0.13052619486885572 0.9914448610250887
vn 0 -0.03271907959347864 0.9994645875820491
vn 0 0 1
vn 0 0.032719079593478195 0.9994645875820491
vn 0 0.13052619486885528 0.9914448610250887
vn 0 0.2588190095935614 0.9659258358036646
vn 0 0.3826834162342324 0.9238795391929067
vn 0 0.5000000016387098 0.8660254028383291
vn 0 0.6087614302095278 0.7933533393698234
vn 0 0.7071067811865475 0.7071067811865477
vn 0 0.7933533393698232 0.6087614302095282
vn 0 0.8660254028383289 0.5000000016387103
vn 0 0.9238795391929064 0.38268341623423285
vn 0 0.9659258358036644 0.25881900959356186
vn 0 0.9914448610250887 0.13052619486885572
vn 0 0.9978589230889555 0.06540313151333038
vn 1 0 0
vn 0 0.9914448610250887 -0.13052619486885528
vn 0 0.9978589230889555 -0.06540313151332994
vn 0 0.9659258358036646 -0.2588190095935614
vn 0 0.9238795391929067 -0.3826834162342324
vn 0 0.8660254028383291 -0.5000000016387098
vn 0 0.7933533393698234 -0.6087614302095278
vn 0 0.7071067811865477 -0.7071067811865475
vn 0 0.6087614302095282 -0.7933533393698232
vn 0 0.5000000016387103 -0.8660254028383289
vn 0 0.38268341623423285 -0.9238795391929064
vn 0 0.25881900959356186 -0.9659258358036644
vn 0 0.13052619486885572 -0.9914448610250887
vn 0 0.03271907959347864 -0.9994645875820491
vn 0 -0.032719079593478195 -0.9994645875820491
vn 0 -0.13052619486885528 -0.9914448610250887
vn 0 -0.2588190095935614 -0.9659258358036646
vn 0 -0.3826834162342324 -0.9238795391929067
vn 0 -0.5000000016387098 -0.8660254028383291
vn 0 -0.6087614302095278 -0.7933533393698234
vn 0 -0.7071067811865475 -0.7071067811865477
vn 0 -0.7933533393698232 -0.6087614302095282
vn 0 -0.8660254028383289 -0.5000000016387103
vn 0 -0.9238795391929064 -0.38268341623423285
vn 0 -0.9659258358036644 -0.25881900959356186
vn 0 -0.9914448610250887 -0.13052619486885572
vn 0 -0.9978589230889555 -0.06540313151333038
usemtl material_0_0
f 1/1/1 2/2/1 3/3/1
f 2/2/1 1/1/1 4/4/1
f 2/2/1 4/4/1 5/5/1
f 5/5/1 4/4/1 6/6/1
f 5/5/1 6/6/1 7/7/1
f 7/7/1 6/6/1 8/8/1
f 7/7/1 8/8/1 9/9/1
f 9/9/1 8/8/1 10/10/1
f 9/9/1 10/10/1 11/11/1
f 11/11/1 10/10/1 12/12/1
f 11/11/1 12/12/1 13/13/1
f 13/13/1 12/12/1 14/14/1
f 13/13/1 14/14/1 15/15/1
f 15/15/1 14/14/1 16/16/1
f 15/15/1 16/16/1 17/17/1
f 17/17/1 16/16/1 18/18/1
f 17/17/1 18/18/1 19/19/1
f 19/19/1 18/18/1 20/20/1
f 19/19/1 20/20/1 21/21/1
f 21/21/1 20/20/1 22/22/1
f 21/21/1 22/22/1 23/23/1
f 23/23/1 22/22/1 24/24/1
f 23/23/1 24/24/1 25/25/1
f 23/23/1 25/25/1 26/26/1
f 53/27/2 54/28/2 55/29/2
f 54/28/2 53/27/2 56/30/2
f 54/28/2 56/30/2 57/31/2
f 57/31/2 56/30/2 58/32/2
f 58/32/2 56/30/2 59/33/2
f 59/33/2 56/30/2 60/34/2
f 55/29/2 61/35/2 62/36/2
f 61/35/2 55/29/2 54/28/2
f 61/35/2 54/28/2 63/37/2
f 61/35/2 63/37/2 64/38/2
f 62/36/2 61/35/2 60/34/2
f 62/36/2 60/34/2 56/30/2
f 58/32/2 64/38/2 63/37/2
f 64/38/2 58/32/2 59/33/2
f 77/39/3 78/40/4 79/41/3
f 78/40/4 77/39/3 80/42/4
f 80/43/4 85/44/5 78/45/4
f 85/44/5 80/43/4 86/46/5
f 86/47/5 89/48/6 85/49/5
f 89/48/6 86/47/5 90/50/6
f 90/51/6 93/52/7 89/53/6
f 93/52/7 90/51/6 94/54/7
f 94/55/7 97/56/8 93/57/7
f 97/56/8 94/55/7 98/58/8
f 98/59/8 101/60/9 97/61/8
f 101/60/9 98/59/8 102/62/9
f 105/63/10 101/64/9 102/65/9
f 101/64/9 105/63/10 106/66/10
f 109/67/11 106/68/10 105/69/10
f 106/68/10 109/67/11 110/70/11
f 113/71/12 110/72/11 109/73/11
f 110/72/11 113/71/12 114/74/12
f 117/75/13 114/76/12 113/77/12
f 114/76/12 117/75/13 118/78/13
f 121/79/14 118/80/13 117/81/13
f 118/80/13 121/79/14 122/82/14
f 125/83/15 122/84/14 121/85/14
f 122/84/14 125/83/15 126/86/15
f 125/87/15 129/88/16 126/89/15
f 129/88/16 125/87/15 130/90/17
f 129/88/16 130/90/17 131/91/16
f 131/91/16 130/90/17 132/92/16
f 132/92/16 130/90/17 133/93/16
f 133/93/16 130/90/17 134/94/16
f 126/89/15 135/95/16 136/96/17
f 135/95/16 126/89/15 129/88/16
f 135/95/16 129/88/16 137/97/16
f 135/95/16 137/97/16 138/98/16
f 136/96/17 135/95/16 139/99/16
f 136/96/17 139/99/16 140/100/16
f 136/96/17 140/100/16 134/94/16
f 136/96/17 134/94/16 130/90/17
f 141/101/16 138/98/16 137/97/16
f 138/98/16 141/101/16 133/93/16
f 133/93/16 141/101/16 142/102/16
f 133/93/16 142/102/16 132/92/16
f 157/103/18 136/104/17 130/105/17
f 136/104/17 157/103/18 158/106/18
f 161/107/19 158/108/18 157/109/18
f 158/108/18 161/107/19 162/110/19
f 165/111/20 162/112/19 161/113/19
f 162/112/19 165/111/20 166/114/20
f 169/115/21 166/116/20 165/117/20
f 166/116/20 169/115/21 170/118/21
f 173/119/22 170/120/21 169/121/21
f 170/120/21 173/119/22 174/122/22
f 177/123/23 174/124/22 173/125/22
f 174/124/22 177/123/23 178/126/23
f 177/127/23 181/128/24 178/129/23
f 181/128/24 177/127/23 182/130/24
f 182/131/24 185/132/25 181/133/24
f 185/132/25 182/131/24 186/134/25
f 186/135/25 189/136/26 185/137/25
f 189/136/26 186/135/25 190/138/26
f 190/139/26 193/140/27 189/141/26
f 193/140/27 190/139/26 194/142/27
f 194/143/27 197/144/28 193/145/27
f 197/144/28 194/143/27 198/146/28
f 198/147/28 201/148/29 197/149/28
f 201/148/29 198/147/28 202/150/29
f 205/151/30 206/152/30 207/153/30
f 206/152/30 205/151/30 208/154/30
f 208/154/30 205/151/30 209/155/30
f 208/154/30 209/155/30 210/156/30
f 210/156/30 209/155/30 211/157/30
f 210/156/30 211/157/30 212/158/30
f 212/158/30 211/157/30 213/159/30
f 212/158/30 213/159/30 214/160/30
f 214/160/30 213/159/30 215/161/30
f 214/160/30 215/161/30 216/162/30
f 216/162/30 215/161/30 217/163/30
f 216/162/30 217/163/30 218/164/30
f 218/164/30 217/163/30 219/165/30
f 218/164/30 219/165/30 220/166/30
f 220/166/30 219/165/30 221/167/30
f 220/166/30 221/167/30 222/168/30
f 222/168/30 221/167/30 223/169/30
f 222/168/30 223/169/30 224/170/30
f 224/170/30 223/169/30 225/171/30
f 224/170/30 225/171/30 226/172/30
f 226/172/30 225/171/30 227/173/30
f 226/172/30 227/173/30 228/174/30
f 228/174/30 227/173/30 229/175/30
f 228/174/30 229/175/30 230/176/30
usemtl material_1_0
f 27//30 28//30 29//30
f 28//30 30//30 29//30
f 30//30 31//30 29//30
f 29//30 31//30 32//30
f 31//30 33//30 32//30
f 32//30 33//30 34//30
f 33//30 35//30 34//30
f 34//30 35//30 36//30
f 35//30 37//30 36//30
f 36//30 37//30 38//30
f 37//30 39//30 38//30
f 38//30 39//30 40//30
f 39//30 41//30 40//30
f 40//30 41//30 42//30
f 41//30 43//30 42//30
f 42//30 43//30 44//30
f 43//30 45//30 44//30
f 44//30 45//30 46//30
f 45//30 47//30 46//30
f 46//30 47//30 48//30
f 47//30 49//30 48//30
f 48//30 49//30 50//30
f 49//30 51//30 50//30
f 52//30 50//30 51//30
f 65//16 66//16 67//16
f 68//16 67//16 66//16
f 69//16 70//16 71//16
f 70//16 72//16 71//16
f 67//16 68//16 72//16
f 68//16 73//16 72//16
f 73//16 74//16 72//16
f 71//16 72//16 74//16
f 70//16 69//16 65//16
f 65//16 69//16 66//16
f 66//16 69//16 75//16
f 75//16 69//16 73//16
f 69//16 76//16 73//16
f 74//16 73//16 76//16
f 81//31 82//32 83//31
f 84//32 83//31 82//32
f 87//33 81//31 88//33
f 83//31 88//33 81//31
f 91//34 87//33 92//34
f 88//33 92//34 87//33
f 95//35 91//34 96//35
f 92//34 96//35 91//34
f 99//36 95//35 100//36
f 96//35 100//36 95//35
f 103//37 99//36 104//37
f 100//36 104//37 99//36
f 107//38 108//38 104//37
f 103//37 104//37 108//38
f 111//39 112//39 107//38
f 108//38 107//38 112//39
f 115//40 116//40 111//39
f 112//39 111//39 116//40
f 119//41 120//41 115//40
f 116//40 115//40 120//41
f 123//42 124//42 119//41
f 120//41 119//41 124//42
f 127//43 128//43 123//42
f 124//42 123//42 128//43
f 143//2 144//2 145//2
f 144//2 146//2 145//2
f 145//2 146//2 147//2
f 148//2 147//2 146//2
f 149//44 150//2 151//44
f 150//2 152//2 151//44
f 152//2 153//2 151//44
f 153//2 154//2 151//44
f 147//2 148//2 154//2
f 148//2 155//2 154//2
f 155//2 127//43 154//2
f 151//44 154//2 127//43
f 150//2 149//44 145//2
f 145//2 149//44 143//2
f 143//2 149//44 156//2
f 156//2 149//44 155//2
f 149//44 128//43 155//2
f 127//43 155//2 128//43
f 159//45 160//45 151//44
f 149//44 151//44 160//45
f 163//46 164//46 159//45
f 160//45 159//45 164//46
f 167//47 168//47 163//46
f 164//46 163//46 168//47
f 171//48 172//48 167//47
f 168//47 167//47 172//48
f 175//49 176//49 171//48
f 172//48 171//48 176//49
f 179//50 180//50 175//49
f 176//49 175//49 180//50
f 183//51 180//50 184//51
f 179//50 184//51 180//50
f 187//52 183//51 188//52
f 184//51 188//52 183//51
f 191//53 187//52 192//53
f 188//52 192//53 187//52
f 195//54 191//53 196//54
f 192//53 196//54 191//53
f 199//55 195//54 200//55
f 196//54 200//55 195//54
f 203//56 199//55 204//56
f 200//55 204//56 199//55
f 231//1 232//1 233//1
f 232//1 234//1 233//1
f 233//1 234//1 235//1
f 234//1 236//1 235//1
f 235//1 236//1 237//1
f 236//1 238//1 237//1
f 237//1 238//1 239//1
f 238//1 240//1 239//1
f 239//1 240//1 241//1
f 240//1 242//1 241//1
f 241//1 242//1 243//1
f 242//1 244//1 243//1
f 243//1 244//1 245//1
f 244//1 246//1 245//1
f 245//1 246//1 247//1
f 246//1 248//1 247//1
f 247//1 248//1 249//1
f 248//1 250//1 249//1
f 249//1 250//1 251//1
f 250//1 252//1 251//1
f 251//1 252//1 253//1
f 252//1 254//1 253//1
f 253//1 254//1 255//1
f 256//1 255//1 254//1
