# SSTK version 0.8.0
# 2
mtllib original-2.mtl
o #ID148
v 0.547048 0.439613 -0.067881
v 0.547048 -0.386731 0.041488
v 0.547048 0.439613 0.041488
v 0.547048 -0.386731 -0.067881
v 0.547048 -0.386731 -0.067881
v 0.547048 0.439613 -0.067881
v 0.547048 -0.386731 0.041488
v 0.547048 0.439613 0.041488
v 0.547048 0.439613 -0.067881
v 0.012355 0.439613 0.041488
v 0.012355 0.439613 -0.067881
v 0.547048 0.439613 0.041488
v 0.547048 0.439613 0.041488
v 0.547048 0.439613 -0.067881
v 0.012355 0.439613 0.041488
v 0.012355 0.439613 -0.067881
v 0.547048 -0.386731 0.041488
v 0.012355 -0.386731 -0.067881
v 0.012355 -0.386731 0.041488
v 0.547048 -0.386731 -0.067881
v 0.547048 -0.386731 -0.067881
v 0.547048 -0.386731 0.041488
v 0.012355 -0.386731 -0.067881
v 0.012355 -0.386731 0.041488
v 0.012355 -0.386731 -0.067881
v 0.012355 -0.376638 0.041488
v 0.012355 -0.386731 0.041488
v 0.012355 0.036534 0.041488
v 0.012355 0.439613 0.041488
v 0.012355 0.439613 -0.067881
v 0.012355 0.439613 -0.067881
v 0.012355 -0.386731 -0.067881
v 0.012355 0.439613 0.041488
v 0.012355 0.036534 0.041488
v 0.012355 -0.376638 0.041488
v 0.012355 -0.386731 0.041488
vt 5.551115e-16 30.06884
vt 0.2088026 27.65377
vt 0.2088026 30.06884
vt 5.551115e-16 27.65377
vt -38.52652 -7.771561e-16
vt -37.50571 -0.3196416
vt -37.50571 -7.771561e-16
vt -38.52652 -0.3196416
vt 38.52652 -0.3196416
vt 37.50571 -7.771561e-16
vt 37.50571 -0.3196416
vt 38.52652 -7.771561e-16
vt 1.431688e-12 27.65377
vt -0.2088026 27.68326
vt -0.2088026 27.65377
vt -0.2088026 28.8908
vt -0.2088026 30.06884
vt 1.431688e-12 30.06884
vn -1 0 0
vn 0 -1 0
vn 0 1 0
vn 1 0 0
usemtl material_0_0
f 1/1/1 2/2/1 3/3/1
f 2/2/1 1/1/1 4/4/1
f 9/5/2 10/6/2 11/7/2
f 10/6/2 9/5/2 12/8/2
f 17/9/3 18/10/3 19/11/3
f 18/10/3 17/9/3 20/12/3
f 25/13/4 26/14/4 27/15/4
f 26/14/4 25/13/4 28/16/4
f 28/16/4 25/13/4 29/17/4
f 29/17/4 25/13/4 30/18/4
usemtl material_1_0
f 5//4 6//4 7//4
f 8//4 7//4 6//4
f 13//3 14//3 15//3
f 16//3 15//3 14//3
f 21//2 22//2 23//2
f 24//2 23//2 22//2
f 31//1 32//1 33//1
f 33//1 32//1 34//1
f 34//1 32//1 35//1
f 36//1 35//1 32//1
