# SSTK version 0.8.0
# 24
mtllib original-24.mtl
o #ID109
v 0.502010 -0.443244 0.084557
v 0.496104 -0.445907 0.084557
v 0.496104 -0.443244 0.084557
v 0.502010 -0.445907 0.084557
v 0.496104 -0.437764 0.084557
v 0.492894 -0.443244 0.084557
v 0.492894 -0.437764 0.084557
v 0.492894 -0.445907 0.084557
v 0.492894 -0.456475 0.084557
v 0.492986 -0.457980 0.084557
v 0.493261 -0.459268 0.084557
v 0.493720 -0.460340 0.084557
v 0.494362 -0.461195 0.084557
v 0.495169 -0.461849 0.084557
v 0.496104 -0.454972 0.084557
v 0.496121 -0.462315 0.084557
v 0.496155 -0.457209 0.084557
v 0.497218 -0.462595 0.084557
v 0.496547 -0.458677 0.084557
v 0.496927 -0.459200 0.084557
v 0.497486 -0.459573 0.084557
v 0.498459 -0.462689 0.084557
v 0.499245 -0.459872 0.084557
v 0.500175 -0.462544 0.084557
v 0.500764 -0.459641 0.084557
v 0.502010 -0.462143 0.084557
v 0.501823 -0.459257 0.084557
v 0.502010 -0.459257 0.084557
v 0.490726 -0.445907 0.084557
v 0.490726 -0.443244 0.084557
v 0.492894 -0.445907 0.084557
v 0.492894 -0.443244 0.084557
v 0.490726 -0.445907 0.084557
v 0.490726 -0.443244 0.084557
v 0.502010 -0.459257 0.084557
v 0.501823 -0.459257 0.084557
v 0.502010 -0.462143 0.084557
v 0.500764 -0.459641 0.084557
v 0.500175 -0.462544 0.084557
v 0.499245 -0.459872 0.084557
v 0.498459 -0.462689 0.084557
v 0.497486 -0.459573 0.084557
v 0.497218 -0.462595 0.084557
v 0.496927 -0.459200 0.084557
v 0.496547 -0.458677 0.084557
v 0.496155 -0.457209 0.084557
v 0.496121 -0.462315 0.084557
v 0.496104 -0.454972 0.084557
v 0.496104 -0.445907 0.084557
v 0.496104 -0.443244 0.084557
v 0.496104 -0.437764 0.084557
v 0.495169 -0.461849 0.084557
v 0.494362 -0.461195 0.084557
v 0.493720 -0.460340 0.084557
v 0.493261 -0.459268 0.084557
v 0.492986 -0.457980 0.084557
v 0.492894 -0.456475 0.084557
v 0.492894 -0.437764 0.084557
v 0.502010 -0.445907 0.084557
v 0.502010 -0.443244 0.084557
vn 0 0 -1
vn 0 0 1
usemtl material_0_0
f 1//1 2//1 3//1
f 2//1 1//1 4//1
f 5//1 6//1 7//1
f 6//1 5//1 8//1
f 8//1 5//1 9//1
f 9//1 5//1 10//1
f 10//1 5//1 11//1
f 11//1 5//1 12//1
f 12//1 5//1 13//1
f 13//1 5//1 14//1
f 14//1 5//1 15//1
f 14//1 15//1 16//1
f 15//1 5//1 3//1
f 15//1 3//1 2//1
f 16//1 15//1 17//1
f 16//1 17//1 18//1
f 18//1 17//1 19//1
f 18//1 19//1 20//1
f 18//1 20//1 21//1
f 18//1 21//1 22//1
f 22//1 21//1 23//1
f 22//1 23//1 24//1
f 24//1 23//1 25//1
f 24//1 25//1 26//1
f 26//1 25//1 27//1
f 26//1 27//1 28//1
f 6//1 29//1 30//1
f 29//1 6//1 8//1
f 31//2 32//2 33//2
f 34//2 33//2 32//2
f 35//2 36//2 37//2
f 36//2 38//2 37//2
f 37//2 38//2 39//2
f 38//2 40//2 39//2
f 39//2 40//2 41//2
f 40//2 42//2 41//2
f 41//2 42//2 43//2
f 42//2 44//2 43//2
f 44//2 45//2 43//2
f 45//2 46//2 43//2
f 43//2 46//2 47//2
f 46//2 48//2 47//2
f 49//2 50//2 48//2
f 50//2 51//2 48//2
f 47//2 48//2 52//2
f 48//2 51//2 52//2
f 52//2 51//2 53//2
f 53//2 51//2 54//2
f 54//2 51//2 55//2
f 55//2 51//2 56//2
f 56//2 51//2 57//2
f 57//2 51//2 31//2
f 31//2 51//2 32//2
f 58//2 32//2 51//2
f 59//2 60//2 49//2
f 50//2 49//2 60//2
