# SSTK version 0.8.0
# 6
mtllib original-6.mtl
o #ID38
v 0.151881 0.202169 0.052766
v 0.485521 0.202169 0.052766
v 0.151881 0.202169 0.038260
v 0.318701 0.202169 0.038260
v 0.485521 0.202169 0.038260
v 0.485521 -0.204001 0.038260
v 0.485521 -0.000916 0.038260
v 0.485521 -0.204001 0.052766
v 0.485521 0.173157 0.052766
v 0.485521 0.202169 0.052766
v 0.485521 0.202169 0.038260
v 0.151881 0.202169 0.052766
v 0.485521 0.173157 0.052766
v 0.485521 0.202169 0.052766
v 0.452621 0.169269 0.052766
v 0.485521 -0.204001 0.052766
v 0.184781 0.169269 0.052766
v 0.184781 0.112945 0.052766
v 0.184781 -0.171102 0.052766
v 0.452621 -0.171102 0.052766
v 0.151881 -0.204001 0.052766
v 0.452621 0.112945 0.052766
v 0.151881 0.173157 0.052766
v 0.151881 -0.204001 0.038260
v 0.151881 -0.204001 0.052766
v 0.151881 -0.000916 0.038260
v 0.151881 0.173157 0.052766
v 0.151881 0.202169 0.038260
v 0.151881 0.202169 0.052766
v 0.485521 -0.204001 0.052766
v 0.151881 -0.204001 0.052766
v 0.485521 -0.204001 0.038260
v 0.318701 -0.204001 0.038260
v 0.151881 -0.204001 0.038260
vn 0 1 0
vn 0 -1 0
vn 1 0 0
vn -1 0 0
vn 0 0 1
vn 0 0 -1
usemtl material_0_2
f 1//1 2//1 3//1
f 3//2 2//2 1//2
f 3//1 2//1 4//1
f 4//2 2//2 3//2
f 5//1 4//1 2//1
f 2//2 4//2 5//2
f 6//3 7//3 8//3
f 8//4 7//4 6//4
f 8//3 7//3 9//3
f 9//4 7//4 8//4
f 9//3 7//3 10//3
f 10//4 7//4 9//4
f 11//3 10//3 7//3
f 7//4 10//4 11//4
f 12//5 13//5 14//5
f 14//6 13//6 12//6
f 13//5 12//5 15//5
f 15//6 12//6 13//6
f 13//5 15//5 16//5
f 16//6 15//6 13//6
f 15//5 12//5 17//5
f 17//6 12//6 15//6
f 17//5 12//5 18//5
f 18//6 12//6 17//6
f 18//5 12//5 19//5
f 19//6 12//6 18//6
f 16//5 20//5 21//5
f 21//6 20//6 16//6
f 20//5 16//5 15//5
f 15//6 16//6 20//6
f 20//5 15//5 22//5
f 22//6 15//6 20//6
f 21//5 20//5 19//5
f 19//6 20//6 21//6
f 21//5 19//5 12//5
f 12//6 19//6 21//6
f 21//5 12//5 23//5
f 23//6 12//6 21//6
f 24//4 25//4 26//4
f 26//3 25//3 24//3
f 25//4 27//4 26//4
f 26//3 27//3 25//3
f 26//4 27//4 28//4
f 28//3 27//3 26//3
f 29//4 28//4 27//4
f 27//3 28//3 29//3
f 30//2 31//2 32//2
f 32//1 31//1 30//1
f 32//2 31//2 33//2
f 33//1 31//1 32//1
f 34//2 33//2 31//2
f 31//1 33//1 34//1
