# SSTK version 0.8.0
# 3
mtllib original-3.mtl
o #ID18
v -0.214659 -0.000916 0.038260
v -0.181759 -0.204001 0.038260
v -0.181759 -0.000916 0.038260
v -0.214659 -0.171102 0.038260
v -0.348579 -0.204001 0.038260
v -0.348579 -0.171102 0.038260
v -0.348579 -0.171102 0.038260
v -0.214659 -0.171102 0.038260
v -0.348579 -0.204001 0.038260
v -0.181759 -0.204001 0.038260
v -0.214659 -0.000916 0.038260
v -0.181759 -0.000916 0.038260
v -0.181759 0.202169 0.038260
v -0.214659 0.169269 0.038260
v -0.348579 0.202169 0.038260
v -0.348579 0.169269 0.038260
v -0.214659 0.169269 0.038260
v -0.348579 0.169269 0.038260
v -0.348579 0.202169 0.038260
v -0.181759 0.202169 0.038260
v -0.214659 -0.000916 0.038260
v -0.214659 0.112945 0.052766
v -0.214659 0.169269 0.038260
v -0.214659 -0.171102 0.052766
v -0.214659 -0.171102 0.038260
v -0.214659 -0.171102 0.038260
v -0.214659 -0.000916 0.038260
v -0.214659 -0.171102 0.052766
v -0.214659 0.112945 0.052766
v -0.214659 0.169269 0.038260
v -0.348579 -0.000916 0.038260
v -0.348579 -0.000916 0.038260
v -0.482499 -0.171102 0.052766
v -0.348579 -0.171102 0.038260
v -0.482499 -0.171102 0.038260
v -0.214659 -0.171102 0.038260
v -0.214659 -0.171102 0.052766
v -0.214659 -0.171102 0.052766
v -0.482499 -0.171102 0.052766
v -0.214659 -0.171102 0.038260
v -0.348579 -0.171102 0.038260
v -0.482499 -0.171102 0.038260
v -0.515399 -0.000916 0.038260
v -0.482499 -0.171102 0.038260
v -0.482499 -0.000916 0.038260
v -0.515399 -0.204001 0.038260
v -0.515399 -0.000916 0.038260
v -0.482499 -0.171102 0.038260
v -0.515399 -0.204001 0.038260
v -0.482499 -0.000916 0.038260
v -0.515399 0.202169 0.038260
v -0.482499 0.169269 0.038260
v -0.515399 0.202169 0.038260
v -0.482499 0.169269 0.038260
v -0.482499 0.112945 0.052766
v -0.482499 -0.000916 0.038260
v -0.482499 0.169269 0.038260
v -0.482499 -0.171102 0.052766
v -0.482499 -0.171102 0.038260
v -0.482499 -0.171102 0.038260
v -0.482499 -0.171102 0.052766
v -0.482499 -0.000916 0.038260
v -0.482499 0.112945 0.052766
v -0.482499 0.169269 0.038260
vn 0 0 1
vn -1 0 0
vn 0 1 0
vn 1 0 0
vn 0 0 -1
vn 0 -1 0
usemtl material_0_0
f 1//1 2//1 3//1
f 2//1 1//1 4//1
f 2//1 4//1 5//1
f 5//1 4//1 6//1
f 13//1 14//1 3//1
f 14//1 13//1 15//1
f 14//1 15//1 16//1
f 1//1 3//1 14//1
f 21//2 22//2 23//2
f 22//2 21//2 24//2
f 24//2 21//2 25//2
f 31//1 4//1 1//1
f 4//1 31//1 6//1
f 33//3 34//3 35//3
f 34//3 33//3 36//3
f 36//3 33//3 37//3
f 43//1 44//1 45//1
f 44//1 5//1 6//1
f 5//1 44//1 46//1
f 46//1 44//1 43//1
f 51//1 16//1 15//1
f 16//1 51//1 52//1
f 52//1 51//1 45//1
f 45//1 51//1 43//1
f 16//1 1//1 14//1
f 1//1 16//1 31//1
f 45//1 6//1 31//1
f 6//1 45//1 44//1
f 55//4 56//4 57//4
f 56//4 55//4 58//4
f 56//4 58//4 59//4
f 52//1 31//1 16//1
f 31//1 52//1 45//1
usemtl material_1_0
f 7//5 8//5 9//5
f 9//5 8//5 10//5
f 8//5 11//5 10//5
f 12//5 10//5 11//5
f 17//5 12//5 11//5
f 18//5 19//5 17//5
f 19//5 20//5 17//5
f 12//5 17//5 20//5
f 26//4 27//4 28//4
f 28//4 27//4 29//4
f 30//4 29//4 27//4
f 7//5 32//5 8//5
f 11//5 8//5 32//5
f 38//6 39//6 40//6
f 40//6 39//6 41//6
f 42//6 41//6 39//6
f 47//5 48//5 49//5
f 49//5 48//5 9//5
f 7//5 9//5 48//5
f 50//5 48//5 47//5
f 47//5 53//5 50//5
f 50//5 53//5 54//5
f 54//5 53//5 18//5
f 19//5 18//5 53//5
f 32//5 18//5 11//5
f 17//5 11//5 18//5
f 48//5 50//5 7//5
f 32//5 7//5 50//5
f 60//2 61//2 62//2
f 61//2 63//2 62//2
f 64//2 62//2 63//2
f 50//5 54//5 32//5
f 18//5 32//5 54//5
