# SSTK version 0.8.0
# 1
mtllib original-1.mtl
o #ID2
v 0.184781 0.112945 0.052766
v 0.184781 -0.000916 0.038260
v 0.184781 0.169269 0.038260
v 0.184781 -0.171102 0.052766
v 0.184781 -0.171102 0.038260
v 0.184781 -0.171102 0.038260
v 0.184781 -0.171102 0.052766
v 0.184781 -0.000916 0.038260
v 0.184781 0.112945 0.052766
v 0.184781 0.169269 0.038260
v 0.184781 -0.171102 0.052766
v 0.318701 -0.171102 0.038260
v 0.184781 -0.171102 0.038260
v 0.452621 -0.171102 0.038260
v 0.452621 -0.171102 0.052766
v 0.452621 -0.171102 0.052766
v 0.184781 -0.171102 0.052766
v 0.452621 -0.171102 0.038260
v 0.318701 -0.171102 0.038260
v 0.184781 -0.171102 0.038260
v 0.184781 -0.000916 0.038260
v 0.318701 -0.171102 0.038260
v 0.318701 -0.000916 0.038260
v 0.184781 -0.171102 0.038260
v 0.184781 -0.171102 0.038260
v 0.184781 -0.000916 0.038260
v 0.318701 -0.171102 0.038260
v 0.318701 -0.000916 0.038260
v 0.151881 -0.000916 0.038260
v 0.318701 -0.204001 0.038260
v 0.151881 -0.204001 0.038260
v 0.151881 -0.000916 0.038260
v 0.151881 -0.204001 0.038260
v 0.318701 -0.204001 0.038260
v 0.184781 0.169269 0.038260
v 0.318701 0.169269 0.038260
v 0.184781 0.169269 0.038260
v 0.318701 0.169269 0.038260
v 0.151881 0.202169 0.038260
v 0.318701 0.202169 0.038260
v 0.151881 0.202169 0.038260
v 0.318701 0.202169 0.038260
v 0.452621 -0.000916 0.038260
v 0.452621 0.112945 0.052766
v 0.452621 0.169269 0.038260
v 0.452621 -0.171102 0.052766
v 0.452621 -0.171102 0.038260
v 0.452621 -0.171102 0.038260
v 0.452621 -0.000916 0.038260
v 0.452621 -0.171102 0.052766
v 0.452621 0.112945 0.052766
v 0.452621 0.169269 0.038260
v 0.452621 -0.000916 0.038260
v 0.485521 -0.204001 0.038260
v 0.485521 -0.000916 0.038260
v 0.452621 -0.171102 0.038260
v 0.452621 -0.171102 0.038260
v 0.485521 -0.204001 0.038260
v 0.452621 -0.000916 0.038260
v 0.485521 -0.000916 0.038260
v 0.452621 0.169269 0.038260
v 0.452621 0.169269 0.038260
v 0.485521 0.202169 0.038260
v 0.485521 0.202169 0.038260
vn 1 0 0
vn 0 1 0
vn 0 0 1
vn -1 0 0
vn 0 -1 0
vn 0 0 -1
usemtl material_0_0
f 1//1 2//1 3//1
f 2//1 1//1 4//1
f 2//1 4//1 5//1
f 11//2 12//2 13//2
f 12//2 11//2 14//2
f 14//2 11//2 15//2
f 21//3 22//3 23//3
f 22//3 21//3 24//3
f 29//3 24//3 21//3
f 24//3 30//3 22//3
f 30//3 24//3 31//3
f 31//3 24//3 29//3
f 35//3 23//3 36//3
f 23//3 35//3 21//3
f 39//3 36//3 40//3
f 36//3 39//3 35//3
f 35//3 39//3 21//3
f 21//3 39//3 29//3
f 43//4 44//4 45//4
f 44//4 43//4 46//4
f 46//4 43//4 47//4
f 53//3 54//3 55//3
f 54//3 53//3 56//3
f 54//3 56//3 30//3
f 30//3 56//3 22//3
f 23//3 56//3 53//3
f 56//3 23//3 22//3
f 36//3 53//3 61//3
f 53//3 36//3 23//3
f 63//3 61//3 55//3
f 61//3 63//3 40//3
f 61//3 40//3 36//3
f 53//3 55//3 61//3
usemtl material_1_0
f 6//4 7//4 8//4
f 7//4 9//4 8//4
f 10//4 8//4 9//4
f 16//5 17//5 18//5
f 18//5 17//5 19//5
f 20//5 19//5 17//5
f 25//6 26//6 27//6
f 28//6 27//6 26//6
f 32//6 25//6 33//6
f 33//6 25//6 34//6
f 27//6 34//6 25//6
f 26//6 25//6 32//6
f 26//6 37//6 28//6
f 38//6 28//6 37//6
f 32//6 41//6 26//6
f 26//6 41//6 37//6
f 37//6 41//6 38//6
f 42//6 38//6 41//6
f 48//1 49//1 50//1
f 50//1 49//1 51//1
f 52//1 51//1 49//1
f 27//6 57//6 34//6
f 34//6 57//6 58//6
f 57//6 59//6 58//6
f 60//6 58//6 59//6
f 27//6 28//6 57//6
f 59//6 57//6 28//6
f 28//6 38//6 59//6
f 62//6 59//6 38//6
f 62//6 60//6 59//6
f 38//6 42//6 62//6
f 42//6 64//6 62//6
f 60//6 62//6 64//6
