# SSTK version 0.8.0
# 4
mtllib original-4.mtl
o mesh4/mesh4-geometry#mesh4-geometry
v 0.012938 -0.197115 -0.310447
v 0.005406 0.656443 -0.090739
v 0.012938 0.654192 -0.082340
v 0.005406 -0.194865 -0.318846
v 0.005406 0.677725 -0.085036
v 0.020216 0.667668 -0.132634
v 0.017963 -0.199793 -0.300451
v -0.004120 -0.193195 -0.325076
v 0.012938 0.675475 -0.076637
v -0.004120 0.658112 -0.096969
v -0.001040 0.669947 -0.141139
v 0.017963 0.651514 -0.072344
v 0.005406 0.748422 -0.066093
v 0.020216 0.688951 -0.126931
v -0.004120 0.679395 -0.091266
v 0.020138 0.648590 -0.061433
v 0.020138 -0.202717 -0.289540
v -0.014990 -0.192221 -0.328712
v 0.012938 0.746171 -0.057694
v -0.001040 0.691230 -0.135436
v 0.017963 0.672796 -0.066642
v -0.014990 0.659086 -0.100605
v 0.038469 0.685326 -0.113402
v 0.020216 0.628159 0.014817
v 0.009102 0.732320 -0.006003
v -0.004120 0.750091 -0.072323
v 0.020138 0.669873 -0.055730
v -0.014990 0.680369 -0.094902
v -0.023851 0.670724 -0.144039
v 0.038469 0.664043 -0.119105
v 0.038469 0.653067 0.006991
v 0.038469 0.631784 0.001288
v 0.019316 0.645620 -0.050350
v 0.019316 -0.205687 -0.278457
v -0.026465 -0.192008 -0.329506
v 0.000407 0.730371 0.001273
v 0.015552 0.734786 -0.015204
v 0.017963 0.743493 -0.047699
v 0.020216 0.649442 0.020519
v -0.026465 0.659299 -0.101399
v -0.023851 0.692007 -0.138337
v 0.052475 0.659319 -0.101474
v 0.052475 0.657791 -0.010641
v 0.015552 0.642807 -0.039850
v 0.009102 0.661624 -0.024946
v -0.014990 0.751065 -0.075959
v -0.009941 0.729070 0.006126
v 0.020138 0.740569 -0.036787
v 0.019316 0.666903 -0.044647
v -0.026465 0.680582 -0.095696
v -0.037761 0.658736 -0.099298
v -0.046662 0.691230 -0.135436
v 0.052475 0.680602 -0.095771
v -0.001040 0.647163 0.029024
v 0.009102 0.640341 -0.030648
v 0.015552 -0.208500 -0.267957
v 0.000407 0.659675 -0.017670
v 0.015552 0.664090 -0.034147
v 0.019316 0.737599 -0.025704
v -0.037761 0.680019 -0.093595
v -0.046662 0.669947 -0.141139
v 0.061280 0.653818 -0.080942
v 0.052475 0.636508 -0.016343
v 0.061280 0.663293 -0.031172
v -0.001040 0.625880 0.023321
v 0.000407 0.638392 -0.023373
v 0.009102 -0.210966 -0.258755
v -0.037761 -0.192571 -0.327405
v -0.026465 0.751278 -0.076753
v -0.021238 0.728507 0.008228
v -0.009941 0.658374 -0.012817
v -0.037761 0.750715 -0.074652
v -0.048109 0.657435 -0.094444
v -0.048109 0.678718 -0.088741
v -0.067918 0.688951 -0.126931
v 0.061280 0.675100 -0.075239
v 0.061280 0.642010 -0.036875
v -0.023851 0.646386 0.031925
v -0.048109 0.749414 -0.069799
v -0.056804 0.655486 -0.087169
v -0.067918 0.667668 -0.132634
v -0.067018 0.671490 -0.061765
v -0.056804 0.676769 -0.081466
v 0.064283 0.647914 -0.058909
v 0.064283 0.669196 -0.053206
v -0.023851 0.625103 0.026222
v -0.021238 0.657811 -0.010715
v -0.009941 0.637091 -0.018519
v 0.000407 -0.212915 -0.251480
v -0.048109 -0.193872 -0.322551
v -0.032712 0.728720 0.007433
v -0.043582 0.729694 0.003797
v -0.063254 0.653021 -0.077968
v -0.056804 0.747465 -0.062523
v -0.067018 0.650207 -0.067468
v -0.086171 0.685326 -0.113402
v -0.067840 0.668520 -0.050682
v -0.063254 0.674303 -0.072265
v -0.046662 0.625880 0.023321
v -0.021238 0.636528 -0.016418
v -0.032712 0.658024 -0.011510
v -0.053108 0.731364 -0.002433
v -0.063254 -0.198287 -0.306075
v -0.056804 -0.195821 -0.315276
v -0.067840 0.647237 -0.056384
v -0.086171 0.664043 -0.119105
v -0.067918 0.649442 0.020519
v -0.067018 0.742186 -0.042822
v -0.063254 0.744999 -0.053322
v -0.046662 0.647163 0.029024
v -0.043582 0.637716 -0.020849
v -0.032712 0.636741 -0.017213
v -0.043582 0.658998 -0.015146
v -0.009941 -0.214216 -0.246626
v -0.053108 0.660667 -0.021376
v -0.067018 -0.201100 -0.295575
v -0.060640 0.733614 -0.010831
v -0.067840 -0.204070 -0.284491
v -0.067918 0.628159 0.014817
v -0.100177 0.659319 -0.101474
v -0.086171 0.653067 0.006991
v -0.065665 0.665596 -0.039770
v -0.065665 0.644314 -0.045473
v -0.067840 0.739216 -0.031738
v -0.053108 0.639385 -0.027078
v -0.032712 -0.214566 -0.245320
v -0.021238 -0.214779 -0.244525
v -0.065665 -0.206994 -0.273580
v -0.086171 0.631784 0.001288
v -0.100177 0.680602 -0.095771
v -0.065665 0.736293 -0.020827
v -0.060640 0.641635 -0.035477
v -0.053108 -0.211922 -0.255185
v -0.043582 -0.213592 -0.248956
v -0.060640 0.662918 -0.029775
v -0.108982 0.653818 -0.080942
v -0.100177 0.636508 -0.016343
v -0.100177 0.657791 -0.010641
v -0.060640 -0.209672 -0.263584
v -0.108982 0.675100 -0.075239
v -0.108982 0.642010 -0.036875
v -0.111985 0.647914 -0.058909
v -0.108982 0.663293 -0.031172
v -0.111985 0.669196 -0.053206
vn 0.834847699077114 0.14247494864455792 -0.5317238083388585
vn 0.6639263778070807 0.19354411013621056 -0.7223174110344784
vn -0.834847699077114 -0.14247494864455792 0.5317238083388585
vn -0.6639263778070807 -0.19354411013621056 0.7223174110344784
vn 0 -0.9659258492011171 -0.2588189595935757
vn 0 0.9659258492011171 0.2588189595935757
vn 0.9488758809028001 0.08169598974601025 -0.30489396173154165
vn -0.9488758809028001 -0.08169598974601025 0.30489396173154165
vn 0.4477589051140772 0.23142395095826163 -0.8636868169735549
vn -0.4477589051140772 -0.23142395095826163 0.8636868169735549
vn 0.25881893103382275 0.24999993338377685 -0.9330127513847902
vn 0.5000001122520378 0.2241440503212417 -0.8365161878012513
vn -0.5000001122520378 -0.2241440503212417 0.8365161878012513
vn -0.25881893103382275 -0.24999993338377685 0.9330127513847902
vn 0.9982397974092503 0.015349996884749162 -0.057285988373924415
vn -0.9982397974092503 -0.015349996884749162 0.057285988373924415
vn 0.20107798924413758 0.25353298643826766 -0.9461969493869803
vn -0.20107798924413758 -0.25353298643826766 0.9461969493869803
vn 0.7071067080402967 0.18301292443516884 -0.6830127179885466
vn -0.7071067080402967 -0.18301292443516884 0.6830127179885466
vn 0 0.2588189595935757 -0.9659258492011171
vn 0 -0.2588189595935757 0.9659258492011171
vn 0.9795752970317646 -0.0520430157807459 0.1942260588942057
vn -0.9795752970317646 0.0520430157807459 -0.1942260588942057
vn -0.059305987531480836 0.2583629456816511 -0.9642257972807075
vn 0.059305987531480836 -0.2583629456816511 0.9642257972807075
vn 0.8660252130015254 0.12941003182878955 -0.4829631187862424
vn -0.8660252130015254 -0.12941003182878955 0.4829631187862424
vn 0.7071067080402967 -0.18301292443516884 0.6830127179885466
vn 0.5000001122520378 -0.2241440503212417 0.8365161878012513
vn -0.5000001122520378 0.2241440503212417 -0.8365161878012513
vn -0.7071067080402967 0.18301292443516884 -0.6830127179885466
vn 0.550480914734091 -0.2160749665313949 0.8064008750937557
vn 0.7477982463315132 -0.17183705660468243 0.6413032112510844
vn -0.7477982463315132 0.17183705660468243 -0.6413032112510844
vn -0.550480914734091 0.2160749665313949 -0.8064008750937557
vn 0.8941541716592871 -0.11588902224831876 0.43250208303154153
vn -0.8941541716592871 0.11588902224831876 -0.43250208303154153
vn -0.25881893103382275 0.24999993338377685 -0.9330127513847902
vn 0.25881893103382275 -0.24999993338377685 0.9330127513847902
vn 0.8660252130015254 -0.12941003182878955 0.4829631187862424
vn -0.8660252130015254 0.12941003182878955 -0.4829631187862424
vn -0.3156489732162388 0.24558697916120914 -0.9165439222285019
vn 0.3156489732162388 -0.24558697916120914 0.9165439222285019
vn 0.9659258572144357 0.06698699009781646 -0.2499999630443832
vn -0.9659258572144357 -0.06698699009781646 0.2499999630443832
vn 0.9659258572144357 -0.06698699009781646 0.2499999630443832
vn -0.9659258572144357 0.06698699009781646 -0.2499999630443832
vn 1 0 0
vn -1 0 0
usemtl material_0_0
f 1//1 2//2 3//1
f 2//2 1//1 4//2
f 3//3 2//4 1//3
f 4//4 1//3 2//4
f 5//2 3//1 2//2
f 2//4 3//3 5//4
f 2//5 6//5 3//5
f 3//6 6//6 2//6
f 3//1 7//7 1//1
f 1//3 7//8 3//3
f 8//9 2//2 4//2
f 4//4 2//4 8//10
f 3//1 5//2 9//1
f 9//3 5//4 3//3
f 10//9 5//2 2//2
f 2//4 5//4 10//10
f 2//5 11//5 6//5
f 6//6 11//6 2//6
f 3//5 6//5 12//5
f 12//6 6//6 3//6
f 7//7 3//1 12//7
f 12//8 3//3 7//8
f 2//2 8//9 10//9
f 10//10 8//10 2//4
f 13//2 9//1 5//2
f 5//4 9//3 13//4
f 14//6 5//6 9//6
f 9//5 5//5 14//5
f 9//1 12//7 3//1
f 3//3 12//8 9//3
f 5//2 10//9 15//9
f 15//10 10//10 5//4
f 10//5 11//5 2//5
f 2//6 11//6 10//6
f 11//11 14//12 6//12
f 6//13 14//13 11//14
f 12//5 6//5 16//5
f 16//6 6//6 12//6
f 12//7 17//15 7//7
f 7//8 17//16 12//8
f 18//17 10//9 8//9
f 8//10 10//10 18//18
f 9//1 13//2 19//1
f 19//3 13//4 9//3
f 15//9 13//2 5//2
f 5//4 13//4 15//10
f 20//6 5//6 14//6
f 14//5 5//5 20//5
f 14//6 9//6 21//6
f 21//5 9//5 14//5
f 12//7 9//1 21//7
f 21//8 9//3 12//8
f 22//17 15//9 10//9
f 10//10 15//10 22//18
f 20//6 15//6 5//6
f 5//5 15//5 20//5
f 22//5 11//5 10//5
f 10//6 11//6 22//6
f 14//12 11//11 20//11
f 20//14 11//14 14//13
f 23//19 6//12 14//12
f 14//13 6//13 23//20
f 16//5 6//5 24//5
f 24//6 6//6 16//6
f 17//15 12//7 16//15
f 16//16 12//8 17//16
f 21//7 16//15 12//7
f 12//8 16//16 21//8
f 10//9 18//17 22//17
f 22//18 18//18 10//10
f 13//6 25//6 19//6
f 19//5 25//5 13//5
f 19//1 21//7 9//1
f 9//3 21//8 19//3
f 13//2 15//9 26//9
f 26//10 15//10 13//4
f 14//6 21//6 27//6
f 27//5 21//5 14//5
f 15//9 22//17 28//17
f 28//18 22//18 15//10
f 20//6 28//6 15//6
f 15//5 28//5 20//5
f 22//5 29//5 11//5
f 11//6 29//6 22//6
f 29//21 20//11 11//11
f 11//14 20//14 29//22
f 6//12 23//19 30//19
f 30//20 23//20 6//13
f 14//6 31//6 23//6
f 23//5 31//5 14//5
f 24//5 6//5 32//5
f 32//6 6//6 24//6
f 24//5 33//5 16//5
f 16//6 33//6 24//6
f 16//15 34//23 17//15
f 17//16 34//24 16//16
f 16//15 21//7 27//15
f 27//16 21//8 16//16
f 35//25 22//17 18//17
f 18//18 22//18 35//26
f 13//6 36//6 25//6
f 25//5 36//5 13//5
f 19//6 25//6 37//6
f 37//5 25//5 19//5
f 21//7 19//1 38//7
f 38//8 19//3 21//8
f 28//17 26//9 15//9
f 15//10 26//10 28//18
f 26//6 36//6 13//6
f 13//5 36//5 26//5
f 38//7 27//15 21//7
f 21//8 27//16 38//8
f 14//6 27//6 39//6
f 39//5 27//5 14//5
f 40//25 28//17 22//17
f 22//18 28//18 40//26
f 41//6 28//6 20//6
f 20//5 28//5 41//5
f 40//5 29//5 22//5
f 22//6 29//6 40//6
f 20//11 29//21 41//21
f 41//22 29//22 20//14
f 23//19 42//27 30//19
f 30//20 42//28 23//20
f 32//5 6//5 30//5
f 30//6 6//6 32//6
f 14//6 39//6 31//6
f 31//5 39//5 14//5
f 23//6 31//6 43//6
f 43//5 31//5 23//5
f 32//29 39//30 24//30
f 24//31 39//31 32//32
f 24//5 44//5 33//5
f 33//6 44//6 24//6
f 34//23 16//15 33//23
f 33//24 16//16 34//24
f 27//15 33//23 16//15
f 16//16 33//24 27//16
f 22//17 35//25 40//25
f 40//26 35//26 22//18
f 36//33 45//34 25//34
f 25//35 45//35 36//36
f 45//34 37//37 25//34
f 25//35 37//38 45//35
f 19//6 37//6 38//6
f 38//5 37//5 19//5
f 26//9 28//17 46//17
f 46//18 28//18 26//10
f 26//6 47//6 36//6
f 36//5 47//5 26//5
f 27//15 38//7 48//15
f 48//16 38//8 27//16
f 49//6 39//6 27//6
f 27//5 39//5 49//5
f 28//17 40//25 50//25
f 50//26 40//26 28//18
f 41//6 50//6 28//6
f 28//5 50//5 41//5
f 51//5 29//5 40//5
f 40//6 29//6 51//6
f 29//21 52//39 41//21
f 41//22 52//40 29//22
f 42//27 23//19 53//27
f 53//28 23//20 42//28
f 32//5 30//5 42//5
f 42//6 30//6 32//6
f 39//30 32//29 31//29
f 31//32 32//32 39//31
f 32//29 43//41 31//29
f 31//32 43//42 32//32
f 23//6 43//6 53//6
f 53//5 43//5 23//5
f 54//40 24//30 39//30
f 39//31 24//31 54//39
f 24//5 55//5 44//5
f 44//6 55//6 24//6
f 56//37 33//23 44//37
f 44//38 33//24 56//38
f 49//23 44//37 33//23
f 33//24 44//38 49//24
f 33//23 56//37 34//23
f 34//24 56//38 33//24
f 33//23 27//15 49//23
f 49//24 27//16 33//24
f 35//25 51//43 40//25
f 40//26 51//44 35//26
f 45//34 36//33 57//33
f 57//36 36//36 45//35
f 37//37 45//34 58//37
f 58//38 45//35 37//38
f 38//6 37//6 59//6
f 59//5 37//5 38//5
f 50//25 46//17 28//17
f 28//18 46//18 50//26
f 46//6 47//6 26//6
f 26//5 47//5 46//5
f 47//44 57//33 36//33
f 36//36 57//36 47//43
f 38//6 59//6 48//6
f 48//5 59//5 38//5
f 48//15 49//23 27//15
f 27//16 49//24 48//16
f 58//6 39//6 49//6
f 49//5 39//5 58//5
f 40//25 60//43 50//25
f 50//26 60//44 40//26
f 41//6 60//6 50//6
f 50//5 60//5 41//5
f 51//5 61//5 29//5
f 29//6 61//6 51//6
f 60//43 40//25 51//43
f 51//44 40//26 60//44
f 52//39 29//21 61//39
f 61//40 29//22 52//40
f 52//6 60//6 41//6
f 41//5 60//5 52//5
f 53//27 62//45 42//27
f 42//28 62//46 53//28
f 32//5 42//5 63//5
f 63//6 42//6 32//6
f 43//41 32//29 63//41
f 63//42 32//32 43//42
f 53//6 43//6 64//6
f 64//5 43//5 53//5
f 24//30 54//40 65//40
f 65//39 54//39 24//31
f 57//6 54//6 39//6
f 39//5 54//5 57//5
f 24//5 66//5 55//5
f 55//6 66//6 24//6
f 67//34 44//37 55//34
f 55//35 44//38 67//35
f 58//37 55//34 44//37
f 44//38 55//35 58//38
f 44//37 67//34 56//37
f 56//38 67//35 44//38
f 44//37 49//23 58//37
f 58//38 49//24 44//38
f 51//43 35//25 68//43
f 68//44 35//26 51//44
f 57//33 55//34 45//34
f 45//35 55//35 57//36
f 57//6 39//6 45//6
f 45//5 39//5 57//5
f 55//34 58//37 45//34
f 45//35 58//38 55//35
f 45//6 39//6 58//6
f 58//5 39//5 45//5
f 58//37 59//23 37//37
f 37//38 59//24 58//38
f 46//17 50//25 69//25
f 69//26 50//26 46//18
f 46//6 70//6 47//6
f 47//5 70//5 46//5
f 57//33 47//44 71//44
f 71//43 47//43 57//36
f 49//23 48//15 59//23
f 59//24 48//16 49//24
f 59//23 58//37 49//23
f 49//24 58//38 59//24
f 72//43 50//25 60//43
f 60//44 50//26 72//44
f 73//5 61//5 51//5
f 51//6 61//6 73//6
f 51//43 74//36 60//43
f 60//44 74//33 51//44
f 61//39 75//31 52//39
f 52//40 75//30 61//40
f 52//6 74//6 60//6
f 60//5 74//5 52//5
f 62//45 53//27 76//45
f 76//46 53//28 62//46
f 77//5 42//5 62//5
f 62//6 42//6 77//6
f 63//5 42//5 77//5
f 77//6 42//6 63//6
f 63//41 64//47 43//41
f 43//42 64//48 63//42
f 53//6 64//6 76//6
f 76//5 64//5 53//5
f 78//22 65//40 54//40
f 54//39 65//39 78//21
f 65//5 66//5 24//5
f 24//6 66//6 65//6
f 71//6 54//6 57//6
f 57//5 54//5 71//5
f 66//33 67//34 55//34
f 55//35 67//35 66//36
f 55//34 57//33 66//33
f 66//36 57//36 55//35
f 68//43 73//36 51//43
f 51//44 73//33 68//44
f 50//25 72//43 69//25
f 69//26 72//44 50//26
f 69//6 70//6 46//6
f 46//5 70//5 69//5
f 70//26 71//44 47//44
f 47//43 71//43 70//25
f 71//44 66//33 57//33
f 57//36 66//36 71//43
f 60//43 79//36 72//43
f 72//44 79//33 60//44
f 80//5 61//5 73//5
f 73//6 61//6 80//6
f 74//36 51//43 73//36
f 73//33 51//44 74//33
f 79//36 60//43 74//36
f 74//33 60//44 79//33
f 75//31 61//39 81//31
f 81//30 61//40 75//30
f 75//6 82//6 52//6
f 52//5 82//5 75//5
f 52//6 83//6 74//6
f 74//5 83//5 52//5
f 76//45 84//49 62//45
f 62//46 84//50 76//46
f 77//5 62//5 84//5
f 84//6 62//6 77//6
f 64//47 63//41 77//47
f 77//48 63//42 64//48
f 76//6 64//6 85//6
f 85//5 64//5 76//5
f 65//40 78//22 86//22
f 86//21 78//21 65//39
f 87//6 78//6 54//6
f 54//5 78//5 87//5
f 65//5 88//5 66//5
f 66//6 88//6 65//6
f 87//6 54//6 71//6
f 71//5 54//5 87//5
f 67//34 66//33 89//33
f 89//36 66//36 67//35
f 73//36 68//43 90//36
f 90//33 68//44 73//33
f 72//6 91//6 69//6
f 69//5 91//5 72//5
f 69//6 91//6 70//6
f 70//5 91//5 69//5
f 71//44 70//26 87//26
f 87//25 70//25 71//43
f 66//33 71//44 88//44
f 88//43 71//43 66//36
f 79//6 92//6 72//6
f 72//5 92//5 79//5
f 93//5 61//5 80//5
f 80//6 61//6 93//6
f 90//36 80//35 73//36
f 73//33 80//34 90//33
f 83//35 73//36 80//35
f 80//34 73//33 83//34
f 73//36 83//35 74//36
f 74//33 83//34 73//33
f 74//36 94//35 79//36
f 79//33 94//34 74//33
f 95//5 81//5 61//5
f 61//6 81//6 95//6
f 81//31 96//32 75//31
f 75//30 96//29 81//30
f 82//6 75//6 97//6
f 97//5 75//5 82//5
f 52//6 82//6 98//6
f 98//5 82//5 52//5
f 52//6 98//6 83//6
f 83//5 98//5 52//5
f 94//35 74//36 83//35
f 83//34 74//33 94//34
f 84//49 76//45 85//49
f 85//50 76//46 84//50
f 85//49 77//47 84//49
f 84//50 77//48 85//50
f 77//47 85//49 64//47
f 64//48 85//50 77//48
f 78//22 99//14 86//22
f 86//21 99//11 78//21
f 86//5 100//5 65//5
f 65//6 100//6 86//6
f 101//6 78//6 87//6
f 87//5 78//5 101//5
f 65//5 100//5 88//5
f 88//6 100//6 65//6
f 88//44 89//33 66//33
f 66//36 89//36 88//43
f 87//26 88//44 71//44
f 71//43 88//43 87//25
f 72//6 92//6 91//6
f 91//5 92//5 72//5
f 101//18 70//26 91//18
f 91//17 70//25 101//17
f 70//26 101//18 87//26
f 87//25 101//17 70//25
f 79//6 102//6 92//6
f 92//5 102//5 79//5
f 95//5 61//5 93//5
f 93//6 61//6 95//6
f 80//35 103//38 93//38
f 93//37 103//37 80//34
f 93//38 83//35 80//35
f 80//34 83//34 93//37
f 80//35 90//36 104//35
f 104//34 90//33 80//34
f 94//6 102//6 79//6
f 79//5 102//5 94//5
f 81//5 95//5 105//5
f 105//6 95//6 81//6
f 96//32 81//31 106//32
f 106//29 81//30 96//29
f 96//6 107//6 75//6
f 75//5 107//5 96//5
f 75//6 107//6 97//6
f 97//5 107//5 75//5
f 82//24 105//16 97//16
f 97//15 105//15 82//23
f 97//16 108//24 82//24
f 82//23 108//23 97//15
f 98//38 95//24 82//24
f 82//23 95//23 98//37
f 82//24 109//38 98//38
f 98//37 109//37 82//23
f 83//35 93//38 98//38
f 98//37 93//37 83//34
f 98//38 94//35 83//35
f 83//34 94//34 98//37
f 99//14 78//22 110//14
f 110//11 78//21 99//11
f 99//5 111//5 86//5
f 86//6 111//6 99//6
f 86//5 112//5 100//5
f 100//6 112//6 86//6
f 113//6 78//6 101//6
f 101//5 78//5 113//5
f 112//18 87//26 101//18
f 101//17 87//25 112//17
f 100//26 114//44 88//44
f 88//43 114//43 100//25
f 88//44 87//26 100//26
f 100//25 87//25 88//43
f 89//33 88//44 114//44
f 114//43 88//43 89//36
f 113//10 91//18 92//10
f 92//9 91//17 113//9
f 91//18 113//10 101//18
f 101//17 113//9 91//17
f 115//4 92//10 102//4
f 102//2 92//9 115//2
f 93//38 116//24 95//24
f 95//23 116//23 93//37
f 95//24 98//38 93//38
f 93//37 98//37 95//23
f 103//38 80//35 104//35
f 104//34 80//34 103//37
f 116//24 93//38 103//38
f 103//37 93//37 116//23
f 94//6 117//6 102//6
f 102//5 117//5 94//5
f 95//24 118//16 105//16
f 105//15 118//15 95//23
f 105//16 82//24 95//24
f 95//23 82//23 105//15
f 119//5 81//5 105//5
f 105//6 81//6 119//6
f 119//5 106//5 81//5
f 81//6 106//6 119//6
f 120//42 96//32 106//32
f 106//29 96//29 120//41
f 96//6 121//6 107//6
f 107//5 121//5 96//5
f 97//6 107//6 122//6
f 122//5 107//5 97//5
f 123//8 97//16 105//16
f 105//15 97//15 123//7
f 108//24 97//16 124//16
f 124//15 97//15 108//23
f 109//38 82//24 108//24
f 108//23 82//23 109//37
f 94//35 98//38 109//38
f 109//37 98//37 94//34
f 113//6 110//6 78//6
f 78//5 110//5 113//5
f 110//14 119//13 99//14
f 99//11 119//12 110//11
f 99//5 125//5 111//5
f 111//6 125//6 99//6
f 86//5 111//5 112//5
f 112//6 111//6 86//6
f 126//18 100//26 112//18
f 112//17 100//25 126//17
f 87//26 112//18 100//26
f 100//25 112//17 87//25
f 111//10 101//18 113//10
f 113//9 101//17 111//9
f 101//18 111//10 112//18
f 112//17 111//9 101//17
f 114//44 100//26 127//26
f 127//25 100//25 114//43
f 92//10 115//4 113//10
f 113//9 115//2 92//9
f 117//3 115//4 102//4
f 102//2 115//2 117//1
f 118//16 95//24 116//24
f 116//23 95//23 118//15
f 109//6 117//6 94//6
f 94//5 117//5 109//5
f 128//8 105//16 118//16
f 118//15 105//15 128//7
f 119//5 105//5 123//5
f 123//6 105//6 119//6
f 129//5 106//5 119//5
f 119//6 106//6 129//6
f 96//32 120//42 130//42
f 130//41 120//41 96//29
f 129//5 120//5 106//5
f 106//6 120//6 129//6
f 130//6 121//6 96//6
f 96//5 121//5 130//5
f 129//20 107//13 121//20
f 121//19 107//12 129//19
f 122//6 107//6 110//6
f 110//5 107//5 122//5
f 97//16 123//8 122//8
f 122//7 123//7 97//15
f 122//8 124//16 97//16
f 97//15 124//15 122//7
f 105//16 128//8 123//8
f 123//7 128//7 105//15
f 131//6 108//6 124//6
f 124//5 108//5 131//5
f 108//6 131//6 109//6
f 109//5 131//5 108//5
f 115//6 110//6 113//6
f 113//5 110//5 115//5
f 119//13 110//14 107//13
f 107//12 110//11 119//12
f 119//5 123//5 99//5
f 99//6 123//6 119//6
f 99//5 132//5 125//5
f 125//6 132//6 99//6
f 133//4 111//10 125//4
f 125//2 111//9 133//2
f 113//10 125//4 111//10
f 111//9 125//2 113//9
f 134//10 112//18 111//10
f 111//9 112//17 134//9
f 100//26 126//18 127//26
f 127//25 126//17 100//25
f 112//18 134//10 126//18
f 126//17 134//9 112//17
f 125//4 113//10 115//4
f 115//2 113//9 125//2
f 115//4 117//3 135//3
f 135//1 117//1 115//2
f 109//6 131//6 117//6
f 117//5 131//5 109//5
f 107//13 129//20 119//13
f 119//12 129//19 107//12
f 136//48 130//42 120//42
f 120//41 130//41 136//47
f 137//5 120//5 129//5
f 129//6 120//6 137//6
f 130//6 138//6 121//6
f 121//5 138//5 130//5
f 138//28 129//20 121//20
f 121//19 129//19 138//27
f 122//6 110//6 135//6
f 135//5 110//5 122//5
f 132//3 122//8 123//8
f 123//7 122//7 132//1
f 124//16 122//8 131//8
f 131//7 122//7 124//15
f 139//3 123//8 128//8
f 128//7 123//7 139//1
f 135//6 110//6 115//6
f 115//5 110//5 135//5
f 99//5 123//5 132//5
f 132//6 123//6 99//6
f 132//3 133//4 125//4
f 125//2 133//2 132//1
f 125//4 135//3 132//3
f 132//1 135//1 125//2
f 111//10 133//4 134//10
f 134//9 133//2 111//9
f 135//3 125//4 115//4
f 115//2 125//2 135//1
f 131//8 135//3 117//3
f 117//1 135//1 131//7
f 130//42 136//48 140//48
f 140//47 136//47 130//41
f 141//5 136//5 120//5
f 120//6 136//6 141//6
f 141//5 120//5 137//5
f 137//6 120//6 141//6
f 129//20 138//28 137//28
f 137//27 138//27 129//19
f 140//6 138//6 130//6
f 130//5 138//5 140//5
f 122//8 132//3 135//3
f 135//1 132//1 122//7
f 135//3 131//8 122//8
f 122//7 131//7 135//1
f 123//8 139//3 132//3
f 132//1 139//1 123//7
f 133//4 132//3 139//3
f 139//1 132//1 133//2
f 142//50 140//48 136//48
f 136//47 140//47 142//49
f 136//5 141//5 142//5
f 142//6 141//6 136//6
f 137//28 143//46 141//46
f 141//45 143//45 137//27
f 143//46 137//28 138//28
f 138//27 137//27 143//45
f 140//6 143//6 138//6
f 138//5 143//5 140//5
f 140//48 142//50 144//50
f 144//49 142//49 140//47
f 141//46 144//50 142//50
f 142//49 144//49 141//45
f 144//50 141//46 143//46
f 143//45 141//45 144//49
f 143//6 140//6 144//6
f 144//5 140//5 143//5
