# SSTK version 0.8.0
# 3
mtllib original-3.mtl
o mesh3/mesh3-geometry#mesh3-geometry
v -0.354673 -0.750160 0.047807
v -0.354673 -0.750160 -0.145549
v -0.367400 -0.750160 -0.048871
v -0.317356 -0.750160 0.137897
v -0.367400 -0.816261 -0.048871
v -0.354673 -0.816261 0.047807
v -0.317356 -0.816261 0.137897
v -0.317356 -0.750160 -0.235639
v -0.354673 -0.816261 -0.145549
v -0.257995 -0.816261 0.215258
v -0.257995 -0.750160 0.215258
v -0.317356 -0.816261 -0.235639
v -0.257995 -0.750160 -0.313000
v -0.180633 -0.750160 0.274620
v -0.257995 -0.816261 -0.313000
v -0.180633 -0.816261 0.274620
v -0.180633 -0.750160 -0.372362
v -0.090543 -0.750160 0.311936
v -0.180633 -0.816261 -0.372362
v -0.090543 -0.816261 0.311936
v -0.090543 -0.750160 -0.409678
v -0.090543 -0.816261 -0.409678
v 0.006135 -0.750160 0.324664
v 0.006135 -0.816261 0.324664
v 0.006135 -0.750160 -0.422406
v 0.006135 -0.816261 -0.422406
v 0.102813 -0.750160 0.311936
v 0.102813 -0.816261 0.311936
v 0.102813 -0.750160 -0.409678
v 0.102813 -0.816261 -0.409678
v 0.192903 -0.750160 0.274620
v 0.192903 -0.816261 0.274620
v 0.192903 -0.750160 -0.372362
v 0.192903 -0.816261 -0.372362
v 0.270264 -0.750160 0.215258
v 0.270264 -0.816261 0.215258
v 0.270264 -0.750160 -0.313000
v 0.270264 -0.816261 -0.313000
v 0.329626 -0.816261 0.137897
v 0.329626 -0.750160 0.137897
v 0.329626 -0.750160 -0.235639
v 0.366942 -0.816261 0.047807
v 0.329626 -0.816261 -0.235639
v 0.366942 -0.750160 0.047807
v 0.366942 -0.750160 -0.145549
v 0.379670 -0.816261 -0.048871
v 0.366942 -0.816261 -0.145549
v 0.379670 -0.750160 -0.048871
vn 0 1 0
vn 0 -1 0
vn -0.965925849201117 0 -0.2588189595935754
vn -1 0 0
vn 1 0 0
vn 0.965925849201117 0 0.2588189595935754
vn -0.965925849201117 0 0.2588189595935754
vn 0.965925849201117 0 -0.2588189595935754
vn -0.8660253028382762 0 0.5000001748438417
vn 0.8660253028382762 0 -0.5000001748438417
vn -0.7071067811865476 0 0.7071067811865476
vn 0.7071067811865476 0 -0.7071067811865476
vn -0.8660253028382762 0 -0.5000001748438417
vn 0.8660253028382762 0 0.5000001748438417
vn -0.5000001748438417 0 0.8660253028382762
vn 0.5000001748438417 0 -0.8660253028382762
vn -0.7071067811865476 0 -0.7071067811865476
vn 0.7071067811865476 0 0.7071067811865476
vn -0.2588189595935754 0 0.965925849201117
vn 0.2588189595935754 0 -0.965925849201117
vn -0.5000001748438417 0 -0.8660253028382762
vn 0.5000001748438417 0 0.8660253028382762
vn -0.2588189595935754 0 -0.965925849201117
vn 0.2588189595935754 0 0.965925849201117
vn 0 0 1
vn 0 0 -1
usemtl material_0_0
f 1//1 2//1 3//1
f 2//1 1//1 4//1
f 3//2 2//2 1//2
f 4//2 1//2 2//2
f 2//3 5//4 3//4
f 3//5 5//5 2//6
f 3//4 6//7 1//7
f 1//8 6//8 3//5
f 1//7 7//9 4//9
f 4//10 7//10 1//8
f 2//1 4//1 8//1
f 8//2 4//2 2//2
f 5//4 2//3 9//3
f 9//6 2//6 5//5
f 6//7 3//4 5//4
f 5//5 3//5 6//8
f 7//9 1//7 6//7
f 6//8 1//8 7//10
f 10//11 4//9 7//9
f 7//10 4//10 10//12
f 8//1 4//1 11//1
f 11//2 4//2 8//2
f 8//13 9//3 2//3
f 2//6 9//6 8//14
f 9//2 6//2 5//2
f 5//1 6//1 9//1
f 6//2 9//2 7//2
f 7//1 9//1 6//1
f 4//9 10//11 11//11
f 11//12 10//12 4//10
f 7//2 12//2 10//2
f 10//1 12//1 7//1
f 8//1 11//1 13//1
f 13//2 11//2 8//2
f 9//3 8//13 12//13
f 12//14 8//14 9//6
f 7//2 9//2 12//2
f 12//1 9//1 7//1
f 10//11 14//15 11//11
f 11//12 14//16 10//12
f 10//2 12//2 15//2
f 15//1 12//1 10//1
f 13//1 11//1 14//1
f 14//2 11//2 13//2
f 13//17 12//13 8//13
f 8//14 12//14 13//18
f 14//15 10//11 16//15
f 16//16 10//12 14//16
f 12//13 13//17 15//17
f 15//18 13//18 12//14
f 10//2 15//2 16//2
f 16//1 15//1 10//1
f 13//1 14//1 17//1
f 17//2 14//2 13//2
f 16//15 18//19 14//15
f 14//16 18//20 16//16
f 13//17 19//21 15//17
f 15//18 19//22 13//18
f 16//2 15//2 19//2
f 19//1 15//1 16//1
f 17//1 14//1 18//1
f 18//2 14//2 17//2
f 19//21 13//17 17//21
f 17//22 13//18 19//22
f 18//19 16//15 20//19
f 20//20 16//16 18//20
f 16//2 19//2 20//2
f 20//1 19//1 16//1
f 17//1 18//1 21//1
f 21//2 18//2 17//2
f 17//21 22//23 19//21
f 19//22 22//24 17//22
f 20//19 23//25 18//19
f 18//20 23//26 20//20
f 20//2 19//2 22//2
f 22//1 19//1 20//1
f 21//1 18//1 23//1
f 23//2 18//2 21//2
f 22//23 17//21 21//23
f 21//24 17//22 22//24
f 23//25 20//19 24//25
f 24//26 20//20 23//26
f 20//2 22//2 24//2
f 24//1 22//1 20//1
f 21//1 23//1 25//1
f 25//2 23//2 21//2
f 21//23 26//26 22//23
f 22//24 26//25 21//24
f 24//25 27//24 23//25
f 23//26 27//23 24//26
f 24//2 22//2 26//2
f 26//1 22//1 24//1
f 25//1 23//1 27//1
f 27//2 23//2 25//2
f 26//26 21//23 25//26
f 25//25 21//24 26//25
f 27//24 24//25 28//24
f 28//23 24//26 27//23
f 24//2 26//2 28//2
f 28//1 26//1 24//1
f 25//1 27//1 29//1
f 29//2 27//2 25//2
f 25//26 30//20 26//26
f 26//25 30//19 25//25
f 28//24 31//22 27//24
f 27//23 31//21 28//23
f 28//2 26//2 30//2
f 30//1 26//1 28//1
f 29//1 27//1 31//1
f 31//2 27//2 29//2
f 30//20 25//26 29//20
f 29//19 25//25 30//19
f 31//22 28//24 32//22
f 32//21 28//23 31//21
f 28//2 30//2 32//2
f 32//1 30//1 28//1
f 29//1 31//1 33//1
f 33//2 31//2 29//2
f 29//20 34//16 30//20
f 30//19 34//15 29//19
f 32//22 35//18 31//22
f 31//21 35//17 32//21
f 32//2 30//2 34//2
f 34//1 30//1 32//1
f 33//1 31//1 35//1
f 35//2 31//2 33//2
f 34//16 29//20 33//16
f 33//15 29//19 34//15
f 35//18 32//22 36//18
f 36//17 32//21 35//17
f 32//2 34//2 36//2
f 36//1 34//1 32//1
f 33//1 35//1 37//1
f 37//2 35//2 33//2
f 33//16 38//12 34//16
f 34//15 38//11 33//15
f 39//14 35//18 36//18
f 36//17 35//17 39//13
f 36//2 34//2 38//2
f 38//1 34//1 36//1
f 37//1 35//1 40//1
f 40//2 35//2 37//2
f 38//12 33//16 37//12
f 37//11 33//15 38//11
f 35//18 39//14 40//14
f 40//13 39//13 35//17
f 36//2 38//2 39//2
f 39//1 38//1 36//1
f 37//1 40//1 41//1
f 41//2 40//2 37//2
f 41//10 38//12 37//12
f 37//11 38//11 41//9
f 42//6 40//14 39//14
f 39//13 40//13 42//3
f 39//2 38//2 43//2
f 43//1 38//1 39//1
f 41//1 40//1 44//1
f 44//2 40//2 41//2
f 38//12 41//10 43//10
f 43//9 41//9 38//11
f 40//14 42//6 44//6
f 44//3 42//3 40//13
f 39//2 43//2 42//2
f 42//1 43//1 39//1
f 41//1 44//1 45//1
f 45//2 44//2 41//2
f 45//8 43//10 41//10
f 41//9 43//9 45//7
f 46//5 44//6 42//6
f 42//3 44//3 46//4
f 42//2 43//2 47//2
f 47//1 43//1 42//1
f 45//1 44//1 48//1
f 48//2 44//2 45//2
f 43//10 45//8 47//8
f 47//7 45//7 43//9
f 44//6 46//5 48//5
f 48//4 46//4 44//3
f 42//2 47//2 46//2
f 46//1 47//1 42//1
f 48//5 47//8 45//8
f 45//7 47//7 48//4
f 47//8 48//5 46//5
f 46//4 48//4 47//7
