# SSTK version 0.8.0
# 11
mtllib original-11.mtl
o #ID144
v -0.189729 0.769954 -0.180588
v -0.140769 0.720994 -0.170796
v -0.140769 0.720994 -0.180588
v -0.189729 0.769954 -0.170796
v -0.189729 0.769954 -0.170796
v -0.189729 0.769954 -0.180588
v -0.140769 0.720994 -0.170796
v -0.140769 0.720994 -0.180588
vn 0.7071067811865476 0.7071067811865476 0
vn -0.7071067811865476 -0.7071067811865476 0
usemtl material_0_0
f 1//1 2//1 3//1
f 2//1 1//1 4//1
usemtl material_1_0
f 5//2 6//2 7//2
f 8//2 7//2 6//2
