# SSTK version 0.8.0
# 9
mtllib original-9.mtl
o #ID128
v 0.495707 -0.147525 -0.186516
v 0.495707 -0.174453 -0.195943
v 0.495707 -0.174453 -0.186516
v 0.495707 -0.147525 -0.195943
v 0.495707 -0.147525 -0.195943
v 0.495707 -0.147525 -0.186516
v 0.495707 -0.174453 -0.195943
v 0.495707 -0.174453 -0.186516
v 0.495707 -0.174453 -0.195943
v 0.485915 -0.147525 -0.195943
v 0.485915 -0.174453 -0.195943
v 0.495707 -0.147525 -0.195943
v 0.495707 -0.147525 -0.195943
v 0.495707 -0.174453 -0.195943
v 0.485915 -0.147525 -0.195943
v 0.485915 -0.174453 -0.195943
v 0.485915 -0.174453 -0.186516
v 0.495707 -0.174453 -0.195943
v 0.485915 -0.174453 -0.195943
v 0.495707 -0.174453 -0.186516
v 0.495707 -0.174453 -0.186516
v 0.485915 -0.174453 -0.186516
v 0.495707 -0.174453 -0.195943
v 0.485915 -0.174453 -0.195943
v 0.495707 -0.147525 -0.186516
v 0.485915 -0.174453 -0.186516
v 0.485915 -0.147525 -0.186516
v 0.495707 -0.174453 -0.186516
v 0.495707 -0.174453 -0.186516
v 0.495707 -0.147525 -0.186516
v 0.485915 -0.174453 -0.186516
v 0.485915 -0.147525 -0.186516
v 0.495707 -0.147525 -0.186516
v 0.485915 -0.147525 -0.195943
v 0.495707 -0.147525 -0.195943
v 0.485915 -0.147525 -0.186516
v 0.485915 -0.147525 -0.186516
v 0.495707 -0.147525 -0.186516
v 0.485915 -0.147525 -0.195943
v 0.495707 -0.147525 -0.195943
vt 13.45333 8.912828
vt 13.33299 8.569078
vt 13.45333 8.569078
vt 13.33299 8.912828
vt 12.30476 8.569078
vt 12.17976 8.912828
vt 12.17976 8.569078
vt 12.30476 8.912828
vt 13.45333 12.17976
vt 13.33299 12.30476
vt 13.33299 12.17976
vt 13.45333 12.30476
vt -12.30476 8.912828
vt -12.17976 8.569078
vt -12.17976 8.912828
vt -12.30476 8.569078
vt -13.45333 12.30476
vt -13.33299 12.17976
vt -13.33299 12.30476
vt -13.45333 12.17976
vt 0.7407218 0.4951571
vt 0.747407 0.4951571
vt 0.7407218 0.4760599
vt 0.747407 0.4760599
vt 0.6835978 0.4951571
vt 0.6835978 0.4760599
vt 0.6766533 0.4951571
vt 0.6766533 0.4760599
vt 0.747407 0.6835978
vt 0.747407 0.6766533
vt 0.7407218 0.6835978
vt 0.7407218 0.6766533
vt -0.6835978 0.4760599
vt -0.6835978 0.4951571
vt -0.6766533 0.4760599
vt -0.6766533 0.4951571
vt -0.747407 0.6766533
vt -0.747407 0.6835978
vt -0.7407218 0.6766533
vt -0.7407218 0.6835978
vn -1 0 0
vn 0 0 1
vn 0 1 0
vn 0 0 -1
vn 0 -1 0
vn 1 0 0
usemtl material_0_0
f 5/21/6 6/22/6 7/23/6
f 8/24/6 7/23/6 6/22/6
f 13/25/4 14/26/4 15/27/4
f 16/28/4 15/27/4 14/26/4
f 21/29/5 22/30/5 23/31/5
f 24/32/5 23/31/5 22/30/5
f 29/33/2 30/34/2 31/35/2
f 32/36/2 31/35/2 30/34/2
f 37/37/3 38/38/3 39/39/3
f 40/40/3 39/39/3 38/38/3
usemtl material_1_0
f 1/1/1 2/2/1 3/3/1
f 2/2/1 1/1/1 4/4/1
f 9/5/2 10/6/2 11/7/2
f 10/6/2 9/5/2 12/8/2
f 17/9/3 18/10/3 19/11/3
f 18/10/3 17/9/3 20/12/3
f 25/13/4 26/14/4 27/15/4
f 26/14/4 25/13/4 28/16/4
f 33/17/5 34/18/5 35/19/5
f 34/18/5 33/17/5 36/20/5
