# SSTK version 0.8.0
# 2
mtllib original-2.mtl
o #ID55
v -0.140769 -0.845715 -0.170796
v -0.189729 -0.845715 -0.180588
v -0.140769 -0.845715 -0.180588
v -0.189729 -0.845715 -0.170796
v -0.140769 0.720994 -0.180588
v -0.140769 -0.845715 -0.170796
v -0.140769 -0.845715 -0.180588
v -0.140769 0.720994 -0.170796
v -0.140769 -0.845715 -0.170796
v -0.140769 0.720994 -0.170796
v -0.189729 -0.845715 -0.170796
v -0.189729 0.769954 -0.170796
v -0.189729 0.769954 -0.170796
v -0.189729 -0.845715 -0.180588
v -0.189729 -0.845715 -0.170796
v -0.189729 0.769954 -0.180588
v -0.140769 0.720994 -0.180588
v -0.189729 -0.845715 -0.180588
v -0.189729 0.769954 -0.180588
v -0.140769 -0.845715 -0.180588
v 0.485915 0.720994 -0.170796
v -0.140769 0.720994 -0.180588
v 0.485915 0.720994 -0.180588
v -0.140769 0.720994 -0.170796
v 0.485915 0.720994 -0.170796
v 0.534874 0.769954 -0.170796
v -0.189729 0.769954 -0.170796
v 0.534874 0.769954 -0.180588
v -0.189729 0.769954 -0.180588
v 0.534874 0.769954 -0.170796
v 0.534874 0.769954 -0.180588
v 0.485915 0.720994 -0.180588
v 0.485915 0.720994 -0.170796
v 0.485915 -0.140696 -0.180588
v 0.485915 -0.140696 -0.170796
v 0.485915 0.720994 -0.180588
v 0.534874 -0.845715 -0.170796
v 0.485915 -0.845715 -0.170796
v 0.485915 -0.179864 -0.170796
v 0.485915 -0.140696 -0.170796
v 0.534874 0.769954 -0.180588
v 0.534874 -0.845715 -0.170796
v 0.534874 -0.845715 -0.180588
v 0.534874 0.769954 -0.170796
v 0.485915 -0.140696 -0.180588
v 0.510395 -0.140696 -0.180588
v 0.510395 -0.179864 -0.180588
v 0.485915 -0.845715 -0.180588
v 0.485915 -0.179864 -0.180588
v 0.534874 -0.845715 -0.180588
v 0.534874 -0.845715 -0.170796
v 0.485915 -0.845715 -0.180588
v 0.534874 -0.845715 -0.180588
v 0.485915 -0.845715 -0.170796
v 0.485915 -0.179864 -0.170796
v 0.485915 -0.845715 -0.180588
v 0.485915 -0.845715 -0.170796
v 0.485915 -0.179864 -0.180588
vt -0.758556 0.2322089
vt -0.7516115 0.1974866
vt -0.7516115 0.2322089
vt -0.758556 0.1974866
vt -0.7516115 1.111111
vt -0.758556 0
vt -0.7516115 0
vt -0.758556 1.111111
vt -0.2322089 0
vt -0.2322089 1.111111
vt -0.1974866 0
vt -0.1974866 1.145833
vt 0.758556 1.145833
vt 0.7516115 0
vt 0.758556 0
vt 0.7516115 1.145833
vt -0.758556 0.6766533
vt -0.7516115 0.6766533
vt -0.6766533 1.111111
vt -0.7113755 1.145833
vt 0.758556 0.1974866
vt 0.7516115 0.7113755
vt 0.7516115 0.1974866
vt 0.758556 0.7113755
vt 0.758556 1.111111
vt 0.7516115 0.5
vt 0.758556 0.5
vt 0.7516115 1.111111
vt -0.7113755 0
vt -0.6766533 0
vt -0.6766533 0.4722222
vt -0.6766533 0.5
vt -0.7516115 1.145833
vt -0.758556 1.145833
vt -0.6940144 0.5
vt -0.6940144 0.4722222
vt -0.758556 0.7113755
vt -0.7516115 0.7113755
vt 0.758556 0.4722222
vt 0.7516115 0.4722222
vn 0 -1 0
vn 0 1 0
vn 1 0 0
vn -1 0 0
vn 0 0 1
vn 0 0 -1
usemtl material_0_2
f 1/1/1 2/2/1 3/3/1
f 3/3/2 2/2/2 1/1/2
f 2/2/1 1/1/1 4/4/1
f 4/4/2 1/1/2 2/2/2
f 5/5/3 6/6/3 7/7/3
f 7/7/4 6/6/4 5/5/4
f 6/6/3 5/5/3 8/8/3
f 8/8/4 5/5/4 6/6/4
f 9/9/5 10/10/5 11/11/5
f 11/11/6 10/10/6 9/9/6
f 12/12/5 11/11/5 10/10/5
f 10/10/6 11/11/6 12/12/6
f 13/13/4 14/14/4 15/15/4
f 15/15/3 14/14/3 13/13/3
f 14/14/4 13/13/4 16/16/4
f 16/16/3 13/13/3 14/14/3
f 17/10/6 18/11/6 19/12/6
f 19/12/5 18/11/5 17/10/5
f 18/11/6 17/10/6 20/9/6
f 20/9/5 17/10/5 18/11/5
f 21/17/1 22/3/1 23/18/1
f 23/18/2 22/3/2 21/17/2
f 22/3/1 21/17/1 24/1/1
f 24/1/2 21/17/2 22/3/2
f 25/19/5 26/20/5 10/10/5
f 10/10/6 26/20/6 25/19/6
f 12/12/5 10/10/5 26/20/5
f 26/20/6 10/10/6 12/12/6
f 27/21/2 28/22/2 29/23/2
f 29/23/1 28/22/1 27/21/1
f 28/22/2 27/21/2 30/24/2
f 30/24/1 27/21/1 28/22/1
f 31/20/6 17/10/6 19/12/6
f 19/12/5 17/10/5 31/20/5
f 17/10/6 31/20/6 32/19/6
f 32/19/5 31/20/5 17/10/5
f 33/25/4 34/26/4 35/27/4
f 35/27/3 34/26/3 33/25/3
f 34/26/4 33/25/4 36/28/4
f 36/28/3 33/25/3 34/26/3
f 37/29/5 26/20/5 38/30/5
f 38/30/6 26/20/6 37/29/6
f 38/30/5 26/20/5 39/31/5
f 39/31/6 26/20/6 38/30/6
f 39/31/5 26/20/5 40/32/5
f 40/32/6 26/20/6 39/31/6
f 25/19/5 40/32/5 26/20/5
f 26/20/6 40/32/6 25/19/6
f 41/33/3 42/6/3 43/7/3
f 43/7/4 42/6/4 41/33/4
f 42/6/3 41/33/3 44/34/3
f 44/34/4 41/33/4 42/6/4
f 31/20/6 45/32/6 32/19/6
f 32/19/5 45/32/5 31/20/5
f 45/32/6 31/20/6 46/35/6
f 46/35/5 31/20/5 45/32/5
f 46/35/6 31/20/6 47/36/6
f 47/36/5 31/20/5 46/35/5
f 47/36/6 48/30/6 49/31/6
f 49/31/5 48/30/5 47/36/5
f 48/30/6 47/36/6 50/29/6
f 50/29/5 47/36/5 48/30/5
f 50/29/6 47/36/6 31/20/6
f 31/20/5 47/36/5 50/29/5
f 51/37/1 52/18/1 53/38/1
f 53/38/2 52/18/2 51/37/2
f 52/18/1 51/37/1 54/17/1
f 54/17/2 51/37/2 52/18/2
f 55/39/4 56/14/4 57/15/4
f 57/15/3 56/14/3 55/39/3
f 56/14/4 55/39/4 58/40/4
f 58/40/3 55/39/3 56/14/3
