# SSTK version 0.8.0
# 16
mtllib original-16.mtl
o #ID25
v -0.154233 -0.164342 0.390800
v -0.154233 -0.164342 0.403472
v -0.154233 -0.165176 0.397136
v -0.154233 -0.161896 0.384896
v -0.154233 -0.161896 0.409376
v -0.154233 -0.158006 0.379826
v -0.154233 -0.158006 0.414446
v -0.154233 -0.152936 0.375936
v -0.154233 -0.155384 0.397136
v -0.154233 -0.154884 0.393335
v -0.154233 -0.153416 0.389792
v -0.154233 -0.151082 0.386750
v -0.154233 -0.147032 0.373491
v -0.154233 -0.148040 0.384416
v -0.154233 -0.144498 0.382949
v -0.154233 -0.140696 0.372656
v -0.154233 -0.140696 0.382448
v -0.154233 -0.134360 0.373491
v -0.154233 -0.136895 0.382949
v -0.154233 -0.133352 0.384416
v -0.154233 -0.128456 0.375936
v -0.154233 -0.130310 0.386750
v -0.154233 -0.127976 0.389792
v -0.154233 -0.123386 0.379826
v -0.154233 -0.126509 0.393335
v -0.154233 -0.126008 0.397136
v -0.154233 -0.152936 0.418336
v -0.154233 -0.154884 0.400938
v -0.154233 -0.153416 0.404480
v -0.154233 -0.151082 0.407522
v -0.154233 -0.147032 0.420782
v -0.154233 -0.148040 0.409856
v -0.154233 -0.144498 0.411324
v -0.154233 -0.140696 0.421616
v -0.154233 -0.140696 0.411824
v -0.154233 -0.136895 0.411324
v -0.154233 -0.134360 0.420782
v -0.154233 -0.133352 0.409856
v -0.154233 -0.128456 0.418336
v -0.154233 -0.130310 0.407522
v -0.154233 -0.127976 0.404480
v -0.154233 -0.123386 0.414446
v -0.154233 -0.126509 0.400938
v -0.154233 -0.119496 0.384896
v -0.154233 -0.119496 0.409376
v -0.154233 -0.117050 0.390800
v -0.154233 -0.117050 0.403472
v -0.154233 -0.116216 0.397136
v -0.178713 -0.119496 0.409376
v -0.154233 -0.117050 0.403472
v -0.178713 -0.117050 0.403472
v -0.154233 -0.119496 0.409376
v -0.178713 -0.123386 0.414446
v -0.154233 -0.123386 0.414446
v -0.154233 -0.128456 0.418336
v -0.178713 -0.128456 0.418336
v -0.154233 -0.134360 0.420782
v -0.178713 -0.134360 0.420782
v -0.154233 -0.140696 0.421616
v -0.178713 -0.140696 0.421616
v -0.154233 -0.147032 0.420782
v -0.178713 -0.147032 0.420782
v -0.154233 -0.152936 0.418336
v -0.178713 -0.152936 0.418336
v -0.154233 -0.158006 0.414446
v -0.178713 -0.158006 0.414446
v -0.178713 -0.161896 0.409376
v -0.154233 -0.161896 0.409376
v -0.178713 -0.164342 0.403472
v -0.154233 -0.164342 0.403472
v -0.178713 -0.165176 0.397136
v -0.154233 -0.165176 0.397136
v -0.178713 -0.164342 0.390800
v -0.154233 -0.164342 0.390800
v -0.178713 -0.161896 0.384896
v -0.154233 -0.161896 0.384896
v -0.178713 -0.158006 0.379826
v -0.154233 -0.158006 0.379826
v -0.154233 -0.152936 0.375936
v -0.178713 -0.152936 0.375936
v -0.154233 -0.147032 0.373491
v -0.178713 -0.147032 0.373491
v -0.154233 -0.140696 0.372656
v -0.178713 -0.140696 0.372656
v -0.154233 -0.134360 0.373491
v -0.178713 -0.134360 0.373491
v -0.154233 -0.128456 0.375936
v -0.178713 -0.128456 0.375936
v -0.154233 -0.123386 0.379826
v -0.178713 -0.123386 0.379826
v -0.178713 -0.119496 0.384896
v -0.154233 -0.119496 0.384896
v -0.178713 -0.117050 0.390800
v -0.154233 -0.117050 0.390800
v -0.178713 -0.116216 0.397136
v -0.154233 -0.116216 0.397136
v -0.178713 -0.164342 0.403472
v -0.178713 -0.164342 0.390800
v -0.178713 -0.165176 0.397136
v -0.178713 -0.161896 0.409376
v -0.178713 -0.161896 0.384896
v -0.178713 -0.158006 0.414446
v -0.178713 -0.158006 0.379826
v -0.178713 -0.152936 0.418336
v -0.178713 -0.155384 0.397136
v -0.178713 -0.154884 0.400938
v -0.178713 -0.153416 0.404480
v -0.178713 -0.151082 0.407522
v -0.178713 -0.147032 0.420782
v -0.178713 -0.148040 0.409856
v -0.178713 -0.144498 0.411324
v -0.178713 -0.140696 0.421616
v -0.178713 -0.140696 0.411824
v -0.178713 -0.134360 0.420782
v -0.178713 -0.136895 0.411324
v -0.178713 -0.133352 0.409856
v -0.178713 -0.128456 0.418336
v -0.178713 -0.130310 0.407522
v -0.178713 -0.127976 0.404480
v -0.178713 -0.123386 0.414446
v -0.178713 -0.126509 0.400938
v -0.178713 -0.126008 0.397136
v -0.178713 -0.152936 0.375936
v -0.178713 -0.154884 0.393335
v -0.178713 -0.153416 0.389792
v -0.178713 -0.151082 0.386750
v -0.178713 -0.147032 0.373491
v -0.178713 -0.148040 0.384416
v -0.178713 -0.144498 0.382949
v -0.178713 -0.140696 0.372656
v -0.178713 -0.140696 0.382448
v -0.178713 -0.136895 0.382949
v -0.178713 -0.134360 0.373491
v -0.178713 -0.133352 0.384416
v -0.178713 -0.128456 0.375936
v -0.178713 -0.130310 0.386750
v -0.178713 -0.127976 0.389792
v -0.178713 -0.123386 0.379826
v -0.178713 -0.126509 0.393335
v -0.178713 -0.119496 0.409376
v -0.178713 -0.119496 0.384896
v -0.178713 -0.117050 0.403472
v -0.178713 -0.117050 0.390800
v -0.178713 -0.116216 0.397136
vt -0.294119 0.07314818
vt -0.455881 0.07314818
vt -0.375 0.0625
vt -0.21875 0.1043671
vt -0.53125 0.1043671
vt -0.1540291 0.1540291
vt -0.5959709 0.1540291
vt -0.1043671 0.21875
vt -0.375 0.1875
vt -0.3264714 0.1938889
vt -0.28125 0.2126202
vt -0.2424175 0.2424175
vt -0.07314818 0.294119
vt -0.2126202 0.28125
vt -0.1938889 0.3264714
vt -0.0625 0.375
vt -0.1875 0.375
vt -0.07314818 0.455881
vt -0.1938889 0.4235286
vt -0.2126202 0.46875
vt -0.1043671 0.53125
vt -0.2424175 0.5075825
vt -0.28125 0.5373798
vt -0.1540291 0.5959709
vt -0.3264714 0.5561111
vt -0.375 0.5625
vt -0.6456329 0.21875
vt -0.4235286 0.1938889
vt -0.46875 0.2126202
vt -0.5075825 0.2424175
vt -0.6768518 0.294119
vt -0.5373798 0.28125
vt -0.5561111 0.3264714
vt -0.6875 0.375
vt -0.5625 0.375
vt -0.5561111 0.4235286
vt -0.6768518 0.455881
vt -0.5373798 0.46875
vt -0.6456329 0.53125
vt -0.5075825 0.5075825
vt -0.46875 0.5373798
vt -0.5959709 0.5959709
vt -0.4235286 0.5561111
vt -0.21875 0.6456329
vt -0.53125 0.6456329
vt -0.294119 0.6768518
vt -0.455881 0.6768518
vt -0.375 0.6875
vt 0 -0.243738
vt 0.3125 -0.1621591
vt 0 -0.1621591
vt 0.3125 -0.243738
vt 0 -0.1100114
vt 0.3125 -0.02843253
vt 0 -0.02843253
vt 0.3125 -0.1100114
vt 0.3125 0.02843253
vt 0 0.1100114
vt 0 0.02843253
vt 0.3125 0.1100114
vt 0.3125 0.1621591
vt 0 0.243738
vt 0 0.1621591
vt 0.3125 0.243738
vt 0.3125 0.2820551
vt 0 0.3636339
vt 0 0.2820551
vt 0.3125 0.3636339
vt 0.3125 0.3799497
vt 0 0.4615286
vt 0 0.3799497
vt 0.3125 0.4615286
vt 0.3125 0.4491717
vt 0 0.5307505
vt 0 0.4491717
vt 0.3125 0.5307505
vt 0.3125 0.4850036
vt 0 0.5665825
vt 0 0.4850036
vt 0.3125 0.5665825
vt -0.3125 -0.3636339
vt 0 -0.2820551
vt -0.3125 -0.2820551
vt 0 -0.3636339
vt -0.3125 -0.243738
vt -0.3125 -0.1621591
vt -0.3125 -0.1100114
vt -0.3125 -0.02843253
vt -0.3125 0.1100114
vt -0.3125 0.02843253
vt -0.3125 0.243738
vt -0.3125 0.1621591
vt -0.3125 0.3636339
vt -0.3125 0.2820551
vt -0.3125 0.4615286
vt -0.3125 0.3799497
vt -0.3125 0.5307505
vt -0.3125 0.4491717
vt -0.3125 0.5665825
vt -0.3125 0.4850036
vt 0.3125 -0.2820551
vt 0.3125 -0.3636339
vt 0.455881 0.07314818
vt 0.294119 0.07314818
vt 0.375 0.0625
vt 0.53125 0.1043671
vt 0.21875 0.1043671
vt 0.5959709 0.1540291
vt 0.1540291 0.1540291
vt 0.6456329 0.21875
vt 0.375 0.1875
vt 0.4235286 0.1938889
vt 0.46875 0.2126202
vt 0.5075825 0.2424175
vt 0.6768518 0.294119
vt 0.5373798 0.28125
vt 0.5561111 0.3264714
vt 0.6875 0.375
vt 0.5625 0.375
vt 0.6768518 0.455881
vt 0.5561111 0.4235286
vt 0.5373798 0.46875
vt 0.6456329 0.53125
vt 0.5075825 0.5075825
vt 0.46875 0.5373798
vt 0.5959709 0.5959709
vt 0.4235286 0.5561111
vt 0.375 0.5625
vt 0.1043671 0.21875
vt 0.3264714 0.1938889
vt 0.28125 0.2126202
vt 0.2424175 0.2424175
vt 0.07314818 0.294119
vt 0.2126202 0.28125
vt 0.1938889 0.3264714
vt 0.0625 0.375
vt 0.1875 0.375
vt 0.1938889 0.4235286
vt 0.07314818 0.455881
vt 0.2126202 0.46875
vt 0.1043671 0.53125
vt 0.2424175 0.5075825
vt 0.28125 0.5373798
vt 0.1540291 0.5959709
vt 0.3264714 0.5561111
vt 0.53125 0.6456329
vt 0.21875 0.6456329
vt 0.455881 0.6768518
vt 0.294119 0.6768518
vt 0.375 0.6875
vn 1 0 0
vn -1 0 0
vn 0 0.866025402838329 0.5000000016387101
vn 0 0.9659258358036645 0.25881900959356163
vn 0 -0.866025402838329 -0.5000000016387101
vn 0 -0.9659258358036645 -0.25881900959356163
vn 0 0.7071067811865476 0.7071067811865476
vn 0 -0.7071067811865476 -0.7071067811865476
vn 0 0.5000000016387101 0.866025402838329
vn 0 -0.5000000016387101 -0.866025402838329
vn 0 0.25881900959356163 0.9659258358036645
vn 0 -0.25881900959356163 -0.9659258358036645
vn 0 0 1
vn 0 0 -1
vn 0 -0.25881900959356163 0.9659258358036645
vn 0 0.25881900959356163 -0.9659258358036645
vn 0 -0.5000000016387101 0.866025402838329
vn 0 0.5000000016387101 -0.866025402838329
vn 0 -0.7071067811865476 0.7071067811865476
vn 0 0.7071067811865476 -0.7071067811865476
vn 0 -0.866025402838329 0.5000000016387101
vn 0 0.866025402838329 -0.5000000016387101
vn 0 -0.9659258358036645 0.25881900959356163
vn 0 0.9659258358036645 -0.25881900959356163
vn 0 -1 0
vn 0 1 0
usemtl material_0_2
f 1/1/1 2/2/1 3/3/1
f 3/3/2 2/2/2 1/1/2
f 2/2/1 1/1/1 4/4/1
f 4/4/2 1/1/2 2/2/2
f 2/2/1 4/4/1 5/5/1
f 5/5/2 4/4/2 2/2/2
f 5/5/1 4/4/1 6/6/1
f 6/6/2 4/4/2 5/5/2
f 5/5/1 6/6/1 7/7/1
f 7/7/2 6/6/2 5/5/2
f 7/7/1 6/6/1 8/8/1
f 8/8/2 6/6/2 7/7/2
f 7/7/1 8/8/1 9/9/1
f 9/9/2 8/8/2 7/7/2
f 9/9/1 8/8/1 10/10/1
f 10/10/2 8/8/2 9/9/2
f 10/10/1 8/8/1 11/11/1
f 11/11/2 8/8/2 10/10/2
f 11/11/1 8/8/1 12/12/1
f 12/12/2 8/8/2 11/11/2
f 12/12/1 8/8/1 13/13/1
f 13/13/2 8/8/2 12/12/2
f 12/12/1 13/13/1 14/14/1
f 14/14/2 13/13/2 12/12/2
f 14/14/1 13/13/1 15/15/1
f 15/15/2 13/13/2 14/14/2
f 15/15/1 13/13/1 16/16/1
f 16/16/2 13/13/2 15/15/2
f 15/15/1 16/16/1 17/17/1
f 17/17/2 16/16/2 15/15/2
f 17/17/1 16/16/1 18/18/1
f 18/18/2 16/16/2 17/17/2
f 17/17/1 18/18/1 19/19/1
f 19/19/2 18/18/2 17/17/2
f 19/19/1 18/18/1 20/20/1
f 20/20/2 18/18/2 19/19/2
f 20/20/1 18/18/1 21/21/1
f 21/21/2 18/18/2 20/20/2
f 20/20/1 21/21/1 22/22/1
f 22/22/2 21/21/2 20/20/2
f 22/22/1 21/21/1 23/23/1
f 23/23/2 21/21/2 22/22/2
f 23/23/1 21/21/1 24/24/1
f 24/24/2 21/21/2 23/23/2
f 23/23/1 24/24/1 25/25/1
f 25/25/2 24/24/2 23/23/2
f 25/25/1 24/24/1 26/26/1
f 26/26/2 24/24/2 25/25/2
f 9/9/1 27/27/1 7/7/1
f 7/7/2 27/27/2 9/9/2
f 27/27/1 9/9/1 28/28/1
f 28/28/2 9/9/2 27/27/2
f 27/27/1 28/28/1 29/29/1
f 29/29/2 28/28/2 27/27/2
f 27/27/1 29/29/1 30/30/1
f 30/30/2 29/29/2 27/27/2
f 27/27/1 30/30/1 31/31/1
f 31/31/2 30/30/2 27/27/2
f 31/31/1 30/30/1 32/32/1
f 32/32/2 30/30/2 31/31/2
f 31/31/1 32/32/1 33/33/1
f 33/33/2 32/32/2 31/31/2
f 31/31/1 33/33/1 34/34/1
f 34/34/2 33/33/2 31/31/2
f 34/34/1 33/33/1 35/35/1
f 35/35/2 33/33/2 34/34/2
f 34/34/1 35/35/1 36/36/1
f 36/36/2 35/35/2 34/34/2
f 34/34/1 36/36/1 37/37/1
f 37/37/2 36/36/2 34/34/2
f 37/37/1 36/36/1 38/38/1
f 38/38/2 36/36/2 37/37/2
f 37/37/1 38/38/1 39/39/1
f 39/39/2 38/38/2 37/37/2
f 39/39/1 38/38/1 40/40/1
f 40/40/2 38/38/2 39/39/2
f 39/39/1 40/40/1 41/41/1
f 41/41/2 40/40/2 39/39/2
f 39/39/1 41/41/1 42/42/1
f 42/42/2 41/41/2 39/39/2
f 42/42/1 41/41/1 43/43/1
f 43/43/2 41/41/2 42/42/2
f 42/42/1 43/43/1 26/26/1
f 26/26/2 43/43/2 42/42/2
f 42/42/1 26/26/1 24/24/1
f 24/24/2 26/26/2 42/42/2
f 42/42/1 24/24/1 44/44/1
f 44/44/2 24/24/2 42/42/2
f 42/42/1 44/44/1 45/45/1
f 45/45/2 44/44/2 42/42/2
f 45/45/1 44/44/1 46/46/1
f 46/46/2 44/44/2 45/45/2
f 45/45/1 46/46/1 47/47/1
f 47/47/2 46/46/2 45/45/2
f 47/47/1 46/46/1 48/48/1
f 48/48/2 46/46/2 47/47/2
f 49/49/3 50/50/4 51/51/4
f 51/51/6 50/50/6 49/49/5
f 50/50/4 49/49/3 52/52/3
f 52/52/5 49/49/5 50/50/6
f 53/53/7 52/54/3 49/55/3
f 49/55/5 52/54/5 53/53/8
f 52/54/3 53/53/7 54/56/7
f 54/56/8 53/53/8 52/54/5
f 55/57/9 53/58/7 56/59/9
f 56/59/10 53/58/8 55/57/10
f 53/58/7 55/57/9 54/60/7
f 54/60/8 55/57/10 53/58/8
f 57/61/11 56/62/9 58/63/11
f 58/63/12 56/62/10 57/61/12
f 56/62/9 57/61/11 55/64/9
f 55/64/10 57/61/12 56/62/10
f 59/65/13 58/66/11 60/67/13
f 60/67/14 58/66/12 59/65/14
f 58/66/11 59/65/13 57/68/11
f 57/68/12 59/65/14 58/66/12
f 61/69/15 60/70/13 62/71/15
f 62/71/16 60/70/14 61/69/16
f 60/70/13 61/69/15 59/72/13
f 59/72/14 61/69/16 60/70/14
f 63/73/17 62/74/15 64/75/17
f 64/75/18 62/74/16 63/73/18
f 62/74/15 63/73/17 61/76/15
f 61/76/16 63/73/18 62/74/16
f 65/77/19 64/78/17 66/79/19
f 66/79/20 64/78/18 65/77/20
f 64/78/17 65/77/19 63/80/17
f 63/80/18 65/77/20 64/78/18
f 65/80/19 67/79/21 68/77/21
f 68/77/22 67/79/22 65/80/20
f 67/79/21 65/80/19 66/78/19
f 66/78/20 65/80/20 67/79/22
f 68/76/21 69/75/23 70/73/23
f 70/73/24 69/75/24 68/76/22
f 69/75/23 68/76/21 67/74/21
f 67/74/22 68/76/22 69/75/24
f 70/72/23 71/71/25 72/69/25
f 72/69/26 71/71/26 70/72/24
f 71/71/25 70/72/23 69/70/23
f 69/70/24 70/72/24 71/71/26
f 72/81/25 73/82/6 74/83/6
f 74/83/4 73/82/4 72/81/26
f 73/82/6 72/81/25 71/84/25
f 71/84/26 72/81/26 73/82/4
f 74/85/6 75/51/5 76/86/5
f 76/86/3 75/51/3 74/85/4
f 75/51/5 74/85/6 73/49/6
f 73/49/4 74/85/4 75/51/3
f 76/87/5 77/55/8 78/88/8
f 78/88/7 77/55/7 76/87/3
f 77/55/8 76/87/5 75/53/5
f 75/53/3 76/87/3 77/55/7
f 79/89/10 77/59/8 80/58/10
f 80/58/9 77/59/7 79/89/9
f 77/59/8 79/89/10 78/90/8
f 78/90/7 79/89/9 77/59/7
f 81/91/12 80/63/10 82/62/12
f 82/62/11 80/63/9 81/91/11
f 80/63/10 81/91/12 79/92/10
f 79/92/9 81/91/11 80/63/9
f 83/93/14 82/67/12 84/66/14
f 84/66/13 82/67/11 83/93/13
f 82/67/12 83/93/14 81/94/12
f 81/94/11 83/93/13 82/67/11
f 85/95/16 84/71/14 86/70/16
f 86/70/15 84/71/13 85/95/15
f 84/71/14 85/95/16 83/96/14
f 83/96/13 85/95/15 84/71/13
f 87/97/18 86/75/16 88/74/18
f 88/74/17 86/75/15 87/97/17
f 86/75/16 87/97/18 85/98/16
f 85/98/15 87/97/17 86/75/15
f 89/99/20 88/79/18 90/78/20
f 90/78/19 88/79/17 89/99/19
f 88/79/18 89/99/20 87/100/18
f 87/100/17 89/99/19 88/79/17
f 91/78/22 89/100/20 90/79/20
f 90/79/19 89/100/19 91/78/21
f 89/100/20 91/78/22 92/99/22
f 92/99/21 91/78/21 89/100/19
f 93/74/24 92/98/22 91/75/22
f 91/75/21 92/98/21 93/74/23
f 92/98/22 93/74/24 94/97/24
f 94/97/23 93/74/23 92/98/21
f 95/70/26 94/96/24 93/71/24
f 93/71/23 94/96/23 95/70/25
f 94/96/24 95/70/26 96/95/26
f 96/95/25 95/70/25 94/96/23
f 51/84/4 96/101/26 95/82/26
f 95/82/25 96/101/25 51/84/6
f 96/101/26 51/84/4 50/102/4
f 50/102/6 51/84/6 96/101/25
f 97/103/2 98/104/2 99/105/2
f 99/105/1 98/104/1 97/103/1
f 98/104/2 97/103/2 100/106/2
f 100/106/1 97/103/1 98/104/1
f 98/104/2 100/106/2 101/107/2
f 101/107/1 100/106/1 98/104/1
f 101/107/2 100/106/2 102/108/2
f 102/108/1 100/106/1 101/107/1
f 101/107/2 102/108/2 103/109/2
f 103/109/1 102/108/1 101/107/1
f 103/109/2 102/108/2 104/110/2
f 104/110/1 102/108/1 103/109/1
f 103/109/2 104/110/2 105/111/2
f 105/111/1 104/110/1 103/109/1
f 105/111/2 104/110/2 106/112/2
f 106/112/1 104/110/1 105/111/1
f 106/112/2 104/110/2 107/113/2
f 107/113/1 104/110/1 106/112/1
f 107/113/2 104/110/2 108/114/2
f 108/114/1 104/110/1 107/113/1
f 108/114/2 104/110/2 109/115/2
f 109/115/1 104/110/1 108/114/1
f 108/114/2 109/115/2 110/116/2
f 110/116/1 109/115/1 108/114/1
f 110/116/2 109/115/2 111/117/2
f 111/117/1 109/115/1 110/116/1
f 111/117/2 109/115/2 112/118/2
f 112/118/1 109/115/1 111/117/1
f 111/117/2 112/118/2 113/119/2
f 113/119/1 112/118/1 111/117/1
f 113/119/2 112/118/2 114/120/2
f 114/120/1 112/118/1 113/119/1
f 113/119/2 114/120/2 115/121/2
f 115/121/1 114/120/1 113/119/1
f 115/121/2 114/120/2 116/122/2
f 116/122/1 114/120/1 115/121/1
f 116/122/2 114/120/2 117/123/2
f 117/123/1 114/120/1 116/122/1
f 116/122/2 117/123/2 118/124/2
f 118/124/1 117/123/1 116/122/1
f 118/124/2 117/123/2 119/125/2
f 119/125/1 117/123/1 118/124/1
f 119/125/2 117/123/2 120/126/2
f 120/126/1 117/123/1 119/125/1
f 119/125/2 120/126/2 121/127/2
f 121/127/1 120/126/1 119/125/1
f 121/127/2 120/126/2 122/128/2
f 122/128/1 120/126/1 121/127/1
f 105/111/2 123/129/2 103/109/2
f 103/109/1 123/129/1 105/111/1
f 123/129/2 105/111/2 124/130/2
f 124/130/1 105/111/1 123/129/1
f 123/129/2 124/130/2 125/131/2
f 125/131/1 124/130/1 123/129/1
f 123/129/2 125/131/2 126/132/2
f 126/132/1 125/131/1 123/129/1
f 123/129/2 126/132/2 127/133/2
f 127/133/1 126/132/1 123/129/1
f 127/133/2 126/132/2 128/134/2
f 128/134/1 126/132/1 127/133/1
f 127/133/2 128/134/2 129/135/2
f 129/135/1 128/134/1 127/133/1
f 127/133/2 129/135/2 130/136/2
f 130/136/1 129/135/1 127/133/1
f 130/136/2 129/135/2 131/137/2
f 131/137/1 129/135/1 130/136/1
f 130/136/2 131/137/2 132/138/2
f 132/138/1 131/137/1 130/136/1
f 130/136/2 132/138/2 133/139/2
f 133/139/1 132/138/1 130/136/1
f 133/139/2 132/138/2 134/140/2
f 134/140/1 132/138/1 133/139/1
f 133/139/2 134/140/2 135/141/2
f 135/141/1 134/140/1 133/139/1
f 135/141/2 134/140/2 136/142/2
f 136/142/1 134/140/1 135/141/1
f 135/141/2 136/142/2 137/143/2
f 137/143/1 136/142/1 135/141/1
f 135/141/2 137/143/2 138/144/2
f 138/144/1 137/143/1 135/141/1
f 138/144/2 137/143/2 139/145/2
f 139/145/1 137/143/1 138/144/1
f 138/144/2 139/145/2 122/128/2
f 122/128/1 139/145/1 138/144/1
f 138/144/2 122/128/2 120/126/2
f 120/126/1 122/128/1 138/144/1
f 138/144/2 120/126/2 140/146/2
f 140/146/1 120/126/1 138/144/1
f 138/144/2 140/146/2 141/147/2
f 141/147/1 140/146/1 138/144/1
f 141/147/2 140/146/2 142/148/2
f 142/148/1 140/146/1 141/147/1
f 141/147/2 142/148/2 143/149/2
f 143/149/1 142/148/1 141/147/1
f 143/149/2 142/148/2 144/150/2
f 144/150/1 142/148/1 143/149/1
