# SSTK version 0.8.0
# 1
mtllib original-1.mtl
o #ID42
v -0.111393 0.720994 -0.168348
v -0.111393 -0.845715 0.455888
v -0.111393 -0.845715 -0.168348
v -0.111393 0.720994 0.455888
v -0.111393 -0.845715 0.455888
v -0.141390 -0.845715 -0.168348
v -0.111393 -0.845715 -0.168348
v -0.141390 -0.845715 0.455888
v -0.111393 0.720994 -0.168348
v -0.141390 -0.845715 -0.168348
v -0.141390 0.720994 -0.168348
v -0.111393 -0.845715 -0.168348
v -0.141390 0.720994 0.455888
v -0.111393 0.720994 -0.168348
v -0.141390 0.720994 -0.168348
v -0.111393 0.720994 0.455888
v -0.111393 -0.845715 0.455888
v -0.141390 -0.159548 0.455888
v -0.141390 -0.845715 0.455888
v -0.116910 -0.159548 0.455888
v -0.116910 -0.122828 0.455888
v -0.141390 0.720994 0.455888
v -0.141390 -0.122828 0.455888
v -0.111393 0.720994 0.455888
v -0.141390 -0.159548 0.455888
v -0.141390 -0.845715 -0.168348
v -0.141390 -0.845715 0.455888
v -0.141390 0.720994 -0.168348
v -0.141390 -0.122828 0.455888
v -0.141390 0.720994 0.455888
vt -0.7602921 1.111111
vt -1.203 0
vt -0.7602921 0
vt -1.203 1.111111
vt -1.203 0.2530422
vt -0.7602921 0.2317688
vt -0.7602921 0.2530422
vt -1.203 0.2317688
vt -0.2530422 1.111111
vt -0.2317688 0
vt -0.2317688 1.111111
vt -0.2530422 0
vt 1.203 0.2317688
vt 0.7602921 0.2530422
vt 0.7602921 0.2317688
vt 1.203 0.2530422
vt 0.2530422 0
vt 0.2317688 0.4866303
vt 0.2317688 0
vt 0.2491299 0.4866303
vt 0.2491299 0.512672
vt 0.2317688 1.111111
vt 0.2317688 0.512672
vt 0.2530422 1.111111
vt 1.203 0.4866303
vt 0.7602921 0
vt 1.203 0
vt 0.7602921 1.111111
vt 1.203 0.512672
vt 1.203 1.111111
vn 1 0 0
vn -1 0 0
vn 0 -1 0
vn 0 1 0
vn 0 0 -1
vn 0 0 1
usemtl material_0_2
f 1/1/1 2/2/1 3/3/1
f 3/3/2 2/2/2 1/1/2
f 2/2/1 1/1/1 4/4/1
f 4/4/2 1/1/2 2/2/2
f 5/5/3 6/6/3 7/7/3
f 7/7/4 6/6/4 5/5/4
f 6/6/3 5/5/3 8/8/3
f 8/8/4 5/5/4 6/6/4
f 9/9/5 10/10/5 11/11/5
f 11/11/6 10/10/6 9/9/6
f 10/10/5 9/9/5 12/12/5
f 12/12/6 9/9/6 10/10/6
f 13/13/4 14/14/4 15/15/4
f 15/15/3 14/14/3 13/13/3
f 14/14/4 13/13/4 16/16/4
f 16/16/3 13/13/3 14/14/3
f 17/17/6 18/18/6 19/19/6
f 19/19/5 18/18/5 17/17/5
f 18/18/6 17/17/6 20/20/6
f 20/20/5 17/17/5 18/18/5
f 20/20/6 17/17/6 21/21/6
f 21/21/5 17/17/5 20/20/5
f 21/21/6 22/22/6 23/23/6
f 23/23/5 22/22/5 21/21/5
f 22/22/6 21/21/6 24/24/6
f 24/24/5 21/21/5 22/22/5
f 24/24/6 21/21/6 17/17/6
f 17/17/5 21/21/5 24/24/5
f 25/25/2 26/26/2 27/27/2
f 27/27/1 26/26/1 25/25/1
f 26/26/2 25/25/2 28/28/2
f 28/28/1 25/25/1 26/26/1
f 28/28/2 25/25/2 29/29/2
f 29/29/1 25/25/1 28/28/1
f 28/28/2 29/29/2 30/30/2
f 30/30/1 29/29/1 28/28/1
