# SSTK version 0.8.0
# 3
mtllib original-3.mtl
o #ID63
v -0.127928 -0.147754 0.465680
v -0.132824 -0.129394 0.465680
v -0.132824 -0.147754 0.465680
v -0.127928 -0.129394 0.465680
v -0.123032 -0.147754 0.460784
v -0.127928 -0.129394 0.465680
v -0.127928 -0.147754 0.465680
v -0.123032 -0.129394 0.460784
v -0.132824 -0.129394 0.465680
v -0.123032 -0.129394 0.455888
v -0.132824 -0.129394 0.455888
v -0.123032 -0.129394 0.460784
v -0.127928 -0.129394 0.465680
v -0.132824 -0.129394 0.465680
v -0.132824 -0.147754 0.455888
v -0.132824 -0.147754 0.465680
v -0.132824 -0.129394 0.455888
v -0.123032 -0.129394 0.455888
v -0.123032 -0.147754 0.460784
v -0.123032 -0.147754 0.455888
v -0.123032 -0.129394 0.460784
vt 4.343682 8.909905
vt 4.281182 9.14428
vt 4.281182 8.909905
vt 4.343682 9.14428
vt -12.24025 8.909905
vt -12.32864 9.14428
vt -12.32864 8.909905
vt -12.24025 9.14428
vt 21.77901 4.281182
vt 21.65401 4.406182
vt 21.65401 4.281182
vt 21.71651 4.406182
vt 21.77901 4.343682
vt 21.77901 9.14428
vt 21.65401 8.909905
vt 21.77901 8.909905
vt 21.65401 9.14428
vt -21.65401 9.14428
vt -21.71651 8.909905
vt -21.65401 8.909905
vt -21.71651 9.14428
vn 0 0 1
vn 0 0 -1
vn 0.7071067811865476 0 0.7071067811865476
vn -0.7071067811865476 0 -0.7071067811865476
vn 0 1 0
vn 0 -1 0
vn -1 0 0
vn 1 0 0
usemtl material_0_2
f 1/1/1 2/2/1 3/3/1
f 3/3/2 2/2/2 1/1/2
f 2/2/1 1/1/1 4/4/1
f 4/4/2 1/1/2 2/2/2
f 5/5/3 6/6/3 7/7/3
f 7/7/4 6/6/4 5/5/4
f 6/6/3 5/5/3 8/8/3
f 8/8/4 5/5/4 6/6/4
f 9/9/5 10/10/5 11/11/5
f 11/11/6 10/10/6 9/9/6
f 10/10/5 9/9/5 12/12/5
f 12/12/6 9/9/6 10/10/6
f 12/12/5 9/9/5 13/13/5
f 13/13/6 9/9/6 12/12/6
f 14/14/7 15/15/7 16/16/7
f 16/16/8 15/15/8 14/14/8
f 15/15/7 14/14/7 17/17/7
f 17/17/8 14/14/8 15/15/8
f 18/18/8 19/19/8 20/20/8
f 20/20/7 19/19/7 18/18/7
f 19/19/8 18/18/8 21/21/8
f 21/21/7 18/18/7 19/19/7
