# SSTK version 0.8.0
# 10
mtllib original-10.mtl
o #ID136
v 0.485915 -0.140696 -0.170796
v 0.485915 -0.179864 -0.180588
v 0.485915 -0.179864 -0.170796
v 0.485915 -0.174453 -0.186516
v 0.485915 -0.179864 -0.209964
v 0.485915 -0.147525 -0.186516
v 0.485915 -0.147525 -0.195943
v 0.485915 -0.174453 -0.195943
v 0.485915 -0.140696 -0.209964
v 0.485915 -0.140696 -0.180588
vt 13.65401 9
vt 13.52901 8.5
vt 13.65401 8.5
vt 13.45333 8.569078
vt 13.15401 8.5
vt 13.45333 8.912828
vt 13.33299 8.912828
vt 13.33299 8.569078
vt 13.15401 9
vt 13.52901 9
vn -1 0 0
vn 1 0 0
usemtl material_0_2
f 1/1/1 2/2/1 3/3/1
f 3/3/2 2/2/2 1/1/2
f 2/2/1 1/1/1 4/4/1
f 4/4/2 1/1/2 2/2/2
f 2/2/1 4/4/1 5/5/1
f 5/5/2 4/4/2 2/2/2
f 4/4/1 1/1/1 6/6/1
f 6/6/2 1/1/2 4/4/2
f 6/6/1 1/1/1 7/7/1
f 7/7/2 1/1/2 6/6/2
f 5/5/1 8/8/1 9/9/1
f 9/9/2 8/8/2 5/5/2
f 8/8/1 5/5/1 4/4/1
f 4/4/2 5/5/2 8/8/2
f 9/9/1 8/8/1 7/7/1
f 7/7/2 8/8/2 9/9/2
f 9/9/1 7/7/1 1/1/1
f 1/1/2 7/7/2 9/9/2
f 9/9/1 1/1/1 10/10/1
f 10/10/2 1/1/2 9/9/2
