# SSTK version 0.8.0
# 8
mtllib original-8.mtl
o #ID115
v 0.490811 -0.179864 -0.165900
v 0.490195 -0.140696 -0.166001
v 0.490195 -0.179864 -0.166001
v 0.490811 -0.140696 -0.165900
v 0.490811 -0.140696 -0.165900
v 0.490811 -0.179864 -0.165900
v 0.490195 -0.140696 -0.166001
v 0.490195 -0.179864 -0.166001
v 0.489595 -0.140696 -0.166171
v 0.489595 -0.179864 -0.166171
v 0.489595 -0.140696 -0.166171
v 0.489595 -0.179864 -0.166171
v 0.489018 -0.140696 -0.166407
v 0.489018 -0.179864 -0.166407
v 0.489018 -0.140696 -0.166407
v 0.489018 -0.179864 -0.166407
v 0.488472 -0.140696 -0.166707
v 0.488472 -0.179864 -0.166707
v 0.488472 -0.140696 -0.166707
v 0.488472 -0.179864 -0.166707
v 0.487962 -0.140696 -0.167067
v 0.487962 -0.179864 -0.167067
v 0.487962 -0.140696 -0.167067
v 0.487962 -0.179864 -0.167067
v 0.487497 -0.140696 -0.167482
v 0.487497 -0.179864 -0.167482
v 0.487497 -0.140696 -0.167482
v 0.487497 -0.179864 -0.167482
v 0.487082 -0.179864 -0.167948
v 0.487082 -0.140696 -0.167948
v 0.487082 -0.140696 -0.167948
v 0.487082 -0.179864 -0.167948
v 0.486722 -0.179864 -0.168457
v 0.486722 -0.140696 -0.168457
v 0.486722 -0.140696 -0.168457
v 0.486722 -0.179864 -0.168457
v 0.486422 -0.179864 -0.169003
v 0.486422 -0.140696 -0.169003
v 0.486422 -0.140696 -0.169003
v 0.486422 -0.179864 -0.169003
v 0.486185 -0.179864 -0.169580
v 0.486185 -0.140696 -0.169580
v 0.486185 -0.140696 -0.169580
v 0.486185 -0.179864 -0.169580
v 0.486016 -0.179864 -0.170181
v 0.486016 -0.140696 -0.170181
v 0.486016 -0.140696 -0.170181
v 0.486016 -0.179864 -0.170181
v 0.485915 -0.179864 -0.170796
v 0.485915 -0.140696 -0.170796
v 0.485915 -0.140696 -0.170796
v 0.485915 -0.179864 -0.170796
vt 0.09557913 0
vt 0.0876142 0.5
vt 0.0876142 0
vt 0.09557913 0.5
vt 0.07964928 0.5
vt 0.07964928 0
vt 0.07168435 0.5
vt 0.07168435 0
vt 0.06371942 0.5
vt 0.06371942 0
vt 0.05575449 0.5
vt 0.05575449 0
vt 0.04778957 0.5
vt 0.04778957 0
vt 0.03982464 0
vt 0.03982464 0.5
vt 0.03185971 0
vt 0.03185971 0.5
vt 0.02389478 0
vt 0.02389478 0.5
vt 0.01592986 0
vt 0.01592986 0.5
vt 0.007964928 0
vt 0.007964928 0.5
vt 3.552714e-15 0
vt 3.552714e-15 0.5
vn -0.16165140381041704 0 0.9868479232617969
vn -0.21725689155871614 0 0.9761144620741179
vn 0.16165140381041704 0 -0.9868479232617969
vn 0.21725689155871614 0 -0.9761144620741179
vn -0.32620130892131566 0 0.945300325853123
vn 0.32620130892131566 0 -0.945300325853123
vn -0.4309644116889251 0 0.9023689244746955
vn 0.4309644116889251 0 -0.9023689244746955
vn -0.5302032032780873 0 0.8478706052421296
vn 0.5302032032780873 0 -0.8478706052421296
vn -0.6226456933863508 0 0.782503891688361
vn 0.6226456933863508 0 -0.782503891688361
vn -0.7071067811865476 0 0.7071067811865476
vn 0.7071067811865476 0 -0.7071067811865476
vn -0.782503891688361 0 0.6226456933863508
vn 0.782503891688361 0 -0.6226456933863508
vn -0.8478706052421296 0 0.5302032032780873
vn 0.8478706052421296 0 -0.5302032032780873
vn -0.9023689244746955 0 0.4309644116889251
vn 0.9023689244746955 0 -0.4309644116889251
vn -0.945300325853123 0 0.32620130892131566
vn 0.945300325853123 0 -0.32620130892131566
vn -0.9761144620741179 0 0.21725689155871614
vn 0.9761144620741179 0 -0.21725689155871614
vn -0.9868479232617969 0 0.16165140381041704
vn 0.9868479232617969 0 -0.16165140381041704
usemtl material_0_0
f 1/1/1 2/2/2 3/3/2
f 2/2/2 1/1/1 4/4/1
f 5/4/3 6/1/3 7/2/4
f 8/3/4 7/2/4 6/1/3
f 3/3/2 9/5/5 10/6/5
f 9/5/5 3/3/2 2/2/2
f 7/2/4 8/3/4 11/5/6
f 12/6/6 11/5/6 8/3/4
f 10/6/5 13/7/7 14/8/7
f 13/7/7 10/6/5 9/5/5
f 11/5/6 12/6/6 15/7/8
f 16/8/8 15/7/8 12/6/6
f 14/8/7 17/9/9 18/10/9
f 17/9/9 14/8/7 13/7/7
f 15/7/8 16/8/8 19/9/10
f 20/10/10 19/9/10 16/8/8
f 18/10/9 21/11/11 22/12/11
f 21/11/11 18/10/9 17/9/9
f 19/9/10 20/10/10 23/11/12
f 24/12/12 23/11/12 20/10/10
f 22/12/11 25/13/13 26/14/13
f 25/13/13 22/12/11 21/11/11
f 23/11/12 24/12/12 27/13/14
f 28/14/14 27/13/14 24/12/12
f 25/13/13 29/15/15 26/14/13
f 29/15/15 25/13/13 30/16/15
f 31/16/16 27/13/14 32/15/16
f 28/14/14 32/15/16 27/13/14
f 30/16/15 33/17/17 29/15/15
f 33/17/17 30/16/15 34/18/17
f 35/18/18 31/16/16 36/17/18
f 32/15/16 36/17/18 31/16/16
f 34/18/17 37/19/19 33/17/17
f 37/19/19 34/18/17 38/20/19
f 39/20/20 35/18/18 40/19/20
f 36/17/18 40/19/20 35/18/18
f 38/20/19 41/21/21 37/19/19
f 41/21/21 38/20/19 42/22/21
f 43/22/22 39/20/20 44/21/22
f 40/19/20 44/21/22 39/20/20
f 42/22/21 45/23/23 41/21/21
f 45/23/23 42/22/21 46/24/23
f 47/24/24 43/22/22 48/23/24
f 44/21/22 48/23/24 43/22/22
f 46/24/23 49/25/25 45/23/23
f 49/25/25 46/24/23 50/26/25
f 51/26/26 47/24/24 52/25/26
f 48/23/24 52/25/26 47/24/24
