# SSTK version 0.8.0
# 6
mtllib original-6.mtl
o #ID94
v 0.485915 0.720994 -0.180588
v -0.140769 0.720994 -0.209964
v 0.485915 0.720994 -0.209964
v -0.140769 0.720994 -0.180588
v -0.140769 0.720994 -0.180588
v 0.485915 0.720994 -0.180588
v -0.140769 0.720994 -0.209964
v 0.485915 0.720994 -0.209964
v -0.140769 0.720994 -0.209964
v -0.140769 -0.845715 -0.180588
v -0.140769 -0.845715 -0.209964
v -0.140769 0.720994 -0.180588
v -0.140769 0.720994 -0.180588
v -0.140769 0.720994 -0.209964
v -0.140769 -0.845715 -0.180588
v -0.140769 -0.845715 -0.209964
v -0.130977 0.711202 -0.209964
v 0.485915 0.720994 -0.209964
v -0.140769 0.720994 -0.209964
v 0.476123 0.711202 -0.209964
v 0.476123 0.711202 -0.209964
v -0.130977 0.711202 -0.209964
v 0.485915 0.720994 -0.209964
v -0.140769 0.720994 -0.209964
v 0.485915 0.720994 -0.180588
v 0.485915 -0.140696 -0.209964
v 0.485915 -0.140696 -0.180588
v 0.485915 0.720994 -0.209964
v 0.485915 0.720994 -0.209964
v 0.485915 0.720994 -0.180588
v 0.485915 -0.140696 -0.209964
v 0.485915 -0.140696 -0.180588
v -0.130977 -0.845715 -0.209964
v -0.140769 -0.845715 -0.209964
v -0.130977 -0.845715 -0.209964
v -0.140769 -0.845715 -0.209964
v 0.476123 0.711202 -0.209964
v -0.130977 0.711202 -0.224651
v 0.476123 0.711202 -0.224651
v -0.130977 0.711202 -0.209964
v -0.130977 0.711202 -0.209964
v 0.476123 0.711202 -0.209964
v -0.130977 0.711202 -0.224651
v 0.476123 0.711202 -0.224651
v 0.485915 -0.845715 -0.209964
v 0.476123 -0.845715 -0.209964
v 0.485915 -0.179864 -0.209964
v 0.485915 -0.140696 -0.209964
v 0.485915 -0.140696 -0.209964
v 0.485915 -0.179864 -0.209964
v 0.485915 -0.845715 -0.209964
v 0.476123 -0.845715 -0.209964
v -0.130977 0.711202 -0.224651
v -0.130977 -0.845715 -0.209964
v -0.130977 -0.845715 -0.224651
v -0.130977 0.711202 -0.209964
v -0.130977 0.711202 -0.209964
v -0.130977 0.711202 -0.224651
v -0.130977 -0.845715 -0.209964
v -0.130977 -0.845715 -0.224651
v -0.130977 -0.845715 -0.209964
v -0.140769 -0.845715 -0.224651
v -0.130977 -0.845715 -0.224651
v -0.140769 -0.845715 -0.209964
v -0.140769 -0.845715 -0.209964
v -0.130977 -0.845715 -0.209964
v -0.140769 -0.845715 -0.224651
v -0.130977 -0.845715 -0.224651
v 0.485915 0.720994 -0.224651
v -0.130977 0.711202 -0.224651
v -0.140769 0.720994 -0.224651
v 0.476123 0.711202 -0.224651
v 0.476123 0.711202 -0.224651
v 0.485915 0.720994 -0.224651
v -0.130977 0.711202 -0.224651
v -0.140769 0.720994 -0.224651
v 0.476123 0.711202 -0.209964
v 0.476123 -0.845715 -0.224651
v 0.476123 -0.845715 -0.209964
v 0.476123 0.711202 -0.224651
v 0.476123 0.711202 -0.224651
v 0.476123 0.711202 -0.209964
v 0.476123 -0.845715 -0.224651
v 0.476123 -0.845715 -0.209964
v 0.485915 -0.179864 -0.180588
v 0.485915 -0.845715 -0.209964
v 0.485915 -0.845715 -0.180588
v 0.485915 -0.179864 -0.209964
v 0.485915 -0.179864 -0.209964
v 0.485915 -0.179864 -0.180588
v 0.485915 -0.845715 -0.209964
v 0.485915 -0.845715 -0.180588
v 0.485915 -0.845715 -0.209964
v 0.476123 -0.845715 -0.224651
v 0.485915 -0.845715 -0.224651
v 0.476123 -0.845715 -0.209964
v 0.476123 -0.845715 -0.209964
v 0.485915 -0.845715 -0.209964
v 0.476123 -0.845715 -0.224651
v 0.485915 -0.845715 -0.224651
v -0.140769 -0.845715 -0.224651
v -0.130977 -0.845715 -0.224651
v -0.130977 -0.845715 -0.224651
v -0.140769 -0.845715 -0.224651
v 0.485915 0.720994 -0.224651
v -0.140769 0.720994 -0.258923
v 0.485915 0.720994 -0.258923
v -0.140769 0.720994 -0.224651
v -0.140769 0.720994 -0.224651
v 0.485915 0.720994 -0.224651
v -0.140769 0.720994 -0.258923
v 0.485915 0.720994 -0.258923
v 0.476123 -0.845715 -0.224651
v 0.485915 -0.845715 -0.224651
v 0.485915 -0.845715 -0.224651
v 0.476123 -0.845715 -0.224651
v -0.140769 0.720994 -0.258923
v -0.140769 -0.845715 -0.224651
v -0.140769 -0.845715 -0.258923
v -0.140769 0.720994 -0.224651
v -0.140769 0.720994 -0.224651
v -0.140769 0.720994 -0.258923
v -0.140769 -0.845715 -0.224651
v -0.140769 -0.845715 -0.258923
v 0.485915 0.720994 -0.224651
v 0.485915 -0.845715 -0.258923
v 0.485915 -0.845715 -0.224651
v 0.485915 0.720994 -0.258923
v 0.485915 0.720994 -0.258923
v 0.485915 0.720994 -0.224651
v 0.485915 -0.845715 -0.258923
v 0.485915 -0.845715 -0.224651
vt -0.7516115 0.6766533
vt -0.7307782 0.2322089
vt -0.7307782 0.6766533
vt -0.7516115 0.2322089
vt -0.7307782 1.111111
vt -0.7516115 0
vt -0.7307782 0
vt -0.7516115 1.111111
vt 0.2391533 1.104167
vt 0.6766533 1.111111
vt 0.2322089 1.111111
vt 0.6697089 1.104167
vt 0.7516115 1.111111
vt 0.7307782 0.5
vt 0.7516115 0.5
vt 0.7307782 1.111111
vt 0.2391533 0
vt 0.2322089 0
vt -0.7307782 0.6697089
vt -0.7203615 0.2391533
vt -0.7203615 0.6697089
vt -0.7307782 0.2391533
vt 0.6766533 0
vt 0.6697089 0
vt 0.6766533 0.4722222
vt 0.6766533 0.5
vt -0.7203615 1.104167
vt -0.7203615 0
vt -0.7307782 1.104167
vt -0.7203615 0.2322089
vt -0.6766533 1.111111
vt -0.2391533 1.104167
vt -0.2322089 1.111111
vt -0.6697089 1.104167
vt 0.7307782 1.104167
vt 0.7203615 0
vt 0.7307782 0
vt 0.7203615 1.104167
vt 0.7516115 0.4722222
vt 0.7516115 0
vt 0.7307782 0.4722222
vt -0.7203615 0.6766533
vt -0.2322089 0
vt -0.2391533 0
vt -0.696056 0.2322089
vt -0.696056 0.6766533
vt -0.6697089 0
vt -0.6766533 0
vt -0.696056 1.111111
vt -0.696056 0
vt -0.7203615 1.111111
vt 0.7203615 1.111111
vt 0.696056 0
vt 0.696056 1.111111
vn 0 -1 0
vn 0 1 0
vn 1 0 0
vn -1 0 0
vn 0 0 1
vn 0 0 -1
usemtl material_0_0
f 1/1/1 2/2/1 3/3/1
f 2/2/1 1/1/1 4/4/1
f 5/4/2 6/1/2 7/2/2
f 8/3/2 7/2/2 6/1/2
f 9/5/3 10/6/3 11/7/3
f 10/6/3 9/5/3 12/8/3
f 13/8/4 14/5/4 15/6/4
f 16/7/4 15/6/4 14/5/4
f 17/9/5 18/10/5 19/11/5
f 18/10/5 17/9/5 20/12/5
f 21/12/6 22/9/6 23/10/6
f 24/11/6 23/10/6 22/9/6
f 25/13/4 26/14/4 27/15/4
f 26/14/4 25/13/4 28/16/4
f 29/16/3 30/13/3 31/14/3
f 32/15/3 31/14/3 30/13/3
f 33/17/5 19/11/5 34/18/5
f 19/11/5 33/17/5 17/9/5
f 22/9/6 35/17/6 24/11/6
f 36/18/6 24/11/6 35/17/6
f 37/19/1 38/20/1 39/21/1
f 38/20/1 37/19/1 40/22/1
f 41/22/2 42/19/2 43/20/2
f 44/21/2 43/20/2 42/19/2
f 45/23/5 20/12/5 46/24/5
f 20/12/5 45/23/5 18/10/5
f 18/10/5 45/23/5 47/25/5
f 18/10/5 47/25/5 48/26/5
f 49/26/6 50/25/6 23/10/6
f 50/25/6 51/23/6 23/10/6
f 23/10/6 51/23/6 21/12/6
f 52/24/6 21/12/6 51/23/6
f 53/27/3 54/7/3 55/28/3
f 54/7/3 53/27/3 56/29/3
f 57/29/4 58/27/4 59/7/4
f 60/28/4 59/7/4 58/27/4
f 61/22/1 62/30/1 63/20/1
f 62/30/1 61/22/1 64/2/1
f 65/2/2 66/22/2 67/30/2
f 68/20/2 67/30/2 66/22/2
f 69/31/6 70/32/6 71/33/6
f 70/32/6 69/31/6 72/34/6
f 73/34/5 74/31/5 75/32/5
f 76/33/5 75/32/5 74/31/5
f 77/35/4 78/36/4 79/37/4
f 78/36/4 77/35/4 80/38/4
f 81/38/3 82/35/3 83/36/3
f 84/37/3 83/36/3 82/35/3
f 85/39/4 86/37/4 87/40/4
f 86/37/4 85/39/4 88/41/4
f 89/41/3 90/39/3 91/37/3
f 92/40/3 91/37/3 90/39/3
f 93/3/1 94/21/1 95/42/1
f 94/21/1 93/3/1 96/19/1
f 97/19/2 98/3/2 99/21/2
f 100/42/2 99/21/2 98/3/2
f 70/32/6 101/43/6 71/33/6
f 101/43/6 70/32/6 102/44/6
f 103/44/5 75/32/5 104/43/5
f 76/33/5 104/43/5 75/32/5
f 105/42/1 106/45/1 107/46/1
f 106/45/1 105/42/1 108/30/1
f 109/30/2 110/42/2 111/45/2
f 112/46/2 111/45/2 110/42/2
f 69/31/6 113/47/6 72/34/6
f 113/47/6 69/31/6 114/48/6
f 115/48/5 74/31/5 116/47/5
f 73/34/5 116/47/5 74/31/5
f 117/49/3 118/28/3 119/50/3
f 118/28/3 117/49/3 120/51/3
f 121/51/4 122/49/4 123/28/4
f 124/50/4 123/28/4 122/49/4
f 125/52/4 126/53/4 127/36/4
f 126/53/4 125/52/4 128/54/4
f 129/54/3 130/52/3 131/53/3
f 132/36/3 131/53/3 130/52/3
