# SSTK version 0.8.0
# 1
mtllib original-1.mtl
o Group1/mesh1/mesh1-geometry#mesh1-geometry
v -0.361907 0.801664 -0.134510
v -0.347281 -0.931509 -0.134510
v -0.361907 -0.931509 -0.134510
v -0.347281 0.787038 -0.134510
v -0.361907 -0.931509 -0.188626
v -0.361907 -0.219226 -0.133413
v -0.361907 0.801664 -0.188626
v 0.237757 0.787038 -0.134510
v -0.347281 0.787038 -0.188626
v -0.347281 -0.931509 -0.188626
v -0.361907 -0.931509 -0.216416
v -0.361907 -0.931509 -0.106721
v -0.361907 -0.181198 -0.133413
v -0.361907 0.801664 -0.216416
v 0.252383 0.801664 -0.134510
v -0.383846 -0.931509 -0.106721
v -0.361907 -0.219226 -0.106721
v -0.361907 -0.181198 -0.106721
v -0.362638 -0.181198 -0.133413
v 0.252383 0.801664 -0.188626
v -0.383846 0.823603 -0.106721
v 0.252383 0.801664 -0.106721
v 0.237757 0.787038 -0.188626
v 0.252383 -0.931509 -0.134510
v -0.383846 -0.931509 -0.216416
v -0.363369 -0.219226 -0.106721
v -0.362638 -0.219226 -0.133413
v -0.361907 0.801664 -0.106721
v -0.383846 0.823603 -0.216416
v 0.252383 0.801664 -0.216416
v 0.274322 0.823603 -0.106721
v 0.237757 -0.931509 -0.188626
v 0.237757 -0.931509 -0.134510
v -0.362638 -0.219226 -0.106721
v -0.362638 -0.181198 -0.106721
v -0.363369 -0.181198 -0.133413
v -0.362638 -0.191071 -0.120616
v 0.274322 0.823603 -0.216416
v 0.252383 -0.931509 -0.216416
v 0.274322 -0.931509 -0.106721
v 0.252383 -0.931509 -0.106721
v 0.252383 -0.931509 -0.188626
v -0.363369 -0.219226 -0.133413
v -0.362647 -0.219226 -0.106640
v -0.363369 -0.181198 -0.106721
v -0.362638 -0.208129 -0.116045
v -0.362638 -0.192296 -0.116045
v -0.362638 -0.209353 -0.120616
v -0.362638 -0.191382 -0.118250
v 0.274322 -0.931509 -0.216416
v -0.363369 -0.208129 -0.116045
v -0.362647 -0.181198 -0.106640
v -0.363084 -0.219226 -0.104774
v -0.363369 -0.197846 -0.111786
v -0.363464 -0.181198 -0.105885
v -0.362638 -0.206676 -0.114152
v -0.362638 -0.209042 -0.118250
v -0.362638 -0.193748 -0.114152
v -0.363369 -0.191071 -0.120616
v -0.363369 -0.206676 -0.114152
v -0.363369 -0.209042 -0.118250
v -0.362751 -0.181198 -0.105722
v -0.363464 -0.219226 -0.105885
v -0.362751 -0.219226 -0.105722
v -0.363369 -0.195642 -0.112699
v -0.363369 -0.200212 -0.111475
v -0.363084 -0.181198 -0.104774
v -0.362638 -0.204783 -0.112699
v -0.363369 -0.192296 -0.116045
v -0.362638 -0.195642 -0.112699
v -0.363369 -0.191382 -0.118250
v -0.363369 -0.209353 -0.120616
v -0.363369 -0.204783 -0.112699
v -0.372876 -0.208129 -0.116045
v -0.372876 -0.209042 -0.118250
v -0.362638 -0.197846 -0.111786
v -0.363619 -0.219226 -0.103923
v -0.363369 -0.193748 -0.114152
v -0.372876 -0.197846 -0.111786
v -0.372876 -0.200212 -0.111475
v -0.363369 -0.202578 -0.111786
v -0.363742 -0.181198 -0.105092
v -0.363619 -0.181198 -0.103923
v -0.362638 -0.202578 -0.111786
v -0.372876 -0.191071 -0.120616
v -0.372876 -0.206676 -0.114152
v -0.372876 -0.209353 -0.120616
v -0.362638 -0.200212 -0.111475
v -0.363742 -0.219226 -0.105092
v -0.372876 -0.195642 -0.112699
v -0.372876 -0.202578 -0.111786
v -0.372876 -0.192296 -0.116045
v -0.372876 -0.191382 -0.118250
v -0.372876 -0.204783 -0.112699
v -0.372876 -0.193748 -0.114152
v -0.364191 -0.219226 -0.104380
v -0.364332 -0.219226 -0.103213
v -0.364191 -0.181198 -0.104380
v -0.364332 -0.181198 -0.103213
v -0.364786 -0.219226 -0.103786
v -0.364786 -0.181198 -0.103786
v -0.365184 -0.219226 -0.102681
v -0.365184 -0.181198 -0.102681
v -0.365500 -0.219226 -0.103340
v -0.365500 -0.181198 -0.103340
v -0.366056 -0.219226 -0.102378
v -0.366056 -0.181198 -0.102378
v -0.366294 -0.219226 -0.103065
v -0.366294 -0.181198 -0.103065
vt -0.016404 0
vt -0.02734 0
vt -0.016404 1.295932
vt -0.02734 1.284996
vt -0.016404 0.020779
vt -0.02734 0.020779
vt -0.016404 0.061242
vt -0.020779 1.295932
vt -0.019958 0.53259
vt -0.020779 0
vt -0.020779 0.904763
vt -0.020779 0.889297
vt -0.061242 0.904763
vt -0.464786 1.284996
vt -0.020779 1.284996
vt -0.061242 1.284996
vt -0.02734 0.061242
vt -0.016404 0.082021
vt 0 0
vt -0.019958 0.561024
vt -0.061242 0.889297
vt -0.082021 0.904763
vt -0.475722 1.295932
vt -0.464786 0.020779
vt -0.061242 0
vt 0.02734 0
vt 0.016404 0
vt 0.02734 1.284996
vt -0.082021 0
vt -0.082021 1.295932
vt 0 0.53259
vt 0 0.561024
vt -0.016404 0.561024
vt -0.015857 0.561024
vt -0.016404 0.53259
vt 0.016404 1.295932
vt 0.475722 1.295932
vt 0 0.927962
vt -0.475722 0.061242
vt -0.061242 1.295932
vt -0.475722 0.020779
vt -0.475722 0
vt 0.020779 1.237282
vt 0.020779 1.252748
vt 0.061242 1.237282
vt -0.464786 0.061242
vt 0 0.082021
vt -0.015311 0.53259
vt -0.016404 0.019958
vt -0.015857 0.019958
vt 0 1.312336
vt 0 1.295932
vt 0.016404 0.019958
vt 0.015857 0.019958
vt -0.015857 0.53259
vt 0.464786 1.284996
vt -0.082021 0.927962
vt 0 0.904763
vt -0.475722 0.082021
vt 0 1.252748
vt 0 1.275947
vt 0.020779 1.295932
vt 0.020779 0
vt 0.061242 1.252748
vt 0.061242 1.284996
vt 0.061242 0
vt 0.020779 1.284996
vt -0.464786 0
vt -0.082021 1.312336
vt -0.015857 0
vt 0.015857 0
vt -0.015311 0.561024
vt 0.464786 0
vt 0.492126 0
vt 0.492126 1.312336
vt 0.082021 1.252748
vt 0.082021 1.275947
vt 0.082021 1.295932
vt 0.082021 0
vt 0.061242 1.295932
vt -0.492126 1.312336
vt -0.492126 0
vt -0.015311 0
vt -0.015311 0.019958
vt 0.015311 0.019958
vt 0.475722 0
vt 0.492126 0.082021
vt 0.082021 1.312336
vt -0.492126 0.082021
vt -0.006972 0.540887
vt -0.003787 0.548576
vt 0.015311 0
vt -0.010389 0.553642
vt -0.005556 0.541974
vt -0.00862 0.540204
vt -0.00447 0.550224
vt -0.003554 0.546807
vt -0.006972 0.552726
vt -0.010389 0.539972
vt -0.00862 0.553409
vt -0.00447 0.543389
vt 0.015311 0.32374
vt 0.008202 0.32374
vt 0.015311 0.325525
vt 0.015311 0.198763
vt 0.008202 0.198763
vt 0.015311 0.200548
vt -0.005556 0.55164
vt 0.015311 0.508267
vt 0.008202 0.508267
vt 0.015311 0.510051
vt 0.015311 0.542593
vt 0.008202 0.542593
vt 0.015311 0.544377
vt -0.003787 0.545038
vt -0.015311 0.553642
vt -0.008202 0.553642
vt -0.015311 0.539972
vt 0.015311 0.082565
vt 0.015311 0.080781
vt 0.008202 0.082565
vt 0.015311 0.426594
vt 0.008202 0.426594
vt 0.015311 0.428378
vt 0.008202 0.325525
vt 0.008202 0.200548
vt 0.008202 0.061964
vt 0.015311 0.061964
vt 0.008202 0.06018
vt 0.015311 0.06018
vt 0.015311 0.439243
vt 0.008202 0.439243
vt 0.015311 0.441028
vt 0.008202 0.510051
vt 0.008202 0.544377
vt 0.008202 0.541665
vt 0.015311 0.541665
vt 0.008202 0.53988
vt 0.015311 0.53988
vt 0.015311 0.342009
vt 0.015311 0.340225
vt 0.008202 0.342009
vt 0.015311 0.219744
vt 0.015311 0.21796
vt 0.008202 0.219744
vt -0.008202 0.539972
vt 0.008202 0.080781
vt 0.015311 0.500315
vt 0.008202 0.500315
vt 0.015311 0.5021
vt 0.008202 0.428378
vt 0.008202 0.441028
vt 0.008202 0.5021
vt 0.008202 0.340225
vt 0.008202 0.21796
vt -0.026611 0.748031
vt -0.013852 0.738189
vt -0.026611 0.71012
vt -0.009296 0.721183
vt 0 0.71012
vt 0 0.748031
vt -0.009296 0.736968
vt -0.013852 0.719962
vt -0.011494 0.737878
vt 0.002373 0.71012
vt 0.002291 0.748031
vt 0.002291 0.71012
vt -0.020699 -0.001942
vt -0.020414 0
vt -0.021134 -0.000081
vt -0.002291 0.71012
vt -0.001452 0.748031
vt -0.002291 0.748031
vt -0.007408 0.722631
vt -0.011494 0.720273
vt -0.007408 0.73552
vt -0.021143 0.738189
vt -0.020414 0.738189
vt -0.021143 0.719962
vt 0.002373 0.748031
vt 0.00137 0.748031
vt -0.02032 -0.000833
vt -0.021031 -0.000996
vt -0.001452 0.71012
vt 0.02032 -0.000833
vt 0.020699 -0.001942
vt 0.020414 0
vt -0.00596 0.724519
vt -0.00596 0.733632
vt -0.020414 0.719962
vt -0.00505 0.731434
vt 0.021134 -0.000081
vt 0.00137 0.71012
vt 0.021031 -0.000996
vt -0.020165 -0.00279
vt 0.006022 0.71012
vt 0.005019 0.748031
vt 0.005019 0.71012
vt -0.00594 0.71012
vt -0.005101 0.748031
vt -0.00594 0.748031
vt 0.020165 -0.00279
vt -0.00505 0.726717
vt -0.004739 0.729076
vt 0.006022 0.748031
vt -0.020042 -0.001625
vt 0.009392 0.71012
vt 0.00839 0.748031
vt 0.00839 0.71012
vt 0.009392 0.748031
vt -0.005101 0.71012
vt 0.020042 -0.001625
vt -0.019595 -0.002334
vt 0.012315 0.748031
vt 0.011313 0.71012
vt 0.012315 0.71012
vt -0.00931 0.71012
vt -0.008472 0.748031
vt -0.00931 0.748031
vt 0.019595 -0.002334
vt -0.019455 -0.003497
vt -0.008472 0.71012
vt 0.011313 0.748031
vt 0.019455 -0.003497
vt -0.019001 -0.002926
vt -0.012233 0.71012
vt -0.011395 0.748031
vt -0.012233 0.748031
vt 0.014643 0.748031
vt 0.013641 0.71012
vt 0.014643 0.71012
vt 0.019001 -0.002926
vt -0.018605 -0.004028
vt -0.011395 0.71012
vt 0.013641 0.748031
vt 0.018605 -0.004028
vt -0.01829 -0.003371
vt -0.014561 0.71012
vt -0.013723 0.748031
vt -0.014561 0.748031
vt 0.016258 0.748031
vt 0.015338 0.71012
vt 0.016258 0.71012
vt 0.01829 -0.003371
vt -0.017735 -0.00433
vt -0.013723 0.71012
vt 0.015338 0.748031
vt 0.017735 -0.00433
vt -0.017498 -0.003645
vt -0.016177 0.71012
vt -0.015338 0.748031
vt -0.016177 0.748031
vt 0.009901 0.748031
vt 0.009177 0.71012
vt 0.009901 0.71012
vt 0.017498 -0.003645
vt -0.015338 0.71012
vt 0.009177 0.748031
vn 0 0 -1
vn 0 -1 0
vn -1 0 0
vn -0.7071067811865475 -0.7071067811865475 0
vn 0 0 1
vn 0.7071067811865475 -0.7071067811865475 0
vn 0 1 0
vn 1 0 0
vn -0.9936833811327991 0 -0.11222004304262295
vn 0.11222004304262295 0 -0.9936833811327991
vn -0.11222004304262295 0 0.9936833811327991
vn 0.9936833811327991 0 0.11222004304262295
vn 0.9748133911668598 0 0.22302208949287236
vn 0 0.9914448886106773 0.13052598533534135
vn 0 0.965925849201117 0.25881895959357565
vn 0 -0.9914448886106773 -0.13052598533534135
vn 0 -0.965925849201117 -0.25881895959357565
vn -0.9748133911668598 0 -0.22302208949287236
vn 0 -0.7071067811865477 0.7071067811865474
vn 0 -0.8660253028382762 0.5000001748438414
vn 0 0.8660253028382762 -0.5000001748438414
vn 0 0.7071067811865477 -0.7071067811865474
vn 0 -0.965925849201117 0.2588189595935752
vn 0 0.965925849201117 -0.2588189595935752
vn 0 0.866025302838276 0.5000001748438418
vn 0 0.7071067811865474 0.7071067811865477
vn 0 -0.866025302838276 -0.5000001748438418
vn 0 -0.7071067811865474 -0.7071067811865477
vn 0 -0.9914448886106773 0.1305259853353409
vn 0 0.9914448886106773 -0.1305259853353409
vn -0.9005221762394113 0 -0.4348100850958205
vn 0 0.5000001748438414 0.8660253028382762
vn 0 0.2588189595935752 0.965925849201117
vn 0 -0.5000001748438414 -0.8660253028382762
vn 0 -0.2588189595935752 -0.965925849201117
vn 0.9005221762394113 0 0.4348100850958205
vn 0 -0.5000001748438418 0.866025302838276
vn 0 0.5000001748438418 -0.866025302838276
vn -0.7808689070039847 0 -0.6246949256032116
vn 0 -0.25881895959357565 0.965925849201117
vn 0 0.25881895959357565 -0.965925849201117
vn -0.62188088100155 0 -0.7831118501496039
vn 0.7808689070039847 0 0.6246949256032116
vn 0.62188088100155 0 0.7831118501496039
vn -0.4315661417874109 0 -0.902081296371191
vn 0.4315661417874109 0 0.902081296371191
vn -0.32760791871065725 0 -0.9448137655633894
vn 0.32760791871065725 0 0.9448137655633894
vn 0.9448137655633894 0 -0.32760791871065725
vn 0.7071067811865475 0.7071067811865475 0
vn -0.7071067811865475 0.7071067811865475 0
vn -0.9448137655633894 0 0.32760791871065725
usemtl material_0_0
f 1//1 2//1 3//1
f 2//1 1//1 4//1
f 5//2 2//2 3//2
f 3//3 6//3 1//3
f 7//4 4//4 1//4
f 1//1 8//1 4//1
f 9//3 2//3 4//3
f 2//2 5//2 10//2
f 3//2 11//2 5//2
f 12//3 6//3 3//3
f 13//3 1//3 6//3
f 4//4 7//4 9//4
f 1//4 14//4 7//4
f 8//1 1//1 15//1
f 9//2 8//2 4//2
f 2//3 9//3 10//3
f 9//5 5//5 10//5
f 16//2 11//2 3//2
f 5//3 14//3 11//3
f 6//3 12//3 17//3
f 16//2 3//2 12//2
f 18//3 1//3 13//3
f 6//1 19//1 13//1
f 9//5 20//5 7//5
f 5//5 9//5 7//5
f 21//4 14//4 1//4
f 14//2 20//2 7//2
f 14//3 5//3 7//3
f 22//2 1//2 15//2
f 23//6 15//6 8//6
f 24//1 8//1 15//1
f 8//2 9//2 23//2
f 11//2 16//2 25//2
f 14//5 25//5 11//5
f 26//1 17//1 12//1
f 17//2 27//2 6//2
f 21//1 12//1 16//1
f 1//3 18//3 28//3
f 19//7 18//7 13//7
f 19//1 6//1 27//1
f 20//5 9//5 23//5
f 14//4 21//4 29//4
f 21//4 1//4 28//4
f 20//2 14//2 30//2
f 1//2 22//2 28//2
f 15//6 31//6 22//6
f 22//8 24//8 15//8
f 20//6 15//6 23//6
f 8//8 32//8 23//8
f 8//1 24//1 33//1
f 25//5 14//5 29//5
f 17//1 26//1 34//1
f 12//1 21//1 26//1
f 27//2 17//2 34//2
f 18//1 21//1 28//1
f 18//7 19//7 35//7
f 27//1 36//1 19//1
f 27//3 37//3 19//3
f 32//5 20//5 23//5
f 14//5 38//5 29//5
f 21//1 22//1 28//1
f 38//5 14//5 30//5
f 38//6 20//6 30//6
f 20//8 39//8 30//8
f 31//6 15//6 38//6
f 22//1 21//1 31//1
f 40//1 22//1 31//1
f 24//8 22//8 41//8
f 38//6 15//6 20//6
f 32//8 8//8 33//8
f 33//2 42//2 24//2
f 43//2 34//2 26//2
f 34//2 44//2 26//2
f 26//7 44//7 34//7
f 26//1 21//1 45//1
f 34//2 43//2 27//2
f 34//3 46//3 27//3
f 35//1 21//1 18//1
f 36//7 35//7 19//7
f 47//3 35//3 19//3
f 36//1 27//1 43//1
f 27//3 48//3 37//3
f 49//3 19//3 37//3
f 20//5 32//5 42//5
f 39//5 38//5 30//5
f 39//8 20//8 42//8
f 22//1 40//1 41//1
f 24//2 50//2 41//2
f 42//2 33//2 32//2
f 42//2 50//2 24//2
f 26//3 51//3 43//3
f 44//9 52//9 34//9
f 45//10 44//10 26//10
f 26//11 44//11 45//11
f 44//7 26//7 53//7
f 45//1 21//1 35//1
f 45//3 54//3 26//3
f 45//12 55//13 26//12
f 46//3 34//3 56//3
f 27//3 46//3 57//3
f 35//7 36//7 45//7
f 58//3 35//3 47//3
f 47//3 19//3 49//3
f 43//3 59//3 36//3
f 27//3 57//3 48//3
f 48//1 59//1 37//1
f 59//14 49//15 37//14
f 37//16 49//17 59//16
f 38//5 39//5 50//5
f 50//2 42//2 39//2
f 41//2 50//2 40//2
f 51//3 26//3 60//3
f 43//3 51//3 61//3
f 35//9 34//9 52//9
f 44//10 45//10 52//10
f 52//11 45//11 44//11
f 52//9 44//9 62//18
f 26//7 63//7 53//7
f 64//7 44//7 53//7
f 35//7 45//7 52//7
f 52//2 45//2 35//2
f 54//3 45//3 65//3
f 26//3 54//3 66//3
f 63//13 26//12 55//13
f 45//2 67//2 55//2
f 56//3 34//3 68//3
f 56//19 51//20 46//20
f 46//21 51//21 56//22
f 46//20 61//23 57//23
f 57//24 61//24 46//21
f 69//3 45//3 36//3
f 70//3 35//3 58//3
f 69//25 58//26 47//25
f 47//27 58//28 69//27
f 71//15 47//25 49//15
f 49//17 47//27 71//17
f 43//3 72//3 59//3
f 71//3 36//3 59//3
f 57//23 72//29 48//29
f 48//30 72//30 57//24
f 59//1 48//1 72//1
f 49//15 59//14 71//15
f 71//17 59//16 49//17
f 60//3 26//3 73//3
f 60//19 74//20 51//20
f 51//20 56//19 60//19
f 60//22 56//22 51//21
f 51//20 75//23 61//23
f 61//23 46//20 51//20
f 51//21 46//21 61//24
f 43//3 61//3 72//3
f 35//3 76//3 34//3
f 52//2 67//2 45//2
f 64//18 62//18 44//9
f 62//2 67//2 52//2
f 53//7 63//7 77//7
f 53//31 67//31 64//18
f 65//3 45//3 78//3
f 65//32 79//33 54//33
f 54//33 70//32 65//32
f 65//34 70//34 54//35
f 54//33 80//5 66//5
f 66//5 76//33 54//33
f 54//35 76//35 66//1
f 81//3 26//3 66//3
f 55//13 82//36 63//13
f 67//2 83//2 55//2
f 68//3 34//3 84//3
f 68//37 60//19 56//19
f 56//22 60//22 68//38
f 72//29 57//23 61//23
f 61//24 57//24 72//30
f 78//3 45//3 69//3
f 69//3 36//3 71//3
f 76//3 35//3 70//3
f 58//26 65//32 70//32
f 70//34 65//34 58//28
f 58//26 69//25 78//26
f 78//28 69//27 58//28
f 47//25 71//15 69//25
f 69//27 71//17 47//27
f 72//1 85//1 59//1
f 85//14 71//15 59//14
f 73//3 26//3 81//3
f 73//37 86//19 60//19
f 60//19 68//37 73//37
f 73//38 68//38 60//22
f 74//20 60//19 86//19
f 75//23 51//20 74//20
f 87//29 61//23 75//23
f 61//23 87//29 72//29
f 34//3 76//3 88//3
f 62//18 64//18 67//31
f 63//7 89//7 77//7
f 77//39 83//39 53//31
f 67//31 53//31 83//39
f 78//26 90//32 65//32
f 65//32 58//26 78//26
f 78//28 58//28 65//34
f 79//33 65//32 90//32
f 80//5 54//33 79//33
f 70//32 54//33 76//33
f 76//35 54//35 70//34
f 91//40 66//5 80//5
f 76//33 66//5 88//5
f 88//1 66//1 76//35
f 66//5 91//40 81//40
f 81//40 88//5 66//5
f 66//1 88//1 81//41
f 89//36 63//13 82//36
f 55//2 83//2 82//2
f 84//3 34//3 88//3
f 84//40 73//37 68//37
f 68//38 73//38 84//41
f 92//25 78//26 69//25
f 93//15 69//25 71//15
f 85//1 72//1 87//1
f 71//15 85//14 93//15
f 81//40 94//37 73//37
f 73//37 84//40 81//40
f 81//41 84//41 73//38
f 86//19 73//37 94//37
f 86//3 95//3 74//3
f 74//3 92//3 75//3
f 75//3 93//3 87//3
f 89//7 96//7 77//7
f 77//39 97//42 83//39
f 90//32 78//26 95//26
f 94//3 79//3 90//3
f 79//3 91//3 80//3
f 94//37 81//40 91//40
f 88//5 81//40 84//40
f 84//41 81//41 88//1
f 82//36 98//43 89//36
f 82//2 83//2 98//2
f 78//26 92//25 95//26
f 69//25 93//15 92//25
f 87//3 93//3 85//3
f 94//3 90//3 86//3
f 86//3 90//3 95//3
f 74//3 95//3 92//3
f 75//3 92//3 93//3
f 77//7 96//7 97//7
f 96//43 89//36 98//43
f 99//42 83//39 97//42
f 91//3 79//3 94//3
f 83//2 99//2 98//2
f 96//7 100//7 97//7
f 98//43 101//44 96//43
f 97//42 102//45 99//42
f 98//2 99//2 101//2
f 97//7 100//7 102//7
f 100//44 96//43 101//44
f 103//45 99//42 102//45
f 99//2 103//2 101//2
f 100//7 104//7 102//7
f 101//44 105//46 100//44
f 102//45 106//47 103//45
f 101//2 103//2 105//2
f 102//7 104//7 106//7
f 104//46 100//44 105//46
f 107//47 103//45 106//47
f 103//2 107//2 105//2
f 108//7 106//7 104//7
f 105//46 109//48 104//46
f 106//49 108//49 107//49
f 109//2 105//2 107//2
f 108//48 104//46 109//48
f 109//49 107//49 108//49
usemtl material_1_0
f 3/1/5 2/2/5 1/3/5
f 4/4/5 1/3/5 2/2/5
f 3/5/7 2/6/7 5/7/7
f 1/8/8 6/9/8 3/10/8
f 1/11/50 4/12/50 7/13/50
f 4/4/5 8/14/5 1/3/5
f 4/15/8 2/10/8 9/16/8
f 10/17/7 5/7/7 2/6/7
f 5/7/7 11/18/7 3/5/7
f 3/10/8 6/9/8 12/19/8
f 6/9/8 1/8/8 13/20/8
f 9/21/50 7/13/50 4/12/50
f 7/13/50 14/22/50 1/11/50
f 15/23/5 1/3/5 8/14/5
f 4/6/7 8/24/7 9/17/7
f 10/25/8 9/16/8 2/10/8
f 10/26/1 5/27/1 9/28/1
f 3/5/7 11/18/7 16/19/7
f 11/29/8 14/30/8 5/25/8
f 17/31/8 12/19/8 6/9/8
f 12/1/7 3/5/7 16/19/7
f 13/20/8 1/8/8 18/32/8
f 13/33/5 19/34/5 6/35/5
f 7/36/1 20/37/1 9/28/1
f 7/36/1 9/28/1 5/27/1
f 1/11/50 14/22/50 21/38/50
f 7/7/7 20/39/7 14/18/7
f 7/40/8 5/25/8 14/30/8
f 15/41/7 1/5/7 22/42/7
f 8/43/51 15/44/51 23/45/51
f 15/23/5 8/14/5 24/42/5
f 23/46/7 9/17/7 8/24/7
f 25/47/7 16/19/7 11/18/7
f 11/27/1 25/19/1 14/36/1
f 12/1/5 17/35/5 26/48/5
f 6/49/7 27/50/7 17/1/7
f 16/19/5 12/1/5 21/51/5
f 28/52/8 18/32/8 1/8/8
f 13/53/2 18/27/2 19/54/2
f 27/55/5 6/35/5 19/34/5
f 23/56/1 9/28/1 20/37/1
f 29/57/50 21/38/50 14/22/50
f 28/58/50 1/11/50 21/38/50
f 30/59/7 14/18/7 20/39/7
f 28/1/7 22/42/7 1/5/7
f 22/60/51 31/61/51 15/44/51
f 15/62/3 24/63/3 22/52/3
f 23/45/51 15/44/51 20/64/51
f 23/65/3 32/66/3 8/67/3
f 33/68/5 24/42/5 8/14/5
f 16/19/3 29/69/3 25/29/3
f 25/29/8 29/69/8 16/19/8
f 29/51/1 14/36/1 25/19/1
f 34/55/5 26/48/5 17/35/5
f 26/48/5 21/51/5 12/1/5
f 34/70/7 17/1/7 27/50/7
f 29/69/3 16/19/3 21/51/3
f 21/51/8 16/19/8 29/69/8
f 28/3/5 21/51/5 18/33/5
f 35/71/2 19/54/2 18/27/2
f 19/34/5 36/72/5 27/55/5
f 23/56/1 20/37/1 32/73/1
f 31/74/7 29/47/7 21/19/7
f 21/19/2 29/47/2 31/74/2
f 29/51/1 38/75/1 14/36/1
f 28/3/5 22/23/5 21/51/5
f 30/37/1 14/36/1 38/75/1
f 30/76/51 20/64/51 38/77/51
f 30/78/3 39/79/3 20/80/3
f 38/77/51 15/44/51 31/61/51
f 31/81/5 21/51/5 22/23/5
f 31/81/5 22/23/5 40/82/5
f 41/19/3 22/52/3 24/63/3
f 20/64/51 15/44/51 38/77/51
f 33/63/3 8/67/3 32/66/3
f 24/41/7 42/39/7 33/24/7
f 26/83/7 34/70/7 43/84/7
f 45/72/5 21/51/5 26/48/5
f 27/50/7 43/84/7 34/70/7
f 18/33/5 21/51/5 35/34/5
f 19/54/2 35/71/2 36/85/2
f 43/48/5 27/55/5 36/72/5
f 42/86/1 32/73/1 20/37/1
f 29/47/7 31/74/7 38/87/7
f 38/87/2 31/74/2 29/47/2
f 30/37/1 38/75/1 39/86/1
f 42/66/3 20/80/3 39/79/3
f 31/51/8 50/79/8 38/88/8
f 38/88/3 50/79/3 31/51/3
f 41/42/5 40/82/5 22/23/5
f 50/79/8 31/51/8 40/19/8
f 40/19/3 31/51/3 50/79/3
f 41/42/7 50/89/7 24/41/7
f 32/46/7 33/24/7 42/39/7
f 24/41/7 50/89/7 42/39/7
f 43/9/8 51/90/8 26/31/8
f 35/34/5 21/51/5 45/72/5
f 26/31/8 54/91/8 45/32/8
f 45/92/2 36/85/2 35/71/2
f 36/20/8 59/93/8 43/9/8
f 50/74/1 39/86/1 38/75/1
f 39/59/7 42/39/7 50/89/7
f 40/82/7 50/89/7 41/42/7
f 60/94/8 26/31/8 51/90/8
f 61/95/8 51/90/8 43/9/8
f 65/96/8 45/32/8 54/91/8
f 66/97/8 54/91/8 26/31/8
f 36/20/8 45/32/8 69/98/8
f 59/93/8 72/99/8 43/9/8
f 59/93/8 36/20/8 71/100/8
f 73/101/8 26/31/8 60/94/8
f 51/102/21 74/103/21 60/104/22
f 61/105/24 75/106/24 51/107/21
f 72/99/8 61/95/8 43/9/8
f 78/108/8 45/32/8 65/96/8
f 54/109/35 79/110/35 65/111/34
f 66/112/1 80/113/1 54/114/35
f 66/97/8 26/31/8 81/115/8
f 69/98/8 45/32/8 78/108/8
f 71/100/8 36/20/8 69/98/8
f 59/116/5 85/117/5 72/118/5
f 59/119/16 71/120/17 85/121/16
f 81/115/8 26/31/8 73/101/8
f 60/122/22 86/123/22 73/124/38
f 86/125/22 60/104/22 74/103/21
f 74/126/21 51/107/21 75/106/24
f 75/127/24 61/128/24 87/129/30
f 72/130/30 87/129/30 61/128/24
f 65/131/34 90/132/34 78/133/28
f 90/134/34 65/111/34 79/110/35
f 79/135/35 54/114/35 80/113/1
f 80/136/1 66/137/1 91/138/41
f 81/139/41 91/138/41 66/137/1
f 69/140/27 78/141/28 92/142/27
f 71/143/17 69/144/27 93/145/17
f 87/146/5 72/118/5 85/117/5
f 93/147/17 85/121/16 71/120/17
f 73/148/38 94/149/38 81/150/41
f 94/151/38 73/124/38 86/123/22
f 74/90/8 95/108/8 86/94/8
f 75/95/8 92/98/8 74/90/8
f 87/99/8 93/100/8 75/95/8
f 95/152/28 78/133/28 90/132/34
f 90/96/8 79/91/8 94/101/8
f 80/97/8 91/115/8 79/91/8
f 91/153/41 81/150/41 94/149/38
f 95/154/28 92/142/27 78/141/28
f 92/155/27 93/145/17 69/144/27
f 85/93/8 93/100/8 87/99/8
f 86/94/8 90/96/8 94/101/8
f 95/108/8 90/96/8 86/94/8
f 92/98/8 95/108/8 74/90/8
f 93/100/8 92/98/8 75/95/8
f 94/101/8 79/91/8 91/115/8
usemtl material_2_0
f 19/156/8 37/157/8 27/158/8
f 27/158/8 46/159/8 34/160/8
f 19/156/8 35/161/8 47/162/8
f 37/157/8 48/163/8 27/158/8
f 37/157/8 19/156/8 49/164/8
f 34/165/12 52/166/12 44/167/12
f 53/168/2 26/169/2 44/170/2
f 26/171/9 55/172/18 45/173/9
f 56/174/8 34/160/8 46/159/8
f 57/175/8 46/159/8 27/158/8
f 47/162/8 35/161/8 58/176/8
f 49/164/8 19/156/8 47/162/8
f 48/163/8 57/175/8 27/158/8
f 37/177/5 59/178/5 48/179/5
f 52/166/12 34/165/12 35/180/12
f 62/181/13 44/167/12 52/166/12
f 53/168/2 63/182/2 26/169/2
f 53/168/2 44/170/2 64/183/2
f 55/172/18 26/171/9 63/184/18
f 55/185/7 67/186/7 45/187/7
f 68/188/8 34/160/8 56/174/8
f 58/176/8 35/161/8 70/189/8
f 72/190/5 48/179/5 59/178/5
f 34/160/8 76/191/8 35/161/8
f 45/187/7 67/186/7 52/192/7
f 44/167/12 62/181/13 64/193/13
f 52/192/7 67/186/7 62/194/7
f 77/195/2 63/182/2 53/168/2
f 64/196/13 67/197/36 53/198/36
f 63/199/18 82/200/31 55/201/18
f 55/185/7 83/202/7 67/186/7
f 84/203/8 34/160/8 68/188/8
f 70/189/8 35/161/8 76/191/8
f 88/204/8 76/191/8 34/160/8
f 67/197/36 64/196/13 62/205/13
f 77/195/2 89/206/2 63/182/2
f 53/207/36 83/208/43 77/209/43
f 83/208/43 53/207/36 67/210/36
f 82/200/31 63/199/18 89/211/31
f 82/212/7 83/202/7 55/185/7
f 88/204/8 34/160/8 84/203/8
f 77/195/2 96/213/2 89/206/2
f 83/214/43 97/215/44 77/216/43
f 89/217/31 98/218/39 82/219/31
f 98/220/7 83/202/7 82/212/7
f 97/221/2 96/213/2 77/195/2
f 98/218/39 89/217/31 96/222/39
f 97/215/44 83/214/43 99/223/44
f 98/220/7 99/224/7 83/202/7
f 97/221/2 100/225/2 96/213/2
f 96/226/39 101/227/42 98/228/39
f 99/229/44 102/230/46 97/231/44
f 101/232/7 99/224/7 98/220/7
f 102/233/2 100/225/2 97/221/2
f 101/227/42 96/226/39 100/234/42
f 102/230/46 99/229/44 103/235/46
f 101/232/7 103/236/7 99/224/7
f 102/233/2 104/237/2 100/225/2
f 100/238/42 105/239/45 101/240/42
f 103/241/46 106/242/48 102/243/46
f 105/244/7 103/236/7 101/232/7
f 106/245/2 104/237/2 102/233/2
f 105/239/45 100/238/42 104/246/45
f 106/242/48 103/241/46 107/247/48
f 105/244/7 107/248/7 103/236/7
f 104/237/2 106/245/2 108/249/2
f 104/250/45 109/251/47 105/252/45
f 107/253/52 108/254/52 106/255/52
f 107/248/7 105/244/7 109/256/7
f 109/251/47 104/250/45 108/257/47
f 108/254/52 107/253/52 109/258/52
