mtllib new-1.mtl
v 0.430562 -0.876972 0.045043
v -0.428191 -0.876972 0.045043
v 0.464160 0.901681 0.045043
v -0.428191 -0.876972 0.039599
v 0.430562 0.879904 0.045043
v 0.430562 -0.876972 0.039599
v -0.428191 0.879904 0.045043
v 0.464160 0.901681 -0.046136
v 0.430562 0.879904 0.039599
v -0.419791 -0.871528 0.039599
v -0.428191 0.879904 0.039599
v -0.461790 0.901681 -0.046136
v 0.430562 -0.876972 -0.046136
v 0.422162 -0.871528 0.039599
v 0.430562 0.879904 -0.046136
v 0.422162 0.874460 0.039599
v -0.419791 0.874460 0.039599
v -0.419791 -0.871528 0.045043
v -0.428191 -0.876972 -0.046136
v 0.430562 -0.876972 -0.040691
v 0.422162 0.874460 0.045043
v 0.422162 -0.871528 0.045043
v -0.428191 0.879904 -0.046136
v 0.430562 0.879904 -0.040691
v -0.419791 0.874460 0.045043
v 0.199603 -0.727279 0.045043
v -0.428191 0.879904 -0.040691
v -0.428191 -0.876972 -0.040691
v 0.422162 -0.871528 -0.040691
v -0.197233 -0.727279 0.045043
v 0.422162 0.874460 -0.040691
v -0.197233 0.730212 0.045043
v 0.199603 -0.435781 0.045043
v -0.197233 -0.435781 0.045043
v 0.199603 -0.727279 -0.046136
v -0.419791 -0.871528 -0.040691
v 0.422162 -0.871528 -0.046136
v -0.419791 0.874460 -0.040691
v -0.197233 0.438713 0.045043
v 0.199603 0.730212 0.045043
v 0.199603 -0.144283 0.045043
v 0.199603 -0.435781 -0.046136
v -0.197233 -0.727279 -0.046136
v -0.197233 -0.144283 0.045043
v 0.422162 0.874460 -0.046136
v -0.419791 0.874460 -0.046136
v -0.197233 0.147215 0.045043
v -0.197233 0.730212 -0.000546
v 0.199603 0.438713 0.045043
v 0.199603 0.147215 0.045043
v -0.197233 -0.435781 -0.046136
v -0.419791 -0.871528 -0.046136
v -0.197233 0.438713 -0.000546
v 0.199603 0.730212 -0.000546
v 0.199603 0.147215 -0.046136
v 0.199603 -0.144283 -0.046136
v -0.197233 -0.144283 -0.046136
v 0.199603 0.730212 -0.046136
v -0.197233 0.730212 -0.046136
v 0.199603 0.438713 -0.000546
v -0.197233 0.147215 -0.046136
v 0.199603 0.438713 -0.046136
v -0.197233 0.438713 -0.046136
vn 0.000000 0.000000 1.000000
vn 0.000000 1.000000 0.000000
vn 1.000000 0.000000 0.000000
vn 0.000000 -1.000000 0.000000
vn -1.000000 0.000000 0.000000
vn 0.000000 0.000000 -1.000000
vt 1.026937 0.013762
vt 0.038666 0.013762
vt 1.065603 1.137773
vt 1.026937 1.124012
vt 0.118445 0.013762
vt 0.110924 1.124012
vt 0.110924 0.013762
vt 0.000000 1.137773
vt 0.038666 1.124012
vt -0.118445 1.124012
vt -0.110924 0.013762
vt -0.110924 1.124012
vt -0.118445 0.013762
vt 0.048333 0.017202
vt 0.118445 1.124012
vt -1.026937 0.013762
vt -1.065603 1.137773
vt -0.038666 0.053276
vt -1.026937 0.056889
vt -1.026937 0.053276
vt 1.017270 0.017202
vt -0.038666 0.056889
vt -1.026937 1.124012
vt 1.017270 1.120571
vt 0.048333 1.120571
vt -0.038666 0.013762
vt -0.229369 0.013762
vt -0.236890 1.124012
vt -0.236890 0.013762
vt 0.110924 1.120571
vt 0.118445 0.017202
vt 0.118445 1.120571
vt -0.110924 0.017202
vt -0.118445 1.120571
vt -0.118445 0.017202
vt -0.038666 1.124012
vt 0.038666 0.113777
vt 1.026937 0.110165
vt 1.026937 0.113777
vt -0.229369 1.124012
vt 0.048333 0.056889
vt 1.017270 0.053276
vt 1.017270 0.056889
vt 0.110924 0.017202
vt -0.110924 1.120571
vt 0.761145 0.108359
vt 0.229369 1.124012
vt 0.236890 0.013762
vt 0.236890 1.124012
vt -1.026937 0.113777
vt -0.038666 0.110165
vt -0.038666 0.113777
vt 0.038666 0.110165
vt -1.017270 0.017202
vt -1.026937 0.110165
vt 0.048333 0.053276
vt 0.304458 0.108359
vt 0.229369 0.013762
vt -1.017270 1.120571
vt 0.304458 1.029414
vt 0.761145 0.292570
vt 0.304458 0.292570
vt 0.761145 0.113777
vt 0.304458 0.053276
vt 0.761145 0.053276
vt -0.048333 0.017202
vt 0.236890 0.017202
vt 0.229369 1.120571
vt 0.229369 0.017202
vt -0.048333 1.120571
vt 0.304458 0.845203
vt 0.761145 1.029414
vt 0.761145 0.476781
vt -0.236890 0.292570
vt -0.110924 0.108359
vt -0.110924 0.292570
vt 0.236890 0.108359
vt 0.110924 0.292570
vt 0.110924 0.108359
vt 0.304458 0.476781
vt 0.304458 0.113777
vt -0.236890 0.108359
vt -0.048333 0.110165
vt -1.017270 0.113777
vt -1.017270 0.110165
vt 0.236890 1.120571
vt 1.017270 0.110165
vt 0.048333 0.113777
vt 0.048333 0.110165
vt 0.304458 0.660992
vt 0.110924 0.845203
vt 0.173907 1.029414
vt 0.110924 1.029414
vt 0.761145 0.845203
vt -0.304458 0.083527
vt -0.761145 0.053276
vt -0.304458 0.053276
vt 0.761145 0.660992
vt -0.761145 0.113777
vt 0.236890 0.292570
vt -0.761145 0.108359
vt -0.304458 0.108359
vt -0.761145 0.292570
vt -0.236890 1.120571
vt -0.229369 0.017202
vt -0.229369 1.120571
vt -0.048333 0.113777
vt 1.017270 0.113777
vt 0.173907 0.845203
vt -0.173907 1.029414
vt -0.110924 0.845203
vt -0.110924 1.029414
vt -0.761145 0.083527
vt -0.236890 0.660992
vt -0.110924 0.476781
vt -0.110924 0.660992
vt -0.304458 0.113777
vt -0.304458 0.292570
vt 0.236890 0.476781
vt 0.110924 0.660992
vt 0.110924 0.476781
vt -0.761145 0.476781
vt -0.236890 0.017202
vt -0.761145 1.029414
vt 0.304458 0.083527
vt 0.236890 1.029414
vt -0.173907 0.845203
vt -0.236890 0.476781
vt -0.304458 0.476781
vt 0.236890 0.660992
vt -0.761145 0.660992
vt -0.761145 0.845203
vt -0.304458 1.029414
vt 0.761145 0.083527
vt 0.236890 0.845203
vt -0.236890 1.029414
vt -0.304458 0.660992
vt -0.236890 0.845203
vt -0.304458 0.845203
usemtl material-0
f 1/1/1 3/3/1 5/4/1
f 4/5/3 7/6/3 2/7/3
f 9/10/5 1/11/5 5/12/5
f 1/11/5 9/10/5 6/13/5
f 7/6/3 4/5/3 11/15/3
f 7/18/4 9/19/4 5/20/4
f 9/4/1 14/21/1 6/1/1
f 4/2/1 10/14/1 11/9/1
f 9/19/4 7/18/4 11/22/4
f 8/17/6 13/16/6 15/23/6
f 14/21/1 9/4/1 16/24/1
f 11/9/1 10/14/1 17/25/1
f 11/9/1 17/25/1 9/4/1
f 20/27/5 15/28/5 13/29/5
f 16/24/1 9/4/1 17/25/1
f 21/30/3 14/31/3 16/32/3
f 18/33/5 17/34/5 10/35/5
f 19/26/6 12/8/6 23/36/6
f 23/36/6 12/8/6 15/23/6
f 19/37/2 20/38/2 13/39/2
f 15/28/5 20/27/5 24/40/5
f 17/41/2 21/42/2 16/43/2
f 14/31/3 21/30/3 22/44/3
f 17/34/5 18/33/5 25/45/5
f 22/21/1 26/46/1 18/14/1
f 27/47/3 19/48/3 23/49/3
f 15/50/4 27/51/4 23/52/4
f 20/38/2 19/37/2 28/53/2
f 20/16/6 29/54/6 24/23/6
f 27/51/4 15/50/4 24/55/4
f 21/42/2 17/41/2 25/56/2
f 26/46/1 22/21/1 21/24/1
f 18/14/1 30/57/1 25/25/1
f 30/57/1 18/14/1 26/46/1
f 19/48/3 27/47/3 28/58/3
f 29/54/6 20/16/6 28/26/6
f 24/23/6 29/54/6 31/59/6
f 24/23/6 31/59/6 27/36/6
f 25/25/1 32/60/1 21/24/1
f 26/46/1 21/24/1 33/61/1
f 25/25/1 30/57/1 34/62/1
f 35/63/2 30/64/2 26/65/2
f 36/66/6 28/26/6 27/36/6
f 28/26/6 36/66/6 29/54/6
f 37/67/3 31/68/3 29/69/3
f 38/70/6 27/36/6 31/59/6
f 25/25/1 39/71/1 32/60/1
f 40/72/1 21/24/1 32/60/1
f 33/61/1 21/24/1 41/73/1
f 42/74/5 26/75/5 33/76/5
f 43/77/3 34/78/3 30/79/3
f 25/25/1 34/62/1 44/80/1
f 30/64/2 35/63/2 43/81/2
f 26/75/5 42/74/5 35/82/5
f 36/66/6 27/36/6 38/70/6
f 36/83/4 37/84/4 29/85/4
f 31/68/3 37/67/3 45/86/3
f 31/87/2 46/88/2 38/89/2
f 25/25/1 47/90/1 39/71/1
f 39/91/3 48/92/3 32/93/3
f 49/94/1 21/24/1 40/72/1
f 48/95/4 40/96/4 32/97/4
f 41/73/1 21/24/1 50/98/1
f 44/80/1 33/61/1 41/73/1
f 34/97/4 42/99/4 33/96/4
f 34/78/3 43/77/3 51/100/3
f 44/80/1 34/62/1 33/61/1
f 25/25/1 44/80/1 47/90/1
f 35/101/6 52/66/6 43/102/6
f 45/59/6 35/101/6 42/103/6
f 46/104/5 36/105/5 38/106/5
f 37/84/4 36/83/4 52/107/4
f 37/54/6 35/101/6 45/59/6
f 46/88/2 31/87/2 45/108/2
f 39/71/1 47/90/1 49/94/1
f 48/92/3 39/91/3 53/109/3
f 50/98/1 21/24/1 49/94/1
f 54/110/5 49/111/5 40/112/5
f 40/96/4 48/95/4 54/113/4
f 55/114/5 41/115/5 50/116/5
f 56/63/2 44/64/2 41/65/2
f 42/99/4 34/97/4 51/117/4
f 43/102/6 46/70/6 51/118/6
f 57/119/3 47/120/3 44/121/3
f 35/101/6 37/54/6 52/66/6
f 46/70/6 43/102/6 52/66/6
f 45/59/6 42/103/6 56/122/6
f 36/105/5 46/104/5 52/123/5
f 45/59/6 58/124/6 46/70/6
f 50/98/1 49/94/1 47/90/1
f 49/65/2 53/125/2 39/64/2
f 53/109/3 59/126/3 48/92/3
f 49/111/5 54/110/5 60/127/5
f 48/95/4 58/99/4 54/113/4
f 41/115/5 55/114/5 56/128/5
f 47/97/4 55/99/4 50/96/4
f 44/64/2 56/63/2 57/81/2
f 51/118/6 57/129/6 42/103/6
f 51/118/6 46/70/6 57/129/6
f 47/120/3 57/119/3 61/130/3
f 56/122/6 42/103/6 57/129/6
f 45/59/6 56/122/6 55/131/6
f 45/59/6 62/132/6 58/124/6
f 59/133/6 46/70/6 58/124/6
f 53/125/2 49/65/2 60/134/2
f 59/126/3 53/109/3 63/135/3
f 58/99/4 48/95/4 59/117/4
f 58/136/5 60/127/5 54/110/5
f 55/99/4 47/97/4 61/117/4
f 57/129/6 46/70/6 61/137/6
f 45/59/6 55/131/6 62/132/6
f 60/127/5 58/136/5 62/138/5
f 63/139/6 46/70/6 59/133/6
f 62/63/2 53/125/2 60/134/2
f 53/125/2 62/63/2 63/81/2
f 61/137/6 63/139/6 55/131/6
f 61/137/6 46/70/6 63/139/6
f 62/132/6 55/131/6 63/139/6
usemtl material-1
f 5//6 3//6 1//6
f 2//5 7//5 4//5
f 5//3 1//3 9//3
f 6//3 9//3 1//3
f 11//5 4//5 7//5
f 5//2 9//2 7//2
f 6//6 14//6 9//6
f 11//6 10//6 4//6
f 11//2 7//2 9//2
f 15//1 13//1 8//1
f 16//6 9//6 14//6
f 17//6 10//6 11//6
f 9//6 17//6 11//6
f 13//3 15//3 20//3
f 17//6 9//6 16//6
f 16//5 14//5 21//5
f 10//3 17//3 18//3
f 23//1 12//1 19//1
f 15//1 12//1 23//1
f 13//4 20//4 19//4
f 24//3 20//3 15//3
f 16//4 21//4 17//4
f 22//5 21//5 14//5
f 25//3 18//3 17//3
f 18//6 26//6 22//6
f 23//5 19//5 27//5
f 23//2 27//2 15//2
f 28//4 19//4 20//4
f 24//1 29//1 20//1
f 24//2 15//2 27//2
f 25//4 17//4 21//4
f 21//6 22//6 26//6
f 25//6 30//6 18//6
f 26//6 18//6 30//6
f 28//5 27//5 19//5
f 28//1 20//1 29//1
f 31//1 29//1 24//1
f 27//1 31//1 24//1
f 21//6 32//6 25//6
f 33//6 21//6 26//6
f 34//6 30//6 25//6
f 26//4 30//4 35//4
f 27//1 28//1 36//1
f 29//1 36//1 28//1
f 29//5 31//5 37//5
f 31//1 27//1 38//1
f 32//6 39//6 25//6
f 32//6 21//6 40//6
f 41//6 21//6 33//6
f 33//3 26//3 42//3
f 30//5 34//5 43//5
f 44//6 34//6 25//6
f 43//4 35//4 30//4
f 35//3 42//3 26//3
f 38//1 27//1 36//1
f 29//2 37//2 36//2
f 45//5 37//5 31//5
f 38//4 46//4 31//4
f 39//6 47//6 25//6
f 32//5 48//5 39//5
f 40//6 21//6 49//6
f 32//2 40//2 48//2
f 50//6 21//6 41//6
f 41//6 33//6 44//6
f 33//2 42//2 34//2
f 51//5 43//5 34//5
f 33//6 34//6 44//6
f 47//6 44//6 25//6
f 43//1 52//1 35//1
f 42//1 35//1 45//1
f 38//3 36//3 46//3
f 52//2 36//2 37//2
f 45//1 35//1 37//1
f 45//4 31//4 46//4
f 49//6 47//6 39//6
f 53//5 39//5 48//5
f 49//6 21//6 50//6
f 40//3 49//3 54//3
f 54//2 48//2 40//2
f 50//3 41//3 55//3
f 41//4 44//4 56//4
f 51//2 34//2 42//2
f 51//1 46//1 43//1
f 44//5 47//5 57//5
f 52//1 37//1 35//1
f 52//1 43//1 46//1
f 56//1 42//1 45//1
f 52//3 46//3 36//3
f 46//1 58//1 45//1
f 47//6 49//6 50//6
f 39//4 53//4 49//4
f 48//5 59//5 53//5
f 60//3 54//3 49//3
f 54//2 58//2 48//2
f 56//3 55//3 41//3
f 50//2 55//2 47//2
f 57//4 56//4 44//4
f 42//1 57//1 51//1
f 57//1 46//1 51//1
f 61//5 57//5 47//5
f 57//1 42//1 56//1
f 55//1 56//1 45//1
f 58//1 62//1 45//1
f 58//1 46//1 59//1
f 60//4 49//4 53//4
f 63//5 53//5 59//5
f 59//2 48//2 58//2
f 54//3 60//3 58//3
f 61//2 47//2 55//2
f 61//1 46//1 57//1
f 62//1 55//1 45//1
f 62//3 58//3 60//3
f 59//1 46//1 63//1
f 60//4 53//4 62//4
f 63//4 62//4 53//4
f 55//1 63//1 61//1
f 63//1 46//1 61//1
f 63//1 55//1 62//1