mtllib new-0.mtl
v 0.464160 -0.898749 0.045043
v 0.430562 -0.876972 0.045043
v -0.428191 -0.876972 0.045043
v 0.464160 0.901681 0.045043
v -0.428191 -0.876972 0.039599
v -0.461790 -0.898749 0.045043
v 0.464160 -0.898749 -0.046136
v 0.430562 0.879904 0.045043
v 0.430562 -0.876972 0.039599
v -0.428191 0.879904 0.045043
v -0.461790 0.901681 0.045043
v 0.464160 0.901681 -0.046136
v -0.419791 -0.871528 0.039599
v -0.461790 0.901681 -0.046136
v -0.461790 -0.898749 -0.046136
v 0.430562 -0.876972 -0.046136
v 0.422162 -0.871528 0.039599
v 0.430562 0.879904 -0.046136
v -0.419791 -0.871528 0.045043
v -0.428191 -0.876972 -0.046136
v 0.422162 -0.871528 0.045043
vn 0.000000 0.000000 1.000000
vn 0.000000 1.000000 0.000000
vn 1.000000 0.000000 0.000000
vn 0.000000 -1.000000 0.000000
vn -1.000000 0.000000 0.000000
vn 0.000000 0.000000 -1.000000
vt 1.065603 0.000000
vt 1.026937 0.013762
vt 0.038666 0.013762
vt 1.065603 1.137773
vt 1.026937 0.053276
vt 0.038666 0.056889
vt 0.038666 0.053276
vt 0.000000 0.000000
vt 0.236890 0.000000
vt 0.110924 1.137773
vt 0.110924 0.000000
vt 1.026937 1.124012
vt 1.026937 0.056889
vt 0.000000 1.137773
vt 0.000000 0.053276
vt -1.065603 0.113777
vt -1.065603 0.053276
vt 0.236890 1.137773
vt 0.038666 1.124012
vt 0.048333 0.017202
vt -0.236890 1.137773
vt -0.110924 0.000000
vt -0.110924 1.137773
vt 0.000000 0.113777
vt -1.065603 0.000000
vt -1.026937 0.013762
vt -1.065603 1.137773
vt 1.065603 0.113777
vt 1.065603 0.053276
vt 1.017270 0.017202
vt -0.236890 0.000000
vt -1.026937 1.124012
vt -1.017270 0.056889
vt -0.048333 0.053276
vt -0.048333 0.056889
vt -0.038666 0.013762
vt -1.017270 0.053276
usemtl material-0
f 1/1/1 2/2/1 3/3/1
f 2/2/1 1/1/1 4/4/1
f 2/5/2 5/6/2 3/7/2
f 3/3/1 6/8/1 1/1/1
f 7/9/3 4/10/3 1/11/3
f 5/6/2 2/5/2 9/13/2
f 6/8/1 3/3/1 11/14/1
f 6/15/4 7/16/4 1/17/4
f 4/10/3 7/9/3 12/18/3
f 8/12/1 4/4/1 10/19/1
f 13/20/1 5/3/1 9/2/1
f 11/14/1 3/3/1 10/19/1
f 14/21/5 6/22/5 11/23/5
f 7/16/4 6/15/4 15/24/4
f 7/25/6 16/26/6 12/27/6
f 12/28/2 11/15/2 4/29/2
f 11/14/1 10/19/1 4/4/1
f 13/20/1 9/2/1 17/30/1
f 6/22/5 14/21/5 15/31/5
f 11/15/2 12/28/2 14/24/2
f 16/26/6 7/25/6 15/8/6
f 17/33/4 19/34/4 13/35/4
f 20/36/6 15/8/6 14/14/6
f 12/27/6 18/32/6 14/14/6
f 15/8/6 20/36/6 16/26/6
f 19/34/4 17/33/4 21/37/4
usemtl material-1
f 3//6 2//6 1//6
f 4//6 1//6 2//6
f 3//4 5//4 2//4
f 1//6 6//6 3//6
f 1//5 4//5 7//5
f 9//4 2//4 5//4
f 11//6 3//6 6//6
f 1//2 7//2 6//2
f 12//5 7//5 4//5
f 10//6 4//6 8//6
f 9//6 5//6 13//6
f 10//6 3//6 11//6
f 11//3 6//3 14//3
f 15//2 6//2 7//2
f 12//1 16//1 7//1
f 4//4 11//4 12//4
f 4//6 10//6 11//6
f 17//6 9//6 13//6
f 15//3 14//3 6//3
f 14//4 12//4 11//4
f 15//1 7//1 16//1
f 13//2 19//2 17//2
f 14//1 15//1 20//1
f 14//1 18//1 12//1
f 16//1 20//1 15//1
f 21//2 17//2 19//2