# SSTK version 0.8.0
# 2
mtllib original-2.mtl
o Group2/mesh2/mesh2-geometry#mesh2-geometry
v -0.197233 0.438713 -0.022323
v -0.163634 0.460490 -0.022323
v 0.199603 0.438713 -0.022323
v -0.197233 0.730212 -0.022323
v 0.166004 0.460490 -0.022323
v -0.197233 0.438713 0.021230
v -0.163634 0.708435 -0.022323
v 0.199603 0.730212 -0.022323
v -0.163634 0.460490 -0.000546
v 0.199603 0.438713 0.021230
v -0.197233 0.730212 0.021230
v 0.166004 0.708435 -0.022323
v 0.199603 0.730212 0.021230
v 0.166004 0.460490 -0.000546
v 0.166004 0.460490 0.021230
v -0.163634 0.460490 0.021230
v -0.163634 0.708435 -0.000546
v 0.166004 0.708435 -0.000546
v -0.163634 0.708435 0.021230
v 0.166004 0.708435 0.021230
vn 0 0 -1
vn 0 -1 0
vn -1 0 0
vn 0 1 0
vn 1 0 0
vn 0 0 1
usemtl material_0_0
f 1//1 2//1 3//1
f 2//1 1//1 4//1
f 5//1 3//1 2//1
f 3//2 6//2 1//2
f 6//3 4//3 1//3
f 2//1 4//1 7//1
f 3//1 5//1 8//1
f 9//4 5//4 2//4
f 6//2 3//2 10//2
f 4//3 6//3 11//3
f 7//1 4//1 12//1
f 7//5 9//5 2//5
f 8//1 5//1 12//1
f 13//5 3//5 8//5
f 5//4 9//4 14//4
f 3//5 13//5 10//5
f 10//6 15//6 6//6
f 6//6 16//6 11//6
f 13//4 4//4 11//4
f 8//1 12//1 4//1
f 12//2 17//2 7//2
f 9//5 7//5 17//5
f 14//3 12//3 5//3
f 4//4 13//4 8//4
f 9//4 15//4 14//4
f 15//6 10//6 13//6
f 16//6 6//6 15//6
f 11//6 16//6 19//6
f 11//6 19//6 13//6
f 17//2 12//2 18//2
f 17//5 16//5 9//5
f 12//3 14//3 18//3
f 15//3 18//3 14//3
f 15//4 9//4 16//4
f 15//6 13//6 20//6
f 16//5 17//5 19//5
f 20//6 13//6 19//6
f 20//2 17//2 18//2
f 18//3 15//3 20//3
f 17//2 20//2 19//2
usemtl material_1_0
f 3//6 2//6 1//6
f 4//6 1//6 2//6
f 2//6 3//6 5//6
f 1//4 6//4 3//4
f 1//5 4//5 6//5
f 7//6 4//6 2//6
f 8//6 5//6 3//6
f 2//2 5//2 9//2
f 10//4 3//4 6//4
f 11//5 6//5 4//5
f 12//6 4//6 7//6
f 2//3 9//3 7//3
f 12//6 5//6 8//6
f 8//3 3//3 13//3
f 14//2 9//2 5//2
f 10//3 13//3 3//3
f 6//1 15//1 10//1
f 11//1 16//1 6//1
f 11//2 4//2 13//2
f 4//6 12//6 8//6
f 7//4 17//4 12//4
f 17//3 7//3 9//3
f 5//5 12//5 14//5
f 8//2 13//2 4//2
f 14//2 15//2 9//2
f 13//1 10//1 15//1
f 15//1 6//1 16//1
f 19//1 16//1 11//1
f 13//1 19//1 11//1
f 18//4 12//4 17//4
f 9//3 16//3 17//3
f 18//5 14//5 12//5
f 14//5 18//5 15//5
f 16//2 9//2 15//2
f 20//1 13//1 15//1
f 19//3 17//3 16//3
f 19//1 13//1 20//1
f 18//4 17//4 20//4
f 20//5 15//5 18//5
f 19//4 20//4 17//4
usemtl material_2_0
f 18//6 9//6 14//6
f 14//1 9//1 18//1
f 9//6 18//6 17//6
f 17//1 18//1 9//1
