# SSTK version 0.8.0
# 2
mtllib original-2.mtl
o Slide_switch2/Slide_switch/mesh1/mesh1-geometry#mesh1-geometry
v 0.234617 -0.051777 0.579287
v 0.248231 -0.042133 0.359032
v 0.234617 -0.051777 0.359032
v 0.248231 -0.042133 0.579287
v 0.248231 -0.211133 0.359032
v 0.219524 -0.058887 0.579287
v 0.248231 -0.211133 0.579287
v 0.259945 -0.030254 0.579287
v 0.234617 -0.201489 0.359032
v 0.259945 -0.223013 0.359032
v 0.219524 -0.058887 0.359032
v 0.234617 -0.201489 0.579287
v 0.259945 -0.223013 0.579287
v 0.259945 -0.030254 0.359032
v 0.219524 -0.194380 0.359032
v 0.203419 -0.063243 0.579287
v 0.219524 -0.194380 0.579287
v 0.269396 -0.016506 0.579287
v 0.269396 -0.236761 0.579287
v 0.269396 -0.016506 0.359032
v 0.203419 -0.190023 0.359032
v 0.203419 -0.063243 0.359032
v 0.203419 -0.190023 0.579287
v 0.269396 -0.236761 0.359032
v 0.186800 -0.064710 0.579287
v 0.186800 -0.188557 0.579287
v 0.283162 -0.016506 0.359032
v 0.283162 -0.236761 0.579287
v 0.283162 -0.236761 0.359032
v 0.186800 -0.188557 0.359032
v 0.186800 -0.064710 0.359032
v 0.283162 -0.016506 0.579287
v 0.170181 -0.063243 0.579287
v 0.170181 -0.190023 0.579287
v 0.170181 -0.190023 0.359032
v 0.170181 -0.063243 0.359032
v 0.154077 -0.058887 0.359032
v 0.154077 -0.058887 0.579287
v 0.154077 -0.194380 0.359032
v 0.154077 -0.194380 0.579287
v 0.138984 -0.051777 0.359032
v 0.138984 -0.201489 0.579287
v 0.138984 -0.201489 0.359032
v 0.138984 -0.051777 0.579287
v 0.125370 -0.042133 0.359032
v 0.125370 -0.211133 0.359032
v 0.125370 -0.042133 0.579287
v 0.125370 -0.211133 0.579287
v 0.113656 -0.030254 0.579287
v 0.113656 -0.030254 0.359032
v 0.113656 -0.223013 0.359032
v 0.113656 -0.223013 0.579287
v 0.104205 -0.016506 0.579287
v 0.104205 -0.016506 0.359032
v 0.104205 -0.236761 0.359032
v 0.104205 -0.236761 0.579287
v 0.090439 -0.016506 0.579287
v 0.090439 -0.236761 0.359032
v 0.090439 -0.016506 0.359032
v 0.090439 -0.236761 0.579287
vn -0.5040540608645315 0.8636721042884129 0
vn -0.6475623781804246 0.7620124450199699 0
vn 0 0 -1
vn -0.34495507258096963 0.9386191974920703 0
vn 0 0 1
vn -0.7710421432519332 0.6367841183081324 0
vn -0.6475623781804246 -0.7620124450199699 0
vn -0.5040540608645315 -0.8636721042884129 0
vn -0.7710421432519332 -0.6367841183081324 0
vn -0.17518703055314636 0.9845351717059025 0
vn -0.8240505023594686 0.5665163453609329 0
vn -0.34495507258096963 -0.9386191974920703 0
vn -0.8240505023594686 -0.5665163453609329 0
vn -0.17518703055314636 -0.9845351717059025 0
vn 0 1 0
vn 0 -1 0
vn 0.17518703055314636 0.9845351717059025 0
vn 1 0 0
vn 0.17518703055314636 -0.9845351717059025 0
vn 0.34495507258096963 0.9386191974920703 0
vn 0.34495507258096963 -0.9386191974920703 0
vn 0.5040540608645315 0.8636721042884129 0
vn 0.5040540608645315 -0.8636721042884129 0
vn 0.6475623781804246 0.7620124450199699 0
vn 0.6475623781804246 -0.7620124450199699 0
vn 0.7710421432519332 0.6367841183081324 0
vn 0.7710421432519332 -0.6367841183081324 0
vn 0.8240505023594686 0.5665163453609329 0
vn 0.8240505023594686 -0.5665163453609329 0
vn -1 0 0
usemtl material_0_0
f 1//1 2//2 3//1
f 2//2 1//1 4//2
f 5//3 3//3 2//3
f 3//1 6//4 1//1
f 1//5 7//5 4//5
f 8//6 2//2 4//2
f 9//3 3//3 5//3
f 5//3 2//3 10//3
f 6//4 3//1 11//4
f 6//5 12//5 1//5
f 1//5 12//5 7//5
f 4//5 7//5 13//5
f 2//2 8//6 14//6
f 4//5 13//5 8//5
f 15//3 3//3 9//3
f 5//7 12//8 9//8
f 10//3 2//3 14//3
f 10//9 7//7 5//7
f 15//3 11//3 3//3
f 11//4 16//10 6//4
f 6//5 17//5 12//5
f 12//8 5//7 7//7
f 7//7 10//9 13//9
f 18//11 14//6 8//6
f 8//5 13//5 19//5
f 9//8 17//12 15//12
f 17//12 9//8 12//8
f 10//3 14//3 20//3
f 21//3 11//3 15//3
f 16//10 11//4 22//10
f 16//5 23//5 6//5
f 6//5 23//5 17//5
f 24//13 13//9 10//9
f 14//6 18//11 20//11
f 8//5 19//5 18//5
f 13//9 24//13 19//13
f 23//14 15//12 17//12
f 10//3 20//3 24//3
f 21//3 22//3 11//3
f 15//12 23//14 21//14
f 22//10 25//15 16//10
f 16//5 26//5 23//5
f 18//15 27//15 20//15
f 18//5 19//5 28//5
f 24//16 28//16 19//16
f 24//3 20//3 29//3
f 30//3 22//3 21//3
f 26//16 21//14 23//14
f 25//15 22//10 31//15
f 25//5 26//5 16//5
f 27//15 18//15 32//15
f 29//3 20//3 27//3
f 18//5 28//5 32//5
f 28//16 24//16 29//16
f 30//3 31//3 22//3
f 21//14 26//16 30//16
f 31//15 33//17 25//15
f 25//5 34//5 26//5
f 32//18 29//18 27//18
f 29//18 32//18 28//18
f 35//3 31//3 30//3
f 26//16 35//19 30//16
f 33//17 31//15 36//17
f 33//5 34//5 25//5
f 35//19 26//16 34//19
f 35//3 36//3 31//3
f 37//20 33//17 36//17
f 38//5 34//5 33//5
f 34//19 39//21 35//19
f 35//3 37//3 36//3
f 33//17 37//20 38//20
f 38//5 40//5 34//5
f 39//21 34//19 40//21
f 39//3 37//3 35//3
f 41//22 38//20 37//20
f 38//5 42//5 40//5
f 40//21 43//23 39//21
f 43//3 37//3 39//3
f 38//20 41//22 44//22
f 43//3 41//3 37//3
f 44//5 42//5 38//5
f 43//23 40//21 42//23
f 45//24 44//22 41//22
f 46//3 41//3 43//3
f 47//5 42//5 44//5
f 42//23 46//25 43//23
f 44//22 45//24 47//24
f 46//3 45//3 41//3
f 47//5 48//5 42//5
f 46//25 42//23 48//25
f 45//24 49//26 47//24
f 46//3 50//3 45//3
f 49//5 48//5 47//5
f 48//25 51//27 46//25
f 49//26 45//24 50//26
f 51//3 50//3 46//3
f 49//5 52//5 48//5
f 51//27 48//25 52//27
f 50//26 53//28 49//26
f 51//3 54//3 50//3
f 53//5 52//5 49//5
f 52//27 55//29 51//27
f 53//28 50//26 54//28
f 55//3 54//3 51//3
f 53//5 56//5 52//5
f 55//29 52//27 56//29
f 54//15 57//15 53//15
f 58//3 54//3 55//3
f 57//5 56//5 53//5
f 56//16 58//16 55//16
f 57//15 54//15 59//15
f 54//3 58//3 59//3
f 56//5 57//5 60//5
f 58//16 56//16 60//16
f 58//30 57//30 59//30
f 57//30 58//30 60//30
usemtl material_1_0
f 3//23 2//25 1//23
f 4//25 1//23 2//25
f 2//5 3//5 5//5
f 1//23 6//21 3//23
f 4//3 7//3 1//3
f 4//25 2//25 8//27
f 5//5 3//5 9//5
f 10//5 2//5 5//5
f 11//21 3//23 6//21
f 1//3 12//3 6//3
f 7//3 12//3 1//3
f 13//3 7//3 4//3
f 14//27 8//27 2//25
f 8//3 13//3 4//3
f 9//5 3//5 15//5
f 9//22 12//22 5//24
f 14//5 2//5 10//5
f 5//24 7//24 10//26
f 3//5 11//5 15//5
f 6//21 16//19 11//21
f 12//3 17//3 6//3
f 7//24 5//24 12//22
f 13//26 10//26 7//24
f 8//27 14//27 18//29
f 19//3 13//3 8//3
f 15//20 17//20 9//22
f 12//22 9//22 17//20
f 20//5 14//5 10//5
f 15//5 11//5 21//5
f 22//19 11//21 16//19
f 6//3 23//3 16//3
f 17//3 23//3 6//3
f 10//26 13//26 24//28
f 20//29 18//29 14//27
f 18//3 19//3 8//3
f 19//28 24//28 13//26
f 17//20 15//20 23//17
f 24//5 20//5 10//5
f 11//5 22//5 21//5
f 21//17 23//17 15//20
f 16//19 25//16 22//19
f 23//3 26//3 16//3
f 20//16 27//16 18//16
f 28//3 19//3 18//3
f 19//15 28//15 24//15
f 29//5 20//5 24//5
f 21//5 22//5 30//5
f 23//17 21//17 26//15
f 31//16 22//19 25//16
f 16//3 26//3 25//3
f 32//16 18//16 27//16
f 27//5 20//5 29//5
f 32//3 28//3 18//3
f 29//15 24//15 28//15
f 22//5 31//5 30//5
f 30//15 26//15 21//17
f 25//16 33//14 31//16
f 26//3 34//3 25//3
f 27//30 29//30 32//30
f 28//30 32//30 29//30
f 30//5 31//5 35//5
f 30//15 35//10 26//15
f 36//14 31//16 33//14
f 25//3 34//3 33//3
f 34//10 26//15 35//10
f 31//5 36//5 35//5
f 36//14 33//14 37//12
f 33//3 34//3 38//3
f 35//10 39//4 34//10
f 36//5 37//5 35//5
f 38//12 37//12 33//14
f 34//3 40//3 38//3
f 40//4 34//10 39//4
f 35//5 37//5 39//5
f 37//12 38//12 41//8
f 40//3 42//3 38//3
f 39//4 43//1 40//4
f 39//5 37//5 43//5
f 44//8 41//8 38//12
f 37//5 41//5 43//5
f 38//3 42//3 44//3
f 42//1 40//4 43//1
f 41//8 44//8 45//7
f 43//5 41//5 46//5
f 44//3 42//3 47//3
f 43//1 46//2 42//1
f 47//7 45//7 44//8
f 41//5 45//5 46//5
f 42//3 48//3 47//3
f 48//2 42//1 46//2
f 47//7 49//9 45//7
f 45//5 50//5 46//5
f 47//3 48//3 49//3
f 46//2 51//6 48//2
f 50//9 45//7 49//9
f 46//5 50//5 51//5
f 48//3 52//3 49//3
f 52//6 48//2 51//6
f 49//9 53//13 50//9
f 50//5 54//5 51//5
f 49//3 52//3 53//3
f 51//6 55//11 52//6
f 54//13 50//9 53//13
f 51//5 54//5 55//5
f 52//3 56//3 53//3
f 56//11 52//6 55//11
f 53//16 57//16 54//16
f 55//5 54//5 58//5
f 53//3 56//3 57//3
f 55//15 58//15 56//15
f 59//16 54//16 57//16
f 59//5 58//5 54//5
f 60//3 57//3 56//3
f 60//15 56//15 58//15
f 59//18 57//18 58//18
f 60//18 58//18 57//18
