# SSTK version 0.8.0
# 19
mtllib original-19.mtl
o #ID70
v -0.000427 -0.365320 0.328951
v -0.000033 -0.372194 0.309659
v -0.000033 -0.372194 0.328951
v -0.000427 -0.365320 0.309659
v -0.000033 -0.372194 0.328951
v -0.000410 -0.378990 0.309659
v -0.000410 -0.378990 0.328951
v -0.000033 -0.372194 0.309659
v -0.001610 -0.359283 0.328951
v -0.000427 -0.365320 0.309659
v -0.000427 -0.365320 0.328951
v -0.001610 -0.359283 0.309659
v -0.000410 -0.378990 0.328951
v -0.001542 -0.384938 0.309659
v -0.001542 -0.384938 0.328951
v -0.000410 -0.378990 0.309659
v -0.003507 -0.354146 0.328951
v -0.001610 -0.359283 0.309659
v -0.001610 -0.359283 0.328951
v -0.003507 -0.354146 0.309659
v -0.001542 -0.384938 0.328951
v -0.003428 -0.390040 0.309659
v -0.003428 -0.390040 0.328951
v -0.001542 -0.384938 0.309659
v -0.006045 -0.349970 0.328951
v -0.003507 -0.354146 0.309659
v -0.003507 -0.354146 0.328951
v -0.006045 -0.349970 0.309659
v -0.003428 -0.390040 0.328951
v -0.006069 -0.394295 0.309659
v -0.006069 -0.394295 0.328951
v -0.003428 -0.390040 0.309659
v -0.009254 -0.346650 0.328951
v -0.006045 -0.349970 0.309659
v -0.006045 -0.349970 0.328951
v -0.009254 -0.346650 0.309659
v -0.006069 -0.394295 0.328951
v -0.009348 -0.397647 0.309659
v -0.009348 -0.397647 0.328951
v -0.006069 -0.394295 0.309659
v -0.009254 -0.346650 0.328951
v -0.013067 -0.344278 0.309659
v -0.009254 -0.346650 0.309659
v -0.013067 -0.344278 0.328951
v -0.013147 -0.400042 0.328951
v -0.009348 -0.397647 0.309659
v -0.013147 -0.400042 0.309659
v -0.009348 -0.397647 0.328951
v -0.013067 -0.344278 0.328951
v -0.017434 -0.342856 0.309659
v -0.013067 -0.344278 0.309659
v -0.017434 -0.342856 0.328951
v -0.017466 -0.401478 0.328951
v -0.013147 -0.400042 0.309659
v -0.017466 -0.401478 0.309659
v -0.013147 -0.400042 0.328951
v -0.017434 -0.342856 0.328951
v -0.022306 -0.342381 0.309659
v -0.017434 -0.342856 0.309659
v -0.022306 -0.342381 0.328951
v -0.022306 -0.401957 0.328951
v -0.017466 -0.401478 0.309659
v -0.022306 -0.401957 0.309659
v -0.017466 -0.401478 0.328951
v -0.022306 -0.342381 0.328951
v -0.027289 -0.342843 0.309659
v -0.022306 -0.342381 0.309659
v -0.027289 -0.342843 0.328951
v -0.027147 -0.401478 0.328951
v -0.022306 -0.401957 0.309659
v -0.027147 -0.401478 0.309659
v -0.022306 -0.401957 0.328951
v -0.027289 -0.342843 0.328951
v -0.031595 -0.344229 0.309659
v -0.027289 -0.342843 0.309659
v -0.031595 -0.344229 0.328951
v -0.031472 -0.400042 0.328951
v -0.027147 -0.401478 0.309659
v -0.031472 -0.400042 0.309659
v -0.027147 -0.401478 0.328951
v -0.031595 -0.344229 0.328951
v -0.035334 -0.346588 0.309659
v -0.031595 -0.344229 0.309659
v -0.035334 -0.346588 0.328951
v -0.035278 -0.397647 0.328951
v -0.031472 -0.400042 0.309659
v -0.035278 -0.397647 0.309659
v -0.031472 -0.400042 0.328951
v -0.035334 -0.346588 0.309659
v -0.038617 -0.349970 0.328951
v -0.038617 -0.349970 0.309659
v -0.035334 -0.346588 0.328951
v -0.038567 -0.394295 0.309659
v -0.035278 -0.397647 0.328951
v -0.035278 -0.397647 0.309659
v -0.038567 -0.394295 0.328951
v -0.038617 -0.349970 0.309659
v -0.041185 -0.354195 0.328951
v -0.041185 -0.354195 0.309659
v -0.038617 -0.349970 0.328951
v -0.041219 -0.390040 0.309659
v -0.038567 -0.394295 0.328951
v -0.038567 -0.394295 0.309659
v -0.041219 -0.390040 0.328951
v -0.041185 -0.354195 0.309659
v -0.043076 -0.359382 0.328951
v -0.043076 -0.359382 0.309659
v -0.041185 -0.354195 0.328951
v -0.043113 -0.384938 0.309659
v -0.041219 -0.390040 0.328951
v -0.041219 -0.390040 0.309659
v -0.043113 -0.384938 0.328951
v -0.043076 -0.359382 0.309659
v -0.044241 -0.365418 0.328951
v -0.044241 -0.365418 0.309659
v -0.043076 -0.359382 0.328951
v -0.044250 -0.378990 0.309659
v -0.043113 -0.384938 0.328951
v -0.043113 -0.384938 0.309659
v -0.044250 -0.378990 0.328951
v -0.044241 -0.365418 0.309659
v -0.044629 -0.372194 0.328951
v -0.044629 -0.372194 0.309659
v -0.044241 -0.365418 0.328951
v -0.044629 -0.372194 0.309659
v -0.044250 -0.378990 0.328951
v -0.044250 -0.378990 0.309659
v -0.044629 -0.372194 0.328951
vn -0.9983596674050703 -0.05725359813004978 0
vn -0.998462440682581 0.05543243225931412 0
vn -0.9813433966646478 -0.19226319934582392 0
vn -0.982376394903044 0.18691339903093812 0
vn -0.938073981848044 -0.3464349932956475 0
vn -0.9379364474733974 0.34680718057875126 0
vn -0.8545877708769387 -0.5193069823019759 0
vn -0.8496354181803774 0.5273705112854297 0
vn -0.7190106029077489 -0.6949991028096623 0
vn -0.7149446029785483 0.6991811029138629 0
vn -0.5281480162413387 -0.849152326111363 0
vn -0.5332316011242416 0.8459693017849276 0
vn -0.3097834160589191 -0.9508071492867871 0
vn -0.31561879089583494 0.9488860726311937 0
vn -0.09688715733465746 -0.9952953726123765 0
vn -0.09846916028982512 0.9951401029361729 0
vn 0.09231121042929642 -0.995730204638324 0
vn 0.09843813724872165 0.9951431721792607 0
vn 0.3064058863097553 -0.9519009574712767 0
vn 0.31531510970338733 0.9489870292015276 0
vn 0.5336259890226205 -0.8457205826037522 0
vn 0.5324589978615394 0.8464557965991403 0
vn 0.71748463348536 -0.6965743325104498 0
vn 0.7137963837709597 0.7003532840756163 0
vn 0.8545111147831799 -0.5194331089871025 0
vn 0.8486706203535107 0.5289217126842 0
vn 0.9394998922391837 -0.3425491971710955 0
vn 0.9374754130042436 0.3480515048272634 0
vn 0.9819062656776034 -0.18936759338140105 0
vn 0.9822360517903714 0.1876495098934792 0
vn 0.9983639407856478 -0.057179032336612604 0
vn 0.9984498932366944 0.055657979622276685 0
usemtl material_0_0
f 1//1 2//1 3//1
f 2//1 1//1 4//1
f 5//2 6//2 7//2
f 6//2 5//2 8//2
f 9//3 10//3 11//3
f 10//3 9//3 12//3
f 13//4 14//4 15//4
f 14//4 13//4 16//4
f 17//5 18//5 19//5
f 18//5 17//5 20//5
f 21//6 22//6 23//6
f 22//6 21//6 24//6
f 25//7 26//7 27//7
f 26//7 25//7 28//7
f 29//8 30//8 31//8
f 30//8 29//8 32//8
f 33//9 34//9 35//9
f 34//9 33//9 36//9
f 37//10 38//10 39//10
f 38//10 37//10 40//10
f 41//11 42//11 43//11
f 42//11 41//11 44//11
f 45//12 46//12 47//12
f 46//12 45//12 48//12
f 49//13 50//13 51//13
f 50//13 49//13 52//13
f 53//14 54//14 55//14
f 54//14 53//14 56//14
f 57//15 58//15 59//15
f 58//15 57//15 60//15
f 61//16 62//16 63//16
f 62//16 61//16 64//16
f 65//17 66//17 67//17
f 66//17 65//17 68//17
f 69//18 70//18 71//18
f 70//18 69//18 72//18
f 73//19 74//19 75//19
f 74//19 73//19 76//19
f 77//20 78//20 79//20
f 78//20 77//20 80//20
f 81//21 82//21 83//21
f 82//21 81//21 84//21
f 85//22 86//22 87//22
f 86//22 85//22 88//22
f 89//23 90//23 91//23
f 90//23 89//23 92//23
f 93//24 94//24 95//24
f 94//24 93//24 96//24
f 97//25 98//25 99//25
f 98//25 97//25 100//25
f 101//26 102//26 103//26
f 102//26 101//26 104//26
f 105//27 106//27 107//27
f 106//27 105//27 108//27
f 109//28 110//28 111//28
f 110//28 109//28 112//28
f 113//29 114//29 115//29
f 114//29 113//29 116//29
f 117//30 118//30 119//30
f 118//30 117//30 120//30
f 121//31 122//31 123//31
f 122//31 121//31 124//31
f 125//32 126//32 127//32
f 126//32 125//32 128//32
