# SSTK version 0.8.0
# 18
mtllib original-18.mtl
o #ID64
v 0.073292 -0.335482 0.309659
v 0.064175 -0.393580 0.309659
v 0.064175 -0.335482 0.309659
v 0.020811 -0.335482 0.309659
v 0.029928 -0.345584 0.309659
v 0.020811 -0.408856 0.309659
v 0.034658 -0.335482 0.309659
v 0.062352 -0.408856 0.309659
v 0.073292 -0.408856 0.309659
v 0.029928 -0.408856 0.309659
v 0.073292 -0.408856 0.328951
v 0.062352 -0.408856 0.309659
v 0.073292 -0.408856 0.309659
v 0.062352 -0.408856 0.328951
v 0.029928 -0.345584 0.328951
v 0.062352 -0.408856 0.309659
v 0.062352 -0.408856 0.328951
v 0.029928 -0.345584 0.309659
v 0.029928 -0.345584 0.309659
v 0.029928 -0.408856 0.328951
v 0.029928 -0.408856 0.309659
v 0.029928 -0.345584 0.328951
v 0.029928 -0.408856 0.328951
v 0.020811 -0.408856 0.309659
v 0.029928 -0.408856 0.309659
v 0.020811 -0.408856 0.328951
v 0.020811 -0.335482 0.328951
v 0.020811 -0.408856 0.309659
v 0.020811 -0.408856 0.328951
v 0.020811 -0.335482 0.309659
v 0.020811 -0.335482 0.328951
v 0.034658 -0.335482 0.309659
v 0.020811 -0.335482 0.309659
v 0.034658 -0.335482 0.328951
v 0.034658 -0.335482 0.309659
v 0.064175 -0.393580 0.328951
v 0.064175 -0.393580 0.309659
v 0.034658 -0.335482 0.328951
v 0.064175 -0.335482 0.328951
v 0.064175 -0.393580 0.309659
v 0.064175 -0.393580 0.328951
v 0.064175 -0.335482 0.309659
v 0.064175 -0.335482 0.328951
v 0.073292 -0.335482 0.309659
v 0.064175 -0.335482 0.309659
v 0.073292 -0.335482 0.328951
v 0.073292 -0.335482 0.309659
v 0.073292 -0.408856 0.328951
v 0.073292 -0.408856 0.309659
v 0.073292 -0.335482 0.328951
v 0.029928 -0.408856 0.328951
v 0.020811 -0.335482 0.328951
v 0.020811 -0.408856 0.328951
v 0.029928 -0.345584 0.328951
v 0.034658 -0.335482 0.328951
v 0.062352 -0.408856 0.328951
v 0.064175 -0.393580 0.328951
v 0.073292 -0.408856 0.328951
v 0.064175 -0.335482 0.328951
v 0.073292 -0.335482 0.328951
vn 0 0 -1
vn 0 -1 0
vn -0.889947330977529 -0.45606331587398286 0
vn 1 0 0
vn -1 0 0
vn 0 1 0
vn 0.8915352476926736 0.452951324229837 0
vn 0 0 1
usemtl material_0_0
f 1//1 2//1 3//1
f 4//1 5//1 6//1
f 5//1 4//1 7//1
f 5//1 7//1 8//1
f 8//1 7//1 2//1
f 8//1 2//1 9//1
f 9//1 2//1 1//1
f 10//1 6//1 5//1
f 11//2 12//2 13//2
f 12//2 11//2 14//2
f 15//3 16//3 17//3
f 16//3 15//3 18//3
f 19//4 20//4 21//4
f 20//4 19//4 22//4
f 23//2 24//2 25//2
f 24//2 23//2 26//2
f 27//5 28//5 29//5
f 28//5 27//5 30//5
f 31//6 32//6 33//6
f 32//6 31//6 34//6
f 35//7 36//7 37//7
f 36//7 35//7 38//7
f 39//5 40//5 41//5
f 40//5 39//5 42//5
f 43//6 44//6 45//6
f 44//6 43//6 46//6
f 47//4 48//4 49//4
f 48//4 47//4 50//4
f 51//8 52//8 53//8
f 52//8 51//8 54//8
f 52//8 54//8 55//8
f 55//8 54//8 56//8
f 55//8 56//8 57//8
f 57//8 56//8 58//8
f 57//8 58//8 59//8
f 59//8 58//8 60//8
