# SSTK version 0.8.0
# 1
mtllib original-1.mtl
o #ID114
v -0.122127 -0.412767 -0.539190
v -0.102835 -0.432059 -0.539190
v 0.146363 -0.412767 -0.539190
v -0.122127 -0.644271 -0.539190
v -0.102835 -0.624979 -0.539190
v 0.127071 -0.624979 -0.539190
v 0.127071 -0.432059 -0.539190
v 0.146363 -0.644271 -0.539190
v 0.146363 -0.412767 -0.539190
v 0.146363 -0.644271 -0.577774
v 0.146363 -0.412767 -0.577774
v 0.146363 -0.644271 -0.539190
v 0.146363 -0.412767 -0.539190
v -0.122127 -0.412767 -0.577774
v -0.122127 -0.412767 -0.539190
v 0.146363 -0.412767 -0.577774
v -0.122127 -0.644271 -0.539190
v -0.122127 -0.412767 -0.577774
v -0.122127 -0.644271 -0.577774
v -0.122127 -0.412767 -0.539190
v 0.146363 -0.644271 -0.577774
v -0.122127 -0.644271 -0.539190
v -0.122127 -0.644271 -0.577774
v 0.146363 -0.644271 -0.539190
v 0.146363 -0.412767 -0.577774
v 0.127071 -0.432059 -0.577774
v -0.122127 -0.412767 -0.577774
v 0.146363 -0.644271 -0.577774
v 0.127071 -0.624979 -0.577774
v -0.102835 -0.624979 -0.577774
v -0.102835 -0.432059 -0.577774
v -0.122127 -0.644271 -0.577774
vn 0 0 1
vn 1 0 0
vn 0 1 0
vn -1 0 0
vn 0 -1 0
vn 0 0 -1
usemtl material_0_0
f 1//1 2//1 3//1
f 2//1 1//1 4//1
f 2//1 4//1 5//1
f 5//1 4//1 6//1
f 3//1 7//1 8//1
f 7//1 3//1 2//1
f 8//1 7//1 6//1
f 8//1 6//1 4//1
f 9//2 10//2 11//2
f 10//2 9//2 12//2
f 13//3 14//3 15//3
f 14//3 13//3 16//3
f 17//4 18//4 19//4
f 18//4 17//4 20//4
f 21//5 22//5 23//5
f 22//5 21//5 24//5
f 25//6 26//6 27//6
f 26//6 25//6 28//6
f 26//6 28//6 29//6
f 29//6 28//6 30//6
f 27//6 31//6 32//6
f 31//6 27//6 26//6
f 32//6 31//6 30//6
f 32//6 30//6 28//6
