# SSTK version 0.8.0
# 12
mtllib original-12.mtl
o #ID32
v -0.067898 0.422312 0.309659
v -0.066179 0.400803 0.309659
v -0.066567 0.394027 0.309659
v -0.063223 0.426606 0.309659
v -0.065015 0.406839 0.309659
v -0.063124 0.412026 0.309659
v -0.057673 0.429729 0.309659
v -0.060555 0.416251 0.309659
v -0.057272 0.419633 0.309659
v -0.051334 0.431632 0.309659
v -0.053533 0.421992 0.309659
v -0.049228 0.423378 0.309659
v -0.044294 0.432266 0.309659
v -0.044245 0.423840 0.309659
v -0.037173 0.431613 0.309659
v -0.039372 0.423366 0.309659
v -0.035005 0.421943 0.309659
v -0.030792 0.429655 0.309659
v -0.031192 0.419571 0.309659
v -0.027983 0.416251 0.309659
v -0.025248 0.426513 0.309659
v -0.025445 0.412075 0.309659
v -0.023548 0.406938 0.309659
v -0.020641 0.422312 0.309659
v -0.022366 0.400901 0.309659
v -0.021971 0.394027 0.309659
v -0.076146 0.402725 0.309659
v -0.076152 0.385478 0.309659
v -0.076718 0.394027 0.309659
v -0.074452 0.377864 0.309659
v -0.074427 0.410289 0.309659
v -0.071692 0.371286 0.309659
v -0.071649 0.416793 0.309659
v -0.067947 0.365841 0.309659
v -0.066188 0.387232 0.309659
v -0.063241 0.361480 0.309659
v -0.065052 0.381283 0.309659
v -0.063158 0.376181 0.309659
v -0.057697 0.358351 0.309659
v -0.060506 0.371926 0.309659
v -0.057217 0.368574 0.309659
v -0.051365 0.356466 0.309659
v -0.053410 0.366179 0.309659
v -0.049086 0.364743 0.309659
v -0.044294 0.355837 0.309659
v -0.044245 0.364264 0.309659
v -0.037401 0.356447 0.309659
v -0.039405 0.364743 0.309659
v -0.035085 0.366179 0.309659
v -0.031112 0.358277 0.309659
v -0.031286 0.368574 0.309659
v -0.028008 0.371926 0.309659
v -0.025501 0.361387 0.309659
v -0.025367 0.376181 0.309659
v -0.020641 0.365841 0.309659
v -0.023481 0.381283 0.309659
v -0.022349 0.387232 0.309659
v -0.016921 0.416904 0.309659
v -0.016859 0.371298 0.309659
v -0.014136 0.410338 0.309659
v -0.014087 0.377914 0.309659
v -0.012399 0.402688 0.309659
v -0.012387 0.385539 0.309659
v -0.011820 0.394027 0.309659
v -0.020641 0.422312 0.309659
v -0.016921 0.416904 0.328951
v -0.016921 0.416904 0.309659
v -0.020641 0.422312 0.328951
v -0.016921 0.416904 0.309659
v -0.014136 0.410338 0.328951
v -0.014136 0.410338 0.309659
v -0.016921 0.416904 0.328951
v -0.014136 0.410338 0.309659
v -0.012399 0.402688 0.328951
v -0.012399 0.402688 0.309659
v -0.014136 0.410338 0.328951
v -0.012399 0.402688 0.309659
v -0.011820 0.394027 0.328951
v -0.011820 0.394027 0.309659
v -0.012399 0.402688 0.328951
v -0.011820 0.394027 0.309659
v -0.012387 0.385539 0.328951
v -0.012387 0.385539 0.309659
v -0.011820 0.394027 0.328951
v -0.012387 0.385539 0.309659
v -0.014087 0.377914 0.328951
v -0.014087 0.377914 0.309659
v -0.012387 0.385539 0.328951
v -0.014087 0.377914 0.309659
v -0.016859 0.371298 0.328951
v -0.016859 0.371298 0.309659
v -0.014087 0.377914 0.328951
v -0.016859 0.371298 0.309659
v -0.020641 0.365841 0.328951
v -0.020641 0.365841 0.309659
v -0.016859 0.371298 0.328951
v -0.020641 0.365841 0.328951
v -0.025501 0.361387 0.309659
v -0.020641 0.365841 0.309659
v -0.025501 0.361387 0.328951
v -0.025501 0.361387 0.328951
v -0.031112 0.358277 0.309659
v -0.025501 0.361387 0.309659
v -0.031112 0.358277 0.328951
v -0.031112 0.358277 0.328951
v -0.037401 0.356447 0.309659
v -0.031112 0.358277 0.309659
v -0.037401 0.356447 0.328951
v -0.037401 0.356447 0.328951
v -0.044294 0.355837 0.309659
v -0.037401 0.356447 0.309659
v -0.044294 0.355837 0.328951
v -0.044294 0.355837 0.328951
v -0.051365 0.356466 0.309659
v -0.044294 0.355837 0.309659
v -0.051365 0.356466 0.328951
v -0.051365 0.356466 0.328951
v -0.057697 0.358351 0.309659
v -0.051365 0.356466 0.309659
v -0.057697 0.358351 0.328951
v -0.057697 0.358351 0.328951
v -0.063241 0.361480 0.309659
v -0.057697 0.358351 0.309659
v -0.063241 0.361480 0.328951
v -0.063241 0.361480 0.328951
v -0.067947 0.365841 0.309659
v -0.063241 0.361480 0.309659
v -0.067947 0.365841 0.328951
v -0.071692 0.371286 0.328951
v -0.067947 0.365841 0.309659
v -0.067947 0.365841 0.328951
v -0.071692 0.371286 0.309659
v -0.074452 0.377864 0.328951
v -0.071692 0.371286 0.309659
v -0.071692 0.371286 0.328951
v -0.074452 0.377864 0.309659
v -0.076152 0.385478 0.328951
v -0.074452 0.377864 0.309659
v -0.074452 0.377864 0.328951
v -0.076152 0.385478 0.309659
v -0.076718 0.394027 0.328951
v -0.076152 0.385478 0.309659
v -0.076152 0.385478 0.328951
v -0.076718 0.394027 0.309659
v -0.076146 0.402725 0.328951
v -0.076718 0.394027 0.309659
v -0.076718 0.394027 0.328951
v -0.076146 0.402725 0.309659
v -0.074427 0.410289 0.328951
v -0.076146 0.402725 0.309659
v -0.076146 0.402725 0.328951
v -0.074427 0.410289 0.309659
v -0.071649 0.416793 0.328951
v -0.074427 0.410289 0.309659
v -0.074427 0.410289 0.328951
v -0.071649 0.416793 0.309659
v -0.067898 0.422312 0.328951
v -0.071649 0.416793 0.309659
v -0.071649 0.416793 0.328951
v -0.067898 0.422312 0.309659
v -0.067898 0.422312 0.328951
v -0.063223 0.426606 0.309659
v -0.067898 0.422312 0.309659
v -0.063223 0.426606 0.328951
v -0.063223 0.426606 0.328951
v -0.057673 0.429729 0.309659
v -0.063223 0.426606 0.309659
v -0.057673 0.429729 0.328951
v -0.057673 0.429729 0.328951
v -0.051334 0.431632 0.309659
v -0.057673 0.429729 0.309659
v -0.051334 0.431632 0.328951
v -0.051334 0.431632 0.328951
v -0.044294 0.432266 0.309659
v -0.051334 0.431632 0.309659
v -0.044294 0.432266 0.328951
v -0.044294 0.432266 0.328951
v -0.037173 0.431613 0.309659
v -0.044294 0.432266 0.309659
v -0.037173 0.431613 0.328951
v -0.037173 0.431613 0.328951
v -0.030792 0.429655 0.309659
v -0.037173 0.431613 0.309659
v -0.030792 0.429655 0.328951
v -0.030792 0.429655 0.328951
v -0.025248 0.426513 0.309659
v -0.030792 0.429655 0.309659
v -0.025248 0.426513 0.328951
v -0.025248 0.426513 0.328951
v -0.020641 0.422312 0.309659
v -0.025248 0.426513 0.309659
v -0.020641 0.422312 0.328951
v -0.076152 0.385478 0.328951
v -0.076146 0.402725 0.328951
v -0.076718 0.394027 0.328951
v -0.074452 0.377864 0.328951
v -0.074427 0.410289 0.328951
v -0.071692 0.371286 0.328951
v -0.071649 0.416793 0.328951
v -0.067947 0.365841 0.328951
v -0.067898 0.422312 0.328951
v -0.066567 0.394027 0.328951
v -0.066188 0.387232 0.328951
v -0.063241 0.361480 0.328951
v -0.065052 0.381283 0.328951
v -0.063158 0.376181 0.328951
v -0.057697 0.358351 0.328951
v -0.060506 0.371926 0.328951
v -0.057217 0.368574 0.328951
v -0.051365 0.356466 0.328951
v -0.053410 0.366179 0.328951
v -0.049086 0.364743 0.328951
v -0.044294 0.355837 0.328951
v -0.044245 0.364264 0.328951
v -0.037401 0.356447 0.328951
v -0.039405 0.364743 0.328951
v -0.035085 0.366179 0.328951
v -0.031112 0.358277 0.328951
v -0.031286 0.368574 0.328951
v -0.028008 0.371926 0.328951
v -0.025501 0.361387 0.328951
v -0.025367 0.376181 0.328951
v -0.020641 0.365841 0.328951
v -0.023481 0.381283 0.328951
v -0.022349 0.387232 0.328951
v -0.021971 0.394027 0.328951
v -0.066179 0.400803 0.328951
v -0.063223 0.426606 0.328951
v -0.065015 0.406839 0.328951
v -0.063124 0.412026 0.328951
v -0.057673 0.429729 0.328951
v -0.060555 0.416251 0.328951
v -0.057272 0.419633 0.328951
v -0.051334 0.431632 0.328951
v -0.053533 0.421992 0.328951
v -0.049228 0.423378 0.328951
v -0.044294 0.432266 0.328951
v -0.044245 0.423840 0.328951
v -0.037173 0.431613 0.328951
v -0.039372 0.423366 0.328951
v -0.035005 0.421943 0.328951
v -0.030792 0.429655 0.328951
v -0.031192 0.419571 0.328951
v -0.027983 0.416251 0.328951
v -0.025248 0.426513 0.328951
v -0.025445 0.412075 0.328951
v -0.023548 0.406938 0.328951
v -0.020641 0.422312 0.328951
v -0.022366 0.400901 0.328951
v -0.016859 0.371298 0.328951
v -0.016921 0.416904 0.328951
v -0.014136 0.410338 0.328951
v -0.014087 0.377914 0.328951
v -0.012399 0.402688 0.328951
v -0.012387 0.385539 0.328951
v -0.011820 0.394027 0.328951
vn 0 0 -1
vn 0.8238776306709228 0.566767721099276 0
vn 0.9206570357533932 0.39037241515990256 0
vn 0.9751791066394926 0.22141750150744857 0
vn 0.9977725801145627 0.06670740867046507 0
vn 0.9977787450404241 -0.06661513300712092 0
vn 0.9760384317613501 -0.217598207080951 0
vn 0.9223129122881242 -0.3864439051487279 0
vn 0.8219249342669785 -0.5695958237471752 0
vn 0.67559768567203 -0.737270484364183 0
vn 0.48482757479428923 -0.8746097545300348 0
vn 0.2793137934597399 -0.9601998775167229 0
vn 0.08812761930674275 -0.9961091921648579 0
vn -0.08850153360259565 -0.9960760405460963 0
vn -0.28529440904626985 -0.9584399303904967 0
vn -0.4915470202984934 -0.870851035961761 0
vn -0.6797142866934562 -0.7334769856408623 0
vn -0.8239331373882257 -0.566687025714896 0
vn -0.922154645278226 -0.38682141899304007 0
vn -0.9759635987635079 -0.21793359972382093 0
vn -0.9978105317495678 -0.0661373021043707 0
vn -0.9978379972163149 0.06572161981672295 0
vn -0.9751484476791278 0.22155248811283357 0
vn -0.9196398097445322 0.39276280416180037 0
vn -0.8270466623901069 0.5621332744371076 0
vn -0.6763835161207367 0.7365496175548186 0
vn -0.49039901392604734 0.8714980247483987 0
vn -0.28760400373643485 0.9577494124429274 0
vn -0.08975007170789932 0.9959643189534589 0
vn 0.09131241948764265 0.9958222944116651 0
vn 0.29343739738999025 0.9559782914967208 0
vn 0.49301258711971074 0.8700221772699417 0
vn 0.6737539026550277 0.7389558029118652 0
vn 0 0 1
usemtl material_0_0
f 1//1 2//1 3//1
f 2//1 1//1 4//1
f 2//1 4//1 5//1
f 5//1 4//1 6//1
f 6//1 4//1 7//1
f 6//1 7//1 8//1
f 8//1 7//1 9//1
f 9//1 7//1 10//1
f 9//1 10//1 11//1
f 11//1 10//1 12//1
f 12//1 10//1 13//1
f 12//1 13//1 14//1
f 14//1 13//1 15//1
f 14//1 15//1 16//1
f 16//1 15//1 17//1
f 17//1 15//1 18//1
f 17//1 18//1 19//1
f 19//1 18//1 20//1
f 20//1 18//1 21//1
f 20//1 21//1 22//1
f 22//1 21//1 23//1
f 23//1 21//1 24//1
f 23//1 24//1 25//1
f 25//1 24//1 26//1
f 27//1 28//1 29//1
f 28//1 27//1 30//1
f 30//1 27//1 31//1
f 30//1 31//1 32//1
f 32//1 31//1 33//1
f 32//1 33//1 34//1
f 34//1 33//1 1//1
f 34//1 1//1 3//1
f 34//1 3//1 35//1
f 34//1 35//1 36//1
f 36//1 35//1 37//1
f 36//1 37//1 38//1
f 36//1 38//1 39//1
f 39//1 38//1 40//1
f 39//1 40//1 41//1
f 39//1 41//1 42//1
f 42//1 41//1 43//1
f 42//1 43//1 44//1
f 42//1 44//1 45//1
f 45//1 44//1 46//1
f 45//1 46//1 47//1
f 47//1 46//1 48//1
f 47//1 48//1 49//1
f 47//1 49//1 50//1
f 50//1 49//1 51//1
f 50//1 51//1 52//1
f 50//1 52//1 53//1
f 53//1 52//1 54//1
f 53//1 54//1 55//1
f 55//1 54//1 56//1
f 55//1 56//1 57//1
f 55//1 57//1 26//1
f 55//1 26//1 24//1
f 55//1 24//1 58//1
f 55//1 58//1 59//1
f 59//1 58//1 60//1
f 59//1 60//1 61//1
f 61//1 60//1 62//1
f 61//1 62//1 63//1
f 63//1 62//1 64//1
f 65//2 66//2 67//2
f 66//2 65//2 68//2
f 69//3 70//3 71//3
f 70//3 69//3 72//3
f 73//4 74//4 75//4
f 74//4 73//4 76//4
f 77//5 78//5 79//5
f 78//5 77//5 80//5
f 81//6 82//6 83//6
f 82//6 81//6 84//6
f 85//7 86//7 87//7
f 86//7 85//7 88//7
f 89//8 90//8 91//8
f 90//8 89//8 92//8
f 93//9 94//9 95//9
f 94//9 93//9 96//9
f 97//10 98//10 99//10
f 98//10 97//10 100//10
f 101//11 102//11 103//11
f 102//11 101//11 104//11
f 105//12 106//12 107//12
f 106//12 105//12 108//12
f 109//13 110//13 111//13
f 110//13 109//13 112//13
f 113//14 114//14 115//14
f 114//14 113//14 116//14
f 117//15 118//15 119//15
f 118//15 117//15 120//15
f 121//16 122//16 123//16
f 122//16 121//16 124//16
f 125//17 126//17 127//17
f 126//17 125//17 128//17
f 129//18 130//18 131//18
f 130//18 129//18 132//18
f 133//19 134//19 135//19
f 134//19 133//19 136//19
f 137//20 138//20 139//20
f 138//20 137//20 140//20
f 141//21 142//21 143//21
f 142//21 141//21 144//21
f 145//22 146//22 147//22
f 146//22 145//22 148//22
f 149//23 150//23 151//23
f 150//23 149//23 152//23
f 153//24 154//24 155//24
f 154//24 153//24 156//24
f 157//25 158//25 159//25
f 158//25 157//25 160//25
f 161//26 162//26 163//26
f 162//26 161//26 164//26
f 165//27 166//27 167//27
f 166//27 165//27 168//27
f 169//28 170//28 171//28
f 170//28 169//28 172//28
f 173//29 174//29 175//29
f 174//29 173//29 176//29
f 177//30 178//30 179//30
f 178//30 177//30 180//30
f 181//31 182//31 183//31
f 182//31 181//31 184//31
f 185//32 186//32 187//32
f 186//32 185//32 188//32
f 189//33 190//33 191//33
f 190//33 189//33 192//33
f 193//34 194//34 195//34
f 194//34 193//34 196//34
f 194//34 196//34 197//34
f 197//34 196//34 198//34
f 197//34 198//34 199//34
f 199//34 198//34 200//34
f 199//34 200//34 201//34
f 201//34 200//34 202//34
f 202//34 200//34 203//34
f 203//34 200//34 204//34
f 203//34 204//34 205//34
f 205//34 204//34 206//34
f 206//34 204//34 207//34
f 206//34 207//34 208//34
f 208//34 207//34 209//34
f 209//34 207//34 210//34
f 209//34 210//34 211//34
f 211//34 210//34 212//34
f 212//34 210//34 213//34
f 212//34 213//34 214//34
f 214//34 213//34 215//34
f 214//34 215//34 216//34
f 216//34 215//34 217//34
f 217//34 215//34 218//34
f 217//34 218//34 219//34
f 219//34 218//34 220//34
f 220//34 218//34 221//34
f 220//34 221//34 222//34
f 222//34 221//34 223//34
f 222//34 223//34 224//34
f 224//34 223//34 225//34
f 225//34 223//34 226//34
f 201//34 227//34 228//34
f 227//34 201//34 202//34
f 228//34 227//34 229//34
f 228//34 229//34 230//34
f 228//34 230//34 231//34
f 231//34 230//34 232//34
f 231//34 232//34 233//34
f 231//34 233//34 234//34
f 234//34 233//34 235//34
f 234//34 235//34 236//34
f 234//34 236//34 237//34
f 237//34 236//34 238//34
f 237//34 238//34 239//34
f 239//34 238//34 240//34
f 239//34 240//34 241//34
f 239//34 241//34 242//34
f 242//34 241//34 243//34
f 242//34 243//34 244//34
f 242//34 244//34 245//34
f 245//34 244//34 246//34
f 245//34 246//34 247//34
f 245//34 247//34 248//34
f 248//34 247//34 249//34
f 248//34 249//34 226//34
f 248//34 226//34 223//34
f 248//34 223//34 250//34
f 248//34 250//34 251//34
f 251//34 250//34 252//34
f 252//34 250//34 253//34
f 252//34 253//34 254//34
f 254//34 253//34 255//34
f 254//34 255//34 256//34
