# SSTK version 0.8.0
# 15
mtllib original-15.mtl
o #ID50
v -0.022366 0.400901 0.328951
v -0.021971 0.394027 0.309659
v -0.021971 0.394027 0.328951
v -0.022366 0.400901 0.309659
v -0.021971 0.394027 0.328951
v -0.022349 0.387232 0.309659
v -0.022349 0.387232 0.328951
v -0.021971 0.394027 0.309659
v -0.023548 0.406938 0.328951
v -0.022366 0.400901 0.309659
v -0.022366 0.400901 0.328951
v -0.023548 0.406938 0.309659
v -0.022349 0.387232 0.328951
v -0.023481 0.381283 0.309659
v -0.023481 0.381283 0.328951
v -0.022349 0.387232 0.309659
v -0.025445 0.412075 0.328951
v -0.023548 0.406938 0.309659
v -0.023548 0.406938 0.328951
v -0.025445 0.412075 0.309659
v -0.023481 0.381283 0.328951
v -0.025367 0.376181 0.309659
v -0.025367 0.376181 0.328951
v -0.023481 0.381283 0.309659
v -0.027983 0.416251 0.328951
v -0.025445 0.412075 0.309659
v -0.025445 0.412075 0.328951
v -0.027983 0.416251 0.309659
v -0.025367 0.376181 0.328951
v -0.028008 0.371926 0.309659
v -0.028008 0.371926 0.328951
v -0.025367 0.376181 0.309659
v -0.031192 0.419571 0.328951
v -0.027983 0.416251 0.309659
v -0.027983 0.416251 0.328951
v -0.031192 0.419571 0.309659
v -0.028008 0.371926 0.328951
v -0.031286 0.368574 0.309659
v -0.031286 0.368574 0.328951
v -0.028008 0.371926 0.309659
v -0.031192 0.419571 0.328951
v -0.035005 0.421943 0.309659
v -0.031192 0.419571 0.309659
v -0.035005 0.421943 0.328951
v -0.035085 0.366179 0.328951
v -0.031286 0.368574 0.309659
v -0.035085 0.366179 0.309659
v -0.031286 0.368574 0.328951
v -0.035005 0.421943 0.328951
v -0.039372 0.423366 0.309659
v -0.035005 0.421943 0.309659
v -0.039372 0.423366 0.328951
v -0.039405 0.364743 0.328951
v -0.035085 0.366179 0.309659
v -0.039405 0.364743 0.309659
v -0.035085 0.366179 0.328951
v -0.039372 0.423366 0.328951
v -0.044245 0.423840 0.309659
v -0.039372 0.423366 0.309659
v -0.044245 0.423840 0.328951
v -0.044245 0.364264 0.328951
v -0.039405 0.364743 0.309659
v -0.044245 0.364264 0.309659
v -0.039405 0.364743 0.328951
v -0.044245 0.423840 0.328951
v -0.049228 0.423378 0.309659
v -0.044245 0.423840 0.309659
v -0.049228 0.423378 0.328951
v -0.049086 0.364743 0.328951
v -0.044245 0.364264 0.309659
v -0.049086 0.364743 0.309659
v -0.044245 0.364264 0.328951
v -0.049228 0.423378 0.328951
v -0.053533 0.421992 0.309659
v -0.049228 0.423378 0.309659
v -0.053533 0.421992 0.328951
v -0.053410 0.366179 0.328951
v -0.049086 0.364743 0.309659
v -0.053410 0.366179 0.309659
v -0.049086 0.364743 0.328951
v -0.053533 0.421992 0.328951
v -0.057272 0.419633 0.309659
v -0.053533 0.421992 0.309659
v -0.057272 0.419633 0.328951
v -0.057217 0.368574 0.328951
v -0.053410 0.366179 0.309659
v -0.057217 0.368574 0.309659
v -0.053410 0.366179 0.328951
v -0.057272 0.419633 0.309659
v -0.060555 0.416251 0.328951
v -0.060555 0.416251 0.309659
v -0.057272 0.419633 0.328951
v -0.060506 0.371926 0.309659
v -0.057217 0.368574 0.328951
v -0.057217 0.368574 0.309659
v -0.060506 0.371926 0.328951
v -0.060555 0.416251 0.309659
v -0.063124 0.412026 0.328951
v -0.063124 0.412026 0.309659
v -0.060555 0.416251 0.328951
v -0.063158 0.376181 0.309659
v -0.060506 0.371926 0.328951
v -0.060506 0.371926 0.309659
v -0.063158 0.376181 0.328951
v -0.063124 0.412026 0.309659
v -0.065015 0.406839 0.328951
v -0.065015 0.406839 0.309659
v -0.063124 0.412026 0.328951
v -0.065052 0.381283 0.309659
v -0.063158 0.376181 0.328951
v -0.063158 0.376181 0.309659
v -0.065052 0.381283 0.328951
v -0.065015 0.406839 0.309659
v -0.066179 0.400803 0.328951
v -0.066179 0.400803 0.309659
v -0.065015 0.406839 0.328951
v -0.066188 0.387232 0.309659
v -0.065052 0.381283 0.328951
v -0.065052 0.381283 0.309659
v -0.066188 0.387232 0.328951
v -0.066179 0.400803 0.309659
v -0.066567 0.394027 0.328951
v -0.066567 0.394027 0.309659
v -0.066179 0.400803 0.328951
v -0.066567 0.394027 0.309659
v -0.066188 0.387232 0.328951
v -0.066188 0.387232 0.309659
v -0.066567 0.394027 0.328951
vn -0.9983596674050338 -0.05725359813068711 0
vn -0.9984624406826164 0.05543243225867672 0
vn -0.9813433966645251 -0.1922631993464504 0
vn -0.9823763949031632 0.18691339903031098 0
vn -0.9380739818478229 -0.34643499329624633 0
vn -0.9379364474736188 0.3468071805781525 0
vn -0.8545877708766072 -0.5193069823025214 0
vn -0.849635418180714 0.5273705112848873 0
vn -0.7190106029073052 -0.6949991028101212 0
vn -0.7149446029789949 0.6991811029134066 0
vn -0.5281480162407965 -0.8491523261117002 0
vn -0.5332316011247817 0.8459693017845872 0
vn -0.30978341605831217 -0.950807149286985 0
vn -0.3156187908964407 0.9488860726309922 0
vn -0.09688715733402208 -0.9952953726124384 0
vn -0.0984691602904604 0.9951401029361101 0
vn 0.09231121042993208 -0.995730204638265 0
vn 0.09843813724808637 0.9951431721793236 0
vn 0.3064058863103629 -0.951900957471081 0
vn 0.31531510970278154 0.9489870292017288 0
vn 0.5336259890231605 -0.8457205826034117 0
vn 0.532458997860999 0.8464557965994801 0
vn 0.7174846334858046 -0.6965743325099917 0
vn 0.7137963837705126 0.7003532840760719 0
vn 0.8545111147835115 -0.519433108986557 0
vn 0.8486706203531731 0.5289217126847418 0
vn 0.9394998922394024 -0.3425491971704957 0
vn 0.9374754130040215 0.34805150482786185 0
vn 0.9819062656777243 -0.18936759338077422 0
vn 0.9822360517902516 0.18764950989410623 0
vn 0.9983639407856844 -0.057179032335975266 0
vn 0.9984498932366589 0.05565797962291407 0
usemtl material_0_0
f 1//1 2//1 3//1
f 2//1 1//1 4//1
f 5//2 6//2 7//2
f 6//2 5//2 8//2
f 9//3 10//3 11//3
f 10//3 9//3 12//3
f 13//4 14//4 15//4
f 14//4 13//4 16//4
f 17//5 18//5 19//5
f 18//5 17//5 20//5
f 21//6 22//6 23//6
f 22//6 21//6 24//6
f 25//7 26//7 27//7
f 26//7 25//7 28//7
f 29//8 30//8 31//8
f 30//8 29//8 32//8
f 33//9 34//9 35//9
f 34//9 33//9 36//9
f 37//10 38//10 39//10
f 38//10 37//10 40//10
f 41//11 42//11 43//11
f 42//11 41//11 44//11
f 45//12 46//12 47//12
f 46//12 45//12 48//12
f 49//13 50//13 51//13
f 50//13 49//13 52//13
f 53//14 54//14 55//14
f 54//14 53//14 56//14
f 57//15 58//15 59//15
f 58//15 57//15 60//15
f 61//16 62//16 63//16
f 62//16 61//16 64//16
f 65//17 66//17 67//17
f 66//17 65//17 68//17
f 69//18 70//18 71//18
f 70//18 69//18 72//18
f 73//19 74//19 75//19
f 74//19 73//19 76//19
f 77//20 78//20 79//20
f 78//20 77//20 80//20
f 81//21 82//21 83//21
f 82//21 81//21 84//21
f 85//22 86//22 87//22
f 86//22 85//22 88//22
f 89//23 90//23 91//23
f 90//23 89//23 92//23
f 93//24 94//24 95//24
f 94//24 93//24 96//24
f 97//25 98//25 99//25
f 98//25 97//25 100//25
f 101//26 102//26 103//26
f 102//26 101//26 104//26
f 105//27 106//27 107//27
f 106//27 105//27 108//27
f 109//28 110//28 111//28
f 110//28 109//28 112//28
f 113//29 114//29 115//29
f 114//29 113//29 116//29
f 117//30 118//30 119//30
f 118//30 117//30 120//30
f 121//31 122//31 123//31
f 122//31 121//31 124//31
f 125//32 126//32 127//32
f 126//32 125//32 128//32
