# SSTK version 0.8.0
# 6
mtllib original-6.mtl
o #ID6
v 0.135839 0.002730 0.569894
v 0.135839 -0.267358 0.309659
v 0.135839 0.002730 0.309659
v 0.135839 -0.232485 0.592914
v 0.135839 -0.267358 0.605504
v 0.135839 -0.042356 0.598112
v 0.135839 0.000361 0.607237
v 0.135839 -0.083960 0.612755
v 0.135839 -0.192358 0.609305
v 0.135839 -0.050206 0.635052
v 0.135839 -0.120145 0.617631
v 0.135839 -0.156651 0.616932
v 0.135839 -0.096952 0.647677
v 0.135839 -0.140503 0.650347
v 0.135839 -0.178737 0.645754
v 0.135839 -0.220417 0.632505
v -0.114957 0.002730 0.569894
v -0.114957 0.002730 0.251783
v -0.114957 0.002730 0.309659
v 0.135839 0.002730 0.251783
v 0.135839 0.002730 0.569894
v 0.135839 0.002730 0.309659
v 0.135839 0.000361 0.607237
v -0.114957 0.002730 0.569894
v -0.114957 0.000361 0.607237
v 0.135839 0.002730 0.569894
v -0.114957 -0.042356 0.598112
v 0.135839 0.000361 0.607237
v -0.114957 0.000361 0.607237
v 0.135839 -0.042356 0.598112
v 0.135839 -0.050206 0.635052
v -0.114957 -0.042356 0.598112
v -0.114957 -0.050206 0.635052
v 0.135839 -0.042356 0.598112
v -0.114957 -0.083960 0.612755
v 0.135839 -0.050206 0.635052
v -0.114957 -0.050206 0.635052
v 0.135839 -0.083960 0.612755
v 0.135839 -0.096952 0.647677
v -0.114957 -0.083960 0.612755
v -0.114957 -0.096952 0.647677
v 0.135839 -0.083960 0.612755
v 0.135839 -0.120145 0.617631
v -0.114957 -0.096952 0.647677
v -0.114957 -0.120145 0.617631
v 0.135839 -0.096952 0.647677
v 0.135839 -0.140503 0.650347
v -0.114957 -0.120145 0.617631
v -0.114957 -0.140503 0.650347
v 0.135839 -0.120145 0.617631
v 0.135839 -0.156651 0.616932
v -0.114957 -0.140503 0.650347
v -0.114957 -0.156651 0.616932
v 0.135839 -0.140503 0.650347
v 0.135839 -0.178737 0.645754
v -0.114957 -0.156651 0.616932
v -0.114957 -0.178737 0.645754
v 0.135839 -0.156651 0.616932
v 0.135839 -0.192358 0.609305
v -0.114957 -0.178737 0.645754
v -0.114957 -0.192358 0.609305
v 0.135839 -0.178737 0.645754
v -0.114957 -0.220417 0.632505
v 0.135839 -0.192358 0.609305
v -0.114957 -0.192358 0.609305
v 0.135839 -0.220417 0.632505
v 0.135839 -0.232485 0.592914
v -0.114957 -0.220417 0.632505
v -0.114957 -0.232485 0.592914
v 0.135839 -0.220417 0.632505
v -0.114957 -0.267358 0.605504
v 0.135839 -0.232485 0.592914
v -0.114957 -0.232485 0.592914
v 0.135839 -0.267358 0.605504
v 0.135839 -0.267358 0.309659
v -0.114957 -0.267358 0.605504
v -0.114957 -0.267358 0.309659
v 0.135839 -0.267358 0.605504
v 0.135839 -0.267358 0.251783
v 0.135839 0.002730 0.251783
v -0.114957 -0.267358 0.309659
v -0.114957 0.002730 0.251783
v -0.114957 -0.267358 0.251783
v -0.114957 0.002730 0.309659
v -0.114957 -0.267358 0.605504
v -0.114957 0.002730 0.309659
v -0.114957 -0.267358 0.309659
v -0.114957 -0.232485 0.592914
v -0.114957 0.002730 0.569894
v -0.114957 -0.192358 0.609305
v -0.114957 -0.042356 0.598112
v -0.114957 -0.220417 0.632505
v -0.114957 -0.156651 0.616932
v -0.114957 -0.083960 0.612755
v -0.114957 -0.178737 0.645754
v -0.114957 -0.140503 0.650347
v -0.114957 -0.120145 0.617631
v -0.114957 -0.096952 0.647677
v -0.114957 -0.050206 0.635052
v -0.114957 0.000361 0.607237
v 0.135839 -0.267358 0.251783
v -0.114957 -0.267358 0.251783
vn 1 0 0
vn 0 1 0
vn 0 0.9979932754269656 0.06331999844090684
vn 0 -0.20889698937860257 0.9779376502766197
vn 0 0.9781565691128433 0.20786949343612485
vn 0 -0.5511667932960893 0.8343950898511482
vn 0 0.9372429898578079 0.348676896226861
vn 0 -0.7915874297781066 0.6110559229868334
vn 0 0.8490367609542098 0.5283337757028073
vn 0 -0.9003738772594283 0.43511708901033047
vn 0 0.7937442057203041 0.6082517043835087
vn 0 -0.9367281343503366 0.3500577128368092
vn 0 0.6372034973646505 0.7706955968125533
vn 0 -0.9565505644724644 0.2915664891708403
vn 0 0.3395835038826178 0.9405759107540466
vn 0 -1 0
vn -1 0 0
usemtl material_0_0
f 1//1 2//1 3//1
f 2//1 1//1 4//1
f 2//1 4//1 5//1
f 1//1 6//1 4//1
f 6//1 1//1 7//1
f 6//1 8//1 9//1
f 8//1 6//1 10//1
f 8//1 11//1 12//1
f 11//1 8//1 13//1
f 14//1 12//1 11//1
f 9//1 12//1 15//1
f 12//1 9//1 8//1
f 4//1 9//1 16//1
f 9//1 4//1 6//1
f 17//2 18//2 19//2
f 18//2 17//2 20//2
f 20//2 17//2 21//2
f 20//2 21//2 22//2
f 23//3 24//3 25//3
f 24//3 23//3 26//3
f 27//4 28//4 29//4
f 28//4 27//4 30//4
f 31//5 32//5 33//5
f 32//5 31//5 34//5
f 35//6 36//6 37//6
f 36//6 35//6 38//6
f 39//7 40//7 41//7
f 40//7 39//7 42//7
f 43//8 44//8 45//8
f 44//8 43//8 46//8
f 47//9 48//9 49//9
f 48//9 47//9 50//9
f 51//10 52//10 53//10
f 52//10 51//10 54//10
f 55//11 56//11 57//11
f 56//11 55//11 58//11
f 59//12 60//12 61//12
f 60//12 59//12 62//12
f 63//13 64//13 65//13
f 64//13 63//13 66//13
f 67//14 68//14 69//14
f 68//14 67//14 70//14
f 71//15 72//15 73//15
f 72//15 71//15 74//15
f 75//16 76//16 77//16
f 76//16 75//16 78//16
f 3//1 79//1 80//1
f 79//1 3//1 2//1
f 81//17 82//17 83//17
f 82//17 81//17 84//17
f 85//17 86//17 87//17
f 86//17 85//17 88//17
f 86//17 88//17 89//17
f 88//17 90//17 91//17
f 90//17 88//17 92//17
f 90//17 93//17 94//17
f 93//17 90//17 95//17
f 96//17 97//17 93//17
f 94//17 97//17 98//17
f 97//17 94//17 93//17
f 91//17 94//17 99//17
f 94//17 91//17 90//17
f 89//17 91//17 100//17
f 91//17 89//17 88//17
f 101//16 77//16 102//16
f 77//16 101//16 75//16
