# SSTK version 0.8.0
# 17
mtllib original-17.mtl
o #ID58
v -0.045959 -0.343909 0.309659
v -0.044241 -0.365418 0.309659
v -0.044629 -0.372194 0.309659
v -0.041284 -0.339616 0.309659
v -0.043076 -0.359382 0.309659
v -0.041185 -0.354195 0.309659
v -0.035734 -0.336493 0.309659
v -0.038617 -0.349970 0.309659
v -0.035334 -0.346588 0.309659
v -0.029396 -0.334589 0.309659
v -0.031595 -0.344229 0.309659
v -0.027289 -0.342843 0.309659
v -0.022355 -0.333955 0.309659
v -0.022306 -0.342381 0.309659
v -0.015235 -0.334608 0.309659
v -0.017434 -0.342856 0.309659
v -0.013067 -0.344278 0.309659
v -0.008853 -0.336567 0.309659
v -0.009254 -0.346650 0.309659
v -0.006045 -0.349970 0.309659
v -0.003310 -0.339708 0.309659
v -0.003507 -0.354146 0.309659
v -0.001610 -0.359283 0.309659
v 0.001298 -0.343909 0.309659
v -0.000427 -0.365320 0.309659
v -0.000033 -0.372194 0.309659
v -0.054207 -0.363497 0.309659
v -0.054213 -0.380744 0.309659
v -0.054780 -0.372194 0.309659
v -0.052513 -0.388357 0.309659
v -0.052488 -0.355932 0.309659
v -0.049753 -0.394935 0.309659
v -0.049710 -0.349428 0.309659
v -0.046008 -0.400380 0.309659
v -0.044250 -0.378990 0.309659
v -0.041302 -0.404741 0.309659
v -0.043113 -0.384938 0.309659
v -0.041219 -0.390040 0.309659
v -0.035759 -0.407871 0.309659
v -0.038567 -0.394295 0.309659
v -0.035278 -0.397647 0.309659
v -0.029427 -0.409755 0.309659
v -0.031472 -0.400042 0.309659
v -0.027147 -0.401478 0.309659
v -0.022355 -0.410384 0.309659
v -0.022306 -0.401957 0.309659
v -0.015463 -0.409774 0.309659
v -0.017466 -0.401478 0.309659
v -0.013147 -0.400042 0.309659
v -0.009174 -0.407945 0.309659
v -0.009348 -0.397647 0.309659
v -0.006069 -0.394295 0.309659
v -0.003562 -0.404834 0.309659
v -0.003428 -0.390040 0.309659
v 0.001298 -0.400380 0.309659
v -0.001542 -0.384938 0.309659
v -0.000410 -0.378990 0.309659
v 0.005018 -0.349317 0.309659
v 0.005080 -0.394923 0.309659
v 0.007802 -0.355883 0.309659
v 0.007852 -0.388308 0.309659
v 0.009539 -0.363533 0.309659
v 0.009552 -0.380682 0.309659
v 0.010118 -0.372194 0.309659
v 0.001298 -0.343909 0.309659
v 0.005018 -0.349317 0.328951
v 0.005018 -0.349317 0.309659
v 0.001298 -0.343909 0.328951
v 0.005018 -0.349317 0.309659
v 0.007802 -0.355883 0.328951
v 0.007802 -0.355883 0.309659
v 0.005018 -0.349317 0.328951
v 0.007802 -0.355883 0.309659
v 0.009539 -0.363533 0.328951
v 0.009539 -0.363533 0.309659
v 0.007802 -0.355883 0.328951
v 0.009539 -0.363533 0.309659
v 0.010118 -0.372194 0.328951
v 0.010118 -0.372194 0.309659
v 0.009539 -0.363533 0.328951
v 0.010118 -0.372194 0.309659
v 0.009552 -0.380682 0.328951
v 0.009552 -0.380682 0.309659
v 0.010118 -0.372194 0.328951
v 0.009552 -0.380682 0.309659
v 0.007852 -0.388308 0.328951
v 0.007852 -0.388308 0.309659
v 0.009552 -0.380682 0.328951
v 0.007852 -0.388308 0.309659
v 0.005080 -0.394923 0.328951
v 0.005080 -0.394923 0.309659
v 0.007852 -0.388308 0.328951
v 0.005080 -0.394923 0.309659
v 0.001298 -0.400380 0.328951
v 0.001298 -0.400380 0.309659
v 0.005080 -0.394923 0.328951
v 0.001298 -0.400380 0.328951
v -0.003562 -0.404834 0.309659
v 0.001298 -0.400380 0.309659
v -0.003562 -0.404834 0.328951
v -0.003562 -0.404834 0.328951
v -0.009174 -0.407945 0.309659
v -0.003562 -0.404834 0.309659
v -0.009174 -0.407945 0.328951
v -0.009174 -0.407945 0.328951
v -0.015463 -0.409774 0.309659
v -0.009174 -0.407945 0.309659
v -0.015463 -0.409774 0.328951
v -0.015463 -0.409774 0.328951
v -0.022355 -0.410384 0.309659
v -0.015463 -0.409774 0.309659
v -0.022355 -0.410384 0.328951
v -0.022355 -0.410384 0.328951
v -0.029427 -0.409755 0.309659
v -0.022355 -0.410384 0.309659
v -0.029427 -0.409755 0.328951
v -0.029427 -0.409755 0.328951
v -0.035759 -0.407871 0.309659
v -0.029427 -0.409755 0.309659
v -0.035759 -0.407871 0.328951
v -0.035759 -0.407871 0.328951
v -0.041302 -0.404741 0.309659
v -0.035759 -0.407871 0.309659
v -0.041302 -0.404741 0.328951
v -0.041302 -0.404741 0.328951
v -0.046008 -0.400380 0.309659
v -0.041302 -0.404741 0.309659
v -0.046008 -0.400380 0.328951
v -0.049753 -0.394935 0.328951
v -0.046008 -0.400380 0.309659
v -0.046008 -0.400380 0.328951
v -0.049753 -0.394935 0.309659
v -0.052513 -0.388357 0.328951
v -0.049753 -0.394935 0.309659
v -0.049753 -0.394935 0.328951
v -0.052513 -0.388357 0.309659
v -0.054213 -0.380744 0.328951
v -0.052513 -0.388357 0.309659
v -0.052513 -0.388357 0.328951
v -0.054213 -0.380744 0.309659
v -0.054780 -0.372194 0.328951
v -0.054213 -0.380744 0.309659
v -0.054213 -0.380744 0.328951
v -0.054780 -0.372194 0.309659
v -0.054207 -0.363497 0.328951
v -0.054780 -0.372194 0.309659
v -0.054780 -0.372194 0.328951
v -0.054207 -0.363497 0.309659
v -0.052488 -0.355932 0.328951
v -0.054207 -0.363497 0.309659
v -0.054207 -0.363497 0.328951
v -0.052488 -0.355932 0.309659
v -0.049710 -0.349428 0.328951
v -0.052488 -0.355932 0.309659
v -0.052488 -0.355932 0.328951
v -0.049710 -0.349428 0.309659
v -0.045959 -0.343909 0.328951
v -0.049710 -0.349428 0.309659
v -0.049710 -0.349428 0.328951
v -0.045959 -0.343909 0.309659
v -0.045959 -0.343909 0.328951
v -0.041284 -0.339616 0.309659
v -0.045959 -0.343909 0.309659
v -0.041284 -0.339616 0.328951
v -0.041284 -0.339616 0.328951
v -0.035734 -0.336493 0.309659
v -0.041284 -0.339616 0.309659
v -0.035734 -0.336493 0.328951
v -0.035734 -0.336493 0.328951
v -0.029396 -0.334589 0.309659
v -0.035734 -0.336493 0.309659
v -0.029396 -0.334589 0.328951
v -0.029396 -0.334589 0.328951
v -0.022355 -0.333955 0.309659
v -0.029396 -0.334589 0.309659
v -0.022355 -0.333955 0.328951
v -0.022355 -0.333955 0.328951
v -0.015235 -0.334608 0.309659
v -0.022355 -0.333955 0.309659
v -0.015235 -0.334608 0.328951
v -0.015235 -0.334608 0.328951
v -0.008853 -0.336567 0.309659
v -0.015235 -0.334608 0.309659
v -0.008853 -0.336567 0.328951
v -0.008853 -0.336567 0.328951
v -0.003310 -0.339708 0.309659
v -0.008853 -0.336567 0.309659
v -0.003310 -0.339708 0.328951
v -0.003310 -0.339708 0.328951
v 0.001298 -0.343909 0.309659
v -0.003310 -0.339708 0.309659
v 0.001298 -0.343909 0.328951
v -0.054213 -0.380744 0.328951
v -0.054207 -0.363497 0.328951
v -0.054780 -0.372194 0.328951
v -0.052513 -0.388357 0.328951
v -0.052488 -0.355932 0.328951
v -0.049753 -0.394935 0.328951
v -0.049710 -0.349428 0.328951
v -0.046008 -0.400380 0.328951
v -0.045959 -0.343909 0.328951
v -0.044629 -0.372194 0.328951
v -0.044250 -0.378990 0.328951
v -0.041302 -0.404741 0.328951
v -0.043113 -0.384938 0.328951
v -0.041219 -0.390040 0.328951
v -0.035759 -0.407871 0.328951
v -0.038567 -0.394295 0.328951
v -0.035278 -0.397647 0.328951
v -0.029427 -0.409755 0.328951
v -0.031472 -0.400042 0.328951
v -0.027147 -0.401478 0.328951
v -0.022355 -0.410384 0.328951
v -0.022306 -0.401957 0.328951
v -0.015463 -0.409774 0.328951
v -0.017466 -0.401478 0.328951
v -0.013147 -0.400042 0.328951
v -0.009174 -0.407945 0.328951
v -0.009348 -0.397647 0.328951
v -0.006069 -0.394295 0.328951
v -0.003562 -0.404834 0.328951
v -0.003428 -0.390040 0.328951
v 0.001298 -0.400380 0.328951
v -0.001542 -0.384938 0.328951
v -0.000410 -0.378990 0.328951
v -0.000033 -0.372194 0.328951
v -0.044241 -0.365418 0.328951
v -0.041284 -0.339616 0.328951
v -0.043076 -0.359382 0.328951
v -0.041185 -0.354195 0.328951
v -0.035734 -0.336493 0.328951
v -0.038617 -0.349970 0.328951
v -0.035334 -0.346588 0.328951
v -0.029396 -0.334589 0.328951
v -0.031595 -0.344229 0.328951
v -0.027289 -0.342843 0.328951
v -0.022355 -0.333955 0.328951
v -0.022306 -0.342381 0.328951
v -0.015235 -0.334608 0.328951
v -0.017434 -0.342856 0.328951
v -0.013067 -0.344278 0.328951
v -0.008853 -0.336567 0.328951
v -0.009254 -0.346650 0.328951
v -0.006045 -0.349970 0.328951
v -0.003310 -0.339708 0.328951
v -0.003507 -0.354146 0.328951
v -0.001610 -0.359283 0.328951
v 0.001298 -0.343909 0.328951
v -0.000427 -0.365320 0.328951
v 0.005080 -0.394923 0.328951
v 0.005018 -0.349317 0.328951
v 0.007802 -0.355883 0.328951
v 0.007852 -0.388308 0.328951
v 0.009539 -0.363533 0.328951
v 0.009552 -0.380682 0.328951
v 0.010118 -0.372194 0.328951
vn 0 0 -1
vn 0.8238776306712846 0.5667677210987501 0
vn 0.9206570357536424 0.39037241515931487 0
vn 0.9751791066396339 0.22141750150682604 0
vn 0.9977725801146055 0.06670740866982812 0
vn 0.9977787450403816 -0.06661513300775788 0
vn 0.9760384317612112 -0.2175982070815741 0
vn 0.9223129122878775 -0.38644390514931665 0
vn 0.821924934266615 -0.5695958237476999 0
vn 0.6755976856715593 -0.7372704843646142 0
vn 0.4848275747937309 -0.8746097545303443 0
vn 0.279313793459127 -0.9601998775169014 0
vn 0.08812761930610688 -0.9961091921649143 0
vn -0.08850153360323151 -0.9960760405460398 0
vn -0.28529440904688175 -0.9584399303903145 0
vn -0.49154702029904934 -0.8708510359614473 0
vn -0.6797142866939246 -0.7334769856404285 0
vn -0.8239331373885874 -0.56668702571437 0
vn -0.9221546452784729 -0.38682141899245137 0
vn -0.975963598763647 -0.21793359972319792 0
vn -0.9978105317496101 -0.06613730210373371 0
vn -0.997837997216273 0.06572161981735995 0
vn -0.9751484476789863 0.22155248811345607 0
vn -0.9196398097442815 0.39276280416238746 0
vn -0.8270466623897481 0.5621332744376355 0
vn -0.6763835161202665 0.7365496175552504 0
vn -0.490399013925491 0.8714980247487117 0
vn -0.28760400373582345 0.9577494124431111 0
vn -0.08975007170726351 0.9959643189535162 0
vn 0.09131241948827837 0.9958222944116069 0
vn 0.29343739739060054 0.9559782914965334 0
vn 0.49301258712026613 0.8700221772696269 0
vn 0.6737539026554994 0.7389558029114351 0
vn 0 0 1
usemtl material_0_0
f 1//1 2//1 3//1
f 2//1 1//1 4//1
f 2//1 4//1 5//1
f 5//1 4//1 6//1
f 6//1 4//1 7//1
f 6//1 7//1 8//1
f 8//1 7//1 9//1
f 9//1 7//1 10//1
f 9//1 10//1 11//1
f 11//1 10//1 12//1
f 12//1 10//1 13//1
f 12//1 13//1 14//1
f 14//1 13//1 15//1
f 14//1 15//1 16//1
f 16//1 15//1 17//1
f 17//1 15//1 18//1
f 17//1 18//1 19//1
f 19//1 18//1 20//1
f 20//1 18//1 21//1
f 20//1 21//1 22//1
f 22//1 21//1 23//1
f 23//1 21//1 24//1
f 23//1 24//1 25//1
f 25//1 24//1 26//1
f 27//1 28//1 29//1
f 28//1 27//1 30//1
f 30//1 27//1 31//1
f 30//1 31//1 32//1
f 32//1 31//1 33//1
f 32//1 33//1 34//1
f 34//1 33//1 1//1
f 34//1 1//1 3//1
f 34//1 3//1 35//1
f 34//1 35//1 36//1
f 36//1 35//1 37//1
f 36//1 37//1 38//1
f 36//1 38//1 39//1
f 39//1 38//1 40//1
f 39//1 40//1 41//1
f 39//1 41//1 42//1
f 42//1 41//1 43//1
f 42//1 43//1 44//1
f 42//1 44//1 45//1
f 45//1 44//1 46//1
f 45//1 46//1 47//1
f 47//1 46//1 48//1
f 47//1 48//1 49//1
f 47//1 49//1 50//1
f 50//1 49//1 51//1
f 50//1 51//1 52//1
f 50//1 52//1 53//1
f 53//1 52//1 54//1
f 53//1 54//1 55//1
f 55//1 54//1 56//1
f 55//1 56//1 57//1
f 55//1 57//1 26//1
f 55//1 26//1 24//1
f 55//1 24//1 58//1
f 55//1 58//1 59//1
f 59//1 58//1 60//1
f 59//1 60//1 61//1
f 61//1 60//1 62//1
f 61//1 62//1 63//1
f 63//1 62//1 64//1
f 65//2 66//2 67//2
f 66//2 65//2 68//2
f 69//3 70//3 71//3
f 70//3 69//3 72//3
f 73//4 74//4 75//4
f 74//4 73//4 76//4
f 77//5 78//5 79//5
f 78//5 77//5 80//5
f 81//6 82//6 83//6
f 82//6 81//6 84//6
f 85//7 86//7 87//7
f 86//7 85//7 88//7
f 89//8 90//8 91//8
f 90//8 89//8 92//8
f 93//9 94//9 95//9
f 94//9 93//9 96//9
f 97//10 98//10 99//10
f 98//10 97//10 100//10
f 101//11 102//11 103//11
f 102//11 101//11 104//11
f 105//12 106//12 107//12
f 106//12 105//12 108//12
f 109//13 110//13 111//13
f 110//13 109//13 112//13
f 113//14 114//14 115//14
f 114//14 113//14 116//14
f 117//15 118//15 119//15
f 118//15 117//15 120//15
f 121//16 122//16 123//16
f 122//16 121//16 124//16
f 125//17 126//17 127//17
f 126//17 125//17 128//17
f 129//18 130//18 131//18
f 130//18 129//18 132//18
f 133//19 134//19 135//19
f 134//19 133//19 136//19
f 137//20 138//20 139//20
f 138//20 137//20 140//20
f 141//21 142//21 143//21
f 142//21 141//21 144//21
f 145//22 146//22 147//22
f 146//22 145//22 148//22
f 149//23 150//23 151//23
f 150//23 149//23 152//23
f 153//24 154//24 155//24
f 154//24 153//24 156//24
f 157//25 158//25 159//25
f 158//25 157//25 160//25
f 161//26 162//26 163//26
f 162//26 161//26 164//26
f 165//27 166//27 167//27
f 166//27 165//27 168//27
f 169//28 170//28 171//28
f 170//28 169//28 172//28
f 173//29 174//29 175//29
f 174//29 173//29 176//29
f 177//30 178//30 179//30
f 178//30 177//30 180//30
f 181//31 182//31 183//31
f 182//31 181//31 184//31
f 185//32 186//32 187//32
f 186//32 185//32 188//32
f 189//33 190//33 191//33
f 190//33 189//33 192//33
f 193//34 194//34 195//34
f 194//34 193//34 196//34
f 194//34 196//34 197//34
f 197//34 196//34 198//34
f 197//34 198//34 199//34
f 199//34 198//34 200//34
f 199//34 200//34 201//34
f 201//34 200//34 202//34
f 202//34 200//34 203//34
f 203//34 200//34 204//34
f 203//34 204//34 205//34
f 205//34 204//34 206//34
f 206//34 204//34 207//34
f 206//34 207//34 208//34
f 208//34 207//34 209//34
f 209//34 207//34 210//34
f 209//34 210//34 211//34
f 211//34 210//34 212//34
f 212//34 210//34 213//34
f 212//34 213//34 214//34
f 214//34 213//34 215//34
f 214//34 215//34 216//34
f 216//34 215//34 217//34
f 217//34 215//34 218//34
f 217//34 218//34 219//34
f 219//34 218//34 220//34
f 220//34 218//34 221//34
f 220//34 221//34 222//34
f 222//34 221//34 223//34
f 222//34 223//34 224//34
f 224//34 223//34 225//34
f 225//34 223//34 226//34
f 201//34 227//34 228//34
f 227//34 201//34 202//34
f 228//34 227//34 229//34
f 228//34 229//34 230//34
f 228//34 230//34 231//34
f 231//34 230//34 232//34
f 231//34 232//34 233//34
f 231//34 233//34 234//34
f 234//34 233//34 235//34
f 234//34 235//34 236//34
f 234//34 236//34 237//34
f 237//34 236//34 238//34
f 237//34 238//34 239//34
f 239//34 238//34 240//34
f 239//34 240//34 241//34
f 239//34 241//34 242//34
f 242//34 241//34 243//34
f 242//34 243//34 244//34
f 242//34 244//34 245//34
f 245//34 244//34 246//34
f 245//34 246//34 247//34
f 245//34 247//34 248//34
f 248//34 247//34 249//34
f 248//34 249//34 226//34
f 248//34 226//34 223//34
f 248//34 223//34 250//34
f 248//34 250//34 251//34
f 251//34 250//34 252//34
f 252//34 250//34 253//34
f 252//34 253//34 254//34
f 254//34 253//34 255//34
f 254//34 255//34 256//34
