# SSTK version 0.8.0
# 13
mtllib original-13.mtl
o #ID38
v -0.001127 0.430739 0.309659
v 0.008630 0.422066 0.309659
v -0.001127 0.357365 0.309659
v 0.042779 0.430739 0.309659
v 0.042779 0.422066 0.309659
v 0.041350 0.401370 0.309659
v 0.008630 0.392697 0.309659
v 0.008630 0.401370 0.309659
v 0.041350 0.392697 0.309659
v 0.008630 0.357365 0.309659
v 0.042779 0.422066 0.328951
v 0.008630 0.422066 0.309659
v 0.042779 0.422066 0.309659
v 0.008630 0.422066 0.328951
v 0.008630 0.422066 0.309659
v 0.008630 0.401370 0.328951
v 0.008630 0.401370 0.309659
v 0.008630 0.422066 0.328951
v 0.008630 0.401370 0.328951
v 0.041350 0.401370 0.309659
v 0.008630 0.401370 0.309659
v 0.041350 0.401370 0.328951
v 0.041350 0.401370 0.309659
v 0.041350 0.392697 0.328951
v 0.041350 0.392697 0.309659
v 0.041350 0.401370 0.328951
v 0.041350 0.392697 0.328951
v 0.008630 0.392697 0.309659
v 0.041350 0.392697 0.309659
v 0.008630 0.392697 0.328951
v 0.008630 0.392697 0.309659
v 0.008630 0.357365 0.328951
v 0.008630 0.357365 0.309659
v 0.008630 0.392697 0.328951
v 0.008630 0.357365 0.328951
v -0.001127 0.357365 0.309659
v 0.008630 0.357365 0.309659
v -0.001127 0.357365 0.328951
v -0.001127 0.430739 0.328951
v -0.001127 0.357365 0.309659
v -0.001127 0.357365 0.328951
v -0.001127 0.430739 0.309659
v -0.001127 0.430739 0.328951
v 0.042779 0.430739 0.309659
v -0.001127 0.430739 0.309659
v 0.042779 0.430739 0.328951
v 0.042779 0.430739 0.309659
v 0.042779 0.422066 0.328951
v 0.042779 0.422066 0.309659
v 0.042779 0.430739 0.328951
v 0.041350 0.392697 0.328951
v 0.008630 0.401370 0.328951
v 0.008630 0.392697 0.328951
v 0.041350 0.401370 0.328951
v 0.008630 0.357365 0.328951
v -0.001127 0.430739 0.328951
v -0.001127 0.357365 0.328951
v 0.008630 0.422066 0.328951
v 0.042779 0.430739 0.328951
v 0.042779 0.422066 0.328951
vn 0 0 -1
vn 0 -1 0
vn 1 0 0
vn 0 1 0
vn -1 0 0
vn 0 0 1
usemtl material_0_0
f 1//1 2//1 3//1
f 2//1 1//1 4//1
f 2//1 4//1 5//1
f 6//1 7//1 8//1
f 7//1 6//1 9//1
f 2//1 10//1 3//1
f 10//1 2//1 8//1
f 10//1 8//1 7//1
f 11//2 12//2 13//2
f 12//2 11//2 14//2
f 15//3 16//3 17//3
f 16//3 15//3 18//3
f 19//4 20//4 21//4
f 20//4 19//4 22//4
f 23//3 24//3 25//3
f 24//3 23//3 26//3
f 27//2 28//2 29//2
f 28//2 27//2 30//2
f 31//3 32//3 33//3
f 32//3 31//3 34//3
f 35//2 36//2 37//2
f 36//2 35//2 38//2
f 39//5 40//5 41//5
f 40//5 39//5 42//5
f 43//4 44//4 45//4
f 44//4 43//4 46//4
f 47//3 48//3 49//3
f 48//3 47//3 50//3
f 51//6 52//6 53//6
f 52//6 51//6 54//6
f 55//6 56//6 57//6
f 56//6 55//6 58//6
f 56//6 58//6 59//6
f 58//6 55//6 53//6
f 58//6 53//6 52//6
f 59//6 58//6 60//6
