# SSTK version 0.8.0
# 24
mtllib original-24.mtl
o #ID97
v -0.220983 0.814409 -0.382224
v -0.259567 0.794237 -0.384854
v -0.220983 0.794237 -0.384854
v -0.259567 0.814409 -0.382224
v -0.220983 0.833207 -0.374515
v -0.259567 0.833207 -0.374515
v -0.259567 0.774065 -0.382224
v -0.220983 0.774065 -0.382224
v -0.220983 0.849349 -0.362252
v -0.259567 0.849349 -0.362252
v -0.259567 0.755267 -0.374515
v -0.220983 0.755267 -0.374515
v -0.259567 0.861735 -0.346270
v -0.220983 0.861735 -0.346270
v -0.259567 0.739125 -0.362252
v -0.220983 0.739125 -0.362252
v -0.259567 0.869521 -0.327658
v -0.220983 0.869521 -0.327658
v -0.259567 0.726739 -0.346270
v -0.220983 0.726739 -0.346270
v -0.259567 0.872177 -0.307686
v -0.220983 0.872177 -0.307686
v -0.259567 0.718953 -0.327658
v -0.220983 0.718953 -0.327658
v -0.259567 0.869521 -0.287713
v -0.220983 0.869521 -0.287713
v -0.259567 0.716297 -0.307686
v -0.220983 0.716297 -0.307686
v -0.259567 0.861735 -0.269102
v -0.220983 0.861735 -0.269102
v -0.259567 0.718953 -0.287713
v -0.220983 0.718953 -0.287713
v -0.259567 0.849349 -0.253120
v -0.220983 0.849349 -0.253120
v -0.259567 0.726739 -0.269102
v -0.220983 0.726739 -0.269102
v -0.220983 0.833207 -0.240856
v -0.259567 0.833207 -0.240856
v -0.259567 0.739125 -0.253120
v -0.220983 0.739125 -0.253120
v -0.220983 0.814409 -0.233147
v -0.259567 0.814409 -0.233147
v -0.259567 0.755267 -0.240856
v -0.220983 0.755267 -0.240856
v -0.220983 0.794237 -0.230518
v -0.259567 0.794237 -0.230518
v -0.259567 0.774065 -0.233147
v -0.220983 0.774065 -0.233147
vn 0 -0.2564257309838425 0.9665639370933524
vn 0 0 1
vn 0 -0.49627333373707605 0.8681663309651492
vn 0 0.2564257309838425 0.9665639370933524
vn 0 -0.7035801295960805 0.7106159308920412
vn 0 0.49627333373707605 0.8681663309651492
vn 0 -0.8638576801917593 0.5037359510435127
vn 0 0.7035801295960805 0.7106159308920412
vn 0 -0.9652762090659883 0.26123139208600965
vn 0 0.8638576801917593 0.5037359510435127
vn 0 -1 0
vn 0 0.9652762090659883 0.26123139208600965
vn 0 -0.9652762090659883 -0.26123139208600965
vn 0 1 0
vn 0 -0.8638576801917593 -0.5037359510435127
vn 0 0.9652762090659883 -0.26123139208600965
vn 0 -0.7035801295960805 -0.7106159308920412
vn 0 0.8638576801917593 -0.5037359510435127
vn 0 -0.49627333373707605 -0.8681663309651492
vn 0 0.7035801295960805 -0.7106159308920412
vn 0 -0.2564257309838425 -0.9665639370933524
vn 0 0.49627333373707605 -0.8681663309651492
vn 0 0 -1
vn 0 0.2564257309838425 -0.9665639370933524
usemtl material_0_0
f 1//1 2//2 3//2
f 2//2 1//1 4//1
f 5//3 4//1 1//1
f 4//1 5//3 6//3
f 3//2 7//4 8//4
f 7//4 3//2 2//2
f 9//5 6//3 5//3
f 6//3 9//5 10//5
f 8//4 11//6 12//6
f 11//6 8//4 7//4
f 13//7 9//5 14//7
f 9//5 13//7 10//5
f 12//6 15//8 16//8
f 15//8 12//6 11//6
f 17//9 14//7 18//9
f 14//7 17//9 13//7
f 16//8 19//10 20//10
f 19//10 16//8 15//8
f 21//11 18//9 22//11
f 18//9 21//11 17//9
f 20//10 23//12 24//12
f 23//12 20//10 19//10
f 25//13 22//11 26//13
f 22//11 25//13 21//11
f 24//12 27//14 28//14
f 27//14 24//12 23//12
f 29//15 26//13 30//15
f 26//13 29//15 25//13
f 28//14 31//16 32//16
f 31//16 28//14 27//14
f 33//17 30//15 34//17
f 30//15 33//17 29//15
f 32//16 35//18 36//18
f 35//18 32//16 31//16
f 33//17 37//19 38//19
f 37//19 33//17 34//17
f 36//18 39//20 40//20
f 39//20 36//18 35//18
f 38//19 41//21 42//21
f 41//21 38//19 37//19
f 43//22 40//20 39//20
f 40//20 43//22 44//22
f 42//21 45//23 46//23
f 45//23 42//21 41//21
f 47//24 44//22 43//22
f 44//22 47//24 48//24
f 46//23 48//24 47//24
f 48//24 46//23 45//23
