# SSTK version 0.8.0
# 23
mtllib original-23.mtl
o #ID91
v -0.259567 0.667585 -0.423438
v -0.259567 0.739125 -0.362252
v -0.259567 0.794237 -0.423108
v -0.259567 0.726739 -0.346270
v -0.259567 0.718953 -0.327658
v -0.259567 0.667585 -0.191934
v -0.259567 0.755267 -0.374515
v -0.259567 0.824409 -0.419175
v -0.259567 0.774065 -0.382224
v -0.259567 0.852525 -0.407644
v -0.259567 0.794237 -0.384854
v -0.259567 0.876669 -0.389301
v -0.259567 0.716297 -0.307686
v -0.259567 0.718953 -0.287713
v -0.259567 0.726739 -0.269102
v -0.259567 0.739125 -0.253120
v -0.259567 0.755267 -0.240856
v -0.259567 0.774065 -0.233147
v -0.259567 0.794237 -0.230518
v -0.259567 0.876669 -0.226070
v -0.259567 0.852525 -0.207727
v -0.259567 0.824409 -0.196197
v -0.259567 0.794237 -0.192264
v -0.259567 0.814409 -0.382224
v -0.259567 0.895195 -0.365397
v -0.259567 0.833207 -0.374515
v -0.259567 0.849349 -0.362252
v -0.259567 0.901404 -0.350555
v -0.259567 0.861735 -0.346270
v -0.259567 0.906841 -0.337559
v -0.259567 0.869521 -0.327658
v -0.259567 0.910813 -0.307686
v -0.259567 0.872177 -0.307686
v -0.259567 0.869521 -0.287713
v -0.259567 0.906841 -0.277812
v -0.259567 0.861735 -0.269102
v -0.259567 0.901404 -0.264816
v -0.259567 0.849349 -0.253120
v -0.259567 0.895195 -0.249975
v -0.259567 0.833207 -0.240856
v -0.259567 0.814409 -0.233147
v -0.259567 0.794237 -0.423108
v -0.220983 0.667585 -0.423438
v -0.259567 0.667585 -0.423438
v -0.220983 0.794237 -0.423108
v -0.259567 0.667585 -0.191934
v -0.220983 0.667585 -0.423438
v -0.220983 0.667585 -0.191934
v -0.259567 0.667585 -0.423438
v -0.220983 0.794237 -0.192264
v -0.259567 0.667585 -0.191934
v -0.220983 0.667585 -0.191934
v -0.259567 0.794237 -0.192264
v -0.220983 0.824409 -0.196197
v -0.259567 0.794237 -0.192264
v -0.220983 0.794237 -0.192264
v -0.259567 0.824409 -0.196197
v -0.220983 0.852525 -0.207727
v -0.259567 0.852525 -0.207727
v -0.220983 0.876669 -0.226070
v -0.259567 0.876669 -0.226070
v -0.220983 0.895195 -0.249975
v -0.259567 0.895195 -0.249975
v -0.220983 0.901404 -0.264816
v -0.259567 0.901404 -0.264816
v -0.259567 0.906841 -0.277812
v -0.220983 0.901404 -0.264816
v -0.220983 0.906841 -0.277812
v -0.259567 0.901404 -0.264816
v -0.220983 0.910813 -0.307686
v -0.259567 0.910813 -0.307686
v -0.220983 0.906841 -0.337559
v -0.259567 0.906841 -0.337559
v -0.220983 0.901404 -0.350555
v -0.259567 0.901404 -0.350555
v -0.259567 0.895195 -0.365397
v -0.220983 0.901404 -0.350555
v -0.220983 0.895195 -0.365397
v -0.259567 0.901404 -0.350555
v -0.220983 0.876669 -0.389301
v -0.259567 0.876669 -0.389301
v -0.220983 0.852525 -0.407644
v -0.259567 0.852525 -0.407644
v -0.220983 0.824409 -0.419175
v -0.259567 0.824409 -0.419175
v -0.220983 0.794237 -0.423108
v -0.259567 0.794237 -0.423108
v -0.220983 0.876669 -0.389301
v -0.220983 0.814409 -0.382224
v -0.220983 0.794237 -0.384854
v -0.220983 0.895195 -0.365397
v -0.220983 0.833207 -0.374515
v -0.220983 0.849349 -0.362252
v -0.220983 0.901404 -0.350555
v -0.220983 0.861735 -0.346270
v -0.220983 0.906841 -0.337559
v -0.220983 0.869521 -0.327658
v -0.220983 0.910813 -0.307686
v -0.220983 0.872177 -0.307686
v -0.220983 0.906841 -0.277812
v -0.220983 0.869521 -0.287713
v -0.220983 0.861735 -0.269102
v -0.220983 0.901404 -0.264816
v -0.220983 0.849349 -0.253120
v -0.220983 0.895195 -0.249975
v -0.220983 0.833207 -0.240856
v -0.220983 0.876669 -0.226070
v -0.220983 0.814409 -0.233147
v -0.220983 0.794237 -0.230518
v -0.220983 0.667585 -0.423438
v -0.220983 0.718953 -0.327658
v -0.220983 0.667585 -0.191934
v -0.220983 0.726739 -0.346270
v -0.220983 0.739125 -0.362252
v -0.220983 0.794237 -0.423108
v -0.220983 0.755267 -0.374515
v -0.220983 0.824409 -0.419175
v -0.220983 0.774065 -0.382224
v -0.220983 0.852525 -0.407644
v -0.220983 0.716297 -0.307686
v -0.220983 0.718953 -0.287713
v -0.220983 0.726739 -0.269102
v -0.220983 0.739125 -0.253120
v -0.220983 0.755267 -0.240856
v -0.220983 0.774065 -0.233147
v -0.220983 0.852525 -0.207727
v -0.220983 0.824409 -0.196197
v -0.220983 0.794237 -0.192264
vn -1 0 0
vn 0 0.002606278487964648 -0.999996603650454
vn 0 -1 0
vn 0 0.002606278487964648 0.999996603650454
vn 0 0.2564257309838425 0.9665639370933524
vn 0 0.1292555535378436 0.9916113159295964
vn 0 0.49627333373707605 0.8681663309651492
vn 0 0.7035801295960805 0.7106159308920412
vn 0 0.8638576801917593 0.5037359510435127
vn 0 0.9225227786588477 0.38594264192436506
vn 0 0.9652762090659883 0.26123139208600965
vn 0 1 0
vn 0 0.9652762090659883 -0.26123139208600965
vn 0 0.9225227786588477 -0.38594264192436506
vn 0 0.8638576801917593 -0.5037359510435127
vn 0 0.7035801295960805 -0.7106159308920412
vn 0 0.49627333373707605 -0.8681663309651492
vn 0 0.2564257309838425 -0.9665639370933524
vn 0 0.1292555535378436 -0.9916113159295964
vn 1 0 0
usemtl material_0_0
f 1//1 2//1 3//1
f 2//1 1//1 4//1
f 4//1 1//1 5//1
f 5//1 1//1 6//1
f 3//1 2//1 7//1
f 3//1 7//1 8//1
f 8//1 7//1 9//1
f 8//1 9//1 10//1
f 10//1 9//1 11//1
f 10//1 11//1 12//1
f 5//1 6//1 13//1
f 13//1 6//1 14//1
f 14//1 6//1 15//1
f 15//1 6//1 16//1
f 16//1 6//1 17//1
f 17//1 6//1 18//1
f 18//1 6//1 19//1
f 19//1 6//1 20//1
f 20//1 6//1 21//1
f 21//1 6//1 22//1
f 22//1 6//1 23//1
f 12//1 24//1 25//1
f 24//1 12//1 11//1
f 25//1 24//1 26//1
f 25//1 26//1 27//1
f 25//1 27//1 28//1
f 28//1 27//1 29//1
f 28//1 29//1 30//1
f 30//1 29//1 31//1
f 30//1 31//1 32//1
f 32//1 31//1 33//1
f 32//1 33//1 34//1
f 32//1 34//1 35//1
f 35//1 34//1 36//1
f 35//1 36//1 37//1
f 37//1 36//1 38//1
f 37//1 38//1 39//1
f 39//1 38//1 40//1
f 39//1 40//1 20//1
f 20//1 40//1 41//1
f 20//1 41//1 19//1
f 42//2 43//2 44//2
f 43//2 42//2 45//2
f 46//3 47//3 48//3
f 47//3 46//3 49//3
f 50//4 51//4 52//4
f 51//4 50//4 53//4
f 54//5 55//6 56//6
f 55//6 54//5 57//5
f 58//7 57//5 54//5
f 57//5 58//7 59//7
f 60//8 59//7 58//7
f 59//7 60//8 61//8
f 62//9 61//8 60//8
f 61//8 62//9 63//9
f 64//10 63//9 62//9
f 63//9 64//10 65//10
f 66//11 67//10 68//11
f 67//10 66//11 69//10
f 70//12 66//11 68//11
f 66//11 70//12 71//12
f 72//13 71//12 70//12
f 71//12 72//13 73//13
f 74//14 73//13 72//13
f 73//13 74//14 75//14
f 76//15 77//14 78//15
f 77//14 76//15 79//14
f 80//16 76//15 78//15
f 76//15 80//16 81//16
f 81//16 82//17 83//17
f 82//17 81//16 80//16
f 83//17 84//18 85//18
f 84//18 83//17 82//17
f 85//18 86//19 87//19
f 86//19 85//18 84//18
f 88//20 89//20 90//20
f 89//20 88//20 91//20
f 89//20 91//20 92//20
f 92//20 91//20 93//20
f 93//20 91//20 94//20
f 93//20 94//20 95//20
f 95//20 94//20 96//20
f 95//20 96//20 97//20
f 97//20 96//20 98//20
f 97//20 98//20 99//20
f 99//20 98//20 100//20
f 99//20 100//20 101//20
f 101//20 100//20 102//20
f 102//20 100//20 103//20
f 102//20 103//20 104//20
f 104//20 103//20 105//20
f 104//20 105//20 106//20
f 106//20 105//20 107//20
f 106//20 107//20 108//20
f 108//20 107//20 109//20
f 110//20 111//20 112//20
f 111//20 110//20 113//20
f 113//20 110//20 114//20
f 114//20 110//20 115//20
f 114//20 115//20 116//20
f 116//20 115//20 117//20
f 116//20 117//20 118//20
f 118//20 117//20 119//20
f 118//20 119//20 90//20
f 90//20 119//20 88//20
f 112//20 111//20 120//20
f 112//20 120//20 121//20
f 112//20 121//20 122//20
f 112//20 122//20 123//20
f 112//20 123//20 124//20
f 112//20 124//20 125//20
f 112//20 125//20 109//20
f 112//20 109//20 107//20
f 112//20 107//20 126//20
f 112//20 126//20 127//20
f 112//20 127//20 128//20
