# Blender v2.83.4 OBJ File: 'sliding-toys.blend'
# www.blender.org
mtllib toy-2.mtl
o toy2_Cube.005
v 1.000000 -0.500000 -0.050000
v 1.000000 -0.500000 0.050000
v -1.000000 -0.500000 -0.050000
v -1.000000 -0.500000 0.050000
v 1.000000 0.500000 -0.050000
v 1.000000 0.500000 0.050000
v -1.000000 0.500000 -0.050000
v -1.000000 0.500000 0.050000
v -0.416488 0.043458 0.050000
v -0.416488 0.043458 -0.050000
v -0.775852 -0.142111 0.050000
v -0.775852 -0.142111 -0.050000
v -0.419523 0.166227 0.050000
v -0.419523 0.166227 -0.050000
v -0.020063 -0.034586 0.050000
v -0.020063 -0.034586 -0.050000
v 0.388929 0.043073 0.050000
v 0.388929 0.043073 -0.050000
v 0.800189 -0.027274 0.050000
v 0.800189 -0.027274 -0.050000
v -0.017028 -0.157355 0.050000
v -0.017028 -0.157355 -0.050000
v 0.385894 0.165842 0.050000
v 0.385894 0.165842 -0.050000
v -0.830181 -0.035114 0.050000
v -0.830181 -0.035114 -0.050000
v 0.756994 -0.130390 0.050000
v 0.756994 -0.130390 -0.050000
vt 0.625000 0.000000
vt 0.375000 0.250000
vt 0.375000 0.000000
vt 0.625000 0.250000
vt 0.375000 0.500000
vt 0.625000 0.500000
vt 0.375000 0.750000
vt 0.625000 0.750000
vt 0.375000 1.000000
vt 0.125000 0.500000
vt 0.241221 0.521227
vt 0.214472 0.528019
vt 0.756819 0.725024
vt 0.782598 0.719624
vt 0.875000 0.750000
vt 0.462730 0.000000
vt 0.533929 0.000000
vt 0.537270 0.000000
vt 0.534722 0.500000
vt 0.465278 0.250000
vt 0.465278 0.500000
vt 0.466071 0.000000
vt 0.533929 0.000000
vt 0.533929 0.000000
vt 0.875000 0.500000
vt 0.758779 0.521227
vt 0.466071 0.750000
vt 0.533929 0.750000
vt 0.466071 0.750000
vt 0.466071 0.750000
vt 0.537270 1.000000
vt 0.462730 0.750000
vt 0.462730 1.000000
vt 0.533929 0.750000
vt 0.537270 0.750000
vt 0.534722 0.250000
vt 0.466071 0.000000
vt 0.466071 0.000000
vt 0.243181 0.725024
vt 0.125000 0.750000
vt 0.625000 1.000000
vt 0.291557 0.572559
vt 0.260865 0.572939
vt 0.210661 0.622872
vt 0.708539 0.673237
vt 0.708443 0.572560
vt 0.758646 0.622492
vt 0.789339 0.622872
vt 0.739232 0.673616
vt 0.785528 0.528019
vt 0.739135 0.572939
vt 0.533929 0.750000
vt 0.260768 0.673616
vt 0.217403 0.719624
vt 0.291460 0.673237
vt 0.241353 0.622492
vn 0.0000 -1.0000 0.0000
vn -1.0000 0.0000 0.0000
vn 0.0000 1.0000 0.0000
vn 1.0000 0.0000 0.0000
vn 0.0000 -0.0000 -1.0000
vn 0.0000 0.0000 1.0000
vn 0.4263 0.9046 0.0000
vn 0.8916 0.4527 0.0000
vn 0.4491 0.8935 0.0000
vn 0.4402 -0.8979 0.0000
vn 0.4427 -0.8967 0.0000
vn -0.9223 0.3864 0.0000
vn -0.4491 -0.8935 0.0000
vn -0.4225 -0.9064 0.0000
vn -0.4588 0.8885 0.0000
vn -0.4427 0.8967 0.0000
usemtl None
s off
f 2/1/1 3/2/1 1/3/1
f 4/4/2 7/5/2 3/2/2
f 8/6/3 5/7/3 7/5/3
f 6/8/4 1/9/4 5/7/4
f 3/10/5 26/11/5 12/12/5
f 19/13/6 27/14/6 2/15/6
f 28/16/7 17/17/7 27/18/7
f 25/19/8 12/20/8 26/21/8
f 22/22/9 9/23/9 21/24/9
f 4/25/6 25/26/6 8/6/6
f 14/27/10 25/19/10 26/21/10
f 23/28/11 16/29/11 24/30/11
f 27/31/12 20/32/12 28/33/12
f 15/34/13 14/27/13 16/29/13
f 19/35/14 24/30/14 20/32/14
f 11/36/15 10/37/15 12/20/15
f 18/38/16 21/24/16 17/17/16
f 20/39/5 5/7/5 1/40/5
f 2/1/1 4/4/1 3/2/1
f 4/4/2 8/6/2 7/5/2
f 8/6/3 6/8/3 5/7/3
f 6/8/4 2/41/4 1/9/4
f 7/5/5 14/42/5 26/11/5
f 12/12/5 10/43/5 22/44/5
f 3/10/5 7/5/5 26/11/5
f 12/12/5 22/44/5 3/10/5
f 6/8/6 8/6/6 23/45/6
f 8/6/6 13/46/6 23/45/6
f 13/46/6 15/47/6 23/45/6
f 21/48/6 4/25/6 2/15/6
f 27/14/6 17/49/6 21/48/6
f 6/8/6 23/45/6 19/13/6
f 27/14/6 21/48/6 2/15/6
f 2/15/6 6/8/6 19/13/6
f 28/16/7 18/38/7 17/17/7
f 25/19/8 11/36/8 12/20/8
f 22/22/9 10/37/9 9/23/9
f 4/25/6 21/48/6 11/50/6
f 21/48/6 9/51/6 11/50/6
f 25/26/6 13/46/6 8/6/6
f 4/25/6 11/50/6 25/26/6
f 14/27/10 13/52/10 25/19/10
f 23/28/11 15/34/11 16/29/11
f 27/31/12 19/35/12 20/32/12
f 15/34/13 13/52/13 14/27/13
f 19/35/14 23/28/14 24/30/14
f 11/36/15 9/23/15 10/37/15
f 18/38/16 22/22/16 21/24/16
f 22/44/5 18/53/5 28/54/5
f 3/10/5 22/44/5 1/40/5
f 22/44/5 28/54/5 1/40/5
f 14/42/5 7/5/5 24/55/5
f 7/5/5 5/7/5 24/55/5
f 24/55/5 16/56/5 14/42/5
f 20/39/5 24/55/5 5/7/5
f 1/40/5 28/54/5 20/39/5
