# SSTK version 0.8.0
# 10
mtllib original-10.mtl
o mesh10/mesh10-geometry/material_0/component_0#mesh10-geometry
v -0.085860 0.198656 0.034106
v 0.065034 -0.188733 0.034106
v -0.085860 -0.188733 0.034106
v 0.065034 -0.188733 0.034106
v -0.085860 0.198656 0.034106
v 0.065034 0.198656 0.034106
v 0.065034 -0.188733 0.034106
v -0.085860 -0.188733 0.065096
v -0.085860 -0.188733 0.034106
v -0.085860 -0.188733 0.065096
v -0.085860 0.198656 0.034106
v -0.085860 -0.188733 0.034106
v -0.085860 0.198656 0.034106
v 0.065034 0.198656 0.065096
v 0.065034 0.198656 0.034106
v 0.065034 0.198656 0.065096
v 0.065034 -0.188733 0.034106
v 0.065034 0.198656 0.034106
v -0.085860 -0.188733 0.065096
v 0.065034 -0.188733 0.034106
v 0.065034 -0.188733 0.065096
v -0.085860 0.198656 0.034106
v -0.085860 -0.188733 0.065096
v -0.085860 0.198656 0.065096
v 0.065034 0.198656 0.065096
v -0.085860 0.198656 0.034106
v -0.085860 0.198656 0.065096
v 0.065034 -0.188733 0.034106
v 0.065034 0.198656 0.065096
v 0.065034 -0.188733 0.065096
v 0.065034 -0.188733 0.065096
v 0.055196 -0.178898 0.065096
v -0.085860 -0.188733 0.065096
v -0.076022 -0.178898 0.065096
v -0.085860 -0.188733 0.065096
v 0.055196 -0.178898 0.065096
v 0.055196 -0.178898 0.065096
v -0.076022 -0.178898 0.049601
v -0.076022 -0.178898 0.065096
v -0.076022 -0.178898 0.049601
v 0.055196 -0.178898 0.065096
v 0.055196 -0.178898 0.049601
v -0.085860 -0.188733 0.065096
v -0.076022 -0.178898 0.065096
v -0.085860 0.198656 0.065096
v -0.085860 0.198656 0.065096
v -0.076022 -0.178898 0.065096
v -0.076022 0.188814 0.065096
v -0.076022 -0.178898 0.049601
v -0.073602 -0.176475 0.049601
v -0.076022 0.188814 0.049601
v -0.076022 0.188814 0.049601
v -0.073602 -0.176475 0.049601
v -0.073602 0.186383 0.049601
v -0.076022 -0.178898 0.049601
v -0.076022 0.188814 0.065096
v -0.076022 -0.178898 0.065096
v -0.076022 0.188814 0.065096
v -0.076022 -0.178898 0.049601
v -0.076022 0.188814 0.049601
v 0.055196 0.188814 0.065096
v 0.065034 0.198656 0.065096
v -0.076022 0.188814 0.065096
v -0.085860 0.198656 0.065096
v -0.076022 0.188814 0.065096
v 0.065034 0.198656 0.065096
v -0.076022 0.188814 0.065096
v 0.055196 0.188814 0.049601
v 0.055196 0.188814 0.065096
v 0.052776 0.186383 0.065096
v -0.073602 0.186383 0.049601
v -0.073602 0.186383 0.065096
v -0.073602 0.186383 0.049601
v 0.052776 0.186383 0.065096
v 0.052776 0.186383 0.049601
v 0.055196 -0.178898 0.065096
v 0.065034 -0.188733 0.065096
v 0.065034 0.198656 0.065096
v 0.055196 -0.178898 0.065096
v 0.065034 0.198656 0.065096
v 0.055196 0.188814 0.065096
v 0.055196 0.188814 0.049601
v 0.055196 -0.178898 0.065096
v 0.055196 0.188814 0.065096
v -0.073602 -0.176475 0.049601
v -0.076022 -0.178898 0.049601
v 0.052776 -0.176475 0.049601
v 0.055196 -0.178898 0.065096
v 0.055196 0.188814 0.049601
v 0.055196 -0.178898 0.049601
v 0.055196 -0.178898 0.049601
v 0.052776 -0.176475 0.049601
v -0.076022 -0.178898 0.049601
v -0.076022 0.188814 0.049601
v -0.073602 0.186383 0.049601
v 0.055196 0.188814 0.049601
v 0.055196 0.188814 0.049601
v -0.076022 0.188814 0.065096
v -0.076022 0.188814 0.049601
v 0.052776 0.186383 0.049601
v 0.055196 0.188814 0.049601
v -0.073602 0.186383 0.049601
v 0.052776 -0.176475 0.049601
v 0.055196 -0.178898 0.049601
v 0.055196 0.188814 0.049601
v 0.052776 -0.176475 0.049601
v 0.055196 0.188814 0.049601
v 0.052776 0.186383 0.049601
v -0.085860 -0.188733 0.034106
v 0.065034 -0.188733 0.034106
v -0.085860 0.198656 0.034106
v 0.065034 0.198656 0.034106
v -0.085860 0.198656 0.034106
v 0.065034 -0.188733 0.034106
v -0.085860 -0.188733 0.034106
v -0.085860 -0.188733 0.065096
v 0.065034 -0.188733 0.034106
v -0.085860 -0.188733 0.034106
v -0.085860 0.198656 0.034106
v -0.085860 -0.188733 0.065096
v 0.065034 0.198656 0.034106
v 0.065034 0.198656 0.065096
v -0.085860 0.198656 0.034106
v 0.065034 0.198656 0.034106
v 0.065034 -0.188733 0.034106
v 0.065034 0.198656 0.065096
v 0.065034 -0.188733 0.065096
v 0.065034 -0.188733 0.034106
v -0.085860 -0.188733 0.065096
v -0.085860 0.198656 0.065096
v -0.085860 -0.188733 0.065096
v -0.085860 0.198656 0.034106
v -0.085860 0.198656 0.065096
v -0.085860 0.198656 0.034106
v 0.065034 0.198656 0.065096
v 0.065034 -0.188733 0.065096
v 0.065034 0.198656 0.065096
v 0.065034 -0.188733 0.034106
v -0.085860 -0.188733 0.065096
v 0.055196 -0.178898 0.065096
v 0.065034 -0.188733 0.065096
v 0.055196 -0.178898 0.065096
v -0.085860 -0.188733 0.065096
v -0.076022 -0.178898 0.065096
v -0.076022 -0.178898 0.065096
v -0.076022 -0.178898 0.049601
v 0.055196 -0.178898 0.065096
v 0.055196 -0.178898 0.049601
v 0.055196 -0.178898 0.065096
v -0.076022 -0.178898 0.049601
v -0.085860 0.198656 0.065096
v -0.076022 -0.178898 0.065096
v -0.085860 -0.188733 0.065096
v -0.076022 0.188814 0.065096
v -0.076022 -0.178898 0.065096
v -0.085860 0.198656 0.065096
v -0.076022 0.188814 0.049601
v -0.073602 -0.176475 0.049601
v -0.076022 -0.178898 0.049601
v -0.073602 0.186383 0.049601
v -0.073602 -0.176475 0.049601
v -0.076022 0.188814 0.049601
v -0.076022 -0.178898 0.065096
v -0.076022 0.188814 0.065096
v -0.076022 -0.178898 0.049601
v -0.076022 0.188814 0.049601
v -0.076022 -0.178898 0.049601
v -0.076022 0.188814 0.065096
v -0.076022 0.188814 0.065096
v 0.065034 0.198656 0.065096
v 0.055196 0.188814 0.065096
v 0.065034 0.198656 0.065096
v -0.076022 0.188814 0.065096
v -0.085860 0.198656 0.065096
v 0.055196 0.188814 0.065096
v 0.055196 0.188814 0.049601
v -0.076022 0.188814 0.065096
v -0.073602 0.186383 0.065096
v -0.073602 0.186383 0.049601
v 0.052776 0.186383 0.065096
v 0.052776 0.186383 0.049601
v 0.052776 0.186383 0.065096
v -0.073602 0.186383 0.049601
v 0.065034 0.198656 0.065096
v 0.065034 -0.188733 0.065096
v 0.055196 -0.178898 0.065096
v 0.055196 0.188814 0.065096
v 0.065034 0.198656 0.065096
v 0.055196 -0.178898 0.065096
v 0.055196 0.188814 0.065096
v 0.055196 -0.178898 0.065096
v 0.055196 0.188814 0.049601
v 0.052776 -0.176475 0.049601
v -0.076022 -0.178898 0.049601
v -0.073602 -0.176475 0.049601
v 0.055196 -0.178898 0.049601
v 0.055196 0.188814 0.049601
v 0.055196 -0.178898 0.065096
v -0.076022 -0.178898 0.049601
v 0.052776 -0.176475 0.049601
v 0.055196 -0.178898 0.049601
v 0.055196 0.188814 0.049601
v -0.073602 0.186383 0.049601
v -0.076022 0.188814 0.049601
v -0.076022 0.188814 0.049601
v -0.076022 0.188814 0.065096
v 0.055196 0.188814 0.049601
v -0.073602 0.186383 0.049601
v 0.055196 0.188814 0.049601
v 0.052776 0.186383 0.049601
v 0.055196 0.188814 0.049601
v 0.055196 -0.178898 0.049601
v 0.052776 -0.176475 0.049601
v 0.052776 0.186383 0.049601
v 0.055196 0.188814 0.049601
v 0.052776 -0.176475 0.049601
vn 0 0 -1
vn 0 -1 0
vn -1 0 0
vn 0 1 0
vn 1 0 0
vn 0 0 1
usemtl material_0_0
f 1//1 2//1 3//1
f 4//1 5//1 6//1
f 7//2 8//2 9//2
f 10//3 11//3 12//3
f 13//4 14//4 15//4
f 16//5 17//5 18//5
f 19//2 20//2 21//2
f 22//3 23//3 24//3
f 25//4 26//4 27//4
f 28//5 29//5 30//5
f 31//6 32//6 33//6
f 34//6 35//6 36//6
f 37//4 38//4 39//4
f 40//4 41//4 42//4
f 43//6 44//6 45//6
f 46//6 47//6 48//6
f 49//6 50//6 51//6
f 52//6 53//6 54//6
f 55//5 56//5 57//5
f 58//5 59//5 60//5
f 61//6 62//6 63//6
f 64//6 65//6 66//6
f 67//2 68//2 69//2
f 70//4 71//4 72//4
f 73//4 74//4 75//4
f 76//6 77//6 78//6
f 79//6 80//6 81//6
f 82//3 83//3 84//3
f 85//6 86//6 87//6
f 88//3 89//3 90//3
f 91//6 92//6 93//6
f 94//6 95//6 96//6
f 97//2 98//2 99//2
f 100//6 101//6 102//6
f 103//6 104//6 105//6
f 106//6 107//6 108//6
usemtl material_1_0
f 109//6 110//6 111//6
f 112//6 113//6 114//6
f 115//4 116//4 117//4
f 118//5 119//5 120//5
f 121//2 122//2 123//2
f 124//3 125//3 126//3
f 127//4 128//4 129//4
f 130//5 131//5 132//5
f 133//2 134//2 135//2
f 136//3 137//3 138//3
f 139//1 140//1 141//1
f 142//1 143//1 144//1
f 145//2 146//2 147//2
f 148//2 149//2 150//2
f 151//1 152//1 153//1
f 154//1 155//1 156//1
f 157//1 158//1 159//1
f 160//1 161//1 162//1
f 163//3 164//3 165//3
f 166//3 167//3 168//3
f 169//1 170//1 171//1
f 172//1 173//1 174//1
f 175//4 176//4 177//4
f 178//2 179//2 180//2
f 181//2 182//2 183//2
f 184//1 185//1 186//1
f 187//1 188//1 189//1
f 190//5 191//5 192//5
f 193//1 194//1 195//1
f 196//5 197//5 198//5
f 199//1 200//1 201//1
f 202//1 203//1 204//1
f 205//4 206//4 207//4
f 208//1 209//1 210//1
f 211//1 212//1 213//1
f 214//1 215//1 216//1
