# SSTK version 0.8.0
# 11
mtllib original-11.mtl
o mesh10/mesh10-geometry/material_0/component_1#mesh10-geometry
v -0.073602 -0.146276 0.065096
v 0.052776 0.015169 0.065096
v -0.073602 0.015169 0.065096
v 0.052776 0.015169 0.065096
v -0.073602 -0.146276 0.065096
v 0.052776 -0.146276 0.065096
v -0.073602 0.015169 0.065096
v 0.052776 0.015169 0.065096
v -0.073602 -0.146276 0.065096
v 0.052776 -0.146276 0.065096
v -0.073602 -0.146276 0.065096
v 0.052776 0.015169 0.065096
vn 0 0 1
vn 0 0 -1
usemtl material_0_0
f 1//1 2//1 3//1
f 4//1 5//1 6//1
usemtl material_1_0
f 7//2 8//2 9//2
f 10//2 11//2 12//2
