# SSTK version 0.8.0
# 3
mtllib original-3.mtl
o mesh2/mesh2-geometry#mesh2-geometry
v 0.037722 -0.020682 0.067266
v 0.037722 -0.081539 0.067266
v 0.045866 -0.020682 0.067266
v 0.037722 -0.020682 0.065088
v 0.045866 -0.097540 0.067266
v 0.037722 -0.081539 0.065088
v 0.036093 -0.097540 0.067266
v 0.045866 -0.097540 0.065088
v 0.045866 -0.020682 0.065088
v 0.011353 -0.020682 0.067266
v 0.011353 -0.020682 0.065088
v 0.036093 -0.097540 0.065088
v 0.007127 -0.031263 0.067266
v -0.001016 -0.020682 0.065088
v -0.001016 -0.020682 0.067266
v 0.007127 -0.031263 0.065088
v -0.001016 -0.097540 0.067266
v 0.007127 -0.097540 0.065088
v 0.007127 -0.097540 0.067266
v -0.001016 -0.097540 0.065088
vn 0 0 1
vn 0 0 -1
vn -1 0 0
vn 1 0 0
vn 0 1 0
vn 0 -1 0
vn 0.9175712245520585 0.39757143744745516 0
vn -0.9175712245520585 -0.39757143744745516 0
vn -0.9163113464310814 -0.40046662333040783 0
vn 0.9163113464310814 0.40046662333040783 0
usemtl material_0_0
f 1//1 2//1 3//1
f 3//2 2//2 1//2
f 1//3 4//3 2//3
f 2//4 4//4 1//4
f 3//1 2//1 5//1
f 5//2 2//2 3//2
f 1//5 3//5 4//5
f 4//6 3//6 1//6
f 6//3 2//3 4//3
f 4//4 2//4 6//4
f 5//1 2//1 7//1
f 7//2 2//2 5//2
f 5//4 8//4 3//4
f 3//3 8//3 5//3
f 9//5 4//5 3//5
f 3//6 4//6 9//6
f 2//7 6//7 10//7
f 10//8 6//8 2//8
f 4//2 8//2 6//2
f 6//1 8//1 4//1
f 2//1 10//1 7//1
f 7//2 10//2 2//2
f 5//6 7//6 8//6
f 8//5 7//5 5//5
f 9//4 3//4 8//4
f 8//3 3//3 9//3
f 9//2 8//2 4//2
f 4//1 8//1 9//1
f 11//7 10//7 6//7
f 6//8 10//8 11//8
f 8//2 12//2 6//2
f 6//1 12//1 8//1
f 7//1 10//1 13//1
f 13//2 10//2 7//2
f 12//6 8//6 7//6
f 7//5 8//5 12//5
f 11//5 14//5 10//5
f 10//6 14//6 11//6
f 6//2 12//2 11//2
f 11//1 12//1 6//1
f 10//1 15//1 13//1
f 13//2 15//2 10//2
f 13//9 16//9 7//9
f 7//10 16//10 13//10
f 12//9 7//9 16//9
f 16//10 7//10 12//10
f 11//2 16//2 14//2
f 14//1 16//1 11//1
f 15//5 10//5 14//5
f 14//6 10//6 15//6
f 12//2 16//2 11//2
f 11//1 16//1 12//1
f 17//1 13//1 15//1
f 15//2 13//2 17//2
f 16//4 13//4 18//4
f 18//3 13//3 16//3
f 16//2 18//2 14//2
f 14//1 18//1 16//1
f 15//3 14//3 17//3
f 17//4 14//4 15//4
f 13//1 17//1 19//1
f 19//2 17//2 13//2
f 19//4 18//4 13//4
f 13//3 18//3 19//3
f 20//2 14//2 18//2
f 18//1 14//1 20//1
f 20//3 17//3 14//3
f 14//4 17//4 20//4
f 19//6 17//6 18//6
f 18//5 17//5 19//5
f 20//6 18//6 17//6
f 17//5 18//5 20//5
