# SSTK version 0.8.0
# 2
mtllib original-2.mtl
o mesh2/mesh2-geometry#mesh2-geometry
v 0.000009 1.022250 -0.004768
v 0.000137 0.064057 -0.004460
v 0.000009 0.064057 -0.004768
v 0.000137 1.022250 -0.004460
v 0.002715 0.064057 -0.004711
v -0.000194 1.022250 -0.005034
v -0.002338 1.022250 -0.004460
v 0.000181 0.064057 -0.004128
v 0.002585 0.064057 -0.005699
v -0.000194 0.064057 -0.005034
v -0.002210 1.022250 -0.004768
v -0.002381 1.022250 -0.004128
v 0.000181 1.022250 -0.004128
v 0.000137 0.064057 -0.003796
v 0.002715 0.047781 -0.004711
v -0.000459 0.064057 -0.005237
v -0.002006 1.022250 -0.005034
v -0.002338 0.064057 -0.004460
v -0.002210 0.064057 -0.004768
v 0.002585 0.064057 -0.003724
v 0.002585 0.047781 -0.005699
v 0.002585 0.047781 -0.003724
v -0.000459 1.022250 -0.005237
v -0.002006 0.064057 -0.005034
v -0.002338 1.022250 -0.003796
v -0.002381 0.064057 -0.004128
v 0.000137 1.022250 -0.003796
v 0.000009 0.064057 -0.003487
v -0.004786 0.047781 -0.005699
v 0.002204 0.064057 -0.006619
v -0.004916 0.047781 -0.004711
v -0.000768 0.064057 -0.005365
v -0.001741 1.022250 -0.005237
v -0.004916 0.064057 -0.004711
v -0.004786 0.064057 -0.005699
v -0.000194 0.064057 -0.003222
v 0.002204 0.047781 -0.002803
v -0.004404 0.047781 -0.006619
v 0.002204 0.047781 -0.006619
v -0.004786 0.047781 -0.003724
v -0.001100 0.064057 -0.005409
v -0.000768 1.022250 -0.005365
v -0.001741 0.064057 -0.005237
v -0.002210 1.022250 -0.003487
v -0.002338 0.064057 -0.003796
v 0.000009 1.022250 -0.003487
v -0.000459 0.064057 -0.003018
v 0.002204 0.064057 -0.002803
v 0.001598 0.064057 -0.007409
v -0.004404 0.064057 -0.006619
v -0.004786 0.064057 -0.003724
v -0.001432 1.022250 -0.005365
v -0.001432 0.064057 -0.005365
v -0.000768 0.064057 -0.002890
v -0.000459 1.022250 -0.003018
v -0.000194 1.022250 -0.003222
v 0.001598 0.047781 -0.002013
v -0.004404 0.047781 -0.002803
v -0.003798 0.047781 -0.007409
v 0.001598 0.047781 -0.007409
v -0.004404 0.064057 -0.002803
v -0.001100 1.022250 -0.005409
v -0.002006 1.022250 -0.003222
v -0.002210 0.064057 -0.003487
v -0.000768 1.022250 -0.002890
v -0.001100 0.064057 -0.002846
v 0.001598 0.064057 -0.002013
v 0.000808 0.047781 -0.008015
v -0.003798 0.064057 -0.007409
v -0.001432 0.064057 -0.002890
v -0.002006 0.064057 -0.003222
v -0.001100 1.022250 -0.002846
v -0.001741 1.022250 -0.003018
v -0.001432 1.022250 -0.002890
v -0.003798 0.064057 -0.002013
v 0.000808 0.064057 -0.001407
v -0.003798 0.047781 -0.002013
v -0.003008 0.047781 -0.008015
v 0.000808 0.064057 -0.008015
v -0.001741 0.064057 -0.003018
v -0.003008 0.064057 -0.001407
v 0.000808 0.047781 -0.001407
v -0.003008 0.064057 -0.008015
v -0.000113 0.047781 -0.008396
v -0.002088 0.047781 -0.008396
v -0.003008 0.047781 -0.001407
v -0.000113 0.064057 -0.001026
v -0.002088 0.064057 -0.001026
v -0.002088 0.064057 -0.008396
v -0.000113 0.064057 -0.008396
v -0.002088 0.047781 -0.001026
v -0.000113 0.047781 -0.001026
v -0.001100 0.047781 -0.008526
v -0.001100 0.064057 -0.008526
v -0.001100 0.064057 -0.000896
v -0.001100 0.047781 -0.000896
vn 0.8660253028382762 0 -0.5000001748438417
vn 0.965925849201117 0 -0.2588189595935754
vn -0.8660253028382762 0 0.5000001748438417
vn -0.965925849201117 0 0.2588189595935754
vn 0 1 0
vn 0 -1 0
vn 0.7071067811865476 0 -0.7071067811865476
vn -0.7071067811865476 0 0.7071067811865476
vn 1 0 0
vn -1 0 0
vn 0.5000001748438417 0 -0.8660253028382762
vn -0.5000001748438417 0 0.8660253028382762
vn -0.965925849201117 0 -0.2588189595935754
vn 0.965925849201117 0 0.2588189595935754
vn -0.8660253028382762 0 -0.5000001748438417
vn 0.8660253028382762 0 0.5000001748438417
vn -0.7071067811865476 0 -0.7071067811865476
vn 0.7071067811865476 0 0.7071067811865476
vn 0.2588189595935754 0 -0.965925849201117
vn -0.2588189595935754 0 0.965925849201117
vn -0.5000001748438417 0 -0.8660253028382762
vn 0.5000001748438417 0 0.8660253028382762
vn 0 0 -1
vn 0 0 1
vn -0.2588189595935754 0 -0.965925849201117
vn 0.2588189595935754 0 0.965925849201117
usemtl material_0_0
f 1//1 2//2 3//1
f 2//2 1//1 4//2
f 3//3 2//4 1//3
f 4//4 1//3 2//4
f 2//5 5//5 3//5
f 3//6 5//6 2//6
f 3//1 6//7 1//1
f 1//3 6//8 3//3
f 7//5 4//5 1//5
f 1//6 4//6 7//6
f 4//2 8//9 2//2
f 2//4 8//10 4//4
f 8//5 5//5 2//5
f 2//6 5//6 8//6
f 3//5 5//5 9//5
f 9//6 5//6 3//6
f 6//7 3//1 10//7
f 10//8 3//3 6//8
f 11//5 1//5 6//5
f 6//6 1//6 11//6
f 12//5 4//5 7//5
f 7//6 4//6 12//6
f 7//5 1//5 11//5
f 11//6 1//6 7//6
f 8//9 4//2 13//9
f 13//10 4//4 8//10
f 14//5 5//5 8//5
f 8//6 5//6 14//6
f 15//9 9//2 5//9
f 5//10 9//4 15//10
f 3//5 9//5 10//5
f 10//6 9//6 3//6
f 16//11 6//7 10//7
f 10//8 6//8 16//12
f 11//5 6//5 17//5
f 17//6 6//6 11//6
f 12//5 13//5 4//5
f 4//6 13//6 12//6
f 18//13 12//10 7//13
f 7//14 12//9 18//14
f 19//15 7//13 11//15
f 11//16 7//14 19//16
f 13//9 14//14 8//9
f 8//10 14//13 13//10
f 14//5 20//5 5//5
f 5//6 20//6 14//6
f 9//2 15//9 21//2
f 21//4 15//10 9//4
f 5//9 22//14 15//9
f 15//10 22//13 5//10
f 10//5 9//5 16//5
f 16//6 9//6 10//6
f 6//7 16//11 23//11
f 23//12 16//12 6//8
f 17//5 6//5 23//5
f 23//6 6//6 17//6
f 24//17 11//15 17//17
f 17//18 11//16 24//18
f 25//5 13//5 12//5
f 12//6 13//6 25//6
f 12//10 18//13 26//10
f 26//9 18//14 12//9
f 7//13 19//15 18//13
f 18//14 19//16 7//14
f 11//15 24//17 19//15
f 19//16 24//18 11//16
f 14//14 13//9 27//14
f 27//13 13//10 14//13
f 28//5 20//5 14//5
f 14//6 20//6 28//6
f 22//14 5//9 20//14
f 20//13 5//10 22//13
f 15//6 29//6 21//6
f 21//5 29//5 15//5
f 21//2 30//1 9//2
f 9//4 30//3 21//4
f 22//6 31//6 15//6
f 15//5 31//5 22//5
f 16//5 9//5 32//5
f 32//6 9//6 16//6
f 32//19 23//11 16//11
f 16//12 23//12 32//20
f 17//5 23//5 33//5
f 33//6 23//6 17//6
f 33//21 24//17 17//17
f 17//18 24//18 33//22
f 25//5 27//5 13//5
f 13//6 27//6 25//6
f 26//10 25//4 12//10
f 12//9 25//2 26//9
f 34//5 26//5 18//5
f 18//6 26//6 34//6
f 34//5 18//5 19//5
f 19//6 18//6 34//6
f 35//5 19//5 24//5
f 24//6 19//6 35//6
f 27//14 28//16 14//14
f 14//13 28//15 27//13
f 36//5 20//5 28//5
f 28//6 20//6 36//6
f 20//14 37//16 22//14
f 22//13 37//15 20//13
f 15//6 31//6 29//6
f 29//5 31//5 15//5
f 21//6 29//6 38//6
f 38//5 29//5 21//5
f 30//1 21//2 39//1
f 39//3 21//4 30//3
f 35//5 9//5 30//5
f 30//6 9//6 35//6
f 22//6 40//6 31//6
f 31//5 40//5 22//5
f 32//5 9//5 41//5
f 41//6 9//6 32//6
f 23//11 32//19 42//19
f 42//20 32//20 23//12
f 33//5 23//5 42//5
f 42//6 23//6 33//6
f 24//17 33//21 43//21
f 43//22 33//22 24//18
f 44//5 27//5 25//5
f 25//6 27//6 44//6
f 25//4 26//10 45//4
f 45//2 26//9 25//2
f 34//5 45//5 26//5
f 26//6 45//6 34//6
f 34//5 19//5 35//5
f 35//6 19//6 34//6
f 35//5 24//5 43//5
f 43//6 24//6 35//6
f 28//16 27//14 46//16
f 46//15 27//13 28//15
f 47//5 20//5 36//5
f 36//6 20//6 47//6
f 46//16 36//18 28//16
f 28//15 36//17 46//15
f 37//16 20//14 48//16
f 48//15 20//13 37//15
f 37//6 40//6 22//6
f 22//5 40//5 37//5
f 34//10 29//13 31//10
f 31//9 29//14 34//9
f 35//13 38//15 29//13
f 29//14 38//16 35//14
f 21//6 38//6 39//6
f 39//5 38//5 21//5
f 39//1 49//7 30//1
f 30//3 49//8 39//3
f 35//5 41//5 9//5
f 9//6 41//6 35//6
f 35//5 30//5 50//5
f 50//6 30//6 35//6
f 51//4 31//10 40//4
f 40//2 31//9 51//2
f 41//23 42//19 32//19
f 32//20 42//20 41//24
f 33//5 42//5 52//5
f 52//6 42//6 33//6
f 52//25 43//21 33//21
f 33//22 43//22 52//26
f 44//5 46//5 27//5
f 27//6 46//6 44//6
f 45//4 44//3 25//4
f 25//2 44//1 45//2
f 51//5 45//5 34//5
f 34//6 45//6 51//6
f 29//13 34//10 35//13
f 35//14 34//9 29//14
f 35//5 43//5 53//5
f 53//6 43//6 35//6
f 54//5 20//5 47//5
f 47//6 20//6 54//6
f 36//18 55//22 47//22
f 47//21 55//21 36//17
f 36//18 46//16 56//18
f 56//17 46//15 36//17
f 54//5 48//5 20//5
f 20//6 48//6 54//6
f 48//16 57//18 37//16
f 37//15 57//17 48//15
f 37//6 58//6 40//6
f 40//5 58//5 37//5
f 31//10 51//4 34//10
f 34//9 51//2 31//9
f 38//15 35//13 50//15
f 50//16 35//14 38//16
f 39//6 38//6 59//6
f 59//5 38//5 39//5
f 49//7 39//1 60//7
f 60//8 39//3 49//8
f 50//5 30//5 49//5
f 49//6 30//6 50//6
f 35//5 53//5 41//5
f 41//6 53//6 35//6
f 40//4 61//3 51//4
f 51//2 61//1 40//2
f 42//19 41//23 62//23
f 62//24 41//24 42//20
f 52//5 42//5 62//5
f 62//6 42//6 52//6
f 43//21 52//25 53//25
f 53//26 52//26 43//22
f 63//5 46//5 44//5
f 44//6 46//6 63//6
f 44//3 45//4 64//3
f 64//1 45//2 44//1
f 51//5 64//5 45//5
f 45//6 64//6 51//6
f 47//22 65//26 54//26
f 54//25 65//25 47//21
f 55//22 36//18 56//18
f 56//17 36//17 55//21
f 65//26 47//22 55//22
f 55//21 47//21 65//25
f 63//5 56//5 46//5
f 46//6 56//6 63//6
f 66//5 48//5 54//5
f 54//6 48//6 66//6
f 57//18 48//16 67//18
f 67//17 48//15 57//17
f 57//6 58//6 37//6
f 37//5 58//5 57//5
f 61//3 40//4 58//3
f 58//1 40//2 61//1
f 50//15 59//17 38//15
f 38//16 59//18 50//16
f 39//6 59//6 60//6
f 60//5 59//5 39//5
f 68//11 49//7 60//7
f 60//8 49//8 68//12
f 50//5 49//5 69//5
f 69//6 49//6 50//6
f 53//25 62//23 41//23
f 41//24 62//24 53//26
f 61//5 70//5 51//5
f 51//6 70//6 61//6
f 62//23 53//25 52//25
f 52//26 53//26 62//24
f 64//3 63//8 44//3
f 44//1 63//7 64//1
f 51//5 71//5 64//5
f 64//6 71//6 51//6
f 72//24 54//26 65//26
f 65//25 54//25 72//23
f 73//5 55//5 56//5
f 56//6 55//6 73//6
f 74//5 65//5 55//5
f 55//6 65//6 74//6
f 73//5 56//5 63//5
f 63//6 56//6 73//6
f 61//5 48//5 66//5
f 66//6 48//6 61//6
f 54//26 72//24 66//24
f 66//23 72//23 54//25
f 75//5 67//5 48//5
f 48//6 67//6 75//6
f 76//22 57//18 67//18
f 67//17 57//17 76//21
f 57//6 77//6 58//6
f 58//5 77//5 57//5
f 58//3 75//8 61//3
f 61//1 75//7 58//1
f 59//17 50//15 69//17
f 69//18 50//16 59//18
f 60//6 59//6 78//6
f 78//5 59//5 60//5
f 49//7 68//11 79//11
f 79//12 68//12 49//8
f 60//6 78//6 68//6
f 68//5 78//5 60//5
f 69//5 49//5 79//5
f 79//6 49//6 69//6
f 70//5 61//5 66//5
f 66//6 61//6 70//6
f 51//5 70//5 80//5
f 80//6 70//6 51//6
f 63//8 64//3 71//8
f 71//7 64//1 63//7
f 51//5 80//5 71//5
f 71//6 80//6 51//6
f 65//5 74//5 72//5
f 72//6 74//6 65//6
f 74//5 55//5 73//5
f 73//6 55//6 74//6
f 63//8 80//12 73//12
f 73//11 80//11 63//7
f 75//5 48//5 61//5
f 61//6 48//6 75//6
f 74//20 66//24 72//24
f 72//23 66//23 74//19
f 81//5 67//5 75//5
f 75//6 67//6 81//6
f 57//18 76//22 82//22
f 82//21 76//21 57//17
f 81//5 76//5 67//5
f 67//6 76//6 81//6
f 82//6 77//6 57//6
f 57//5 77//5 82//5
f 75//8 58//3 77//8
f 77//7 58//1 75//7
f 83//21 59//17 69//17
f 69//18 59//18 83//22
f 59//17 83//21 78//21
f 78//22 83//22 59//18
f 84//19 79//11 68//11
f 68//12 79//12 84//20
f 68//6 78//6 85//6
f 85//5 78//5 68//5
f 69//5 79//5 83//5
f 83//6 79//6 69//6
f 66//24 74//20 70//20
f 70//19 74//19 66//23
f 70//20 73//12 80//12
f 80//11 73//11 70//19
f 80//12 63//8 71//8
f 71//7 63//7 80//11
f 73//12 70//20 74//20
f 74//19 70//19 73//11
f 75//8 86//12 81//12
f 81//11 86//11 75//7
f 87//26 82//22 76//22
f 76//21 82//21 87//25
f 88//5 76//5 81//5
f 81//6 76//6 88//6
f 82//6 86//6 77//6
f 77//5 86//5 82//5
f 86//12 75//8 77//8
f 77//7 75//7 86//11
f 89//25 78//21 83//21
f 83//22 78//22 89//26
f 79//11 84//19 90//19
f 90//20 84//20 79//12
f 68//6 85//6 84//6
f 84//5 85//5 68//5
f 78//21 89//25 85//25
f 85//26 89//26 78//22
f 83//5 79//5 90//5
f 90//6 79//6 83//6
f 91//20 81//12 86//12
f 86//11 81//11 91//19
f 82//22 87//26 92//26
f 92//25 87//25 82//21
f 88//5 87//5 76//5
f 76//6 87//6 88//6
f 81//12 91//20 88//20
f 88//19 91//19 81//11
f 92//6 86//6 82//6
f 82//5 86//5 92//5
f 83//5 90//5 89//5
f 89//6 90//6 83//6
f 93//23 90//19 84//19
f 84//20 90//20 93//24
f 84//6 85//6 93//6
f 93//5 85//5 84//5
f 94//23 85//25 89//25
f 89//26 85//26 94//24
f 92//6 91//6 86//6
f 86//5 91//5 92//5
f 95//24 92//26 87//26
f 87//25 92//25 95//23
f 87//5 88//5 95//5
f 95//6 88//6 87//6
f 96//24 88//20 91//20
f 91//19 88//19 96//23
f 89//5 90//5 94//5
f 94//6 90//6 89//6
f 90//19 93//23 94//23
f 94//24 93//24 90//20
f 85//25 94//23 93//23
f 93//24 94//24 85//26
f 91//6 92//6 96//6
f 96//5 92//5 91//5
f 92//26 95//24 96//24
f 96//23 95//23 92//25
f 88//20 96//24 95//24
f 95//23 96//23 88//19
