# SSTK version 0.8.0
# 5
mtllib original-5.mtl
o Group5/mesh6/mesh6-geometry#mesh6-geometry
v 0.029297 0.996768 -0.095460
v 0.004010 0.996768 -0.097900
v 0.004010 0.996768 -0.098789
v 0.029067 0.996768 -0.094602
v -0.021277 0.996768 -0.095460
v 0.052860 0.996768 -0.085700
v -0.021047 0.996768 -0.094602
v 0.052416 0.996768 -0.084930
v -0.044841 0.996768 -0.085700
v 0.073095 0.996768 -0.070173
v -0.044397 0.996768 -0.084930
v 0.072466 0.996768 -0.069545
v -0.065075 0.996768 -0.070173
v 0.088621 0.996768 -0.049939
v -0.064447 0.996768 -0.069545
v 0.087852 0.996768 -0.049494
v -0.080602 0.996768 -0.049939
v 0.098382 0.996768 -0.026375
v -0.079832 0.996768 -0.049494
v 0.097523 0.996768 -0.026145
v -0.089504 0.996768 -0.026145
v -0.090362 0.996768 -0.026375
v 0.101711 0.996768 -0.001088
v 0.100822 0.996768 -0.001088
v -0.093691 0.996768 -0.001088
v 0.097523 0.996768 0.023969
v -0.092803 0.996768 -0.001088
v 0.098382 0.996768 0.024199
v -0.089504 0.996768 0.023969
v 0.087852 0.996768 0.047318
v -0.090362 0.996768 0.024199
v 0.088621 0.996768 0.047762
v -0.079832 0.996768 0.047318
v 0.072466 0.996768 0.067369
v -0.080602 0.996768 0.047762
v 0.073095 0.996768 0.067997
v -0.064447 0.996768 0.067369
v 0.052416 0.996768 0.082754
v -0.065075 0.996768 0.067997
v 0.052860 0.996768 0.083524
v -0.044397 0.996768 0.082754
v 0.029067 0.996768 0.092426
v -0.044841 0.996768 0.083524
v 0.029297 0.996768 0.093284
v -0.021047 0.996768 0.092426
v 0.004010 0.996768 0.095724
v -0.021277 0.996768 0.093284
v 0.004010 0.996768 0.096613
vn 0 -1 0
vn 0 1 0
usemtl material_0_0
f 1//1 2//1 3//1
f 2//1 1//1 4//1
f 3//2 2//2 1//2
f 4//2 1//2 2//2
f 2//1 5//1 3//1
f 3//2 5//2 2//2
f 4//1 1//1 6//1
f 6//2 1//2 4//2
f 4//1 7//1 2//1
f 2//2 7//2 4//2
f 5//1 2//1 7//1
f 7//2 2//2 5//2
f 4//1 6//1 8//1
f 8//2 6//2 4//2
f 7//1 4//1 8//1
f 8//2 4//2 7//2
f 5//1 7//1 9//1
f 9//2 7//2 5//2
f 8//1 6//1 10//1
f 10//2 6//2 8//2
f 7//1 8//1 11//1
f 11//2 8//2 7//2
f 9//1 7//1 11//1
f 11//2 7//2 9//2
f 8//1 10//1 12//1
f 12//2 10//2 8//2
f 11//1 8//1 12//1
f 12//2 8//2 11//2
f 9//1 11//1 13//1
f 13//2 11//2 9//2
f 12//1 10//1 14//1
f 14//2 10//2 12//2
f 11//1 12//1 15//1
f 15//2 12//2 11//2
f 13//1 11//1 15//1
f 15//2 11//2 13//2
f 12//1 14//1 16//1
f 16//2 14//2 12//2
f 15//1 12//1 16//1
f 16//2 12//2 15//2
f 13//1 15//1 17//1
f 17//2 15//2 13//2
f 16//1 14//1 18//1
f 18//2 14//2 16//2
f 15//1 16//1 19//1
f 19//2 16//2 15//2
f 17//1 15//1 19//1
f 19//2 15//2 17//2
f 16//1 18//1 20//1
f 20//2 18//2 16//2
f 19//1 16//1 21//1
f 21//2 16//2 19//2
f 17//1 19//1 22//1
f 22//2 19//2 17//2
f 20//1 18//1 23//1
f 23//2 18//2 20//2
f 21//1 16//1 20//1
f 20//2 16//2 21//2
f 22//1 19//1 21//1
f 21//2 19//2 22//2
f 20//1 23//1 24//1
f 24//2 23//2 20//2
f 21//1 20//1 24//1
f 24//2 20//2 21//2
f 22//1 21//1 25//1
f 25//2 21//2 22//2
f 24//1 23//1 26//1
f 26//2 23//2 24//2
f 21//1 24//1 27//1
f 27//2 24//2 21//2
f 25//1 21//1 27//1
f 27//2 21//2 25//2
f 26//1 23//1 28//1
f 28//2 23//2 26//2
f 27//1 24//1 26//1
f 26//2 24//2 27//2
f 25//1 27//1 29//1
f 29//2 27//2 25//2
f 26//1 28//1 30//1
f 30//2 28//2 26//2
f 27//1 26//1 29//1
f 29//2 26//2 27//2
f 25//1 29//1 31//1
f 31//2 29//2 25//2
f 30//1 28//1 32//1
f 32//2 28//2 30//2
f 29//1 26//1 30//1
f 30//2 26//2 29//2
f 31//1 29//1 33//1
f 33//2 29//2 31//2
f 30//1 32//1 34//1
f 34//2 32//2 30//2
f 29//1 30//1 33//1
f 33//2 30//2 29//2
f 31//1 33//1 35//1
f 35//2 33//2 31//2
f 34//1 32//1 36//1
f 36//2 32//2 34//2
f 37//1 30//1 34//1
f 34//2 30//2 37//2
f 33//1 30//1 37//1
f 37//2 30//2 33//2
f 35//1 33//1 37//1
f 37//2 33//2 35//2
f 34//1 36//1 38//1
f 38//2 36//2 34//2
f 37//1 34//1 38//1
f 38//2 34//2 37//2
f 35//1 37//1 39//1
f 39//2 37//2 35//2
f 38//1 36//1 40//1
f 40//2 36//2 38//2
f 37//1 38//1 41//1
f 41//2 38//2 37//2
f 39//1 37//1 41//1
f 41//2 37//2 39//2
f 38//1 40//1 42//1
f 42//2 40//2 38//2
f 41//1 38//1 42//1
f 42//2 38//2 41//2
f 39//1 41//1 43//1
f 43//2 41//2 39//2
f 42//1 40//1 44//1
f 44//2 40//2 42//2
f 41//1 42//1 45//1
f 45//2 42//2 41//2
f 43//1 41//1 45//1
f 45//2 41//2 43//2
f 42//1 44//1 46//1
f 46//2 44//2 42//2
f 45//1 42//1 46//1
f 46//2 42//2 45//2
f 43//1 45//1 47//1
f 47//2 45//2 43//2
f 46//1 44//1 48//1
f 48//2 44//2 46//2
f 47//1 45//1 46//1
f 46//2 45//2 47//2
f 47//1 46//1 48//1
f 48//2 46//2 47//2
