# SSTK version 0.8.0
# 9
mtllib original-9.mtl
o mesh11/mesh11-geometry#mesh11-geometry
v 0.010887 0.132061 -0.026754
v -0.002868 0.132061 -0.026754
v 0.004010 0.132061 -0.027660
v 0.017295 0.132061 -0.024100
v -0.009276 0.132061 -0.024100
v 0.022799 0.132061 -0.019877
v -0.014779 0.132061 -0.019877
v 0.027021 0.132061 -0.014374
v 0.004010 0.132061 -0.014875
v 0.007578 0.132061 -0.014405
v -0.019002 0.132061 -0.014374
v 0.010903 0.132061 -0.013028
v 0.000441 0.132061 -0.014405
v 0.029676 0.132061 -0.007965
v -0.002884 0.132061 -0.013028
v 0.013759 0.132061 -0.010837
v -0.021657 0.132061 -0.007965
v 0.015950 0.132061 -0.007982
v -0.005739 0.132061 -0.010837
v 0.017327 0.132061 -0.004656
v -0.007930 0.132061 -0.007982
v 0.030581 0.132061 -0.001088
v -0.009308 0.132061 -0.004656
v 0.017797 0.132061 -0.001088
v -0.009778 0.132061 -0.001088
v -0.022562 0.132061 -0.001088
v 0.029676 0.132061 0.005789
v 0.017327 0.132061 0.002480
v -0.009308 0.132061 0.002480
v 0.015950 0.132061 0.005806
v -0.021657 0.132061 0.005789
v 0.027021 0.132061 0.012198
v -0.007930 0.132061 0.005806
v 0.013759 0.132061 0.008661
v -0.005739 0.132061 0.008661
v -0.019002 0.132061 0.012198
v 0.010903 0.132061 0.010852
v 0.007578 0.132061 0.012229
v -0.002884 0.132061 0.010852
v 0.022799 0.132061 0.017701
v 0.000441 0.132061 0.012229
v 0.004010 0.132061 0.012699
v -0.014779 0.132061 0.017701
v 0.017295 0.132061 0.021924
v -0.009276 0.132061 0.021924
v 0.010887 0.132061 0.024578
v -0.002868 0.132061 0.024578
v 0.004010 0.132061 0.025484
vn 0 -1 0
vn 0 1 0
usemtl material_0_0
f 1//1 2//1 3//1
f 2//1 1//1 4//1
f 2//1 4//1 5//1
f 5//1 4//1 6//1
f 5//1 6//1 7//1
f 7//1 6//1 8//1
f 7//1 8//1 9//1
f 9//1 8//1 10//1
f 9//1 11//1 7//1
f 10//1 8//1 12//1
f 10//1 13//1 9//1
f 11//1 9//1 13//1
f 12//1 8//1 14//1
f 13//1 10//1 12//1
f 11//1 13//1 15//1
f 12//1 14//1 16//1
f 13//1 12//1 15//1
f 11//1 15//1 17//1
f 16//1 14//1 18//1
f 15//1 12//1 16//1
f 17//1 15//1 19//1
f 18//1 14//1 20//1
f 19//1 16//1 18//1
f 15//1 16//1 19//1
f 17//1 19//1 21//1
f 20//1 14//1 22//1
f 23//1 18//1 20//1
f 19//1 18//1 21//1
f 17//1 21//1 23//1
f 20//1 22//1 24//1
f 21//1 18//1 23//1
f 23//1 20//1 25//1
f 17//1 23//1 26//1
f 24//1 22//1 27//1
f 25//1 20//1 24//1
f 26//1 23//1 25//1
f 24//1 27//1 28//1
f 25//1 24//1 28//1
f 26//1 25//1 29//1
f 28//1 27//1 30//1
f 25//1 28//1 29//1
f 26//1 29//1 31//1
f 30//1 27//1 32//1
f 33//1 28//1 30//1
f 29//1 28//1 33//1
f 31//1 29//1 33//1
f 30//1 32//1 34//1
f 33//1 30//1 35//1
f 31//1 33//1 36//1
f 34//1 32//1 37//1
f 35//1 30//1 34//1
f 36//1 33//1 35//1
f 37//1 32//1 38//1
f 35//1 34//1 37//1
f 36//1 35//1 39//1
f 38//1 32//1 40//1
f 41//1 37//1 38//1
f 35//1 37//1 39//1
f 36//1 39//1 41//1
f 38//1 40//1 42//1
f 39//1 37//1 41//1
f 41//1 38//1 42//1
f 36//1 41//1 43//1
f 43//1 42//1 40//1
f 43//1 41//1 42//1
f 43//1 40//1 44//1
f 43//1 44//1 45//1
f 45//1 44//1 46//1
f 45//1 46//1 47//1
f 47//1 46//1 48//1
usemtl material_1_0
f 3//2 2//2 1//2
f 4//2 1//2 2//2
f 5//2 4//2 2//2
f 6//2 4//2 5//2
f 7//2 6//2 5//2
f 8//2 6//2 7//2
f 9//2 8//2 7//2
f 10//2 8//2 9//2
f 7//2 11//2 9//2
f 12//2 8//2 10//2
f 9//2 13//2 10//2
f 13//2 9//2 11//2
f 14//2 8//2 12//2
f 12//2 10//2 13//2
f 15//2 13//2 11//2
f 16//2 14//2 12//2
f 15//2 12//2 13//2
f 17//2 15//2 11//2
f 18//2 14//2 16//2
f 16//2 12//2 15//2
f 19//2 15//2 17//2
f 20//2 14//2 18//2
f 18//2 16//2 19//2
f 19//2 16//2 15//2
f 21//2 19//2 17//2
f 22//2 14//2 20//2
f 20//2 18//2 23//2
f 21//2 18//2 19//2
f 23//2 21//2 17//2
f 24//2 22//2 20//2
f 23//2 18//2 21//2
f 25//2 20//2 23//2
f 26//2 23//2 17//2
f 27//2 22//2 24//2
f 24//2 20//2 25//2
f 25//2 23//2 26//2
f 28//2 27//2 24//2
f 28//2 24//2 25//2
f 29//2 25//2 26//2
f 30//2 27//2 28//2
f 29//2 28//2 25//2
f 31//2 29//2 26//2
f 32//2 27//2 30//2
f 30//2 28//2 33//2
f 33//2 28//2 29//2
f 33//2 29//2 31//2
f 34//2 32//2 30//2
f 35//2 30//2 33//2
f 36//2 33//2 31//2
f 37//2 32//2 34//2
f 34//2 30//2 35//2
f 35//2 33//2 36//2
f 38//2 32//2 37//2
f 37//2 34//2 35//2
f 39//2 35//2 36//2
f 40//2 32//2 38//2
f 38//2 37//2 41//2
f 39//2 37//2 35//2
f 41//2 39//2 36//2
f 42//2 40//2 38//2
f 41//2 37//2 39//2
f 42//2 38//2 41//2
f 43//2 41//2 36//2
f 40//2 42//2 43//2
f 42//2 41//2 43//2
f 44//2 40//2 43//2
f 45//2 44//2 43//2
f 46//2 44//2 45//2
f 47//2 46//2 45//2
f 48//2 46//2 47//2
