# SSTK version 0.8.0
# 1
mtllib original-1.mtl
o #ID12
v 0.384518 0.321127 0.029887
v 0.349764 0.320488 0.123090
v 0.360094 0.307026 0.123090
v 0.369706 0.340430 0.029887
v 0.369706 0.340430 -0.016715
v 0.384518 0.321127 -0.016715
v 0.336302 0.330818 0.123090
v 0.350403 0.355242 0.029887
v 0.393829 0.298648 0.029887
v 0.366587 0.291349 0.123090
v 0.350403 0.355242 -0.016715
v 0.393829 0.298648 -0.016715
v 0.320625 0.337312 0.123090
v 0.327924 0.364553 0.029887
v 0.397004 0.274526 0.029887
v 0.369044 0.272693 0.123090
v 0.327924 0.364553 -0.016715
v 0.397004 0.274526 -0.016715
v 0.301969 0.339768 0.123090
v 0.303801 0.367729 0.029887
v 0.369044 -0.282860 0.123090
v 0.397004 -0.284693 0.029887
v 0.303801 0.367729 -0.016715
v 0.397004 -0.284693 -0.016715
v -0.253585 0.339768 0.123090
v -0.255417 0.367729 0.029887
v 0.366587 -0.301517 0.123090
v 0.393829 -0.308816 0.029887
v -0.255417 0.367729 -0.016715
v 0.393829 -0.308816 -0.016715
v -0.272241 0.337312 0.123090
v -0.279540 0.364553 0.029887
v 0.360094 -0.317193 0.123090
v 0.384518 -0.331295 0.029887
v -0.279540 0.364553 -0.016715
v 0.384518 -0.331295 -0.016715
v -0.287918 0.330818 0.123090
v -0.302019 0.355242 0.029887
v 0.349764 -0.330656 0.123090
v 0.369706 -0.350598 0.029887
v -0.302019 0.355242 -0.016715
v 0.369706 -0.350598 -0.016715
v -0.301380 0.320488 0.123090
v -0.321322 0.340430 0.029887
v 0.350403 -0.365409 0.029887
v 0.336302 -0.340985 0.123090
v -0.321322 0.340430 -0.016715
v 0.350403 -0.365409 -0.016715
v -0.336133 0.321127 0.029887
v -0.311710 0.307026 0.123090
v 0.327924 -0.374720 0.029887
v 0.320625 -0.347479 0.123090
v -0.336133 0.321127 -0.016715
v 0.327924 -0.374720 -0.016715
v -0.345445 0.298648 0.029887
v -0.318203 0.291349 0.123090
v 0.303801 -0.377896 0.029887
v 0.301969 -0.349935 0.123090
v -0.345445 0.298648 -0.016715
v 0.303801 -0.377896 -0.016715
v -0.348620 0.274526 0.029887
v -0.320659 0.272693 0.123090
v -0.255417 -0.377896 0.029887
v -0.253585 -0.349935 0.123090
v -0.348620 0.274526 -0.016715
v -0.255417 -0.377896 -0.016715
v -0.320659 -0.282860 0.123090
v -0.348620 -0.284693 0.029887
v -0.279540 -0.374720 0.029887
v -0.272241 -0.347479 0.123090
v -0.348620 -0.284693 -0.016715
v -0.279540 -0.374720 -0.016715
v -0.318203 -0.301517 0.123090
v -0.345445 -0.308816 0.029887
v -0.302019 -0.365409 0.029887
v -0.287918 -0.340985 0.123090
v -0.345445 -0.308816 -0.016715
v -0.302019 -0.365409 -0.016715
v -0.311710 -0.317193 0.123090
v -0.336133 -0.331295 0.029887
v -0.321322 -0.350598 0.029887
v -0.301380 -0.330656 0.123090
v -0.336133 -0.331295 -0.016715
v -0.321322 -0.350598 -0.016715
vn 0.8569165927546846 0.49474099581691544 0.14465579877692078
vn 0.6768013475075917 0.6768013475075917 0.28962022032968643
vn 0.8289089995268255 0.47857079972681266 0.2896201998346732
vn 0.6996694583927086 0.6996694583927086 0.14465579139774418
vn 0.7071067811865476 0.7071067811865476 0
vn 0.866025402838329 0.5000000016387101 0
vn 0.47857079972681266 0.8289089995268255 0.2896201998346732
vn 0.49474099581691544 0.8569165927546846 0.14465579877692078
vn 0.9557662475463519 0.2560968127400075 0.1446558071961695
vn 0.9245278314232547 0.24772650841983646 0.2896202098437378
vn 0.5000000016387101 0.866025402838329 0
vn 0.9659258358036645 0.25881900959356163 0
vn 0.24772650841983646 0.9245278314232547 0.2896202098437378
vn 0.2560968127400075 0.9557662475463519 0.1446558071961695
vn 0.987365696139851 0.06471536974699245 0.14464059943452132
vn 0.9556060299729309 0.0626337319645298 0.2879134090305089
vn 0.25881900959356163 0.9659258358036645 0
vn 0.9978589230889555 0.06540313151333016 0
vn 0.0626337319645298 0.9556060299729309 0.2879134090305089
vn 0.06471536974699245 0.987365696139851 0.14464059943452132
vn 0.9556060299729309 -0.0626337319645298 0.2879134090305089
vn 0.987365696139851 -0.06471536974699245 0.14464059943452132
vn 0.06540313151333016 0.9978589230889555 0
vn 0.9978589230889555 -0.06540313151333016 0
vn -0.0626337319645298 0.9556060299729309 0.2879134090305089
vn -0.06471536974699245 0.987365696139851 0.14464059943452132
vn 0.9245278314232547 -0.24772650841983646 0.2896202098437378
vn 0.9557662475463519 -0.2560968127400075 0.1446558071961695
vn -0.06540313151333016 0.9978589230889555 0
vn 0.9659258358036645 -0.25881900959356163 0
vn -0.24772650841983646 0.9245278314232547 0.2896202098437378
vn -0.2560968127400075 0.9557662475463519 0.1446558071961695
vn 0.8289089995268255 -0.47857079972681266 0.2896201998346732
vn 0.8569165927546846 -0.49474099581691544 0.14465579877692078
vn -0.25881900959356163 0.9659258358036645 0
vn 0.866025402838329 -0.5000000016387101 0
vn -0.47857079972681266 0.8289089995268255 0.2896201998346732
vn -0.49474099581691544 0.8569165927546846 0.14465579877692078
vn 0.6768013475075917 -0.6768013475075917 0.28962022032968643
vn 0.6996694583927086 -0.6996694583927086 0.14465579139774418
vn -0.5000000016387101 0.866025402838329 0
vn 0.7071067811865476 -0.7071067811865476 0
vn -0.6768013475075917 0.6768013475075917 0.28962022032968643
vn -0.6996694583927086 0.6996694583927086 0.14465579139774418
vn 0.49474099581691544 -0.8569165927546846 0.14465579877692078
vn 0.47857079972681266 -0.8289089995268255 0.2896201998346732
vn -0.7071067811865476 0.7071067811865476 0
vn 0.5000000016387101 -0.866025402838329 0
vn -0.8569165927546846 0.49474099581691544 0.14465579877692078
vn -0.8289089995268255 0.47857079972681266 0.2896201998346732
vn 0.2560968127400075 -0.9557662475463519 0.1446558071961695
vn 0.24772650841983646 -0.9245278314232547 0.2896202098437378
vn -0.866025402838329 0.5000000016387101 0
vn 0.25881900959356163 -0.9659258358036645 0
vn -0.9557662475463519 0.2560968127400075 0.1446558071961695
vn -0.9245278314232547 0.24772650841983646 0.2896202098437378
vn 0.06471536974699245 -0.987365696139851 0.14464059943452132
vn 0.0626337319645298 -0.9556060299729309 0.2879134090305089
vn -0.9659258358036645 0.25881900959356163 0
vn 0.06540313151333016 -0.9978589230889555 0
vn -0.987365696139851 0.06471536974699245 0.14464059943452132
vn -0.9556060299729309 0.0626337319645298 0.2879134090305089
vn -0.06471536974699245 -0.987365696139851 0.14464059943452132
vn -0.0626337319645298 -0.9556060299729309 0.2879134090305089
vn -0.9978589230889555 0.06540313151333016 0
vn -0.06540313151333016 -0.9978589230889555 0
vn -0.9556060299729309 -0.0626337319645298 0.2879134090305089
vn -0.987365696139851 -0.06471536974699245 0.14464059943452132
vn -0.2560968127400075 -0.9557662475463519 0.1446558071961695
vn -0.24772650841983646 -0.9245278314232547 0.2896202098437378
vn -0.9978589230889555 -0.06540313151333016 0
vn -0.25881900959356163 -0.9659258358036645 0
vn -0.9245278314232547 -0.24772650841983646 0.2896202098437378
vn -0.9557662475463519 -0.2560968127400075 0.1446558071961695
vn -0.49474099581691544 -0.8569165927546846 0.14465579877692078
vn -0.47857079972681266 -0.8289089995268255 0.2896201998346732
vn -0.9659258358036645 -0.25881900959356163 0
vn -0.5000000016387101 -0.866025402838329 0
vn -0.8289089995268255 -0.47857079972681266 0.2896201998346732
vn -0.8569165927546846 -0.49474099581691544 0.14465579877692078
vn -0.6996694583927086 -0.6996694583927086 0.14465579139774418
vn -0.6768013475075917 -0.6768013475075917 0.28962022032968643
vn -0.866025402838329 -0.5000000016387101 0
vn -0.7071067811865476 -0.7071067811865476 0
usemtl material_0_0
f 1//1 2//2 3//3
f 2//2 1//1 4//4
f 5//5 1//1 6//6
f 1//1 5//5 4//4
f 7//7 4//4 8//8
f 4//4 7//7 2//2
f 9//9 3//3 10//10
f 3//3 9//9 1//1
f 8//8 5//5 11//11
f 5//5 8//8 4//4
f 6//6 9//9 12//12
f 9//9 6//6 1//1
f 13//13 8//8 14//14
f 8//8 13//13 7//7
f 15//15 10//10 16//16
f 10//10 15//15 9//9
f 14//14 11//11 17//17
f 11//11 14//14 8//8
f 12//12 15//15 18//18
f 15//15 12//12 9//9
f 19//19 14//14 20//20
f 14//14 19//19 13//13
f 15//15 21//21 22//22
f 21//21 15//15 16//16
f 20//20 17//17 23//23
f 17//17 20//20 14//14
f 18//18 22//22 24//24
f 22//22 18//18 15//15
f 25//25 20//20 26//26
f 20//20 25//25 19//19
f 22//22 27//27 28//28
f 27//27 22//22 21//21
f 26//26 23//23 29//29
f 23//23 26//26 20//20
f 24//24 28//28 30//30
f 28//28 24//24 22//22
f 31//31 26//26 32//32
f 26//26 31//31 25//25
f 28//28 33//33 34//34
f 33//33 28//28 27//27
f 32//32 29//29 35//35
f 29//29 32//32 26//26
f 30//30 34//34 36//36
f 34//34 30//30 28//28
f 37//37 32//32 38//38
f 32//32 37//37 31//31
f 34//34 39//39 40//40
f 39//39 34//34 33//33
f 38//38 35//35 41//41
f 35//35 38//38 32//32
f 36//36 40//40 42//42
f 40//40 36//36 34//34
f 43//43 38//38 44//44
f 38//38 43//43 37//37
f 39//39 45//45 40//40
f 45//45 39//39 46//46
f 44//44 41//41 47//47
f 41//41 44//44 38//38
f 40//40 48//48 42//42
f 48//48 40//40 45//45
f 43//43 49//49 50//50
f 49//49 43//43 44//44
f 46//46 51//51 45//45
f 51//51 46//46 52//52
f 44//44 53//53 49//49
f 53//53 44//44 47//47
f 45//45 54//54 48//48
f 54//54 45//45 51//51
f 50//50 55//55 56//56
f 55//55 50//50 49//49
f 52//52 57//57 51//51
f 57//57 52//52 58//58
f 49//49 59//59 55//55
f 59//59 49//49 53//53
f 51//51 60//60 54//54
f 60//60 51//51 57//57
f 56//56 61//61 62//62
f 61//61 56//56 55//55
f 58//58 63//63 57//57
f 63//63 58//58 64//64
f 55//55 65//65 61//61
f 65//65 55//55 59//59
f 57//57 66//66 60//60
f 66//66 57//57 63//63
f 67//67 61//61 68//68
f 61//61 67//67 62//62
f 64//64 69//69 63//63
f 69//69 64//64 70//70
f 61//61 71//71 68//68
f 71//71 61//61 65//65
f 63//63 72//72 66//66
f 72//72 63//63 69//69
f 73//73 68//68 74//74
f 68//68 73//73 67//67
f 70//70 75//75 69//69
f 75//75 70//70 76//76
f 68//68 77//77 74//74
f 77//77 68//68 71//71
f 69//69 78//78 72//72
f 78//78 69//69 75//75
f 79//79 74//74 80//80
f 74//74 79//79 73//73
f 76//76 81//81 75//75
f 81//81 76//76 82//82
f 74//74 83//83 80//80
f 83//83 74//74 77//77
f 75//75 84//84 78//78
f 84//84 75//75 81//81
f 82//82 80//80 81//81
f 80//80 82//82 79//79
f 80//80 84//84 81//81
f 84//84 80//80 83//83
