# SSTK version 0.8.0
# 2
mtllib original-2.mtl
o #ID20
v -0.272241 -0.347479 0.123090
v -0.274058 -0.279806 0.123090
v -0.287918 -0.340985 0.123090
v -0.272801 -0.289351 0.123090
v -0.271003 -0.293691 0.123090
v -0.253585 -0.349935 0.123090
v -0.268143 -0.297419 0.123090
v -0.264416 -0.300279 0.123090
v -0.260075 -0.302077 0.123090
v -0.250530 -0.303333 0.123090
v 0.301969 -0.349935 0.123090
v 0.024192 -0.303333 0.123090
v 0.298914 -0.303333 0.123090
v 0.308459 -0.302077 0.123090
v 0.320625 -0.347479 0.123090
v 0.312800 -0.300279 0.123090
v 0.316527 -0.297419 0.123090
v 0.319387 -0.293691 0.123090
v 0.321185 -0.289351 0.123090
v 0.336302 -0.340985 0.123090
v 0.322442 -0.279806 0.123090
v 0.322442 0.269639 0.123090
v -0.318203 -0.301517 0.123090
v -0.320659 0.272693 0.123090
v -0.320659 -0.282860 0.123090
v -0.318203 0.291349 0.123090
v -0.311710 -0.317193 0.123090
v -0.311710 0.307026 0.123090
v -0.301380 0.320488 0.123090
v -0.301380 -0.330656 0.123090
v -0.287918 0.330818 0.123090
v -0.274058 0.269639 0.123090
v -0.272241 0.337312 0.123090
v -0.272801 0.279184 0.123090
v -0.271003 0.283524 0.123090
v -0.253585 0.339768 0.123090
v -0.268143 0.287252 0.123090
v -0.264416 0.290112 0.123090
v -0.260075 0.291910 0.123090
v -0.250530 0.293166 0.123090
v 0.301969 0.339768 0.123090
v 0.024192 0.293166 0.123090
v 0.298914 0.293166 0.123090
v 0.308459 0.291910 0.123090
v 0.320625 0.337312 0.123090
v 0.312800 0.290112 0.123090
v 0.316527 0.287252 0.123090
v 0.319387 0.283524 0.123090
v 0.321185 0.279184 0.123090
v 0.336302 0.330818 0.123090
v 0.349764 -0.330656 0.123090
v 0.349764 0.320488 0.123090
v 0.360094 -0.317193 0.123090
v 0.360094 0.307026 0.123090
v 0.366587 -0.301517 0.123090
v 0.366587 0.291349 0.123090
v 0.369044 -0.282860 0.123090
v 0.369044 0.272693 0.123090
v 0.369044 0.272693 0.123090
v 0.369044 -0.282860 0.123090
v 0.366587 0.291349 0.123090
v 0.366587 -0.301517 0.123090
v 0.360094 0.307026 0.123090
v 0.360094 -0.317193 0.123090
v 0.349764 0.320488 0.123090
v 0.349764 -0.330656 0.123090
v 0.336302 0.330818 0.123090
v 0.336302 -0.340985 0.123090
v 0.322442 0.269639 0.123090
v 0.321185 0.279184 0.123090
v 0.320625 0.337312 0.123090
v 0.319387 0.283524 0.123090
v 0.316527 0.287252 0.123090
v 0.312800 0.290112 0.123090
v 0.308459 0.291910 0.123090
v 0.301969 0.339768 0.123090
v 0.298914 0.293166 0.123090
v 0.024192 0.293166 0.123090
v -0.250530 0.293166 0.123090
v -0.253585 0.339768 0.123090
v -0.260075 0.291910 0.123090
v -0.264416 0.290112 0.123090
v -0.268143 0.287252 0.123090
v -0.271003 0.283524 0.123090
v -0.272241 0.337312 0.123090
v -0.272801 0.279184 0.123090
v -0.274058 0.269639 0.123090
v -0.274058 -0.279806 0.123090
v -0.287918 -0.340985 0.123090
v -0.287918 0.330818 0.123090
v -0.301380 -0.330656 0.123090
v -0.301380 0.320488 0.123090
v -0.311710 -0.317193 0.123090
v -0.311710 0.307026 0.123090
v -0.318203 0.291349 0.123090
v -0.318203 -0.301517 0.123090
v -0.320659 0.272693 0.123090
v -0.320659 -0.282860 0.123090
v 0.322442 -0.279806 0.123090
v 0.321185 -0.289351 0.123090
v 0.320625 -0.347479 0.123090
v 0.319387 -0.293691 0.123090
v 0.316527 -0.297419 0.123090
v 0.312800 -0.300279 0.123090
v 0.308459 -0.302077 0.123090
v 0.301969 -0.349935 0.123090
v 0.298914 -0.303333 0.123090
v 0.024192 -0.303333 0.123090
v -0.250530 -0.303333 0.123090
v -0.253585 -0.349935 0.123090
v -0.260075 -0.302077 0.123090
v -0.264416 -0.300279 0.123090
v -0.268143 -0.297419 0.123090
v -0.271003 -0.293691 0.123090
v -0.272241 -0.347479 0.123090
v -0.272801 -0.289351 0.123090
vn 0 0 1
vn 0 0 -1
usemtl material_0_0
f 1//1 2//1 3//1
f 2//1 1//1 4//1
f 4//1 1//1 5//1
f 5//1 1//1 6//1
f 5//1 6//1 7//1
f 7//1 6//1 8//1
f 8//1 6//1 9//1
f 9//1 6//1 10//1
f 10//1 6//1 11//1
f 10//1 11//1 12//1
f 12//1 11//1 13//1
f 13//1 11//1 14//1
f 14//1 11//1 15//1
f 14//1 15//1 16//1
f 16//1 15//1 17//1
f 17//1 15//1 18//1
f 18//1 15//1 19//1
f 19//1 15//1 20//1
f 19//1 20//1 21//1
f 21//1 20//1 22//1
f 23//1 24//1 25//1
f 24//1 23//1 26//1
f 26//1 23//1 27//1
f 26//1 27//1 28//1
f 28//1 27//1 29//1
f 29//1 27//1 30//1
f 29//1 30//1 31//1
f 31//1 30//1 3//1
f 31//1 3//1 32//1
f 31//1 32//1 33//1
f 32//1 3//1 2//1
f 33//1 32//1 34//1
f 33//1 34//1 35//1
f 33//1 35//1 36//1
f 36//1 35//1 37//1
f 36//1 37//1 38//1
f 36//1 38//1 39//1
f 36//1 39//1 40//1
f 36//1 40//1 41//1
f 41//1 40//1 42//1
f 41//1 42//1 43//1
f 41//1 43//1 44//1
f 41//1 44//1 45//1
f 45//1 44//1 46//1
f 45//1 46//1 47//1
f 45//1 47//1 48//1
f 45//1 48//1 49//1
f 45//1 49//1 50//1
f 50//1 49//1 22//1
f 50//1 22//1 20//1
f 50//1 20//1 51//1
f 50//1 51//1 52//1
f 52//1 51//1 53//1
f 52//1 53//1 54//1
f 54//1 53//1 55//1
f 54//1 55//1 56//1
f 56//1 55//1 57//1
f 56//1 57//1 58//1
f 59//2 60//2 61//2
f 60//2 62//2 61//2
f 61//2 62//2 63//2
f 62//2 64//2 63//2
f 63//2 64//2 65//2
f 64//2 66//2 65//2
f 65//2 66//2 67//2
f 66//2 68//2 67//2
f 68//2 69//2 67//2
f 69//2 70//2 67//2
f 67//2 70//2 71//2
f 70//2 72//2 71//2
f 72//2 73//2 71//2
f 73//2 74//2 71//2
f 74//2 75//2 71//2
f 71//2 75//2 76//2
f 75//2 77//2 76//2
f 77//2 78//2 76//2
f 78//2 79//2 76//2
f 76//2 79//2 80//2
f 79//2 81//2 80//2
f 81//2 82//2 80//2
f 82//2 83//2 80//2
f 83//2 84//2 80//2
f 80//2 84//2 85//2
f 84//2 86//2 85//2
f 86//2 87//2 85//2
f 88//2 89//2 87//2
f 85//2 87//2 90//2
f 87//2 89//2 90//2
f 89//2 91//2 90//2
f 90//2 91//2 92//2
f 91//2 93//2 92//2
f 92//2 93//2 94//2
f 94//2 93//2 95//2
f 93//2 96//2 95//2
f 95//2 96//2 97//2
f 98//2 97//2 96//2
f 69//2 68//2 99//2
f 99//2 68//2 100//2
f 68//2 101//2 100//2
f 100//2 101//2 102//2
f 102//2 101//2 103//2
f 103//2 101//2 104//2
f 104//2 101//2 105//2
f 101//2 106//2 105//2
f 105//2 106//2 107//2
f 107//2 106//2 108//2
f 108//2 106//2 109//2
f 106//2 110//2 109//2
f 109//2 110//2 111//2
f 111//2 110//2 112//2
f 112//2 110//2 113//2
f 113//2 110//2 114//2
f 110//2 115//2 114//2
f 114//2 115//2 116//2
f 116//2 115//2 88//2
f 89//2 88//2 115//2
