# SSTK version 0.8.0
# 2
mtllib original-2.mtl
o #ID13
v 0.624360 -0.811397 -0.069821
v 0.624360 0.769244 0.049289
v 0.624360 -0.811397 0.049289
v 0.624360 0.769244 -0.069821
v 0.624360 -0.811397 0.049289
v 0.206287 -0.354087 0.049289
v -0.629744 -0.811397 0.049289
v 0.624360 0.769244 0.049289
v 0.206287 0.439978 0.049289
v -0.190745 0.439978 0.049289
v -0.190745 -0.354087 0.049289
v -0.629744 0.769244 0.049289
v 0.544954 -0.811397 -0.069821
v -0.629744 -0.811397 0.049289
v -0.629744 -0.811397 -0.069821
v 0.624360 -0.811397 0.049289
v 0.624360 -0.811397 -0.069821
v -0.629744 0.769244 -0.069821
v 0.544954 -0.811397 -0.069821
v -0.629744 -0.811397 -0.069821
v 0.624360 -0.811397 -0.069821
v 0.624360 0.769244 -0.069821
v 0.624360 0.769244 0.049289
v -0.629744 0.769244 -0.069821
v -0.629744 0.769244 0.049289
v 0.624360 0.769244 -0.069821
v -0.629744 0.769244 -0.069821
v -0.629744 -0.811397 0.049289
v -0.629744 0.769244 0.049289
v -0.629744 -0.811397 -0.069821
vn 1 0 0
vn 0 0 1
vn 0 -1 0
vn 0 0 -1
vn 0 1 0
vn -1 0 0
usemtl material_0_0
f 1//1 2//1 3//1
f 2//1 1//1 4//1
f 5//2 6//2 7//2
f 6//2 5//2 8//2
f 6//2 8//2 9//2
f 9//2 8//2 10//2
f 7//2 11//2 12//2
f 11//2 7//2 6//2
f 12//2 11//2 10//2
f 12//2 10//2 8//2
f 13//3 14//3 15//3
f 14//3 13//3 16//3
f 16//3 13//3 17//3
f 18//4 19//4 20//4
f 19//4 18//4 21//4
f 21//4 18//4 22//4
f 23//5 24//5 25//5
f 24//5 23//5 26//5
f 27//6 28//6 29//6
f 28//6 27//6 30//6
