# SSTK version 0.8.0
# 215
mtllib original-215.mtl
o #ID1285
v 0.061735 -0.558078 -0.066075
v 0.380352 -0.710416 -0.066075
v 0.064636 -0.574528 -0.066075
v 0.064636 -0.574528 -0.066075
v 0.380352 -0.710416 -0.066075
v 0.061735 -0.558078 -0.066075
v 0.053384 -0.543612 -0.066075
v 0.061735 -0.558078 -0.066075
v 0.061735 -0.558078 -0.066075
v 0.053384 -0.543612 -0.066075
v 0.053109 -0.543139 -0.066075
v 0.053109 -0.543139 -0.066075
v 0.052369 -0.542761 -0.066075
v 0.053109 -0.543139 -0.066075
v 0.053109 -0.543139 -0.066075
v 0.052369 -0.542761 -0.066075
vn -2.8897954617214963e-7 -5.898657822989056e-8 -1
vn -0.000002139358346153205 -0.000003690669386497197 -1
vn 2.8897954617214963e-7 5.898657822989056e-8 1
vn 0.000002139358346153205 0.000003690669386497197 1
vn -0.00012485230465112952 -0.000244235917865015 -0.9999999623803585
vn -3.758194461721304e-7 -2.4061392961427623e-7 -1
vn 3.758194461721304e-7 2.4061392961427623e-7 1
vn 0.00012485230465112952 0.000244235917865015 0.9999999623803585
vn -0.00014942211622340513 -0.0002924004064240083 -0.9999999460875153
vn 0.00014942211622340513 0.0002924004064240083 0.9999999460875153
vn -0.00014944361622337037 -0.0002924129064137254 -0.9999999460806472
vn 0.00014944361622337037 0.0002924129064137254 0.9999999460806472
usemtl material_0_0
f 1//1 2//2 3//1
f 4//3 5//4 6//3
f 7//5 2//2 8//6
f 9//7 5//4 10//8
f 11//9 2//2 7//5
f 10//8 5//4 12//10
f 13//11 14//11 7//5
f 10//8 15//12 16//12
