# SSTK version 0.8.0
# 217
mtllib original-217.mtl
o #ID1297
v 0.040587 -0.532874 -0.066075
v 0.745532 -0.700233 -0.066075
v 0.735348 -0.710416 -0.066075
v 0.735348 -0.710416 -0.066075
v 0.745532 -0.700233 -0.066075
v 0.040587 -0.532874 -0.066075
v 0.024890 -0.527161 -0.066075
v 0.745532 -0.700233 -0.066075
v 0.040587 -0.532874 -0.066075
v 0.040587 -0.532874 -0.066075
v 0.745532 -0.700233 -0.066075
v 0.024890 -0.527161 -0.066075
v 0.040587 -0.532874 -0.066075
v 0.735348 -0.710416 -0.066075
v 0.380352 -0.710416 -0.066075
v 0.380352 -0.710416 -0.066075
v 0.735348 -0.710416 -0.066075
v 0.040587 -0.532874 -0.066075
v 0.064635 0.583680 -0.066075
v 0.745532 -0.700233 -0.066075
v 0.024890 -0.527161 -0.066075
v 0.024890 -0.527161 -0.066075
v 0.745532 -0.700233 -0.066075
v 0.064635 0.583680 -0.066075
v 0.380352 -0.710416 -0.066075
v 0.053109 -0.543139 -0.066075
v 0.053109 -0.543139 -0.066075
v 0.380352 -0.710416 -0.066075
vn -1.7952530617215043e-7 2.1987494430016302e-7 -1
vn 1.7952530617215043e-7 -2.1987494430016302e-7 1
vn -3.1328304617212747e-7 -3.641515421336903e-7 -1
vn -2.2859254617215337e-7 3.2456807016392504e-9 -1
vn 1.000627538278334e-7 -3.77269332844597e-7 -1
vn -1.000627538278334e-7 3.77269332844597e-7 1
vn 2.2859254617215337e-7 -3.2456807016392504e-9 1
vn 3.1328304617212747e-7 3.641515421336903e-7 1
vn -2.2984864617215325e-7 2.294808374979554e-8 -1
vn 2.2984864617215325e-7 -2.294808374979554e-8 1
vn -2.8598364617214136e-7 -2.5048222262625504e-7 -1
vn 2.8598364617214136e-7 2.5048222262625504e-7 1
vn -1.8576563617215352e-7 1.0731072401016013e-7 -1
vn 0.000012878430648680388 0.000025108542209876726 -1
vn -0.000012878430648680388 -0.000025108542209876726 1
vn 1.8576563617215352e-7 -1.0731072401016013e-7 1
usemtl material_0_0
f 1//1 2//1 3//1
f 4//2 5//2 6//2
f 7//3 8//4 9//5
f 10//6 11//7 12//8
f 13//9 14//9 15//9
f 16//10 17//10 18//10
f 19//11 20//11 21//11
f 22//12 23//12 24//12
f 9//5 25//13 26//14
f 27//15 28//16 10//6
