# SSTK version 0.8.0
# 109
mtllib original-109.mtl
o #ID650
v -0.003791 -0.530732 0.078551
v -0.017407 -0.555834 0.078551
v -0.011053 -0.546759 0.078551
v -0.011053 -0.546759 0.078551
v -0.017407 -0.555834 0.078551
v -0.003791 -0.530732 0.078551
v 0.012344 -0.526409 0.078551
v 0.012344 -0.526409 0.078551
v -0.027055 -0.553998 0.078551
v -0.027055 -0.553998 0.078551
v 0.015205 -0.565143 0.078551
v 0.015205 -0.565143 0.078551
v -0.017474 -0.540314 0.078551
v -0.017474 -0.540314 0.078551
v -0.031378 -0.570133 0.078551
v -0.031378 -0.570133 0.078551
v -0.009721 -0.600742 0.078551
v -0.009721 -0.600742 0.078551
v 0.008851 -0.574219 0.078551
v 0.008851 -0.574219 0.078551
vn -1.5281759954954615e-7 -1.1478803807230595e-7 1
vn 1.5281759954954615e-7 1.1478803807230595e-7 -1
usemtl material_0_0
f 1//1 2//1 3//1
f 4//2 5//2 6//2
f 7//1 1//1 3//1
f 4//2 6//2 8//2
f 1//1 9//1 2//1
f 5//2 10//2 6//2
f 7//1 3//1 11//1
f 12//2 4//2 8//2
f 1//1 13//1 9//1
f 10//2 14//2 6//2
f 2//1 9//1 15//1
f 16//2 10//2 5//2
f 2//1 15//1 17//1
f 18//2 16//2 5//2
f 19//1 2//1 17//1
f 18//2 5//2 20//2
