# SSTK version 0.8.0
# 161
mtllib original-161.mtl
o #ID961
v -0.028659 0.567230 -0.066075
v -0.031560 0.583680 -0.066075
v -0.028660 0.567230 -0.031290
v -0.028660 0.567230 -0.031290
v -0.031560 0.583680 -0.066075
v -0.028659 0.567230 -0.066075
v -0.028659 0.567230 -0.066075
v -0.028660 0.567230 -0.031290
v -0.020308 0.552763 -0.066075
v -0.020308 0.552763 -0.066075
v -0.028660 0.567230 -0.031290
v -0.028659 0.567230 -0.066075
v -0.031560 0.583680 -0.066075
v -0.031561 0.583680 -0.031290
v -0.031561 0.583680 -0.031290
v -0.031560 0.583680 -0.066075
v -0.020308 0.552763 -0.031290
v -0.020308 0.552763 -0.031290
v -0.028660 0.600131 -0.066075
v -0.031561 0.583680 -0.031290
v -0.031560 0.583680 -0.066075
v -0.031560 0.583680 -0.066075
v -0.031561 0.583680 -0.031290
v -0.028660 0.600131 -0.066075
v -0.031561 0.583680 0.070533
v -0.031561 0.583680 0.070533
v -0.028661 0.567230 0.071345
v -0.028661 0.567230 0.071345
v -0.007511 0.542026 -0.066075
v -0.020308 0.552763 -0.066075
v -0.020308 0.552763 -0.031290
v -0.020308 0.552763 -0.031290
v -0.020308 0.552763 -0.066075
v -0.007511 0.542026 -0.066075
v -0.028660 0.600131 -0.031290
v -0.028660 0.600131 -0.031290
v -0.028661 0.600131 0.069885
v -0.031561 0.583680 0.070533
v -0.031561 0.583680 0.070533
v -0.028661 0.600131 0.069885
v -0.028661 0.567230 0.071345
v -0.028661 0.567230 0.071345
v -0.028661 0.567230 0.071345
v -0.020309 0.552763 0.072221
v -0.020309 0.552763 0.072221
v -0.028661 0.567230 0.071345
v -0.007512 0.542026 -0.031290
v -0.007512 0.542026 -0.031290
v -0.028660 0.600131 -0.066075
v -0.020308 0.614598 -0.031290
v -0.028660 0.600131 -0.031290
v -0.028660 0.600131 -0.031290
v -0.020308 0.614598 -0.031290
v -0.028660 0.600131 -0.066075
v -0.020309 0.552763 0.072221
v -0.020309 0.552763 0.072221
v 0.008185 0.536312 -0.066075
v -0.007511 0.542026 -0.066075
v -0.007512 0.542026 -0.031290
v -0.007512 0.542026 -0.031290
v -0.007511 0.542026 -0.066075
v 0.008185 0.536312 -0.066075
v -0.028661 0.600131 0.069885
v -0.028661 0.600131 0.069885
v -0.020309 0.614597 -0.066075
v -0.020309 0.614597 -0.066075
v -0.007511 0.542026 0.073057
v -0.007511 0.542026 0.073057
v 0.008185 0.536312 -0.031290
v 0.008185 0.536312 -0.031290
v -0.020308 0.614598 0.069478
v -0.020308 0.614598 0.069478
v -0.007512 0.625335 -0.031290
v -0.020308 0.614598 -0.031290
v -0.020309 0.614597 -0.066075
v -0.020309 0.614597 -0.066075
v -0.020308 0.614598 -0.031290
v -0.007512 0.625335 -0.031290
v -0.007511 0.542026 0.073057
v -0.007511 0.542026 0.073057
v 0.024891 0.536312 -0.066075
v 0.008185 0.536312 -0.066075
v 0.008185 0.536312 -0.031290
v 0.008185 0.536312 -0.031290
v 0.008185 0.536312 -0.066075
v 0.024891 0.536312 -0.066075
v -0.020308 0.614598 0.069478
v -0.020308 0.614598 0.069478
v -0.007512 0.625335 -0.066075
v -0.007512 0.625335 -0.066075
v 0.008185 0.536312 0.073751
v 0.008185 0.536312 0.073751
v 0.024890 0.536312 -0.031290
v 0.024890 0.536312 -0.031290
v -0.007512 0.625335 0.069361
v -0.007512 0.625335 0.069361
v 0.008185 0.631048 -0.031290
v -0.007512 0.625335 -0.031290
v -0.007512 0.625335 -0.066075
v -0.007512 0.625335 -0.066075
v -0.007512 0.625335 -0.031290
v 0.008185 0.631048 -0.031290
v 0.015171 0.536312 0.073945
v 0.008185 0.536312 0.073751
v 0.008185 0.536312 0.073751
v 0.015171 0.536312 0.073945
v 0.040586 0.542026 -0.066075
v 0.024891 0.536312 -0.066075
v 0.024890 0.536312 -0.031290
v 0.024890 0.536312 -0.031290
v 0.024891 0.536312 -0.066075
v 0.040586 0.542026 -0.066075
v -0.007512 0.625335 0.069361
v -0.007512 0.625335 -0.031290
v -0.007512 0.625335 -0.031290
v -0.007512 0.625335 0.069361
v 0.008186 0.631048 -0.066075
v 0.008186 0.631048 -0.066075
v 0.024890 0.536312 0.073675
v 0.024890 0.536312 0.073675
v 0.040586 0.542026 -0.031290
v 0.040586 0.542026 -0.031290
v 0.008185 0.631048 0.069549
v -0.007512 0.625335 0.069361
v -0.007512 0.625335 0.069361
v 0.008185 0.631048 0.069549
v 0.024890 0.631048 -0.031290
v 0.008185 0.631048 -0.031290
v 0.008186 0.631048 -0.066075
v 0.008186 0.631048 -0.066075
v 0.008185 0.631048 -0.031290
v 0.024890 0.631048 -0.031290
v 0.040587 0.542026 0.072980
v 0.024890 0.536312 0.073675
v 0.024890 0.536312 0.073675
v 0.040587 0.542026 0.072980
v 0.053384 0.552763 -0.066075
v 0.040586 0.542026 -0.066075
v 0.040586 0.542026 -0.031290
v 0.040586 0.542026 -0.031290
v 0.040586 0.542026 -0.066075
v 0.053384 0.552763 -0.066075
v 0.015103 0.631048 0.069747
v 0.008185 0.631048 0.069549
v 0.008185 0.631048 0.069549
v 0.015103 0.631048 0.069747
v 0.024890 0.631048 -0.066075
v 0.024890 0.631048 -0.066075
v 0.053382 0.552763 0.072144
v 0.040587 0.542026 0.072980
v 0.040587 0.542026 0.072980
v 0.053382 0.552763 0.072144
v 0.053383 0.552763 -0.031290
v 0.053383 0.552763 -0.031290
v 0.024890 0.631048 0.069472
v 0.024890 0.631048 0.069472
v 0.053383 0.552763 -0.031290
v 0.053383 0.552763 -0.031290
v 0.053384 0.552763 -0.066075
v 0.053383 0.552763 -0.031290
v 0.061735 0.567230 -0.066075
v 0.061735 0.567230 -0.066075
v 0.053383 0.552763 -0.031290
v 0.053384 0.552763 -0.066075
v 0.053382 0.552763 0.072144
v 0.061735 0.567230 0.071267
v 0.061735 0.567230 0.071267
v 0.053382 0.552763 0.072144
v 0.061735 0.567230 -0.031290
v 0.061735 0.567230 -0.031290
v 0.061735 0.567230 -0.031290
v 0.061735 0.567230 -0.031290
v 0.061735 0.567230 -0.066075
v 0.061735 0.567230 -0.031290
v 0.064635 0.583680 -0.066075
v 0.064635 0.583680 -0.066075
v 0.061735 0.567230 -0.031290
v 0.061735 0.567230 -0.066075
v 0.061735 0.567230 0.071267
v 0.064636 0.583680 0.070456
v 0.064636 0.583680 0.070456
v 0.061735 0.567230 0.071267
v 0.064636 0.583680 -0.031290
v 0.064636 0.583680 -0.031290
v 0.061736 0.600132 -0.066075
v 0.064635 0.583680 -0.066075
v 0.064636 0.583680 -0.031290
v 0.064636 0.583680 -0.031290
v 0.064635 0.583680 -0.066075
v 0.061736 0.600132 -0.066075
v 0.064636 0.583680 0.070456
v 0.061735 0.600131 0.069808
v 0.061735 0.600131 0.069808
v 0.064636 0.583680 0.070456
v 0.061735 0.600131 -0.031290
v 0.061735 0.600131 -0.031290
v 0.053382 0.614598 -0.066075
v 0.061736 0.600132 -0.066075
v 0.061735 0.600131 -0.031290
v 0.061735 0.600131 -0.031290
v 0.061736 0.600132 -0.066075
v 0.053382 0.614598 -0.066075
v 0.061735 0.600131 0.069808
v 0.053383 0.614597 0.069401
v 0.053383 0.614597 0.069401
v 0.061735 0.600131 0.069808
v 0.053383 0.614598 -0.031290
v 0.053383 0.614598 -0.031290
v 0.053383 0.614598 -0.031290
v 0.040587 0.625334 -0.066075
v 0.053382 0.614598 -0.066075
v 0.053382 0.614598 -0.066075
v 0.040587 0.625334 -0.066075
v 0.053383 0.614598 -0.031290
v 0.053383 0.614597 0.069401
v 0.040586 0.625335 0.069284
v 0.040586 0.625335 0.069284
v 0.053383 0.614597 0.069401
v 0.040586 0.625335 -0.031290
v 0.040586 0.625335 -0.031290
v 0.040586 0.625335 0.069284
v 0.040586 0.625335 -0.031290
v 0.040586 0.625335 -0.031290
v 0.040586 0.625335 0.069284
v 0.040587 0.625334 -0.066075
v 0.040586 0.625335 -0.031290
v 0.024890 0.631048 -0.066075
v 0.024890 0.631048 -0.066075
v 0.040586 0.625335 -0.031290
v 0.040587 0.625334 -0.066075
v 0.040586 0.625335 -0.031290
v 0.040586 0.625335 0.069284
v 0.024890 0.631048 0.069472
v 0.024890 0.631048 0.069472
v 0.040586 0.625335 0.069284
v 0.040586 0.625335 -0.031290
vn 0.9848032716100266 0.17367358964491852 0.00002204624385745449
vn 0.9848036802422322 0.1736712735337802 0.000011424101965601406
vn -0.9848036802422322 -0.1736712735337802 -0.000011424101965601406
vn -0.9848032716100266 -0.17367358964491852 -0.00002204624385745449
vn 0.8660486938531322 0.49995965787191154 0.000019387753264192492
vn 0.8660314478010688 0.4999895312731414 0.000006070353010952695
vn 0.8660429392129846 0.4999696263242357 0.00001387584183451501
vn -0.8660429392129846 -0.4999696263242357 -0.00001387584183451501
vn -0.8660314478010688 -0.4999895312731414 -0.000006070353010952695
vn -0.8660486938531322 -0.49995965787191154 -0.000019387753264192492
vn 0.984803271610025 0.17367358964491825 0.00002204631385745955
vn 0.9848032717893151 0.17367358967676813 0.0000110383830590711
vn -0.9848032717893151 -0.17367358967676813 -0.0000110383830590711
vn -0.984803271610025 -0.17367358964491825 -0.00002204631385745955
vn 0.8660285577958045 0.499994537041309 0.0000033115349240502405
vn -0.8660285577958045 -0.499994537041309 -0.0000033115349240502405
vn 0.9848095700398005 -0.17363787175917728 0.00001577868101142537
vn 0.9848054247272173 -0.17366138138561554 0.000006563881156964627
vn 0.984811842070608 -0.17362498446781036 0.000022046502170974402
vn -0.984811842070608 0.17362498446781036 -0.000022046502170974402
vn -0.9848054247272173 0.17366138138561554 -0.000006563881156964627
vn -0.9848095700398005 0.17363787175917728 -0.00001577868101142537
vn 0.9848103607354743 0.1736333877533845 0.000006734064823332764
vn -0.9848103607354743 -0.1736333877533845 -0.000006734064823332764
vn 0.8660285577819031 0.4999945370330583 0.000006579858519449069
vn -0.8660285577819031 -0.4999945370330583 -0.000006579858519449069
vn 0.6427759850163053 0.7660541972141073 0.0000041192239555888015
vn 0.6427694623368863 0.7660596701870871 3.6391118780898206e-8
vn 0.6427890396762234 0.7660432431755806 0.00000756019938637987
vn -0.6427890396762234 -0.7660432431755806 -0.00000756019938637987
vn -0.6427694623368863 -0.7660596701870871 -3.6391118780898206e-8
vn -0.6427759850163053 -0.7660541972141073 -0.0000041192239555888015
vn 0.9848038915692662 -0.17367007553233588 0.000003823835138236202
vn -0.9848038915692662 0.17367007553233588 -0.000003823835138236202
vn 0.9848110316383106 -0.17362958262590963 7.991821502615098e-7
vn 0.9848118423098616 -0.17362498451045408 3.04835305290201e-8
vn -0.9848118423098616 0.17362498451045408 -3.04835305290201e-8
vn -0.9848110316383106 0.17362958262590963 -7.991821502615098e-7
vn 0.9848111543201107 0.173628886625197 0.000007482337725369036
vn -0.9848111543201107 -0.173628886625197 -0.000007482337725369036
vn 0.8660283778804496 0.49999484863666727 0.00000652327668437303
vn -0.8660283778804496 -0.49999484863666727 -0.00000652327668437303
vn 0.6427899617310291 0.7660424694589584 0.000009112792170665331
vn -0.6427899617310291 -0.7660424694589584 -0.000009112792170665331
vn 0.866038660225029 -0.49997703845182545 0.000004071711869956474
vn 0.8660399377926046 -0.499974825502382 0.0000034705005138605026
vn 0.8660428276951759 -0.4999698196755842 0.000003362710111794809
vn -0.8660428276951759 0.4999698196755842 -0.000003362710111794809
vn -0.8660399377926046 0.499974825502382 -0.0000034705005138605026
vn -0.866038660225029 0.49997703845182545 -0.000004071711869956474
vn 0.6427512478092005 0.7660749528768059 -0.0000038099063953525463
vn -0.6427512478092005 -0.7660749528768059 0.0000038099063953525463
vn 0.3420305215757029 0.9396888433310049 0.000005467217333351994
vn 0.3420348006381027 0.9396872857999379 0.00000764190876169988
vn 0.3420220195859019 0.9396919378808947 -1.7256090594265143e-7
vn -0.3420220195859019 -0.9396919378808947 1.7256090594265143e-7
vn -0.3420348006381027 -0.9396872857999379 -0.00000764190876169988
vn -0.3420305215757029 -0.9396888433310049 -0.000005467217333351994
vn 0.8660067393301917 -0.5000323263622655 -0.000005237398923205713
vn -0.8660067393301917 0.5000323263622655 0.000005237398923205713
vn 0.8660369795546013 -0.49997994960971676 0.0000056752244959452124
vn -0.8660369795546013 0.49997994960971676 -0.0000056752244959452124
vn 0.6427467357728949 0.7660787385319179 -0.000004757492135170814
vn -0.6427467357728949 -0.7660787385319179 0.000004757492135170814
vn 0.3420206226574331 0.9396924463225944 -0.0000011312437647083008
vn -0.3420206226574331 -0.9396924463225944 0.0000011312437647083008
vn 0.8660025030250929 -0.5000396631369252 -0.00000664713012632166
vn -0.8660025030250929 0.5000396631369252 0.00000664713012632166
vn 0.642772561798166 -0.7660570695441907 8.886020963026183e-7
vn 0.6427694036511292 -0.7660597194256503 0.0000018615597952693891
vn 0.6427792510663304 -0.7660514567524109 0.0000024731517016762066
vn -0.6427792510663304 0.7660514567524109 -0.0000024731517016762066
vn -0.6427694036511292 0.7660597194256503 -0.0000018615597952693891
vn -0.642772561798166 0.7660570695441907 -8.886020963026183e-7
vn 0.34203331542483273 0.9396878264293099 -2.366204912523124e-7
vn -0.34203331542483273 -0.9396878264293099 2.366204912523124e-7
vn 0 1 0
vn 0.000001182234049517365 1 0.000001781291120445755
vn -0.000001182234049517365 -1 -0.000001781291120445755
vn 0 -1 0
vn 0.6427899617569696 -0.7660424694912372 -4.907306396985969e-7
vn -0.6427899617569696 0.7660424694912372 4.907306396985969e-7
vn 0.6427831646425899 -0.7660481729317401 8.137474110666303e-9
vn -0.6427831646425899 0.7660481729317401 -8.137474110666303e-9
vn 0.342034800647287 0.9396872858276686 1.3992327174039526e-8
vn -0.342034800647287 -0.9396872858276686 -1.3992327174039526e-8
vn -0.0000011806116273189948 1 0.0000017507293804773718
vn 0.0000011806116273189948 -1 -0.0000017507293804773718
vn 0.6427923549335735 -0.7660404613588957 3.0785486243997684e-8
vn -0.6427923549335735 0.7660404613588957 -3.0785486243997684e-8
vn 0.3420203256115021 -0.9396925544386274 0.0000010997957329739899
vn 0.34202240493401365 -0.939691797624707 4.329919756051781e-9
vn 0.34201170313757673 -0.9396956927042993 0.0000054700102815993525
vn -0.34201170313757673 0.9396956927042993 -0.0000054700102815993525
vn -0.34202240493401365 0.939691797624707 -4.329919756051781e-9
vn -0.3420203256115021 0.9396925544386274 -0.0000010997957329739899
vn 0.000007877406600727043 1 1.9088439610493665e-7
vn 0.00005603037958876006 0.9999999984302982 0
vn -0.00005603037958876006 -0.9999999984302982 0
vn -0.000007877406600727043 -1 -1.9088439610493665e-7
vn -0.3420455023389241 0.9396833904564541 -0.000005475056242215263
vn -0.34204972521686994 0.9396818532995862 -0.00000764976053958173
vn -0.34203619756754605 0.9396867773644221 4.0830012451642804e-8
vn 0.34203619756754605 -0.9396867773644221 -4.0830012451642804e-8
vn 0.34204972521686994 -0.9396818532995862 0.00000764976053958173
vn 0.3420455023389241 -0.9396833904564541 0.000005475056242215263
vn 0.3420224049340149 -0.9396917976247067 1.6380586976606624e-8
vn -0.3420224049340149 0.9396917976247067 -1.6380586976606624e-8
vn 0.3420075123292915 -0.9396972179653535 0.000007648816281992173
vn -0.3420075123292915 0.9396972179653535 -0.000007648816281992173
vn -0.00004027630848813592 1 0
vn 0.00004027630848813592 -1 0
vn -0.34203480064688296 0.9396872858269748 0.0000012570754584693178
vn 0.34203480064688296 -0.9396872858269748 -0.0000012570754584693178
vn 0.34202240493401487 -0.9396917976247067 1.627415691283554e-8
vn -0.34202240493401487 0.9396917976247067 -1.627415691283554e-8
vn -0.34202130505217504 0.9396921979511972 2.347048524207952e-7
vn -0.34201981982142654 0.9396927385317599 -1.652292772547835e-8
vn 0.34201981982142654 -0.9396927385317599 1.652292772547835e-8
vn 0.34202130505217504 -0.9396921979511972 -2.347048524207952e-7
vn -0.6427628809197711 0.7660651923360872 -0.0000016702934207119432
vn -0.6427602718150098 0.7660673814856587 -3.63906160435051e-8
vn -0.6427704923387986 0.7660588059428168 -0.000004000542604204995
vn 0.6427704923387986 -0.7660588059428168 0.000004000542604204995
vn 0.6427602718150098 -0.7660673814856587 3.63906160435051e-8
vn 0.6427628809197711 -0.7660651923360872 0.0000016702934207119432
vn -0.6428105099528854 0.7660252269211354 0.0000038124088219396287
vn -0.642815031108272 0.7660214329629426 0.000004761441243880552
vn 0.642815031108272 -0.7660214329629426 -0.000004761441243880552
vn 0.6428105099528854 -0.7660252269211354 -0.0000038124088219396287
vn -0.6427694623265917 0.7660596701740034 -0.00000576898025835405
vn 0.6427694623265917 -0.7660596701740034 0.00000576898025835405
vn -0.6427694623296782 0.7660596701778132 -0.000004845250881387405
vn 0.6427694623296782 -0.7660596701778132 0.000004845250881387405
vn -0.8660428276183767 0.49996981963053205 -0.000013761541643823422
vn -0.8660295872077397 0.4999927540228789 -0.000002325728704207093
vn -0.866038771787872 0.4999768451269199 -0.000009853213059208783
vn 0.866038771787872 -0.4999768451269199 0.000009853213059208783
vn 0.8660295872077397 -0.4999927540228789 0.000002325728704207093
vn 0.8660428276183767 -0.49996981963053205 0.000013761541643823422
vn -0.8660086000789933 0.5000291036995814 -0.000006528046447333471
vn -0.8660105907335149 0.5000256560445667 -0.000005881273761747299
vn 0.8660105907335149 -0.5000256560445667 0.000005881273761747299
vn 0.8660086000789933 -0.5000291036995814 0.000006528046447333471
vn -0.8660285578004546 0.4999945370442183 -4.9031129603521155e-8
vn 0.8660285578004546 -0.4999945370442183 4.9031129603521155e-8
vn -0.8660285578004546 0.49999453704421987 -2.587562538432011e-8
vn 0.8660285578004546 -0.49999453704421987 2.587562538432011e-8
vn -0.9848191745884798 0.17358339022747102 -5.575666321405938e-8
vn -0.9848119478552643 0.17362438548875417 0.000011188059326381295
vn -0.984816902965626 0.17359627759432456 0.0000062118613974589456
vn 0.984816902965626 -0.17359627759432456 -0.0000062118613974589456
vn 0.9848119478552643 -0.17362438548875417 -0.000011188059326381295
vn 0.9848191745884798 -0.17358339022747102 5.575666321405938e-8
vn -0.9848032718492722 0.1736735896875732 -2.942445656650149e-8
vn -0.984804065622682 0.1736690885923849 7.259424893211493e-7
vn 0.984804065622682 -0.1736690885923849 -7.259424893211493e-7
vn 0.9848032718492722 -0.1736735896875732 2.942445656650149e-8
vn -0.9848112256522675 0.1736284815716006 0.000014711189082476632
vn 0.9848112256522675 -0.1736284815716006 -0.000014711189082476632
vn -0.9848237061847565 -0.17355767818890827 0.00000884283524491476
vn -0.9848284450386722 -0.17353078505427602 0.000021935301752870005
vn -0.9848138004906176 -0.173613877145357 -0.000005077681993327106
vn 0.9848138004906176 0.173613877145357 0.000005077681993327106
vn 0.9848284450386722 0.17353078505427602 -0.000021935301752870005
vn 0.9848237061847565 0.17355767818890827 -0.00000884283524491476
vn -0.9848039428580332 -0.17366978457754237 0.000007487442154882128
vn -0.9848047366196406 -0.17366528348040225 0.000006722497174373491
vn 0.9848047366196406 0.17366528348040225 -0.000006722497174373491
vn 0.9848039428580332 0.17366978457754237 -0.000007487442154882128
vn -0.9848118422388106 -0.17362498449767572 -0.000012015901744566568
vn 0.9848118422388106 0.17362498449767572 0.000012015901744566568
vn -0.8659897138061905 -0.5000618116077699 -0.00001238659757378632
vn -0.8659765822934149 -0.5000845511448446 -0.000025013512784967807
vn -0.8660158130799458 -0.5000166112135617 0.0000024467224848532045
vn 0.8660158130799458 0.5000166112135617 -0.0000024467224848532045
vn 0.8659765822934149 0.5000845511448446 0.000025013512784967807
vn 0.8659897138061905 0.5000618116077699 0.00001238659757378632
vn -0.8660168425371305 -0.5000148282221419 -2.7739319984427065e-8
vn -0.866017468868506 -0.5000137434256526 -2.281170883747548e-7
vn 0.866017468868506 0.5000137434256526 2.281170883747548e-7
vn 0.8660168425371305 0.5000148282221419 2.7739319984427065e-8
vn -0.86602273434644 -0.5000046234987673 0.000008658610331140058
vn 0.86602273434644 0.5000046234987673 -0.000008658610331140058
vn -0.6427737584079671 -0.7660560655032074 -0.000002800359517127515
vn -0.6427935514968033 -0.7660394572641027 0.000008285245210680963
vn -0.642803173323353 -0.7660313832738461 0.000014317294201254575
vn 0.642803173323353 0.7660313832738461 -0.000014317294201254575
vn 0.6427935514968033 0.7660394572641027 -0.000008285245210680963
vn 0.6427737584079671 0.7660560655032074 0.000002800359517127515
vn -0.642760271812327 -0.7660673814820401 -0.000002998991268874795
vn 0.642760271812327 0.7660673814820401 0.000002998991268874795
vn -0.6427694623222984 -0.7660596701687334 -0.0000068465236980720035
vn 0.6427694623222984 0.7660596701687334 0.0000068465236980720035
vn -0.6427611939030556 -0.7660666078103342 -0.0000032072073598620785
vn -0.6427694623292152 -0.7660596701772401 -0.00000499498194249238
vn 0.6427694623292152 0.7660596701772401 0.00000499498194249238
vn 0.6427611939030556 0.7660666078103342 0.0000032072073598620785
vn -0.3420405087649726 -0.9396852081209185 0.0000015952863742139873
vn 0.3420405087649726 0.9396852081209185 -0.0000015952863742139873
vn -0.34205231030652444 -0.9396809123350881 -0.0000026580998270986505
vn 0.34205231030652444 0.9396809123350881 0.0000026580998270986505
usemtl material_0_0
f 1//1 2//1 3//2
f 4//3 5//4 6//4
f 7//5 8//6 9//7
f 10//8 11//9 12//10
f 13//11 14//12 3//2
f 4//3 15//13 16//14
f 9//7 8//6 17//15
f 18//16 11//9 10//8
f 19//17 20//18 21//19
f 22//20 23//21 24//22
f 14//12 25//23 3//2
f 4//3 26//24 15//13
f 8//6 27//25 17//15
f 18//16 28//26 11//9
f 29//27 30//28 31//29
f 32//30 33//31 34//32
f 19//17 35//33 20//18
f 23//21 36//34 24//22
f 20//18 37//35 38//36
f 39//37 40//38 23//21
f 3//2 25//23 41//39
f 42//40 26//24 4//3
f 17//15 43//41 44//41
f 45//42 46//42 18//16
f 29//27 31//29 47//43
f 48//44 32//30 34//32
f 49//45 50//46 51//47
f 52//48 53//49 54//50
f 35//33 37//35 20//18
f 23//21 40//38 36//34
f 47//43 31//29 55//51
f 56//52 32//30 48//44
f 57//53 58//54 59//55
f 60//56 61//57 62//58
f 51//47 50//46 63//59
f 64//60 53//49 52//48
f 49//45 65//61 50//46
f 53//49 66//62 54//50
f 67//63 47//43 55//51
f 56//52 48//44 68//64
f 57//53 59//55 69//65
f 70//66 60//56 62//58
f 50//46 71//67 63//59
f 64//60 72//68 53//49
f 73//69 74//70 75//71
f 76//72 77//73 78//74
f 69//65 59//55 79//75
f 80//76 60//56 70//66
f 81//77 82//77 83//78
f 84//79 85//80 86//80
f 73//69 87//81 74//70
f 77//73 88//82 78//74
f 89//83 73//69 75//71
f 76//72 78//74 90//84
f 69//65 79//75 91//85
f 92//86 80//76 70//66
f 81//77 83//78 93//87
f 94//88 84//79 86//80
f 73//69 95//89 87//81
f 88//82 96//90 78//74
f 97//91 98//92 99//93
f 100//94 101//95 102//96
f 103//97 83//78 104//98
f 105//99 84//79 106//100
f 93//87 83//78 103//97
f 106//100 84//79 94//88
f 107//101 108//102 109//103
f 110//104 111//105 112//106
f 97//91 113//107 114//107
f 115//108 116//108 102//96
f 117//109 97//91 99//93
f 100//94 102//96 118//110
f 93//87 103//97 119//111
f 120//112 106//100 94//88
f 107//101 109//103 121//113
f 122//114 110//104 112//106
f 97//91 123//115 124//115
f 125//116 126//116 102//96
f 127//80 128//80 129//80
f 130//77 131//77 132//77
f 133//117 109//103 134//118
f 135//119 110//104 136//120
f 133//117 121//113 109//103
f 110//104 122//114 136//120
f 137//121 138//122 139//123
f 140//124 141//125 142//126
f 143//80 144//80 128//80
f 131//77 145//77 146//77
f 127//80 143//80 128//80
f 131//77 146//77 132//77
f 147//80 127//80 129//80
f 130//77 132//77 148//77
f 149//127 139//123 150//128
f 151//129 140//124 152//130
f 137//121 139//123 153//131
f 154//132 140//124 142//126
f 127//80 155//80 143//80
f 146//77 156//77 132//77
f 157//133 139//123 149//127
f 152//130 140//124 158//134
f 159//135 160//136 161//137
f 162//138 163//139 164//140
f 160//136 165//141 166//142
f 167//143 168//144 163//139
f 161//137 160//136 169//145
f 170//146 163//139 162//138
f 160//136 166//142 171//147
f 172//148 167//143 163//139
f 173//149 174//150 175//151
f 176//152 177//153 178//154
f 174//150 179//155 180//156
f 181//157 182//158 177//153
f 175//151 174//150 183//159
f 184//160 177//153 176//152
f 174//150 180//156 183//159
f 184//160 181//157 177//153
f 185//161 186//162 187//163
f 188//164 189//165 190//166
f 187//163 191//167 192//168
f 193//169 194//170 188//164
f 185//161 187//163 195//171
f 196//172 188//164 190//166
f 187//163 192//168 195//171
f 196//172 193//169 188//164
f 197//173 198//174 199//175
f 200//176 201//177 202//178
f 199//175 203//179 204//180
f 205//181 206//182 200//176
f 197//173 199//175 207//183
f 208//184 200//176 202//178
f 199//175 204//180 207//183
f 208//184 205//181 200//176
f 209//185 210//186 211//187
f 212//188 213//189 214//190
f 209//185 215//191 216//191
f 217//192 218//192 214//190
f 209//185 219//193 210//186
f 213//189 220//194 214//190
f 209//185 221//195 222//196
f 223//197 224//198 214//190
f 225//199 226//199 227//199
f 228//200 229//200 230//200
f 231//201 232//201 233//201
f 234//202 235//202 236//202
