# SSTK version 0.8.0
# 204
mtllib original-204.mtl
o #ID1219
v 0.018398 -0.621896 -0.066075
v 0.015172 -0.710416 -0.066075
v 0.017850 -0.621896 -0.066075
v 0.017850 -0.621896 -0.066075
v 0.015172 -0.710416 -0.066075
v 0.018398 -0.621896 -0.066075
v 0.024891 -0.621896 -0.066075
v 0.015172 -0.710416 -0.066075
v 0.018398 -0.621896 -0.066075
v 0.018398 -0.621896 -0.066075
v 0.015172 -0.710416 -0.066075
v 0.024891 -0.621896 -0.066075
v 0.040587 -0.616183 -0.066075
v 0.015172 -0.710416 -0.066075
v 0.024891 -0.621896 -0.066075
v 0.024891 -0.621896 -0.066075
v 0.015172 -0.710416 -0.066075
v 0.040587 -0.616183 -0.066075
v 0.053379 -0.605454 -0.066075
v 0.015172 -0.710416 -0.066075
v 0.040587 -0.616183 -0.066075
v 0.040587 -0.616183 -0.066075
v 0.015172 -0.710416 -0.066075
v 0.053379 -0.605454 -0.066075
v 0.061736 -0.590978 -0.066075
v 0.015172 -0.710416 -0.066075
v 0.053379 -0.605454 -0.066075
v 0.053379 -0.605454 -0.066075
v 0.015172 -0.710416 -0.066075
v 0.061736 -0.590978 -0.066075
v 0.061736 -0.590978 -0.066075
v 0.380352 -0.710416 -0.066075
v 0.015172 -0.710416 -0.066075
v 0.015172 -0.710416 -0.066075
v 0.380352 -0.710416 -0.066075
v 0.061736 -0.590978 -0.066075
v 0.064636 -0.574528 -0.066075
v 0.380352 -0.710416 -0.066075
v 0.061736 -0.590978 -0.066075
v 0.061736 -0.590978 -0.066075
v 0.380352 -0.710416 -0.066075
v 0.064636 -0.574528 -0.066075
vn 5.5056253827842435e-8 0 -1
vn -5.5056253827842435e-8 0 1
vn 4.269345382784278e-8 0 -1
vn -4.269345382784278e-8 0 1
vn 3.871615382784287e-8 1.0141072818811804e-9 -1
vn -3.871615382784287e-8 -1.0141072818811804e-9 1
vn 4.592045382784271e-8 0 -1
vn -4.592045382784271e-8 0 1
vn 3.664255382784292e-8 2.4483452662556093e-9 -1
vn -3.664255382784292e-8 -2.4483452662556093e-9 1
vn -2.220528461721524e-7 1.0330362684770171e-7 -1
vn 2.220528461721524e-7 -1.0330362684770171e-7 1
vn -2.417898461721525e-7 5.0652274131653746e-8 -1
vn 2.417898461721525e-7 -5.0652274131653746e-8 1
usemtl material_0_0
f 1//1 2//1 3//1
f 4//2 5//2 6//2
f 7//3 8//3 9//3
f 10//4 11//4 12//4
f 13//5 14//5 15//5
f 16//6 17//6 18//6
f 19//7 20//7 21//7
f 22//8 23//8 24//8
f 25//9 26//9 27//9
f 28//10 29//10 30//10
f 31//11 32//11 33//11
f 34//12 35//12 36//12
f 37//13 38//13 39//13
f 40//14 41//14 42//14
