# SSTK version 0.8.0
# 214
mtllib original-214.mtl
o #ID1279
v 0.012135 -0.621896 -0.066075
v 0.015172 -0.710416 -0.066075
v 0.008185 -0.621896 -0.066075
v 0.008185 -0.621896 -0.066075
v 0.015172 -0.710416 -0.066075
v 0.012135 -0.621896 -0.066075
v 0.012686 -0.621896 -0.066075
v 0.012686 -0.621896 -0.066075
vn 0.000012611600652804575 4.3139009448515175e-7 -1
vn 0.00002161839064871417 7.404089755197764e-7 -1
vn 0.000024632250646273614 8.438131022126703e-7 -1
vn -0.000024632250646273614 -8.438131022126703e-7 1
vn -0.00002161839064871417 -7.404089755197764e-7 1
vn -0.000012611600652804575 -4.3139009448515175e-7 1
vn 5.431875382784243e-8 0 -1
vn -5.431875382784243e-8 0 1
usemtl material_0_0
f 1//1 2//2 3//3
f 4//4 5//5 6//6
f 7//7 2//2 1//1
f 6//6 5//5 8//8
