# SSTK version 0.8.0
# 23
mtllib original-23.mtl
o #ID137
v 0.009878 0.578824 0.049052
v 0.023954 0.585703 0.049052
v 0.013477 0.589302 0.049052
v 0.013477 0.589302 0.049052
v 0.023954 0.585703 0.049052
v 0.009878 0.578824 0.049052
v -0.020438 0.589237 0.049052
v 0.009878 0.578824 0.049052
v 0.013477 0.589302 0.049052
v 0.013477 0.589302 0.049052
v 0.009878 0.578824 0.049052
v -0.020438 0.589237 0.049052
v 0.020355 0.575226 0.049052
v 0.020355 0.575226 0.049052
v -0.020438 0.589237 0.049052
v 0.013477 0.589302 0.049052
v -0.016839 0.599715 0.049052
v -0.016839 0.599715 0.049052
v 0.013477 0.589302 0.049052
v -0.020438 0.589237 0.049052
v 0.050671 0.564813 0.049052
v 0.023954 0.585703 0.049052
v 0.020355 0.575226 0.049052
v 0.020355 0.575226 0.049052
v 0.023954 0.585703 0.049052
v 0.050671 0.564813 0.049052
vn 0 9.189426571182025e-8 1
vn 0 -9.189426571182025e-8 -1
vn 8.809950541988005e-8 6.164372818645368e-8 1
vn -8.809950541988005e-8 -6.164372818645368e-8 -1
vn 8.809950877455676e-8 6.164368987500964e-8 1
vn -8.809950877455676e-8 -6.164368987500964e-8 -1
vn 1.7617379569823276e-7 3.1392721821098164e-8 1
vn -1.7617379569823276e-7 -3.1392721821098164e-8 -1
usemtl material_0_0
f 1//1 2//1 3//1
f 4//2 5//2 6//2
f 7//3 8//3 9//3
f 10//4 11//4 12//4
f 1//1 13//1 2//1
f 5//2 14//2 6//2
f 15//5 16//5 17//5
f 18//6 19//6 20//6
f 21//7 22//7 23//7
f 24//8 25//8 26//8
