# SSTK version 0.8.0
# 199
mtllib original-199.mtl
o #ID1189
v -0.705003 0.715184 -0.066075
v -0.714054 0.710659 -0.066075
v -0.710659 0.714053 -0.066075
v -0.710659 0.714053 -0.066075
v -0.714054 0.710659 -0.066075
v -0.705003 0.715184 -0.066075
v -0.705003 0.715184 -0.066075
v -0.028660 0.600131 -0.066075
v -0.714054 0.710659 -0.066075
v -0.714054 0.710659 -0.066075
v -0.028660 0.600131 -0.066075
v -0.705003 0.715184 -0.066075
vn 2.8629153827843112e-8 2.1085315068876032e-8 -1
vn -2.8629153827843112e-8 -2.1085315068876032e-8 1
vn -2.787924461720945e-7 6.358748497184221e-7 -1
vn 2.787924461720945e-7 -6.358748497184221e-7 1
usemtl material_0_0
f 1//1 2//1 3//1
f 4//2 5//2 6//2
f 7//3 8//3 9//3
f 10//4 11//4 12//4
