# SSTK version 0.8.0
# 160
mtllib original-160.mtl
o #ID955
v 0.008133 0.536312 0.071272
v 0.015172 0.496263 0.072131
v 0.015171 0.536312 0.072131
v 0.015171 0.536312 0.072131
v 0.015172 0.496263 0.072131
v 0.008133 0.536312 0.071272
v 0.024888 0.536312 0.073675
v 0.024888 0.536312 0.073675
v 0.028533 0.537639 0.071177
v 0.024888 0.536312 0.073675
v 0.015172 0.496263 0.072131
v 0.015172 0.496263 0.072131
v 0.024888 0.536312 0.073675
v 0.028533 0.537639 0.071177
vn -0.12121657786557358 -0.0000023509592614377296 0.9926260832987578
vn -0.1418768812500492 -0.0000027516590369924028 0.9898843117047506
vn -0.13906327919556122 -0.0000026970900367110607 0.9902834969704903
vn 0.13906327919556122 0.0000026970900367110607 -0.9902834969704903
vn 0.1418768812500492 0.0000027516590369924028 -0.9898843117047506
vn 0.12121657786557358 0.0000023509592614377296 -0.9926260832987578
vn -0.1568657840337203 -0.0000030423648798882975 0.987619929826363
vn 0.1568657840337203 0.0000030423648798882975 -0.987619929826363
vn 0.5992548275571189 -0.17548658581953425 0.7810877734588418
vn -0.5992548275571189 0.17548658581953425 -0.7810877734588418
usemtl material_0_0
f 1//1 2//2 3//3
f 4//4 5//5 6//6
f 3//3 2//2 7//7
f 8//8 5//5 4//4
f 9//9 10//9 11//9
f 12//10 13//10 14//10
