# SSTK version 0.8.0
# 153
mtllib original-153.mtl
o #ID913
v -0.179280 -0.186541 0.072131
v -0.179280 -0.327117 0.072131
v -0.117476 -0.327117 0.072131
v -0.117476 -0.327117 0.072131
v -0.179280 -0.327117 0.072131
v -0.179280 -0.186541 0.072131
v -0.179280 0.002384 0.072131
v -0.179280 -0.186541 0.072131
v -0.117476 -0.327117 0.072131
v -0.117476 -0.327117 0.072131
v -0.179280 -0.186541 0.072131
v -0.179280 0.002384 0.072131
v -0.179280 0.191309 0.072131
v -0.179280 0.002384 0.072131
v -0.117476 -0.327117 0.072131
v -0.117476 -0.327117 0.072131
v -0.179280 0.002384 0.072131
v -0.179280 0.191309 0.072131
vn -7.870975382784154e-8 0 1
vn 7.870975382784154e-8 0 -1
usemtl material_0_0
f 1//1 2//1 3//1
f 4//2 5//2 6//2
f 7//1 8//1 9//1
f 10//2 11//2 12//2
f 13//1 14//1 15//1
f 16//2 17//2 18//2
