# SSTK version 0.8.0
# 216
mtllib original-216.mtl
o #ID1291
v 0.745532 -0.700233 -0.066075
v 0.744401 -0.705890 -0.066075
v 0.741007 -0.709285 -0.066075
v 0.741007 -0.709285 -0.066075
v 0.744401 -0.705890 -0.066075
v 0.745532 -0.700233 -0.066075
v 0.745532 -0.700233 -0.066075
v 0.741007 -0.709285 -0.066075
v 0.735348 -0.710416 -0.066075
v 0.735348 -0.710416 -0.066075
v 0.741007 -0.709285 -0.066075
v 0.745532 -0.700233 -0.066075
vn 4.969255382784256e-8 0 -1
vn -4.969255382784256e-8 0 1
vn 3.090535382784305e-8 9.412111335010614e-9 -1
vn -3.090535382784305e-8 -9.412111335010614e-9 1
usemtl material_0_0
f 1//1 2//1 3//1
f 4//2 5//2 6//2
f 7//3 8//3 9//3
f 10//4 11//4 12//4
