# SSTK version 0.8.0
# 156
mtllib original-156.mtl
o #ID931
v 0.130080 0.298001 0.072131
v 0.207842 0.191309 0.072131
v 0.207842 0.298001 0.072131
v 0.207842 0.298001 0.072131
v 0.207842 0.191309 0.072131
v 0.130080 0.298001 0.072131
v 0.130080 0.298001 0.072131
v 0.207842 0.002384 0.072131
v 0.207842 0.191309 0.072131
v 0.207842 0.191309 0.072131
v 0.207842 0.002384 0.072131
v 0.130080 0.298001 0.072131
v 0.130080 0.298001 0.072131
v 0.207842 -0.186541 0.072131
v 0.207842 0.002384 0.072131
v 0.207842 0.002384 0.072131
v 0.207842 -0.186541 0.072131
v 0.130080 0.298001 0.072131
vn 0.0000012203163461714077 0 1
vn -0.0000012203163461714077 0 -1
usemtl material_0_0
f 1//1 2//1 3//1
f 4//2 5//2 6//2
f 7//1 8//1 9//1
f 10//2 11//2 12//2
f 13//1 14//1 15//1
f 16//2 17//2 18//2
