# SSTK version 0.8.0
# 187
mtllib original-187.mtl
o #ID1117
v 0.735348 0.715184 -0.066075
v 0.741007 0.714053 -0.066075
v 0.380352 0.715184 -0.066075
v 0.380352 0.715184 -0.066075
v 0.741007 0.714053 -0.066075
v 0.735348 0.715184 -0.066075
v 0.380352 0.715184 -0.066075
v 0.741007 0.714053 -0.066075
v 0.745532 0.705002 -0.066075
v 0.745532 0.705002 -0.066075
v 0.741007 0.714053 -0.066075
v 0.380352 0.715184 -0.066075
vn -2.2984864617195517e-7 -0.0000013131620701106757 -1
vn -2.2648184617214695e-7 -2.402373298809641e-7 -1
vn -2.265760461721452e-7 -2.7023980863533475e-7 -1
vn 2.265760461721452e-7 2.7023980863533475e-7 1
vn 2.2648184617214695e-7 2.402373298809641e-7 1
vn 2.2984864617195517e-7 0.0000013131620701106757 1
vn -2.2616084617215133e-7 -1.3794680231586246e-7 -1
vn 2.2616084617215133e-7 1.3794680231586246e-7 1
usemtl material_0_0
f 1//1 2//2 3//3
f 4//4 5//5 6//6
f 7//7 8//7 9//7
f 10//8 11//8 12//8
