# SSTK version 0.8.0
# 4
mtllib original-4.mtl
o #ID32
v 0.040259 -0.243390 0.096948
v 0.069854 -0.259923 0.092044
v 0.072031 -0.243390 0.092044
v 0.039165 -0.251700 0.096948
v 0.069854 -0.226857 0.092044
v 0.039165 -0.235080 0.096948
v 0.035957 -0.227337 0.096948
v 0.035957 -0.259443 0.096948
v 0.030855 -0.220688 0.096948
v 0.030855 -0.266093 0.096948
v 0.024206 -0.215585 0.096948
v 0.024206 -0.271195 0.096948
v 0.016462 -0.212378 0.096948
v 0.016462 -0.274403 0.096948
v 0.008152 -0.275497 0.096948
v 0.008152 -0.211284 0.096948
v -0.000157 -0.212378 0.096948
v -0.000157 -0.274403 0.096948
v -0.007901 -0.271195 0.096948
v -0.007901 -0.215585 0.096948
v -0.014550 -0.266093 0.096948
v -0.014550 -0.220688 0.096948
v -0.019653 -0.259443 0.096948
v -0.019653 -0.227337 0.096948
v -0.022860 -0.251700 0.096948
v -0.022860 -0.235080 0.096948
v -0.023954 -0.243390 0.096948
v 0.063473 -0.275329 0.092044
v 0.099901 -0.267974 0.083927
v 0.103137 -0.243390 0.083927
v 0.063473 -0.211451 0.092044
v 0.099901 -0.218806 0.083927
v 0.053321 -0.198221 0.092044
v 0.040092 -0.188070 0.092044
v 0.024685 -0.181688 0.092044
v 0.008152 -0.179512 0.092044
v -0.008381 -0.181688 0.092044
v -0.023787 -0.188070 0.092044
v -0.037016 -0.198221 0.092044
v -0.047168 -0.211451 0.092044
v -0.053549 -0.226857 0.092044
v -0.055726 -0.243390 0.092044
v -0.053549 -0.259923 0.092044
v -0.047168 -0.275329 0.092044
v -0.037016 -0.288559 0.092044
v -0.023787 -0.298710 0.092044
v -0.008381 -0.305092 0.092044
v 0.008152 -0.307269 0.092044
v 0.024685 -0.305092 0.092044
v 0.040092 -0.298710 0.092044
v 0.053321 -0.288559 0.092044
v 0.090412 -0.290883 0.083927
v 0.090412 -0.195898 0.083927
v 0.075317 -0.176226 0.083927
v 0.055645 -0.161131 0.083927
v 0.032736 -0.151642 0.083927
v 0.008152 -0.148405 0.083927
v -0.016432 -0.151642 0.083927
v -0.039340 -0.161131 0.083927
v -0.059012 -0.176226 0.083927
v -0.074107 -0.195898 0.083927
v -0.083596 -0.218806 0.083927
v -0.086833 -0.243390 0.083927
v -0.083596 -0.267974 0.083927
v -0.074107 -0.290883 0.083927
v -0.059012 -0.310555 0.083927
v -0.039340 -0.325650 0.083927
v -0.016432 -0.335139 0.083927
v 0.008152 -0.338375 0.083927
v 0.032736 -0.335139 0.083927
v 0.055645 -0.325650 0.083927
v 0.075317 -0.310555 0.083927
vt 0.3789214 -0.5002377
vt 0.26678 -0.4375919
vt 0.2585326 -0.5002377
vt 0.3830667 -0.4687508
vt 0.26678 -0.5628835
vt 0.3830667 -0.5317246
vt 0.3952202 -0.5610656
vt 0.3952202 -0.4394097
vt 0.4145536 -0.5862614
vt 0.4145536 -0.414214
vt 0.4397494 -0.6055948
vt 0.4397494 -0.3948806
vt 0.4690905 -0.6177483
vt 0.4690905 -0.3827271
vt 0.5005773 -0.3785818
vt 0.5005773 -0.6218936
vt 0.5320642 -0.6177483
vt 0.5320642 -0.3827271
vt 0.5614053 -0.3948806
vt 0.5614053 -0.6055948
vt 0.5866011 -0.414214
vt 0.5866011 -0.5862614
vt 0.6059345 -0.4394097
vt 0.6059345 -0.5610656
vt 0.6180879 -0.4687508
vt 0.6180879 -0.5317246
vt 0.6222333 -0.5002377
vt 0.2909604 -0.3792153
vt 0.1529284 -0.4070854
vt 0.1406647 -0.5002377
vt 0.2909604 -0.6212601
vt 0.1529284 -0.5933899
vt 0.3294258 -0.6713892
vt 0.3795549 -0.7098546
vt 0.4379315 -0.734035
vt 0.5005773 -0.7422825
vt 0.5632231 -0.734035
vt 0.6215997 -0.7098546
vt 0.6717288 -0.6713892
vt 0.7101943 -0.6212601
vt 0.7343746 -0.5628835
vt 0.7426221 -0.5002377
vt 0.7343746 -0.4375919
vt 0.7101943 -0.3792153
vt 0.6717288 -0.3290862
vt 0.6215997 -0.2906208
vt 0.5632231 -0.2664404
vt 0.5005773 -0.2581929
vt 0.4379315 -0.2664404
vt 0.3795549 -0.2906208
vt 0.3294258 -0.3290862
vt 0.1888838 -0.3202814
vt 0.1888838 -0.680194
vt 0.2460807 -0.7547344
vt 0.320621 -0.8119312
vt 0.4074251 -0.8478866
vt 0.5005773 -0.8601503
vt 0.5937296 -0.8478866
vt 0.6805337 -0.8119312
vt 0.755074 -0.7547344
vt 0.8122708 -0.680194
vt 0.8482262 -0.5933899
vt 0.86049 -0.5002377
vt 0.8482262 -0.4070854
vt 0.8122708 -0.3202814
vt 0.755074 -0.245741
vt 0.6805337 -0.1885442
vt 0.5937296 -0.1525888
vt 0.5005773 -0.140325
vt 0.4074251 -0.1525888
vt 0.320621 -0.1885442
vt 0.2460807 -0.245741
vn 0.08283131849172858 0 0.9965635818536226
vn 0.19980510704803695 -0.05353762188851598 0.978371934511638
vn 0.20685350567069655 0 0.9783719268211567
vn 0.08000890855628845 -0.021438319613158705 0.996563582017623
vn 0.19980510704803695 0.05353762188851598 0.978371934511638
vn 0.08000890855628845 0.021438319613158705 0.996563582017623
vn 0.07173402868015714 0.0414156592379884 0.9965635816641091
vn 0.07173402868015714 -0.0414156592379884 0.9965635816641091
vn 0.05857058892022613 0.05857058892022613 0.996563581627924
vn 0.05857058892022613 -0.05857058892022613 0.996563581627924
vn 0.0414156592379884 0.07173402868015714 0.9965635816641091
vn 0.0414156592379884 -0.07173402868015714 0.9965635816641091
vn 0.021438319613158705 0.08000890855628845 0.996563582017623
vn 0.021438319613158705 -0.08000890855628845 0.996563582017623
vn 0 -0.08283131849172858 0.9965635818536226
vn 0 0.08283131849172858 0.9965635818536226
vn -0.021438319613158705 0.08000890855628845 0.996563582017623
vn -0.021438319613158705 -0.08000890855628845 0.996563582017623
vn -0.0414156592379884 -0.07173402868015714 0.9965635816641091
vn -0.0414156592379884 0.07173402868015714 0.9965635816641091
vn -0.05857058892022613 -0.05857058892022613 0.996563581627924
vn -0.05857058892022613 0.05857058892022613 0.996563581627924
vn -0.07173402868015714 -0.0414156592379884 0.9965635816641091
vn -0.07173402868015714 0.0414156592379884 0.9965635816641091
vn -0.08000890855628845 -0.021438319613158705 0.996563582017623
vn -0.08000890855628845 0.021438319613158705 0.996563582017623
vn -0.08283131849172858 0 0.9965635818536226
vn 0.1791404053836476 -0.10342670310824863 0.9783719294026892
vn 0.24388360403559733 -0.06534842108133515 0.967600316011102
vn 0.25248690312683575 0 0.9676003119829076
vn 0.1791404053836476 0.10342670310824863 0.9783719294026892
vn 0.24388360403559733 0.06534842108133515 0.967600316011102
vn 0.14626750454730247 0.14626750454730247 0.9783719304165517
vn 0.10342670310824863 0.1791404053836476 0.9783719294026892
vn 0.05353762188851598 0.19980510704803695 0.978371934511638
vn 0 0.20685350567069655 0.9783719268211567
vn -0.05353762188851598 0.19980510704803695 0.978371934511638
vn -0.10342670310824863 0.1791404053836476 0.9783719294026892
vn -0.14626750454730247 0.14626750454730247 0.9783719304165517
vn -0.1791404053836476 0.10342670310824863 0.9783719294026892
vn -0.19980510704803695 0.05353762188851598 0.978371934511638
vn -0.20685350567069655 0 0.9783719268211567
vn -0.19980510704803695 -0.05353762188851598 0.978371934511638
vn -0.1791404053836476 -0.10342670310824863 0.9783719294026892
vn -0.14626750454730247 -0.14626750454730247 0.9783719304165517
vn -0.10342670310824863 -0.1791404053836476 0.9783719294026892
vn -0.05353762188851598 -0.19980510704803695 0.978371934511638
vn 0 -0.20685350567069655 0.9783719268211567
vn 0.05353762188851598 -0.19980510704803695 0.978371934511638
vn 0.10342670310824863 -0.1791404053836476 0.9783719294026892
vn 0.14626750454730247 -0.14626750454730247 0.9783719304165517
vn 0.21866010263095556 -0.1262434015189821 0.9676003116423316
vn 0.21866010263095556 0.1262434015189821 0.9676003116423316
vn 0.17853520215686866 0.17853520215686866 0.9676003116894973
vn 0.1262434015189821 0.21866010263095556 0.9676003116423316
vn 0.06534842108133515 0.24388360403559733 0.967600316011102
vn 0 0.25248690312683575 0.9676003119829076
vn -0.06534842108133515 0.24388360403559733 0.967600316011102
vn -0.1262434015189821 0.21866010263095556 0.9676003116423316
vn -0.17853520215686866 0.17853520215686866 0.9676003116894973
vn -0.21866010263095556 0.1262434015189821 0.9676003116423316
vn -0.24388360403559733 0.06534842108133515 0.967600316011102
vn -0.25248690312683575 0 0.9676003119829076
vn -0.24388360403559733 -0.06534842108133515 0.967600316011102
vn -0.21866010263095556 -0.1262434015189821 0.9676003116423316
vn -0.17853520215686866 -0.17853520215686866 0.9676003116894973
vn -0.1262434015189821 -0.21866010263095556 0.9676003116423316
vn -0.06534842108133515 -0.24388360403559733 0.967600316011102
vn 0 -0.25248690312683575 0.9676003119829076
vn 0.06534842108133515 -0.24388360403559733 0.967600316011102
vn 0.1262434015189821 -0.21866010263095556 0.9676003116423316
vn 0.17853520215686866 -0.17853520215686866 0.9676003116894973
usemtl material_0_0
f 1/1/1 2/2/2 3/3/3
f 2/2/2 1/1/1 4/4/4
f 5/5/5 1/1/1 3/3/3
f 1/1/1 5/5/5 6/6/6
f 6/6/6 4/4/4 1/1/1
f 4/4/4 6/6/6 7/7/7
f 4/4/4 7/7/7 8/8/8
f 8/8/8 7/7/7 9/9/9
f 8/8/8 9/9/9 10/10/10
f 10/10/10 9/9/9 11/11/11
f 10/10/10 11/11/11 12/12/12
f 12/12/12 11/11/11 13/13/13
f 12/12/12 13/13/13 14/14/14
f 14/14/14 13/13/13 15/15/15
f 15/15/15 13/13/13 16/16/16
f 15/15/15 16/16/16 17/17/17
f 15/15/15 17/17/17 18/18/18
f 18/18/18 17/17/17 19/19/19
f 19/19/19 17/17/17 20/20/20
f 19/19/19 20/20/20 21/21/21
f 21/21/21 20/20/20 22/22/22
f 21/21/21 22/22/22 23/23/23
f 23/23/23 22/22/22 24/24/24
f 23/23/23 24/24/24 25/25/25
f 25/25/25 24/24/24 26/26/26
f 25/25/25 26/26/26 27/27/27
f 4/4/4 28/28/28 2/2/2
f 28/28/28 4/4/4 8/8/8
f 3/3/3 29/29/29 30/30/30
f 29/29/29 3/3/3 2/2/2
f 31/31/31 6/6/6 5/5/5
f 6/6/6 31/31/31 7/7/7
f 32/32/32 3/3/3 30/30/30
f 3/3/3 32/32/32 5/5/5
f 33/33/33 7/7/7 31/31/31
f 7/7/7 33/33/33 9/9/9
f 34/34/34 9/9/9 33/33/33
f 9/9/9 34/34/34 11/11/11
f 35/35/35 11/11/11 34/34/34
f 11/11/11 35/35/35 13/13/13
f 36/36/36 13/13/13 35/35/35
f 13/13/13 36/36/36 16/16/16
f 36/36/36 17/17/17 16/16/16
f 17/17/17 36/36/36 37/37/37
f 37/37/37 20/20/20 17/17/17
f 20/20/20 37/37/37 38/38/38
f 38/38/38 22/22/22 20/20/20
f 22/22/22 38/38/38 39/39/39
f 39/39/39 24/24/24 22/22/22
f 24/24/24 39/39/39 40/40/40
f 40/40/40 26/26/26 24/24/24
f 26/26/26 40/40/40 41/41/41
f 41/41/41 27/27/27 26/26/26
f 27/27/27 41/41/41 42/42/42
f 27/27/27 43/43/43 25/25/25
f 43/43/43 27/27/27 42/42/42
f 25/25/25 44/44/44 23/23/23
f 44/44/44 25/25/25 43/43/43
f 23/23/23 45/45/45 21/21/21
f 45/45/45 23/23/23 44/44/44
f 21/21/21 46/46/46 19/19/19
f 46/46/46 21/21/21 45/45/45
f 19/19/19 47/47/47 18/18/18
f 47/47/47 19/19/19 46/46/46
f 15/15/15 47/47/47 48/48/48
f 47/47/47 15/15/15 18/18/18
f 14/14/14 48/48/48 49/49/49
f 48/48/48 14/14/14 15/15/15
f 12/12/12 49/49/49 50/50/50
f 49/49/49 12/12/12 14/14/14
f 10/10/10 50/50/50 51/51/51
f 50/50/50 10/10/10 12/12/12
f 8/8/8 51/51/51 28/28/28
f 51/51/51 8/8/8 10/10/10
f 2/2/2 52/52/52 29/29/29
f 52/52/52 2/2/2 28/28/28
f 53/53/53 5/5/5 32/32/32
f 5/5/5 53/53/53 31/31/31
f 54/54/54 31/31/31 53/53/53
f 31/31/31 54/54/54 33/33/33
f 55/55/55 33/33/33 54/54/54
f 33/33/33 55/55/55 34/34/34
f 56/56/56 34/34/34 55/55/55
f 34/34/34 56/56/56 35/35/35
f 57/57/57 35/35/35 56/56/56
f 35/35/35 57/57/57 36/36/36
f 57/57/57 37/37/37 36/36/36
f 37/37/37 57/57/57 58/58/58
f 58/58/58 38/38/38 37/37/37
f 38/38/38 58/58/58 59/59/59
f 59/59/59 39/39/39 38/38/38
f 39/39/39 59/59/59 60/60/60
f 60/60/60 40/40/40 39/39/39
f 40/40/40 60/60/60 61/61/61
f 61/61/61 41/41/41 40/40/40
f 41/41/41 61/61/61 62/62/62
f 62/62/62 42/42/42 41/41/41
f 42/42/42 62/62/62 63/63/63
f 42/42/42 64/64/64 43/43/43
f 64/64/64 42/42/42 63/63/63
f 43/43/43 65/65/65 44/44/44
f 65/65/65 43/43/43 64/64/64
f 44/44/44 66/66/66 45/45/45
f 66/66/66 44/44/44 65/65/65
f 45/45/45 67/67/67 46/46/46
f 67/67/67 45/45/45 66/66/66
f 46/46/46 68/68/68 47/47/47
f 68/68/68 46/46/46 67/67/67
f 48/48/48 68/68/68 69/69/69
f 68/68/68 48/48/48 47/47/47
f 49/49/49 69/69/69 70/70/70
f 69/69/69 49/49/49 48/48/48
f 50/50/50 70/70/70 71/71/71
f 70/70/70 50/50/50 49/49/49
f 51/51/51 71/71/71 72/72/72
f 71/71/71 51/51/51 50/50/50
f 28/28/28 72/72/72 52/52/52
f 72/72/72 28/28/28 51/51/51
