# SSTK version 0.8.0
# 2
mtllib original-2.mtl
o #ID13
v -0.625584 0.797975 -0.067848
v 0.555795 -0.791657 -0.067848
v -0.625584 -0.791657 -0.067848
v 0.635653 -0.791657 -0.067848
v 0.635653 0.797975 -0.067848
v 0.555795 -0.791657 -0.067848
v -0.625584 -0.791657 0.051939
v -0.625584 -0.791657 -0.067848
v 0.635653 -0.791657 0.051939
v 0.635653 -0.791657 -0.067848
v -0.625584 0.797975 -0.067848
v -0.625584 -0.791657 0.051939
v -0.625584 0.797975 0.051939
v -0.625584 -0.791657 -0.067848
v 0.635653 0.797975 0.051939
v -0.625584 0.797975 -0.067848
v -0.625584 0.797975 0.051939
v 0.635653 0.797975 -0.067848
v 0.635653 -0.791657 -0.067848
v 0.635653 0.797975 0.051939
v 0.635653 -0.791657 0.051939
v 0.635653 0.797975 -0.067848
v 0.635653 -0.791657 0.051939
v 0.512944 -0.295001 0.051939
v -0.625584 -0.791657 0.051939
v 0.635653 0.797975 0.051939
v 0.512944 0.343864 0.051939
v -0.485283 0.343864 0.051939
v -0.485283 -0.295001 0.051939
v -0.625584 0.797975 0.051939
vn 0 0 -1
vn 0 -1 0
vn -1 0 0
vn 0 1 0
vn 1 0 0
vn 0 0 1
usemtl material_0_0
f 1//1 2//1 3//1
f 2//1 1//1 4//1
f 4//1 1//1 5//1
f 6//2 7//2 8//2
f 7//2 6//2 9//2
f 9//2 6//2 10//2
f 11//3 12//3 13//3
f 12//3 11//3 14//3
f 15//4 16//4 17//4
f 16//4 15//4 18//4
f 19//5 20//5 21//5
f 20//5 19//5 22//5
f 23//6 24//6 25//6
f 24//6 23//6 26//6
f 24//6 26//6 27//6
f 27//6 26//6 28//6
f 25//6 29//6 30//6
f 29//6 25//6 24//6
f 30//6 29//6 28//6
f 30//6 28//6 26//6
