# SSTK version 0.8.0
# 10
mtllib original-10.mtl
o #ID58
v 0.726392 -0.611647 -0.036592
v 0.726392 -0.619500 -0.036568
v 0.726392 -0.615553 -0.037887
v 0.726392 -0.609410 -0.032700
v 0.726392 -0.621740 -0.032646
v 0.726392 -0.609407 -0.024565
v 0.726392 -0.621740 -0.024565
v 0.726392 -0.611633 -0.020683
v 0.726392 -0.619500 -0.020683
v 0.726392 -0.615553 -0.019399
vn 1 0 0
usemtl material_0_0
f 1//1 2//1 3//1
f 2//1 1//1 4//1
f 2//1 4//1 5//1
f 5//1 4//1 6//1
f 5//1 6//1 7//1
f 7//1 6//1 8//1
f 7//1 8//1 9//1
f 9//1 8//1 10//1
