# SSTK version 0.8.0
# 2
mtllib original-2.mtl
o #ID6
v -0.592345 0.412644 0.050271
v -0.585772 0.413510 -0.038742
v -0.592345 0.412644 -0.038742
v -0.585772 0.413510 0.050152
v -0.585772 0.413510 0.050152
v -0.592345 0.412644 0.050271
v -0.585772 0.413510 -0.038742
v -0.592345 0.412644 -0.038742
v -0.595491 0.411576 -0.038742
v -0.595491 0.411576 0.050418
v -0.595491 0.411576 -0.038742
v -0.595491 0.411576 0.050418
v 0.599408 0.413510 0.050152
v 0.599408 0.413510 -0.038742
v 0.599408 0.413510 -0.038742
v 0.599408 0.413510 0.050152
v 0.605981 0.412644 -0.038742
v -0.585772 0.413510 -0.038742
v 0.599408 0.413510 -0.038742
v -0.592345 0.412644 -0.038742
v 0.609127 0.411576 -0.038742
v -0.595491 0.411576 -0.038742
v 0.612107 0.410107 -0.038742
v -0.598470 0.410107 -0.038742
v 0.614869 0.408262 -0.038742
v -0.601232 0.408262 -0.038742
v 0.617366 0.406071 -0.038742
v -0.603730 0.406071 -0.038742
v 0.619557 0.403574 -0.038742
v -0.605920 0.403574 -0.038742
v 0.621402 0.400811 -0.038742
v -0.607766 0.400811 -0.038742
v 0.622872 0.397832 -0.038742
v -0.609235 0.397832 -0.038742
v 0.623939 0.394686 -0.038742
v -0.610303 0.394686 -0.038742
v 0.624805 0.388113 -0.038742
v -0.611168 0.388113 -0.038742
v 0.624805 -0.407650 -0.038742
v -0.611168 -0.407650 -0.038742
v 0.623939 -0.414224 -0.038742
v -0.610303 -0.414224 -0.038742
v 0.622872 -0.417370 -0.038742
v -0.609235 -0.417370 -0.038742
v 0.621402 -0.420349 -0.038742
v -0.607766 -0.420349 -0.038742
v 0.619557 -0.423111 -0.038742
v -0.605920 -0.423111 -0.038742
v 0.617366 -0.425609 -0.038742
v -0.603730 -0.425609 -0.038742
v 0.614869 -0.427799 -0.038742
v -0.601232 -0.427799 -0.038742
v 0.612107 -0.429645 -0.038742
v -0.598470 -0.429645 -0.038742
v 0.609127 -0.431114 -0.038742
v -0.595491 -0.431114 -0.038742
v 0.605981 -0.432182 -0.038742
v -0.592345 -0.432182 -0.038742
v 0.599408 -0.433047 -0.038742
v -0.585772 -0.433047 -0.038742
v -0.585772 -0.433047 -0.038742
v 0.599408 -0.433047 -0.038742
v -0.592345 -0.432182 -0.038742
v 0.605981 -0.432182 -0.038742
v -0.595491 -0.431114 -0.038742
v 0.609127 -0.431114 -0.038742
v -0.598470 -0.429645 -0.038742
v 0.612107 -0.429645 -0.038742
v -0.601232 -0.427799 -0.038742
v 0.614869 -0.427799 -0.038742
v -0.603730 -0.425609 -0.038742
v 0.617366 -0.425609 -0.038742
v -0.605920 -0.423111 -0.038742
v 0.619557 -0.423111 -0.038742
v -0.607766 -0.420349 -0.038742
v 0.621402 -0.420349 -0.038742
v -0.609235 -0.417370 -0.038742
v 0.622872 -0.417370 -0.038742
v -0.610303 -0.414224 -0.038742
v 0.623939 -0.414224 -0.038742
v -0.611168 -0.407650 -0.038742
v 0.624805 -0.407650 -0.038742
v -0.611168 0.388113 -0.038742
v 0.624805 0.388113 -0.038742
v -0.610303 0.394686 -0.038742
v 0.623939 0.394686 -0.038742
v -0.609235 0.397832 -0.038742
v 0.622872 0.397832 -0.038742
v -0.607766 0.400811 -0.038742
v 0.621402 0.400811 -0.038742
v -0.605920 0.403574 -0.038742
v 0.619557 0.403574 -0.038742
v -0.603730 0.406071 -0.038742
v 0.617366 0.406071 -0.038742
v -0.601232 0.408262 -0.038742
v 0.614869 0.408262 -0.038742
v -0.598470 0.410107 -0.038742
v 0.612107 0.410107 -0.038742
v -0.595491 0.411576 -0.038742
v 0.609127 0.411576 -0.038742
v -0.592345 0.412644 -0.038742
v 0.605981 0.412644 -0.038742
v -0.585772 0.413510 -0.038742
v 0.599408 0.413510 -0.038742
v -0.598470 0.410107 -0.038742
v -0.598470 0.410107 0.050620
v -0.598470 0.410107 -0.038742
v -0.598470 0.410107 0.050620
v 0.605981 0.412644 0.050271
v 0.605981 0.412644 -0.038742
v 0.605981 0.412644 -0.038742
v 0.605981 0.412644 0.050271
v 0.617366 0.406071 0.051175
v 0.614869 0.408262 -0.038742
v 0.614869 0.408262 0.050873
v 0.617366 0.406071 -0.038742
v 0.617366 0.406071 -0.038742
v 0.617366 0.406071 0.051175
v 0.614869 0.408262 -0.038742
v 0.614869 0.408262 0.050873
v 0.619557 0.403574 -0.038742
v 0.619557 0.403574 0.051518
v 0.619557 0.403574 0.051518
v 0.619557 0.403574 -0.038742
v 0.621402 0.400811 -0.038742
v 0.621402 0.400811 0.051898
v 0.621402 0.400811 0.051898
v 0.621402 0.400811 -0.038742
v 0.622872 0.397832 -0.038742
v 0.622872 0.397832 0.052307
v 0.622872 0.397832 0.052307
v 0.622872 0.397832 -0.038742
v 0.623939 0.394686 -0.038742
v 0.623939 0.394686 0.052740
v 0.623939 0.394686 0.052740
v 0.623939 0.394686 -0.038742
v 0.624805 0.388113 -0.038742
v 0.624805 0.388113 0.053643
v 0.624805 0.388113 0.053643
v 0.624805 0.388113 -0.038742
v 0.624805 -0.407650 -0.038742
v 0.624805 -0.407650 0.053643
v 0.624805 -0.372037 0.058540
v 0.624805 0.352499 0.058540
v 0.624805 -0.251588 0.070332
v 0.624805 0.232050 0.070332
v 0.624805 0.111233 0.077414
v 0.624805 -0.130770 0.077414
v 0.624805 -0.009769 0.079776
v 0.624805 -0.009769 0.079776
v 0.624805 0.111233 0.077414
v 0.624805 -0.130770 0.077414
v 0.624805 -0.251588 0.070332
v 0.624805 0.232050 0.070332
v 0.624805 0.352499 0.058540
v 0.624805 -0.372037 0.058540
v 0.624805 -0.407650 0.053643
v 0.624805 -0.407650 -0.038742
v 0.623939 -0.414224 -0.038742
v 0.623939 -0.414224 0.052740
v 0.623939 -0.414224 0.052740
v 0.623939 -0.414224 -0.038742
v 0.622872 -0.417370 -0.038742
v 0.622872 -0.417370 0.052307
v 0.622872 -0.417370 0.052307
v 0.622872 -0.417370 -0.038742
v 0.621402 -0.420349 -0.038742
v 0.621402 -0.420349 0.051898
v 0.621402 -0.420349 0.051898
v 0.621402 -0.420349 -0.038742
v 0.619557 -0.423111 -0.038742
v 0.619557 -0.423111 0.051518
v 0.619557 -0.423111 0.051518
v 0.619557 -0.423111 -0.038742
v 0.617366 -0.425609 -0.038742
v 0.617366 -0.425609 0.051175
v 0.617366 -0.425609 0.051175
v 0.617366 -0.425609 -0.038742
v 0.614869 -0.427799 0.050873
v 0.614869 -0.427799 -0.038742
v 0.614869 -0.427799 0.050873
v 0.614869 -0.427799 -0.038742
v 0.612107 -0.429645 0.050620
v 0.612107 -0.429645 -0.038742
v 0.612107 -0.429645 0.050620
v 0.612107 -0.429645 -0.038742
v 0.609127 -0.431114 0.050418
v 0.609127 -0.431114 -0.038742
v 0.609127 -0.431114 0.050418
v 0.609127 -0.431114 -0.038742
v 0.605981 -0.432182 0.050271
v 0.605981 -0.432182 -0.038742
v 0.605981 -0.432182 0.050271
v 0.605981 -0.432182 -0.038742
v 0.599408 -0.433047 0.050152
v 0.599408 -0.433047 -0.038742
v 0.599408 -0.433047 0.050152
v 0.599408 -0.433047 -0.038742
v -0.585772 -0.433047 0.050152
v -0.585772 -0.433047 -0.038742
v -0.585772 -0.433047 0.050152
v -0.585772 -0.433047 -0.038742
v -0.592345 -0.432182 0.050271
v -0.592345 -0.432182 -0.038742
v -0.592345 -0.432182 0.050271
v -0.592345 -0.432182 -0.038742
v -0.595491 -0.431114 0.050418
v -0.595491 -0.431114 -0.038742
v -0.595491 -0.431114 0.050418
v -0.595491 -0.431114 -0.038742
v -0.598470 -0.429645 -0.038742
v -0.598470 -0.429645 0.050620
v -0.598470 -0.429645 -0.038742
v -0.598470 -0.429645 0.050620
v -0.601232 -0.427799 -0.038742
v -0.601232 -0.427799 0.050873
v -0.601232 -0.427799 -0.038742
v -0.601232 -0.427799 0.050873
v -0.603730 -0.425609 -0.038742
v -0.603730 -0.425609 0.051175
v -0.603730 -0.425609 -0.038742
v -0.603730 -0.425609 0.051175
v -0.605920 -0.423111 -0.038742
v -0.605920 -0.423111 0.051518
v -0.605920 -0.423111 0.051518
v -0.605920 -0.423111 -0.038742
v -0.607766 -0.420349 -0.038742
v -0.607766 -0.420349 0.051898
v -0.607766 -0.420349 0.051898
v -0.607766 -0.420349 -0.038742
v -0.609235 -0.417370 -0.038742
v -0.609235 -0.417370 0.052307
v -0.609235 -0.417370 0.052307
v -0.609235 -0.417370 -0.038742
v -0.610303 -0.414224 -0.038742
v -0.610303 -0.414224 0.052740
v -0.610303 -0.414224 0.052740
v -0.610303 -0.414224 -0.038742
v -0.611168 -0.407650 -0.038742
v -0.611168 -0.407650 0.053643
v -0.611168 -0.407650 0.053643
v -0.611168 -0.407650 -0.038742
v -0.611168 0.388113 -0.038742
v -0.611168 0.388113 0.053643
v -0.611168 -0.372037 0.058540
v -0.611168 0.352499 0.058540
v -0.611168 -0.251588 0.070332
v -0.611168 0.232050 0.070332
v -0.611168 -0.130770 0.077414
v -0.611168 0.111233 0.077414
v -0.611168 -0.009769 0.079776
v -0.611168 -0.009769 0.079776
v -0.611168 -0.130770 0.077414
v -0.611168 0.111233 0.077414
v -0.611168 0.232050 0.070332
v -0.611168 -0.251588 0.070332
v -0.611168 0.352499 0.058540
v -0.611168 -0.372037 0.058540
v -0.611168 0.388113 0.053643
v -0.611168 0.388113 -0.038742
v -0.610303 0.394686 -0.038742
v -0.610303 0.394686 0.052740
v -0.610303 0.394686 0.052740
v -0.610303 0.394686 -0.038742
v -0.609235 0.397832 -0.038742
v -0.609235 0.397832 0.052307
v -0.609235 0.397832 0.052307
v -0.609235 0.397832 -0.038742
v -0.607766 0.400811 -0.038742
v -0.607766 0.400811 0.051898
v -0.607766 0.400811 0.051898
v -0.607766 0.400811 -0.038742
v -0.605920 0.403574 -0.038742
v -0.605920 0.403574 0.051518
v -0.605920 0.403574 0.051518
v -0.605920 0.403574 -0.038742
v -0.603730 0.406071 -0.038742
v -0.603730 0.406071 0.051175
v -0.603730 0.406071 0.051175
v -0.603730 0.406071 -0.038742
v -0.601232 0.408262 -0.038742
v -0.601232 0.408262 0.050873
v -0.601232 0.408262 0.050873
v -0.601232 0.408262 -0.038742
v 0.609127 0.411576 0.050418
v 0.609127 0.411576 -0.038742
v 0.609127 0.411576 -0.038742
v 0.609127 0.411576 0.050418
v 0.612107 0.410107 0.050620
v 0.612107 0.410107 -0.038742
v 0.612107 0.410107 -0.038742
v 0.612107 0.410107 0.050620
vn -0.2289563951910171 0.9734366795540093 0
vn -0.06540313151333016 0.9978589230889555 0
vn -0.22707629351121666 0.9738769721711299 0
vn -0.0657745506308453 0.9978345095702545 0
vn -0.38268341623423263 0.9238795391929066 0
vn -0.3846938163663987 0.923044239269958 0
vn 0.0657745506308453 0.9978345095702545 0
vn 0.06540313151333016 0.9978589230889555 0
vn 0 0 -1
vn -0.5000000016387101 0.866025402838329 0
vn -0.5024604849512359 0.8646001741050998 0
vn 0.2289563951910171 0.9734366795540093 0
vn 0.22707629351121666 0.9738769721711299 0
vn 0.7099428209758537 0.70425932080793 0
vn 0.608761430209528 0.7933533393698233 0
vn 0.6115035127403272 0.7912417164850704 0
vn 0.7071067811865476 0.7071067811865476 0
vn 0.7933533393698233 0.608761430209528 0
vn 0.7960895509578171 0.6051788387375924 0
vn 0.866025402838329 0.5000000016387101 0
vn 0.8684750533357858 0.49573287336367355 0
vn 0.9238795391929066 0.38268341623423263 0
vn 0.9258755640513449 0.3778285853301782 0
vn 0.9738769721711299 0.22707629351121666 0
vn 0.9757258916321895 0.21899539812189875 0
vn 0.9978589230889555 0.06540313151333016 0
vn 0.9982139975918118 0.0597395598558785 0
vn 0.9978589230889555 -0.06540313151333016 0
vn 0.9982139975918118 -0.0597395598558785 0
vn 1 0 0
vn 0.9738769721711299 -0.22707629351121666 0
vn 0.9757258916321895 -0.21899539812189875 0
vn 0.9238795391929066 -0.38268341623423263 0
vn 0.9258755640513449 -0.3778285853301782 0
vn 0.866025402838329 -0.5000000016387101 0
vn 0.8684750533357858 -0.49573287336367355 0
vn 0.7933533393698233 -0.608761430209528 0
vn 0.7960895509578171 -0.6051788387375924 0
vn 0.7071067811865476 -0.7071067811865476 0
vn 0.7099428209758537 -0.70425932080793 0
vn 0.6115035127403272 -0.7912417164850704 0
vn 0.608761430209528 -0.7933533393698233 0
vn 0.5024604849512359 -0.8646001741050998 0
vn 0.5000000016387101 -0.866025402838329 0
vn 0.3846938163663987 -0.923044239269958 0
vn 0.38268341623423263 -0.9238795391929066 0
vn 0.2289563951910171 -0.9734366795540093 0
vn 0.22707629351121666 -0.9738769721711299 0
vn 0.0657745506308453 -0.9978345095702545 0
vn 0.06540313151333016 -0.9978589230889555 0
vn -0.0657745506308453 -0.9978345095702545 0
vn -0.06540313151333016 -0.9978589230889555 0
vn -0.2289563951910171 -0.9734366795540093 0
vn -0.22707629351121666 -0.9738769721711299 0
vn -0.3846938163663987 -0.923044239269958 0
vn -0.38268341623423263 -0.9238795391929066 0
vn -0.5000000016387101 -0.866025402838329 0
vn -0.5024604849512359 -0.8646001741050998 0
vn -0.608761430209528 -0.7933533393698233 0
vn -0.6115035127403272 -0.7912417164850704 0
vn -0.7071067811865476 -0.7071067811865476 0
vn -0.7099428209758537 -0.70425932080793 0
vn -0.7933533393698233 -0.608761430209528 0
vn -0.7960895509578171 -0.6051788387375924 0
vn -0.866025402838329 -0.5000000016387101 0
vn -0.8684750533357858 -0.49573287336367355 0
vn -0.9238795391929066 -0.38268341623423263 0
vn -0.9258755640513449 -0.3778285853301782 0
vn -0.9738769721711299 -0.22707629351121666 0
vn -0.9757258916321895 -0.21899539812189875 0
vn -0.9978589230889555 -0.06540313151333016 0
vn -0.9982139975918118 -0.0597395598558785 0
vn -0.9978589230889555 0.06540313151333016 0
vn -0.9982139975918118 0.0597395598558785 0
vn -1 0 0
vn -0.9738769721711299 0.22707629351121666 0
vn -0.9757258916321895 0.21899539812189875 0
vn -0.9238795391929066 0.38268341623423263 0
vn -0.9258755640513449 0.3778285853301782 0
vn -0.866025402838329 0.5000000016387101 0
vn -0.8684750533357858 0.49573287336367355 0
vn -0.7933533393698233 0.608761430209528 0
vn -0.7960895509578171 0.6051788387375924 0
vn -0.7071067811865476 0.7071067811865476 0
vn -0.7099428209758537 0.70425932080793 0
vn -0.608761430209528 0.7933533393698233 0
vn -0.6115035127403272 0.7912417164850704 0
vn 0.3846938163663987 0.923044239269958 0
vn 0.38268341623423263 0.9238795391929066 0
vn 0.5024604849512359 0.8646001741050998 0
vn 0.5000000016387101 0.866025402838329 0
vn 0 0 1
usemtl material_0_0
f 1//1 2//2 3//3
f 2//2 1//1 4//4
f 1//1 9//5 10//6
f 9//5 1//1 3//3
f 13//7 2//2 4//4
f 2//2 13//7 14//8
f 17//9 18//9 19//9
f 18//9 17//9 20//9
f 20//9 17//9 21//9
f 20//9 21//9 22//9
f 22//9 21//9 23//9
f 22//9 23//9 24//9
f 24//9 23//9 25//9
f 24//9 25//9 26//9
f 26//9 25//9 27//9
f 26//9 27//9 28//9
f 28//9 27//9 29//9
f 28//9 29//9 30//9
f 30//9 29//9 31//9
f 30//9 31//9 32//9
f 32//9 31//9 33//9
f 32//9 33//9 34//9
f 34//9 33//9 35//9
f 34//9 35//9 36//9
f 36//9 35//9 37//9
f 36//9 37//9 38//9
f 38//9 37//9 39//9
f 38//9 39//9 40//9
f 40//9 39//9 41//9
f 40//9 41//9 42//9
f 42//9 41//9 43//9
f 42//9 43//9 44//9
f 44//9 43//9 45//9
f 44//9 45//9 46//9
f 46//9 45//9 47//9
f 46//9 47//9 48//9
f 48//9 47//9 49//9
f 48//9 49//9 50//9
f 50//9 49//9 51//9
f 50//9 51//9 52//9
f 52//9 51//9 53//9
f 52//9 53//9 54//9
f 54//9 53//9 55//9
f 54//9 55//9 56//9
f 56//9 55//9 57//9
f 56//9 57//9 58//9
f 58//9 57//9 59//9
f 58//9 59//9 60//9
f 10//6 105//10 106//11
f 105//10 10//6 9//5
f 109//12 14//8 13//7
f 14//8 109//12 110//13
f 113//14 114//15 115//16
f 114//15 113//14 116//17
f 113//14 121//18 116//17
f 121//18 113//14 122//19
f 122//19 125//20 121//18
f 125//20 122//19 126//21
f 126//21 129//22 125//20
f 129//22 126//21 130//23
f 130//23 133//24 129//22
f 133//24 130//23 134//25
f 134//25 137//26 133//24
f 137//26 134//25 138//27
f 138//27 141//28 137//26
f 141//28 138//27 142//29
f 142//29 138//27 143//30
f 143//30 138//27 144//30
f 143//30 144//30 145//30
f 145//30 144//30 146//30
f 145//30 146//30 147//30
f 145//30 147//30 148//30
f 148//30 147//30 149//30
f 142//29 159//31 141//28
f 159//31 142//29 160//32
f 160//32 163//33 159//31
f 163//33 160//32 164//34
f 164//34 167//35 163//33
f 167//35 164//34 168//36
f 168//36 171//37 167//35
f 171//37 168//36 172//38
f 172//38 175//39 171//37
f 175//39 172//38 176//40
f 175//39 179//41 180//42
f 179//41 175//39 176//40
f 180//42 183//43 184//44
f 183//43 180//42 179//41
f 184//44 187//45 188//46
f 187//45 184//44 183//43
f 188//46 191//47 192//48
f 191//47 188//46 187//45
f 192//48 195//49 196//50
f 195//49 192//48 191//47
f 196//50 199//51 200//52
f 199//51 196//50 195//49
f 200//52 203//53 204//54
f 203//53 200//52 199//51
f 204//54 207//55 208//56
f 207//55 204//54 203//53
f 211//57 207//55 212//58
f 207//55 211//57 208//56
f 215//59 212//58 216//60
f 212//58 215//59 211//57
f 219//61 216//60 220//62
f 216//60 219//61 215//59
f 220//62 223//63 219//61
f 223//63 220//62 224//64
f 224//64 227//65 223//63
f 227//65 224//64 228//66
f 228//66 231//67 227//65
f 231//67 228//66 232//68
f 232//68 235//69 231//67
f 235//69 232//68 236//70
f 236//70 239//71 235//69
f 239//71 236//70 240//72
f 240//72 243//73 239//71
f 243//73 240//72 244//74
f 244//74 240//72 245//75
f 244//74 245//75 246//75
f 246//75 245//75 247//75
f 246//75 247//75 248//75
f 248//75 247//75 249//75
f 248//75 249//75 250//75
f 250//75 249//75 251//75
f 244//74 261//76 243//73
f 261//76 244//74 262//77
f 262//77 265//78 261//76
f 265//78 262//77 266//79
f 266//79 269//80 265//78
f 269//80 266//79 270//81
f 270//81 273//82 269//80
f 273//82 270//81 274//83
f 274//83 277//84 273//82
f 277//84 274//83 278//85
f 278//85 281//86 277//84
f 281//86 278//85 282//87
f 106//11 281//86 282//87
f 281//86 106//11 105//10
f 285//88 110//13 109//12
f 110//13 285//88 286//89
f 289//90 286//89 285//88
f 286//89 289//90 290//91
f 115//16 290//91 289//90
f 290//91 115//16 114//15
usemtl material_1_0
f 5//49 6//47 7//50
f 8//48 7//50 6//47
f 8//48 6//47 11//46
f 12//45 11//46 6//47
f 15//52 16//51 7//50
f 5//49 7//50 16//51
f 61//92 62//92 63//92
f 62//92 64//92 63//92
f 63//92 64//92 65//92
f 64//92 66//92 65//92
f 65//92 66//92 67//92
f 66//92 68//92 67//92
f 67//92 68//92 69//92
f 68//92 70//92 69//92
f 69//92 70//92 71//92
f 70//92 72//92 71//92
f 71//92 72//92 73//92
f 72//92 74//92 73//92
f 73//92 74//92 75//92
f 74//92 76//92 75//92
f 75//92 76//92 77//92
f 76//92 78//92 77//92
f 77//92 78//92 79//92
f 78//92 80//92 79//92
f 79//92 80//92 81//92
f 80//92 82//92 81//92
f 81//92 82//92 83//92
f 82//92 84//92 83//92
f 83//92 84//92 85//92
f 84//92 86//92 85//92
f 85//92 86//92 87//92
f 86//92 88//92 87//92
f 87//92 88//92 89//92
f 88//92 90//92 89//92
f 89//92 90//92 91//92
f 90//92 92//92 91//92
f 91//92 92//92 93//92
f 92//92 94//92 93//92
f 93//92 94//92 95//92
f 94//92 96//92 95//92
f 95//92 96//92 97//92
f 96//92 98//92 97//92
f 97//92 98//92 99//92
f 98//92 100//92 99//92
f 99//92 100//92 101//92
f 100//92 102//92 101//92
f 101//92 102//92 103//92
f 104//92 103//92 102//92
f 11//46 12//45 107//44
f 108//43 107//44 12//45
f 111//54 112//53 15//52
f 16//51 15//52 112//53
f 117//61 118//62 119//59
f 120//60 119//59 118//62
f 123//64 118//62 124//63
f 117//61 124//63 118//62
f 127//66 123//64 128//65
f 124//63 128//65 123//64
f 131//68 127//66 132//67
f 128//65 132//67 127//66
f 135//70 131//68 136//69
f 132//67 136//69 131//68
f 139//72 135//70 140//71
f 136//69 140//71 135//70
f 150//75 151//75 152//75
f 152//75 151//75 153//75
f 151//75 154//75 153//75
f 154//75 155//75 153//75
f 153//75 155//75 156//75
f 155//75 139//72 156//75
f 156//75 139//72 157//74
f 157//74 139//72 158//73
f 140//71 158//73 139//72
f 161//77 157//74 162//76
f 158//73 162//76 157//74
f 165//79 161//77 166//78
f 162//76 166//78 161//77
f 169//81 165//79 170//80
f 166//78 170//80 165//79
f 173//83 169//81 174//82
f 170//80 174//82 169//81
f 177//85 173//83 178//84
f 174//82 178//84 173//83
f 177//85 178//84 181//87
f 182//86 181//87 178//84
f 181//87 182//86 185//11
f 186//10 185//11 182//86
f 185//11 186//10 189//6
f 190//5 189//6 186//10
f 189//6 190//5 193//1
f 194//3 193//1 190//5
f 193//1 194//3 197//4
f 198//2 197//4 194//3
f 197//4 198//2 201//7
f 202//8 201//7 198//2
f 201//7 202//8 205//12
f 206//13 205//12 202//8
f 205//12 206//13 209//88
f 210//89 209//88 206//13
f 210//89 213//91 209//88
f 214//90 209//88 213//91
f 213//91 217//15 214//90
f 218//16 214//90 217//15
f 217//15 221//17 218//16
f 222//14 218//16 221//17
f 225//19 222//14 226//18
f 221//17 226//18 222//14
f 229//21 225//19 230//20
f 226//18 230//20 225//19
f 233//23 229//21 234//22
f 230//20 234//22 229//21
f 237//25 233//23 238//24
f 234//22 238//24 233//23
f 241//27 237//25 242//26
f 238//24 242//26 237//25
f 252//30 253//30 254//30
f 254//30 253//30 255//30
f 253//30 256//30 255//30
f 255//30 256//30 257//30
f 256//30 258//30 257//30
f 257//30 258//30 259//29
f 258//30 241//27 259//29
f 259//29 241//27 260//28
f 242//26 260//28 241//27
f 263//32 259//29 264//31
f 260//28 264//31 259//29
f 267//34 263//32 268//33
f 264//31 268//33 263//32
f 271//36 267//34 272//35
f 268//33 272//35 267//34
f 275//38 271//36 276//37
f 272//35 276//37 271//36
f 279//40 275//38 280//39
f 276//37 280//39 275//38
f 283//41 279//40 284//42
f 280//39 284//42 279//40
f 107//44 108//43 284//42
f 283//41 284//42 108//43
f 287//56 288//55 111//54
f 112//53 111//54 288//55
f 291//57 292//58 287//56
f 288//55 287//56 292//58
f 119//59 120//60 291//57
f 292//58 291//57 120//60
