# SSTK version 0.8.0
# 19
mtllib original-19.mtl
o #ID112
v 0.726392 -0.478966 -0.037312
v 0.726392 -0.486645 -0.035541
v 0.726392 -0.483246 -0.037741
v 0.726392 -0.476141 -0.034288
v 0.726392 -0.488364 -0.028654
v 0.726392 -0.475174 -0.028654
v 0.726392 -0.476882 -0.021681
v 0.726392 -0.487397 -0.022972
v 0.726392 -0.484561 -0.019970
v 0.726392 -0.480259 -0.019542
vn 1 0 0
usemtl material_0_0
f 1//1 2//1 3//1
f 2//1 1//1 4//1
f 2//1 4//1 5//1
f 5//1 4//1 6//1
f 5//1 6//1 7//1
f 5//1 7//1 8//1
f 8//1 7//1 9//1
f 9//1 7//1 10//1
