# SSTK version 0.8.0
# 16
mtllib original-16.mtl
o #ID94
v 0.726392 -0.697528 -0.039358
v 0.726392 -0.709226 -0.040493
v 0.726392 -0.702544 -0.041098
v 0.726392 -0.712794 -0.038169
v 0.726392 -0.704728 -0.037736
v 0.726392 -0.699252 -0.035974
v 0.726392 -0.697765 -0.034795
v 0.726392 -0.697528 -0.017864
v 0.726392 -0.702523 -0.019853
v 0.726392 -0.697528 -0.022427
v 0.726392 -0.711191 -0.017894
v 0.726392 -0.707028 -0.016218
v 0.726392 -0.700825 -0.016567
v 0.726392 -0.708850 -0.036392
v 0.726392 -0.715108 -0.034244
v 0.726392 -0.711250 -0.032484
v 0.726392 -0.715716 -0.025713
v 0.726392 -0.711234 -0.024803
v 0.726392 -0.714078 -0.021054
v 0.726392 -0.710636 -0.023237
v 0.726392 -0.707574 -0.020126
vn 1 0 0
usemtl material_0_0
f 1//1 2//1 3//1
f 2//1 1//1 4//1
f 4//1 1//1 5//1
f 5//1 1//1 6//1
f 6//1 1//1 7//1
f 8//1 9//1 10//1
f 9//1 8//1 11//1
f 11//1 8//1 12//1
f 12//1 8//1 13//1
f 4//1 14//1 15//1
f 14//1 4//1 5//1
f 15//1 14//1 16//1
f 15//1 16//1 17//1
f 17//1 16//1 18//1
f 17//1 18//1 19//1
f 19//1 18//1 20//1
f 19//1 20//1 21//1
f 19//1 21//1 11//1
f 11//1 21//1 9//1
