# SSTK version 0.8.0
# 7
mtllib original-7.mtl
o #ID40
v 0.726392 -0.500452 -0.019940
v 0.726392 -0.504517 -0.040720
v 0.726392 -0.500452 -0.040720
v 0.726392 -0.504517 -0.019940
v 0.726392 -0.507263 -0.019940
v 0.726392 -0.493857 -0.016567
v 0.726392 -0.493857 -0.019940
v 0.726392 -0.500581 -0.016567
v 0.726392 -0.492235 -0.007247
v 0.726392 -0.495824 -0.010404
v 0.726392 -0.492235 -0.010966
v 0.726392 -0.503337 -0.010395
v 0.726392 -0.499868 -0.007425
v 0.726392 -0.507263 -0.016567
v 0.726392 -0.504517 -0.016567
v 0.726392 -0.499490 -0.011561
vn 1 0 0
usemtl material_0_0
f 1//1 2//1 3//1
f 2//1 1//1 4//1
f 4//1 1//1 5//1
f 6//1 1//1 7//1
f 1//1 6//1 5//1
f 5//1 6//1 8//1
f 9//1 10//1 11//1
f 10//1 9//1 12//1
f 12//1 9//1 13//1
f 8//1 14//1 5//1
f 14//1 8//1 15//1
f 15//1 8//1 16//1
f 15//1 16//1 12//1
f 12//1 16//1 10//1
