# SSTK version 0.8.0
# 9
mtllib original-9.mtl
o #ID52
v 0.726392 -0.555440 -0.040504
v 0.726392 -0.564106 -0.040132
v 0.726392 -0.557764 -0.041012
v 0.726392 -0.555678 -0.036849
v 0.726392 -0.561170 -0.037250
v 0.726392 -0.555440 -0.016567
v 0.726392 -0.562922 -0.019940
v 0.726392 -0.555440 -0.019940
v 0.726392 -0.569733 -0.019940
v 0.726392 -0.562922 -0.016567
v 0.726392 -0.569733 -0.016567
v 0.726392 -0.566987 -0.016567
v 0.726392 -0.562922 -0.009626
v 0.726392 -0.566987 -0.009626
v 0.726392 -0.566522 -0.036863
v 0.726392 -0.562857 -0.034255
v 0.726392 -0.566987 -0.019940
vn 1 0 0
usemtl material_0_0
f 1//1 2//1 3//1
f 2//1 1//1 4//1
f 2//1 4//1 5//1
f 6//1 7//1 8//1
f 7//1 6//1 9//1
f 9//1 6//1 10//1
f 9//1 10//1 11//1
f 11//1 10//1 12//1
f 12//1 10//1 13//1
f 12//1 13//1 14//1
f 5//1 15//1 2//1
f 15//1 5//1 16//1
f 15//1 16//1 17//1
f 17//1 16//1 7//1
f 17//1 7//1 9//1
