# SSTK version 0.8.0
# 17
mtllib original-17.mtl
o #ID100
v 0.726392 -0.656126 -0.036592
v 0.726392 -0.663980 -0.036568
v 0.726392 -0.660033 -0.037887
v 0.726392 -0.653889 -0.032700
v 0.726392 -0.666219 -0.032646
v 0.726392 -0.653886 -0.024565
v 0.726392 -0.666219 -0.024565
v 0.726392 -0.656112 -0.020683
v 0.726392 -0.663980 -0.020683
v 0.726392 -0.660033 -0.019399
vn 1 0 0
usemtl material_0_0
f 1//1 2//1 3//1
f 2//1 1//1 4//1
f 2//1 4//1 5//1
f 5//1 4//1 6//1
f 5//1 6//1 7//1
f 7//1 6//1 8//1
f 7//1 8//1 9//1
f 9//1 8//1 10//1
