# SSTK version 0.8.0
# 22
mtllib original-22.mtl
o #ID135
v 0.594257 0.403817 0.117163
v 0.011051 0.410903 0.015823
v 0.011051 0.403817 0.117163
v 0.590943 0.411120 0.015839
v 0.594257 0.410903 0.015823
v 0.594257 0.410903 0.015823
v 0.011051 0.410903 0.015823
v 0.590943 0.411120 0.015839
v 0.597516 0.410257 0.015778
v 0.011051 -0.416268 -0.042018
v 0.600661 0.409191 0.015704
v 0.603641 0.407726 0.015601
v 0.606403 0.405885 0.015472
v 0.608901 0.403699 0.015320
v 0.611091 0.401208 0.015145
v 0.612937 0.398452 0.014953
v 0.614406 0.395480 0.014745
v 0.615474 0.392342 0.014525
v 0.616122 0.389092 0.014298
v 0.616339 0.385785 0.014067
v 0.616339 -0.391150 -0.040262
v 0.616122 -0.394457 -0.040493
v 0.615474 -0.397707 -0.040720
v 0.614406 -0.400845 -0.040940
v 0.612937 -0.403817 -0.041147
v 0.611091 -0.406573 -0.041340
v 0.608901 -0.409065 -0.041514
v 0.606403 -0.411250 -0.041667
v 0.603641 -0.413091 -0.041796
v 0.600661 -0.414557 -0.041898
v 0.597516 -0.415622 -0.041973
v 0.594257 -0.416268 -0.042018
v 0.590943 -0.416485 -0.042033
v 0.011051 -0.416268 -0.042018
v 0.011051 0.403817 0.117163
v 0.011051 0.410903 0.015823
v 0.011051 -0.423355 0.059321
v 0.011051 0.403817 0.117163
v 0.597516 0.403170 0.117118
v 0.594257 0.403817 0.117163
v 0.011051 -0.423355 0.059321
v 0.600661 0.402105 0.117043
v 0.603641 0.400639 0.116941
v 0.606403 0.398798 0.116812
v 0.608901 0.396613 0.116659
v 0.611091 0.394122 0.116485
v 0.612937 0.391366 0.116292
v 0.614406 0.388394 0.116084
v 0.615474 0.385256 0.115865
v 0.616122 0.382006 0.115638
v 0.616122 -0.401543 0.060846
v 0.615474 -0.404794 0.060619
v 0.614406 -0.407932 0.060400
v 0.612937 -0.410904 0.060192
v 0.611091 -0.413659 0.059999
v 0.608901 -0.416151 0.059825
v 0.606403 -0.418336 0.059672
v 0.603641 -0.420177 0.059543
v 0.600661 -0.421643 0.059441
v 0.597516 -0.422708 0.059366
v 0.594257 -0.423355 0.059321
v 0.597516 0.403170 0.117118
v 0.597516 0.410257 0.015778
v 0.590943 -0.416485 -0.042033
v 0.011051 -0.423355 0.059321
v 0.011051 -0.416268 -0.042018
v 0.594257 -0.423355 0.059321
v 0.594257 -0.416268 -0.042018
v 0.600661 0.402105 0.117043
v 0.600661 0.409191 0.015704
v 0.603641 0.400639 0.116941
v 0.603641 0.407726 0.015601
v 0.606403 0.398798 0.116812
v 0.606403 0.405885 0.015472
v 0.608901 0.396613 0.116659
v 0.608901 0.403699 0.015320
v 0.611091 0.401208 0.015145
v 0.611091 0.394122 0.116485
v 0.612937 0.398452 0.014953
v 0.612937 0.391366 0.116292
v 0.614406 0.388394 0.116084
v 0.614406 0.395480 0.014745
v 0.615474 0.392342 0.014525
v 0.615474 0.385256 0.115865
v 0.616122 0.389092 0.014298
v 0.616122 0.382006 0.115638
v 0.616339 -0.391150 -0.040262
v 0.616339 0.385785 0.014067
v 0.616122 -0.401543 0.060846
v 0.616122 -0.394457 -0.040493
v 0.615474 -0.397707 -0.040720
v 0.615474 -0.404794 0.060619
v 0.614406 -0.407932 0.060400
v 0.614406 -0.400845 -0.040940
v 0.612937 -0.403817 -0.041147
v 0.612937 -0.410904 0.060192
v 0.611091 -0.413659 0.059999
v 0.611091 -0.406573 -0.041340
v 0.608901 -0.416151 0.059825
v 0.608901 -0.409065 -0.041514
v 0.606403 -0.418336 0.059672
v 0.606403 -0.411250 -0.041667
v 0.603641 -0.420177 0.059543
v 0.603641 -0.413091 -0.041796
v 0.600661 -0.421643 0.059441
v 0.600661 -0.414557 -0.041898
v 0.597516 -0.422708 0.059366
v 0.597516 -0.415622 -0.041973
vn 0.09796461172294309 0.9927484475304157 0.06966674081598989
vn -0.00010557320248243421 0.9975297132446251 0.0702457119573475
vn 0.09796361157054397 0.9927485455682149 0.06966675017718034
vn 0 0.0697564665569723 -0.9975640507623987
vn -1 0 0
vn 0 -0.06975646655697229 0.9975640507623987
vn 0.258819021512562 0.9635728863144529 0.0673795730389737
vn -0.00010557320248265571 -0.9975981372074384 -0.06926720359988307
vn 0.09796461172294287 -0.992782825232052 -0.0691751167273176
vn 0.09796361157054376 -0.99278292361858 -0.06917512110145271
vn 0.38268343235651164 0.9216290088719752 0.06444657171254281
vn 0.5000000201478976 0.8639157982582882 0.06041087130514311
vn 0.6087614491214871 0.7914207564313296 0.055341524673331755
vn 0.7071067986371766 0.705384287553893 0.04932526931675383
vn 0.7933533538814798 0.6072784994018374 0.042465045028354485
vn 0.8660254135246129 0.4987820085518178 0.03487823210166168
vn 0.9238795458709723 0.38175120277520885 0.02669464180181842
vn 0.9659258389973502 0.2581885277344998 0.018054298755594944
vn 0.9951848037764033 0.09774438985207755 0.00729661462369435
vn 0.9951846194512459 0.09774625745019526 0.007296736404646248
vn 0.9999995799023913 -0.0000639402795443187 0.0009143886928031759
vn 0.9951846194512461 -0.09781050711614613 -0.006377923279647864
vn 0.9951848037764033 -0.0978086407447302 -0.0063777839560414116
vn 0.9659258389973504 -0.25818852773449985 -0.01805429875559446
vn 0.9238795458709723 -0.38175120277520885 -0.02669464180181767
vn 0.8660254135246129 -0.4987820085518178 -0.03487823210166099
vn 0.7933533538814797 -0.6072784994018375 -0.042465045028353895
vn 0.7071067986371764 -0.705384287553893 -0.049325269316753295
vn 0.608761449121487 -0.7914207564313298 -0.05534152467333132
vn 0.5000000201478975 -0.8639157982582883 -0.06041087130514283
vn 0.3826834323565115 -0.9216290088719753 -0.06444657171254263
vn 0.25881902151256175 -0.9635728863144529 -0.06737957303897357
usemtl material_0_0
f 1//1 2//2 3//2
f 2//2 1//1 4//2
f 4//2 1//1 5//3
f 6//4 7//4 8//4
f 7//4 6//4 9//4
f 7//4 9//4 10//4
f 10//4 9//4 11//4
f 10//4 11//4 12//4
f 10//4 12//4 13//4
f 10//4 13//4 14//4
f 10//4 14//4 15//4
f 10//4 15//4 16//4
f 10//4 16//4 17//4
f 10//4 17//4 18//4
f 10//4 18//4 19//4
f 10//4 19//4 20//4
f 10//4 20//4 21//4
f 10//4 21//4 22//4
f 10//4 22//4 23//4
f 10//4 23//4 24//4
f 10//4 24//4 25//4
f 10//4 25//4 26//4
f 10//4 26//4 27//4
f 10//4 27//4 28//4
f 10//4 28//4 29//4
f 10//4 29//4 30//4
f 10//4 30//4 31//4
f 10//4 31//4 32//4
f 10//4 32//4 33//4
f 34//5 35//5 36//5
f 35//5 34//5 37//5
f 38//6 39//6 40//6
f 39//6 38//6 41//6
f 39//6 41//6 42//6
f 42//6 41//6 43//6
f 43//6 41//6 44//6
f 44//6 41//6 45//6
f 45//6 41//6 46//6
f 46//6 41//6 47//6
f 47//6 41//6 48//6
f 48//6 41//6 49//6
f 49//6 41//6 50//6
f 50//6 41//6 51//6
f 51//6 41//6 52//6
f 52//6 41//6 53//6
f 53//6 41//6 54//6
f 54//6 41//6 55//6
f 55//6 41//6 56//6
f 56//6 41//6 57//6
f 57//6 41//6 58//6
f 58//6 41//6 59//6
f 59//6 41//6 60//6
f 60//6 41//6 61//6
f 62//7 5//3 1//1
f 5//3 62//7 63//7
f 64//8 65//8 66//8
f 65//8 64//8 67//9
f 67//9 64//8 68//10
f 69//11 63//7 62//7
f 63//7 69//11 70//11
f 71//12 70//11 69//11
f 70//11 71//12 72//12
f 73//13 72//12 71//12
f 72//12 73//13 74//13
f 75//14 74//13 73//13
f 74//13 75//14 76//14
f 75//14 77//15 76//14
f 77//15 75//14 78//15
f 78//15 79//16 77//15
f 79//16 78//15 80//16
f 79//16 81//17 82//17
f 81//17 79//16 80//16
f 81//17 83//18 82//17
f 83//18 81//17 84//18
f 84//18 85//19 83//18
f 85//19 84//18 86//20
f 85//19 87//21 88//21
f 87//21 89//22 90//23
f 89//22 87//21 85//19
f 89//22 85//19 86//20
f 89//22 91//24 90//23
f 91//24 89//22 92//24
f 91//24 93//25 94//25
f 93//25 91//24 92//24
f 93//25 95//26 94//25
f 95//26 93//25 96//26
f 95//26 97//27 98//27
f 97//27 95//26 96//26
f 98//27 99//28 100//28
f 99//28 98//27 97//27
f 100//28 101//29 102//29
f 101//29 100//28 99//28
f 102//29 103//30 104//30
f 103//30 102//29 101//29
f 104//30 105//31 106//31
f 105//31 104//30 103//30
f 106//31 107//32 108//32
f 107//32 106//31 105//31
f 108//32 67//9 68//10
f 67//9 108//32 107//32
