# SSTK version 0.8.0
# 6
mtllib original-6.mtl
o #ID38
v 0.277740 -0.215047 -0.064189
v 0.277740 -0.262715 0.066897
v 0.277740 -0.262715 -0.064189
v 0.277740 -0.215047 0.066897
v 0.277740 -0.215047 -0.064189
v 0.301574 -0.215047 0.066897
v 0.277740 -0.215047 0.066897
v 0.301574 -0.215047 -0.064189
v 0.301574 -0.262715 -0.064189
v 0.277740 -0.262715 0.066897
v 0.301574 -0.262715 0.066897
v 0.277740 -0.262715 -0.064189
v 0.301574 -0.215047 -0.064189
v 0.307742 -0.215860 0.066897
v 0.301574 -0.215047 0.066897
v 0.307742 -0.215860 -0.064189
v 0.307742 -0.261903 -0.064189
v 0.301574 -0.262715 0.066897
v 0.307742 -0.261903 0.066897
v 0.301574 -0.262715 -0.064189
v 0.313490 -0.218240 0.066897
v 0.313490 -0.218240 -0.064189
v 0.313490 -0.259522 -0.064189
v 0.313490 -0.259522 0.066897
v 0.318426 -0.222028 0.066897
v 0.318426 -0.222028 -0.064189
v 0.318426 -0.255734 -0.064189
v 0.318426 -0.255734 0.066897
v 0.322214 -0.226964 -0.064189
v 0.322214 -0.226964 0.066897
v 0.322214 -0.250798 0.066897
v 0.322214 -0.250798 -0.064189
v 0.324595 -0.232713 -0.064189
v 0.324595 -0.232713 0.066897
v 0.324595 -0.245050 0.066897
v 0.324595 -0.245050 -0.064189
v 0.325407 -0.238881 -0.064189
v 0.325407 -0.238881 0.066897
vn 1 0 0
vn 0 -1 0
vn 0 1 0
vn -0.1305261948688555 -0.9914448610250887 0
vn -0.25881900959356163 -0.9659258358036645 0
vn -0.25881900959356163 0.9659258358036645 0
vn -0.1305261948688555 0.9914448610250887 0
vn -0.5000000016387101 -0.866025402838329 0
vn -0.5000000016387101 0.866025402838329 0
vn -0.7071067811865476 -0.7071067811865476 0
vn -0.7071067811865476 0.7071067811865476 0
vn -0.866025402838329 -0.5000000016387101 0
vn -0.866025402838329 0.5000000016387101 0
vn -0.9659258358036645 -0.25881900959356163 0
vn -0.9659258358036645 0.25881900959356163 0
vn -1 0 0
usemtl material_0_0
f 1//1 2//1 3//1
f 2//1 1//1 4//1
f 5//2 6//2 7//2
f 6//2 5//2 8//2
f 9//3 10//3 11//3
f 10//3 9//3 12//3
f 13//4 14//5 15//4
f 14//5 13//4 16//5
f 17//6 18//7 19//6
f 18//7 17//6 20//7
f 16//5 21//8 14//5
f 21//8 16//5 22//8
f 23//9 19//6 24//9
f 19//6 23//9 17//6
f 22//8 25//10 21//8
f 25//10 22//8 26//10
f 27//11 24//9 28//11
f 24//9 27//11 23//9
f 25//10 29//12 30//12
f 29//12 25//10 26//10
f 31//13 27//11 28//11
f 27//11 31//13 32//13
f 30//12 33//14 34//14
f 33//14 30//12 29//12
f 35//15 32//13 31//13
f 32//13 35//15 36//15
f 34//14 37//16 38//16
f 37//16 34//14 33//14
f 38//16 36//15 35//15
f 36//15 38//16 37//16
