# SSTK version 0.8.0
# 4
mtllib original-4.mtl
o #ID24
v -0.373369 0.505923 0.054980
v -0.373369 0.097174 0.113373
v -0.373369 0.088833 0.054980
v -0.373369 0.088833 0.054980
v -0.373369 0.097174 0.113373
v -0.373369 0.505923 0.054980
v -0.373369 0.505923 0.054980
v -0.103253 0.097174 0.113373
v -0.103253 0.505923 0.054980
v -0.373369 0.097174 0.113373
v -0.373369 0.088833 0.054980
v -0.103253 0.097174 0.113373
v -0.373369 0.097174 0.113373
v -0.103253 0.088833 0.054980
v -0.103253 0.505923 0.054980
v 0.166862 0.097174 0.113373
v 0.166862 0.505923 0.054980
v -0.103253 0.097174 0.113373
v -0.103253 0.088833 0.054980
v 0.166862 0.097174 0.113373
v -0.103253 0.097174 0.113373
v 0.166862 0.088833 0.054980
v 0.166862 0.505923 0.054980
v 0.436978 0.097174 0.113373
v 0.436978 0.505923 0.054980
v 0.166862 0.097174 0.113373
v 0.166862 0.097174 0.113373
v 0.436978 0.088833 0.054980
v 0.436978 0.097174 0.113373
v 0.166862 0.088833 0.054980
v 0.436978 0.505923 0.054980
v 0.436978 0.097174 0.113373
v 0.436978 0.088833 0.054980
vn 1 0 0
vn -1 0 0
vn 0 0.14142139823730887 0.9899494876611658
vn 0 -0.9899494876611658 0.14142139823730887
usemtl material_0_0
f 1//1 2//1 3//1
usemtl material_1_0
f 4//2 5//2 6//2
f 7//3 8//3 9//3
f 8//3 7//3 10//3
f 11//4 12//4 13//4
f 12//4 11//4 14//4
f 15//3 16//3 17//3
f 16//3 15//3 18//3
f 19//4 20//4 21//4
f 20//4 19//4 22//4
f 23//3 24//3 25//3
f 24//3 23//3 26//3
f 27//4 28//4 29//4
f 28//4 27//4 30//4
f 31//1 32//1 33//1
