# SSTK version 0.8.0
# 2
mtllib original-2.mtl
o #ID12
v -0.162583 -0.155463 0.066897
v -0.162583 -0.179297 -0.064189
v -0.162583 -0.179297 0.066897
v -0.162583 -0.155463 -0.064189
v -0.162583 -0.179297 -0.064189
v -0.234084 -0.179297 0.066897
v -0.162583 -0.179297 0.066897
v -0.234084 -0.179297 -0.064189
v -0.174500 -0.155463 -0.064189
v -0.162583 -0.155463 0.066897
v -0.174500 -0.155463 0.066897
v -0.162583 -0.155463 -0.064189
v -0.234084 -0.155463 -0.064189
v -0.234084 -0.179297 0.066897
v -0.234084 -0.179297 -0.064189
v -0.234084 -0.155463 0.066897
v -0.174500 -0.131629 0.066897
v -0.174500 -0.155463 -0.064189
v -0.174500 -0.155463 0.066897
v -0.174500 -0.131629 -0.064189
v -0.234084 -0.155463 -0.064189
v -0.222167 -0.155463 0.066897
v -0.234084 -0.155463 0.066897
v -0.222167 -0.155463 -0.064189
v -0.175312 -0.125461 0.066897
v -0.174500 -0.131629 -0.064189
v -0.174500 -0.131629 0.066897
v -0.175312 -0.125461 -0.064189
v -0.222167 -0.131629 -0.064189
v -0.222167 -0.155463 0.066897
v -0.222167 -0.155463 -0.064189
v -0.222167 -0.131629 0.066897
v -0.177693 -0.119712 0.066897
v -0.177693 -0.119712 -0.064189
v -0.221355 -0.125461 -0.064189
v -0.222167 -0.131629 0.066897
v -0.222167 -0.131629 -0.064189
v -0.221355 -0.125461 0.066897
v -0.181480 -0.114776 0.066897
v -0.181480 -0.114776 -0.064189
v -0.218974 -0.119712 -0.064189
v -0.218974 -0.119712 0.066897
v -0.186417 -0.110989 -0.064189
v -0.186417 -0.110989 0.066897
v -0.215187 -0.114776 -0.064189
v -0.215187 -0.114776 0.066897
v -0.192165 -0.108608 -0.064189
v -0.192165 -0.108608 0.066897
v -0.210250 -0.110989 0.066897
v -0.210250 -0.110989 -0.064189
v -0.198334 -0.107796 -0.064189
v -0.198334 -0.107796 0.066897
v -0.204502 -0.108608 0.066897
v -0.204502 -0.108608 -0.064189
vn -1 0 0
vn 0 1 0
vn 0 -1 0
vn 1 0 0
vn -0.9659258358036645 -0.25881900959356163 0
vn -0.9914448610250887 -0.1305261948688555 0
vn -0.866025402838329 -0.5000000016387101 0
vn 0.9659258358036645 -0.25881900959356163 0
vn 0.9914448610250887 -0.1305261948688555 0
vn -0.7071067811865476 -0.7071067811865476 0
vn 0.866025402838329 -0.5000000016387101 0
vn -0.5000000016387101 -0.866025402838329 0
vn 0.7071067811865476 -0.7071067811865476 0
vn -0.25881900959356163 -0.9659258358036645 0
vn 0.5000000016387101 -0.866025402838329 0
vn 0.25881900959356163 -0.9659258358036645 0
usemtl material_0_0
f 1//1 2//1 3//1
f 2//1 1//1 4//1
f 5//2 6//2 7//2
f 6//2 5//2 8//2
f 9//3 10//3 11//3
f 10//3 9//3 12//3
f 13//4 14//4 15//4
f 14//4 13//4 16//4
f 17//1 18//1 19//1
f 18//1 17//1 20//1
f 21//3 22//3 23//3
f 22//3 21//3 24//3
f 25//5 26//6 27//6
f 26//6 25//5 28//5
f 29//4 30//4 31//4
f 30//4 29//4 32//4
f 33//7 28//5 25//5
f 28//5 33//7 34//7
f 35//8 36//9 37//9
f 36//9 35//8 38//8
f 39//10 34//7 33//7
f 34//7 39//10 40//10
f 41//11 38//8 35//8
f 38//8 41//11 42//11
f 43//12 39//10 44//12
f 39//10 43//12 40//10
f 45//13 42//11 41//11
f 42//11 45//13 46//13
f 47//14 44//12 48//14
f 44//12 47//14 43//12
f 45//13 49//15 46//13
f 49//15 45//13 50//15
f 51//3 48//14 52//3
f 48//14 51//3 47//14
f 50//15 53//16 49//15
f 53//16 50//15 54//16
f 54//16 52//3 53//16
f 52//3 54//16 51//3
