# SSTK version 0.8.0
# 3
mtllib original-3.mtl
o #ID50
v -0.497957 0.825256 -0.037233
v 0.507097 0.825256 -0.043025
v -0.476343 0.825256 -0.043025
v 0.528711 0.825256 -0.037233
v -0.512490 0.825256 -0.022701
v 0.543243 0.825256 -0.022701
v -0.517809 0.825256 -0.002850
v 0.548562 0.825256 -0.002850
v -0.512490 0.825256 0.017001
v 0.543243 0.825256 0.017001
v -0.497957 0.825256 0.031533
v 0.528711 0.825256 0.031533
v -0.476343 0.825256 0.037325
v 0.507097 0.825256 0.037325
vt -0.9970353 -0.005135052
vt -0.8469339 -0.006
vt -0.9938072 -0.006
vt -0.8437058 -0.005135052
vt -0.9992056 -0.002964724
vt -0.8415355 -0.002964724
vt -1 0
vt -0.8407411 0
vt -0.9992056 0.002964724
vt -0.8415355 0.002964724
vt -0.9970353 0.005135052
vt -0.8437058 0.005135052
vt -0.9938072 0.006
vt -0.8469339 0.006
vn 0 1 0
usemtl material_0_0
f 1/1/1 2/2/1 3/3/1
f 2/2/1 1/1/1 4/4/1
f 4/4/1 1/1/1 5/5/1
f 4/4/1 5/5/1 6/6/1
f 6/6/1 5/5/1 7/7/1
f 6/6/1 7/7/1 8/8/1
f 8/8/1 7/7/1 9/9/1
f 8/8/1 9/9/1 10/10/1
f 10/10/1 9/9/1 11/11/1
f 10/10/1 11/11/1 12/12/1
f 12/12/1 11/11/1 13/13/1
f 12/12/1 13/13/1 14/14/1
