# SSTK version 0.8.0
# 12
mtllib original-12.mtl
o #ID20
v -0.092882 0.110398 0.090892
v -0.096297 0.261483 0.090892
v -0.096297 0.127566 0.090892
v -0.092882 0.278651 0.090892
v -0.083157 0.293205 0.090892
v -0.083157 0.095844 0.090892
v -0.068603 0.086119 0.090892
v -0.068603 0.302930 0.090892
v -0.051435 0.082704 0.090892
v -0.051435 0.306345 0.090892
v 0.082482 0.082704 0.090892
v 0.082482 0.306345 0.090892
v 0.099650 0.086119 0.090892
v 0.099650 0.302930 0.090892
v 0.114204 0.095844 0.090892
v 0.114204 0.293205 0.090892
v 0.123929 0.110398 0.090892
v 0.123929 0.278651 0.090892
v 0.127344 0.127566 0.090892
v 0.127344 0.261483 0.090892
v 0.127344 0.261483 0.090892
v 0.127344 0.127566 0.090892
v 0.123929 0.278651 0.090892
v 0.123929 0.110398 0.090892
v 0.114204 0.293205 0.090892
v 0.114204 0.095844 0.090892
v 0.099650 0.302930 0.090892
v 0.099650 0.086119 0.090892
v 0.082482 0.306345 0.090892
v 0.082482 0.082704 0.090892
v -0.051435 0.306345 0.090892
v -0.051435 0.082704 0.090892
v -0.068603 0.302930 0.090892
v -0.068603 0.086119 0.090892
v -0.083157 0.293205 0.090892
v -0.083157 0.095844 0.090892
v -0.092882 0.110398 0.090892
v -0.092882 0.278651 0.090892
v -0.096297 0.261483 0.090892
v -0.096297 0.127566 0.090892
v 0.127344 0.261483 0.090892
v 0.132590 0.282238 0.084196
v 0.123929 0.278651 0.090892
v 0.136718 0.261483 0.084196
v 0.136718 0.261483 0.084196
v 0.127344 0.261483 0.090892
v 0.132590 0.282238 0.084196
v 0.123929 0.278651 0.090892
v 0.120833 0.299834 0.084196
v 0.114204 0.293205 0.090892
v 0.120833 0.299834 0.084196
v 0.114204 0.293205 0.090892
v 0.103237 0.311591 0.084196
v 0.099650 0.302930 0.090892
v 0.103237 0.311591 0.084196
v 0.099650 0.302930 0.090892
v 0.082482 0.315719 0.084196
v 0.082482 0.306345 0.090892
v 0.082482 0.315719 0.084196
v 0.082482 0.306345 0.090892
v -0.051435 0.315719 0.084196
v -0.051435 0.306345 0.090892
v -0.051435 0.315719 0.084196
v -0.051435 0.306345 0.090892
v -0.068603 0.302930 0.090892
v -0.072190 0.311591 0.084196
v -0.068603 0.302930 0.090892
v -0.072190 0.311591 0.084196
v -0.083157 0.293205 0.090892
v -0.089785 0.299834 0.084196
v -0.083157 0.293205 0.090892
v -0.089785 0.299834 0.084196
v -0.092882 0.278651 0.090892
v -0.101542 0.282238 0.084196
v -0.092882 0.278651 0.090892
v -0.101542 0.282238 0.084196
v -0.096297 0.261483 0.090892
v -0.105671 0.261483 0.084196
v -0.096297 0.261483 0.090892
v -0.105671 0.261483 0.084196
v -0.096297 0.127566 0.090892
v -0.105671 0.127566 0.084196
v -0.096297 0.127566 0.090892
v -0.105671 0.127566 0.084196
v -0.101542 0.106811 0.084196
v -0.092882 0.110398 0.090892
v -0.092882 0.110398 0.090892
v -0.101542 0.106811 0.084196
v -0.089785 0.089216 0.084196
v -0.083157 0.095844 0.090892
v -0.083157 0.095844 0.090892
v -0.089785 0.089216 0.084196
v -0.072190 0.077459 0.084196
v -0.068603 0.086119 0.090892
v -0.068603 0.086119 0.090892
v -0.072190 0.077459 0.084196
v -0.051435 0.073330 0.084196
v -0.051435 0.082704 0.090892
v -0.051435 0.082704 0.090892
v -0.051435 0.073330 0.084196
v 0.082482 0.082704 0.090892
v 0.082482 0.073330 0.084196
v 0.082482 0.073330 0.084196
v 0.082482 0.082704 0.090892
v 0.103237 0.077459 0.084196
v 0.099650 0.086119 0.090892
v 0.099650 0.086119 0.090892
v 0.103237 0.077459 0.084196
v 0.114204 0.095844 0.090892
v 0.120833 0.089216 0.084196
v 0.120833 0.089216 0.084196
v 0.114204 0.095844 0.090892
v 0.123929 0.110398 0.090892
v 0.132590 0.106811 0.084196
v 0.132590 0.106811 0.084196
v 0.123929 0.110398 0.090892
v 0.127344 0.127566 0.090892
v 0.136718 0.127566 0.084196
v 0.136718 0.127566 0.084196
v 0.127344 0.127566 0.090892
v 0.132590 0.282238 0.074152
v 0.136718 0.261483 0.084196
v 0.136718 0.261483 0.074152
v 0.132590 0.282238 0.084196
v 0.132590 0.282238 0.084196
v 0.132590 0.282238 0.074152
v 0.136718 0.261483 0.084196
v 0.136718 0.261483 0.074152
v 0.120833 0.299834 0.074152
v 0.120833 0.299834 0.084196
v 0.120833 0.299834 0.084196
v 0.120833 0.299834 0.074152
v 0.103237 0.311591 0.084196
v 0.103237 0.311591 0.074152
v 0.103237 0.311591 0.084196
v 0.103237 0.311591 0.074152
v 0.082482 0.315719 0.084196
v 0.082482 0.315719 0.074152
v 0.082482 0.315719 0.084196
v 0.082482 0.315719 0.074152
v -0.051435 0.315719 0.084196
v -0.051435 0.315719 0.074152
v -0.051435 0.315719 0.084196
v -0.051435 0.315719 0.074152
v -0.072190 0.311591 0.084196
v -0.072190 0.311591 0.074152
v -0.072190 0.311591 0.084196
v -0.072190 0.311591 0.074152
v -0.089785 0.299834 0.084196
v -0.089785 0.299834 0.074152
v -0.089785 0.299834 0.084196
v -0.089785 0.299834 0.074152
v -0.101542 0.282238 0.074152
v -0.101542 0.282238 0.084196
v -0.101542 0.282238 0.074152
v -0.101542 0.282238 0.084196
v -0.105671 0.261483 0.074152
v -0.105671 0.261483 0.084196
v -0.105671 0.261483 0.074152
v -0.105671 0.261483 0.084196
v -0.105671 0.127566 0.074152
v -0.105671 0.127566 0.084196
v -0.105671 0.127566 0.074152
v -0.105671 0.127566 0.084196
v -0.101542 0.106811 0.074152
v -0.101542 0.106811 0.084196
v -0.101542 0.106811 0.074152
v -0.101542 0.106811 0.084196
v -0.089785 0.089216 0.074152
v -0.089785 0.089216 0.084196
v -0.089785 0.089216 0.074152
v -0.089785 0.089216 0.084196
v -0.072190 0.077459 0.084196
v -0.072190 0.077459 0.074152
v -0.072190 0.077459 0.084196
v -0.072190 0.077459 0.074152
v -0.051435 0.073330 0.084196
v -0.051435 0.073330 0.074152
v -0.051435 0.073330 0.084196
v -0.051435 0.073330 0.074152
v 0.082482 0.073330 0.084196
v 0.082482 0.073330 0.074152
v 0.082482 0.073330 0.084196
v 0.082482 0.073330 0.074152
v 0.103237 0.077459 0.084196
v 0.103237 0.077459 0.074152
v 0.103237 0.077459 0.084196
v 0.103237 0.077459 0.074152
v 0.120833 0.089216 0.084196
v 0.120833 0.089216 0.074152
v 0.120833 0.089216 0.084196
v 0.120833 0.089216 0.074152
v 0.132590 0.106811 0.074152
v 0.132590 0.106811 0.084196
v 0.132590 0.106811 0.084196
v 0.132590 0.106811 0.074152
v 0.136718 0.127566 0.074152
v 0.136718 0.127566 0.084196
v 0.136718 0.127566 0.084196
v 0.136718 0.127566 0.074152
vt -0.9183615 -0.483832
vt -0.8957976 -0.4833219
vt -0.9157976 -0.4833219
vt -0.8932336 -0.483832
vt -0.8910599 -0.4852843
vt -0.9205352 -0.4852843
vt -0.9219876 -0.487458
vt -0.8896076 -0.487458
vt -0.9224976 -0.4900219
vt -0.8890976 -0.4900219
vt -0.9224976 -0.5100219
vt -0.8890976 -0.5100219
vt -0.9219876 -0.5125859
vt -0.8896076 -0.5125859
vt -0.9205352 -0.5147596
vt -0.8910599 -0.5147596
vt -0.9183615 -0.5162119
vt -0.8932336 -0.5162119
vt -0.9157976 -0.5167219
vt -0.8957976 -0.5167219
vt -3.043065 -3.855481
vt -3.087868 -3.805756
vt -3.086275 -3.814881
vt -3.035629 -3.854839
vt -3.148814 -3.77482
vt -3.136687 -3.789292
vt -3.209189 -3.766742
vt -3.186627 -3.78261
vt -3.259801 -3.782751
vt -3.228491 -3.795852
vt -3.530002 -3.95589
vt -3.498692 -3.968992
vt -3.526107 -4.000142
vt -3.563145 -3.99355
vt -3.534899 -4.044458
vt -3.573775 -4.047126
vt -3.52373 -4.095194
vt -3.560272 -4.108463
vt -3.4943 -4.144624
vt -3.524692 -4.168222
vt -3.210989 -4.49576
vt -3.241381 -4.519358
vt -3.189142 -4.568441
vt -3.167779 -4.53636
vt -3.128196 -4.599377
vt -3.117366 -4.561949
vt -3.067821 -4.607455
vt -3.067427 -4.568631
vt -3.017209 -4.591446
vt -3.025563 -4.555389
vt -2.755362 -4.382249
vt -2.747008 -4.418307
vt -2.713865 -4.380647
vt -2.727947 -4.351099
vt -2.719155 -4.306782
vt -2.703235 -4.327071
vt -2.730324 -4.256047
vt -2.716738 -4.265734
vt -2.759754 -4.206617
vt -2.752318 -4.205975
vt -0.8926978 -0.5175054
vt -0.8957976 -0.5181219
vt -0.89007 -0.5157495
vt -0.8883141 -0.5131217
vt -0.8876976 -0.5100219
vt -0.8876976 -0.4900219
vt -0.8883141 -0.4869222
vt -0.89007 -0.4842944
vt -0.8926978 -0.4825385
vt -0.8957976 -0.4819219
vt -0.9157976 -0.4819219
vt -0.9188973 -0.4825385
vt -0.9215251 -0.4842944
vt -0.923281 -0.4869222
vt -0.9238976 -0.4900219
vt -0.9238976 -0.5100219
vt -0.923281 -0.5131217
vt -0.9215251 -0.5157495
vt -0.9188973 -0.5175054
vt -0.9157976 -0.5181219
vt 0.0167 0.01
vt 0.0167 -0.01
vt 0.01618999 0.01256398
vt 0.01618999 -0.01256398
vt 0.01473762 0.01473762
vt 0.01473762 -0.01473761
vt 0.01256398 0.01618999
vt 0.01256398 -0.01618999
vt 0.01 0.0167
vt 0.01 -0.0167
vt -0.01 0.0167
vt -0.01 -0.0167
vt -0.01256398 0.01618999
vt -0.01256398 -0.01618999
vt -0.01473762 0.01473762
vt -0.01473762 -0.01473762
vt -0.01618999 -0.01256398
vt -0.01618999 0.01256398
vt -0.0167 0.01
vt -0.0167 -0.01
vt 0.006276718 -0.01651569
vt 0.006549844 -0.01481705
vt 0.009437181 -0.01651569
vt 0.009164055 -0.01481705
vt 0.001178762 -0.01822264
vt 0.001451888 -0.01652399
vt 0.004339225 -0.01822264
vt 0.004066099 -0.01652399
vt -0.004339226 -0.01822264
vt -0.004066099 -0.01652399
vt -0.001178762 -0.01822264
vt -0.001451889 -0.01652399
vt -0.009437181 -0.01651569
vt -0.009164055 -0.01481705
vt -0.006276718 -0.01651569
vt -0.006549844 -0.01481705
vt -0.01 -0.01530981
vt -0.01 -0.01358935
vt 0.01 -0.01530981
vt 0.01 -0.01358935
vt 0.009164054 -0.01481705
vt 0.00943718 -0.01651569
vt 0.006276717 -0.01651569
vt 0.004066097 -0.01652399
vt 0.004339223 -0.01822264
vt 0.001451886 -0.01652399
vt 0.00117876 -0.01822264
vt -0.001451892 -0.01652399
vt -0.001178766 -0.01822264
vt -0.004066102 -0.01652399
vt -0.004339229 -0.01822264
vt -0.006549849 -0.01481704
vt -0.006276722 -0.01651569
vt -0.009164059 -0.01481704
vt -0.009437185 -0.01651569
vt 0.009164056 -0.01481705
vt 0.009437182 -0.01651569
vt 0.006549845 -0.01481705
vt 0.006276719 -0.01651569
vt 0.004339228 -0.01822264
vt 0.001178765 -0.01822264
vt 0.004066101 -0.01652399
vt 0.001451891 -0.01652399
vt -0.001178759 -0.01822264
vt -0.004339222 -0.01822264
vt -0.001451885 -0.01652399
vt -0.004066095 -0.01652399
vt -0.006276714 -0.0165157
vt -0.009437177 -0.0165157
vt -0.00654984 -0.01481705
vt -0.00916405 -0.01481705
vt 0.009437181 -0.001
vt 0.009437181 -0.0025
vt 0.006276718 -0.001
vt 0.006276718 -0.0025
vt 0.004339225 -0.001
vt 0.004339225 -0.0025
vt 0.001178762 -0.001
vt 0.001178762 -0.0025
vt -0.004339226 -0.001
vt -0.001178762 -0.001
vt -0.004339226 -0.0025
vt -0.001178762 -0.0025
vt -0.009437181 -0.001
vt -0.006276718 -0.001
vt -0.009437181 -0.0025
vt -0.006276718 -0.0025
vt -0.01 -0.001
vt 0.01 -0.001
vt -0.01 -0.0025
vt 0.01 -0.0025
vt 0.006276717 -0.0025
vt 0.006276717 -0.001
vt 0.00943718 -0.0025
vt 0.00943718 -0.001
vt 0.00117876 -0.0025
vt 0.00117876 -0.001
vt 0.004339223 -0.0025
vt 0.004339223 -0.001
vt -0.004339229 -0.001
vt -0.001178766 -0.001
vt -0.004339229 -0.0025
vt -0.001178766 -0.0025
vt -0.009437185 -0.001
vt -0.006276722 -0.001
vt -0.009437185 -0.0025
vt -0.006276722 -0.0025
vt 0.006276719 -0.001
vt 0.009437182 -0.001
vt 0.006276719 -0.0025
vt 0.009437182 -0.0025
vt 0.001178765 -0.001
vt 0.004339228 -0.001
vt 0.001178765 -0.0025
vt 0.004339228 -0.0025
vt -0.001178759 -0.001
vt -0.001178759 -0.0025
vt -0.004339222 -0.001
vt -0.004339222 -0.0025
vt -0.009437177 -0.001
vt -0.009437177 -0.0025
vn 0 0 1
vn 0.5801807087459594 0.06029823090896831 0.8122527122443389
vn 0.536994185107194 0.22243029383119725 0.8137333774322076
vn 0.5803762117030469 0.05444516109786421 0.8125264163842599
vn 0.4109975130927247 0.4109975130927247 0.8137334259222682
vn 0.22243029383119725 0.536994185107194 0.8137333774322076
vn 0.05444516109786421 0.5803762117030469 0.8125264163842599
vn 0.06029823090896831 0.5801807087459594 0.8122527122443389
vn -0.05444516109786421 0.5803762117030469 0.8125264163842599
vn -0.06029823090896831 0.5801807087459594 0.8122527122443389
vn -0.22243029383119725 0.536994185107194 0.8137333774322076
vn -0.4109975130927247 0.4109975130927247 0.8137334259222682
vn -0.536994185107194 0.22243029383119725 0.8137333774322076
vn -0.5801807087459594 0.06029823090896831 0.8122527122443389
vn -0.5803762117030469 0.05444516109786421 0.8125264163842599
vn -0.5801807083961207 -0.06029824087260969 0.8122527117545649
vn -0.5803762113870601 -0.05444517106822165 0.8125264159418786
vn -0.536994185107194 -0.22243029383119725 0.8137333774322076
vn -0.4109974962008275 -0.4109975962008266 0.8137333924780235
vn -0.2224301987787203 -0.5369941970515689 0.8137333955320992
vn -0.05444510127571925 -0.5803762135989664 0.8125264190385464
vn -0.06029817112711969 -0.5801807108449907 0.8122527151829817
vn 0.06029822094532692 -0.5801807090957981 0.812252712734113
vn 0.05444516109786421 -0.5803762117030469 0.8125264163842599
vn 0.2224301987787203 -0.5369941970515689 0.8137333955320992
vn 0.4109974962008275 -0.4109975962008266 0.8137333924780235
vn 0.5369941019990868 -0.22243040082804943 0.8137334030293139
vn 0.5801807066469262 -0.0602982906908163 0.8122527093056936
vn 0.5803762098071252 -0.05444522092000859 0.8125264137299705
vn 0.9238795391929066 0.38268341623423263 0
vn 0.9951847264480945 0.09801714260491001 0
vn 0.7071067811865476 0.7071067811865476 0
vn 0.38268341623423263 0.9238795391929066 0
vn 0.09801714260491001 0.9951847264480945 0
vn -0.09801714260491001 0.9951847264480945 0
vn -0.38268341623423263 0.9238795391929066 0
vn -0.7071067811865476 0.7071067811865476 0
vn -0.9238795391929066 0.38268341623423263 0
vn -0.9951847264480945 0.09801714260491001 0
vn -0.9951847254726428 -0.09801715250883665 0
vn -0.9238795038375645 -0.3826835015895716 0
vn -0.7071066811865431 -0.7071068811865378 0
vn -0.3826832955235526 -0.9238795891928955 0
vn -0.09801704356564193 -0.9951847362026063 0
vn 0.0980171327009833 -0.995184727423546 0
vn 0.3826833808788962 -0.9238795538375647 0
vn 0.7071066811865431 -0.7071068811865378 0
vn 0.9238794684822172 -0.3826835869449008 0
vn 0.9951847166935731 -0.09801724164417516 0
vn 0 0 -1
vn -0.5803762117030469 -0.05444516109786421 -0.8125264163842599
vn -0.5801807087459594 -0.06029823090896831 -0.8122527122443389
vn -0.536994185107194 -0.22243029383119725 -0.8137333774322076
vn -0.4109975130927247 -0.4109975130927247 -0.8137334259222682
vn -0.22243029383119725 -0.536994185107194 -0.8137333774322076
vn -0.05444516109786421 -0.5803762117030469 -0.8125264163842599
vn -0.06029823090896831 -0.5801807087459594 -0.8122527122443389
vn 0.05444516109786421 -0.5803762117030469 -0.8125264163842599
vn 0.06029823090896831 -0.5801807087459594 -0.8122527122443389
vn 0.22243029383119725 -0.536994185107194 -0.8137333774322076
vn 0.4109975130927247 -0.4109975130927247 -0.8137334259222682
vn 0.536994185107194 -0.22243029383119725 -0.8137333774322076
vn 0.5801807087459594 -0.06029823090896831 -0.8122527122443389
vn 0.5803762117030469 -0.05444516109786421 -0.8125264163842599
vn 0.5801807083961207 0.06029824087260969 -0.8122527117545649
vn 0.5803762113870601 0.05444517106822165 -0.8125264159418786
vn 0.536994185107194 0.22243029383119725 -0.8137333774322076
vn 0.4109974962008275 0.4109975962008266 -0.8137333924780235
vn 0.2224301987787203 0.5369941970515689 -0.8137333955320992
vn 0.06029817112711969 0.5801807108449907 -0.8122527151829817
vn 0.05444510127571925 0.5803762135989664 -0.8125264190385464
vn -0.05444516109786421 0.5803762117030469 -0.8125264163842599
vn -0.06029822094532692 0.5801807090957981 -0.812252712734113
vn -0.2224301987787203 0.5369941970515689 -0.8137333955320992
vn -0.4109974962008275 0.4109975962008266 -0.8137333924780235
vn -0.5369941019990868 0.22243040082804943 -0.8137334030293139
vn -0.5803762098071252 0.05444522092000859 -0.8125264137299705
vn -0.5801807066469262 0.0602982906908163 -0.8122527093056936
vn -0.9238795391929066 -0.38268341623423263 0
vn -0.9951847264480945 -0.09801714260491001 0
vn -0.7071067811865476 -0.7071067811865476 0
vn -0.38268341623423263 -0.9238795391929066 0
vn -0.09801714260491001 -0.9951847264480945 0
vn 0.09801714260491001 -0.9951847264480945 0
vn 0.38268341623423263 -0.9238795391929066 0
vn 0.7071067811865476 -0.7071067811865476 0
vn 0.9238795391929066 -0.38268341623423263 0
vn 0.9951847264480945 -0.09801714260491001 0
vn 0.9951847254726428 0.09801715250883665 0
vn 0.9238795038375645 0.3826835015895716 0
vn 0.7071066811865431 0.7071068811865378 0
vn 0.3826832955235526 0.9238795891928955 0
vn 0.09801704356564193 0.9951847362026063 0
vn -0.0980171327009833 0.995184727423546 0
vn -0.3826833808788962 0.9238795538375647 0
vn -0.7071066811865431 0.7071068811865378 0
vn -0.9238794684822172 0.3826835869449008 0
vn -0.9951847166935731 0.09801724164417516 0
usemtl material_0_0
f 21/81/50 22/82/50 23/83/50
f 22/82/50 24/84/50 23/83/50
f 23/83/50 24/84/50 25/85/50
f 24/84/50 26/86/50 25/85/50
f 25/85/50 26/86/50 27/87/50
f 26/86/50 28/88/50 27/87/50
f 27/87/50 28/88/50 29/89/50
f 28/88/50 30/90/50 29/89/50
f 29/89/50 30/90/50 31/91/50
f 30/90/50 32/92/50 31/91/50
f 31/91/50 32/92/50 33/93/50
f 32/92/50 34/94/50 33/93/50
f 33/93/50 34/94/50 35/95/50
f 34/94/50 36/96/50 35/95/50
f 36/96/50 37/97/50 35/95/50
f 35/95/50 37/97/50 38/98/50
f 38/98/50 37/97/50 39/99/50
f 40/100/50 39/99/50 37/97/50
f 45/101/51 46/102/52 47/103/53
f 48/104/53 47/103/53 46/102/52
f 47/105/53 48/106/53 51/107/54
f 52/108/54 51/107/54 48/106/53
f 51/109/54 52/110/54 55/111/55
f 56/112/55 55/111/55 52/110/54
f 55/113/55 56/114/55 59/115/56
f 60/116/57 59/115/56 56/114/55
f 59/117/56 60/118/57 63/119/58
f 64/120/59 63/119/58 60/118/57
f 64/102/59 67/104/60 63/101/58
f 68/103/60 63/101/58 67/104/60
f 67/106/60 71/108/61 68/105/60
f 72/107/61 68/105/60 71/108/61
f 71/110/61 75/112/62 72/109/61
f 76/111/62 72/109/61 75/112/62
f 75/114/62 79/116/63 76/113/62
f 80/115/64 76/113/62 79/116/63
f 79/118/63 83/120/65 80/117/64
f 84/119/66 80/117/64 83/120/65
f 87/121/67 88/122/67 83/102/65
f 84/123/66 83/102/65 88/122/67
f 91/124/68 92/125/68 87/126/67
f 88/127/67 87/126/67 92/125/68
f 95/128/69 96/129/69 91/130/68
f 92/131/68 91/130/68 96/129/69
f 99/132/70 100/133/71 95/134/69
f 96/135/69 95/134/69 100/133/71
f 103/119/72 100/117/71 104/120/73
f 99/118/70 104/120/73 100/117/71
f 107/136/74 108/137/74 104/138/73
f 103/139/72 104/138/73 108/137/74
f 111/140/75 108/141/74 112/142/75
f 107/143/74 112/142/75 108/141/74
f 115/144/76 111/145/75 116/146/76
f 112/147/75 116/146/76 111/145/75
f 119/148/77 115/149/76 120/150/78
f 116/151/76 120/150/78 115/149/76
f 45/119/51 119/117/77 46/120/52
f 120/118/78 46/120/52 119/117/77
f 125/152/79 126/153/79 127/154/80
f 128/155/80 127/154/80 126/153/79
f 131/156/81 132/157/81 125/158/79
f 126/159/79 125/158/79 132/157/81
f 131/160/81 135/161/82 132/162/81
f 136/163/82 132/162/81 135/161/82
f 135/164/82 139/165/83 136/166/82
f 140/167/83 136/166/82 139/165/83
f 139/168/83 143/169/84 140/170/83
f 144/171/84 140/170/83 143/169/84
f 143/154/84 147/152/85 144/155/84
f 148/153/85 144/155/84 147/152/85
f 147/158/85 151/156/86 148/159/85
f 152/157/86 148/159/85 151/156/86
f 152/162/86 151/160/86 155/163/87
f 156/161/87 155/163/87 151/160/86
f 155/166/87 156/164/87 159/167/88
f 160/165/88 159/167/88 156/164/87
f 159/170/88 160/168/88 163/171/89
f 164/169/89 163/171/89 160/168/88
f 163/172/89 164/173/89 167/174/90
f 168/175/90 167/174/90 164/173/89
f 167/176/90 168/177/90 171/178/91
f 172/179/91 171/178/91 168/177/90
f 172/180/91 175/181/92 171/182/91
f 176/183/92 171/182/91 175/181/92
f 175/184/92 179/185/93 176/186/92
f 180/187/93 176/186/92 179/185/93
f 179/168/93 183/169/94 180/170/93
f 184/171/94 180/170/93 183/169/94
f 183/188/94 187/189/95 184/190/94
f 188/191/95 184/190/94 187/189/95
f 187/192/95 191/193/96 188/194/95
f 192/195/96 188/194/95 191/193/96
f 195/196/97 196/197/97 191/198/96
f 192/199/96 191/198/96 196/197/97
f 199/185/98 200/187/98 195/200/97
f 196/201/97 195/200/97 200/187/98
f 127/169/80 128/171/80 199/168/98
f 200/170/98 199/168/98 128/171/80
usemtl material_1_0
f 1/1/1 2/2/1 3/3/1
f 2/2/1 1/1/1 4/4/1
f 4/4/1 1/1/1 5/5/1
f 5/5/1 1/1/1 6/6/1
f 5/5/1 6/6/1 7/7/1
f 5/5/1 7/7/1 8/8/1
f 8/8/1 7/7/1 9/9/1
f 8/8/1 9/9/1 10/10/1
f 10/10/1 9/9/1 11/11/1
f 10/10/1 11/11/1 12/12/1
f 12/12/1 11/11/1 13/13/1
f 12/12/1 13/13/1 14/14/1
f 14/14/1 13/13/1 15/15/1
f 14/14/1 15/15/1 16/16/1
f 16/16/1 15/15/1 17/17/1
f 16/16/1 17/17/1 18/18/1
f 18/18/1 17/17/1 19/19/1
f 18/18/1 19/19/1 20/20/1
f 41/21/2 42/22/3 43/23/3
f 42/22/3 41/21/2 44/24/4
f 43/23/3 49/25/5 50/26/5
f 49/25/5 43/23/3 42/22/3
f 50/26/5 53/27/6 54/28/6
f 53/27/6 50/26/5 49/25/5
f 54/28/6 57/29/7 58/30/8
f 57/29/7 54/28/6 53/27/6
f 58/30/8 61/31/9 62/32/10
f 61/31/9 58/30/8 57/29/7
f 65/33/11 61/31/9 66/34/11
f 61/31/9 65/33/11 62/32/10
f 69/35/12 66/34/11 70/36/12
f 66/34/11 69/35/12 65/33/11
f 73/37/13 70/36/12 74/38/13
f 70/36/12 73/37/13 69/35/12
f 77/39/14 74/38/13 78/40/15
f 74/38/13 77/39/14 73/37/13
f 81/41/16 78/40/15 82/42/17
f 78/40/15 81/41/16 77/39/14
f 85/43/18 81/41/16 82/42/17
f 81/41/16 85/43/18 86/44/18
f 89/45/19 86/44/18 85/43/18
f 86/44/18 89/45/19 90/46/19
f 93/47/20 90/46/19 89/45/19
f 90/46/19 93/47/20 94/48/20
f 97/49/21 94/48/20 93/47/20
f 94/48/20 97/49/21 98/50/22
f 97/49/21 101/51/23 98/50/22
f 101/51/23 97/49/21 102/52/24
f 105/53/25 101/51/23 102/52/24
f 101/51/23 105/53/25 106/54/25
f 105/53/25 109/55/26 106/54/25
f 109/55/26 105/53/25 110/56/26
f 110/56/26 113/57/27 109/55/26
f 113/57/27 110/56/26 114/58/27
f 114/58/27 117/59/28 113/57/27
f 117/59/28 114/58/27 118/60/29
f 118/60/29 41/21/2 117/59/28
f 41/21/2 118/60/29 44/24/4
f 121/61/30 122/62/31 123/62/31
f 122/62/31 121/61/30 124/61/30
f 129/63/32 124/61/30 121/61/30
f 124/61/30 129/63/32 130/63/32
f 133/64/33 129/63/32 134/64/33
f 129/63/32 133/64/33 130/63/32
f 137/65/34 134/64/33 138/65/34
f 134/64/33 137/65/34 133/64/33
f 141/66/35 138/65/34 142/66/35
f 138/65/34 141/66/35 137/65/34
f 145/67/36 142/66/35 146/67/36
f 142/66/35 145/67/36 141/66/35
f 149/68/37 146/67/36 150/68/37
f 146/67/36 149/68/37 145/67/36
f 149/68/37 153/69/38 154/69/38
f 153/69/38 149/68/37 150/68/37
f 154/69/38 157/70/39 158/70/39
f 157/70/39 154/69/38 153/69/38
f 158/70/39 161/71/40 162/71/40
f 161/71/40 158/70/39 157/70/39
f 162/71/40 165/72/41 166/72/41
f 165/72/41 162/71/40 161/71/40
f 166/72/41 169/73/42 170/73/42
f 169/73/42 166/72/41 165/72/41
f 173/74/43 169/73/42 174/74/43
f 169/73/42 173/74/43 170/73/42
f 177/75/44 174/74/43 178/75/44
f 174/74/43 177/75/44 173/74/43
f 181/76/45 178/75/44 182/76/45
f 178/75/44 181/76/45 177/75/44
f 185/77/46 182/76/45 186/77/46
f 182/76/45 185/77/46 181/76/45
f 189/78/47 186/77/46 190/78/47
f 186/77/46 189/78/47 185/77/46
f 193/79/48 189/78/47 190/78/47
f 189/78/47 193/79/48 194/79/48
f 197/80/49 194/79/48 193/79/48
f 194/79/48 197/80/49 198/80/49
f 123/62/31 198/80/49 197/80/49
f 198/80/49 123/62/31 122/62/31
