# SSTK version 0.8.0
# 4
mtllib original-4.mtl
o #ID58
v 0.124654 0.303655 0.050717
v 0.137582 0.284306 -0.043025
v 0.137582 0.284306 0.050717
v 0.124654 0.303655 -0.043025
v 0.105305 0.316583 -0.043025
v 0.105305 0.316583 0.050717
v -0.106535 0.104743 -0.043025
v -0.111075 0.261483 -0.043025
v -0.111075 0.127566 -0.043025
v -0.106535 0.284306 -0.043025
v -0.093607 0.085395 -0.043025
v -0.093607 0.303655 -0.043025
v -0.074258 0.072466 -0.043025
v -0.074258 0.316583 -0.043025
v -0.051435 0.067926 -0.043025
v -0.051435 0.321123 -0.043025
v 0.082482 0.067926 -0.043025
v 0.082482 0.321123 -0.043025
v 0.105305 0.072466 -0.043025
v 0.105305 0.316583 -0.043025
v 0.124654 0.085395 -0.043025
v 0.124654 0.303655 -0.043025
v 0.137582 0.104743 -0.043025
v 0.137582 0.284306 -0.043025
v 0.142122 0.127566 -0.043025
v 0.142122 0.261483 -0.043025
v 0.142122 0.261483 -0.043025
v 0.142122 0.261483 0.050717
v 0.082482 0.321123 -0.043025
v 0.082482 0.321123 0.050717
v -0.093607 0.085395 -0.043025
v -0.106535 0.104743 0.050717
v -0.093607 0.085395 0.050717
v -0.106535 0.104743 -0.043025
v -0.074258 0.072466 -0.043025
v -0.074258 0.072466 0.050717
v -0.051435 0.067926 -0.043025
v -0.051435 0.067926 0.050717
v 0.082482 0.067926 -0.043025
v 0.082482 0.067926 0.050717
v 0.105305 0.072466 -0.043025
v 0.105305 0.072466 0.050717
v 0.124654 0.085395 -0.043025
v 0.124654 0.085395 0.050717
v 0.137582 0.104743 0.050717
v 0.137582 0.104743 -0.043025
v 0.142122 0.127566 0.050717
v 0.142122 0.127566 -0.043025
v -0.051435 0.321123 -0.043025
v -0.051435 0.321123 0.050717
v -0.074258 0.316583 -0.043025
v -0.074258 0.316583 0.050717
v -0.093607 0.303655 -0.043025
v -0.093607 0.303655 0.050717
v -0.106535 0.284306 -0.043025
v -0.106535 0.284306 0.050717
v -0.111075 0.261483 -0.043025
v -0.111075 0.261483 0.050717
v -0.111075 0.127566 -0.043025
v -0.111075 0.127566 0.050717
vt -0.9919606 -0.9516993
vt -0.9900298 -0.954589
vt -0.9948503 -0.9497685
vt -0.9312857 -0.9814061
vt -0.9319637 -0.9579976
vt -0.9319637 -0.9779976
vt -0.9312857 -0.954589
vt -0.9293549 -0.9842958
vt -0.9293549 -0.9516993
vt -0.9264653 -0.9862266
vt -0.9264653 -0.9497685
vt -0.9230567 -0.9869046
vt -0.9230567 -0.9490905
vt -0.9030567 -0.9869046
vt -0.9030567 -0.9490905
vt -0.8996481 -0.9862266
vt -0.8996481 -0.9497685
vt -0.8967585 -0.9842958
vt -0.8967585 -0.9516993
vt -0.8948276 -0.9814061
vt -0.8948276 -0.954589
vt -0.8941496 -0.9779976
vt -0.8941496 -0.9579976
vt -0.9893518 -0.9579976
vt -0.9982589 -0.9490905
vt -1.024557 -0.9842958
vt -1.026488 -0.9814061
vt -1.021667 -0.9862266
vt -1.018259 -0.9869046
vt -0.9982589 -0.9869046
vt -0.9948503 -0.9862266
vt -0.9919606 -0.9842958
vt -0.9900298 -0.9814061
vt -0.9893518 -0.9779976
vt -1.018259 -0.9490905
vt -1.021667 -0.9497685
vt -1.024557 -0.9516993
vt -1.026488 -0.954589
vt -1.027166 -0.9579976
vt -1.027166 -0.9779976
vn -0.7071068811865378 -0.7071066811865431 -1.7009449547442338e-8
vn -0.9238795538375647 -0.3826833808788962 -9.205447540041907e-9
vn -0.3826835869449007 -0.923879468482217 -2.2223919241839776e-8
vn 0 0 1
vn -0.995184727423546 -0.0980171327009833 -2.357802064972152e-9
vn -0.09801723174024875 -0.9951847176690255 -2.3939160425028267e-8
vn 0.7071067811865474 0.7071067811865474 1.7009449547442507e-8
vn 0.9238795391929063 0.3826834162342326 9.205447390514372e-9
vn 0.3826834162342326 0.9238795391929063 2.2223920942785302e-8
vn 0.09801714260490998 0.9951847264480943 2.3939160636208698e-8
vn -0.09801723174024875 0.9951847176690255 2.3939160425028267e-8
vn -0.3826835869449007 0.923879468482217 2.2223909241840117e-8
vn -0.7071068811865378 0.7071066811865431 1.7009449547442338e-8
vn -0.9238795538375647 0.3826833808788962 9.205446540041958e-9
vn -0.995184727423546 0.0980171327009833 2.357802064972152e-9
vn 0.09801714260490998 -0.9951847264480943 -2.3939160636208698e-8
vn 0.3826834162342326 -0.9238795391929063 -2.2223920942785302e-8
vn 0.7071067811865474 -0.7071067811865474 -1.7009449547442507e-8
vn 0.9238795391929063 -0.3826834162342326 -9.205449390514455e-9
vn 0.9951847264480945 -0.09801714260491001 -2.357804062661155e-9
vn 0.9951847264480945 0.09801714260491001 2.357800062661049e-9
usemtl material_0_0
f 1/1/1 2/2/2 3/2/2
f 2/2/2 1/1/1 4/1/1
f 1/1/1 5/3/3 4/1/1
f 5/3/3 1/1/1 6/3/3
f 7/4/4 8/5/4 9/6/4
f 8/5/4 7/4/4 10/7/4
f 10/7/4 7/4/4 11/8/4
f 10/7/4 11/8/4 12/9/4
f 12/9/4 11/8/4 13/10/4
f 12/9/4 13/10/4 14/11/4
f 14/11/4 13/10/4 15/12/4
f 14/11/4 15/12/4 16/13/4
f 16/13/4 15/12/4 17/14/4
f 16/13/4 17/14/4 18/15/4
f 18/15/4 17/14/4 19/16/4
f 18/15/4 19/16/4 20/17/4
f 20/17/4 19/16/4 21/18/4
f 20/17/4 21/18/4 22/19/4
f 22/19/4 21/18/4 23/20/4
f 22/19/4 23/20/4 24/21/4
f 24/21/4 23/20/4 25/22/4
f 24/21/4 25/22/4 26/23/4
f 3/2/2 27/24/5 28/24/5
f 27/24/5 3/2/2 2/2/2
f 6/3/3 29/25/6 5/3/3
f 29/25/6 6/3/3 30/25/6
f 31/26/7 32/27/8 33/26/7
f 32/27/8 31/26/7 34/27/8
f 33/26/7 35/28/9 31/26/7
f 35/28/9 33/26/7 36/28/9
f 36/28/9 37/29/10 35/28/9
f 37/29/10 36/28/9 38/29/10
f 38/29/10 39/30/11 37/29/10
f 39/30/11 38/29/10 40/30/11
f 40/30/11 41/31/12 39/30/11
f 41/31/12 40/30/11 42/31/12
f 42/31/12 43/32/13 41/31/12
f 43/32/13 42/31/12 44/32/13
f 45/33/14 43/32/13 44/32/13
f 43/32/13 45/33/14 46/33/14
f 47/34/15 46/33/14 45/33/14
f 46/33/14 47/34/15 48/34/15
f 28/24/5 48/34/15 47/34/15
f 48/34/15 28/24/5 27/24/5
f 30/25/6 49/35/16 29/25/6
f 49/35/16 30/25/6 50/35/16
f 50/35/16 51/36/17 49/35/16
f 51/36/17 50/35/16 52/36/17
f 52/36/17 53/37/18 51/36/17
f 53/37/18 52/36/17 54/37/18
f 55/38/19 54/37/18 56/38/19
f 54/37/18 55/38/19 53/37/18
f 57/39/20 56/38/19 58/39/20
f 56/38/19 57/39/20 55/38/19
f 59/40/21 58/39/20 60/40/21
f 58/39/20 59/40/21 57/39/20
f 34/27/8 60/40/21 32/27/8
f 60/40/21 34/27/8 59/40/21
