# SSTK version 0.8.0
# 7
mtllib original-7.mtl
o mesh8/mesh8-geometry#mesh8-geometry
v 0.726492 -0.555833 -0.207840
v 0.673497 -0.569171 0.064463
v 0.721727 -0.581507 -0.207840
v 0.677048 -0.550039 0.064463
v 0.667426 -0.587658 0.064463
v 0.727791 -0.529754 -0.207840
v 0.673497 0.602428 0.064463
v 0.713581 -0.606315 -0.207840
v 0.667426 0.620915 0.064463
v 0.678120 -0.528518 0.064463
v 0.677048 0.583297 0.064463
v 0.658945 -0.605170 0.064463
v 0.727791 0.563012 -0.207840
v 0.721727 0.614764 -0.207840
v 0.726492 0.589091 -0.207840
v 0.702199 -0.629815 -0.207840
v 0.658945 0.638427 0.064463
v 0.678120 0.561775 0.064463
v 0.713581 0.639572 -0.207840
v 0.648204 -0.621395 0.064463
v 0.687785 -0.651588 -0.207840
v 0.648204 0.654652 0.064463
v 0.702199 0.663072 -0.207840
v 0.635395 -0.636043 0.064463
v 0.635395 0.669300 0.064463
v 0.670596 -0.671244 -0.207840
v 0.687785 0.684845 -0.207840
v 0.650940 -0.688433 -0.207840
v 0.620747 0.682109 0.064463
v 0.670596 0.704501 -0.207840
v 0.620747 -0.648851 0.064463
v 0.629167 -0.702846 -0.207840
v 0.606617 0.016629 0.064463
v 0.650940 0.721690 -0.207840
v 0.604522 -0.659592 0.064463
v 0.604522 0.692850 0.064463
v 0.587010 -0.668074 0.064463
v 0.604248 0.034627 0.064463
v 0.604248 -0.001370 0.064463
v 0.629167 0.736104 -0.207840
v 0.605667 -0.714228 -0.207840
v 0.597301 -0.018141 0.064463
v 0.597301 0.051398 0.064463
v 0.605667 0.747485 -0.207840
v 0.580859 -0.722374 -0.207840
v 0.586250 -0.032543 0.064463
v 0.587010 0.701331 0.064463
v 0.568523 -0.674145 0.064463
v 0.571847 -0.043594 0.064463
v 0.586250 0.065801 0.064463
v 0.568523 0.707402 0.064463
v 0.555186 -0.727140 -0.207840
v 0.571847 0.076852 0.064463
v 0.580859 0.755632 -0.207840
v 0.555076 -0.050542 0.064463
v 0.549392 -0.677696 0.064463
v 0.502308 -0.043594 0.064463
v 0.555186 0.760397 -0.207840
v 0.555076 0.083799 0.064463
v 0.529107 -0.728439 -0.207840
v 0.537078 -0.052911 0.064463
v 0.487906 -0.032543 0.064463
v 0.519079 -0.050542 0.064463
v 0.549392 0.710953 0.064463
v 0.537078 0.086168 0.064463
v 0.527870 -0.678768 0.064463
v 0.476855 -0.018141 0.064463
v 0.527870 0.712025 0.064463
v 0.519079 0.083799 0.064463
v -0.563659 -0.728439 -0.207840
v 0.487906 0.065801 0.064463
v 0.529107 0.761696 -0.207840
v 0.502308 0.076852 0.064463
v -0.562423 -0.678768 0.064463
v 0.476855 0.051398 0.064463
v 0.469907 -0.001370 0.064463
v -0.562423 0.712025 0.064463
v -0.429809 -0.208143 0.064463
v -0.589738 -0.727140 -0.207840
v 0.467538 0.016629 0.064463
v -0.563659 0.761696 -0.207840
v -0.429809 0.241401 0.064463
v -0.555595 -0.050542 0.064463
v -0.141251 -0.208143 0.064463
v -0.583944 -0.677696 0.064463
v 0.469907 0.034627 0.064463
v 0.386312 0.241401 0.064463
v -0.589738 0.760397 -0.207840
v -0.555595 0.083799 0.064463
v -0.141251 0.241401 0.064463
v -0.573593 -0.052911 0.064463
v -0.538824 -0.043594 0.064463
v 0.097754 -0.208143 0.064463
v -0.603076 -0.674145 0.064463
v 0.386312 -0.208143 0.064463
v -0.583944 0.710953 0.064463
v -0.573593 0.086168 0.064463
v -0.538824 0.076852 0.064463
v 0.097754 0.241401 0.064463
v -0.506423 -0.001370 0.064463
v -0.524422 -0.032543 0.064463
v -0.591592 -0.050542 0.064463
v -0.615411 -0.722374 -0.207840
v -0.603076 0.707402 0.064463
v -0.506423 0.034627 0.064463
v -0.524422 0.065801 0.064463
v -0.513370 -0.018141 0.064463
v -0.640220 -0.714228 -0.207840
v -0.608363 -0.043594 0.064463
v -0.615411 0.755632 -0.207840
v -0.591592 0.083799 0.064463
v -0.513370 0.051398 0.064463
v -0.621563 -0.668074 0.064463
v -0.621563 0.701331 0.064463
v -0.608363 0.076852 0.064463
v -0.622765 -0.032543 0.064463
v -0.504054 0.016629 0.064463
v -0.663720 -0.702846 -0.207840
v -0.640220 0.747485 -0.207840
v -0.622765 0.065801 0.064463
v -0.633817 -0.018141 0.064463
v -0.639075 -0.659592 0.064463
v -0.639075 0.692850 0.064463
v -0.633817 0.051398 0.064463
v -0.640764 -0.001370 0.064463
v -0.685493 -0.688433 -0.207840
v -0.663720 0.736104 -0.207840
v -0.640764 0.034627 0.064463
v -0.655300 -0.648851 0.064463
v -0.685493 0.721690 -0.207840
v -0.643133 0.016629 0.064463
v -0.655300 0.682109 0.064463
v -0.669947 -0.636043 0.064463
v -0.669947 0.669300 0.064463
v -0.705149 -0.671244 -0.207840
v -0.705149 0.704501 -0.207840
v -0.722337 -0.651588 -0.207840
v -0.682756 0.654652 0.064463
v -0.722337 0.684845 -0.207840
v -0.682756 -0.621395 0.064463
v -0.736751 -0.629815 -0.207840
v -0.693497 0.638427 0.064463
v -0.736751 0.663072 -0.207840
v -0.693497 -0.605170 0.064463
v -0.748133 -0.606315 -0.207840
v -0.701979 0.620915 0.064463
v -0.748133 0.639572 -0.207840
v -0.701979 -0.587658 0.064463
v -0.756279 -0.581507 -0.207840
v -0.708049 0.602428 0.064463
v -0.756279 0.614764 -0.207840
v -0.708049 -0.569171 0.064463
v -0.761045 -0.555833 -0.207840
v -0.711601 0.583297 0.064463
v -0.761045 0.589091 -0.207840
v -0.711601 -0.550039 0.064463
v -0.762344 -0.529754 -0.207840
v -0.712673 0.561775 0.064463
v -0.762344 0.563012 -0.207840
v -0.712673 -0.528518 0.064463
v -0.762344 0.016629 -0.207840
vn 0.9770106340495 -0.11449095711610346 0.17983893263927225
vn 0.9530174797400663 -0.24375312270303723 0.17983909052931243
vn -0.9530174797400663 0.24375312270303723 -0.17983909052931243
vn -0.9770106340495 0.11449095711610346 -0.17983893263927225
vn 0.9120012005645901 -0.36866208107506787 0.17983903954966635
vn -0.9120012005645901 0.36866208107506787 -0.17983903954966635
vn 0.983452578320703 -0.024481989502749484 0.17950392303331167
vn -0.983452578320703 0.024481989502749484 -0.17950392303331167
vn 0 0 1
vn 0 0 -1
vn 0.854695000354271 -0.4869850002018552 0.17983900007454315
vn -0.854695000354271 0.4869850002018552 -0.17983900007454315
vn 0.983452578320703 0.024481989502749407 0.17950392303331167
vn -0.983452578320703 -0.024481989502749407 -0.17950392303331167
vn 0.9530174797400663 0.24375312270303712 0.17983909052931255
vn 0.9120012005645901 0.36866208107506776 0.17983903954966654
vn -0.9530174797400663 -0.24375312270303712 -0.17983909052931255
vn -0.9120012005645901 -0.36866208107506776 -0.17983903954966654
vn 0.9770106340495 0.11449095711610337 0.1798389326392723
vn -0.9770106340495 -0.11449095711610337 -0.1798389326392723
vn 0.7821218510429525 -0.5966098863741666 0.17983896574922256
vn -0.7821218510429525 0.5966098863741666 -0.17983896574922256
vn 0.854695000354271 0.4869850002018552 0.17983900007454337
vn -0.854695000354271 -0.4869850002018552 -0.17983900007454337
vn 0.6955781481272081 -0.6955781481272081 0.17983903829771625
vn -0.6955781481272081 0.6955781481272081 -0.17983903829771625
vn 0.7821218510429523 0.5966098863741663 0.17983896574922278
vn -0.7821218510429523 -0.5966098863741663 -0.17983896574922278
vn 0.6955781481272081 0.6955781481272081 0.17983903829771655
vn -0.6955781481272081 -0.6955781481272081 -0.17983903829771655
vn 0.5966098863741666 -0.7821218510429525 0.1798389657492225
vn -0.5966098863741666 0.7821218510429525 -0.1798389657492225
vn 0.5966098863741663 0.7821218510429523 0.1798389657492228
vn -0.5966098863741663 -0.7821218510429523 -0.1798389657492228
vn 0.4869850002018552 -0.854695000354271 0.17983900007454307
vn -0.4869850002018552 0.854695000354271 -0.17983900007454307
vn 0.4869850002018552 0.854695000354271 0.17983900007454343
vn -0.4869850002018552 -0.854695000354271 -0.17983900007454343
vn 0.3686620810750678 -0.9120012005645901 0.17983903954966624
vn -0.3686620810750678 0.9120012005645901 -0.17983903954966624
vn 0.3686620810750678 0.9120012005645901 0.17983903954966665
vn -0.3686620810750678 -0.9120012005645901 -0.17983903954966665
vn 0.2437531227030372 -0.9530174797400665 0.17983909052931232
vn -0.2437531227030372 0.9530174797400665 -0.17983909052931232
vn 0.24375312270303717 0.9530174797400663 0.17983909052931268
vn -0.24375312270303717 -0.9530174797400663 -0.17983909052931268
vn 0.11449095711610342 -0.9770106340495 0.17983893263927206
vn -0.11449095711610342 0.9770106340495 -0.17983893263927206
vn 0.11449095711610342 0.9770106340495 0.1798389326392725
vn -0.11449095711610342 -0.9770106340495 -0.1798389326392725
vn 0.024481989502749445 -0.983452578320703 0.17950392303331145
vn -0.024481989502749445 0.983452578320703 -0.17950392303331145
vn 0.024481989502749445 0.983452578320703 0.1795039230333119
vn -0.024481989502749445 -0.983452578320703 -0.1795039230333119
vn -0.024481989502749445 -0.983452578320703 0.17950392303331145
vn 0.024481989502749445 0.983452578320703 -0.17950392303331145
vn -0.024481989502749445 0.983452578320703 0.1795039230333119
vn 0.024481989502749445 -0.983452578320703 -0.1795039230333119
vn -0.11449095711610342 -0.9770106340495 0.17983893263927206
vn 0.11449095711610342 0.9770106340495 -0.17983893263927206
vn -0.11449095711610342 0.9770106340495 0.1798389326392725
vn 0.11449095711610342 -0.9770106340495 -0.1798389326392725
vn -0.2437531227030372 -0.9530174797400665 0.17983909052931232
vn 0.2437531227030372 0.9530174797400665 -0.17983909052931232
vn -0.24375312270303717 0.9530174797400663 0.17983909052931268
vn 0.24375312270303717 -0.9530174797400663 -0.17983909052931268
vn -0.3686620810750678 -0.9120012005645901 0.17983903954966624
vn 0.3686620810750678 0.9120012005645901 -0.17983903954966624
vn -0.3686620810750678 0.9120012005645901 0.17983903954966665
vn 0.3686620810750678 -0.9120012005645901 -0.17983903954966665
vn -0.4869850002018552 -0.854695000354271 0.17983900007454307
vn 0.4869850002018552 0.854695000354271 -0.17983900007454307
vn -0.4869850002018552 0.854695000354271 0.17983900007454343
vn 0.4869850002018552 -0.854695000354271 -0.17983900007454343
vn -0.5966098863741666 -0.7821218510429525 0.1798389657492225
vn 0.5966098863741666 0.7821218510429525 -0.1798389657492225
vn -0.5966098863741663 0.7821218510429523 0.1798389657492228
vn 0.5966098863741663 -0.7821218510429523 -0.1798389657492228
vn -0.6955781481272081 -0.6955781481272081 0.17983903829771625
vn 0.6955781481272081 0.6955781481272081 -0.17983903829771625
vn -0.6955781481272081 0.6955781481272081 0.17983903829771655
vn 0.6955781481272081 -0.6955781481272081 -0.17983903829771655
vn -0.7821218510429525 -0.5966098863741666 0.17983896574922256
vn 0.7821218510429525 0.5966098863741666 -0.17983896574922256
vn -0.7821218510429523 0.5966098863741663 0.17983896574922278
vn 0.7821218510429523 -0.5966098863741663 -0.17983896574922278
vn -0.854695000354271 -0.4869850002018552 0.17983900007454315
vn 0.854695000354271 0.4869850002018552 -0.17983900007454315
vn -0.854695000354271 0.4869850002018552 0.17983900007454337
vn 0.854695000354271 -0.4869850002018552 -0.17983900007454337
vn -0.9120012005645901 -0.36866208107506787 0.17983903954966635
vn 0.9120012005645901 0.36866208107506787 -0.17983903954966635
vn -0.9120012005645901 0.36866208107506776 0.17983903954966654
vn 0.9120012005645901 -0.36866208107506776 -0.17983903954966654
vn -0.9530174797400663 -0.24375312270303723 0.17983909052931243
vn 0.9530174797400663 0.24375312270303723 -0.17983909052931243
vn -0.9530174797400663 0.24375312270303712 0.17983909052931255
vn 0.9530174797400663 -0.24375312270303712 -0.17983909052931255
vn -0.9770106340495 -0.11449095711610346 0.17983893263927225
vn 0.9770106340495 0.11449095711610346 -0.17983893263927225
vn -0.9770106340495 0.11449095711610337 0.1798389326392723
vn 0.9770106340495 -0.11449095711610337 -0.1798389326392723
vn -0.983452578320703 -0.024481989502749484 0.17950392303331167
vn 0.983452578320703 0.024481989502749484 -0.17950392303331167
vn -0.983452578320703 0.024481989502749407 0.17950392303331167
vn 0.983452578320703 -0.024481989502749407 -0.17950392303331167
vn -0.9837670920860148 0 0.17945001679750935
vn 0.9837670920860148 0 -0.17945001679750935
usemtl material_0_0
f 1//1 2//2 3//2
f 2//2 1//1 4//1
f 3//3 2//3 1//4
f 4//4 1//4 2//3
f 5//5 3//2 2//2
f 2//3 3//3 5//6
f 6//7 4//1 1//1
f 1//4 4//4 6//8
f 7//9 2//9 4//9
f 4//10 2//10 7//10
f 3//2 5//5 8//5
f 8//6 5//6 3//3
f 9//9 5//9 2//9
f 2//10 5//10 9//10
f 4//1 6//7 10//7
f 10//8 6//8 4//4
f 9//9 2//9 7//9
f 7//10 2//10 9//10
f 7//9 4//9 11//9
f 11//10 4//10 7//10
f 12//11 8//5 5//5
f 5//6 8//6 12//12
f 9//9 12//9 5//9
f 5//10 12//10 9//10
f 13//13 10//7 6//7
f 6//8 10//8 13//14
f 11//9 4//9 10//9
f 10//10 4//10 11//10
f 14//15 9//16 7//15
f 7//17 9//18 14//17
f 15//19 7//15 11//19
f 11//20 7//17 15//20
f 8//5 12//11 16//11
f 16//12 12//12 8//6
f 17//9 12//9 9//9
f 9//10 12//10 17//10
f 10//7 13//13 18//13
f 18//14 13//14 10//8
f 11//9 10//9 18//9
f 18//10 10//10 11//10
f 9//16 14//15 19//16
f 19//18 14//17 9//18
f 7//15 15//19 14//15
f 14//17 15//20 7//17
f 11//19 13//13 15//19
f 15//20 13//14 11//20
f 20//21 16//11 12//11
f 12//12 16//12 20//22
f 17//9 20//9 12//9
f 12//10 20//10 17//10
f 19//16 17//23 9//16
f 9//18 17//24 19//18
f 13//13 11//19 18//13
f 18//14 11//20 13//14
f 16//11 20//21 21//21
f 21//22 20//22 16//12
f 22//9 20//9 17//9
f 17//10 20//10 22//10
f 17//23 19//16 23//23
f 23//24 19//18 17//24
f 24//25 21//21 20//21
f 20//22 21//22 24//26
f 25//9 20//9 22//9
f 22//10 20//10 25//10
f 23//23 22//27 17//23
f 17//24 22//28 23//24
f 21//21 24//25 26//25
f 26//26 24//26 21//22
f 25//9 24//9 20//9
f 20//10 24//10 25//10
f 27//27 25//29 22//27
f 22//28 25//30 27//28
f 22//27 23//23 27//27
f 27//28 23//24 22//28
f 24//25 28//31 26//25
f 26//26 28//32 24//26
f 29//9 24//9 25//9
f 25//10 24//10 29//10
f 25//29 27//27 30//29
f 30//30 27//28 25//30
f 28//31 24//25 31//31
f 31//32 24//26 28//32
f 29//9 31//9 24//9
f 24//10 31//10 29//10
f 30//29 29//33 25//29
f 25//30 29//34 30//30
f 31//31 32//35 28//31
f 28//32 32//36 31//32
f 29//9 33//9 31//9
f 31//10 33//10 29//10
f 29//33 30//29 34//33
f 34//34 30//30 29//34
f 32//35 31//31 35//35
f 35//36 31//32 32//36
f 36//9 33//9 29//9
f 29//10 33//10 36//10
f 33//9 35//9 31//9
f 31//10 35//10 33//10
f 34//33 36//37 29//33
f 29//34 36//38 34//34
f 37//39 32//35 35//35
f 35//36 32//36 37//40
f 36//9 38//9 33//9
f 33//10 38//10 36//10
f 39//9 35//9 33//9
f 33//10 35//10 39//10
f 36//37 34//33 40//37
f 40//38 34//34 36//38
f 32//35 37//39 41//39
f 41//40 37//40 32//36
f 42//9 37//9 35//9
f 35//10 37//10 42//10
f 36//9 43//9 38//9
f 38//10 43//10 36//10
f 38//9 39//9 33//9
f 33//10 39//10 38//10
f 42//9 35//9 39//9
f 39//10 35//10 42//10
f 44//41 36//37 40//37
f 40//38 36//38 44//42
f 37//39 45//43 41//39
f 41//40 45//44 37//40
f 46//9 37//9 42//9
f 42//10 37//10 46//10
f 47//9 43//9 36//9
f 36//10 43//10 47//10
f 43//9 42//9 38//9
f 38//10 42//10 43//10
f 38//9 42//9 39//9
f 39//10 42//10 38//10
f 36//37 44//41 47//41
f 47//42 44//42 36//38
f 45//43 37//39 48//43
f 48//44 37//40 45//44
f 49//9 37//9 46//9
f 46//10 37//10 49//10
f 43//9 46//9 42//9
f 42//10 46//10 43//10
f 47//9 50//9 43//9
f 43//10 50//10 47//10
f 44//41 51//45 47//41
f 47//42 51//46 44//42
f 49//9 48//9 37//9
f 37//10 48//10 49//10
f 48//43 52//47 45//43
f 45//44 52//48 48//44
f 43//9 49//9 46//9
f 46//10 49//10 43//10
f 47//9 53//9 50//9
f 50//10 53//10 47//10
f 50//10 43//10 53//10
f 51//45 44//41 54//45
f 54//46 44//42 51//46
f 51//9 53//9 47//9
f 47//10 53//10 51//10
f 55//9 48//9 49//9
f 49//10 48//10 55//10
f 52//47 48//43 56//47
f 56//48 48//44 52//48
f 43//9 55//9 49//9
f 49//10 55//10 43//10
f 43//10 57//10 53//10
f 58//49 51//45 54//45
f 54//46 51//46 58//50
f 51//9 59//9 53//9
f 53//10 59//10 51//10
f 55//9 56//9 48//9
f 48//10 56//10 55//10
f 56//47 60//51 52//47
f 52//48 60//52 56//48
f 43//9 61//9 55//9
f 55//10 61//10 43//10
f 57//10 62//10 53//10
f 63//9 43//9 57//9
f 57//10 43//10 63//10
f 51//45 58//49 64//49
f 64//50 58//50 51//46
f 64//9 59//9 51//9
f 51//10 59//10 64//10
f 65//9 53//9 59//9
f 59//10 53//10 65//10
f 61//9 56//9 55//9
f 55//10 56//10 61//10
f 60//51 56//47 66//51
f 66//52 56//48 60//52
f 43//9 63//9 61//9
f 61//10 63//10 43//10
f 67//10 53//10 62//10
f 62//9 66//9 57//9
f 57//10 66//10 62//10
f 57//9 66//9 63//9
f 63//10 66//10 57//10
f 58//49 68//53 64//49
f 64//50 68//54 58//50
f 64//9 65//9 59//9
f 59//10 65//10 64//10
f 69//9 53//9 65//9
f 65//10 53//10 69//10
f 61//9 66//9 56//9
f 56//10 66//10 61//10
f 66//51 70//55 60//51
f 60//52 70//56 66//52
f 63//9 66//9 61//9
f 61//10 66//10 63//10
f 71//9 67//9 53//9
f 53//10 67//10 71//10
f 67//9 66//9 62//9
f 62//10 66//10 67//10
f 68//53 58//49 72//53
f 72//54 58//50 68//54
f 68//9 65//9 64//9
f 64//10 65//10 68//10
f 73//9 53//9 69//9
f 69//10 53//10 73//10
f 68//9 69//9 65//9
f 65//10 69//10 68//10
f 70//55 66//51 74//55
f 74//56 66//52 70//56
f 75//9 67//9 71//9
f 71//10 67//10 75//10
f 71//9 53//9 73//9
f 73//10 53//10 71//10
f 76//9 66//9 67//9
f 67//10 66//10 76//10
f 72//53 77//57 68//53
f 68//54 77//58 72//54
f 68//9 73//9 69//9
f 69//10 73//10 68//10
f 78//9 74//9 66//9
f 66//10 74//10 78//10
f 74//55 79//59 70//55
f 70//56 79//60 74//56
f 75//9 76//9 67//9
f 67//10 76//10 75//10
f 68//9 75//9 71//9
f 71//10 75//10 68//10
f 68//9 71//9 73//9
f 73//10 71//10 68//10
f 80//9 66//9 76//9
f 76//10 66//10 80//10
f 77//57 72//53 81//57
f 81//58 72//54 77//58
f 77//9 82//9 68//9
f 68//10 82//10 77//10
f 83//9 74//9 78//9
f 78//10 74//10 83//10
f 78//9 66//9 84//9
f 84//10 66//10 78//10
f 79//59 74//55 85//59
f 85//60 74//56 79//60
f 86//9 76//9 75//9
f 75//10 76//10 86//10
f 68//9 86//9 75//9
f 75//10 86//10 68//10
f 87//9 66//9 80//9
f 80//10 66//10 87//10
f 76//9 86//9 80//9
f 80//10 86//10 76//10
f 88//61 77//57 81//57
f 81//58 77//58 88//62
f 77//9 89//9 82//9
f 82//10 89//10 77//10
f 68//9 82//9 90//9
f 90//10 82//10 68//10
f 91//9 74//9 83//9
f 83//10 74//10 91//10
f 83//9 78//9 92//9
f 92//10 78//10 83//10
f 84//9 66//9 93//9
f 93//10 66//10 84//10
f 91//9 85//9 74//9
f 74//10 85//10 91//10
f 94//63 79//59 85//59
f 85//60 79//60 94//64
f 68//9 80//9 86//9
f 86//10 80//10 68//10
f 95//9 66//9 87//9
f 87//10 66//10 95//10
f 68//9 87//9 80//9
f 80//10 87//10 68//10
f 77//57 88//61 96//61
f 96//62 88//62 77//58
f 77//9 97//9 89//9
f 89//10 97//10 77//10
f 82//9 89//9 98//9
f 98//10 89//10 82//10
f 68//9 90//9 99//9
f 99//10 90//10 68//10
f 100//9 91//9 83//9
f 83//10 91//10 100//10
f 92//9 78//9 101//9
f 101//10 78//10 92//10
f 100//9 83//9 92//9
f 92//10 83//10 100//10
f 93//9 66//9 95//9
f 95//10 66//10 93//10
f 84//9 93//9 90//9
f 90//10 93//10 84//10
f 102//9 85//9 91//9
f 91//10 85//10 102//10
f 79//59 94//63 103//63
f 103//64 94//64 79//60
f 102//9 94//9 85//9
f 85//10 94//10 102//10
f 68//9 99//9 87//9
f 87//10 99//10 68//10
f 88//61 104//65 96//61
f 96//62 104//66 88//62
f 96//9 97//9 77//9
f 77//10 97//10 96//10
f 97//9 105//9 89//9
f 89//10 105//10 97//10
f 89//9 105//9 98//9
f 98//10 105//10 89//10
f 82//9 98//9 106//9
f 106//10 98//10 82//10
f 99//9 90//9 93//9
f 93//10 90//10 99//10
f 100//9 102//9 91//9
f 91//10 102//10 100//10
f 101//9 78//9 107//9
f 107//10 78//10 101//10
f 100//9 92//9 101//9
f 101//10 92//10 100//10
f 94//63 108//67 103//63
f 103//64 108//68 94//64
f 109//9 94//9 102//9
f 102//10 94//10 109//10
f 104//65 88//61 110//65
f 110//66 88//62 104//66
f 104//9 111//9 96//9
f 96//10 111//10 104//10
f 96//9 111//9 97//9
f 97//10 111//10 96//10
f 111//9 105//9 97//9
f 97//10 105//10 111//10
f 98//9 105//9 106//9
f 106//10 105//10 98//10
f 82//9 106//9 112//9
f 112//10 106//10 82//10
f 100//9 109//9 102//9
f 102//10 109//10 100//10
f 107//9 78//9 100//9
f 100//10 78//10 107//10
f 100//9 101//9 107//9
f 107//10 101//10 100//10
f 108//67 94//63 113//67
f 113//68 94//64 108//68
f 109//9 113//9 94//9
f 94//10 113//10 109//10
f 110//65 114//69 104//65
f 104//66 114//70 110//66
f 104//9 115//9 111//9
f 111//10 115//10 104//10
f 115//9 105//9 111//9
f 111//10 105//10 115//10
f 106//9 105//9 112//9
f 112//10 105//10 106//10
f 82//9 112//9 105//9
f 105//10 112//10 82//10
f 100//9 116//9 109//9
f 109//10 116//10 100//10
f 100//9 78//9 117//9
f 117//10 78//10 100//10
f 113//67 118//71 108//67
f 108//68 118//72 113//68
f 116//9 113//9 109//9
f 109//10 113//10 116//10
f 114//69 110//65 119//69
f 119//70 110//66 114//70
f 114//9 115//9 104//9
f 104//10 115//10 114//10
f 120//9 105//9 115//9
f 115//10 105//10 120//10
f 82//9 105//9 117//9
f 117//10 105//10 82//10
f 100//9 121//9 116//9
f 116//10 121//10 100//10
f 82//9 117//9 78//9
f 78//10 117//10 82//10
f 117//10 100//10 105//10
f 118//71 113//67 122//71
f 122//72 113//68 118//72
f 121//9 113//9 116//9
f 116//10 113//10 121//10
f 119//69 123//73 114//69
f 114//70 123//74 119//70
f 114//9 120//9 115//9
f 115//10 120//10 114//10
f 124//9 105//9 120//9
f 120//10 105//10 124//10
f 121//9 100//9 125//9
f 125//10 100//10 121//10
f 100//10 125//10 105//10
f 121//9 122//9 113//9
f 113//10 122//10 121//10
f 122//71 126//75 118//71
f 118//72 126//76 122//72
f 123//73 119//69 127//73
f 127//74 119//70 123//74
f 123//9 124//9 114//9
f 114//10 124//10 123//10
f 114//9 124//9 120//9
f 120//10 124//10 114//10
f 105//9 124//9 128//9
f 128//10 124//10 105//10
f 125//9 122//9 121//9
f 121//10 122//10 125//10
f 105//10 125//10 128//10
f 126//75 122//71 129//75
f 129//76 122//72 126//76
f 130//77 123//73 127//73
f 127//74 123//74 130//78
f 123//9 128//9 124//9
f 124//10 128//10 123//10
f 131//9 122//9 125//9
f 125//10 122//10 131//10
f 131//10 128//10 125//10
f 132//9 129//9 122//9
f 122//10 129//10 132//10
f 133//79 126//75 129//75
f 129//76 126//76 133//80
f 123//73 130//77 132//77
f 132//78 130//78 123//74
f 123//9 131//9 128//9
f 128//10 131//10 123//10
f 132//9 122//9 131//9
f 131//10 122//10 132//10
f 134//9 129//9 132//9
f 132//10 129//10 134//10
f 126//75 133//79 135//79
f 135//80 133//80 126//76
f 134//9 133//9 129//9
f 129//10 133//10 134//10
f 136//81 132//77 130//77
f 130//78 132//78 136//82
f 131//9 123//9 132//9
f 132//10 123//10 131//10
f 132//77 136//81 134//81
f 134//82 136//82 132//78
f 133//79 137//83 135//79
f 135//80 137//84 133//80
f 138//9 133//9 134//9
f 134//10 133//10 138//10
f 139//85 134//81 136//81
f 136//82 134//82 139//86
f 137//83 133//79 140//83
f 140//84 133//80 137//84
f 138//9 140//9 133//9
f 133//10 140//10 138//10
f 134//81 139//85 138//85
f 138//86 139//86 134//82
f 140//83 141//87 137//83
f 137//84 141//88 140//84
f 142//9 140//9 138//9
f 138//10 140//10 142//10
f 143//89 138//85 139//85
f 139//86 138//86 143//90
f 141//87 140//83 144//87
f 144//88 140//84 141//88
f 142//9 144//9 140//9
f 140//10 144//10 142//10
f 138//85 143//89 142//89
f 142//90 143//90 138//86
f 144//87 145//91 141//87
f 141//88 145//92 144//88
f 146//9 144//9 142//9
f 142//10 144//10 146//10
f 147//93 142//89 143//89
f 143//90 142//90 147//94
f 145//91 144//87 148//91
f 148//92 144//88 145//92
f 146//9 148//9 144//9
f 144//10 148//10 146//10
f 142//89 147//93 146//93
f 146//94 147//94 142//90
f 148//91 149//95 145//91
f 145//92 149//96 148//92
f 150//9 148//9 146//9
f 146//10 148//10 150//10
f 151//97 146//93 147//93
f 147//94 146//94 151//98
f 149//95 148//91 152//95
f 152//96 148//92 149//96
f 150//9 152//9 148//9
f 148//10 152//10 150//10
f 146//93 151//97 150//97
f 150//98 151//98 146//94
f 152//95 153//99 149//95
f 149//96 153//100 152//96
f 154//9 152//9 150//9
f 150//10 152//10 154//10
f 155//101 150//97 151//97
f 151//98 150//98 155//102
f 153//99 152//95 156//99
f 156//100 152//96 153//100
f 154//9 156//9 152//9
f 152//10 156//10 154//10
f 150//97 155//101 154//101
f 154//102 155//102 150//98
f 156//99 157//103 153//99
f 153//100 157//104 156//100
f 158//9 156//9 154//9
f 154//10 156//10 158//10
f 159//105 154//101 155//101
f 155//102 154//102 159//106
f 157//103 156//99 160//103
f 160//104 156//100 157//104
f 156//9 158//9 160//9
f 160//10 158//10 156//10
f 154//101 159//105 158//105
f 158//106 159//106 154//102
f 160//103 161//107 157//103
f 157//104 161//108 160//104
f 161//107 160//103 158//105
f 158//106 160//104 161//108
f 161//107 158//105 159//105
f 159//106 158//106 161//108
usemtl material_1_0
f 53//9 43//9 50//9
f 53//9 57//9 43//9
f 53//9 62//9 57//9
f 62//9 53//9 67//9
f 105//9 100//9 117//9
f 105//9 125//9 100//9
f 128//9 125//9 105//9
f 125//9 128//9 131//9
