# SSTK version 0.8.0
# 3
mtllib original-3.mtl
o mesh4/mesh4-geometry#mesh4-geometry
v -0.141251 0.241401 0.064463
v -0.141251 -0.208143 0.084332
v -0.141251 -0.208143 0.064463
v -0.141251 0.241401 0.084332
v -0.429809 -0.208143 0.064463
v -0.429809 0.241401 0.084332
v -0.167338 0.215313 0.084332
v -0.429809 -0.208143 0.084332
v -0.429809 0.241401 0.064463
v -0.403721 0.215313 0.084332
v -0.167338 -0.182056 0.084332
v -0.403721 -0.182056 0.084332
v -0.167338 0.215313 0.064463
v -0.403721 -0.182056 0.064463
v -0.167338 -0.182056 0.064463
vn 1 0 0
vn -1 0 0
vn 0 -1 0
vn 0 1 0
vn 0 0 1
vn 0 0 -1
usemtl material_0_0
f 1//1 2//1 3//1
f 2//1 1//1 4//1
f 3//2 2//2 1//2
f 4//2 1//2 2//2
f 2//3 5//3 3//3
f 3//4 5//4 2//4
f 1//4 6//4 4//4
f 4//3 6//3 1//3
f 4//5 7//5 2//5
f 2//6 7//6 4//6
f 5//3 2//3 8//3
f 8//4 2//4 5//4
f 6//4 1//4 9//4
f 9//3 1//3 6//3
f 6//5 10//5 4//5
f 4//6 10//6 6//6
f 4//5 10//5 7//5
f 7//6 10//6 4//6
f 11//5 2//5 7//5
f 7//6 2//6 11//6
f 12//5 8//5 2//5
f 2//6 8//6 12//6
f 6//2 5//2 8//2
f 8//1 5//1 6//1
f 5//2 6//2 9//2
f 9//1 6//1 5//1
f 10//5 6//5 12//5
f 12//6 6//6 10//6
f 12//5 2//5 11//5
f 11//6 2//6 12//6
f 11//1 13//1 7//1
f 7//2 13//2 11//2
f 8//5 12//5 6//5
f 6//6 12//6 8//6
f 14//3 11//3 12//3
f 12//4 11//4 14//4
f 13//1 11//1 15//1
f 15//2 11//2 13//2
f 11//3 14//3 15//3
f 15//4 14//4 11//4
