# SSTK version 0.8.0
# 5
mtllib original-5.mtl
o rocker1/rocker/mesh1/mesh1-geometry#mesh1-geometry
v 0.360225 0.215313 0.084332
v 0.360225 -0.180664 0.086128
v 0.360225 -0.182056 0.084332
v 0.360225 -0.179178 0.087848
v 0.123841 -0.182056 0.084332
v 0.360225 -0.177603 0.089486
v 0.123841 -0.180664 0.086128
v 0.123841 0.215313 0.084332
v 0.360225 -0.175944 0.091039
v 0.123841 -0.179178 0.087848
v 0.123841 0.214435 0.090615
v 0.360225 -0.174205 0.092502
v 0.123841 -0.175944 0.091039
v 0.123841 -0.177603 0.089486
v 0.360225 0.214435 0.090615
v 0.123841 0.213447 0.096883
v 0.360225 -0.172391 0.093870
v 0.123841 -0.174205 0.092502
v 0.360225 0.213447 0.096883
v 0.123841 0.212351 0.103132
v 0.360225 -0.170506 0.095141
v 0.123841 -0.172391 0.093870
v 0.360225 0.212351 0.103132
v 0.123841 0.211145 0.109361
v 0.360225 -0.168557 0.096309
v 0.123841 -0.170506 0.095141
v 0.360225 0.211145 0.109361
v 0.123841 0.209832 0.115568
v 0.360225 -0.166549 0.097373
v 0.123841 -0.168557 0.096309
v 0.360225 0.209832 0.115568
v 0.123841 0.208410 0.121752
v 0.360225 -0.164487 0.098329
v 0.123841 -0.166549 0.097373
v 0.360225 0.208410 0.121752
v 0.123841 0.206881 0.127909
v 0.360225 -0.162378 0.099174
v 0.123841 -0.164487 0.098329
v 0.360225 0.206881 0.127909
v 0.123841 0.205245 0.134039
v 0.360225 -0.160226 0.099907
v 0.123841 -0.162378 0.099174
v 0.360225 0.205245 0.134039
v 0.123841 0.203503 0.140140
v 0.360225 -0.131924 0.099447
v 0.123841 -0.160226 0.099907
v 0.360225 0.203503 0.140140
v 0.123841 0.201655 0.146210
v 0.360225 -0.103621 0.099857
v 0.123841 -0.131924 0.099447
v 0.360225 0.201655 0.146210
v 0.123841 0.199711 0.147776
v 0.360225 -0.075344 0.101137
v 0.123841 -0.103621 0.099857
v 0.360225 0.199711 0.147776
v 0.123841 0.197633 0.149160
v 0.360225 -0.047119 0.103285
v 0.123841 -0.075344 0.101137
v 0.360225 0.197633 0.149160
v 0.123841 0.195439 0.150351
v 0.360225 -0.018974 0.106300
v 0.123841 -0.047119 0.103285
v 0.360225 0.195439 0.150351
v 0.123841 0.193146 0.151338
v 0.360225 0.009065 0.110177
v 0.123841 -0.018974 0.106300
v 0.360225 0.193146 0.151338
v 0.123841 0.190773 0.152114
v 0.360225 0.036972 0.114915
v 0.123841 0.009065 0.110177
v 0.360225 0.190773 0.152114
v 0.123841 0.188340 0.152672
v 0.360225 0.064720 0.120508
v 0.123841 0.036972 0.114915
v 0.360225 0.188340 0.152672
v 0.123841 0.185866 0.153007
v 0.360225 0.092283 0.126951
v 0.123841 0.064720 0.120508
v 0.360225 0.185866 0.153007
v 0.123841 0.183372 0.153117
v 0.360225 0.119635 0.134238
v 0.123841 0.092283 0.126951
v 0.360225 0.183372 0.153117
v 0.123841 0.180879 0.153001
v 0.360225 0.146750 0.142362
v 0.123841 0.119635 0.134238
v 0.360225 0.180879 0.153001
v 0.123841 0.178696 0.152700
v 0.360225 0.173603 0.151315
v 0.123841 0.146750 0.142362
v 0.360225 0.178696 0.152700
v 0.123841 0.178406 0.152660
v 0.360225 0.178406 0.152660
v 0.123841 0.173603 0.151315
vn 1 0 0
vn -1 0 0
vn 0 -0.7738121649887653 0.6334151350539391
vn 0 -0.8979639685456697 -0.44006898458504384
vn 0 0.8979639685456697 0.44006898458504384
vn 0 0.7738121649887653 -0.6334151350539391
vn 0 0.754469768707897 -0.6563347987923941
vn 0 -0.754469768707897 0.6563347987923941
vn 0 -0.7391527801564084 0.6735377996720394
vn 0 0.7391527801564084 -0.6735377996720394
vn 0 -0.7024163245824441 0.7117663289030259
vn 0 0.7024163245824441 -0.7117663289030259
vn 0 0.989126688185279 0.1470659536385684
vn 0 -0.989126688185279 -0.1470659536385684
vn 0 -0.6637052153521342 0.7479942427013574
vn 0 0.6637052153521342 -0.7479942427013574
vn 0 -0.6231279380660711 0.7821199222635407
vn 0 0.6231279380660711 -0.7821199222635407
vn 0 0.9864160770331801 0.1642660128281905
vn 0 -0.9864160770331801 -0.1642660128281905
vn 0 -0.5807990009844544 0.8140470013798097
vn 0 0.5807990009844544 -0.8140470013798097
vn 0 0.9834062513955476 0.1814170463770061
vn 0 -0.9834062513955476 -0.1814170463770061
vn 0 -0.5368381563624568 0.8436852457364408
vn 0 0.5368381563624568 -0.8436852457364408
vn 0 0.9800982446457838 0.19851304955154328
vn 0 -0.9800982446457838 -0.19851304955154328
vn 0 -0.491368025126596 0.8709520445370049
vn 0 0.491368025126596 -0.8709520445370049
vn 0 0.9764932346743 0.2155480518012684
vn 0 -0.9764932346743 -0.2155480518012684
vn 0 -0.44451596472832633 0.8957709289219232
vn 0 0.44451596472832633 -0.8957709289219232
vn 0 0.9725920881226827 0.23251802106752875
vn 0 -0.9725920881226827 -0.23251802106752875
vn 0 -0.39641515593667126 0.9180713611390481
vn 0 0.39641515593667126 -0.9180713611390481
vn 0 0.9683959266246434 0.24941798110160027
vn 0 -0.9683959266246434 -0.24941798110160027
vn 0 -0.34720003477538364 0.9377910939286919
vn 0 0.34720003477538364 -0.9377910939286919
vn 0 0.9639062027094958 0.26624205599071027
vn 0 -0.9639062027094958 -0.26624205599071027
vn 0 -0.1552849558893735 0.9878697193832978
vn 0 0.1552849558893735 -0.9878697193832978
vn 0 0.9591243080702977 0.2829850908946843
vn 0 -0.9591243080702977 -0.2829850908946843
vn 0 0.0008729996673308816 0.9999996189357178
vn 0 -0.0008729996673308816 -0.9999996189357178
vn 0 0.8287040590099465 0.5596870398539164
vn 0 -0.8287040590099465 -0.5596870398539164
vn 0 -0.029857005383741052 0.9995541802371272
vn 0 0.029857005383741052 -0.9995541802371272
vn 0 0.5916367509819188 0.8062046606709483
vn 0 -0.5916367509819188 -0.8062046606709483
vn 0 -0.060557980664172936 0.998164681291558
vn 0 0.060557980664172936 -0.998164681291558
vn 0 0.5162592256814792 0.8564323743873531
vn 0 -0.5162592256814792 -0.8564323743873531
vn 0 -0.09120203752836933 0.9958324097711794
vn 0 0.09120203752836933 -0.9958324097711794
vn 0 0.436646160684725 0.8996333310628777
vn 0 -0.436646160684725 -0.8996333310628777
vn 0 -0.12175994817897708 0.9925595775667337
vn 0 0.12175994817897708 -0.9925595775667337
vn 0 0.3534510133233362 0.9354530352619027
vn 0 -0.3534510133233362 -0.9354530352619027
vn 0 -0.15220206129140193 0.9883493980059119
vn 0 0.15220206129140193 -0.9883493980059119
vn 0 0.26735502651774334 0.9635980955749637
vn 0 -0.26735502651774334 -0.9635980955749637
vn 0 -0.18250094037357625 0.983205678768568
vn 0 0.18250094037357625 -0.983205678768568
vn 0 0.17906601119834104 0.9838370615267121
vn 0 -0.17906601119834104 -0.9838370615267121
vn 0 -0.2126280461325301 0.9771332120022647
vn 0 0.2126280461325301 -0.9771332120022647
vn 0 0.0893080050512609 0.9960040563339909
vn 0 -0.0893080050512609 -0.9960040563339909
vn 0 -0.2425539779324401 0.9701379117368568
vn 0 0.2425539779324401 -0.9701379117368568
vn 0 -0.0011830003552018252 0.9999993002548351
vn 0 0.0011830003552018252 -0.9999993002548351
vn 0 -0.27225107050255476 0.9622262491795852
vn 0 0.27225107050255476 -0.9622262491795852
vn 0 -0.09166399940436733 0.9957899935293566
vn 0 0.09166399940436733 -0.9957899935293566
vn 0 -0.30169093056327595 0.953405780565581
vn 0 0.30169093056327595 -0.953405780565581
vn 0 -0.13666896882239507 0.9906167740155742
vn 0 0.13666896882239507 -0.9906167740155742
vn 0 -0.2930569920473125 0.9560949740544511
vn 0 0.2930569920473125 -0.9560949740544511
vn 0 -0.2036219163741251 0.9790495979122451
vn 0 0.2036219163741251 -0.9790495979122451
usemtl material_0_0
f 1//1 2//1 3//1
f 2//1 1//1 4//1
f 3//2 2//2 1//2
f 4//2 1//2 2//2
f 2//3 5//4 3//4
f 3//5 5//5 2//6
f 5//4 1//7 3//4
f 3//5 1//8 5//5
f 4//1 1//1 6//1
f 6//2 1//2 4//2
f 4//9 7//3 2//3
f 2//6 7//6 4//10
f 5//4 2//3 7//3
f 7//6 2//6 5//5
f 1//7 5//4 8//7
f 8//8 5//5 1//8
f 6//1 1//1 9//1
f 9//2 1//2 6//2
f 6//11 10//9 4//9
f 4//10 10//10 6//12
f 7//3 4//9 10//9
f 10//10 4//10 7//6
f 7//2 8//2 5//2
f 5//1 8//1 7//1
f 11//13 1//7 8//7
f 8//8 1//8 11//14
f 9//1 1//1 12//1
f 12//2 1//2 9//2
f 13//15 6//11 9//15
f 9//16 6//12 13//16
f 10//9 6//11 14//11
f 14//12 6//12 10//10
f 8//2 7//2 10//2
f 10//1 7//1 8//1
f 1//7 11//13 15//13
f 15//14 11//14 1//8
f 8//2 16//2 11//2
f 11//1 16//1 8//1
f 12//1 1//1 17//1
f 17//2 1//2 12//2
f 18//17 9//15 12//17
f 12//18 9//16 18//18
f 6//11 13//15 14//11
f 14//12 13//16 6//12
f 9//15 18//17 13//15
f 13//16 18//18 9//16
f 8//2 10//2 14//2
f 14//1 10//1 8//1
f 16//19 15//13 11//13
f 11//14 15//14 16//20
f 19//1 1//1 15//1
f 15//2 1//2 19//2
f 8//2 20//2 16//2
f 16//1 20//1 8//1
f 17//1 1//1 21//1
f 21//2 1//2 17//2
f 22//21 12//17 17//21
f 17//22 12//18 22//22
f 12//17 22//21 18//17
f 18//18 22//22 12//18
f 8//2 14//2 13//2
f 13//1 14//1 8//1
f 8//2 13//2 18//2
f 18//1 13//1 8//1
f 15//13 16//19 19//19
f 19//20 16//20 15//14
f 23//1 1//1 19//1
f 19//2 1//2 23//2
f 8//2 24//2 20//2
f 20//1 24//1 8//1
f 20//23 19//19 16//19
f 16//20 19//20 20//24
f 21//1 1//1 25//1
f 25//2 1//2 21//2
f 26//25 17//21 21//25
f 21//26 17//22 26//26
f 17//21 26//25 22//21
f 22//22 26//26 17//22
f 8//2 18//2 22//2
f 22//1 18//1 8//1
f 27//1 1//1 23//1
f 23//2 1//2 27//2
f 19//19 20//23 23//23
f 23//24 20//24 19//20
f 8//2 28//2 24//2
f 24//1 28//1 8//1
f 24//27 23//23 20//23
f 20//24 23//24 24//28
f 25//1 1//1 29//1
f 29//2 1//2 25//2
f 30//29 21//25 25//29
f 25//30 21//26 30//30
f 21//25 30//29 26//25
f 26//26 30//30 21//26
f 8//2 22//2 26//2
f 26//1 22//1 8//1
f 31//1 1//1 27//1
f 27//2 1//2 31//2
f 23//23 24//27 27//27
f 27//28 24//28 23//24
f 8//2 32//2 28//2
f 28//1 32//1 8//1
f 28//31 27//27 24//27
f 24//28 27//28 28//32
f 29//1 1//1 33//1
f 33//2 1//2 29//2
f 34//33 25//29 29//33
f 29//34 25//30 34//34
f 25//29 34//33 30//29
f 30//30 34//34 25//30
f 8//2 26//2 30//2
f 30//1 26//1 8//1
f 35//1 1//1 31//1
f 31//2 1//2 35//2
f 27//27 28//31 31//31
f 31//32 28//32 27//28
f 8//2 36//2 32//2
f 32//1 36//1 8//1
f 32//35 31//31 28//31
f 28//32 31//32 32//36
f 33//1 1//1 37//1
f 37//2 1//2 33//2
f 38//37 29//33 33//37
f 33//38 29//34 38//38
f 29//33 38//37 34//33
f 34//34 38//38 29//34
f 8//2 30//2 34//2
f 34//1 30//1 8//1
f 39//1 1//1 35//1
f 35//2 1//2 39//2
f 31//31 32//35 35//35
f 35//36 32//36 31//32
f 8//2 40//2 36//2
f 36//1 40//1 8//1
f 36//39 35//35 32//35
f 32//36 35//36 36//40
f 37//1 1//1 41//1
f 41//2 1//2 37//2
f 42//41 33//37 37//41
f 37//42 33//38 42//42
f 33//37 42//41 38//37
f 38//38 42//42 33//38
f 8//2 34//2 38//2
f 38//1 34//1 8//1
f 43//1 1//1 39//1
f 39//2 1//2 43//2
f 35//35 36//39 39//39
f 39//40 36//40 35//36
f 8//2 44//2 40//2
f 40//1 44//1 8//1
f 40//43 39//39 36//39
f 36//40 39//40 40//44
f 41//1 1//1 45//1
f 45//2 1//2 41//2
f 46//45 37//41 41//45
f 41//46 37//42 46//46
f 37//41 46//45 42//41
f 42//42 46//46 37//42
f 8//2 38//2 42//2
f 42//1 38//1 8//1
f 47//1 1//1 43//1
f 43//2 1//2 47//2
f 39//39 40//43 43//43
f 43//44 40//44 39//40
f 8//2 48//2 44//2
f 44//1 48//1 8//1
f 44//47 43//43 40//43
f 40//44 43//44 44//48
f 45//1 1//1 49//1
f 49//2 1//2 45//2
f 50//49 41//45 45//49
f 45//50 41//46 50//50
f 41//45 50//49 46//45
f 46//46 50//50 41//46
f 8//2 42//2 46//2
f 46//1 42//1 8//1
f 51//1 1//1 47//1
f 47//2 1//2 51//2
f 43//43 44//47 47//47
f 47//48 44//48 43//44
f 8//2 52//2 48//2
f 48//1 52//1 8//1
f 48//51 47//47 44//47
f 44//48 47//48 48//52
f 49//1 1//1 53//1
f 53//2 1//2 49//2
f 54//53 45//49 49//53
f 49//54 45//50 54//54
f 45//49 54//53 50//49
f 50//50 54//54 45//50
f 8//2 46//2 50//2
f 50//1 46//1 8//1
f 55//1 1//1 51//1
f 51//2 1//2 55//2
f 47//47 48//51 51//51
f 51//52 48//52 47//48
f 8//2 56//2 52//2
f 52//1 56//1 8//1
f 55//55 48//51 52//55
f 52//56 48//52 55//56
f 53//1 1//1 57//1
f 57//2 1//2 53//2
f 58//57 49//53 53//57
f 53//58 49//54 58//58
f 49//53 58//57 54//53
f 54//54 58//58 49//54
f 8//2 50//2 54//2
f 54//1 50//1 8//1
f 59//1 1//1 55//1
f 55//2 1//2 59//2
f 48//51 55//55 51//51
f 51//52 55//56 48//52
f 8//2 60//2 56//2
f 56//1 60//1 8//1
f 59//59 52//55 56//59
f 56//60 52//56 59//60
f 52//55 59//59 55//55
f 55//56 59//60 52//56
f 57//1 1//1 61//1
f 61//2 1//2 57//2
f 62//61 53//57 57//61
f 57//62 53//58 62//62
f 53//57 62//61 58//57
f 58//58 62//62 53//58
f 8//2 54//2 58//2
f 58//1 54//1 8//1
f 63//1 1//1 59//1
f 59//2 1//2 63//2
f 8//2 64//2 60//2
f 60//1 64//1 8//1
f 63//63 56//59 60//63
f 60//64 56//60 63//64
f 56//59 63//63 59//59
f 59//60 63//64 56//60
f 61//1 1//1 65//1
f 65//2 1//2 61//2
f 66//65 57//61 61//65
f 61//66 57//62 66//66
f 57//61 66//65 62//61
f 62//62 66//66 57//62
f 8//2 58//2 62//2
f 62//1 58//1 8//1
f 67//1 1//1 63//1
f 63//2 1//2 67//2
f 8//2 68//2 64//2
f 64//1 68//1 8//1
f 67//67 60//63 64//67
f 64//68 60//64 67//68
f 60//63 67//67 63//63
f 63//64 67//68 60//64
f 65//1 1//1 69//1
f 69//2 1//2 65//2
f 70//69 61//65 65//69
f 65//70 61//66 70//70
f 61//65 70//69 66//65
f 66//66 70//70 61//66
f 8//2 62//2 66//2
f 66//1 62//1 8//1
f 71//1 1//1 67//1
f 67//2 1//2 71//2
f 8//2 72//2 68//2
f 68//1 72//1 8//1
f 71//71 64//67 68//71
f 68//72 64//68 71//72
f 64//67 71//71 67//67
f 67//68 71//72 64//68
f 69//1 1//1 73//1
f 73//2 1//2 69//2
f 74//73 65//69 69//73
f 69//74 65//70 74//74
f 65//69 74//73 70//69
f 70//70 74//74 65//70
f 8//2 66//2 70//2
f 70//1 66//1 8//1
f 75//1 1//1 71//1
f 71//2 1//2 75//2
f 8//2 76//2 72//2
f 72//1 76//1 8//1
f 75//75 68//71 72//75
f 72//76 68//72 75//76
f 68//71 75//75 71//71
f 71//72 75//76 68//72
f 73//1 1//1 77//1
f 77//2 1//2 73//2
f 78//77 69//73 73//77
f 73//78 69//74 78//78
f 69//73 78//77 74//73
f 74//74 78//78 69//74
f 8//2 70//2 74//2
f 74//1 70//1 8//1
f 79//1 1//1 75//1
f 75//2 1//2 79//2
f 8//2 80//2 76//2
f 76//1 80//1 8//1
f 79//79 72//75 76//79
f 76//80 72//76 79//80
f 72//75 79//79 75//75
f 75//76 79//80 72//76
f 77//1 1//1 81//1
f 81//2 1//2 77//2
f 82//81 73//77 77//81
f 77//82 73//78 82//82
f 73//77 82//81 78//77
f 78//78 82//82 73//78
f 8//2 74//2 78//2
f 78//1 74//1 8//1
f 83//1 1//1 79//1
f 79//2 1//2 83//2
f 8//2 84//2 80//2
f 80//1 84//1 8//1
f 83//83 76//79 80//83
f 80//84 76//80 83//84
f 76//79 83//83 79//79
f 79//80 83//84 76//80
f 81//1 1//1 85//1
f 85//2 1//2 81//2
f 86//85 77//81 81//85
f 81//86 77//82 86//86
f 77//81 86//85 82//81
f 82//82 86//86 77//82
f 8//2 78//2 82//2
f 82//1 78//1 8//1
f 87//1 1//1 83//1
f 83//2 1//2 87//2
f 8//2 88//2 84//2
f 84//1 88//1 8//1
f 87//87 80//83 84//87
f 84//88 80//84 87//88
f 80//83 87//87 83//83
f 83//84 87//88 80//84
f 85//1 1//1 89//1
f 89//2 1//2 85//2
f 90//89 81//85 85//89
f 85//90 81//86 90//90
f 81//85 90//89 86//85
f 86//86 90//90 81//86
f 8//2 82//2 86//2
f 86//1 82//1 8//1
f 91//1 1//1 87//1
f 87//2 1//2 91//2
f 8//2 92//2 88//2
f 88//1 92//1 8//1
f 91//91 84//87 88//91
f 88//92 84//88 91//92
f 84//87 91//91 87//87
f 87//88 91//92 84//88
f 89//1 1//1 93//1
f 93//2 1//2 89//2
f 94//93 85//89 89//93
f 89//94 85//90 94//94
f 85//89 94//93 90//89
f 90//90 94//94 85//90
f 8//2 86//2 90//2
f 90//1 86//1 8//1
f 93//1 1//1 91//1
f 91//2 1//2 93//2
f 8//2 94//2 92//2
f 92//1 94//1 8//1
f 93//95 88//91 92//95
f 92//96 88//92 93//96
f 88//91 93//95 91//91
f 91//92 93//96 88//92
f 92//95 89//93 93//95
f 93//96 89//94 92//96
f 89//93 92//95 94//93
f 94//94 92//96 89//94
f 8//2 90//2 94//2
f 94//1 90//1 8//1
