# SSTK version 0.8.0
# 17
mtllib original-17.mtl
o #ID70
v -0.118602 0.012002 -0.533174
v -0.212644 -0.030317 -0.533174
v -0.212644 0.012002 -0.533174
v -0.118602 -0.030317 -0.533174
v -0.118602 0.012002 -0.312176
v -0.142112 0.012002 -0.415622
v -0.212644 0.012002 -0.312176
v -0.118602 0.012002 -0.533174
v -0.142112 0.012002 -0.422675
v -0.142112 0.012002 -0.509664
v -0.189133 0.012002 -0.509664
v -0.189133 0.012002 -0.415622
v -0.212644 0.012002 -0.533174
v -0.189133 0.012002 -0.422675
v -0.189133 0.012002 -0.439132
v -0.118602 -0.030317 -0.312176
v -0.118602 0.012002 -0.533174
v -0.118602 0.012002 -0.312176
v -0.118602 -0.030317 -0.533174
v -0.212644 -0.030317 -0.312176
v -0.189133 -0.030317 -0.415622
v -0.118602 -0.030317 -0.312176
v -0.212644 -0.030317 -0.533174
v -0.189133 -0.030317 -0.422675
v -0.189133 -0.030317 -0.439132
v -0.189133 -0.030317 -0.509664
v -0.142112 -0.030317 -0.509664
v -0.142112 -0.030317 -0.415622
v -0.118602 -0.030317 -0.533174
v -0.142112 -0.030317 -0.422675
v -0.212644 -0.030317 -0.533174
v -0.212644 0.012002 -0.312176
v -0.212644 0.012002 -0.533174
v -0.212644 -0.030317 -0.312176
vn 0 0 -1
vn 0 0 1
vn 0 1 0
vn 0 -1 0
vn 1 0 0
vn -1 0 0
usemtl material_0_2
f 1//1 2//1 3//1
f 3//2 2//2 1//2
f 2//1 1//1 4//1
f 4//2 1//2 2//2
f 5//3 6//3 7//3
f 7//4 6//4 5//4
f 6//3 5//3 8//3
f 8//4 5//4 6//4
f 6//3 8//3 9//3
f 9//4 8//4 6//4
f 9//3 8//3 10//3
f 10//4 8//4 9//4
f 10//3 8//3 11//3
f 11//4 8//4 10//4
f 7//3 12//3 13//3
f 13//4 12//4 7//4
f 12//3 7//3 6//3
f 6//4 7//4 12//4
f 13//3 12//3 14//3
f 14//4 12//4 13//4
f 13//3 14//3 15//3
f 15//4 14//4 13//4
f 13//3 15//3 11//3
f 11//4 15//4 13//4
f 13//3 11//3 8//3
f 8//4 11//4 13//4
f 16//5 17//5 18//5
f 18//6 17//6 16//6
f 17//5 16//5 19//5
f 19//6 16//6 17//6
f 20//4 21//4 22//4
f 22//3 21//3 20//3
f 21//4 20//4 23//4
f 23//3 20//3 21//3
f 21//4 23//4 24//4
f 24//3 23//3 21//3
f 24//4 23//4 25//4
f 25//3 23//3 24//3
f 25//4 23//4 26//4
f 26//3 23//3 25//3
f 26//4 23//4 27//4
f 27//3 23//3 26//3
f 22//4 28//4 29//4
f 29//3 28//3 22//3
f 28//4 22//4 21//4
f 21//3 22//3 28//3
f 29//4 28//4 30//4
f 30//3 28//3 29//3
f 29//4 30//4 27//4
f 27//3 30//3 29//3
f 29//4 27//4 23//4
f 23//3 27//3 29//3
f 31//6 32//6 33//6
f 33//5 32//5 31//5
f 32//6 31//6 34//6
f 34//5 31//5 32//5
