# SSTK version 0.8.0
# 28
mtllib original-28.mtl
o #ID128
v -0.137306 0.027352 0.148629
v -0.123214 0.061374 0.496583
v -0.123214 0.061374 0.148629
v -0.137306 0.027352 0.496583
v 0.135206 0.027352 0.496583
v 0.135206 -0.045667 0.496583
v 0.140013 -0.009158 0.496583
v 0.121114 0.061374 0.496583
v 0.121114 -0.079689 0.496583
v 0.098697 0.090589 0.496583
v 0.098697 -0.108904 0.496583
v 0.069482 0.113006 0.496583
v 0.069482 -0.131321 0.496583
v 0.035460 0.127098 0.496583
v 0.035460 -0.145414 0.496583
v -0.001050 0.131905 0.496583
v 0.017759 -0.138465 0.496583
v -0.019858 -0.138465 0.496583
v -0.037559 0.127098 0.496583
v -0.019858 -0.147744 0.496583
v -0.037559 -0.145414 0.496583
v -0.071581 0.113006 0.496583
v -0.071581 -0.131321 0.496583
v -0.100796 0.090589 0.496583
v -0.100796 -0.108904 0.496583
v -0.123214 0.061374 0.496583
v -0.123214 -0.079689 0.496583
v -0.137306 0.027352 0.496583
v -0.137306 -0.045667 0.496583
v -0.142112 -0.009158 0.496583
v 0.017759 -0.147744 0.496583
v -0.100796 0.090589 0.496583
v -0.100796 0.090589 0.148629
v -0.142112 -0.009158 0.148629
v -0.142112 -0.009158 0.496583
v -0.019858 -0.147744 0.496583
v -0.037559 -0.145414 0.148629
v -0.019858 -0.147744 0.148629
v -0.037559 -0.145414 0.496583
v -0.019858 -0.147744 0.496583
v -0.019858 -0.138465 0.148629
v -0.019858 -0.138465 0.496583
v -0.019858 -0.147744 0.148629
v 0.017759 -0.138465 0.496583
v -0.019858 -0.138465 0.148629
v 0.017759 -0.138465 0.148629
v -0.019858 -0.138465 0.496583
v 0.017759 -0.147744 0.148629
v 0.017759 -0.138465 0.496583
v 0.017759 -0.138465 0.148629
v 0.017759 -0.147744 0.496583
v 0.035460 -0.145414 0.148629
v 0.017759 -0.147744 0.496583
v 0.017759 -0.147744 0.148629
v 0.035460 -0.145414 0.496583
v 0.069482 -0.131321 0.496583
v 0.069482 -0.131321 0.148629
v 0.098697 -0.108904 0.496583
v 0.098697 -0.108904 0.148629
v 0.121114 -0.079689 0.148629
v 0.121114 -0.079689 0.496583
v 0.135206 -0.045667 0.148629
v 0.135206 -0.045667 0.496583
v 0.140013 -0.009158 0.148629
v 0.140013 -0.009158 0.496583
v 0.135206 0.027352 0.148629
v 0.135206 0.027352 0.496583
v 0.121114 0.061374 0.148629
v 0.121114 0.061374 0.496583
v 0.098697 0.090589 0.148629
v 0.098697 0.090589 0.496583
v 0.069482 0.113006 0.496583
v 0.069482 0.113006 0.148629
v 0.035460 0.127098 0.496583
v 0.035460 0.127098 0.148629
v -0.001050 0.131905 0.496583
v -0.001050 0.131905 0.148629
v -0.037559 0.127098 0.496583
v -0.037559 0.127098 0.148629
v -0.071581 0.113006 0.496583
v -0.071581 0.113006 0.148629
v -0.137306 -0.045667 0.148629
v -0.137306 -0.045667 0.496583
v -0.123214 -0.079689 0.148629
v -0.123214 -0.079689 0.496583
v -0.100796 -0.108904 0.148629
v -0.100796 -0.108904 0.496583
v -0.071581 -0.131321 0.496583
v -0.071581 -0.131321 0.148629
vn -0.9659258358036645 0.25881900959356163 0
vn -0.866025402838329 0.5000000016387101 0
vn 0.9659258358036645 -0.25881900959356163 0
vn 0.866025402838329 -0.5000000016387101 0
vn 0 0 1
vn 0 0 -1
vn -0.7071067811865476 0.7071067811865476 0
vn 0.7071067811865476 -0.7071067811865476 0
vn -1 0 0
vn 1 0 0
vn -0.1305261948688555 -0.9914448610250887 0
vn -0.25881900959356163 -0.9659258358036645 0
vn 0.1305261948688555 0.9914448610250887 0
vn 0.25881900959356163 0.9659258358036645 0
vn 0 -1 0
vn 0 1 0
vn 0.25881900959356163 -0.9659258358036645 0
vn 0.1305261948688555 -0.9914448610250887 0
vn -0.25881900959356163 0.9659258358036645 0
vn -0.1305261948688555 0.9914448610250887 0
vn 0.5000000016387101 -0.866025402838329 0
vn -0.5000000016387101 0.866025402838329 0
vn 0.9659258358036645 0.25881900959356163 0
vn -0.9659258358036645 -0.25881900959356163 0
vn 0.866025402838329 0.5000000016387101 0
vn -0.866025402838329 -0.5000000016387101 0
vn 0.7071067811865476 0.7071067811865476 0
vn -0.7071067811865476 -0.7071067811865476 0
vn 0.5000000016387101 0.866025402838329 0
vn -0.5000000016387101 -0.866025402838329 0
usemtl material_0_2
f 1//1 2//2 3//2
f 3//4 2//4 1//3
f 2//2 1//1 4//1
f 4//3 1//3 2//4
f 5//5 6//5 7//5
f 7//6 6//6 5//6
f 6//5 5//5 8//5
f 8//6 5//6 6//6
f 6//5 8//5 9//5
f 9//6 8//6 6//6
f 9//5 8//5 10//5
f 10//6 8//6 9//6
f 9//5 10//5 11//5
f 11//6 10//6 9//6
f 11//5 10//5 12//5
f 12//6 10//6 11//6
f 11//5 12//5 13//5
f 13//6 12//6 11//6
f 13//5 12//5 14//5
f 14//6 12//6 13//6
f 13//5 14//5 15//5
f 15//6 14//6 13//6
f 15//5 14//5 16//5
f 16//6 14//6 15//6
f 15//5 16//5 17//5
f 17//6 16//6 15//6
f 17//5 16//5 18//5
f 18//6 16//6 17//6
f 18//5 16//5 19//5
f 19//6 16//6 18//6
f 18//5 19//5 20//5
f 20//6 19//6 18//6
f 20//5 19//5 21//5
f 21//6 19//6 20//6
f 21//5 19//5 22//5
f 22//6 19//6 21//6
f 21//5 22//5 23//5
f 23//6 22//6 21//6
f 23//5 22//5 24//5
f 24//6 22//6 23//6
f 23//5 24//5 25//5
f 25//6 24//6 23//6
f 25//5 24//5 26//5
f 26//6 24//6 25//6
f 25//5 26//5 27//5
f 27//6 26//6 25//6
f 27//5 26//5 28//5
f 28//6 26//6 27//6
f 27//5 28//5 29//5
f 29//6 28//6 27//6
f 29//5 28//5 30//5
f 30//6 28//6 29//6
f 31//5 15//5 17//5
f 17//6 15//6 31//6
f 3//2 32//7 33//7
f 33//8 32//8 3//4
f 32//7 3//2 2//2
f 2//4 3//4 32//8
f 34//9 4//1 1//1
f 1//3 4//3 34//10
f 4//1 34//9 35//9
f 35//10 34//10 4//3
f 36//11 37//12 38//11
f 38//13 37//14 36//13
f 37//12 36//11 39//12
f 39//14 36//13 37//14
f 40//10 41//10 42//10
f 42//9 41//9 40//9
f 41//10 40//10 43//10
f 43//9 40//9 41//9
f 44//15 45//15 46//15
f 46//16 45//16 44//16
f 45//15 44//15 47//15
f 47//16 44//16 45//16
f 48//9 49//9 50//9
f 50//10 49//10 48//10
f 49//9 48//9 51//9
f 51//10 48//10 49//10
f 52//17 53//18 54//18
f 54//20 53//20 52//19
f 53//18 52//17 55//17
f 55//19 52//19 53//20
f 56//21 52//17 57//21
f 57//22 52//19 56//22
f 52//17 56//21 55//17
f 55//19 56//22 52//19
f 58//8 57//21 59//8
f 59//7 57//22 58//7
f 57//21 58//8 56//21
f 56//22 58//7 57//22
f 58//8 60//4 61//4
f 61//2 60//2 58//7
f 60//4 58//8 59//8
f 59//7 58//7 60//2
f 61//4 62//3 63//3
f 63//1 62//1 61//2
f 62//3 61//4 60//4
f 60//2 61//2 62//1
f 63//3 64//10 65//10
f 65//9 64//9 63//1
f 64//10 63//3 62//3
f 62//1 63//1 64//9
f 65//10 66//23 67//23
f 67//24 66//24 65//9
f 66//23 65//10 64//10
f 64//9 65//9 66//24
f 67//23 68//25 69//25
f 69//26 68//26 67//24
f 68//25 67//23 66//23
f 66//24 67//24 68//26
f 69//25 70//27 71//27
f 71//28 70//28 69//26
f 70//27 69//25 68//25
f 68//26 69//26 70//28
f 72//29 70//27 73//29
f 73//30 70//28 72//30
f 70//27 72//29 71//27
f 71//28 72//30 70//28
f 74//14 73//29 75//14
f 75//12 73//30 74//12
f 73//29 74//14 72//29
f 72//30 74//12 73//30
f 76//16 75//14 77//16
f 77//15 75//12 76//15
f 75//14 76//16 74//14
f 74//12 76//15 75//12
f 78//19 77//16 79//19
f 79//17 77//15 78//17
f 77//16 78//19 76//16
f 76//15 78//17 77//15
f 80//22 79//19 81//22
f 81//21 79//17 80//21
f 79//19 80//22 78//19
f 78//17 80//21 79//17
f 32//7 81//22 33//7
f 33//8 81//21 32//8
f 81//22 32//7 80//22
f 80//21 32//8 81//21
f 82//24 35//9 34//9
f 34//10 35//10 82//23
f 35//9 82//24 83//24
f 83//23 82//23 35//10
f 84//26 83//24 82//24
f 82//23 83//23 84//25
f 83//24 84//26 85//26
f 85//25 84//25 83//23
f 86//28 85//26 84//26
f 84//25 85//25 86//27
f 85//26 86//28 87//28
f 87//27 86//27 85//25
f 88//30 86//28 89//30
f 89//29 86//27 88//29
f 86//28 88//30 87//28
f 87//27 88//29 86//27
f 39//12 89//30 37//12
f 37//14 89//29 39//14
f 89//30 39//12 88//30
f 88//29 39//14 89//29
