# SSTK version 0.8.0
# 29
mtllib original-29.mtl
o #ID134
v 0.309288 -0.314793 0.148629
v 0.309288 0.296478 0.143926
v 0.309288 0.296478 0.148629
v 0.309288 0.225947 0.143926
v 0.309288 -0.244262 0.143926
v 0.309288 0.225947 -0.124093
v 0.309288 -0.314793 0.143926
v 0.309288 -0.244262 -0.124093
v 0.304586 0.225947 0.143926
v 0.309288 0.225947 -0.124093
v 0.304586 0.225947 -0.124093
v 0.309288 0.225947 0.143926
v -0.311387 0.296478 0.148629
v 0.309288 0.296478 0.143926
v -0.311387 0.296478 0.143926
v 0.309288 0.296478 0.148629
v -0.019858 -0.138465 0.148629
v 0.017759 -0.147744 0.148629
v 0.017759 -0.138465 0.148629
v 0.309288 0.296478 0.148629
v 0.121114 0.061374 0.148629
v 0.309288 -0.314793 0.148629
v 0.098697 0.090589 0.148629
v 0.069482 0.113006 0.148629
v -0.311387 0.296478 0.148629
v 0.135206 0.027352 0.148629
v 0.140013 -0.009158 0.148629
v 0.035460 0.127098 0.148629
v -0.001050 0.131905 0.148629
v -0.037559 0.127098 0.148629
v -0.071581 0.113006 0.148629
v -0.100796 0.090589 0.148629
v -0.123214 0.061374 0.148629
v -0.137306 0.027352 0.148629
v -0.142112 -0.009158 0.148629
v 0.069482 -0.131321 0.148629
v -0.311387 -0.314793 0.148629
v 0.098697 -0.108904 0.148629
v 0.121114 -0.079689 0.148629
v 0.135206 -0.045667 0.148629
v 0.035460 -0.145414 0.148629
v -0.019858 -0.147744 0.148629
v -0.037559 -0.145414 0.148629
v -0.071581 -0.131321 0.148629
v -0.100796 -0.108904 0.148629
v -0.123214 -0.079689 0.148629
v -0.137306 -0.045667 0.148629
v 0.309288 -0.314793 0.148629
v -0.311387 -0.314793 0.143926
v 0.309288 -0.314793 0.143926
v -0.311387 -0.314793 0.148629
v 0.309288 -0.244262 0.143926
v 0.304586 -0.244262 -0.124093
v 0.309288 -0.244262 -0.124093
v 0.304586 -0.244262 0.143926
v 0.309288 -0.244262 -0.124093
v 0.304586 0.225947 -0.124093
v 0.309288 0.225947 -0.124093
v 0.304586 -0.244262 -0.124093
v -0.311387 -0.244262 -0.124093
v -0.311387 0.225947 0.143926
v -0.311387 0.225947 -0.124093
v -0.311387 0.296478 0.148629
v -0.311387 0.296478 0.143926
v -0.311387 -0.314793 0.148629
v -0.311387 -0.244262 0.143926
v -0.311387 -0.314793 0.143926
v -0.311387 0.225947 0.143926
v -0.306685 0.225947 -0.124093
v -0.311387 0.225947 -0.124093
v -0.306685 0.225947 0.143926
v -0.311387 -0.244262 -0.124093
v -0.306685 0.225947 -0.124093
v -0.306685 -0.244262 -0.124093
v -0.311387 0.225947 -0.124093
v -0.306685 -0.244262 0.143926
v -0.311387 -0.244262 -0.124093
v -0.306685 -0.244262 -0.124093
v -0.311387 -0.244262 0.143926
vn 1 0 0
vn -1 0 0
vn 0 1 0
vn 0 -1 0
vn 0 0 1
vn 0 0 -1
usemtl material_0_2
f 1//1 2//1 3//1
f 3//2 2//2 1//2
f 2//1 1//1 4//1
f 4//2 1//2 2//2
f 4//1 1//1 5//1
f 5//2 1//2 4//2
f 4//1 5//1 6//1
f 6//2 5//2 4//2
f 5//1 1//1 7//1
f 7//2 1//2 5//2
f 8//1 6//1 5//1
f 5//2 6//2 8//2
f 9//3 10//3 11//3
f 11//4 10//4 9//4
f 10//3 9//3 12//3
f 12//4 9//4 10//4
f 13//3 14//3 15//3
f 15//4 14//4 13//4
f 14//3 13//3 16//3
f 16//4 13//4 14//4
f 17//5 18//5 19//5
f 19//6 18//6 17//6
f 20//5 21//5 22//5
f 22//6 21//6 20//6
f 21//5 20//5 23//5
f 23//6 20//6 21//6
f 23//5 20//5 24//5
f 24//6 20//6 23//6
f 24//5 20//5 25//5
f 25//6 20//6 24//6
f 22//5 21//5 26//5
f 26//6 21//6 22//6
f 22//5 26//5 27//5
f 27//6 26//6 22//6
f 24//5 25//5 28//5
f 28//6 25//6 24//6
f 28//5 25//5 29//5
f 29//6 25//6 28//6
f 29//5 25//5 30//5
f 30//6 25//6 29//6
f 30//5 25//5 31//5
f 31//6 25//6 30//6
f 31//5 25//5 32//5
f 32//6 25//6 31//6
f 32//5 25//5 33//5
f 33//6 25//6 32//6
f 33//5 25//5 34//5
f 34//6 25//6 33//6
f 34//5 25//5 35//5
f 35//6 25//6 34//6
f 22//5 36//5 37//5
f 37//6 36//6 22//6
f 36//5 22//5 38//5
f 38//6 22//6 36//6
f 38//5 22//5 39//5
f 39//6 22//6 38//6
f 39//5 22//5 40//5
f 40//6 22//6 39//6
f 40//5 22//5 27//5
f 27//6 22//6 40//6
f 37//5 36//5 41//5
f 41//6 36//6 37//6
f 37//5 41//5 18//5
f 18//6 41//6 37//6
f 37//5 18//5 42//5
f 42//6 18//6 37//6
f 42//5 18//5 17//5
f 17//6 18//6 42//6
f 37//5 42//5 43//5
f 43//6 42//6 37//6
f 37//5 43//5 44//5
f 44//6 43//6 37//6
f 37//5 44//5 45//5
f 45//6 44//6 37//6
f 37//5 45//5 46//5
f 46//6 45//6 37//6
f 37//5 46//5 47//5
f 47//6 46//6 37//6
f 37//5 47//5 35//5
f 35//6 47//6 37//6
f 37//5 35//5 25//5
f 25//6 35//6 37//6
f 48//4 49//4 50//4
f 50//3 49//3 48//3
f 49//4 48//4 51//4
f 51//3 48//3 49//3
f 52//4 53//4 54//4
f 54//3 53//3 52//3
f 53//4 52//4 55//4
f 55//3 52//3 53//3
f 56//6 57//6 58//6
f 58//5 57//5 56//5
f 57//6 56//6 59//6
f 59//5 56//5 57//5
f 60//2 61//2 62//2
f 62//1 61//1 60//1
f 61//2 63//2 64//2
f 64//1 63//1 61//1
f 63//2 61//2 65//2
f 65//1 61//1 63//1
f 65//2 61//2 66//2
f 66//1 61//1 65//1
f 66//2 61//2 60//2
f 60//1 61//1 66//1
f 65//2 66//2 67//2
f 67//1 66//1 65//1
f 68//3 69//3 70//3
f 70//4 69//4 68//4
f 69//3 68//3 71//3
f 71//4 68//4 69//4
f 72//6 73//6 74//6
f 74//5 73//5 72//5
f 73//6 72//6 75//6
f 75//5 72//5 73//5
f 76//4 77//4 78//4
f 78//3 77//3 76//3
f 77//4 76//4 79//4
f 79//3 76//3 77//3
