# SSTK version 0.8.0
# 2
mtllib original-2.mtl
o mesh2/mesh2-geometry#mesh2-geometry
v 0.191967 -0.312888 0.044866
v -0.245220 -0.312888 0.047723
v -0.245220 -0.312888 0.044866
v -0.242363 -0.312888 0.047723
v -0.242363 -0.312888 0.057724
v -0.239505 -0.312888 0.057724
v 0.191967 -0.312888 0.057724
v 0.191967 0.312739 0.057724
v 0.191967 -0.312888 0.253458
v -0.239505 -0.312888 0.253458
v -0.239505 0.312739 0.057724
v 0.191967 0.312739 0.047723
v -0.242363 0.312739 0.047723
v -0.242363 0.312739 0.057724
v 0.191967 0.315746 0.047723
v 0.191967 0.315746 0.044866
vt -278.658191 -20
vt -202.158191 -20.5
vt -202.158191 -20
vt -202.658191 -20.5
vt -202.658191 -22.25
vt -203.158191 -22.25
vt -278.658191 -22.25
vt -56.5 119.084317
vt -22.25 228.558149
vt -22.25 119.084317
vt 278.658191 96.781708
vt 203.158191 96.781708
vt 278.658191 211.488214
vt -203.158191 -56.5
vt 22.25 228.558149
vt 56.5 119.084317
vt 22.25 119.084317
vt 203.158191 211.488214
vt 202.658191 -22.25
vt 202.658191 -20.5
vt 203.158191 -22.25
vt 20.5 228.558149
vt 203.158191 119.084317
vt 202.658191 119.084317
vt 203.158191 228.558149
vt 202.658191 228.558149
vt 20.5 119.084317
vt 278.658191 -20.5
vt 278.658191 -22.25
vt -20 119.084317
vt -20.5 228.558149
vt -20.5 229.084317
vt -20 229.084317
vt -278.658191 -56.5
vn 0 -1 0
vn 0 1 0
vn -1 0 0
vn 0 -0.29858803050554605 -0.9543820975054064
vn 1 0 0
vn 0 0 -1
vn 0 0.29858803050554605 0.9543820975054064
vn 0 0 1
usemtl material_0_0
f 1/1/1 2/2/1 3/3/1
f 2/2/1 1/1/1 4/4/1
f 4/4/1 1/1/1 5/5/1
f 5/5/1 1/1/1 6/6/1
f 6/6/1 1/1/1 7/7/1
usemtl material_1_0
f 3/3/2 2/2/2 1/1/2
f 4/4/2 1/1/2 2/2/2
f 5/5/2 1/1/2 4/4/2
f 6/6/2 1/1/2 5/5/2
f 7/7/2 1/1/2 6/6/2
f 9/8/3 8/9/3 7/10/3
f 9/11/4 10/12/4 8/13/4
f 6/6/2 10/14/2 7/7/2
f 11/15/5 10/16/5 6/17/5
f 11/18/4 8/13/4 10/12/4
f 14/19/1 13/20/1 11/21/1
f 14/15/5 5/17/5 13/22/5
f 6/23/6 5/24/6 11/25/6
f 14/26/6 11/25/6 5/24/6
f 4/27/5 13/22/5 5/17/5
f 12/28/1 11/21/1 13/20/1
f 8/29/1 11/21/1 12/28/1
f 1/30/3 7/10/3 8/9/3
f 12/31/3 1/30/3 8/9/3
f 15/32/3 1/30/3 12/31/3
f 16/33/3 1/30/3 15/32/3
f 9/34/2 7/7/2 10/14/2
usemtl material_2_0
f 8/9/5 7/10/5 1/30/5
f 7/10/5 8/9/5 9/8/5
f 8/13/7 10/12/7 9/11/7
f 10/12/7 8/13/7 11/18/7
f 10/14/1 7/7/1 9/34/1
f 7/7/1 10/14/1 6/6/1
f 6/17/3 10/16/3 11/15/3
f 12/28/2 11/21/2 8/29/2
f 13/20/2 11/21/2 12/28/2
f 11/21/2 13/20/2 14/19/2
f 13/22/3 5/17/3 14/15/3
f 5/17/3 13/22/3 4/27/3
f 5/24/8 11/25/8 14/26/8
f 11/25/8 5/24/8 6/23/8
f 8/9/5 1/30/5 12/31/5
f 12/31/5 1/30/5 15/32/5
f 15/32/5 1/30/5 16/33/5
