# SSTK version 0.8.0
# 3
mtllib original-3.mtl
o #ID19
v 0.609898 0.795410 0.045831
v -0.609224 0.795410 -0.069956
v -0.609224 0.795410 0.045831
v 0.609898 0.795410 -0.069956
v 0.609898 -0.741142 0.045831
v 0.456628 -0.391324 0.045831
v -0.609224 -0.741142 0.045831
v 0.609898 0.795410 0.045831
v 0.456628 0.496378 0.045831
v 0.015804 0.496378 0.045831
v 0.002494 0.496378 0.045831
v -0.442610 0.496378 0.045831
v -0.442610 -0.391324 0.045831
v -0.609224 0.795410 0.045831
v 0.015804 -0.391324 0.045831
v 0.002494 -0.391324 0.045831
v 0.609898 -0.741142 -0.069956
v 0.609898 0.795410 0.045831
v 0.609898 -0.741142 0.045831
v 0.609898 0.795410 -0.069956
v -0.609224 0.795410 -0.069956
v 0.532707 -0.741142 -0.069956
v -0.609224 -0.741142 -0.069956
v 0.609898 -0.741142 -0.069956
v 0.609898 0.795410 -0.069956
v -0.609224 0.795410 -0.069956
v -0.609224 -0.741142 0.045831
v -0.609224 0.795410 0.045831
v -0.609224 -0.741142 -0.069956
v 0.532707 -0.741142 -0.069956
v -0.609224 -0.741142 0.045831
v -0.609224 -0.741142 -0.069956
v 0.609898 -0.741142 0.045831
v 0.609898 -0.741142 -0.069956
vn 0 1 0
vn 0 0 1
vn 1 0 0
vn 0 0 -1
vn -1 0 0
vn 0 -1 0
usemtl material_0_0
f 1//1 2//1 3//1
f 2//1 1//1 4//1
f 5//2 6//2 7//2
f 6//2 5//2 8//2
f 6//2 8//2 9//2
f 9//2 8//2 10//2
f 10//2 8//2 11//2
f 11//2 8//2 12//2
f 7//2 13//2 14//2
f 13//2 7//2 6//2
f 13//2 6//2 15//2
f 13//2 15//2 16//2
f 14//2 13//2 12//2
f 14//2 12//2 8//2
f 10//2 16//2 15//2
f 16//2 10//2 11//2
f 17//3 18//3 19//3
f 18//3 17//3 20//3
f 21//4 22//4 23//4
f 22//4 21//4 24//4
f 24//4 21//4 25//4
f 26//5 27//5 28//5
f 27//5 26//5 29//5
f 30//6 31//6 32//6
f 31//6 30//6 33//6
f 33//6 30//6 34//6
