mtllib new-5.mtl
v -0.380096 0.807947 0.000622
v 0.383662 -0.907407 0.000622
v -0.380096 -0.907407 0.000622
v -0.005636 0.344141 0.000622
v -0.009728 0.349473 0.000622
v 0.324329 -0.046779 0.000622
v -0.012300 0.355682 0.000622
v 0.318867 -0.008475 0.000622
v -0.013177 0.362345 0.000622
v 0.320467 -0.009702 0.000622
v 0.383662 0.807947 0.000622
v 0.320467 -0.009702 -0.009676
v 0.322330 -0.010474 0.000622
v 0.012568 0.388089 0.000622
v -0.009728 0.375217 0.000622
v 0.324329 -0.010737 0.000622
v 0.324329 -0.010737 -0.009676
v 0.019231 0.387212 0.000622
v 0.005904 0.387212 0.000622
v -0.005636 0.380549 0.000622
v 0.025440 0.340050 0.000622
v 0.034863 0.349473 0.000622
v 0.335709 0.052485 0.000622
v 0.037435 0.355682 0.000622
v 0.025440 0.384640 0.000622
v -0.000305 0.384640 0.000622
v 0.019231 0.337478 0.000622
v 0.331711 0.051958 0.000622
v 0.030772 0.380549 0.000622
v 0.327985 0.050415 0.000622
v 0.012568 0.336600 0.000622
v 0.324786 0.047961 0.000622
v 0.320467 0.003675 0.000622
v 0.322330 0.004446 0.000622
v 0.320788 0.041036 0.000622
v 0.324329 0.004710 0.000622
v 0.320262 0.037038 0.000622
v 0.344924 0.004710 0.000622
v 0.320788 0.033040 0.000622
v 0.324786 0.026116 0.000622
v 0.322331 0.029315 0.000622
vn 0.000000 0.000000 -1.000000
vn 0.000000 0.000000 1.000000
vn 1.000000 0.000000 0.000000
vn -0.707107 -0.707107 0.000000
vn 0.707107 0.707107 0.000000
vn -1.000000 0.000000 0.000000
vn -0.500000 -0.866025 0.000000
vn 0.500000 0.866025 0.000000
usemtl material-0
f 1//1 2//1 3//1
f 2//1 1//1 4//1
f 3//2 2//2 1//2
f 4//2 1//2 2//2
f 4//1 1//1 5//1
f 5//2 1//2 4//2
f 5//1 1//1 7//1
f 7//2 1//2 5//2
f 6//1 4//1 8//1
f 8//2 4//2 6//2
f 7//1 1//1 9//1
f 9//2 1//2 7//2
f 6//1 8//1 10//1
f 10//2 8//2 6//2
f 8//4 12//7 10//7
f 10//8 12//8 8//5
f 6//1 10//1 13//1
f 13//2 10//2 6//2
f 11//1 14//1 1//1
f 1//2 14//2 11//2
f 6//1 13//1 16//1
f 16//2 13//2 6//2
f 11//1 18//1 14//1
f 14//2 18//2 11//2
f 19//1 1//1 14//1
f 14//2 1//2 19//2
f 15//1 1//1 20//1
f 20//2 1//2 15//2
f 17//6 6//6 16//6
f 16//3 6//3 17//3
f 11//1 25//1 18//1
f 18//2 25//2 11//2
f 26//1 1//1 19//1
f 19//2 1//2 26//2
f 28//1 4//1 23//1
f 23//2 4//2 28//2
f 11//1 29//1 25//1
f 25//2 29//2 11//2
f 21//1 23//1 27//1
f 27//2 23//2 21//2
f 11//1 22//1 24//1
f 24//2 22//2 11//2
f 30//1 4//1 28//1
f 28//2 4//2 30//2
f 27//1 23//1 31//1
f 31//2 23//2 27//2
f 11//1 23//1 22//1
f 22//2 23//2 11//2
f 32//1 4//1 30//1
f 30//2 4//2 32//2
f 33//1 4//1 34//1
f 34//2 4//2 33//2
f 34//1 4//1 36//1
f 36//2 4//2 34//2
f 37//1 4//1 35//1
f 35//2 4//2 37//2
f 39//1 4//1 37//1
f 37//2 4//2 39//2
f 38//1 4//1 40//1
f 40//2 4//2 38//2
f 41//1 4//1 39//1
f 39//2 4//2 41//2
f 40//1 4//1 41//1
f 41//2 4//2 40//2