mtllib new-0.mtl
v -0.005636 0.344141 0.000622
v -0.009728 0.349473 0.000622
v -0.012300 0.355682 0.000622
v -0.009728 0.349473 -0.014824
v -0.013177 0.362345 0.000622
v -0.012300 0.355682 -0.014824
v -0.005636 0.344141 -0.014824
v -0.012300 0.369008 0.000622
v -0.013177 0.362345 -0.014824
v 0.030772 0.344141 -0.014824
v -0.000305 0.340050 -0.014824
v 0.034863 0.349473 -0.014824
v 0.012568 0.388089 0.000622
v -0.009728 0.375217 0.000622
v -0.012300 0.369008 -0.014824
v 0.037435 0.355682 -0.014824
v 0.025440 0.340050 -0.014824
v -0.000305 0.340050 0.000622
v 0.019231 0.387212 0.000622
v 0.005904 0.387212 0.000622
v -0.005636 0.380549 0.000622
v -0.009728 0.375217 -0.014824
v 0.038312 0.362345 -0.014824
v 0.025440 0.340050 0.000622
v 0.034863 0.349473 0.000622
v 0.005904 0.337478 -0.014824
v 0.019231 0.337478 -0.014824
v 0.037435 0.355682 0.000622
v 0.025440 0.384640 0.000622
v 0.012568 0.388089 -0.014824
v -0.000305 0.384640 0.000622
v 0.005904 0.387212 -0.014824
v -0.005636 0.380549 -0.014824
v 0.037435 0.369008 -0.014824
v 0.038312 0.362345 0.000622
v 0.030772 0.344141 0.000622
v 0.019231 0.337478 0.000622
v 0.005904 0.337478 0.000622
v 0.030772 0.380549 0.000622
v 0.019231 0.387212 -0.014824
v -0.000305 0.384640 -0.014824
v 0.034863 0.375217 -0.014824
v 0.037435 0.369008 0.000622
v 0.012568 0.336600 -0.014824
v 0.012568 0.336600 0.000622
v 0.034863 0.375217 0.000622
v 0.025440 0.384640 -0.014824
v 0.030772 0.380549 -0.014824
vn 0.000000 0.000000 -1.000000
vn 0.000000 0.000000 1.000000
vn 1.000000 0.000000 0.000000
vn 0.000000 -1.000000 0.000000
vn -0.866025 -0.500000 0.000000
vn -0.707107 -0.707107 0.000000
vn 0.866025 0.500000 0.000000
vn 0.707107 0.707107 0.000000
vn -0.965926 -0.258819 0.000000
vn 0.965926 0.258819 0.000000
vn 0.000000 1.000000 0.000000
vn -1.000000 0.000000 0.000000
vn -0.500000 -0.866025 0.000000
vn 0.500000 0.866025 0.000000
vn -0.965926 0.258819 0.000000
vn 0.965926 -0.258819 0.000000
vn -0.258819 -0.965926 0.000000
vn 0.258819 0.965926 0.000000
vn 0.866025 -0.500000 0.000000
vn -0.866025 0.500000 0.000000
vn 0.707107 -0.707107 0.000000
vn 0.500000 -0.866025 0.000000
vn -0.500000 0.866025 0.000000
vn -0.707107 0.707107 0.000000
vn 0.258819 -0.965926 0.000000
vn -0.258819 0.965926 0.000000
usemtl material-0
f 4//5 1//6 2//5
f 2//7 1//8 4//7
f 6//9 2//5 3//9
f 3//10 2//7 6//10
f 1//6 4//5 7//6
f 7//8 4//7 1//8
f 2//5 6//9 4//5
f 4//7 6//10 2//7
f 9//12 3//9 5//12
f 5//3 3//10 9//3
f 3//9 9//12 6//9
f 6//10 9//3 3//10
f 11//13 1//6 7//6
f 7//8 1//8 11//14
f 15//15 5//12 8//15
f 8//16 5//3 15//16
f 5//12 15//15 9//12
f 9//3 15//16 5//3
f 1//6 11//13 18//13
f 18//14 11//14 1//8
f 22//20 8//15 14//20
f 14//19 8//16 22//19
f 8//15 22//20 15//15
f 15//16 22//19 8//16
f 10//21 24//22 17//22
f 17//23 24//23 10//24
f 25//19 10//21 12//19
f 12//20 10//24 25//20
f 26//17 18//13 11//13
f 11//14 18//14 26//18
f 28//16 12//19 16//16
f 16//15 12//20 28//15
f 19//18 30//11 13//11
f 13//4 30//4 19//17
f 13//11 32//26 20//26
f 20//25 32//25 13//4
f 33//24 14//20 21//24
f 21//21 14//19 33//21
f 14//20 33//24 22//20
f 22//19 33//21 14//19
f 35//3 16//16 23//3
f 23//12 16//15 35//12
f 24//22 10//21 36//21
f 36//24 10//24 24//23
f 37//25 17//22 24//22
f 24//23 17//23 37//26
f 10//21 25//19 36//21
f 36//24 25//20 10//24
f 12//19 28//16 25//19
f 25//20 28//15 12//20
f 18//13 26//17 38//17
f 38//18 26//18 18//14
f 17//22 37//25 27//25
f 27//26 37//26 17//23
f 16//16 35//3 28//16
f 28//15 35//12 16//15
f 29//14 40//18 19//18
f 19//17 40//17 29//13
f 30//11 19//18 40//18
f 40//17 19//17 30//4
f 32//26 13//11 30//11
f 30//4 13//4 32//25
f 20//26 41//23 31//23
f 31//22 41//22 20//25
f 41//23 20//26 32//26
f 32//25 20//25 41//22
f 31//23 33//24 21//24
f 21//21 33//21 31//22
f 43//10 23//3 34//10
f 34//9 23//12 43//9
f 23//3 43//10 35//3
f 35//12 43//9 23//12
f 44//4 38//17 26//17
f 26//18 38//18 44//11
f 45//4 27//25 37//25
f 37//26 27//26 45//11
f 40//18 29//14 47//14
f 47//13 29//13 40//17
f 33//24 31//23 41//23
f 41//22 31//22 33//21
f 46//7 34//10 42//7
f 42//5 34//9 46//5
f 34//10 46//7 43//10
f 43//9 46//5 34//9
f 38//17 44//4 45//4
f 45//11 44//11 38//18
f 27//25 45//4 44//4
f 44//11 45//11 27//26
f 47//14 39//8 48//8
f 48//6 39//6 47//13
f 39//8 42//7 48//8
f 48//6 42//5 39//6
usemtl material-2
f 10//1 7//1 4//1
f 4//2 7//2 10//2
f 12//1 4//1 6//1
f 6//2 4//2 12//2
f 16//1 6//1 9//1
f 9//2 6//2 16//2
f 17//1 7//1 10//1
f 10//2 7//2 17//2
f 10//1 4//1 12//1
f 12//2 4//2 10//2
f 17//1 11//1 7//1
f 7//2 11//2 17//2
f 12//1 6//1 16//1
f 16//2 6//2 12//2
f 23//1 9//1 15//1
f 15//2 9//2 23//2
f 16//1 9//1 23//1
f 23//2 9//2 16//2
f 27//1 11//1 17//1
f 17//2 11//2 27//2
f 34//1 15//1 22//1
f 22//2 15//2 34//2
f 23//1 15//1 34//1
f 34//2 15//2 23//2
f 27//1 26//1 11//1
f 11//2 26//2 27//2
f 42//1 22//1 33//1
f 33//2 22//2 42//2
f 34//1 22//1 42//1
f 42//2 22//2 34//2
f 26//1 27//1 44//1
f 44//2 27//2 26//2
f 40//1 32//1 30//1
f 30//2 32//2 40//2
f 47//1 41//1 32//1
f 32//2 41//2 47//2
f 42//1 33//1 48//1
f 48//2 33//2 42//2
f 47//1 32//1 40//1
f 40//2 32//2 47//2
f 48//1 33//1 41//1
f 41//2 33//2 48//2
f 48//1 41//1 47//1
f 47//2 41//2 48//2