mtllib new-2.mtl
v 0.335709 0.052485 0.000622
v 0.331711 0.051958 0.000622
v 0.327985 0.050415 0.000622
v 0.331711 0.051958 0.010920
v 0.324786 0.047961 0.000622
v 0.327985 0.050415 0.010920
v 0.335709 0.052485 0.010920
v 0.351155 0.037038 0.000622
v 0.339707 0.051958 0.000622
v 0.322331 0.044761 0.000622
v 0.324786 0.047961 0.010920
v 0.339707 0.051958 0.010920
v 0.343432 0.050415 0.010920
v 0.350629 0.041036 0.000622
v 0.343432 0.050415 0.000622
v 0.320788 0.041036 0.000622
v 0.346631 0.047961 0.010920
v 0.351155 0.037038 0.010920
v 0.349086 0.044761 0.000622
v 0.346631 0.047961 0.000622
v 0.320262 0.037038 0.000622
v 0.322331 0.044761 0.010920
v 0.349086 0.044761 0.010920
v 0.350629 0.033040 0.000622
v 0.350629 0.041036 0.010920
v 0.350629 0.033040 0.010920
v 0.320788 0.033040 0.000622
v 0.320788 0.041036 0.010920
v 0.324786 0.026116 0.000622
v 0.320262 0.037038 0.010920
v 0.322331 0.029315 0.000622
v 0.327985 0.023661 0.000622
v 0.349086 0.029315 0.000622
v 0.349086 0.029315 0.010920
v 0.320788 0.033040 0.010920
v 0.322331 0.029315 0.010920
v 0.327985 0.023661 0.010920
v 0.331711 0.022118 0.000622
v 0.346631 0.026116 0.000622
v 0.324786 0.026116 0.010920
v 0.331711 0.022118 0.010920
v 0.335709 0.021591 0.000622
v 0.343432 0.023661 0.000622
v 0.346631 0.026116 0.010920
v 0.343432 0.023661 0.010920
v 0.339707 0.022118 0.010920
v 0.335709 0.021591 0.010920
v 0.339707 0.022118 0.000622
vn 0.000000 0.000000 -1.000000
vn 0.000000 0.000000 1.000000
vn 1.000000 0.000000 0.000000
vn 0.000000 -1.000000 0.000000
vn -0.866025 -0.500000 0.000000
vn -0.707107 -0.707107 0.000000
vn 0.866025 0.500000 0.000000
vn 0.707107 0.707107 0.000000
vn -0.965926 -0.258819 0.000000
vn 0.965926 0.258819 0.000000
vn 0.000000 1.000000 0.000000
vn -1.000000 0.000000 0.000000
vn -0.500000 -0.866025 0.000000
vn 0.500000 0.866025 0.000000
vn -0.965926 0.258819 0.000000
vn 0.965926 -0.258819 0.000000
vn -0.258819 -0.965926 0.000000
vn 0.258819 0.965926 0.000000
vn 0.866025 -0.500000 0.000000
vn -0.866025 0.500000 0.000000
vn 0.707107 -0.707107 0.000000
vn 0.500000 -0.866025 0.000000
vn -0.500000 0.866025 0.000000
vn -0.707107 0.707107 0.000000
vn 0.258819 -0.965926 0.000000
vn -0.258819 0.965926 0.000000
usemtl material-0
f 2//25 6//22 3//22
f 3//23 6//23 2//26
f 4//25 1//4 7//4
f 7//11 1//11 4//26
f 6//22 2//25 4//25
f 4//26 2//26 6//23
f 3//22 11//21 5//21
f 5//24 11//24 3//23
f 11//21 3//22 6//22
f 6//23 3//23 11//24
f 12//1 4//1 7//1
f 7//2 4//2 12//2
f 13//1 6//1 4//1
f 4//2 6//2 13//2
f 11//21 10//19 5//21
f 5//24 10//20 11//24
f 17//1 11//1 6//1
f 6//2 11//2 17//2
f 7//4 9//17 12//17
f 12//18 9//18 7//11
f 13//1 4//1 12//1
f 12//2 4//2 13//2
f 17//1 6//1 13//1
f 13//2 6//2 17//2
f 22//19 16//16 10//19
f 10//20 16//15 22//20
f 10//19 11//21 22//19
f 22//20 11//24 10//20
f 23//1 11//1 17//1
f 17//2 11//2 23//2
f 12//17 15//13 13//13
f 13//14 15//14 12//18
f 13//13 20//6 17//6
f 17//8 20//8 13//14
f 14//9 18//12 25//9
f 25//10 18//3 14//10
f 8//12 26//15 18//12
f 18//3 26//16 8//3
f 28//16 21//3 16//16
f 16//15 21//12 28//15
f 16//16 22//19 28//16
f 28//15 22//20 16//15
f 23//1 22//1 11//1
f 11//2 22//2 23//2
f 20//6 23//5 17//6
f 17//8 23//7 20//8
f 18//1 28//1 25//1
f 25//2 28//2 18//2
f 26//1 30//1 18//1
f 18//2 30//2 26//2
f 19//5 25//9 23//5
f 23//7 25//10 19//7
f 23//5 20//6 19//5
f 19//7 20//8 23//7
f 30//3 27//10 21//3
f 21//12 27//9 30//12
f 21//3 28//16 30//3
f 30//12 28//15 21//12
f 25//1 28//1 22//1
f 22//2 28//2 25//2
f 25//1 22//1 23//1
f 23//2 22//2 25//2
f 24//15 34//20 26//15
f 26//16 34//19 24//16
f 18//1 30//1 28//1
f 28//2 30//2 18//2
f 26//1 35//1 30//1
f 30//2 35//2 26//2
f 27//10 30//3 35//10
f 35//9 30//12 27//9
f 36//7 29//8 31//7
f 31//5 29//6 36//5
f 29//8 37//14 32//14
f 32//13 37//13 29//6
f 34//20 24//15 33//20
f 33//19 24//16 34//19
f 34//1 35//1 26//1
f 26//2 35//2 34//2
f 31//7 35//10 36//7
f 36//5 35//9 31//5
f 29//8 36//7 40//8
f 40//6 36//5 29//6
f 37//14 29//8 40//8
f 40//6 29//6 37//13
f 41//18 32//14 37//14
f 37//13 32//13 41//17
f 44//24 33//20 39//24
f 39//21 33//19 44//21
f 33//20 44//24 34//20
f 34//19 44//21 33//19
f 34//1 36//1 35//1
f 35//2 36//2 34//2
f 44//1 40//1 36//1
f 36//2 40//2 44//2
f 45//1 37//1 40//1
f 40//2 37//2 45//2
f 46//1 41//1 37//1
f 37//2 41//2 46//2
f 47//11 38//18 41//18
f 41//17 38//17 47//4
f 38//18 47//11 42//11
f 42//4 47//4 38//17
f 43//23 44//24 39//24
f 39//21 44//21 43//22
f 44//1 36//1 34//1
f 34//2 36//2 44//2
f 45//1 40//1 44//1
f 44//2 40//2 45//2
f 46//1 37//1 45//1
f 45//2 37//2 46//2
f 41//1 46//1 47//1
f 47//2 46//2 41//2
f 46//26 42//11 47//11
f 47//4 42//4 46//25
f 42//11 46//26 48//26
f 48//25 46//25 42//4
f 48//26 45//23 43//23
f 43//22 45//22 48//25
f 44//24 43//23 45//23
f 45//22 43//22 44//21
f 45//23 48//26 46//26
f 46//25 48//25 45//22