mtllib new-5.mtl
v 0.291964 0.033170 0.030439
v 0.226065 0.569129 0.030439
v 0.226065 -0.042820 0.030439
v 0.226065 -0.042820 0.015514
v -0.237149 0.569129 0.015514
v 0.226065 0.569129 0.015514
v 0.139648 -0.029345 0.015514
v -0.177447 0.569129 0.015514
v 0.111887 -0.018185 0.015514
v 0.083279 -0.009421 0.015514
v -0.005542 0.001957 0.015514
v -0.122971 -0.018185 0.015514
v 0.054030 -0.003115 0.015514
v 0.024352 0.000687 0.015514
v -0.094362 -0.009421 0.015514
v -0.065114 -0.003115 0.015514
vn 1.000000 0.000000 0.000000
vn -1.000000 0.000000 0.000000
vn 0.000000 0.000000 1.000000
vn 0.000000 0.000000 -1.000000
vt 0.000000 0.807179
vt -0.013889 1.376623
vt -0.013889 0.807179
vt -0.649557 0.877890
vt -0.588236 1.376623
vt -0.588236 0.807179
vt -6.093850 9.836608
vt -7.058827 16.519476
vt -1.886332 16.519476
vt -5.783850 9.961224
vt -2.552999 16.519476
vt -5.464395 10.059092
vt -4.472580 10.186143
vt -3.161310 9.961224
vt -5.137790 10.129505
vt -4.806388 10.171958
vt -3.480764 10.059092
vt -3.807370 10.129505
usemtl material-0
f 4/1/1 2/2/1 3/3/1
usemtl material-1
f 1/4/4 3/6/4 2/5/4
usemtl material-3
f 2/5/3 3/6/3 1/4/3
usemtl material-8
f 3/3/2 2/2/2 4/1/2
usemtl material-11
f 6/8/4 7/7/4 9/10/4
f 9/10/3 7/7/3 6/8/3
f 6/8/4 5/9/4 8/11/4
f 8/11/3 5/9/3 6/8/3
f 6/8/4 11/13/4 5/9/4
f 5/9/3 11/13/3 6/8/3
f 6/8/4 10/12/4 13/15/4
f 13/15/3 10/12/3 6/8/3
f 6/8/4 14/16/4 11/13/4
f 11/13/3 14/16/3 6/8/3
f 12/14/4 5/9/4 15/17/4
f 15/17/3 5/9/3 12/14/3
f 6/8/4 13/15/4 14/16/4
f 14/16/3 13/15/3 6/8/3
f 15/17/4 5/9/4 16/18/4
f 16/18/3 5/9/3 15/17/3