mtllib new-0.mtl
v 0.304119 -0.007110 0.030439
v 0.311780 -0.008108 0.030439
v 0.300357 -0.008123 0.030439
v 0.308015 -0.007105 -0.014337
v 0.292304 -0.027635 0.030439
v 0.296985 -0.010076 0.030439
v 0.300357 -0.008123 -0.014337
v 0.304119 -0.007110 -0.014337
v 0.311780 -0.008108 -0.014337
v 0.294257 -0.031006 0.030439
v 0.294233 -0.012834 0.030439
v 0.296985 -0.010076 -0.014337
v 0.315157 -0.010052 -0.014337
v 0.292304 -0.027635 -0.014337
v 0.297016 -0.033758 0.030439
v 0.292290 -0.016211 0.030439
v 0.294257 -0.031006 -0.014337
v 0.291291 -0.023872 -0.014337
v 0.297016 -0.033758 -0.014337
v 0.300393 -0.035702 0.030439
v 0.311816 -0.035687 0.030439
v 0.315188 -0.033734 -0.014337
v 0.291286 -0.019976 -0.014337
v 0.294233 -0.012834 -0.014337
v 0.291291 -0.023872 0.030439
v 0.300393 -0.035702 -0.014337
v 0.304157 -0.036705 0.030439
v 0.292290 -0.016211 -0.014337
v 0.311816 -0.035687 -0.014337
v 0.304157 -0.036705 -0.014337
v 0.308054 -0.036700 -0.014337
v 0.291286 -0.019976 0.030439
vn 0.000000 0.000000 1.000000
vn 0.000000 0.000000 -1.000000
vn -0.129241 -0.991613 0.000000
vn 0.131812 -0.991275 0.000000
vn -0.381485 -0.924375 0.000000
vn 0.383881 -0.923383 0.000000
vn -0.607732 -0.794142 0.000000
vn -0.924375 0.381485 0.000000
vn -0.991613 0.129241 0.000000
vn -0.991275 -0.131812 0.000000
vn 0.609790 -0.792563 0.000000
vn -0.792563 -0.609790 0.000000
vn 0.923383 0.383881 0.000000
vn 0.792563 0.609790 0.000000
vn -0.794142 0.607732 0.000000
vn -0.923383 -0.383881 0.000000
vn 0.794142 -0.607732 0.000000
vn 0.991275 0.131812 0.000000
vn 0.607732 0.794142 0.000000
vn -0.609790 0.792563 0.000000
vn 0.924375 -0.381485 0.000000
vn 0.381485 0.924375 0.000000
vn -0.383881 0.923383 0.000000
vn 0.991613 -0.129241 0.000000
vn 0.129241 0.991613 0.000000
vn -0.131812 0.991275 0.000000
vt 0.000000 0.000000
vt 0.052360 -0.300000
vt 0.078540 0.000000
vt 0.104720 -0.300000
vt 0.026180 -0.300000
vt 0.026180 0.000000
vt 0.052360 0.000000
vt 0.104720 0.000000
vt 0.000000 -0.300000
vt 0.497419 -0.300000
vt 0.471239 -0.300000
vt 0.497419 0.000000
vt 0.628319 -0.300000
vt 0.602139 -0.300000
vt 0.628319 0.000000
vt 0.471239 0.000000
vt 0.523599 0.000000
vt 0.445059 -0.300000
vt 0.445059 0.000000
vt 0.314159 0.000000
vt 0.575959 -0.300000
vt 0.602139 0.000000
vt 0.523599 -0.300000
vt 0.418879 0.000000
vt 0.418879 -0.300000
vt 0.340339 -0.300000
vt 0.575959 0.000000
vt 0.549779 0.000000
vt 0.392699 0.000000
vt 0.392699 -0.300000
vt 0.366519 0.000000
vt 0.340339 0.000000
vt 0.549779 -0.300000
vt 0.010908 0.000000
vt 0.007272 -0.041667
vt 0.014544 -0.041667
vt 0.003636 0.000000
vt 0.003636 -0.041667
vt 0.007272 0.000000
vt 0.014544 0.000000
vt 0.000000 -0.041667
vt -0.667997 0.839479
vt -0.660868 0.840408
vt -0.664494 0.840413
vt 0.069086 0.000000
vt 0.065450 -0.041667
vt 0.069086 -0.041667
vt 0.087266 0.000000
vt 0.083630 -0.041667
vt 0.087266 -0.041667
vt -0.657367 0.839465
vt -0.671139 0.837670
vt -0.654229 0.837648
vt 0.065450 0.000000
vt 0.072722 0.000000
vt 0.061814 0.000000
vt 0.061814 -0.041667
vt 0.043633 0.000000
vt 0.083630 0.000000
vt 0.079994 -0.041667
vt 0.072722 -0.041667
vt 0.058178 0.000000
vt 0.058178 -0.041667
vt 0.047269 -0.041667
vt 0.079994 0.000000
vt 0.076358 0.000000
vt 0.054542 0.000000
vt 0.054542 -0.041667
vt 0.050905 0.000000
vt 0.047269 0.000000
vt 0.076358 -0.041667
usemtl material-7
f 3/5/6 7/6/6 1/2/4
f 8/7/4 4/3/3 1/2/4
f 9/8/5 2/4/5 4/3/3
f 6/9/11 12/1/11 3/5/6
f 8/7/4 1/2/4 7/6/6
f 7/6/6 3/5/6 12/1/11
f 5/10/13 10/11/14 14/12/13
f 6/13/11 11/14/17 12/15/11
f 17/16/14 14/12/13 10/11/14
f 14/12/13 18/17/18 5/10/13
f 15/18/19 19/19/19 10/11/14
f 11/14/17 16/21/21 24/22/17
f 24/22/17 12/15/11 11/14/17
f 17/16/14 10/11/14 19/19/19
f 25/23/18 5/10/13 18/17/18
f 19/19/19 15/18/19 26/24/22
f 20/25/22 26/24/22 15/18/19
f 28/27/21 24/22/17 16/21/21
f 18/17/18 23/28/24 25/23/18
f 26/24/22 20/25/22 30/29/25
f 27/30/25 30/29/25 20/25/22
f 29/32/23 21/26/23 22/20/20
f 23/28/24 28/27/21 32/33/24
f 16/21/21 32/33/24 28/27/21
f 32/33/24 25/23/18 23/28/24
f 30/29/25 27/30/25 31/31/26
f 29/32/23 31/31/26 21/26/23
usemtl material-10
f 1/35/26 7/37/23 3/38/23
f 1/35/26 4/34/25 8/39/26
f 4/34/25 2/36/22 9/40/22
f 3/38/23 12/1/20 6/41/20
f 7/37/23 1/35/26 8/39/26
f 12/1/20 3/38/23 7/37/23
f 9/42/2 8/43/2 4/44/2
f 14/45/16 10/46/12 5/47/16
f 12/48/20 11/49/15 6/50/20
f 9/42/2 7/51/2 8/43/2
f 13/52/2 12/53/2 7/51/2
f 10/46/12 14/45/16 17/54/12
f 5/47/16 18/55/10 14/45/16
f 10/46/12 19/56/7 15/57/7
f 24/59/15 16/60/8 11/49/15
f 11/49/15 12/48/20 24/59/15
f 19/56/7 10/46/12 17/54/12
f 18/55/10 5/47/16 25/61/10
f 26/62/5 15/57/7 19/56/7
f 15/57/7 26/62/5 20/63/5
f 16/60/8 24/59/15 28/65/8
f 25/61/10 23/66/9 18/55/10
f 30/67/3 20/63/5 26/62/5
f 20/63/5 30/67/3 27/68/3
f 22/58/11 21/64/6 29/70/6
f 32/71/9 28/65/8 23/66/9
f 28/65/8 32/71/9 16/60/8
f 23/66/9 25/61/10 32/71/9
f 31/69/4 27/68/3 30/67/3
f 21/64/6 31/69/4 29/70/6
usemtl material-13
f 4//1 8//1 9//1
f 8//1 7//1 9//1
f 7//1 12//1 13//1