mtllib new-2.mtl
v -0.005542 0.628831 0.030439
v 0.025296 0.627111 0.030439
v -0.036380 0.627111 0.030439
v 0.055751 0.621973 0.030439
v -0.005542 0.628831 0.015514
v -0.066835 0.621973 0.030439
v -0.036380 0.627111 0.015514
v 0.226065 0.569129 0.030439
v 0.085447 0.613481 0.030439
v 0.025296 0.627111 0.015514
v -0.096530 0.613481 0.030439
v -0.066835 0.621973 0.015514
v -0.237149 -0.042820 0.030439
v 0.114014 0.601739 0.030439
v 0.055751 0.621973 0.015514
v -0.125097 0.601739 0.030439
v -0.096530 0.613481 0.015514
v 0.226065 -0.042820 0.015514
v 0.141098 0.586894 0.030439
v 0.085447 0.613481 0.015514
v -0.125097 0.601739 0.015514
v -0.237149 0.569129 0.015514
v 0.226065 0.569129 0.015514
v 0.114014 0.601739 0.015514
v -0.152181 0.586894 0.015514
v -0.237149 -0.042820 0.015514
v 0.139648 -0.029345 0.015514
v 0.166363 0.569129 0.015514
v 0.166363 0.569129 0.030439
v 0.141098 0.586894 0.015514
v -0.177447 0.569129 0.015514
v -0.177447 -0.042820 0.015514
v 0.111887 -0.018185 0.015514
v -0.150732 -0.029345 0.030439
v -0.150732 -0.029345 0.015514
v 0.111887 -0.018185 0.030439
v 0.083279 -0.009421 0.015514
v -0.005542 0.001957 0.015514
v -0.122971 -0.018185 0.015514
v 0.083279 -0.009421 0.030439
v 0.054030 -0.003115 0.015514
v -0.122971 -0.018185 0.030439
v 0.024352 0.000687 0.015514
v -0.035435 0.000687 0.015514
v -0.094362 -0.009421 0.015514
v -0.094362 -0.009421 0.030439
v 0.054030 -0.003115 0.030439
v -0.005542 0.001957 0.030439
v -0.065114 -0.003115 0.015514
v -0.035435 0.000687 0.030439
v -0.065114 -0.003115 0.030439
v 0.024352 0.000687 0.030439
vn 0.000000 -1.000000 0.000000
vn 0.000000 1.000000 0.000000
vn 1.000000 0.000000 0.000000
vn -1.000000 0.000000 0.000000
vn 0.111191 0.993799 0.000000
vn -0.111191 0.993799 0.000000
vn 0.221004 0.975273 0.000000
vn -0.221004 0.975273 0.000000
vn 0.328076 0.944651 0.000000
vn -0.328076 0.944651 0.000000
vn 0.000000 0.000000 1.000000
vn 0.431078 0.902315 0.000000
vn -0.431078 0.902315 0.000000
vn 0.528735 0.848787 0.000000
vn -0.528735 0.848787 0.000000
vn -0.412035 -0.911168 0.000000
vn 0.412035 0.911168 0.000000
vn 0.575177 0.818029 0.000000
vn 0.000000 0.000000 -1.000000
vn -0.333250 -0.942838 0.000000
vn 0.333250 0.942838 0.000000
vn 0.412035 -0.911168 0.000000
vn -0.412035 0.911168 0.000000
vn -0.252063 -0.967711 0.000000
vn 0.252063 0.967711 0.000000
vn 0.333250 -0.942838 0.000000
vn -0.333250 0.942838 0.000000
vn -0.169059 -0.985606 0.000000
vn 0.169059 0.985606 0.000000
vn -0.084835 -0.996395 0.000000
vn 0.084835 0.996395 0.000000
vn 0.084835 -0.996395 0.000000
vn -0.084835 0.996395 0.000000
vn 0.252063 -0.967711 0.000000
vn -0.252063 0.967711 0.000000
vn 0.169059 -0.985606 0.000000
vn -0.169059 0.985606 0.000000
vn -0.111191 -0.993799 0.000000
vn 0.111191 -0.993799 0.000000
vn -0.221004 -0.975273 0.000000
vn 0.221004 -0.975273 0.000000
vn -0.328076 -0.944651 0.000000
vn 0.328076 -0.944651 0.000000
vn -0.431078 -0.902315 0.000000
vn 0.431078 -0.902315 0.000000
vn -0.528735 -0.848787 0.000000
vn 0.528735 -0.848787 0.000000
vn -0.575177 -0.818029 0.000000
vt 0.000000 0.000000
vt 0.143777 0.000000
vt 0.172533 -0.013889
vt 0.172533 0.000000
vt 0.201288 -0.013889
vt 0.201288 0.000000
vt 0.115022 0.000000
vt 0.143777 -0.013889
vt 0.230044 -0.013889
vt 0.230044 0.000000
vt 0.086266 0.000000
vt 0.115022 -0.013889
vt 0.258799 -0.013889
vt 0.258799 0.000000
vt 0.000000 0.807179
vt -0.013889 1.376623
vt 0.057511 0.000000
vt 0.086266 -0.013889
vt 0.287555 -0.013889
vt 0.287555 0.000000
vt 0.000000 1.376623
vt 0.013889 0.807179
vt 0.028755 0.000000
vt 0.057511 -0.013889
vt 0.316310 -0.013889
vt 0.028755 -0.013889
vt 0.306359 -0.013889
vt 0.278508 0.000000
vt 0.278508 -0.013889
vt 0.000000 -0.013889
vt 0.027851 -0.013889
vt 0.027851 0.000000
vt 0.250658 0.000000
vt 0.250658 -0.013889
vt 0.055702 -0.013889
vt 0.222807 0.000000
vt 0.222807 -0.013889
vt 0.055702 0.000000
vt 0.194956 -0.013889
vt 0.167105 0.000000
vt 0.167105 -0.013889
vt 0.139254 0.000000
vt 0.139254 -0.013889
vt 0.083553 -0.013889
vt 0.194956 0.000000
vt 0.111403 0.000000
vt 0.111403 -0.013889
vt 0.083553 0.000000
vt 0.588236 0.000000
vt 0.588236 -0.013889
vt 0.532680 0.000000
vt -4.816932 17.166939
vt -4.128228 17.166939
vt -4.472580 17.186144
vt -5.157013 17.109566
vt -3.788147 17.109566
vt -5.488606 17.014732
vt -3.456554 17.014732
vt -5.807598 16.883617
vt -3.137562 16.883617
vt -7.058827 9.686143
vt -6.093850 9.836608
vt -7.058827 16.519476
vt -6.110033 16.717848
vt -2.835127 16.717848
vt -1.886332 16.519476
vt -2.552999 9.686143
vt -1.886332 9.686143
vt -5.783850 9.961224
vt -2.552999 16.519476
vt -6.392161 16.519476
vt -2.851310 9.836608
vt -5.464395 10.059092
vt -4.472580 10.186143
vt -3.161310 9.961224
vt -4.138771 10.171958
vt -3.807370 10.129505
usemtl material-0
f 5/3/2 2/2/5 10/8/5
f 7/5/6 1/4/2 5/3/2
f 12/9/8 3/6/6 7/5/6
f 10/8/5 4/7/7 15/12/7
f 17/13/10 6/10/8 12/9/8
f 15/12/7 9/11/9 20/18/9
f 21/19/13 11/14/10 17/13/10
f 8/16/3 18/15/3 23/21/3
f 20/18/9 14/17/12 24/24/12
f 25/25/15 16/20/13 21/19/13
f 13/22/4 22/21/4 26/15/4
f 24/24/12 19/23/14 30/26/14
f 27/27/16 36/28/20 33/29/20
f 33/29/21 36/28/21 27/27/17
f 30/26/14 29/1/18 28/30/18
f 33/29/20 40/33/24 37/34/24
f 37/34/25 40/33/25 33/29/21
f 39/35/26 34/32/22 35/31/22
f 35/31/23 34/32/23 39/35/27
f 37/34/24 47/36/28 41/37/28
f 41/37/29 47/36/29 37/34/25
f 43/39/30 48/40/1 38/41/1
f 38/41/2 48/40/2 43/39/31
f 38/41/1 50/42/32 44/43/32
f 44/43/33 50/42/33 38/41/2
f 45/44/34 42/38/26 39/35/26
f 39/35/27 42/38/27 45/44/35
f 41/37/28 52/45/30 43/39/30
f 43/39/31 52/45/31 41/37/29
f 44/43/32 51/46/36 49/47/36
f 49/47/37 51/46/37 44/43/33
f 49/47/36 46/48/34 45/44/34
f 45/44/35 46/48/35 49/47/37
usemtl material-8
f 10/8/38 2/2/38 5/3/1
f 5/3/1 1/4/1 7/5/39
f 7/5/39 3/6/39 12/9/41
f 15/12/40 4/7/40 10/8/38
f 12/9/41 6/10/41 17/13/43
f 20/18/42 9/11/42 15/12/40
f 17/13/43 11/14/43 21/19/45
f 23/21/4 18/15/4 8/16/4
f 24/24/44 14/17/44 20/18/42
f 21/19/45 16/20/45 25/25/47
f 26/15/3 22/21/3 13/22/3
f 23/49/1 8/50/1 28/51/1
f 30/26/46 19/23/46 24/24/44
f 28/30/48 29/1/48 30/26/46
usemtl material-10
f 28/51/2 8/50/2 23/49/2
usemtl material-11
f 10/52/19 7/53/19 5/54/19
f 5/54/11 7/53/11 10/52/11
f 15/55/19 12/56/19 7/53/19
f 7/53/11 12/56/11 15/55/11
f 15/55/19 7/53/19 10/52/19
f 10/52/11 7/53/11 15/55/11
f 20/57/19 17/58/19 12/56/19
f 12/56/11 17/58/11 20/57/11
f 20/57/19 12/56/19 15/55/19
f 15/55/11 12/56/11 20/57/11
f 24/59/19 21/60/19 17/58/19
f 17/58/11 21/60/11 24/59/11
f 24/59/19 17/58/19 20/57/19
f 20/57/11 17/58/11 24/59/11
f 18/61/19 27/62/19 23/63/19
f 23/63/11 27/62/11 18/61/11
f 30/64/19 25/65/19 21/60/19
f 21/60/11 25/65/11 30/64/11
f 30/64/19 21/60/19 24/59/19
f 24/59/11 21/60/11 30/64/11
f 22/66/19 32/67/19 26/68/19
f 26/68/11 32/67/11 22/66/11
f 23/63/19 31/70/19 28/71/19
f 28/71/11 31/70/11 23/63/11
f 25/65/19 28/71/19 31/70/19
f 31/70/11 28/71/11 25/65/11
f 28/71/19 25/65/19 30/64/19
f 30/64/11 25/65/11 28/71/11
f 32/67/19 22/66/19 35/72/19
f 35/72/11 22/66/11 32/67/11
f 23/63/19 33/69/19 37/73/19
f 37/73/11 33/69/11 23/63/11
f 35/72/19 22/66/19 39/75/19
f 39/75/11 22/66/11 35/72/11
f 44/76/19 22/66/19 38/74/19
f 38/74/11 22/66/11 44/76/11
f 49/77/19 22/66/19 44/76/19
f 44/76/11 22/66/11 49/77/11