mtllib new-3.mtl
v 0.348366 -0.910247 -0.029263
v 0.348366 -0.910247 -0.044188
v 0.348366 0.793841 -0.044188
v 0.348366 0.793841 -0.029263
v 0.325276 -0.910247 -0.029263
v 0.325276 0.776343 -0.029263
v 0.348366 0.869173 -0.044188
v -0.338211 0.793841 -0.029263
v -0.316523 0.776343 -0.029263
v 0.325276 0.776343 0.030439
v 0.225162 -0.910247 0.015514
v -0.316523 -0.910247 -0.029263
v -0.316523 0.776343 0.030439
v -0.338211 0.793841 -0.044188
v -0.338211 -0.910247 -0.029263
v -0.316523 -0.910247 0.015514
v -0.338211 -0.910247 -0.044188
v -0.338211 -0.910247 0.015514
v 0.025296 0.627111 0.030439
v -0.036380 0.627111 0.030439
v 0.225162 -0.716214 0.015514
v 0.055751 0.621973 0.030439
v -0.066835 0.621973 0.030439
v 0.225162 -0.910247 0.000588
v 0.225162 -0.119192 0.030439
v -0.222605 -0.716214 0.030439
v -0.222605 -0.910247 0.015514
v 0.226065 0.569129 0.030439
v 0.085447 0.613481 0.030439
v -0.096530 0.613481 0.030439
v 0.225162 -0.716214 0.000588
v 0.225162 -0.119192 0.015514
v -0.237149 -0.042820 0.030439
v -0.222605 -0.716214 0.015514
v 0.226065 -0.042820 0.030439
v 0.114014 0.601739 0.030439
v -0.222605 -0.910247 0.000588
v -0.222605 -0.716214 0.000588
v 0.196567 -0.686111 0.015514
v 0.165460 -0.119192 0.015514
v -0.237149 0.569129 0.030439
v -0.222605 -0.119192 0.015514
v 0.300292 0.047594 0.030439
v 0.308620 0.049826 0.030439
v 0.300357 -0.008123 -0.014337
v 0.311780 -0.008108 -0.014337
v 0.226065 -0.042820 0.015514
v 0.141098 0.586894 0.030439
v -0.152181 0.586894 0.030439
v -0.191498 -0.686111 0.015514
v 0.196567 -0.163716 0.015514
v 0.020201 -0.120221 0.015514
v -0.177447 0.569129 0.030439
v -0.237149 0.569129 0.015514
v -0.162902 -0.119192 0.030439
v 0.140119 -0.105736 0.030439
v 0.319883 -0.027599 -0.014337
v 0.320887 -0.023834 -0.014337
v 0.304309 0.049258 0.030439
v 0.296985 -0.010076 -0.014337
v 0.315157 -0.010052 -0.014337
v 0.166363 -0.042820 0.030439
v -0.152181 0.586894 0.015514
v 0.196567 -0.686111 0.000588
v 0.115556 -0.150333 0.015514
v 0.140119 -0.105736 0.015514
v 0.045070 -0.124055 0.015514
v -0.004929 -0.118939 0.015514
v -0.237149 -0.042820 0.015514
v -0.137562 -0.105736 0.030439
v -0.191498 -0.163716 0.015514
v 0.292304 -0.027635 -0.014337
v 0.317939 -0.030976 -0.014337
v 0.320882 -0.019938 -0.014337
v 0.319868 -0.016175 -0.014337
v 0.317916 -0.012804 -0.014337
v 0.113686 -0.094579 0.030439
v 0.139648 -0.029345 0.015514
v 0.166363 -0.042820 0.015514
v -0.177447 -0.042820 0.030439
v -0.177447 0.569129 0.015514
v -0.191498 -0.686111 0.000588
v 0.196567 -0.163716 0.000588
v 0.136864 -0.163716 0.015514
v 0.092996 -0.139189 0.015514
v 0.069419 -0.130399 0.015514
v 0.020201 -0.120221 0.000588
v -0.004929 -0.118939 0.000588
v -0.177447 -0.042820 0.015514
v -0.111128 -0.094579 0.030439
v -0.162902 -0.119192 0.015514
v -0.146721 -0.163716 0.015514
v -0.191498 -0.163716 0.000588
v 0.294257 -0.031006 -0.014337
v 0.291291 -0.023872 -0.014337
v 0.297016 -0.033758 -0.014337
v 0.315188 -0.033734 -0.014337
v 0.291286 -0.019976 -0.014337
v 0.294233 -0.012834 -0.014337
v 0.113686 -0.094579 0.015514
v 0.086368 -0.085810 0.030439
v 0.139648 -0.029345 0.030439
v -0.150732 -0.029345 0.030439
v 0.136864 -0.163716 0.000588
v 0.115556 -0.150333 0.000588
v 0.092996 -0.139189 0.000588
v -0.137562 -0.105736 0.015514
v 0.045070 -0.124055 0.000588
v -0.030058 -0.120221 0.000588
v -0.150732 -0.029345 0.015514
v -0.083810 -0.085810 0.030439
v -0.030058 -0.120221 0.015514
v -0.125413 -0.150333 0.015514
v 0.300393 -0.035702 -0.014337
v 0.292290 -0.016211 -0.014337
v 0.086368 -0.085810 0.015514
v 0.058380 -0.079496 0.030439
v 0.001279 -0.074415 0.030439
v -0.146721 -0.163716 0.000588
v 0.069419 -0.130399 0.000588
v -0.111128 -0.094579 0.015514
v -0.055822 -0.079496 0.030439
v -0.054927 -0.124055 0.015514
v -0.102853 -0.139189 0.015514
v 0.311816 -0.035687 -0.014337
v 0.304157 -0.036705 -0.014337
v 0.308054 -0.036700 -0.014337
v -0.083810 -0.085810 0.015514
v 0.058380 -0.079496 0.015514
v 0.029942 -0.075688 0.030439
v -0.027384 -0.075688 0.030439
v -0.125413 -0.150333 0.000588
v -0.102853 -0.139189 0.000588
v -0.079276 -0.130399 0.000588
v -0.054927 -0.124055 0.000588
v -0.079276 -0.130399 0.015514
v -0.055822 -0.079496 0.015514
v 0.029942 -0.075688 0.015514
v 0.001279 -0.074415 0.015514
v -0.027384 -0.075688 0.015514
vn 0.000000 -1.000000 0.000000
vn 0.000000 1.000000 0.000000
vn 1.000000 0.000000 0.000000
vn -1.000000 0.000000 0.000000
vn 0.000000 0.000000 1.000000
vn -0.528735 0.848787 0.000000
vn -0.575177 0.818029 0.000000
vn -0.412035 -0.911168 0.000000
vn -0.450348 -0.892853 0.000000
vn 0.450348 0.892853 0.000000
vn 0.412035 0.911168 0.000000
vn 0.000000 0.000000 -1.000000
vn 0.450348 -0.892853 0.000000
vn 0.412035 -0.911168 0.000000
vn -0.412035 0.911168 0.000000
vn -0.450348 0.892853 0.000000
vn 0.429332 0.903147 0.000000
vn 0.202509 0.979280 0.000000
vn 0.101783 0.994807 0.000000
vn -0.101783 -0.994807 0.000000
vn -0.202509 -0.979280 0.000000
vn -0.429332 0.903147 0.000000
vn -0.468974 0.883212 0.000000
vn 0.347593 0.937646 0.000000
vn 0.531845 0.846842 0.000000
vn 0.488001 0.872843 0.000000
vn -0.488001 -0.872843 0.000000
vn -0.531845 -0.846842 0.000000
vn 0.396626 0.917980 0.000000
vn -0.396626 -0.917980 0.000000
vn 0.301131 0.953583 0.000000
vn -0.301131 -0.953583 0.000000
vn -0.101783 0.994807 0.000000
vn 0.101783 -0.994807 0.000000
vn -0.347593 0.937646 0.000000
vn 0.263117 0.964764 0.000000
vn -0.263117 0.964764 0.000000
vn -0.488001 0.872843 0.000000
vn -0.531845 0.846842 0.000000
vn 0.531845 -0.846842 0.000000
vn 0.488001 -0.872843 0.000000
vn 0.176571 0.984288 0.000000
vn -0.202509 0.979280 0.000000
vn 0.202509 -0.979280 0.000000
vn -0.176571 0.984288 0.000000
vn -0.396626 0.917980 0.000000
vn 0.396626 -0.917980 0.000000
vn 0.088634 0.996064 0.000000
vn -0.088634 0.996064 0.000000
vn -0.301131 0.953583 0.000000
vn 0.301131 -0.953583 0.000000
vn 0.528735 -0.848787 0.000000
vn 0.575177 -0.818029 0.000000
vn -0.429332 -0.903147 0.000000
vn 0.468974 -0.883212 0.000000
vn 0.429332 -0.903147 0.000000
vn -0.347593 -0.937646 0.000000
vn 0.347593 -0.937646 0.000000
vn -0.263117 -0.964764 0.000000
vn 0.263117 -0.964764 0.000000
vn -0.176571 -0.984288 0.000000
vn 0.176571 -0.984288 0.000000
vn -0.088634 -0.996064 0.000000
vn 0.088634 -0.996064 0.000000
vt -0.702041 0.000000
vt -0.055556 0.000000
vt -0.055556 1.585727
vt -0.041667 0.000000
vt -0.680556 0.000000
vt -0.041667 1.585727
vt 0.055556 0.000000
vt 0.000000 0.000000
vt -0.680556 0.041667
vt -0.055556 1.655827
vt 0.013889 0.000000
vt -0.063152 0.041667
vt 0.587395 0.000000
vt -0.083333 -0.013889
vt -0.083333 0.041667
vt 0.055556 1.585727
vt 0.041667 1.585727
vt -0.063152 0.055556
vt 0.587395 -0.013889
vt -0.013889 0.180556
vt -0.013889 0.000000
vt -0.063152 0.000000
vt -0.083333 0.000000
vt 0.000000 0.180556
vt -0.013889 0.736111
vt 0.170729 0.000000
vt -0.170729 0.000000
vt -0.587395 0.013889
vt 0.013889 0.180556
vt 0.000000 0.736111
vt -0.170729 0.013889
vt -0.587395 0.180556
vt -0.170729 0.180556
vt 0.587395 0.013889
vt 0.170729 0.013889
vt 0.531840 0.000000
vt -0.532680 -0.013889
vt -0.588236 0.000000
vt -0.588236 -0.013889
vt 0.316310 -0.013889
vt 0.316310 0.000000
vt 0.013889 0.208568
vt 0.000000 0.694679
vt 0.000000 0.208568
vt -0.532680 0.000000
vt 0.345065 -0.013889
vt 0.345065 0.000000
vt 0.013889 0.694679
vt -0.212750 0.000000
vt -0.157194 -0.013889
vt -0.157194 0.000000
vt -0.013889 0.694679
vt 0.306359 0.000000
vt 0.334210 -0.013889
vt -0.013889 0.208568
vt -0.199675 0.694679
vt -0.560786 0.208568
vt -0.199675 0.208568
vt -0.560786 0.694679
vt 0.560786 0.013889
vt 0.560786 0.000000
vt 0.505230 0.013889
vt 0.306359 -0.013889
vt 0.000000 -0.013889
vt 0.027851 -0.013889
vt 0.027851 0.000000
vt -0.241341 0.694679
vt -0.505230 0.694679
vt -0.419811 0.731586
vt -0.349901 0.735153
vt -0.396670 0.735153
vt -0.373286 0.736346
vt -0.261170 0.707132
vt -0.485402 0.707132
vt -0.282163 0.717502
vt -0.464409 0.717502
vt -0.304102 0.725682
vt -0.442469 0.725682
vt -0.326760 0.731586
vt -0.702041 1.585727
vt -0.680556 1.569444
vt -0.063152 1.585727
vt -0.083333 1.569444
vt 0.041667 1.569444
vt 0.041667 0.000000
vt -0.401411 1.430578
vt -0.344019 1.430578
vt -0.429751 1.425797
vt -0.315679 1.425797
vt -0.588236 1.376623
vt -0.457384 1.417894
vt -0.288046 1.417894
vt -0.587395 0.736111
vt -0.483966 1.406968
vt -0.157194 1.376623
vt -0.170729 0.736111
vt -0.665057 0.893389
vt -0.509169 1.393154
vt -0.531840 0.736111
vt -0.212750 1.376623
vt -0.226284 0.736111
vt -0.508259 0.748632
vt -0.657307 0.891312
vt 0.293781 0.013889
vt 0.226284 -0.013889
vt -0.661045 0.892861
vt -0.483662 0.759014
vt 0.293781 0.000000
vt 0.093699 0.013889
vt 0.117124 0.000000
vt 0.117124 0.013889
vt 0.140549 0.000000
vt 0.140549 0.013889
vt -0.274462 0.759014
vt 0.026707 0.000000
vt 0.000000 0.013889
vt 0.226284 0.000000
vt 0.267074 0.013889
vt 0.267074 0.000000
vt -0.458241 0.767174
vt 0.023425 0.000000
vt 0.023425 0.013889
vt 0.046850 0.000000
vt 0.046850 0.013889
vt 0.070274 0.013889
vt 0.093699 0.000000
vt 0.163973 0.000000
vt -0.299883 0.767174
vt 0.053415 0.000000
vt 0.026707 0.013889
vt 0.241341 0.000000
vt 0.199675 0.013889
vt 0.240366 0.013889
vt 0.240366 0.000000
vt -0.432197 0.773050
vt -0.379062 0.777778
vt 0.070274 0.000000
vt 0.163973 0.013889
vt -0.325927 0.773050
vt 0.080122 0.000000
vt 0.053415 0.013889
vt 0.257672 0.013889
vt 0.281097 0.000000
vt 0.241341 0.013889
vt 0.213659 0.013889
vt 0.213659 0.000000
vt -0.405734 0.776593
vt -0.352390 0.776593
vt 0.187398 0.000000
vt 0.106830 0.000000
vt 0.080122 0.013889
vt 0.187398 0.013889
vt 0.234248 0.013889
vt 0.257672 0.000000
vt 0.186952 0.013889
vt 0.186952 0.000000
vt 0.160244 0.013889
vt 0.160244 0.000000
vt 0.133537 0.013889
vt 0.133537 0.000000
vt 0.106830 0.013889
vt 0.210823 0.000000
vt 0.210823 0.013889
vt 0.234248 0.000000
vt 0.157194 0.000000
vt 0.212750 -0.013889
vt 0.212750 0.000000
vt -0.667997 0.839479
vt -0.657367 0.839465
vt -0.671139 0.837670
vt -0.654229 0.837648
vt -0.675537 0.821342
vt -0.648931 0.824810
vt -0.676471 0.824845
vt -0.673728 0.818200
vt -0.649874 0.821309
vt -0.648926 0.828435
vt -0.676466 0.828471
vt -0.673706 0.835110
vt -0.651691 0.818171
vt -0.671168 0.815633
vt -0.649860 0.831939
vt -0.675523 0.831972
vt -0.651669 0.835081
vt -0.654258 0.815611
vt -0.668030 0.813816
vt -0.657400 0.813802
vt -0.664529 0.812873
vt -0.660904 0.812868
vt -7.058827 9.686143
vt -6.093850 9.836608
vt -6.392161 9.686143
usemtl material-0
f 2/2/3 3/3/3 1/4/3
f 4/6/3 1/4/3 3/3/3
f 4/6/4 7/10/4 3/3/4
f 6/9/1 13/14/1 9/15/1
f 18/22/1 17/18/1 15/12/1
f 15/12/2 17/18/2 18/22/2
f 21/24/3 11/8/3 24/11/3
f 24/11/4 11/8/4 21/24/4
f 21/24/3 24/11/3 31/29/3
f 31/29/4 24/11/4 21/24/4
f 25/25/3 21/24/3 32/30/3
f 32/30/4 21/24/4 25/25/4
f 24/28/1 27/27/1 37/31/1
f 37/31/2 27/27/2 24/28/2
f 31/34/1 21/13/1 38/35/1
f 32/13/1 25/19/1 40/36/1
f 26/29/4 42/30/4 34/24/4
f 27/8/4 34/24/4 38/20/4
f 38/20/3 34/24/3 27/8/3
f 27/8/4 38/20/4 37/21/4
f 37/21/3 38/20/3 27/8/3
f 62/37/1 47/38/1 35/39/1
f 35/39/2 47/38/2 62/37/2
f 47/38/1 62/37/1 79/45/1
f 79/45/2 62/37/2 47/38/2
f 49/41/6 81/46/7 53/47/7
f 81/46/7 49/41/6 63/40/6
f 51/43/3 64/42/3 83/48/3
f 83/48/4 64/42/4 51/43/4
f 89/49/1 33/50/1 69/51/1
f 69/51/2 33/50/2 89/49/2
f 50/44/4 93/52/4 82/55/4
f 64/57/12 93/56/12 83/59/12
f 83/59/5 93/56/5 64/57/5
f 83/60/1 51/61/1 104/62/1
f 79/54/9 102/53/8 78/63/8
f 78/63/11 102/53/11 79/54/10
f 80/8/13 110/65/14 103/66/14
f 103/66/15 110/65/15 80/8/16
f 83/59/12 93/56/12 119/67/12
f 119/67/5 93/56/5 83/59/5
f 83/59/12 119/67/12 104/68/12
f 104/68/5 119/67/5 83/59/5
f 108/69/12 109/70/12 87/71/12
f 87/71/5 109/70/5 108/69/5
f 87/71/12 109/70/12 88/72/12
f 88/72/5 109/70/5 87/71/5
f 110/65/14 80/8/13 89/64/13
f 89/64/16 80/8/16 110/65/15
f 132/73/12 104/68/12 119/67/12
f 119/67/5 104/68/5 132/73/5
f 104/68/12 132/73/12 105/74/12
f 105/74/5 132/73/5 104/68/5
f 105/74/12 133/75/12 106/76/12
f 106/76/5 133/75/5 105/74/5
f 106/76/12 134/77/12 120/78/12
f 120/78/5 134/77/5 106/76/5
f 120/78/12 135/79/12 108/69/12
f 108/69/5 135/79/5 120/78/5
f 108/69/12 135/79/12 109/70/12
f 109/70/5 135/79/5 108/69/5
f 105/74/12 132/73/12 133/75/12
f 133/75/5 132/73/5 105/74/5
f 106/76/12 133/75/12 134/77/12
f 134/77/5 133/75/5 106/76/5
f 120/78/12 134/77/12 135/79/12
f 135/79/5 134/77/5 120/78/5
usemtl material-1
f 1/4/4 3/3/4 2/2/4
f 3/3/4 1/4/4 4/6/4
f 6/81/12 1/1/12 5/5/12
f 4/80/12 6/81/12 8/82/12
f 9/83/12 8/82/12 6/81/12
f 12/23/12 8/82/12 9/83/12
f 9/84/3 16/8/3 12/85/3
f 8/17/3 17/7/3 14/16/3
f 10/81/12 22/88/12 19/86/12
f 23/89/12 13/83/12 20/87/12
f 10/81/12 29/91/12 22/88/12
f 30/92/12 13/83/12 23/89/12
f 38/35/2 21/13/2 31/34/2
f 21/32/12 39/57/12 32/93/12
f 40/36/2 25/19/2 32/13/2
f 34/24/3 42/30/3 26/29/3
f 10/81/12 48/98/12 36/94/12
f 32/93/12 52/71/12 40/99/12
f 41/95/12 13/83/12 53/100/12
f 50/58/12 34/33/12 42/96/12
f 32/93/12 51/59/12 65/74/12
f 32/93/12 67/69/12 52/71/12
f 43/103/12 28/90/12 59/106/12
f 59/106/12 28/90/12 44/97/12
f 32/93/12 65/74/12 85/76/12
f 40/99/12 68/72/12 66/102/12
f 32/93/12 86/78/12 67/69/12
f 42/26/2 55/105/2 91/117/2
f 91/117/1 55/105/1 42/26/1
f 71/56/12 42/96/12 92/67/12
f 82/55/3 93/52/3 50/44/3
f 104/62/2 51/61/2 83/60/2
f 32/93/12 85/76/12 86/78/12
f 100/118/24 56/108/17 66/104/17
f 87/110/19 67/109/18 108/126/18
f 108/126/21 67/109/21 87/110/20
f 88/112/2 52/111/19 87/110/19
f 87/110/20 52/111/20 88/112/1
f 109/127/33 68/113/2 88/112/2
f 88/112/1 68/113/1 109/127/34
f 91/116/23 70/115/22 107/130/22
f 112/70/12 42/96/12 91/101/12
f 92/67/12 42/96/12 113/73/12
f 116/133/36 77/119/24 100/118/24
f 77/119/24 116/133/36 101/134/36
f 105/121/26 84/116/25 104/8/25
f 104/8/28 84/116/28 105/121/27
f 106/123/29 65/122/26 105/121/26
f 105/121/27 65/122/27 106/123/30
f 120/137/31 85/124/29 106/123/29
f 106/123/30 85/124/30 120/137/32
f 108/126/18 86/125/31 120/137/31
f 120/137/32 86/125/32 108/126/21
f 107/130/22 90/129/35 121/141/35
f 123/79/12 42/96/12 112/70/12
f 113/73/12 42/96/12 124/75/12
f 93/132/2 92/131/2 119/144/2
f 119/144/1 92/131/1 93/132/1
f 100/107/12 128/128/12 116/120/12
f 129/145/42 101/134/36 116/133/36
f 100/107/12 121/114/12 128/128/12
f 135/149/43 112/138/33 109/127/33
f 109/127/34 112/138/34 135/149/44
f 121/141/35 111/140/37 128/151/37
f 136/77/12 42/96/12 123/79/12
f 124/75/12 42/96/12 136/77/12
f 119/143/39 113/142/38 132/154/38
f 132/154/41 113/142/41 119/143/40
f 116/120/12 128/128/12 137/139/12
f 116/120/12 137/139/12 129/135/12
f 138/155/48 117/146/42 129/145/42
f 128/151/37 122/150/45 137/161/45
f 123/152/43 134/162/50 136/163/50
f 136/163/51 134/162/51 123/152/44
f 134/162/50 123/152/43 135/149/43
f 135/149/44 123/152/44 134/162/51
f 132/154/38 124/153/46 133/164/46
f 133/164/47 124/153/47 132/154/41
f 129/135/12 137/139/12 140/148/12
f 129/135/12 140/148/12 138/147/12
f 139/157/2 130/156/48 138/155/48
f 140/159/49 118/158/2 139/157/2
f 137/161/45 131/160/49 140/159/49
f 133/164/46 136/163/50 134/162/50
f 134/162/51 136/163/51 133/164/47
f 138/147/12 140/148/12 139/136/12
usemtl material-3
f 5/5/5 1/1/5 6/81/5
f 8/82/5 6/81/5 4/80/5
f 6/81/5 8/82/5 9/83/5
f 9/83/5 8/82/5 12/23/5
f 9/15/2 13/14/2 6/9/2
f 12/85/4 16/8/4 9/84/4
f 14/16/4 17/7/4 8/17/4
f 19/86/5 22/88/5 10/81/5
f 20/87/5 13/83/5 23/89/5
f 22/88/5 29/91/5 10/81/5
f 23/89/5 13/83/5 30/92/5
f 36/94/5 48/98/5 10/81/5
f 53/100/5 13/83/5 41/95/5
f 59/106/5 28/90/5 43/103/5
f 44/97/5 28/90/5 59/106/5
usemtl material-4
f 3//3 7//3 4//3
usemtl material-8
f 53/47/53 81/46/53 49/41/52
f 63/40/52 49/41/52 81/46/53
f 81/167/1 53/166/1 54/165/1
usemtl material-10
f 61/170/12 45/169/12 46/168/12
f 54/165/2 53/166/2 81/167/2
f 57/172/12 95/173/12 58/174/12
f 73/175/12 72/176/12 57/172/12
f 58/174/12 98/177/12 74/178/12
f 76/179/12 60/171/12 61/170/12
f 73/175/12 94/180/12 72/176/12
f 57/172/12 72/176/12 95/173/12
f 97/181/12 94/180/12 73/175/12
f 58/174/12 95/173/12 98/177/12
f 74/178/12 98/177/12 115/182/12
f 74/178/12 115/182/12 75/183/12
f 76/179/12 99/184/12 60/171/12
f 75/183/12 99/184/12 76/179/12
f 97/181/12 96/185/12 94/180/12
f 125/186/12 114/187/12 96/185/12
f 75/183/12 115/182/12 99/184/12
f 125/186/12 96/185/12 97/181/12
f 127/188/12 114/187/12 125/186/12
f 114/187/12 127/188/12 126/189/12
usemtl material-11
f 78/191/12 47/190/12 79/192/12
f 79/192/5 47/190/5 78/191/5
usemtl material-12
f 32/93/5 39/57/5 21/32/5
f 40/99/5 52/71/5 32/93/5
f 42/96/5 34/33/5 50/58/5
f 65/74/5 51/59/5 32/93/5
f 52/71/5 67/69/5 32/93/5
f 85/76/5 65/74/5 32/93/5
f 66/102/5 68/72/5 40/99/5
f 67/69/5 86/78/5 32/93/5
f 92/67/5 42/96/5 71/56/5
f 86/78/5 85/76/5 32/93/5
f 66/104/54 56/108/54 100/118/57
f 107/130/56 70/115/56 91/116/55
f 91/101/5 42/96/5 112/70/5
f 113/73/5 42/96/5 92/67/5
f 100/118/57 77/119/57 116/133/59
f 101/134/59 116/133/59 77/119/57
f 121/141/58 90/129/58 107/130/56
f 112/70/5 42/96/5 123/79/5
f 124/75/5 42/96/5 113/73/5
f 116/120/5 128/128/5 100/107/5
f 116/133/59 101/134/59 129/145/61
f 128/128/5 121/114/5 100/107/5
f 128/151/60 111/140/60 121/141/58
f 123/79/5 42/96/5 136/77/5
f 136/77/5 42/96/5 124/75/5
f 137/139/5 128/128/5 116/120/5
f 129/135/5 137/139/5 116/120/5
f 129/145/61 117/146/61 138/155/63
f 137/161/62 122/150/62 128/151/60
f 140/148/5 137/139/5 129/135/5
f 138/147/5 140/148/5 129/135/5
f 138/155/63 130/156/63 139/157/1
f 139/157/1 118/158/1 140/159/64
f 140/159/64 131/160/64 137/161/62
f 139/136/5 140/148/5 138/147/5
usemtl material-13
f 46//5 45//5 61//5
f 58//5 95//5 57//5
f 57//5 72//5 73//5
f 74//5 98//5 58//5
f 61//5 60//5 76//5
f 72//5 94//5 73//5
f 95//5 72//5 57//5
f 73//5 94//5 97//5
f 98//5 95//5 58//5
f 115//5 98//5 74//5
f 75//5 115//5 74//5
f 60//5 99//5 76//5
f 76//5 99//5 75//5
f 94//5 96//5 97//5
f 96//5 114//5 125//5
f 99//5 115//5 75//5
f 97//5 96//5 125//5
f 125//5 114//5 127//5
f 126//5 127//5 114//5