# SSTK version 0.8.0
# 2
mtllib original-2.mtl
o mesh2/mesh2-geometry#mesh2-geometry
v 0.295310 -0.025703 0.000381
v 0.295304 -0.021321 0.000582
v 0.295307 -0.023525 0.000770
v 0.295301 -0.019240 -0.000170
v 0.220676 -0.021418 0.000582
v 0.220679 -0.023622 0.000770
v 0.295312 -0.027707 -0.000559
v 0.220674 -0.019337 -0.000170
v 0.220682 -0.025800 0.000381
v 0.295299 -0.017425 -0.001435
v 0.220671 -0.017521 -0.001435
v 0.220685 -0.027803 -0.000559
v 0.295315 -0.029398 -0.001985
v 0.295297 -0.015999 -0.003127
v 0.220687 -0.029495 -0.001985
v 0.295316 -0.030663 -0.003800
v 0.220669 -0.016095 -0.003127
v 0.220688 -0.030760 -0.003800
v 0.295296 -0.015059 -0.005130
v 0.220689 -0.031512 -0.005881
v 0.295317 -0.031415 -0.005881
v 0.220668 -0.015156 -0.005130
v 0.295296 -0.014670 -0.007308
v 0.220690 -0.031700 -0.008086
v 0.220668 -0.014767 -0.007308
v 0.295317 -0.031603 -0.008086
v 0.295296 -0.014858 -0.009513
v 0.220668 -0.014955 -0.009513
v 0.295317 -0.031214 -0.010264
v 0.220689 -0.031311 -0.010264
v 0.295297 -0.015610 -0.011593
v 0.220669 -0.015707 -0.011593
v 0.295316 -0.030274 -0.012267
v 0.220688 -0.030371 -0.012267
v 0.295298 -0.016875 -0.013409
v 0.220671 -0.016972 -0.013409
v 0.295314 -0.028848 -0.013958
v 0.220686 -0.028945 -0.013958
v 0.295301 -0.018567 -0.014835
v 0.220684 -0.027130 -0.015223
v 0.220673 -0.018663 -0.014835
v 0.295312 -0.027033 -0.015223
v 0.295303 -0.020570 -0.015774
v 0.220681 -0.025049 -0.015975
v 0.220675 -0.020666 -0.015774
v 0.295309 -0.024952 -0.015975
v 0.295306 -0.022748 -0.016163
v 0.220678 -0.022845 -0.016163
vt 0.014082 0.822259
vt 0.013895 0.826337
vt 0.01372 0.824286
vt 0.014595 0.828273
vt 0.006194 0
vt 0.008259 0.069444
vt 0.006194 0.069444
vt 0.008259 0
vt 0.010324 0.069444
vt 0.014956 0.820395
vt 0.00413 0
vt 0.00413 0.069444
vt 0.010324 0
vt 0.012389 0.069444
vt 0.015772 0.829963
vt 0.002065 0
vt -0.013895 0.826337
vt -0.014082 0.822259
vt -0.01372 0.824286
vt -0.014595 0.828273
vt 0.012389 0
vt 0.016283 0.818821
vt 0.002065 0.069444
vt -0.014956 0.820395
vt -0.015772 0.829963
vt 0.014453 0.069444
vt 0.017346 0.83129
vt 0 0.069444
vt -0.016283 0.818821
vt 0.014453 0
vt 0.017972 0.817644
vt 0 0
vt -0.017346 0.83129
vt 0.016518 0
vt 0.016518 0.069444
vt 0.01921 0.832164
vt 0.04749 0.069444
vt 0.049555 0
vt 0.049555 0.069444
vt -0.017972 0.817644
vt 0.018583 0
vt 0.019909 0.816944
vt 0.04749 0
vt -0.01921 0.832164
vt 0.018583 0.069444
vt -0.019909 0.816944
vt 0.021237 0.832526
vt 0.045425 0.069444
vt 0.020648 0
vt -0.021237 0.832526
vt 0.02196 0.816769
vt 0.045425 0
vt 0.020648 0.069444
vt -0.02196 0.816769
vt 0.023288 0.832351
vt 0.04336 0
vt 0.022713 0.069444
vt -0.023288 0.832351
vt 0.023987 0.817131
vt 0.04336 0.069444
vt 0.022713 0
vt -0.023987 0.817131
vt 0.025224 0.831651
vt 0.041296 0
vt 0.024777 0.069444
vt -0.025224 0.831651
vt 0.025851 0.818005
vt 0.041296 0.069444
vt 0.024777 0
vt -0.025851 0.818005
vt 0.026914 0.830474
vt 0.039231 0
vt 0.026842 0.069444
vt -0.026914 0.830474
vt 0.027425 0.819332
vt 0.039231 0.069444
vt 0.026842 0
vt -0.027425 0.819332
vt 0.028241 0.8289
vt 0.037166 0.069444
vt 0.028907 0
vt -0.028241 0.8289
vt 0.028602 0.821021
vt 0.037166 0
vt 0.028907 0.069444
vt -0.028602 0.821021
vt 0.029115 0.827036
vt 0.035101 0.069444
vt 0.030972 0
vt -0.029115 0.827036
vt 0.029302 0.822958
vt 0.035101 0
vt 0.030972 0.069444
vt -0.029302 0.822958
vt 0.029477 0.825009
vt 0.033036 0.069444
vt 0.033036 0
vt -0.029477 0.825009
vn 0.9999991588948791 0.0012970002060868643 0
vn -0.0002779999436597031 0.21424095658128917 0.9767808020426924
vn 0.00005900002992145976 -0.04586802326165304 0.9989475066093638
vn 0.0003929998196530136 -0.30285186102176737 0.9530375626525922
vn -0.0005960000989300647 0.45975007631392134 0.8880481474071245
vn 0.0006990000113877588 -0.5391960087843121 0.8421800137203758
vn -0.000874000330950776 0.6739282551910691 0.73879627975413
vn -0.9999991588948791 -0.0012970002060868643 0
vn 0.0009579996434225401 -0.7387957250125251 0.6739287491566899
vn -0.0010919999643385578 0.8421789724969616 0.5391969823914446
vn 0.0011520001248111562 -0.8880470962136917 0.4597510498108104
vn -0.0012359997620892266 0.9530368165552024 0.3028519417057013
vn 0.0012670000128157052 -0.9767800098801298 0.21424100216704753
vn -0.001294999573130656 0.9989466707182622 0.045867984880584724
vn 0.001294999573130656 -0.9989466707182622 -0.045867984880584724
vn -0.0012670000128157052 0.9767800098801298 -0.21424100216704753
vn 0.0012359997620892266 -0.9530368165552024 -0.3028519417057013
vn -0.0011520001248111562 0.8880470962136917 -0.4597510498108104
vn 0.0010919999643385578 -0.8421789724969616 -0.5391969823914446
vn -0.0009579996434225401 0.7387957250125251 -0.6739287491566899
vn 0.000874000330950776 -0.6739282551910691 -0.73879627975413
vn -0.0006990000113877588 0.5391960087843121 -0.8421800137203758
vn 0.0005960000989300647 -0.45975007631392134 -0.8880481474071245
vn -0.0003929998196530136 0.30285186102176737 -0.9530375626525922
vn 0.0002779999436597031 -0.21424095658128917 -0.9767808020426924
vn -0.00005900002992145976 0.04586802326165304 -0.9989475066093638
usemtl material_0_0
f 1/1/1 2/2/1 3/3/1
f 2/2/1 1/1/1 4/4/1
f 5/5/2 3/6/3 2/7/2
f 6/8/3 1/9/4 3/6/3
f 4/4/1 1/1/1 7/10/1
f 8/11/5 2/7/2 4/12/5
f 3/6/3 5/5/2 6/8/3
f 2/7/2 8/11/5 5/5/2
f 1/9/4 6/8/3 9/13/4
f 9/13/4 7/14/6 1/9/4
f 4/4/1 7/10/1 10/15/1
f 4/12/5 11/16/7 8/11/5
f 5/17/8 9/18/8 6/19/8
f 9/18/8 5/17/8 8/20/8
f 7/14/6 9/13/4 12/21/6
f 10/15/1 7/10/1 13/22/1
f 11/16/7 4/12/5 10/23/7
f 12/24/8 8/20/8 11/25/8
f 9/18/8 8/20/8 12/24/8
f 12/21/6 13/26/9 7/14/6
f 10/15/1 13/22/1 14/27/1
f 14/28/10 11/16/7 10/23/7
f 12/24/8 11/25/8 15/29/8
f 13/26/9 12/21/6 15/30/9
f 14/27/1 13/22/1 16/31/1
f 11/16/7 14/28/10 17/32/10
f 15/29/8 11/25/8 17/33/8
f 18/34/11 13/26/9 15/30/9
f 13/26/9 18/34/11 16/35/11
f 14/27/1 16/31/1 19/36/1
f 19/37/12 17/38/10 14/39/10
f 15/29/8 17/33/8 18/40/8
f 20/41/13 16/35/11 18/34/11
f 19/36/1 16/31/1 21/42/1
f 17/38/10 19/37/12 22/43/12
f 18/40/8 17/33/8 22/44/8
f 16/35/11 20/41/13 21/45/13
f 18/40/8 22/44/8 20/46/8
f 19/36/1 21/42/1 23/47/1
f 23/48/14 22/43/12 19/37/12
f 24/49/15 21/45/13 20/41/13
f 20/46/8 22/44/8 25/50/8
f 23/47/1 21/42/1 26/51/1
f 22/43/12 23/48/14 25/52/14
f 21/45/13 24/49/15 26/53/15
f 20/46/8 25/50/8 24/54/8
f 23/47/1 26/51/1 27/55/1
f 23/48/14 28/56/16 25/52/14
f 24/49/15 29/57/17 26/53/15
f 24/54/8 25/50/8 28/58/8
f 27/55/1 26/51/1 29/59/1
f 28/56/16 23/48/14 27/60/16
f 29/57/17 24/49/15 30/61/17
f 24/54/8 28/58/8 30/62/8
f 27/55/1 29/59/1 31/63/1
f 27/60/16 32/64/18 28/56/16
f 30/61/17 33/65/19 29/57/17
f 30/62/8 28/58/8 32/66/8
f 31/63/1 29/59/1 33/67/1
f 32/64/18 27/60/16 31/68/18
f 33/65/19 30/61/17 34/69/19
f 30/62/8 32/66/8 34/70/8
f 31/63/1 33/67/1 35/71/1
f 31/68/18 36/72/20 32/64/18
f 34/69/19 37/73/21 33/65/19
f 34/70/8 32/66/8 36/74/8
f 35/71/1 33/67/1 37/75/1
f 36/72/20 31/68/18 35/76/20
f 37/73/21 34/69/19 38/77/21
f 34/70/8 36/74/8 38/78/8
f 35/71/1 37/75/1 39/79/1
f 39/80/22 36/72/20 35/76/20
f 40/81/23 37/73/21 38/77/21
f 38/78/8 36/74/8 41/82/8
f 39/79/1 37/75/1 42/83/1
f 36/72/20 39/80/22 41/84/22
f 37/73/21 40/81/23 42/85/23
f 38/78/8 41/82/8 40/86/8
f 39/79/1 42/83/1 43/87/1
f 43/88/24 41/84/22 39/80/22
f 44/89/25 42/85/23 40/81/23
f 40/86/8 41/82/8 45/90/8
f 43/87/1 42/83/1 46/91/1
f 41/84/22 43/88/24 45/92/24
f 42/85/23 44/89/25 46/93/25
f 40/86/8 45/90/8 44/94/8
f 43/87/1 46/91/1 47/95/1
f 47/96/26 45/92/24 43/88/24
f 48/97/26 46/93/25 44/89/25
f 44/94/8 45/90/8 48/98/8
f 46/93/25 48/97/26 47/96/26
f 45/92/24 47/96/26 48/97/26
usemtl material_1_0
f 3//8 2//8 1//8
f 4//8 1//8 2//8
f 2//25 3//26 5//25
f 3//26 1//24 6//26
f 7//8 1//8 4//8
f 4//23 2//25 8//23
f 6//26 5//25 3//26
f 5//25 8//23 2//25
f 9//24 6//26 1//24
f 1//24 7//22 9//24
f 10//8 7//8 4//8
f 8//23 11//21 4//23
f 6//1 9//1 5//1
f 8//1 5//1 9//1
f 12//22 9//24 7//22
f 13//8 7//8 10//8
f 10//21 4//23 11//21
f 11//1 8//1 12//1
f 12//1 8//1 9//1
f 7//22 13//20 12//22
f 14//8 13//8 10//8
f 10//21 11//21 14//19
f 15//1 11//1 12//1
f 15//20 12//22 13//20
f 16//8 13//8 14//8
f 17//19 14//19 11//21
f 17//1 11//1 15//1
f 15//20 13//20 18//18
f 16//18 18//18 13//20
f 19//8 16//8 14//8
f 14//19 17//19 19//17
f 18//1 17//1 15//1
f 18//18 16//18 20//16
f 21//8 16//8 19//8
f 22//17 19//17 17//19
f 22//1 17//1 18//1
f 21//16 20//16 16//18
f 20//1 22//1 18//1
f 23//8 21//8 19//8
f 19//17 22//17 23//15
f 20//16 21//16 24//14
f 25//1 22//1 20//1
f 26//8 21//8 23//8
f 25//15 23//15 22//17
f 26//14 24//14 21//16
f 24//1 25//1 20//1
f 27//8 26//8 23//8
f 25//15 28//13 23//15
f 26//14 29//12 24//14
f 28//1 25//1 24//1
f 29//8 26//8 27//8
f 27//13 23//15 28//13
f 30//12 24//14 29//12
f 30//1 28//1 24//1
f 31//8 29//8 27//8
f 28//13 32//11 27//13
f 29//12 33//10 30//12
f 32//1 28//1 30//1
f 33//8 29//8 31//8
f 31//11 27//13 32//11
f 34//10 30//12 33//10
f 34//1 32//1 30//1
f 35//8 33//8 31//8
f 32//11 36//9 31//11
f 33//10 37//7 34//10
f 36//1 32//1 34//1
f 37//8 33//8 35//8
f 35//9 31//11 36//9
f 38//7 34//10 37//7
f 38//1 36//1 34//1
f 39//8 37//8 35//8
f 35//9 36//9 39//6
f 38//7 37//7 40//5
f 41//1 36//1 38//1
f 42//8 37//8 39//8
f 41//6 39//6 36//9
f 42//5 40//5 37//7
f 40//1 41//1 38//1
f 43//8 42//8 39//8
f 39//6 41//6 43//4
f 40//5 42//5 44//2
f 45//1 41//1 40//1
f 46//8 42//8 43//8
f 45//4 43//4 41//6
f 46//2 44//2 42//5
f 44//1 45//1 40//1
f 47//8 46//8 43//8
f 43//4 45//4 47//3
f 44//2 46//2 48//3
f 48//1 45//1 44//1
f 47//3 48//3 46//2
f 48//3 47//3 45//4
