# SSTK version 0.8.0
# 2
mtllib original-2.mtl
o Button1/Button/mesh7/mesh7-geometry#mesh7-geometry
v 0.483047 -0.500145 0.248025
v -0.011032 -0.501798 0.248287
v 0.470334 -0.501798 0.248287
v -0.011032 0.565515 0.079241
v 0.470334 -0.516684 0.091505
v 0.494894 -0.495299 0.247258
v -0.011032 0.531223 -0.074468
v -0.011032 -0.516684 0.091505
v 0.481943 -0.516452 0.091468
v 0.505067 -0.487589 0.246037
v 0.470334 0.531223 -0.074468
v 0.493096 -0.513260 0.090962
v 0.512873 -0.477541 0.244445
v 0.470334 0.565515 0.079241
v 0.481943 0.530991 -0.074431
v 0.503032 -0.507326 0.090023
v 0.511075 -0.499054 0.088712
v 0.517779 -0.465840 0.242592
v 0.483047 0.563862 0.079503
v 0.493096 0.527800 -0.073925
v 0.516676 -0.489008 0.087121
v 0.519453 -0.453284 0.240603
v 0.494894 0.559015 0.080271
v 0.503032 0.521866 -0.072986
v 0.519453 -0.477873 0.085358
v 0.519453 0.517001 0.086925
v 0.505067 0.551305 0.081492
v 0.511075 0.513594 -0.071675
v 0.519453 0.492412 -0.068321
v 0.517779 0.529557 0.084936
v 0.512873 0.541258 0.083083
v 0.516676 0.503548 -0.070084
vn 0 0.15643466467539133 0.9876883089760139
vn 0 -0.15643466467539133 -0.9876883089760139
vn 0 -0.9955229603086997 0.09452002696890816
vn 0 0.9955229603086997 -0.09452002696890816
vn 0.07535997939639427 -0.9922570593326049 0.09872589179129518
vn 0.17973204223898542 -0.9788293020962532 0.09792645378224063
vn 0.13027597448799447 -0.9870389444169301 0.09371388731407844
vn -0.13027597448799447 0.9870389444169301 -0.09371388731407844
vn -0.17973204223898542 0.9788293020962532 -0.09792645378224063
vn -0.07535997939639427 0.9922570593326049 -0.09872589179129518
vn -1 0 0
vn 1 0 0
vn 0.2295949708607311 -0.9679009768939347 0.10224406233726523
vn -0.2295949708607311 0.9679009768939347 -0.10224406233726523
vn 0.4280211277034759 -0.8986993633853161 0.09558958358666612
vn -0.4280211277034759 0.8986993633853161 -0.09558958358666612
vn 0 0.9760068051444699 -0.21774002000478684
vn 0 -0.9760068051444699 0.21774002000478684
vn 0.4735649187422082 -0.8752681655113737 0.09819320841606197
vn -0.4735649187422082 0.8752681655113737 -0.09819320841606197
vn 0.6665987658325506 -0.740555160726836 0.08499493697491736
vn -0.6665987658325506 0.740555160726836 -0.08499493697491736
vn 0.6243697324198406 -0.7759246432309983 0.09001880506219008
vn -0.6243697324198406 0.7759246432309983 -0.09001880506219008
vn 0.8012486720582216 -0.594247108935729 0.06979211306776847
vn 0.8692765569829244 -0.49061017917042304 0.06049726914727599
vn -0.8692765569829244 0.49061017917042304 -0.06049726914727599
vn -0.8012486720582216 0.594247108935729 -0.06979211306776847
vn 0.020201994864120054 0.9758074576064528 -0.21769631389424357
vn 0.07538501204773548 0.9741078606041413 -0.21314543360763288
vn 0.14364595286997703 0.9669632863403489 -0.21058927582844478
vn -0.14364595286997703 -0.9669632863403489 0.21058927582844478
vn -0.07538501204773548 -0.9741078606041413 0.21314543360763288
vn -0.020201994864120054 -0.9758074576064528 0.21769631389424357
vn 0.9288700096312341 -0.36764551977961035 0.04513620490970868
vn -0.9288700096312341 0.36764551977961035 -0.04513620490970868
vn 0.9676408721487594 -0.25014184978216264 0.033169225718223574
vn -0.9676408721487594 0.25014184978216264 -0.033169225718223574
vn 0.2650488984770512 0.9431570406033082 -0.20050904761758662
vn -0.2650488984770512 -0.9431570406033082 0.20050904761758662
vn 0.39466883751330534 0.8990321200445162 -0.18967803200201827
vn -0.39466883751330534 -0.8990321200445162 0.18967803200201827
vn 0.982699734544884 -0.18357712758196315 0.024508568994742245
vn -0.982699734544884 0.18357712758196315 -0.024508568994742245
vn 0.9914448865584633 -0.1289190051295115 0.020418791185884043
vn -0.9914448865584633 0.1289190051295115 -0.020418791185884043
vn 0.5054791961175417 0.845074092533335 -0.1741854196576868
vn -0.5054791961175417 -0.845074092533335 0.1741854196576868
vn 0.6666029741609425 0.7305709089830051 -0.14800885712528022
vn -0.6666029741609425 -0.7305709089830051 0.14800885712528022
vn 0.7067667186449291 0.6931691977106953 -0.1414116995194913
vn -0.7067667186449291 -0.6931691977106953 0.1414116995194913
vn 0.822618788135962 0.5574534429495428 -0.11199994798847934
vn 0.85059625123149 0.5163957276489283 -0.09910332919165588
vn -0.85059625123149 -0.5163957276489283 0.09910332919165588
vn -0.822618788135962 -0.5574534429495428 0.11199994798847934
vn 0.9827012042204742 0.18223447787842859 -0.0329990650777601
vn 0.9709666382087373 0.23626979950107324 -0.03742150891326381
vn 0.9577526184281894 0.28299566077489174 -0.05121892107931846
vn -0.9577526184281894 -0.28299566077489174 0.05121892107931846
vn -0.9709666382087373 -0.23626979950107324 0.03742150891326381
vn -0.9827012042204742 -0.18223447787842859 0.0329990650777601
vn 0.9418104133059242 0.32983215534075405 -0.06483744822089306
vn -0.9418104133059242 -0.32983215534075405 0.06483744822089306
usemtl material_0_0
f 1//1 2//1 3//1
f 2//1 1//1 4//1
f 3//2 2//2 1//2
f 4//2 1//2 2//2
f 2//3 5//3 3//3
f 3//4 5//4 2//4
f 5//5 1//6 3//7
f 3//8 1//9 5//10
f 4//1 1//1 6//1
f 6//2 1//2 4//2
f 7//11 2//11 4//11
f 4//12 2//12 7//12
f 5//3 2//3 8//3
f 8//4 2//4 5//4
f 5//5 9//13 1//6
f 1//9 9//14 5//10
f 9//13 6//15 1//6
f 1//9 6//16 9//14
f 4//1 6//1 10//1
f 10//2 6//2 4//2
f 2//11 7//11 8//11
f 8//12 7//12 2//12
f 4//17 11//17 7//17
f 7//18 11//18 4//18
f 8//2 9//2 5//2
f 5//1 9//1 8//1
f 9//13 12//19 6//15
f 6//16 12//20 9//14
f 12//19 10//21 6//15
f 6//16 10//22 12//20
f 4//1 10//1 13//1
f 13//2 10//2 4//2
f 9//2 8//2 7//2
f 7//1 8//1 9//1
f 11//17 4//17 14//17
f 14//18 4//18 11//18
f 15//2 7//2 11//2
f 11//1 7//1 15//1
f 9//2 7//2 12//2
f 12//1 7//1 9//1
f 12//19 16//23 10//21
f 10//22 16//24 12//20
f 10//21 17//25 13//26
f 13//27 17//28 10//22
f 4//1 13//1 18//1
f 18//2 13//2 4//2
f 4//1 19//1 14//1
f 14//2 19//2 4//2
f 11//29 14//30 15//31
f 15//32 14//33 11//34
f 20//2 7//2 15//2
f 15//1 7//1 20//1
f 12//2 7//2 16//2
f 16//1 7//1 12//1
f 10//21 16//23 17//25
f 17//28 16//24 10//22
f 13//26 17//25 21//35
f 21//36 17//28 13//27
f 13//26 21//35 18//37
f 18//38 21//36 13//27
f 4//1 18//1 22//1
f 22//2 18//2 4//2
f 4//1 23//1 19//1
f 19//2 23//2 4//2
f 14//30 19//39 15//31
f 15//32 19//40 14//33
f 24//2 7//2 20//2
f 20//1 7//1 24//1
f 15//31 19//39 20//41
f 20//42 19//40 15//32
f 16//2 7//2 17//2
f 17//1 7//1 16//1
f 17//2 7//2 21//2
f 21//1 7//1 17//1
f 18//37 21//35 25//43
f 25//44 21//36 18//38
f 18//37 25//43 22//45
f 22//46 25//44 18//38
f 4//1 22//1 26//1
f 26//2 22//2 4//2
f 4//1 27//1 23//1
f 23//2 27//2 4//2
f 19//39 23//47 20//41
f 20//42 23//48 19//40
f 28//2 7//2 24//2
f 24//1 7//1 28//1
f 20//41 23//47 24//49
f 24//50 23//48 20//42
f 21//2 7//2 25//2
f 25//1 7//1 21//1
f 29//12 22//12 25//12
f 25//11 22//11 29//11
f 22//12 29//12 26//12
f 26//11 29//11 22//11
f 4//1 26//1 30//1
f 30//2 26//2 4//2
f 4//1 31//1 27//1
f 27//2 31//2 4//2
f 23//47 27//51 24//49
f 24//50 27//52 23//48
f 32//2 7//2 28//2
f 28//1 7//1 32//1
f 31//53 28//54 24//49
f 24//50 28//55 31//56
f 25//2 7//2 29//2
f 29//1 7//1 25//1
f 26//57 29//58 32//59
f 32//60 29//61 26//62
f 26//57 32//59 30//63
f 30//64 32//60 26//62
f 4//1 30//1 31//1
f 31//2 30//2 4//2
f 31//53 24//49 27//51
f 27//52 24//50 31//56
f 29//2 7//2 32//2
f 32//1 7//1 29//1
f 30//63 32//59 28//54
f 28//55 32//60 30//64
f 30//63 28//54 31//53
f 31//56 28//55 30//64
