# SSTK version 0.8.0
# 4
mtllib original-4.mtl
o mesh4/mesh4-geometry#mesh4-geometry
v -0.165423 -0.847470 0.040530
v -0.165423 -0.561410 -0.240336
v -0.165423 -0.645210 -0.240336
v -0.165423 -0.763670 0.040530
v 0.192151 -0.645210 -0.240336
v -0.165423 -0.645210 0.336373
v 0.192151 -0.763670 0.040530
v 0.192151 -0.561410 -0.240336
v 0.192151 -0.847470 0.040530
v 0.192151 -0.645210 0.336373
v -0.165423 -0.561410 0.336373
v 0.192151 -0.561410 0.336373
vn -1 0 0
vn 1 0 0
vn 0 0 -1
vn 0 0 1
vn 0 -0.8114846441230816 -0.5843737437226587
vn 0 0.8114846441230816 0.5843737437226587
vn 0 -0.8255138323711783 0.564381885396626
vn 0 0.8255138323711783 -0.564381885396626
usemtl material_0_0
f 1//1 2//1 3//1
f 2//1 1//1 4//1
f 3//2 2//2 1//2
f 4//2 1//2 2//2
f 2//3 5//3 3//3
f 3//4 5//4 2//4
f 5//5 1//5 3//5
f 3//6 1//6 5//6
f 4//1 1//1 6//1
f 6//2 1//2 4//2
f 7//6 2//6 4//6
f 4//5 2//5 7//5
f 5//3 2//3 8//3
f 8//4 2//4 5//4
f 1//5 5//5 9//5
f 9//6 5//6 1//6
f 1//7 10//7 6//7
f 6//8 10//8 1//8
f 4//1 6//1 11//1
f 11//2 6//2 4//2
f 2//6 7//6 8//6
f 8//5 7//5 2//5
f 4//8 12//8 7//8
f 7//7 12//7 4//7
f 7//2 5//2 8//2
f 8//1 5//1 7//1
f 5//2 7//2 9//2
f 9//1 7//1 5//1
f 10//7 1//7 9//7
f 9//8 1//8 10//8
f 12//4 6//4 10//4
f 10//3 6//3 12//3
f 6//4 12//4 11//4
f 11//3 12//3 6//3
f 12//8 4//8 11//8
f 11//7 4//7 12//7
f 9//2 7//2 12//2
f 12//1 7//1 9//1
f 9//2 12//2 10//2
f 10//1 12//1 9//1
