# SSTK version 0.8.0
# 3
mtllib original-3.mtl
o mesh3/mesh3-geometry#mesh3-geometry
v 0.421963 -0.474336 -0.584635
v -0.436214 -0.474336 -0.441605
v -0.436214 -0.474336 -0.584635
v 0.421963 -0.474336 -0.441605
v -0.436214 -0.664056 -0.584635
v 0.421963 -0.664056 -0.119789
v 0.421963 0.458881 -0.441605
v -0.436214 -0.664056 -0.119789
v 0.421963 -0.664056 -0.584635
v -0.436214 0.458881 -0.441605
v -0.436214 0.623210 -0.119789
v -0.165423 -0.664056 -0.119789
v -0.165423 -0.664056 -0.262818
v 0.192151 -0.664056 -0.262818
v 0.421963 0.623210 -0.119789
v -0.436214 0.458881 -0.584635
v -0.436214 0.490358 -0.119789
v -0.436214 -0.531204 -0.119789
v 0.192151 -0.664056 -0.119789
v 0.421963 0.623210 -0.584635
v 0.421963 -0.531204 -0.119789
v 0.421963 0.458881 -0.584635
v -0.185912 0.490358 -0.119789
v -0.165423 -0.531204 -0.262818
v -0.165423 -0.531204 -0.119789
v 0.192151 -0.531204 -0.119789
v 0.171662 0.623210 -0.119789
v 0.421963 0.490358 -0.119789
v -0.436214 0.623210 -0.584635
v -0.185912 0.623210 -0.119789
v -0.436214 0.490358 0.345057
v 0.421963 -0.531204 0.345057
v 0.192151 -0.531204 -0.262818
v 0.171662 0.623210 -0.262818
v -0.185912 0.623210 -0.262818
v 0.421963 0.490358 0.345057
v -0.436214 -0.531204 0.345057
v 0.171662 0.490358 -0.262818
v 0.171662 0.490358 -0.119789
v -0.185912 0.490358 -0.262818
v 0.529236 0.730483 0.345057
v -0.543486 -0.771328 0.345057
v 0.529236 -0.771328 0.345057
v -0.543486 0.730483 0.345057
v 0.529236 0.730483 0.488087
v -0.543486 -0.771328 0.488087
v 0.529236 -0.771328 0.488087
v -0.543486 0.730483 0.488087
v 0.308133 0.509380 0.488087
v -0.322384 0.509380 0.488087
v 0.308133 -0.550226 0.488087
v -0.322384 -0.550226 0.488087
v 0.308133 0.509380 0.345057
v -0.322384 -0.550226 0.345057
v -0.322384 0.509380 0.345057
v 0.308133 -0.550226 0.345057
vn 0 -1 0
vn 0 1 0
vn 1 0 0
vn -1 0 0
vn 0 0 1
vn 0 0 -1
usemtl material_0_0
f 1//1 2//1 3//1
f 2//1 1//1 4//1
f 3//2 2//2 1//2
f 4//2 1//2 2//2
f 2//3 5//3 3//3
f 3//4 5//4 2//4
f 5//5 1//5 3//5
f 3//6 1//6 5//6
f 1//4 6//4 4//4
f 4//3 6//3 1//3
f 7//5 2//5 4//5
f 4//6 2//6 7//6
f 5//3 2//3 8//3
f 8//4 2//4 5//4
f 1//5 5//5 9//5
f 9//6 5//6 1//6
f 6//4 1//4 9//4
f 9//3 1//3 6//3
f 4//4 6//4 7//4
f 7//3 6//3 4//3
f 2//5 7//5 10//5
f 10//6 7//6 2//6
f 8//3 2//3 11//3
f 11//4 2//4 8//4
f 12//2 5//2 8//2
f 8//1 5//1 12//1
f 5//2 13//2 9//2
f 9//1 13//1 5//1
f 9//2 14//2 6//2
f 6//1 14//1 9//1
f 15//4 7//4 6//4
f 6//3 7//3 15//3
f 7//2 16//2 10//2
f 10//1 16//1 7//1
f 10//3 11//3 2//3
f 2//4 11//4 10//4
f 8//3 11//3 17//3
f 17//4 11//4 8//4
f 5//2 12//2 13//2
f 13//1 12//1 5//1
f 18//6 12//6 8//6
f 8//5 12//5 18//5
f 9//2 13//2 14//2
f 14//1 13//1 9//1
f 6//2 14//2 19//2
f 19//1 14//1 6//1
f 20//4 7//4 15//4
f 15//3 7//3 20//3
f 15//4 6//4 21//4
f 21//3 6//3 15//3
f 16//2 7//2 22//2
f 22//1 7//1 16//1
f 16//3 11//3 10//3
f 10//4 11//4 16//4
f 11//6 23//6 17//6
f 17//5 23//5 11//5
f 8//3 17//3 18//3
f 18//4 17//4 8//4
f 12//4 24//4 13//4
f 13//3 24//3 12//3
f 12//6 18//6 25//6
f 25//5 18//5 12//5
f 24//6 14//6 13//6
f 13//5 14//5 24//5
f 14//3 26//3 19//3
f 19//4 26//4 14//4
f 26//6 6//6 19//6
f 19//5 6//5 26//5
f 7//4 20//4 22//4
f 22//3 20//3 7//3
f 27//1 20//1 15//1
f 15//2 20//2 27//2
f 6//6 26//6 21//6
f 21//5 26//5 6//5
f 15//4 21//4 28//4
f 28//3 21//3 15//3
f 20//5 16//5 22//5
f 22//6 16//6 20//6
f 11//3 16//3 29//3
f 29//4 16//4 11//4
f 23//6 11//6 30//6
f 30//5 11//5 23//5
f 23//1 31//1 17//1
f 17//2 31//2 23//2
f 31//3 18//3 17//3
f 17//4 18//4 31//4
f 24//4 12//4 25//4
f 25//3 12//3 24//3
f 18//2 32//2 25//2
f 25//1 32//1 18//1
f 14//6 24//6 33//6
f 33//5 24//5 14//5
f 26//3 14//3 33//3
f 33//4 14//4 26//4
f 34//1 20//1 27//1
f 27//2 20//2 34//2
f 28//6 27//6 15//6
f 15//5 27//5 28//5
f 26//2 32//2 21//2
f 21//1 32//1 26//1
f 32//4 28//4 21//4
f 21//3 28//3 32//3
f 16//5 20//5 29//5
f 29//6 20//6 16//6
f 29//1 35//1 11//1
f 11//2 35//2 29//2
f 30//1 11//1 35//1
f 35//2 11//2 30//2
f 35//4 23//4 30//4
f 30//3 23//3 35//3
f 31//1 23//1 36//1
f 36//2 23//2 31//2
f 18//3 31//3 37//3
f 37//4 31//4 18//4
f 25//2 32//2 24//2
f 24//1 32//1 25//1
f 32//2 18//2 37//2
f 37//1 18//1 32//1
f 33//2 24//2 26//2
f 26//1 24//1 33//1
f 35//1 20//1 34//1
f 34//2 20//2 35//2
f 27//3 38//3 34//3
f 34//4 38//4 27//4
f 27//6 28//6 39//6
f 39//5 28//5 27//5
f 24//2 32//2 26//2
f 26//1 32//1 24//1
f 28//4 32//4 36//4
f 36//3 32//3 28//3
f 35//1 29//1 20//1
f 20//2 29//2 35//2
f 23//4 35//4 40//4
f 40//3 35//3 23//3
f 36//1 23//1 39//1
f 39//2 23//2 36//2
f 36//5 41//5 31//5
f 31//6 41//6 36//6
f 31//5 42//5 37//5
f 37//6 42//6 31//6
f 37//5 42//5 32//5
f 32//6 42//6 37//6
f 38//6 35//6 34//6
f 34//5 35//5 38//5
f 38//3 27//3 39//3
f 39//4 27//4 38//4
f 36//1 39//1 28//1
f 28//2 39//2 36//2
f 43//5 36//5 32//5
f 32//6 36//6 43//6
f 35//6 38//6 40//6
f 40//5 38//5 35//5
f 38//1 23//1 40//1
f 40//2 23//2 38//2
f 39//1 23//1 38//1
f 38//2 23//2 39//2
f 41//5 36//5 43//5
f 43//6 36//6 41//6
f 44//5 31//5 41//5
f 41//6 31//6 44//6
f 31//5 44//5 42//5
f 42//6 44//6 31//6
f 43//5 32//5 42//5
f 42//6 32//6 43//6
f 45//3 43//3 41//3
f 41//4 43//4 45//4
f 44//2 45//2 41//2
f 41//1 45//1 44//1
f 46//4 44//4 42//4
f 42//3 44//3 46//3
f 43//1 46//1 42//1
f 42//2 46//2 43//2
f 43//3 45//3 47//3
f 47//4 45//4 43//4
f 45//2 44//2 48//2
f 48//1 44//1 45//1
f 44//4 46//4 48//4
f 48//3 46//3 44//3
f 46//1 43//1 47//1
f 47//2 43//2 46//2
f 45//5 49//5 47//5
f 47//6 49//6 45//6
f 48//5 50//5 45//5
f 45//6 50//6 48//6
f 50//5 48//5 46//5
f 46//6 48//6 50//6
f 47//5 51//5 46//5
f 46//6 51//6 47//6
f 49//5 45//5 50//5
f 50//6 45//6 49//6
f 47//5 49//5 51//5
f 51//6 49//6 47//6
f 50//5 46//5 52//5
f 52//6 46//6 50//6
f 52//5 46//5 51//5
f 51//6 46//6 52//6
f 50//1 53//1 49//1
f 49//2 53//2 50//2
f 53//4 51//4 49//4
f 49//3 51//3 53//3
f 54//3 50//3 52//3
f 52//4 50//4 54//4
f 51//2 54//2 52//2
f 52//1 54//1 51//1
f 53//1 50//1 55//1
f 55//2 50//2 53//2
f 51//4 53//4 56//4
f 56//3 53//3 51//3
f 50//3 54//3 55//3
f 55//4 54//4 50//4
f 54//2 51//2 56//2
f 56//1 51//1 54//1
f 54//5 53//5 55//5
f 55//6 53//6 54//6
f 53//5 54//5 56//5
f 56//6 54//6 53//6
