# SSTK version 0.8.0
# 7
mtllib original-7.mtl
o mesh17/mesh17-geometry#mesh17-geometry
v 0.308133 0.431811 0.491531
v 0.308133 -0.472582 0.488646
v 0.308133 0.509380 0.488087
v 0.308133 -0.466152 0.514111
v -0.322384 0.509380 0.488087
v -0.322384 0.431811 0.491531
v 0.308133 0.354522 0.498969
v -0.322384 -0.466152 0.514111
v -0.322384 -0.472582 0.488646
v -0.322384 0.354522 0.498969
v 0.308133 0.277720 0.510382
v -0.322384 -0.458028 0.539087
v -0.322384 0.277720 0.510382
v 0.308133 0.201608 0.525738
v 0.308133 -0.458028 0.539087
v -0.322384 0.201608 0.525738
v -0.322384 -0.448247 0.563463
v -0.322384 0.126389 0.544998
v 0.308133 0.126389 0.544998
v 0.308133 -0.448247 0.563463
v -0.322384 -0.436854 0.587127
v -0.322384 0.052262 0.568109
v 0.308133 0.052262 0.568109
v 0.308133 -0.436854 0.587127
v -0.322384 -0.423899 0.609974
v -0.322384 -0.020574 0.595012
v 0.308133 -0.020574 0.595012
v 0.308133 -0.423899 0.609974
v -0.322384 -0.409441 0.631900
v -0.322384 -0.091926 0.625633
v 0.308133 -0.091926 0.625633
v 0.308133 -0.409441 0.631900
v -0.322384 -0.393545 0.652808
v -0.322384 -0.161606 0.659892
v 0.308133 -0.161606 0.659892
v 0.308133 -0.393545 0.652808
v -0.322384 -0.376282 0.672602
v -0.322384 -0.229426 0.697697
v 0.308133 -0.376282 0.672602
v 0.308133 -0.229426 0.697697
v -0.322384 -0.357731 0.691194
v -0.322384 -0.295208 0.738948
v 0.308133 -0.357731 0.691194
v -0.322384 -0.337975 0.708500
v 0.308133 -0.295208 0.738948
v 0.308133 -0.337975 0.708500
v -0.322384 -0.317102 0.724442
v 0.308133 -0.317102 0.724442
vn 1 0 0
vn 0 -0.0005699999074035226 -0.9999998375500396
vn 0 0.044354992586484975 0.9990158330240081
vn 0 0.09579599883047456 0.995400987847647
vn -1 0 0
vn 0 0.14698202427812532 0.9891391633835477
vn 0 0.19777700764032372 0.980247037867924
vn 0 0.24804606131451343 0.9687482394649068
vn 0 0.29765605487810776 0.954673176010723
vn 0 0.34647418706891336 0.9380595064786327
vn 0 0.39437111317624396 0.9189512637197526
vn 0 0.4412191828496504 0.8973993718994273
vn 0 0.486894027812118 0.8734610498934068
vn 0 0.5312740257466024 0.8472000410570093
vn 0 0.0005699999074035226 0.9999998375500396
vn 0 -0.044354992586484975 -0.9990158330240081
vn 0 0.9608044919488176 -0.2772268534088549
vn 0 0.9695652486382529 -0.24483306278573314
vn 0 -0.09579599883047456 -0.995400987847647
vn 0 0.940047732014521 -0.3410429027766968
vn 0 -0.14698202427812532 -0.9891391633835477
vn 0 -0.19777700764032372 -0.980247037867924
vn 0 0.9150577320285851 -0.40332288188832294
vn 0 -0.24804606131451343 -0.9687482394649068
vn 0 0.8859472034998812 -0.46378610653052144
vn 0 -0.29765605487810776 -0.954673176010723
vn 0 0.852846950820582 -0.5221609698895885
vn 0 -0.34647418706891336 -0.9380595064786327
vn 0 0.8159057980384549 -0.5781848568816309
vn 0 -0.39437111317624396 -0.9189512637197526
vn 0 0.7752902092799292 -0.6316051704939437
vn 0 -0.4412191828496504 -0.8973993718994273
vn 0 0.7311836495375456 -0.6821806730250832
vn 0 -0.486894027812118 -0.8734610498934068
vn 0 0.6837842398332614 -0.7296842559324196
vn 0 -0.5312740257466024 -0.8472000410570093
vn 0 0.6333057481850185 -0.7739016922812703
vn 0 0.5523147681048939 -0.8336356499893927
vn 0 0.5799751291659854 -0.8146341814267913
vn 0 -0.9608044919488176 0.2772268534088549
vn 0 -0.9695652486382529 0.24483306278573314
vn 0 -0.940047732014521 0.3410429027766968
vn 0 -0.9150577320285851 0.40332288188832294
vn 0 -0.8859472034998812 0.46378610653052144
vn 0 -0.852846950820582 0.5221609698895885
vn 0 -0.8159057980384549 0.5781848568816309
vn 0 -0.7752902092799292 0.6316051704939437
vn 0 -0.7311836495375456 0.6821806730250832
vn 0 -0.6837842398332614 0.7296842559324196
vn 0 -0.6333057481850185 0.7739016922812703
vn 0 -0.5799751291659854 0.8146341814267913
vn 0 -0.5523147681048939 0.8336356499893927
usemtl material_0_0
f 1//1 2//1 3//1
f 2//1 1//1 4//1
f 2//2 5//2 3//2
f 3//3 6//3 1//3
f 4//1 1//1 7//1
f 5//2 2//2 9//2
f 6//3 3//3 5//3
f 10//4 1//4 6//4
f 1//4 10//4 7//4
f 4//1 7//1 11//1
f 9//5 6//5 5//5
f 6//5 8//5 10//5
f 13//6 7//6 10//6
f 7//6 13//6 11//6
f 4//1 11//1 14//1
f 6//5 9//5 8//5
f 16//5 8//5 12//5
f 10//5 8//5 13//5
f 16//7 11//7 13//7
f 11//7 16//7 14//7
f 4//1 14//1 15//1
f 13//5 8//5 16//5
f 16//5 12//5 18//5
f 18//8 14//8 16//8
f 15//1 14//1 19//1
f 18//5 12//5 17//5
f 14//8 18//8 19//8
f 15//1 19//1 20//1
f 18//5 17//5 22//5
f 22//9 19//9 18//9
f 20//1 19//1 23//1
f 22//5 17//5 21//5
f 19//9 22//9 23//9
f 20//1 23//1 24//1
f 22//5 21//5 26//5
f 26//10 23//10 22//10
f 24//1 23//1 27//1
f 26//5 21//5 25//5
f 23//10 26//10 27//10
f 24//1 27//1 28//1
f 26//5 25//5 30//5
f 30//11 27//11 26//11
f 28//1 27//1 31//1
f 30//5 25//5 29//5
f 27//11 30//11 31//11
f 28//1 31//1 32//1
f 30//5 29//5 34//5
f 34//12 31//12 30//12
f 32//1 31//1 35//1
f 34//5 29//5 33//5
f 31//12 34//12 35//12
f 32//1 35//1 36//1
f 34//5 33//5 37//5
f 38//13 35//13 34//13
f 36//1 35//1 39//1
f 34//5 37//5 38//5
f 35//13 38//13 40//13
f 39//1 35//1 40//1
f 38//5 37//5 41//5
f 42//14 40//14 38//14
f 39//1 40//1 43//1
f 38//5 41//5 44//5
f 40//14 42//14 45//14
f 38//5 44//5 42//5
f 43//1 40//1 46//1
f 46//1 40//1 45//1
f 42//5 44//5 47//5
f 46//1 45//1 48//1
usemtl material_1_0
f 3//5 2//5 1//5
f 4//5 1//5 2//5
f 3//15 5//15 2//15
f 1//16 6//16 3//16
f 7//5 1//5 4//5
f 4//17 2//18 8//17
f 9//15 2//15 5//15
f 5//16 3//16 6//16
f 6//19 1//19 10//19
f 7//19 10//19 1//19
f 11//5 7//5 4//5
f 9//18 8//17 2//18
f 8//17 12//20 4//17
f 5//1 6//1 9//1
f 10//1 8//1 6//1
f 10//21 7//21 13//21
f 11//21 13//21 7//21
f 14//5 11//5 4//5
f 8//1 9//1 6//1
f 15//20 4//17 12//20
f 12//1 8//1 16//1
f 13//1 8//1 10//1
f 13//22 11//22 16//22
f 14//22 16//22 11//22
f 15//5 14//5 4//5
f 12//20 17//23 15//20
f 16//1 8//1 13//1
f 18//1 12//1 16//1
f 16//24 14//24 18//24
f 19//5 14//5 15//5
f 20//23 15//20 17//23
f 17//1 12//1 18//1
f 19//24 18//24 14//24
f 20//5 19//5 15//5
f 17//23 21//25 20//23
f 22//1 17//1 18//1
f 18//26 19//26 22//26
f 23//5 19//5 20//5
f 24//25 20//23 21//25
f 21//1 17//1 22//1
f 23//26 22//26 19//26
f 24//5 23//5 20//5
f 21//25 25//27 24//25
f 26//1 21//1 22//1
f 22//28 23//28 26//28
f 27//5 23//5 24//5
f 28//27 24//25 25//27
f 25//1 21//1 26//1
f 27//28 26//28 23//28
f 28//5 27//5 24//5
f 25//27 29//29 28//27
f 30//1 25//1 26//1
f 26//30 27//30 30//30
f 31//5 27//5 28//5
f 32//29 28//27 29//29
f 29//1 25//1 30//1
f 31//30 30//30 27//30
f 32//5 31//5 28//5
f 29//29 33//31 32//29
f 34//1 29//1 30//1
f 30//32 31//32 34//32
f 35//5 31//5 32//5
f 36//31 32//29 33//31
f 33//1 29//1 34//1
f 35//32 34//32 31//32
f 36//5 35//5 32//5
f 33//31 37//33 36//31
f 37//1 33//1 34//1
f 34//34 35//34 38//34
f 39//5 35//5 36//5
f 39//33 36//31 37//33
f 38//1 37//1 34//1
f 40//34 38//34 35//34
f 40//5 35//5 39//5
f 37//33 41//35 39//33
f 41//1 37//1 38//1
f 38//36 40//36 42//36
f 43//5 40//5 39//5
f 43//35 39//33 41//35
f 44//1 41//1 38//1
f 45//36 42//36 40//36
f 42//1 44//1 38//1
f 46//5 40//5 43//5
f 43//35 41//35 46//37
f 44//37 46//37 41//35
f 42//38 45//38 47//39
f 45//5 40//5 46//5
f 47//1 44//1 42//1
f 46//37 44//37 48//39
f 48//39 47//39 45//38
f 48//5 45//5 46//5
f 47//39 48//39 44//37
usemtl material_2_0
f 8//40 2//41 4//40
f 2//41 8//40 9//41
f 4//40 12//42 8//40
f 12//42 4//40 15//42
f 15//42 17//43 12//42
f 17//43 15//42 20//43
f 20//43 21//44 17//43
f 21//44 20//43 24//44
f 24//44 25//45 21//44
f 25//45 24//44 28//45
f 28//45 29//46 25//45
f 29//46 28//45 32//46
f 32//46 33//47 29//46
f 33//47 32//46 36//47
f 36//47 37//48 33//47
f 37//48 36//47 39//48
f 39//48 41//49 37//48
f 41//49 39//48 43//49
f 46//50 41//49 43//49
f 41//49 46//50 44//50
f 47//51 45//52 42//52
f 48//51 44//50 46//50
f 45//52 47//51 48//51
f 44//50 48//51 47//51
