# SSTK version 0.8.0
# 8
mtllib original-8.mtl
o mesh23/mesh23-geometry#mesh23-geometry
v 0.352168 -0.089044 -0.036535
v 0.352020 -0.089044 -0.037654
v 0.352020 -0.089044 -0.035415
v 0.352168 -0.105916 -0.036535
v 0.351588 -0.089044 -0.034371
v 0.352020 -0.105916 -0.035415
v 0.352020 -0.105916 -0.037654
v 0.351588 -0.105916 -0.034371
v 0.351588 -0.089044 -0.038698
v 0.350900 -0.105916 -0.033475
v 0.350900 -0.089044 -0.033475
v 0.351588 -0.105916 -0.038698
v 0.350900 -0.089044 -0.039594
v 0.350004 -0.089044 -0.032788
v 0.350900 -0.105916 -0.039594
v 0.350004 -0.105916 -0.032788
v 0.350004 -0.089044 -0.040281
v 0.350004 -0.105916 -0.040281
v 0.348961 -0.089044 -0.032356
v 0.348961 -0.089044 -0.040713
v 0.348961 -0.105916 -0.032356
v 0.348961 -0.105916 -0.040713
v 0.347841 -0.089044 -0.032208
v 0.347841 -0.105916 -0.040861
v 0.347841 -0.089044 -0.040861
v 0.347841 -0.105916 -0.032208
v 0.346722 -0.089044 -0.040713
v 0.346722 -0.089044 -0.032356
v 0.346722 -0.105916 -0.040713
v 0.346722 -0.105916 -0.032356
v 0.345678 -0.089044 -0.032788
v 0.345678 -0.105916 -0.040281
v 0.345678 -0.089044 -0.040281
v 0.345678 -0.105916 -0.032788
v 0.344782 -0.089044 -0.039594
v 0.344782 -0.105916 -0.039594
v 0.344782 -0.089044 -0.033475
v 0.344782 -0.105916 -0.033475
v 0.344095 -0.089044 -0.034371
v 0.344095 -0.089044 -0.038698
v 0.344095 -0.105916 -0.034371
v 0.344095 -0.105916 -0.038698
v 0.343663 -0.105916 -0.035415
v 0.343663 -0.089044 -0.035415
v 0.343663 -0.089044 -0.037654
v 0.343663 -0.105916 -0.037654
v 0.343515 -0.105916 -0.036535
v 0.343515 -0.089044 -0.036535
vn 0 1 0
vn 0 -1 0
vn 1 0 0
vn 0.965925849201117 0 -0.2588189595935754
vn -0.965925849201117 0 0.2588189595935754
vn -1 0 0
vn 0.965925849201117 0 0.2588189595935754
vn -0.965925849201117 0 -0.2588189595935754
vn 0.8660253028382762 0 0.5000001748438417
vn -0.8660253028382762 0 -0.5000001748438417
vn 0.8660253028382762 0 -0.5000001748438417
vn -0.8660253028382762 0 0.5000001748438417
vn 0.7071067811865476 0 0.7071067811865476
vn -0.7071067811865476 0 -0.7071067811865476
vn 0.7071067811865476 0 -0.7071067811865476
vn -0.7071067811865476 0 0.7071067811865476
vn 0.5000001748438417 0 0.8660253028382762
vn -0.5000001748438417 0 -0.8660253028382762
vn 0.5000001748438417 0 -0.8660253028382762
vn -0.5000001748438417 0 0.8660253028382762
vn 0.2588189595935754 0 0.965925849201117
vn -0.2588189595935754 0 -0.965925849201117
vn 0.2588189595935754 0 -0.965925849201117
vn -0.2588189595935754 0 0.965925849201117
vn 0 0 1
vn 0 0 -1
usemtl material_0_0
f 1//1 2//1 3//1
f 3//2 2//2 1//2
f 1//3 4//3 2//4
f 2//5 4//6 1//6
f 5//1 3//1 2//1
f 2//2 3//2 5//2
f 3//7 6//7 1//3
f 1//6 6//8 3//8
f 4//3 1//3 6//7
f 6//8 1//6 4//6
f 7//4 2//4 4//3
f 4//6 2//5 7//5
f 5//9 8//9 3//7
f 3//8 8//10 5//10
f 9//1 5//1 2//1
f 2//2 5//2 9//2
f 6//7 3//7 8//9
f 8//10 3//8 6//8
f 2//4 7//4 9//11
f 9//12 7//5 2//5
f 8//9 5//9 10//13
f 10//14 5//10 8//10
f 11//1 5//1 9//1
f 9//2 5//2 11//2
f 12//11 9//11 7//4
f 7//5 9//12 12//12
f 11//13 10//13 5//9
f 5//10 10//14 11//14
f 13//1 11//1 9//1
f 9//2 11//2 13//2
f 9//11 12//11 13//15
f 13//16 12//12 9//12
f 11//13 14//17 10//13
f 10//14 14//18 11//14
f 14//1 11//1 13//1
f 13//2 11//2 14//2
f 15//15 13//15 12//11
f 12//12 13//16 15//16
f 16//17 10//13 14//17
f 14//18 10//14 16//18
f 17//1 14//1 13//1
f 13//2 14//2 17//2
f 15//15 18//19 13//15
f 13//16 18//20 15//16
f 14//17 19//21 16//17
f 16//18 19//22 14//18
f 20//1 14//1 17//1
f 17//2 14//2 20//2
f 17//19 13//15 18//19
f 18//20 13//16 17//20
f 19//1 14//1 20//1
f 20//2 14//2 19//2
f 21//21 16//17 19//21
f 19//22 16//18 21//22
f 20//23 17//19 22//23
f 22//24 17//20 20//24
f 18//19 22//23 17//19
f 17//20 22//24 18//20
f 23//1 19//1 20//1
f 20//2 19//2 23//2
f 19//21 23//25 21//21
f 21//22 23//26 19//22
f 22//23 24//26 20//23
f 20//24 24//25 22//24
f 25//1 23//1 20//1
f 20//2 23//2 25//2
f 26//25 21//21 23//25
f 23//26 21//22 26//26
f 25//26 20//23 24//26
f 24//25 20//24 25//25
f 27//1 23//1 25//1
f 25//2 23//2 27//2
f 23//25 28//24 26//25
f 26//26 28//23 23//26
f 24//26 29//22 25//26
f 25//25 29//21 24//25
f 28//1 23//1 27//1
f 27//2 23//2 28//2
f 27//22 25//26 29//22
f 29//21 25//25 27//21
f 30//24 26//25 28//24
f 28//23 26//26 30//23
f 31//1 28//1 27//1
f 27//2 28//2 31//2
f 29//22 32//18 27//22
f 27//21 32//17 29//21
f 28//24 31//20 30//24
f 30//23 31//19 28//23
f 33//1 31//1 27//1
f 27//2 31//2 33//2
f 33//18 27//22 32//18
f 32//17 27//21 33//17
f 34//20 30//24 31//20
f 31//19 30//23 34//19
f 35//1 31//1 33//1
f 33//2 31//2 35//2
f 32//18 36//14 33//18
f 33//17 36//13 32//17
f 31//20 37//16 34//20
f 34//19 37//15 31//19
f 37//1 31//1 35//1
f 35//2 31//2 37//2
f 35//14 33//18 36//14
f 36//13 33//17 35//13
f 38//16 34//20 37//16
f 37//15 34//19 38//15
f 39//1 37//1 35//1
f 35//2 37//2 39//2
f 35//14 36//14 40//10
f 40//9 36//13 35//13
f 38//16 37//16 41//12
f 41//11 37//15 38//15
f 39//12 41//12 37//16
f 37//15 41//11 39//11
f 40//1 39//1 35//1
f 35//2 39//2 40//2
f 42//10 40//10 36//14
f 36//13 40//9 42//9
f 41//12 39//12 43//5
f 43//4 39//11 41//11
f 44//1 39//1 40//1
f 40//2 39//2 44//2
f 40//10 42//10 45//8
f 45//7 42//9 40//9
f 44//5 43//5 39//12
f 39//11 43//4 44//4
f 45//1 44//1 40//1
f 40//2 44//2 45//2
f 46//8 45//8 42//10
f 42//9 45//7 46//7
f 43//5 44//5 47//6
f 47//3 44//4 43//4
f 48//1 44//1 45//1
f 45//2 44//2 48//2
f 45//8 46//8 48//6
f 48//3 46//7 45//7
f 48//6 47//6 44//5
f 44//4 47//3 48//3
f 47//6 48//6 46//8
f 46//7 48//3 47//3
