# SSTK version 0.8.0
# 6
mtllib original-6.mtl
o mesh21/mesh21-geometry#mesh21-geometry
v 0.346722 -0.071307 -0.032356
v 0.347841 -0.071307 -0.032208
v 0.346722 -0.054434 -0.032356
v 0.347841 -0.054434 -0.032208
v 0.345678 -0.054434 -0.032788
v 0.346722 -0.054434 -0.040713
v 0.348961 -0.071307 -0.032356
v 0.345678 -0.071307 -0.032788
v 0.347841 -0.054434 -0.040861
v 0.348961 -0.054434 -0.032356
v 0.345678 -0.054434 -0.040281
v 0.344782 -0.054434 -0.033475
v 0.348961 -0.054434 -0.040713
v 0.346722 -0.071307 -0.040713
v 0.350004 -0.071307 -0.032788
v 0.344782 -0.054434 -0.039594
v 0.345678 -0.071307 -0.040281
v 0.344782 -0.071307 -0.033475
v 0.347841 -0.071307 -0.040861
v 0.350004 -0.054434 -0.032788
v 0.344782 -0.071307 -0.039594
v 0.344095 -0.054434 -0.034371
v 0.344095 -0.071307 -0.034371
v 0.348961 -0.071307 -0.040713
v 0.350004 -0.054434 -0.040281
v 0.350900 -0.071307 -0.033475
v 0.344095 -0.054434 -0.038698
v 0.350900 -0.054434 -0.039594
v 0.350900 -0.054434 -0.033475
v 0.344095 -0.071307 -0.038698
v 0.343663 -0.071307 -0.035415
v 0.343663 -0.054434 -0.035415
v 0.350004 -0.071307 -0.040281
v 0.351588 -0.054434 -0.034371
v 0.343663 -0.054434 -0.037654
v 0.351588 -0.054434 -0.038698
v 0.350900 -0.071307 -0.039594
v 0.351588 -0.071307 -0.034371
v 0.343663 -0.071307 -0.037654
v 0.343515 -0.071307 -0.036535
v 0.343515 -0.054434 -0.036535
v 0.351588 -0.071307 -0.038698
v 0.352020 -0.054434 -0.035415
v 0.352020 -0.054434 -0.037654
v 0.352020 -0.071307 -0.037654
v 0.352020 -0.071307 -0.035415
v 0.352168 -0.054434 -0.036535
v 0.352168 -0.071307 -0.036535
vn -0.2588189595935754 0 0.965925849201117
vn 0 0 1
vn 0.2588189595935754 0 -0.965925849201117
vn 0 0 -1
vn -0.5000001748438417 0 0.8660253028382762
vn 0.5000001748438417 0 -0.8660253028382762
vn 0 1 0
vn 0 -1 0
vn 0.2588189595935754 0 0.965925849201117
vn -0.2588189595935754 0 -0.965925849201117
vn -0.7071067811865476 0 0.7071067811865476
vn 0.7071067811865476 0 -0.7071067811865476
vn 0.5000001748438417 0 0.8660253028382762
vn -0.5000001748438417 0 -0.8660253028382762
vn -0.7071067811865476 0 -0.7071067811865476
vn 0.7071067811865476 0 0.7071067811865476
vn -0.8660253028382762 0 0.5000001748438417
vn 0.8660253028382762 0 -0.5000001748438417
vn -0.8660253028382762 0 -0.5000001748438417
vn 0.8660253028382762 0 0.5000001748438417
vn -0.965925849201117 0 0.2588189595935754
vn 0.965925849201117 0 -0.2588189595935754
vn -0.965925849201117 0 -0.2588189595935754
vn 0.965925849201117 0 0.2588189595935754
vn -1 0 0
vn 1 0 0
usemtl material_0_0
f 1//1 2//2 3//1
f 3//3 2//4 1//3
f 4//2 3//1 2//2
f 2//4 3//3 4//4
f 3//1 5//5 1//1
f 1//3 5//6 3//3
f 3//7 4//7 6//7
f 6//8 4//8 3//8
f 2//2 7//9 4//2
f 4//4 7//10 2//4
f 5//7 3//7 6//7
f 6//8 3//8 5//8
f 8//5 1//1 5//5
f 5//6 1//3 8//6
f 6//7 4//7 9//7
f 9//8 4//8 6//8
f 10//9 4//2 7//9
f 7//10 4//4 10//10
f 11//7 5//7 6//7
f 6//8 5//8 11//8
f 5//5 12//11 8//5
f 8//6 12//12 5//6
f 9//7 4//7 13//7
f 13//8 4//8 9//8
f 6//10 9//4 14//10
f 14//9 9//2 6//9
f 4//7 10//7 13//7
f 13//8 10//8 4//8
f 7//9 15//13 10//9
f 10//10 15//14 7//10
f 16//7 5//7 11//7
f 11//8 5//8 16//8
f 11//14 6//10 17//14
f 17//13 6//9 11//13
f 12//7 5//7 16//7
f 16//8 5//8 12//8
f 18//11 8//5 12//11
f 12//12 8//6 18//12
f 9//4 13//3 19//4
f 19//2 13//1 9//2
f 19//4 14//10 9//4
f 9//2 14//9 19//2
f 14//10 17//14 6//10
f 6//9 17//13 14//9
f 10//7 20//7 13//7
f 13//8 20//8 10//8
f 20//13 10//9 15//13
f 15//14 10//10 20//14
f 16//15 11//14 21//15
f 21//16 11//13 16//16
f 17//14 21//15 11//14
f 11//13 21//16 17//13
f 22//7 12//7 16//7
f 16//8 12//8 22//8
f 18//11 12//11 23//17
f 23//18 12//12 18//12
f 24//3 19//4 13//3
f 13//1 19//2 24//1
f 13//7 20//7 25//7
f 25//8 20//8 13//8
f 15//13 26//16 20//13
f 20//14 26//15 15//14
f 16//15 21//15 27//19
f 27//20 21//16 16//16
f 22//17 23//17 12//11
f 12//12 23//18 22//18
f 27//7 22//7 16//7
f 16//8 22//8 27//8
f 13//3 25//6 24//3
f 24//1 25//5 13//1
f 25//7 20//7 28//7
f 28//8 20//8 25//8
f 29//16 20//13 26//16
f 26//15 20//14 29//15
f 30//19 27//19 21//15
f 21//16 27//20 30//20
f 23//17 22//17 31//21
f 31//22 22//18 23//18
f 32//7 22//7 27//7
f 27//8 22//8 32//8
f 33//6 24//3 25//6
f 25//5 24//1 33//5
f 20//7 29//7 28//7
f 28//8 29//8 20//8
f 25//6 28//12 33//6
f 33//5 28//11 25//5
f 29//16 26//16 34//20
f 34//19 26//15 29//15
f 27//19 30//19 35//23
f 35//24 30//20 27//20
f 32//21 31//21 22//17
f 22//18 31//22 32//22
f 35//7 32//7 27//7
f 27//8 32//8 35//8
f 28//7 29//7 36//7
f 36//8 29//8 28//8
f 37//12 33//6 28//12
f 28//11 33//5 37//11
f 38//20 34//20 26//16
f 26//15 34//19 38//19
f 29//7 34//7 36//7
f 36//8 34//8 29//8
f 39//23 35//23 30//19
f 30//20 35//24 39//24
f 31//21 32//21 40//25
f 40//26 32//22 31//22
f 41//7 32//7 35//7
f 35//8 32//8 41//8
f 36//18 42//18 28//12
f 28//11 42//17 36//17
f 37//12 28//12 42//18
f 42//17 28//11 37//11
f 34//20 38//20 43//24
f 43//23 38//19 34//19
f 36//7 34//7 44//7
f 44//8 34//8 36//8
f 35//23 39//23 41//25
f 41//26 39//24 35//24
f 41//25 40//25 32//21
f 32//22 40//26 41//26
f 42//18 36//18 45//22
f 45//21 36//17 42//17
f 46//24 43//24 38//20
f 38//19 43//23 46//23
f 34//7 43//7 44//7
f 44//8 43//8 34//8
f 44//22 45//22 36//18
f 36//17 45//21 44//21
f 40//25 41//25 39//23
f 39//24 41//26 40//26
f 43//24 46//24 47//26
f 47//25 46//23 43//23
f 47//7 44//7 43//7
f 43//8 44//8 47//8
f 45//22 44//22 48//26
f 48//25 44//21 45//21
f 48//26 47//26 46//24
f 46//23 47//25 48//25
f 47//26 48//26 44//22
f 44//21 48//25 47//25
