# SSTK version 0.8.0
# 21
mtllib original-21.mtl
o mesh63/mesh63-geometry#mesh63-geometry
v 0.344095 0.590172 -0.034371
v 0.344095 0.603151 -0.034371
v 0.343663 0.590172 -0.035415
v 0.344782 0.603151 -0.033475
v 0.343663 0.603151 -0.035415
v 0.343663 0.590172 -0.037654
v 0.344782 0.590172 -0.033475
v 0.344782 0.603151 -0.039594
v 0.343515 0.590172 -0.036535
v 0.344095 0.603151 -0.038698
v 0.344095 0.590172 -0.038698
v 0.345678 0.590172 -0.032788
v 0.345678 0.603151 -0.040281
v 0.343515 0.603151 -0.036535
v 0.343663 0.603151 -0.037654
v 0.344782 0.590172 -0.039594
v 0.345678 0.603151 -0.032788
v 0.345678 0.590172 -0.040281
v 0.346722 0.590172 -0.032356
v 0.346722 0.603151 -0.040713
v 0.346722 0.603151 -0.032356
v 0.346722 0.590172 -0.040713
v 0.347841 0.590172 -0.032208
v 0.347841 0.603151 -0.040861
v 0.347841 0.603151 -0.032208
v 0.347841 0.590172 -0.040861
v 0.348961 0.590172 -0.032356
v 0.348961 0.603151 -0.040713
v 0.348961 0.603151 -0.032356
v 0.348961 0.590172 -0.040713
v 0.350004 0.590172 -0.032788
v 0.350004 0.603151 -0.040281
v 0.350004 0.603151 -0.032788
v 0.350004 0.590172 -0.040281
v 0.350900 0.590172 -0.033475
v 0.350900 0.603151 -0.039594
v 0.350900 0.590172 -0.039594
v 0.350900 0.603151 -0.033475
v 0.351588 0.590172 -0.038698
v 0.351588 0.603151 -0.034371
v 0.351588 0.603151 -0.038698
v 0.351588 0.590172 -0.034371
v 0.352020 0.590172 -0.037654
v 0.352020 0.603151 -0.035415
v 0.352020 0.603151 -0.037654
v 0.352020 0.590172 -0.035415
v 0.352168 0.590172 -0.036535
v 0.352168 0.603151 -0.036535
vn -0.8660253028382762 0 0.5000001748438417
vn -0.965925849201117 0 0.2588189595935754
vn 0.965925849201117 0 -0.2588189595935754
vn 0.8660253028382762 0 -0.5000001748438417
vn -0.7071067811865476 0 0.7071067811865476
vn 0.7071067811865476 0 -0.7071067811865476
vn 0 -1 0
vn 0 1 0
vn -1 0 0
vn 1 0 0
vn -0.5000001748438417 0 0.8660253028382762
vn 0.5000001748438417 0 -0.8660253028382762
vn -0.965925849201117 0 -0.2588189595935754
vn 0.965925849201117 0 0.2588189595935754
vn -0.8660253028382762 0 -0.5000001748438417
vn 0.8660253028382762 0 0.5000001748438417
vn -0.7071067811865476 0 -0.7071067811865476
vn -0.5000001748438417 0 -0.8660253028382762
vn 0.7071067811865476 0 0.7071067811865476
vn 0.5000001748438417 0 0.8660253028382762
vn -0.2588189595935754 0 0.965925849201117
vn 0.2588189595935754 0 -0.965925849201117
vn -0.2588189595935754 0 -0.965925849201117
vn 0.2588189595935754 0 0.965925849201117
vn 0 0 1
vn 0 0 -1
usemtl material_0_0
f 1//1 2//1 3//2
f 3//3 2//4 1//4
f 2//1 1//1 4//5
f 4//6 1//4 2//4
f 5//2 3//2 2//1
f 2//4 3//3 5//3
f 3//7 6//7 1//7
f 1//8 6//8 3//8
f 7//5 4//5 1//1
f 1//4 4//6 7//6
f 2//8 4//8 8//8
f 8//7 4//7 2//7
f 3//2 5//2 9//9
f 9//10 5//3 3//3
f 5//8 2//8 10//8
f 10//7 2//7 5//7
f 9//7 6//7 3//7
f 3//8 6//8 9//8
f 6//7 11//7 1//7
f 1//8 11//8 6//8
f 7//5 12//11 4//5
f 4//6 12//12 7//6
f 1//7 11//7 7//7
f 7//8 11//8 1//8
f 8//8 4//8 13//8
f 13//7 4//7 8//7
f 10//8 2//8 8//8
f 8//7 2//7 10//7
f 14//9 9//9 5//2
f 5//3 9//10 14//10
f 15//8 5//8 10//8
f 10//7 5//7 15//7
f 9//9 14//9 6//13
f 6//14 14//10 9//10
f 6//13 15//13 11//15
f 11//16 15//14 6//14
f 7//7 16//7 12//7
f 12//8 16//8 7//8
f 17//11 4//5 12//11
f 12//12 4//6 17//12
f 11//7 16//7 7//7
f 7//8 16//8 11//8
f 4//8 17//8 13//8
f 13//7 17//7 4//7
f 8//17 13//18 16//17
f 16//19 13//20 8//19
f 8//17 16//17 10//15
f 10//16 16//19 8//19
f 14//8 5//8 15//8
f 15//7 5//7 14//7
f 10//15 11//15 15//13
f 15//14 11//16 10//16
f 15//13 6//13 14//9
f 14//10 6//14 15//14
f 16//7 18//7 12//7
f 12//8 18//8 16//8
f 12//11 19//21 17//11
f 17//12 19//22 12//12
f 11//15 10//15 16//17
f 16//19 10//16 11//16
f 13//8 17//8 20//8
f 20//7 17//7 13//7
f 18//18 16//17 13//18
f 13//20 16//19 18//20
f 12//7 18//7 19//7
f 19//8 18//8 12//8
f 21//21 17//11 19//21
f 19//22 17//12 21//22
f 17//8 21//8 20//8
f 20//7 21//7 17//7
f 13//18 20//23 18//18
f 18//20 20//24 13//20
f 18//7 22//7 19//7
f 19//8 22//8 18//8
f 19//21 23//25 21//21
f 21//22 23//26 19//22
f 20//8 21//8 24//8
f 24//7 21//7 20//7
f 22//23 18//18 20//23
f 20//24 18//20 22//24
f 19//7 22//7 23//7
f 23//8 22//8 19//8
f 25//25 21//21 23//25
f 23//26 21//22 25//26
f 21//8 25//8 24//8
f 24//7 25//7 21//7
f 20//23 24//26 22//23
f 22//24 24//25 20//24
f 22//7 26//7 23//7
f 23//8 26//8 22//8
f 23//25 27//24 25//25
f 25//26 27//23 23//26
f 24//8 25//8 28//8
f 28//7 25//7 24//7
f 26//26 22//23 24//26
f 24//25 22//24 26//25
f 23//7 26//7 27//7
f 27//8 26//8 23//8
f 29//24 25//25 27//24
f 27//23 25//26 29//23
f 25//8 29//8 28//8
f 28//7 29//7 25//7
f 24//26 28//22 26//26
f 26//25 28//21 24//25
f 26//7 30//7 27//7
f 27//8 30//8 26//8
f 27//24 31//20 29//24
f 29//23 31//18 27//23
f 28//8 29//8 32//8
f 32//7 29//7 28//7
f 30//22 26//26 28//22
f 28//21 26//25 30//21
f 27//7 30//7 31//7
f 31//8 30//8 27//8
f 33//20 29//24 31//20
f 31//18 29//23 33//18
f 29//8 33//8 32//8
f 32//7 33//7 29//7
f 28//22 32//12 30//22
f 30//21 32//11 28//21
f 30//7 34//7 31//7
f 31//8 34//8 30//8
f 31//20 35//19 33//20
f 33//18 35//17 31//18
f 32//8 33//8 36//8
f 36//7 33//7 32//7
f 34//12 30//22 32//12
f 32//11 30//21 34//11
f 34//7 37//7 31//7
f 31//8 37//8 34//8
f 31//7 37//7 35//7
f 35//8 37//8 31//8
f 38//19 33//20 35//19
f 35//17 33//18 38//17
f 33//8 38//8 36//8
f 36//7 38//7 33//7
f 32//12 36//6 34//12
f 34//11 36//5 32//11
f 37//6 34//12 36//6
f 36//5 34//11 37//5
f 37//7 39//7 35//7
f 35//8 39//8 37//8
f 38//19 35//19 40//16
f 40//15 35//17 38//17
f 36//8 38//8 41//8
f 41//7 38//7 36//7
f 37//6 36//6 39//4
f 39//1 36//5 37//5
f 35//7 39//7 42//7
f 42//8 39//8 35//8
f 42//16 40//16 35//19
f 35//17 40//15 42//15
f 38//8 40//8 41//8
f 41//7 40//7 38//7
f 41//4 39//4 36//6
f 36//5 39//1 41//1
f 39//7 43//7 42//7
f 42//8 43//8 39//8
f 40//16 42//16 44//14
f 44//13 42//15 40//15
f 41//8 40//8 45//8
f 45//7 40//7 41//7
f 39//4 41//4 43//3
f 43//2 41//1 39//1
f 42//7 43//7 46//7
f 46//8 43//8 42//8
f 46//14 44//14 42//16
f 42//15 44//13 46//13
f 40//8 44//8 45//8
f 45//7 44//7 40//7
f 45//3 43//3 41//4
f 41//1 43//2 45//2
f 47//7 46//7 43//7
f 43//8 46//8 47//8
f 44//14 46//14 48//10
f 48//9 46//13 44//13
f 48//8 45//8 44//8
f 44//7 45//7 48//7
f 43//3 45//3 47//10
f 47//9 45//2 43//2
f 47//10 48//10 46//14
f 46//13 48//9 47//9
f 48//10 47//10 45//3
f 45//2 47//9 48//9
