# SSTK version 0.8.0
# 17
mtllib original-17.mtl
o mesh54/mesh54-geometry#mesh54-geometry
v 0.346722 -0.711587 -0.032356
v 0.347841 -0.711587 -0.032208
v 0.346722 -0.694715 -0.032356
v 0.347841 -0.694715 -0.032208
v 0.345678 -0.694715 -0.032788
v 0.347841 -0.694715 -0.040861
v 0.348961 -0.711587 -0.032356
v 0.346722 -0.694715 -0.040713
v 0.345678 -0.711587 -0.032788
v 0.348961 -0.694715 -0.040713
v 0.348961 -0.694715 -0.032356
v 0.345678 -0.694715 -0.040281
v 0.344782 -0.694715 -0.033475
v 0.347841 -0.711587 -0.040861
v 0.346722 -0.711587 -0.040713
v 0.350004 -0.711587 -0.032788
v 0.345678 -0.711587 -0.040281
v 0.344782 -0.711587 -0.033475
v 0.350004 -0.694715 -0.040281
v 0.348961 -0.711587 -0.040713
v 0.350004 -0.694715 -0.032788
v 0.344782 -0.694715 -0.039594
v 0.344782 -0.711587 -0.039594
v 0.344095 -0.711587 -0.034371
v 0.350900 -0.711587 -0.033475
v 0.344095 -0.694715 -0.034371
v 0.350900 -0.694715 -0.039594
v 0.350004 -0.711587 -0.040281
v 0.350900 -0.694715 -0.033475
v 0.344095 -0.694715 -0.038698
v 0.343663 -0.711587 -0.035415
v 0.351588 -0.694715 -0.034371
v 0.343663 -0.694715 -0.035415
v 0.344095 -0.711587 -0.038698
v 0.351588 -0.694715 -0.038698
v 0.350900 -0.711587 -0.039594
v 0.351588 -0.711587 -0.034371
v 0.343663 -0.694715 -0.037654
v 0.343515 -0.711587 -0.036535
v 0.351588 -0.711587 -0.038698
v 0.352020 -0.694715 -0.035415
v 0.352020 -0.694715 -0.037654
v 0.343515 -0.694715 -0.036535
v 0.343663 -0.711587 -0.037654
v 0.352020 -0.711587 -0.037654
v 0.352020 -0.711587 -0.035415
v 0.352168 -0.694715 -0.036535
v 0.352168 -0.711587 -0.036535
vn -0.2588189595935754 0 0.965925849201117
vn 0 0 1
vn 0.2588189595935754 0 -0.965925849201117
vn 0 0 -1
vn -0.5000001748438417 0 0.8660253028382762
vn 0.5000001748438417 0 -0.8660253028382762
vn 0 1 0
vn 0 -1 0
vn 0.2588189595935754 0 0.965925849201117
vn -0.2588189595935754 0 -0.965925849201117
vn -0.7071067811865476 0 0.7071067811865476
vn 0.7071067811865476 0 -0.7071067811865476
vn 0.5000001748438417 0 0.8660253028382762
vn -0.5000001748438417 0 -0.8660253028382762
vn -0.7071067811865476 0 -0.7071067811865476
vn 0.7071067811865476 0 0.7071067811865476
vn -0.8660253028382762 0 0.5000001748438417
vn 0.8660253028382762 0 -0.5000001748438417
vn -0.8660253028382762 0 -0.5000001748438417
vn 0.8660253028382762 0 0.5000001748438417
vn -0.965925849201117 0 0.2588189595935754
vn 0.965925849201117 0 -0.2588189595935754
vn -0.965925849201117 0 -0.2588189595935754
vn 0.965925849201117 0 0.2588189595935754
vn -1 0 0
vn 1 0 0
usemtl material_0_0
f 1//1 2//2 3//1
f 3//3 2//4 1//3
f 4//2 3//1 2//2
f 2//4 3//3 4//4
f 3//1 5//5 1//1
f 1//3 5//6 3//3
f 3//7 4//7 6//7
f 6//8 4//8 3//8
f 2//2 7//9 4//2
f 4//4 7//10 2//4
f 5//7 3//7 8//7
f 8//8 3//8 5//8
f 9//5 1//1 5//5
f 5//6 1//3 9//6
f 6//7 4//7 10//7
f 10//8 4//8 6//8
f 8//7 3//7 6//7
f 6//8 3//8 8//8
f 11//9 4//2 7//9
f 7//10 4//4 11//10
f 12//7 5//7 8//7
f 8//8 5//8 12//8
f 5//5 13//11 9//5
f 9//6 13//12 5//6
f 4//7 11//7 10//7
f 10//8 11//8 4//8
f 6//4 10//3 14//4
f 14//2 10//1 6//2
f 8//10 6//4 15//10
f 15//9 6//2 8//9
f 7//9 16//13 11//9
f 11//10 16//14 7//10
f 13//7 5//7 12//7
f 12//8 5//8 13//8
f 12//14 8//10 17//14
f 17//13 8//9 12//13
f 18//11 9//5 13//11
f 13//12 9//6 18//12
f 10//7 11//7 19//7
f 19//8 11//8 10//8
f 20//3 14//4 10//3
f 10//1 14//2 20//1
f 14//4 15//10 6//4
f 6//2 15//9 14//2
f 15//10 17//14 8//10
f 8//9 17//13 15//9
f 21//13 11//9 16//13
f 16//14 11//10 21//14
f 22//7 13//7 12//7
f 12//8 13//8 22//8
f 17//14 23//15 12//14
f 12//13 23//16 17//13
f 18//11 13//11 24//17
f 24//18 13//12 18//12
f 11//7 21//7 19//7
f 19//8 21//8 11//8
f 10//3 19//6 20//3
f 20//1 19//5 10//1
f 16//13 25//16 21//13
f 21//14 25//15 16//14
f 26//7 13//7 22//7
f 22//8 13//8 26//8
f 22//15 12//14 23//15
f 23//16 12//13 22//16
f 26//17 24//17 13//11
f 13//12 24//18 26//18
f 19//7 21//7 27//7
f 27//8 21//8 19//8
f 28//6 20//3 19//6
f 19//5 20//1 28//5
f 29//16 21//13 25//16
f 25//15 21//14 29//15
f 30//7 26//7 22//7
f 22//8 26//8 30//8
f 22//15 23//15 30//19
f 30//20 23//16 22//16
f 24//17 26//17 31//21
f 31//22 26//18 24//18
f 21//7 29//7 27//7
f 27//8 29//8 21//8
f 19//6 27//12 28//6
f 28//5 27//11 19//5
f 29//16 25//16 32//20
f 32//19 25//15 29//15
f 33//7 26//7 30//7
f 30//8 26//8 33//8
f 34//19 30//19 23//15
f 23//16 30//20 34//20
f 33//21 31//21 26//17
f 26//18 31//22 33//22
f 27//7 29//7 35//7
f 35//8 29//8 27//8
f 36//12 28//6 27//12
f 27//11 28//5 36//11
f 37//20 32//20 25//16
f 25//15 32//19 37//19
f 29//7 32//7 35//7
f 35//8 32//8 29//8
f 38//7 33//7 30//7
f 30//8 33//8 38//8
f 30//19 34//19 38//23
f 38//24 34//20 30//20
f 31//21 33//21 39//25
f 39//26 33//22 31//22
f 35//18 40//18 27//12
f 27//11 40//17 35//17
f 36//12 27//12 40//18
f 40//17 27//11 36//11
f 32//20 37//20 41//24
f 41//23 37//19 32//19
f 35//7 32//7 42//7
f 42//8 32//8 35//8
f 43//7 33//7 38//7
f 38//8 33//8 43//8
f 44//23 38//23 34//19
f 34//20 38//24 44//24
f 43//25 39//25 33//21
f 33//22 39//26 43//26
f 40//18 35//18 45//22
f 45//21 35//17 40//17
f 46//24 41//24 37//20
f 37//19 41//23 46//23
f 32//7 41//7 42//7
f 42//8 41//8 32//8
f 42//22 45//22 35//18
f 35//17 45//21 42//21
f 38//23 44//23 43//25
f 43//26 44//24 38//24
f 39//25 43//25 44//23
f 44//24 43//26 39//26
f 41//24 46//24 47//26
f 47//25 46//23 41//23
f 47//7 42//7 41//7
f 41//8 42//8 47//8
f 45//22 42//22 48//26
f 48//25 42//21 45//21
f 48//26 47//26 46//24
f 46//23 47//25 48//25
f 47//26 48//26 42//22
f 42//21 48//25 47//25
