# SSTK version 0.8.0
# 10
mtllib original-10.mtl
o Group5/mesh30/mesh30-geometry#mesh30-geometry
v -0.310610 -0.935737 0.002390
v 0.346975 -0.935737 0.002401
v -0.310610 0.776199 0.002390
v -0.310609 -0.935737 -0.032220
v 0.346975 0.776199 0.002401
v -0.310610 0.061508 -0.006262
v 0.346976 -0.935737 -0.032208
v -0.310609 0.776199 -0.032220
v 0.346976 0.776199 -0.032208
v -0.310610 0.132458 -0.006262
v -0.310609 0.061508 -0.023567
v -0.310609 0.132458 -0.023567
vt 0.415573 0
vt 0 0
vt 0.415573 1.08189
vt -0.415573 0
vt -0.415573 0.021872
vt 0 1.08189
vt 0.005468 0.630227
vt 0.021872 0
vt 0 0.021872
vt 0.415573 0.021872
vt -0.021872 1.08189
vt 0.005468 0.675066
vt 0.016404 0.630227
vt -0.021872 0
vt 0.021872 1.08189
vt 0.016404 0.675066
vt -0.415573 1.08189
vn -0.0000169999999975435 0 1
vn 0 -1 0
vn -1 0 -0.0000169999999975435
vn 0 1 0
vn 1 0 0.0000169999999975435
vn 0.0000169999999975435 0 -1
usemtl material_0_0
f 1/1/1 2/2/1 3/3/1
f 1/4/2 4/5/2 2/2/2
f 5/6/1 3/3/1 2/2/1
f 3/6/3 6/7/3 1/2/3
f 4/8/3 1/2/3 6/7/3
f 7/9/2 2/2/2 4/5/2
f 3/1/4 5/2/4 8/10/4
f 5/6/5 2/2/5 9/11/5
f 6/7/3 3/6/3 10/12/3
f 11/13/3 4/8/3 6/7/3
f 7/14/5 9/11/5 2/2/5
f 7/2/6 4/4/6 9/6/6
f 9/9/4 8/10/4 5/2/4
f 8/15/3 10/12/3 3/6/3
f 12/16/3 4/8/3 11/13/3
f 8/17/6 9/6/6 4/4/6
f 12/16/3 10/12/3 8/15/3
f 4/8/3 12/16/3 8/15/3
usemtl material_1_0
f 3//6 2//6 1//6
f 2//4 4//4 1//4
f 2//6 3//6 5//6
f 1//5 6//5 3//5
f 6//5 1//5 4//5
f 4//4 2//4 7//4
f 8//2 5//2 3//2
f 9//3 2//3 5//3
f 10//5 3//5 6//5
f 6//5 4//5 11//5
f 2//3 9//3 7//3
f 9//1 4//1 7//1
f 5//2 8//2 9//2
f 3//5 10//5 8//5
f 6//3 10//3 11//3
f 11//5 10//5 6//5
f 11//5 4//5 12//5
f 4//1 9//1 8//1
f 8//5 10//5 12//5
f 12//3 11//3 10//3
f 10//5 11//5 12//5
f 8//5 12//5 4//5
