# SSTK version 0.8.0
# 13
mtllib original-13.mtl
o mesh49/mesh49-geometry#mesh49-geometry
v -0.310723 0.106501 -0.010575
v -0.310723 0.087468 -0.010575
v -0.310723 0.106501 -0.019228
v -0.311570 0.106501 -0.011154
v -0.310723 0.087466 -0.019228
v -0.311570 0.087468 -0.011154
v -0.319375 0.087468 -0.019228
v -0.319375 0.106501 -0.019228
v -0.312398 0.106501 -0.011762
v -0.312398 0.087468 -0.011762
v -0.318796 0.106501 -0.018380
v -0.313205 0.106501 -0.012397
v -0.313205 0.087468 -0.012397
v -0.318796 0.087468 -0.018380
v -0.318188 0.106501 -0.017552
v -0.313989 0.106501 -0.013059
v -0.313989 0.087468 -0.013059
v -0.318188 0.087468 -0.017552
v -0.317553 0.106501 -0.016746
v -0.314751 0.106501 -0.013747
v -0.314751 0.087468 -0.013747
v -0.317553 0.087468 -0.016746
v -0.316891 0.106501 -0.015961
v -0.315489 0.106501 -0.014461
v -0.315489 0.087468 -0.014461
v -0.316891 0.087468 -0.015961
v -0.316203 0.106501 -0.015199
v -0.316203 0.087468 -0.015199
vn 1 0 0.0000169999999975435
vn -1 0 -0.0000169999999975435
vn 0.5641311397956628 0 -0.8256852046105989
vn 0.578013928058946 0 -0.8160268984352584
vn 0 -1 0
vn -0.0000169999999975435 0 1
vn 0.0003099999702090043 0.9999999039000139 -0.0003099999702087823
vn 0.6052798261125129 0 -0.7960127713179018
vn 0.8160467868465671 0 -0.577985849028671
vn 0.8257046112443236 0 -0.5641027344109054
vn 0.6318531196246554 0 -0.7750881467424146
vn 0.7960339551594086 0 -0.6052519659061577
vn 0.6577037400936201 0 -0.7532767023258212
vn 0.7751101525509942 0 -0.6318261243509753
vn 0.6828017350661503 0 -0.7306037165185071
vn 0.7532990997801221 0 -0.6576780871144009
vn 0.7071187810810091 0 -0.7070947810884393
vn 0.7306269105500834 0 -0.68277691640831
vn -0.5641311397956628 0 0.8256852046105989
vn -0.578013928058946 0 0.8160268984352584
vn 0 1 0
vn 0.0000169999999975435 0 -1
vn -0.0003099999702090043 -0.9999999039000139 0.0003099999702087823
vn -0.6052798261125129 0 0.7960127713179018
vn -0.8257046112443236 0 0.5641027344109054
vn -0.8160467868465671 0 0.577985849028671
vn -0.6318531196246554 0 0.7750881467424146
vn -0.7960339551594086 0 0.6052519659061577
vn -0.6577037400936201 0 0.7532767023258212
vn -0.7751101525509942 0 0.6318261243509753
vn -0.6828017350661503 0 0.7306037165185071
vn -0.7532990997801221 0 0.6576780871144009
vn -0.7071187810810091 0 0.7070947810884393
vn -0.7306269105500834 0 0.68277691640831
usemtl material_0_0
f 1//1 2//1 3//1
f 3//2 2//2 1//2
f 2//3 4//4 1//3
f 5//1 3//1 2//1
f 2//2 3//2 5//2
f 4//5 3//5 1//5
f 4//4 2//3 6//4
f 3//6 7//6 5//6
f 5//7 6//7 2//7
f 3//5 4//5 8//5
f 6//4 9//8 4//4
f 6//7 5//7 7//7
f 7//6 3//6 8//6
f 8//5 4//5 9//5
f 9//8 6//4 10//8
f 6//7 7//7 10//7
f 11//9 7//10 8//10
f 8//5 9//5 12//5
f 10//8 12//11 9//8
f 10//7 7//7 13//7
f 7//10 11//9 14//9
f 8//5 15//5 11//5
f 8//5 12//5 16//5
f 12//11 10//8 13//11
f 13//7 7//7 17//7
f 15//12 14//9 11//9
f 18//7 7//7 14//7
f 8//5 19//5 15//5
f 13//11 16//13 12//11
f 8//5 16//5 20//5
f 17//7 7//7 21//7
f 16//13 13//11 17//13
f 14//9 15//12 18//12
f 22//7 7//7 18//7
f 19//14 18//12 15//12
f 8//5 23//5 19//5
f 17//13 20//15 16//13
f 8//5 20//5 24//5
f 21//7 7//7 25//7
f 20//15 17//13 21//15
f 26//7 7//7 22//7
f 18//12 19//14 22//14
f 23//16 22//14 19//14
f 8//5 27//5 23//5
f 21//15 24//17 20//15
f 8//5 24//5 27//5
f 25//7 7//7 28//7
f 24//17 21//15 25//17
f 28//7 7//7 26//7
f 22//14 23//16 26//16
f 27//18 26//16 23//16
f 24//17 28//18 27//18
f 28//18 24//17 25//17
f 26//16 27//18 28//18
usemtl material_1_0
f 1//19 4//20 2//19
f 1//21 3//21 4//21
f 6//20 2//19 4//20
f 5//22 7//22 3//22
f 2//23 6//23 5//23
f 8//21 4//21 3//21
f 4//20 9//24 6//20
f 7//23 5//23 6//23
f 8//22 3//22 7//22
f 9//21 4//21 8//21
f 10//24 6//20 9//24
f 10//23 7//23 6//23
f 8//25 7//25 11//26
f 12//21 9//21 8//21
f 9//24 12//27 10//24
f 13//23 7//23 10//23
f 14//26 11//26 7//25
f 11//21 15//21 8//21
f 16//21 12//21 8//21
f 13//27 10//24 12//27
f 17//23 7//23 13//23
f 11//26 14//26 15//28
f 14//23 7//23 18//23
f 15//21 19//21 8//21
f 12//27 16//29 13//27
f 20//21 16//21 8//21
f 21//23 7//23 17//23
f 17//29 13//27 16//29
f 18//28 15//28 14//26
f 18//23 7//23 22//23
f 15//28 18//28 19//30
f 19//21 23//21 8//21
f 16//29 20//31 17//29
f 24//21 20//21 8//21
f 25//23 7//23 21//23
f 21//31 17//29 20//31
f 22//23 7//23 26//23
f 22//30 19//30 18//28
f 19//30 22//30 23//32
f 23//21 27//21 8//21
f 20//31 24//33 21//31
f 27//21 24//21 8//21
f 28//23 7//23 25//23
f 25//33 21//31 24//33
f 26//23 7//23 28//23
f 26//32 23//32 22//30
f 23//32 26//32 27//34
f 27//34 28//34 24//33
f 25//33 24//33 28//34
f 28//34 27//34 26//32
