# SSTK version 0.8.0
# 2
mtllib original-2.mtl
o #ID10
v 0.416547 -0.166218 0.123782
v 0.143030 -0.166218 0.123782
v 0.416547 -0.180573 0.052773
v 0.143030 -0.180573 0.052773
v 0.416547 0.109494 0.052773
v 0.416547 -0.166218 0.123782
v 0.416547 -0.180573 0.052773
v 0.143030 -0.166218 0.123782
v 0.143030 0.109494 0.052773
v 0.143030 -0.180573 0.052773
v 0.143030 0.109494 0.052773
v 0.143030 -0.166218 0.123782
v 0.143030 0.167012 0.037960
v 0.279789 0.167012 0.037960
v 0.416547 0.167012 0.037960
v 0.416547 0.109494 0.052773
v 0.416547 -0.166218 0.123782
v 0.143030 0.167012 0.037960
v 0.143030 0.167012 0.052773
v 0.143030 0.109494 0.052773
v 0.416547 0.167012 0.052773
v 0.143030 0.167012 0.052773
v 0.416547 0.167012 0.037960
v 0.279789 0.167012 0.037960
v 0.143030 0.167012 0.037960
v 0.416547 0.167012 0.052773
v 0.416547 0.167012 0.037960
v 0.416547 0.109494 0.052773
vn 0 -0.9801698891460838 0.19815899780568536
vn 0 0.9801698891460838 -0.19815899780568536
vn 1 0 0
vn -1 0 0
vn 0 0.24940769385194456 0.9683985761283701
vn 0 -0.24940769385194456 -0.9683985761283701
vn 0 -1 0
vn 0 1 0
usemtl material_0_2
f 1//1 2//1 3//1
f 3//2 2//2 1//2
f 4//1 3//1 2//1
f 2//2 3//2 4//2
f 5//3 6//3 7//3
f 7//4 6//4 5//4
f 8//4 9//4 10//4
f 10//3 9//3 8//3
f 11//5 12//5 13//5
f 13//6 12//6 11//6
f 13//5 12//5 14//5
f 14//6 12//6 13//6
f 14//5 12//5 15//5
f 15//6 12//6 14//6
f 15//5 12//5 16//5
f 16//6 12//6 15//6
f 17//5 16//5 12//5
f 12//6 16//6 17//6
f 18//3 19//3 20//3
f 20//4 19//4 18//4
f 21//7 22//7 23//7
f 23//8 22//8 21//8
f 23//7 22//7 24//7
f 24//8 22//8 23//8
f 25//7 24//7 22//7
f 22//8 24//8 25//8
f 26//4 27//4 28//4
f 28//3 27//3 26//3
