# SSTK version 0.8.0
# 1
mtllib original-1.mtl
o #ID2
v -0.231278 -0.214170 0.037960
v -0.231278 -0.006781 0.037960
v -0.231278 -0.214170 0.052773
v -0.231278 0.170982 0.052773
v -0.231278 0.200609 0.052773
v -0.231278 0.200609 0.037960
v -0.231278 -0.214170 0.052773
v -0.571990 -0.214170 0.052773
v -0.231278 -0.214170 0.037960
v -0.401634 -0.214170 0.037960
v -0.571990 -0.214170 0.037960
v -0.571990 0.200609 0.052773
v -0.231278 0.170982 0.052773
v -0.231278 0.200609 0.052773
v -0.264875 0.167012 0.052773
v -0.231278 -0.214170 0.052773
v -0.538393 0.167012 0.052773
v -0.538393 0.109494 0.052773
v -0.538393 -0.180573 0.052773
v -0.264875 -0.180573 0.052773
v -0.571990 -0.214170 0.052773
v -0.264875 0.109494 0.052773
v -0.571990 0.170982 0.052773
v -0.571990 0.200609 0.052773
v -0.231278 0.200609 0.052773
v -0.571990 0.200609 0.037960
v -0.401634 0.200609 0.037960
v -0.231278 0.200609 0.037960
v -0.571990 -0.214170 0.037960
v -0.571990 -0.214170 0.052773
v -0.571990 -0.006781 0.037960
v -0.571990 0.170982 0.052773
v -0.571990 0.200609 0.037960
v -0.571990 0.200609 0.052773
v 0.109433 -0.214170 0.052773
v 0.109433 -0.214170 0.037960
v -0.060923 -0.214170 0.037960
v 0.109433 0.170982 0.052773
v 0.109433 0.200609 0.052773
v 0.075836 0.167012 0.052773
v 0.109433 -0.214170 0.052773
v -0.197681 0.167012 0.052773
v -0.197681 0.109494 0.052773
v -0.197681 -0.180573 0.052773
v 0.075836 -0.180573 0.052773
v 0.075836 0.109494 0.052773
v 0.109433 0.200609 0.052773
v -0.060923 0.200609 0.037960
v 0.109433 0.200609 0.037960
v 0.450144 -0.214170 0.052773
v 0.109433 -0.214170 0.052773
v 0.450144 -0.214170 0.037960
v 0.279789 -0.214170 0.037960
v 0.109433 -0.214170 0.037960
v 0.450144 0.170982 0.052773
v 0.450144 0.200609 0.052773
v 0.416547 0.167012 0.052773
v 0.450144 -0.214170 0.052773
v 0.143030 0.167012 0.052773
v 0.143030 0.109494 0.052773
v 0.143030 -0.180573 0.052773
v 0.416547 -0.180573 0.052773
v 0.416547 0.109494 0.052773
v 0.450144 0.200609 0.052773
v 0.279789 0.200609 0.037960
v 0.450144 0.200609 0.037960
v 0.109433 -0.214170 0.037960
v 0.109433 -0.214170 0.052773
v 0.109433 -0.006781 0.037960
v 0.109433 0.170982 0.052773
v 0.109433 0.200609 0.037960
v 0.109433 0.200609 0.052773
v 0.450144 -0.214170 0.037960
v 0.450144 -0.006781 0.037960
v 0.450144 -0.214170 0.052773
v 0.450144 0.170982 0.052773
v 0.450144 0.200609 0.052773
v 0.450144 0.200609 0.037960
vn 1 0 0
vn -1 0 0
vn 0 -1 0
vn 0 1 0
vn 0 0 1
vn 0 0 -1
usemtl material_0_2
f 1//1 2//1 3//1
f 3//2 2//2 1//2
f 3//1 2//1 4//1
f 4//2 2//2 3//2
f 4//1 2//1 5//1
f 5//2 2//2 4//2
f 6//1 5//1 2//1
f 2//2 5//2 6//2
f 7//3 8//3 9//3
f 9//4 8//4 7//4
f 9//3 8//3 10//3
f 10//4 8//4 9//4
f 11//3 10//3 8//3
f 8//4 10//4 11//4
f 12//5 13//5 14//5
f 14//6 13//6 12//6
f 13//5 12//5 15//5
f 15//6 12//6 13//6
f 13//5 15//5 16//5
f 16//6 15//6 13//6
f 15//5 12//5 17//5
f 17//6 12//6 15//6
f 17//5 12//5 18//5
f 18//6 12//6 17//6
f 18//5 12//5 19//5
f 19//6 12//6 18//6
f 16//5 20//5 21//5
f 21//6 20//6 16//6
f 20//5 16//5 15//5
f 15//6 16//6 20//6
f 20//5 15//5 22//5
f 22//6 15//6 20//6
f 21//5 20//5 19//5
f 19//6 20//6 21//6
f 21//5 19//5 12//5
f 12//6 19//6 21//6
f 21//5 12//5 23//5
f 23//6 12//6 21//6
f 24//4 25//4 26//4
f 26//3 25//3 24//3
f 26//4 25//4 27//4
f 27//3 25//3 26//3
f 28//4 27//4 25//4
f 25//3 27//3 28//3
f 29//2 30//2 31//2
f 31//1 30//1 29//1
f 30//2 32//2 31//2
f 31//1 32//1 30//1
f 31//2 32//2 33//2
f 33//1 32//1 31//1
f 34//2 33//2 32//2
f 32//1 33//1 34//1
f 35//3 7//3 36//3
f 36//4 7//4 35//4
f 36//3 7//3 37//3
f 37//4 7//4 36//4
f 9//3 37//3 7//3
f 7//4 37//4 9//4
f 14//5 38//5 39//5
f 39//6 38//6 14//6
f 38//5 14//5 40//5
f 40//6 14//6 38//6
f 38//5 40//5 41//5
f 41//6 40//6 38//6
f 40//5 14//5 42//5
f 42//6 14//6 40//6
f 42//5 14//5 43//5
f 43//6 14//6 42//6
f 43//5 14//5 44//5
f 44//6 14//6 43//6
f 41//5 45//5 16//5
f 16//6 45//6 41//6
f 45//5 41//5 40//5
f 40//6 41//6 45//6
f 45//5 40//5 46//5
f 46//6 40//6 45//6
f 16//5 45//5 44//5
f 44//6 45//6 16//6
f 16//5 44//5 14//5
f 14//6 44//6 16//6
f 16//5 14//5 13//5
f 13//6 14//6 16//6
f 25//4 47//4 28//4
f 28//3 47//3 25//3
f 28//4 47//4 48//4
f 48//3 47//3 28//3
f 49//4 48//4 47//4
f 47//3 48//3 49//3
f 50//3 51//3 52//3
f 52//4 51//4 50//4
f 52//3 51//3 53//3
f 53//4 51//4 52//4
f 54//3 53//3 51//3
f 51//4 53//4 54//4
f 39//5 55//5 56//5
f 56//6 55//6 39//6
f 55//5 39//5 57//5
f 57//6 39//6 55//6
f 55//5 57//5 58//5
f 58//6 57//6 55//6
f 57//5 39//5 59//5
f 59//6 39//6 57//6
f 59//5 39//5 60//5
f 60//6 39//6 59//6
f 60//5 39//5 61//5
f 61//6 39//6 60//6
f 58//5 62//5 41//5
f 41//6 62//6 58//6
f 62//5 58//5 57//5
f 57//6 58//6 62//6
f 62//5 57//5 63//5
f 63//6 57//6 62//6
f 41//5 62//5 61//5
f 61//6 62//6 41//6
f 41//5 61//5 39//5
f 39//6 61//6 41//6
f 41//5 39//5 38//5
f 38//6 39//6 41//6
f 47//4 64//4 49//4
f 49//3 64//3 47//3
f 49//4 64//4 65//4
f 65//3 64//3 49//3
f 66//4 65//4 64//4
f 64//3 65//3 66//3
f 67//2 68//2 69//2
f 69//1 68//1 67//1
f 68//2 70//2 69//2
f 69//1 70//1 68//1
f 69//2 70//2 71//2
f 71//1 70//1 69//1
f 72//2 71//2 70//2
f 70//1 71//1 72//1
f 73//1 74//1 75//1
f 75//2 74//2 73//2
f 75//1 74//1 76//1
f 76//2 74//2 75//2
f 76//1 74//1 77//1
f 77//2 74//2 76//2
f 78//1 77//1 74//1
f 74//2 77//2 78//2
