# SSTK version 0.8.0
# 7
mtllib original-7.mtl
o #ID46
v -0.538393 -0.166218 0.123782
v -0.538393 0.109494 0.052773
v -0.538393 -0.180573 0.052773
v -0.538393 0.109494 0.052773
v -0.538393 -0.166218 0.123782
v -0.538393 0.167012 0.037960
v -0.401634 0.167012 0.037960
v -0.264875 0.167012 0.037960
v -0.264875 0.109494 0.052773
v -0.264875 -0.166218 0.123782
v -0.264875 -0.166218 0.123782
v -0.538393 -0.166218 0.123782
v -0.264875 -0.180573 0.052773
v -0.538393 -0.180573 0.052773
v -0.264875 0.109494 0.052773
v -0.264875 -0.166218 0.123782
v -0.264875 -0.180573 0.052773
v -0.538393 0.167012 0.037960
v -0.538393 0.167012 0.052773
v -0.538393 0.109494 0.052773
v -0.264875 0.167012 0.052773
v -0.538393 0.167012 0.052773
v -0.264875 0.167012 0.037960
v -0.401634 0.167012 0.037960
v -0.538393 0.167012 0.037960
v -0.264875 0.167012 0.052773
v -0.264875 0.167012 0.037960
v -0.264875 0.109494 0.052773
vn -1 0 0
vn 1 0 0
vn 0 0.24940769385194456 0.9683985761283701
vn 0 -0.24940769385194456 -0.9683985761283701
vn 0 -0.9801698891460838 0.19815899780568536
vn 0 0.9801698891460838 -0.19815899780568536
vn 0 -1 0
vn 0 1 0
usemtl material_0_2
f 1//1 2//1 3//1
f 3//2 2//2 1//2
f 4//3 5//3 6//3
f 6//4 5//4 4//4
f 6//3 5//3 7//3
f 7//4 5//4 6//4
f 7//3 5//3 8//3
f 8//4 5//4 7//4
f 8//3 5//3 9//3
f 9//4 5//4 8//4
f 10//3 9//3 5//3
f 5//4 9//4 10//4
f 11//5 12//5 13//5
f 13//6 12//6 11//6
f 14//5 13//5 12//5
f 12//6 13//6 14//6
f 15//2 16//2 17//2
f 17//1 16//1 15//1
f 18//2 19//2 20//2
f 20//1 19//1 18//1
f 21//7 22//7 23//7
f 23//8 22//8 21//8
f 23//7 22//7 24//7
f 24//8 22//8 23//8
f 25//7 24//7 22//7
f 22//8 24//8 25//8
f 26//1 27//1 28//1
f 28//2 27//2 26//2
