# SSTK version 0.8.0
# 8
mtllib original-8.mtl
o 3dw.1f419ba839c771df6d07533ccc0d1b77/Model/Group_1_1/Group_1/mesh1/mesh1-geometry/material_6#mesh1-geometry
v -0.035764 0.369325 0.062620
v -0.027725 0.368905 0.062620
v -0.034605 0.369325 0.062620
v -0.043125 0.367827 0.062620
v -0.027725 0.368905 0.062620
v -0.035764 0.369325 0.062620
v -0.043125 0.367827 0.062620
v -0.020343 0.366435 0.062620
v -0.027725 0.368905 0.062620
v -0.050092 0.364353 0.062620
v -0.020343 0.366435 0.062620
v -0.043125 0.367827 0.062620
v -0.050092 0.364353 0.062620
v -0.013851 0.362138 0.062620
v -0.020343 0.366435 0.062620
v -0.052978 0.317123 0.062620
v -0.016737 0.314908 0.062620
v -0.010907 0.320067 0.062620
v -0.058137 0.322953 0.062620
v -0.010907 0.320067 0.062620
v -0.006610 0.326559 0.062620
v -0.055922 0.359195 0.062620
v -0.013851 0.362138 0.062620
v -0.050092 0.364353 0.062620
v -0.055922 0.359195 0.062620
v -0.008692 0.356308 0.062620
v -0.013851 0.362138 0.062620
v -0.046486 0.312827 0.062620
v -0.023704 0.311434 0.062620
v -0.016737 0.314908 0.062620
v -0.046486 0.312827 0.062620
v -0.016737 0.314908 0.062620
v -0.052978 0.317123 0.062620
v -0.052978 0.317123 0.062620
v -0.010907 0.320067 0.062620
v -0.058137 0.322953 0.062620
v -0.061611 0.329920 0.062620
v -0.006610 0.326559 0.062620
v -0.004140 0.333942 0.062620
v -0.058137 0.322953 0.062620
v -0.006610 0.326559 0.062620
v -0.061611 0.329920 0.062620
v -0.023704 0.311434 0.062620
v -0.039103 0.310357 0.062620
v -0.031333 0.309882 0.062620
v -0.060219 0.352703 0.062620
v -0.008692 0.356308 0.062620
v -0.055922 0.359195 0.062620
v -0.060219 0.352703 0.062620
v -0.005218 0.349341 0.062620
v -0.008692 0.356308 0.062620
v -0.039103 0.310357 0.062620
v -0.023704 0.311434 0.062620
v -0.046486 0.312827 0.062620
v -0.063163 0.337549 0.062620
v -0.004140 0.333942 0.062620
v -0.003665 0.341712 0.062620
v -0.061611 0.329920 0.062620
v -0.004140 0.333942 0.062620
v -0.063163 0.337549 0.062620
v -0.062688 0.345320 0.062620
v -0.005218 0.349341 0.062620
v -0.060219 0.352703 0.062620
v -0.062688 0.345320 0.062620
v -0.003665 0.341712 0.062620
v -0.005218 0.349341 0.062620
v -0.063163 0.337549 0.062620
v -0.003665 0.341712 0.062620
v -0.062688 0.345320 0.062620
v -0.034605 0.369325 0.062620
v -0.027725 0.368905 0.062620
v -0.035764 0.369325 0.062620
v -0.035764 0.369325 0.062620
v -0.027725 0.368905 0.062620
v -0.043125 0.367827 0.062620
v -0.027725 0.368905 0.062620
v -0.020343 0.366435 0.062620
v -0.043125 0.367827 0.062620
v -0.043125 0.367827 0.062620
v -0.020343 0.366435 0.062620
v -0.050092 0.364353 0.062620
v -0.020343 0.366435 0.062620
v -0.013851 0.362138 0.062620
v -0.050092 0.364353 0.062620
v -0.010907 0.320067 0.062620
v -0.016737 0.314908 0.062620
v -0.052978 0.317123 0.062620
v -0.006610 0.326559 0.062620
v -0.010907 0.320067 0.062620
v -0.058137 0.322953 0.062620
v -0.050092 0.364353 0.062620
v -0.013851 0.362138 0.062620
v -0.055922 0.359195 0.062620
v -0.013851 0.362138 0.062620
v -0.008692 0.356308 0.062620
v -0.055922 0.359195 0.062620
v -0.016737 0.314908 0.062620
v -0.023704 0.311434 0.062620
v -0.046486 0.312827 0.062620
v -0.052978 0.317123 0.062620
v -0.016737 0.314908 0.062620
v -0.046486 0.312827 0.062620
v -0.058137 0.322953 0.062620
v -0.010907 0.320067 0.062620
v -0.052978 0.317123 0.062620
v -0.004140 0.333942 0.062620
v -0.006610 0.326559 0.062620
v -0.061611 0.329920 0.062620
v -0.061611 0.329920 0.062620
v -0.006610 0.326559 0.062620
v -0.058137 0.322953 0.062620
v -0.031333 0.309882 0.062620
v -0.039103 0.310357 0.062620
v -0.023704 0.311434 0.062620
v -0.055922 0.359195 0.062620
v -0.008692 0.356308 0.062620
v -0.060219 0.352703 0.062620
v -0.008692 0.356308 0.062620
v -0.005218 0.349341 0.062620
v -0.060219 0.352703 0.062620
v -0.046486 0.312827 0.062620
v -0.023704 0.311434 0.062620
v -0.039103 0.310357 0.062620
v -0.003665 0.341712 0.062620
v -0.004140 0.333942 0.062620
v -0.063163 0.337549 0.062620
v -0.063163 0.337549 0.062620
v -0.004140 0.333942 0.062620
v -0.061611 0.329920 0.062620
v -0.060219 0.352703 0.062620
v -0.005218 0.349341 0.062620
v -0.062688 0.345320 0.062620
v -0.005218 0.349341 0.062620
v -0.003665 0.341712 0.062620
v -0.062688 0.345320 0.062620
v -0.062688 0.345320 0.062620
v -0.003665 0.341712 0.062620
v -0.063163 0.337549 0.062620
vt 21.01807403564453 35.55929946899414
vt 21.007526397705078 35.35767364501953
vt 21.01807403564453 35.530235290527344
vt 20.980499267578125 35.74393844604492
vt 20.945573806762695 35.1724853515625
vt 20.893360137939453 35.91869354248047
vt 20.837800979614258 35.0096435546875
vt 19.70866584777832 35.9911003112793
vt 19.653104782104492 35.082054138183594
vt 19.78250503540039 34.93580627441406
vt 19.85491371154785 36.12050247192383
vt 19.94534683227539 34.828033447265625
vt 20.763961791992188 36.06494140625
vt 20.691553115844727 34.880245208740234
vt 19.600893020629883 35.8282585144043
vt 19.56596565246582 35.25680923461914
vt 20.0296688079834 36.2076416015625
vt 20.13053321838379 34.76607894897461
vt 19.538938522338867 35.64307403564453
vt 19.52702522277832 35.44816207885742
vt 20.601119995117188 36.17271423339844
vt 20.516799926757812 34.79310607910156
vt 20.22102165222168 36.24658203125
vt 20.3254451751709 34.75416564941406
vt 20.41593360900879 36.23466873168945
vt 0 0
vn 0 0 1
vn 0 0 -1
usemtl material_0_0
f 1/1/1 2/2/1 3/3/1
f 4/4/1 5/2/1 6/1/1
f 7/4/1 8/5/1 9/2/1
f 10/6/1 11/5/1 12/4/1
f 13/6/1 14/7/1 15/5/1
f 16/8/1 17/9/1 18/10/1
f 19/11/1 20/10/1 21/12/1
f 22/13/1 23/7/1 24/6/1
f 25/13/1 26/14/1 27/7/1
f 28/15/1 29/16/1 30/9/1
f 31/15/1 32/9/1 33/8/1
f 34/8/1 35/10/1 36/11/1
f 37/17/1 38/12/1 39/18/1
f 40/11/1 41/12/1 42/17/1
f 43/16/1 44/19/1 45/20/1
f 46/21/1 47/14/1 48/13/1
f 49/21/1 50/22/1 51/14/1
f 52/19/1 53/16/1 54/15/1
f 55/23/1 56/18/1 57/24/1
f 58/17/1 59/18/1 60/23/1
f 61/25/1 62/22/1 63/21/1
f 64/25/1 65/24/1 66/22/1
f 67/23/1 68/24/1 69/25/1
usemtl material_1_0
f 70/26/2 71/26/2 72/26/2
f 73/26/2 74/26/2 75/26/2
f 76/26/2 77/26/2 78/26/2
f 79/26/2 80/26/2 81/26/2
f 82/26/2 83/26/2 84/26/2
f 85/26/2 86/26/2 87/26/2
f 88/26/2 89/26/2 90/26/2
f 91/26/2 92/26/2 93/26/2
f 94/26/2 95/26/2 96/26/2
f 97/26/2 98/26/2 99/26/2
f 100/26/2 101/26/2 102/26/2
f 103/26/2 104/26/2 105/26/2
f 106/26/2 107/26/2 108/26/2
f 109/26/2 110/26/2 111/26/2
f 112/26/2 113/26/2 114/26/2
f 115/26/2 116/26/2 117/26/2
f 118/26/2 119/26/2 120/26/2
f 121/26/2 122/26/2 123/26/2
f 124/26/2 125/26/2 126/26/2
f 127/26/2 128/26/2 129/26/2
f 130/26/2 131/26/2 132/26/2
f 133/26/2 134/26/2 135/26/2
f 136/26/2 137/26/2 138/26/2
