# SSTK version 0.8.0
# 7
mtllib original-7.mtl
o 3dw.1f419ba839c771df6d07533ccc0d1b77/Model/Group_1_1/Group_1/mesh1/mesh1-geometry/material_5#mesh1-geometry
v -0.027725 0.368905 0.062620
v 0.040136 0.369325 0.062620
v -0.034605 0.369325 0.062620
v -0.034605 0.369325 0.062620
v 0.040136 0.369325 0.062620
v -0.027725 0.368905 0.062620
v -0.113582 0.369325 0.062620
v -0.043125 0.367827 0.062620
v -0.035764 0.369325 0.062620
v -0.035764 0.369325 0.062620
v -0.043125 0.367827 0.062620
v -0.113582 0.369325 0.062620
v -0.020343 0.366435 0.062620
v 0.040136 0.369325 0.062620
v -0.027725 0.368905 0.062620
v -0.027725 0.368905 0.062620
v 0.040136 0.369325 0.062620
v -0.020343 0.366435 0.062620
v -0.010907 0.320067 0.062620
v 0.040136 0.308635 0.062620
v 0.040136 0.369325 0.062620
v 0.040136 0.369325 0.062620
v 0.040136 0.308635 0.062620
v -0.010907 0.320067 0.062620
v -0.113582 0.369325 0.062620
v -0.050092 0.364353 0.062620
v -0.043125 0.367827 0.062620
v -0.043125 0.367827 0.062620
v -0.050092 0.364353 0.062620
v -0.113582 0.369325 0.062620
v -0.013851 0.362138 0.062620
v 0.040136 0.369325 0.062620
v -0.020343 0.366435 0.062620
v -0.020343 0.366435 0.062620
v 0.040136 0.369325 0.062620
v -0.013851 0.362138 0.062620
v -0.016737 0.314908 0.062620
v 0.040136 0.308635 0.062620
v -0.010907 0.320067 0.062620
v -0.010907 0.320067 0.062620
v 0.040136 0.308635 0.062620
v -0.016737 0.314908 0.062620
v -0.010907 0.320067 0.062620
v 0.040136 0.369325 0.062620
v -0.006610 0.326559 0.062620
v -0.006610 0.326559 0.062620
v 0.040136 0.369325 0.062620
v -0.010907 0.320067 0.062620
v 0.040136 0.308635 0.062620
v -0.031333 0.309882 0.062620
v -0.113582 0.308635 0.062620
v -0.113582 0.308635 0.062620
v -0.031333 0.309882 0.062620
v 0.040136 0.308635 0.062620
v -0.113582 0.308635 0.062620
v -0.052978 0.317123 0.062620
v -0.113582 0.369325 0.062620
v -0.113582 0.369325 0.062620
v -0.052978 0.317123 0.062620
v -0.113582 0.308635 0.062620
v -0.113582 0.369325 0.062620
v -0.055922 0.359195 0.062620
v -0.050092 0.364353 0.062620
v -0.050092 0.364353 0.062620
v -0.055922 0.359195 0.062620
v -0.113582 0.369325 0.062620
v -0.008692 0.356308 0.062620
v 0.040136 0.369325 0.062620
v -0.013851 0.362138 0.062620
v -0.013851 0.362138 0.062620
v 0.040136 0.369325 0.062620
v -0.008692 0.356308 0.062620
v -0.023704 0.311434 0.062620
v 0.040136 0.308635 0.062620
v -0.016737 0.314908 0.062620
v -0.016737 0.314908 0.062620
v 0.040136 0.308635 0.062620
v -0.023704 0.311434 0.062620
v -0.006610 0.326559 0.062620
v 0.040136 0.369325 0.062620
v -0.004140 0.333942 0.062620
v -0.004140 0.333942 0.062620
v 0.040136 0.369325 0.062620
v -0.006610 0.326559 0.062620
v -0.031333 0.309882 0.062620
v 0.040136 0.308635 0.062620
v -0.023704 0.311434 0.062620
v -0.023704 0.311434 0.062620
v 0.040136 0.308635 0.062620
v -0.031333 0.309882 0.062620
v -0.039103 0.310357 0.062620
v -0.113582 0.308635 0.062620
v -0.031333 0.309882 0.062620
v -0.031333 0.309882 0.062620
v -0.113582 0.308635 0.062620
v -0.039103 0.310357 0.062620
v -0.052978 0.317123 0.062620
v -0.113582 0.308635 0.062620
v -0.046486 0.312827 0.062620
v -0.046486 0.312827 0.062620
v -0.113582 0.308635 0.062620
v -0.052978 0.317123 0.062620
v -0.113582 0.369325 0.062620
v -0.052978 0.317123 0.062620
v -0.058137 0.322953 0.062620
v -0.058137 0.322953 0.062620
v -0.052978 0.317123 0.062620
v -0.113582 0.369325 0.062620
v -0.113582 0.369325 0.062620
v -0.060219 0.352703 0.062620
v -0.055922 0.359195 0.062620
v -0.055922 0.359195 0.062620
v -0.060219 0.352703 0.062620
v -0.113582 0.369325 0.062620
v -0.005218 0.349341 0.062620
v 0.040136 0.369325 0.062620
v -0.008692 0.356308 0.062620
v -0.008692 0.356308 0.062620
v 0.040136 0.369325 0.062620
v -0.005218 0.349341 0.062620
v -0.004140 0.333942 0.062620
v 0.040136 0.369325 0.062620
v -0.003665 0.341712 0.062620
v -0.003665 0.341712 0.062620
v 0.040136 0.369325 0.062620
v -0.004140 0.333942 0.062620
v -0.046486 0.312827 0.062620
v -0.113582 0.308635 0.062620
v -0.039103 0.310357 0.062620
v -0.039103 0.310357 0.062620
v -0.113582 0.308635 0.062620
v -0.046486 0.312827 0.062620
v -0.113582 0.369325 0.062620
v -0.058137 0.322953 0.062620
v -0.061611 0.329920 0.062620
v -0.061611 0.329920 0.062620
v -0.058137 0.322953 0.062620
v -0.113582 0.369325 0.062620
v -0.113582 0.369325 0.062620
v -0.062688 0.345320 0.062620
v -0.060219 0.352703 0.062620
v -0.060219 0.352703 0.062620
v -0.062688 0.345320 0.062620
v -0.113582 0.369325 0.062620
v -0.003665 0.341712 0.062620
v 0.040136 0.369325 0.062620
v -0.005218 0.349341 0.062620
v -0.005218 0.349341 0.062620
v 0.040136 0.369325 0.062620
v -0.003665 0.341712 0.062620
v -0.113582 0.369325 0.062620
v -0.061611 0.329920 0.062620
v -0.063163 0.337549 0.062620
v -0.063163 0.337549 0.062620
v -0.061611 0.329920 0.062620
v -0.113582 0.369325 0.062620
v -0.113582 0.369325 0.062620
v -0.063163 0.337549 0.062620
v -0.062688 0.345320 0.062620
v -0.062688 0.345320 0.062620
v -0.063163 0.337549 0.062620
v -0.113582 0.369325 0.062620
vt 21.007526397705078 35.35767364501953
vt 21.01807403564453 33.65548324584961
vt 21.01807403564453 35.530235290527344
vt 27.625104904174805 17.934585571289062
vt 27.625104904174805 16.059833526611328
vt 27.61455726623535 17.76202392578125
vt 21.01807403564453 37.5112419128418
vt 20.980499267578125 35.74393844604492
vt 21.01807403564453 35.55929946899414
vt 27.625104904174805 17.963647842407227
vt 27.5875301361084 18.14828872680664
vt 27.625104904174805 19.915590286254883
vt 20.945573806762695 35.1724853515625
vt 27.55260467529297 17.57683563232422
vt 19.78250503540039 34.93580627441406
vt 19.495765686035156 33.65548324584961
vt 26.102794647216797 16.059833526611328
vt 26.389535903930664 17.34015464782715
vt 20.893360137939453 35.91869354248047
vt 27.50039291381836 18.323043823242188
vt 20.837800979614258 35.0096435546875
vt 27.44483184814453 17.41399383544922
vt 19.653104782104492 35.082054138183594
vt 26.260135650634766 17.48640251159668
vt 19.94534683227539 34.828033447265625
vt 26.552377700805664 17.23238182067871
vt 19.52702522277832 35.44816207885742
vt 19.495765686035156 37.5112419128418
vt 26.102794647216797 19.915590286254883
vt 26.134056091308594 17.852510452270508
vt 19.70866584777832 35.9911003112793
vt 26.315696716308594 18.395450592041016
vt 20.763961791992188 36.06494140625
vt 27.37099266052246 18.469289779663086
vt 20.691553115844727 34.880245208740234
vt 27.298583984375 17.28459358215332
vt 19.56596565246582 35.25680923461914
vt 26.172996520996094 17.661157608032227
vt 20.13053321838379 34.76607894897461
vt 26.737564086914062 17.170427322387695
vt 19.538938522338867 35.64307403564453
vt 26.14596939086914 18.047422409057617
vt 19.600893020629883 35.8282585144043
vt 26.207923889160156 18.232608795166016
vt 19.85491371154785 36.12050247192383
vt 26.461942672729492 18.524850845336914
vt 20.601119995117188 36.17271423339844
vt 27.20815086364746 18.577062606811523
vt 20.516799926757812 34.79310607910156
vt 27.123828887939453 17.19745445251465
vt 20.3254451751709 34.75416564941406
vt 26.932476043701172 17.15851593017578
vt 20.0296688079834 36.2076416015625
vt 26.63669776916504 18.611989974975586
vt 20.41593360900879 36.23466873168945
vt 27.02296257019043 18.63901710510254
vt 20.22102165222168 36.24658203125
vt 26.82805061340332 18.650930404663086
vn 0 0 1
vn 0 0 -1
usemtl material_0_0
f 1/1/1 2/2/1 3/3/1
f 4/4/2 5/5/2 6/6/2
f 7/7/1 8/8/1 9/9/1
f 10/10/2 11/11/2 12/12/2
f 13/13/1 14/2/1 15/1/1
f 16/6/2 17/5/2 18/14/2
f 19/15/1 20/16/1 21/2/1
f 22/5/2 23/17/2 24/18/2
f 25/7/1 26/19/1 27/8/1
f 28/11/2 29/20/2 30/12/2
f 31/21/1 32/2/1 33/13/1
f 34/14/2 35/5/2 36/22/2
f 37/23/1 38/16/1 39/15/1
f 40/18/2 41/17/2 42/24/2
f 43/15/1 44/2/1 45/25/1
f 46/26/2 47/5/2 48/18/2
f 49/16/1 50/27/1 51/28/1
f 52/29/2 53/30/2 54/17/2
f 55/28/1 56/31/1 57/7/1
f 58/12/2 59/32/2 60/29/2
f 61/7/1 62/33/1 63/19/1
f 64/20/2 65/34/2 66/12/2
f 67/35/1 68/2/1 69/21/1
f 70/22/2 71/5/2 72/36/2
f 73/37/1 74/16/1 75/23/1
f 76/24/2 77/17/2 78/38/2
f 79/25/1 80/2/1 81/39/1
f 82/40/2 83/5/2 84/26/2
f 85/27/1 86/16/1 87/37/1
f 88/38/2 89/17/2 90/30/2
f 91/41/1 92/28/1 93/27/1
f 94/30/2 95/29/2 96/42/2
f 97/31/1 98/28/1 99/43/1
f 100/44/2 101/29/2 102/32/2
f 103/7/1 104/31/1 105/45/1
f 106/46/2 107/32/2 108/12/2
f 109/7/1 110/47/1 111/33/1
f 112/34/2 113/48/2 114/12/2
f 115/49/1 116/2/1 117/35/1
f 118/36/2 119/5/2 120/50/2
f 121/39/1 122/2/1 123/51/1
f 124/52/2 125/5/2 126/40/2
f 127/43/1 128/28/1 129/41/1
f 130/42/2 131/29/2 132/44/2
f 133/7/1 134/45/1 135/53/1
f 136/54/2 137/46/2 138/12/2
f 139/7/1 140/55/1 141/47/1
f 142/48/2 143/56/2 144/12/2
f 145/51/1 146/2/1 147/49/1
f 148/50/2 149/5/2 150/52/2
f 151/7/1 152/53/1 153/57/1
f 154/58/2 155/54/2 156/12/2
f 157/7/1 158/57/1 159/55/1
f 160/56/2 161/58/2 162/12/2
