# SSTK version 0.8.0
# 9
mtllib original-9.mtl
o 3dw.1f419ba839c771df6d07533ccc0d1b77/Model/Group_1_1/Group_1/mesh1/mesh1-geometry/material_7#mesh1-geometry
v 0.026831 0.233526 0.050325
v 0.026831 -0.214061 0.050325
v 0.026831 0.233526 0.132204
v 0.026831 0.233526 0.050325
v 0.026831 0.233526 0.132204
v -0.115214 0.233526 0.050325
v 0.026831 -0.214061 0.084594
v 0.026831 0.233526 0.132204
v 0.026831 -0.214061 0.050325
v -0.115214 0.233526 0.132204
v -0.115214 0.233526 0.050325
v 0.026831 0.233526 0.132204
v -0.115214 -0.214061 0.050325
v -0.115214 -0.214061 0.084594
v 0.026831 -0.214061 0.050325
v 0.026831 -0.214061 0.084594
v -0.115214 -0.214061 0.084594
v 0.026831 0.233526 0.132204
v 0.026831 -0.214061 0.084594
v 0.026831 -0.214061 0.050325
v -0.115214 -0.214061 0.084594
v -0.115214 0.233526 0.132204
v -0.115214 -0.214061 0.084594
v -0.115214 0.233526 0.050325
v -0.115214 0.233526 0.132204
v 0.026831 0.233526 0.132204
v -0.115214 -0.214061 0.084594
v -0.115214 -0.214061 0.050325
v -0.115214 0.233526 0.050325
v -0.115214 -0.214061 0.084594
v 0.026831 0.233526 0.132204
v 0.026831 -0.214061 0.050325
v 0.026831 0.233526 0.050325
v -0.115214 0.233526 0.050325
v 0.026831 0.233526 0.132204
v 0.026831 0.233526 0.050325
v 0.026831 -0.214061 0.050325
v 0.026831 0.233526 0.132204
v 0.026831 -0.214061 0.084594
v 0.026831 0.233526 0.132204
v -0.115214 0.233526 0.050325
v -0.115214 0.233526 0.132204
v 0.026831 -0.214061 0.050325
v -0.115214 -0.214061 0.084594
v -0.115214 -0.214061 0.050325
v 0.026831 0.233526 0.132204
v -0.115214 -0.214061 0.084594
v 0.026831 -0.214061 0.084594
v -0.115214 -0.214061 0.084594
v 0.026831 -0.214061 0.050325
v 0.026831 -0.214061 0.084594
v -0.115214 0.233526 0.050325
v -0.115214 -0.214061 0.084594
v -0.115214 0.233526 0.132204
v -0.115214 -0.214061 0.084594
v 0.026831 0.233526 0.132204
v -0.115214 0.233526 0.132204
v -0.115214 -0.214061 0.084594
v -0.115214 0.233526 0.050325
v -0.115214 -0.214061 0.050325
vt 0 0
vn -1 0 0
vn 0 -1 0
vn 0 1 0
vn 0 0.10577401970808524 -0.9943901934124217
vn 1 0 0
vn 0 -0.10577401970808524 0.9943901934124217
usemtl material_0_0
f 1/1/1 2/1/1 3/1/1
f 4/1/2 5/1/2 6/1/2
f 7/1/1 8/1/1 9/1/1
f 10/1/2 11/1/2 12/1/2
f 13/1/3 14/1/3 15/1/3
f 16/1/4 17/1/4 18/1/4
f 19/1/3 20/1/3 21/1/3
f 22/1/5 23/1/5 24/1/5
f 25/1/4 26/1/4 27/1/4
f 28/1/5 29/1/5 30/1/5
usemtl material_1_0
f 31/1/5 32/1/5 33/1/5
f 34/1/3 35/1/3 36/1/3
f 37/1/5 38/1/5 39/1/5
f 40/1/3 41/1/3 42/1/3
f 43/1/2 44/1/2 45/1/2
f 46/1/6 47/1/6 48/1/6
f 49/1/2 50/1/2 51/1/2
f 52/1/1 53/1/1 54/1/1
f 55/1/6 56/1/6 57/1/6
f 58/1/1 59/1/1 60/1/1
