# SSTK version 0.8.0
# 2
mtllib original-2.mtl
o #ID5
v -0.322034 -0.023657 0.044682
v 0.392856 -0.028446 0.042698
v 0.392856 -0.023657 0.044682
v -0.322034 -0.028446 0.042698
v 0.392856 -0.032559 0.039542
v -0.322034 -0.032559 0.039542
v -0.322034 -0.018517 0.045359
v 0.392856 -0.018517 0.045359
v -0.322034 -0.035715 0.035430
v 0.392856 -0.035715 0.035430
v -0.322034 -0.013378 0.044682
v 0.392856 -0.013378 0.044682
v -0.322034 -0.037698 0.030640
v 0.392856 -0.037698 0.030640
v -0.322034 -0.008588 0.042698
v 0.392856 -0.008588 0.042698
v -0.322034 -0.038375 0.025500
v 0.392856 -0.038375 0.025500
v -0.322034 -0.004475 0.039542
v 0.392856 -0.004475 0.039542
v -0.322034 -0.037698 0.020361
v 0.392856 -0.037698 0.020361
v 0.392856 -0.001319 0.035430
v -0.322034 -0.001319 0.035430
v -0.322034 -0.035715 0.015571
v 0.392856 -0.035715 0.015571
v 0.392856 0.000664 0.030640
v -0.322034 0.000664 0.030640
v -0.322034 -0.032559 0.011459
v 0.392856 -0.032559 0.011459
v 0.392856 0.001341 0.025500
v -0.322034 0.001341 0.025500
v 0.392856 -0.028446 0.008303
v -0.322034 -0.028446 0.008303
v 0.392856 0.000664 0.020361
v -0.322034 0.000664 0.020361
v 0.392856 -0.023657 0.006319
v -0.322034 -0.023657 0.006319
v 0.392856 -0.001319 0.015571
v -0.322034 -0.001319 0.015571
v 0.392856 -0.018517 0.005642
v -0.322034 -0.018517 0.005642
v 0.392856 -0.004475 0.011459
v -0.322034 -0.004475 0.011459
v 0.392856 -0.013378 0.006319
v -0.322034 -0.013378 0.006319
v -0.322034 -0.008588 0.008303
v 0.392856 -0.008588 0.008303
vn 0 -0.25881900959356163 0.9659258358036645
vn 0 -0.5000000016387101 0.866025402838329
vn 0 -0.7071067811865476 0.7071067811865476
vn 0 0 1
vn 0 -0.866025402838329 0.5000000016387101
vn 0 0.25881900959356163 0.9659258358036645
vn 0 -0.9659258358036645 0.25881900959356163
vn 0 0.5000000016387101 0.866025402838329
vn 0 -1 0
vn 0 0.7071067811865476 0.7071067811865476
vn 0 -0.9659258358036645 -0.25881900959356163
vn 0 0.866025402838329 0.5000000016387101
vn 0 -0.866025402838329 -0.5000000016387101
vn 0 0.9659258358036645 0.25881900959356163
vn 0 -0.7071067811865476 -0.7071067811865476
vn 0 1 0
vn 0 -0.5000000016387101 -0.866025402838329
vn 0 0.9659258358036645 -0.25881900959356163
vn 0 -0.25881900959356163 -0.9659258358036645
vn 0 0.866025402838329 -0.5000000016387101
vn 0 0 -1
vn 0 0.7071067811865476 -0.7071067811865476
vn 0 0.25881900959356163 -0.9659258358036645
vn 0 0.5000000016387101 -0.866025402838329
usemtl material_0_0
f 1//1 2//2 3//1
f 2//2 1//1 4//2
f 4//2 5//3 2//2
f 5//3 4//2 6//3
f 7//4 3//1 8//4
f 3//1 7//4 1//1
f 9//5 5//3 6//3
f 5//3 9//5 10//5
f 11//6 8//4 12//6
f 8//4 11//6 7//4
f 13//7 10//5 9//5
f 10//5 13//7 14//7
f 15//8 12//6 16//8
f 12//6 15//8 11//6
f 17//9 14//7 13//7
f 14//7 17//9 18//9
f 19//10 16//8 20//10
f 16//8 19//10 15//8
f 21//11 18//9 17//9
f 18//9 21//11 22//11
f 23//12 19//10 20//10
f 19//10 23//12 24//12
f 25//13 22//11 21//11
f 22//11 25//13 26//13
f 27//14 24//12 23//12
f 24//12 27//14 28//14
f 29//15 26//13 25//13
f 26//13 29//15 30//15
f 31//16 28//14 27//14
f 28//14 31//16 32//16
f 29//15 33//17 30//15
f 33//17 29//15 34//17
f 35//18 32//16 31//16
f 32//16 35//18 36//18
f 34//17 37//19 33//17
f 37//19 34//17 38//19
f 39//20 36//18 35//18
f 36//18 39//20 40//20
f 38//19 41//21 37//19
f 41//21 38//19 42//21
f 43//22 40//20 39//20
f 40//20 43//22 44//22
f 42//21 45//23 41//21
f 45//23 42//21 46//23
f 47//24 43//22 48//24
f 43//22 47//24 44//22
f 46//23 48//24 45//23
f 48//24 46//23 47//24
