# SSTK version 0.8.0
# 3
mtllib original-3.mtl
o #ID13
v 0.392856 -0.375962 0.075146
v 0.392856 -0.023657 0.044682
v 0.392856 -0.375962 -0.024145
v 0.392856 -0.018517 0.045359
v 0.392856 0.338928 0.075146
v 0.392856 -0.028446 0.042698
v 0.392856 -0.032559 0.039542
v 0.392856 -0.035715 0.035430
v 0.392856 -0.037698 0.030640
v 0.392856 -0.038375 0.025500
v 0.392856 -0.013378 0.044682
v 0.392856 -0.008588 0.042698
v 0.392856 -0.004475 0.039542
v 0.392856 -0.001319 0.035430
v 0.392856 0.000664 0.030640
v 0.392856 0.001341 0.025500
v 0.392856 -0.018517 0.005642
v 0.392856 0.338928 -0.024145
v 0.392856 -0.023657 0.006319
v 0.392856 -0.028446 0.008303
v 0.392856 -0.032559 0.011459
v 0.392856 -0.035715 0.015571
v 0.392856 -0.037698 0.020361
v 0.392856 -0.013378 0.006319
v 0.392856 -0.008588 0.008303
v 0.392856 -0.004475 0.011459
v 0.392856 -0.001319 0.015571
v 0.392856 0.000664 0.020361
v -0.322034 0.338928 -0.024145
v 0.392856 0.338928 0.075146
v -0.322034 0.338928 0.075146
v 0.392856 0.338928 -0.024145
v 0.392856 -0.375962 -0.024145
v -0.322034 -0.375962 0.075146
v 0.392856 -0.375962 0.075146
v -0.322034 -0.375962 -0.024145
v -0.322034 -0.375962 -0.024145
v -0.322034 -0.023657 0.006319
v -0.322034 -0.375962 0.075146
v -0.322034 -0.018517 0.005642
v -0.322034 0.338928 -0.024145
v -0.322034 -0.028446 0.008303
v -0.322034 -0.032559 0.011459
v -0.322034 -0.035715 0.015571
v -0.322034 -0.037698 0.020361
v -0.322034 -0.038375 0.025500
v -0.322034 -0.013378 0.006319
v -0.322034 -0.008588 0.008303
v -0.322034 -0.004475 0.011459
v -0.322034 -0.001319 0.015571
v -0.322034 0.000664 0.020361
v -0.322034 0.001341 0.025500
v -0.322034 -0.018517 0.045359
v -0.322034 0.338928 0.075146
v -0.322034 -0.023657 0.044682
v -0.322034 -0.028446 0.042698
v -0.322034 -0.032559 0.039542
v -0.322034 -0.035715 0.035430
v -0.322034 -0.037698 0.030640
v -0.322034 -0.013378 0.044682
v -0.322034 -0.008588 0.042698
v -0.322034 -0.004475 0.039542
v -0.322034 -0.001319 0.035430
v -0.322034 0.000664 0.030640
vn -1 0 0
vn 0 -1 0
vn 0 1 0
vn 1 0 0
usemtl material_0_0
f 1//1 2//1 3//1
f 2//1 1//1 4//1
f 4//1 1//1 5//1
f 3//1 2//1 6//1
f 3//1 6//1 7//1
f 3//1 7//1 8//1
f 3//1 8//1 9//1
f 3//1 9//1 10//1
f 4//1 5//1 11//1
f 11//1 5//1 12//1
f 12//1 5//1 13//1
f 13//1 5//1 14//1
f 14//1 5//1 15//1
f 15//1 5//1 16//1
f 3//1 17//1 18//1
f 17//1 3//1 19//1
f 19//1 3//1 20//1
f 20//1 3//1 21//1
f 21//1 3//1 22//1
f 22//1 3//1 23//1
f 23//1 3//1 10//1
f 18//1 17//1 24//1
f 18//1 24//1 25//1
f 18//1 25//1 26//1
f 18//1 26//1 27//1
f 18//1 27//1 28//1
f 18//1 28//1 16//1
f 18//1 16//1 5//1
f 29//2 30//2 31//2
f 30//2 29//2 32//2
f 33//3 34//3 35//3
f 34//3 33//3 36//3
f 37//4 38//4 39//4
f 38//4 37//4 40//4
f 40//4 37//4 41//4
f 39//4 38//4 42//4
f 39//4 42//4 43//4
f 39//4 43//4 44//4
f 39//4 44//4 45//4
f 39//4 45//4 46//4
f 40//4 41//4 47//4
f 47//4 41//4 48//4
f 48//4 41//4 49//4
f 49//4 41//4 50//4
f 50//4 41//4 51//4
f 51//4 41//4 52//4
f 39//4 53//4 54//4
f 53//4 39//4 55//4
f 55//4 39//4 56//4
f 56//4 39//4 57//4
f 57//4 39//4 58//4
f 58//4 39//4 59//4
f 59//4 39//4 46//4
f 54//4 53//4 60//4
f 54//4 60//4 61//4
f 54//4 61//4 62//4
f 54//4 62//4 63//4
f 54//4 63//4 64//4
f 54//4 64//4 52//4
f 54//4 52//4 41//4
