# SSTK version 0.8.0
# 4
mtllib original-4.mtl
o #ID19
v 0.631153 0.577225 -0.024145
v 0.631153 -0.614259 -0.123435
v 0.631153 -0.614259 -0.024145
v 0.631153 0.577225 -0.123435
v 0.631153 -0.614259 -0.123435
v -0.560331 -0.614259 -0.024145
v 0.631153 -0.614259 -0.024145
v -0.560331 -0.614259 -0.123435
v 0.631153 -0.614259 -0.024145
v 0.591437 -0.018517 -0.024145
v 0.631153 0.577225 -0.024145
v 0.590422 -0.026227 -0.024145
v 0.587446 -0.033411 -0.024145
v 0.392856 -0.375962 -0.024145
v -0.560331 -0.614259 -0.024145
v 0.582712 -0.039580 -0.024145
v 0.576543 -0.044313 -0.024145
v 0.569359 -0.047289 -0.024145
v 0.561650 -0.048304 -0.024145
v 0.553940 -0.047289 -0.024145
v 0.546756 -0.044313 -0.024145
v 0.540587 -0.039580 -0.024145
v 0.535853 -0.033411 -0.024145
v 0.532878 -0.026227 -0.024145
v 0.531863 -0.018517 -0.024145
v -0.322034 -0.375962 -0.024145
v -0.322034 0.338928 -0.024145
v -0.462055 -0.026227 -0.024145
v -0.461041 -0.018517 -0.024145
v -0.465031 -0.033411 -0.024145
v -0.469765 -0.039580 -0.024145
v -0.475934 -0.044313 -0.024145
v -0.483118 -0.047289 -0.024145
v -0.490828 -0.048304 -0.024145
v -0.498537 -0.047289 -0.024145
v -0.505721 -0.044313 -0.024145
v -0.511890 -0.039580 -0.024145
v -0.516624 -0.033411 -0.024145
v -0.519600 -0.026227 -0.024145
v -0.520615 -0.018517 -0.024145
v 0.392856 0.338928 -0.024145
v -0.560331 0.577225 -0.024145
v 0.587446 -0.003624 -0.024145
v 0.590422 -0.010808 -0.024145
v 0.582712 0.002546 -0.024145
v 0.576543 0.007279 -0.024145
v 0.569359 0.010255 -0.024145
v 0.561650 0.011270 -0.024145
v 0.553940 0.010255 -0.024145
v 0.546756 0.007279 -0.024145
v 0.540587 0.002546 -0.024145
v 0.535853 -0.003624 -0.024145
v 0.532878 -0.010808 -0.024145
v -0.462055 -0.010808 -0.024145
v -0.465031 -0.003624 -0.024145
v -0.469765 0.002546 -0.024145
v -0.475934 0.007279 -0.024145
v -0.483118 0.010255 -0.024145
v -0.490828 0.011270 -0.024145
v -0.498537 0.010255 -0.024145
v -0.505721 0.007279 -0.024145
v -0.511890 0.002546 -0.024145
v -0.516624 -0.003624 -0.024145
v -0.519600 -0.010808 -0.024145
v -0.560331 0.577225 -0.123435
v 0.631153 0.577225 -0.024145
v -0.560331 0.577225 -0.024145
v 0.631153 0.577225 -0.123435
v -0.560331 0.577225 -0.123435
v -0.560331 -0.614259 -0.024145
v -0.560331 -0.614259 -0.123435
v -0.560331 0.577225 -0.024145
vn -1 0 0
vn 0 1 0
vn 0 0 -1
vn 0 -1 0
vn 1 0 0
usemtl material_0_0
f 1//1 2//1 3//1
f 2//1 1//1 4//1
f 5//2 6//2 7//2
f 6//2 5//2 8//2
f 9//3 10//3 11//3
f 10//3 9//3 12//3
f 12//3 9//3 13//3
f 13//3 9//3 14//3
f 14//3 9//3 15//3
f 13//3 14//3 16//3
f 16//3 14//3 17//3
f 17//3 14//3 18//3
f 18//3 14//3 19//3
f 19//3 14//3 20//3
f 20//3 14//3 21//3
f 21//3 14//3 22//3
f 22//3 14//3 23//3
f 23//3 14//3 24//3
f 24//3 14//3 25//3
f 14//3 15//3 26//3
f 26//3 15//3 27//3
f 27//3 15//3 28//3
f 27//3 28//3 29//3
f 28//3 15//3 30//3
f 30//3 15//3 31//3
f 31//3 15//3 32//3
f 32//3 15//3 33//3
f 33//3 15//3 34//3
f 34//3 15//3 35//3
f 35//3 15//3 36//3
f 36//3 15//3 37//3
f 37//3 15//3 38//3
f 38//3 15//3 39//3
f 39//3 15//3 40//3
f 11//3 41//3 42//3
f 41//3 11//3 43//3
f 43//3 11//3 44//3
f 44//3 11//3 10//3
f 41//3 43//3 45//3
f 41//3 45//3 46//3
f 41//3 46//3 47//3
f 41//3 47//3 48//3
f 41//3 48//3 49//3
f 41//3 49//3 50//3
f 41//3 50//3 51//3
f 41//3 51//3 52//3
f 41//3 52//3 53//3
f 41//3 53//3 25//3
f 41//3 25//3 14//3
f 42//3 41//3 27//3
f 42//3 27//3 54//3
f 54//3 27//3 29//3
f 42//3 54//3 55//3
f 42//3 55//3 56//3
f 42//3 56//3 57//3
f 42//3 57//3 58//3
f 42//3 58//3 59//3
f 42//3 59//3 60//3
f 42//3 60//3 61//3
f 42//3 61//3 62//3
f 42//3 62//3 63//3
f 42//3 63//3 64//3
f 42//3 64//3 40//3
f 42//3 40//3 15//3
f 65//4 66//4 67//4
f 66//4 65//4 68//4
f 69//5 70//5 71//5
f 70//5 69//5 72//5
