# SSTK version 0.8.0
# 9
mtllib original-9.mtl
o #ID49
v 0.582712 0.002546 0.045359
v 0.587446 -0.003624 -0.024145
v 0.587446 -0.003624 0.045359
v 0.582712 0.002546 -0.024145
v 0.576543 0.007279 -0.024145
v 0.576543 0.007279 0.045359
v 0.590422 -0.010808 -0.024145
v 0.590422 -0.010808 0.045359
v 0.569359 0.010255 -0.024145
v 0.569359 0.010255 0.045359
v 0.591437 -0.018517 -0.024145
v 0.591437 -0.018517 0.045359
v 0.561650 0.011270 -0.024145
v 0.561650 0.011270 0.045359
v 0.590422 -0.026227 -0.024145
v 0.590422 -0.026227 0.045359
v 0.553940 0.010255 -0.024145
v 0.553940 0.010255 0.045359
v 0.587446 -0.033411 -0.024145
v 0.587446 -0.033411 0.045359
v 0.546756 0.007279 -0.024145
v 0.546756 0.007279 0.045359
v 0.582712 -0.039580 -0.024145
v 0.582712 -0.039580 0.045359
v 0.540587 0.002546 -0.024145
v 0.540587 0.002546 0.045359
v 0.576543 -0.044313 0.045359
v 0.576543 -0.044313 -0.024145
v 0.535853 -0.003624 0.045359
v 0.535853 -0.003624 -0.024145
v 0.569359 -0.047289 0.045359
v 0.569359 -0.047289 -0.024145
v 0.532878 -0.010808 0.045359
v 0.532878 -0.010808 -0.024145
v 0.561650 -0.048304 0.045359
v 0.561650 -0.048304 -0.024145
v 0.531863 -0.018517 0.045359
v 0.531863 -0.018517 -0.024145
v 0.553940 -0.047289 0.045359
v 0.553940 -0.047289 -0.024145
v 0.532878 -0.026227 0.045359
v 0.532878 -0.026227 -0.024145
v 0.546756 -0.044313 0.045359
v 0.546756 -0.044313 -0.024145
v 0.535853 -0.033411 0.045359
v 0.535853 -0.033411 -0.024145
v 0.540587 -0.039580 0.045359
v 0.540587 -0.039580 -0.024145
vn -0.7071067811865476 -0.7071067811865476 0
vn -0.866025402838329 -0.5000000016387101 0
vn -0.5000000016387101 -0.866025402838329 0
vn -0.9659258358036645 -0.25881900959356163 0
vn -0.25881900959356163 -0.9659258358036645 0
vn -1 0 0
vn 0 -1 0
vn -0.9659258358036645 0.25881900959356163 0
vn 0.25881900959356163 -0.9659258358036645 0
vn -0.866025402838329 0.5000000016387101 0
vn 0.5000000016387101 -0.866025402838329 0
vn -0.7071067811865476 0.7071067811865476 0
vn 0.7071067811865476 -0.7071067811865476 0
vn -0.5000000016387101 0.866025402838329 0
vn 0.866025402838329 -0.5000000016387101 0
vn -0.25881900959356163 0.9659258358036645 0
vn 0.9659258358036645 -0.25881900959356163 0
vn 0 1 0
vn 1 0 0
vn 0.25881900959356163 0.9659258358036645 0
vn 0.9659258358036645 0.25881900959356163 0
vn 0.5000000016387101 0.866025402838329 0
vn 0.866025402838329 0.5000000016387101 0
vn 0.7071067811865476 0.7071067811865476 0
usemtl material_0_0
f 1//1 2//2 3//2
f 2//2 1//1 4//1
f 5//3 1//1 6//3
f 1//1 5//3 4//1
f 3//2 7//4 8//4
f 7//4 3//2 2//2
f 9//5 6//3 10//5
f 6//3 9//5 5//3
f 8//4 11//6 12//6
f 11//6 8//4 7//4
f 13//7 10//5 14//7
f 10//5 13//7 9//5
f 12//6 15//8 16//8
f 15//8 12//6 11//6
f 17//9 14//7 18//9
f 14//7 17//9 13//7
f 16//8 19//10 20//10
f 19//10 16//8 15//8
f 21//11 18//9 22//11
f 18//9 21//11 17//9
f 20//10 23//12 24//12
f 23//12 20//10 19//10
f 25//13 22//11 26//13
f 22//11 25//13 21//11
f 23//12 27//14 24//12
f 27//14 23//12 28//14
f 25//13 29//15 30//15
f 29//15 25//13 26//13
f 28//14 31//16 27//14
f 31//16 28//14 32//16
f 30//15 33//17 34//17
f 33//17 30//15 29//15
f 32//16 35//18 31//16
f 35//18 32//16 36//18
f 34//17 37//19 38//19
f 37//19 34//17 33//17
f 36//18 39//20 35//18
f 39//20 36//18 40//20
f 38//19 41//21 42//21
f 41//21 38//19 37//19
f 40//20 43//22 39//20
f 43//22 40//20 44//22
f 42//21 45//23 46//23
f 45//23 42//21 41//21
f 44//22 47//24 43//22
f 47//24 44//22 48//24
f 46//23 47//24 48//24
f 47//24 46//23 45//23
