# SSTK version 0.8.0
# 6
mtllib original-6.mtl
o #ID31
v 0.628785 -0.000528 0.045359
v 0.628785 -0.036506 0.045359
v 0.631153 -0.018517 0.045359
v 0.621841 0.016234 0.045359
v 0.621841 -0.053269 0.045359
v 0.610796 0.030629 0.045359
v 0.610796 -0.067663 0.045359
v 0.596401 0.041675 0.045359
v 0.596401 -0.078708 0.045359
v 0.591437 -0.018517 0.045359
v 0.590422 -0.010808 0.045359
v 0.579639 0.048618 0.045359
v 0.587446 -0.003624 0.045359
v 0.582712 0.002546 0.045359
v 0.576543 0.007279 0.045359
v 0.561650 0.050986 0.045359
v 0.569359 0.010255 0.045359
v 0.561650 0.011270 0.045359
v 0.543661 0.048618 0.045359
v 0.553940 0.010255 0.045359
v 0.546756 0.007279 0.045359
v 0.540587 0.002546 0.045359
v 0.526898 0.041675 0.045359
v 0.535853 -0.003624 0.045359
v 0.532878 -0.010808 0.045359
v 0.531863 -0.018517 0.045359
v 0.590422 -0.026227 0.045359
v 0.579639 -0.085652 0.045359
v 0.587446 -0.033411 0.045359
v 0.582712 -0.039580 0.045359
v 0.576543 -0.044313 0.045359
v 0.561650 -0.088020 0.045359
v 0.569359 -0.047289 0.045359
v 0.561650 -0.048304 0.045359
v 0.553940 -0.047289 0.045359
v 0.543661 -0.085652 0.045359
v 0.546756 -0.044313 0.045359
v 0.540587 -0.039580 0.045359
v 0.526898 -0.078708 0.045359
v 0.535853 -0.033411 0.045359
v 0.532878 -0.026227 0.045359
v 0.512504 0.030629 0.045359
v 0.512504 -0.067663 0.045359
v 0.501458 0.016234 0.045359
v 0.501458 -0.053269 0.045359
v 0.494515 -0.036506 0.045359
v 0.494515 -0.000528 0.045359
v 0.492147 -0.018517 0.045359
v 0.631153 -0.018517 0.075146
v 0.628785 -0.036506 0.045359
v 0.628785 -0.036506 0.075146
v 0.631153 -0.018517 0.045359
v 0.628785 -0.000528 0.075146
v 0.628785 -0.000528 0.045359
v 0.621841 0.016234 0.075146
v 0.621841 0.016234 0.045359
v 0.610796 0.030629 0.075146
v 0.610796 0.030629 0.045359
v 0.596401 0.041675 0.045359
v 0.596401 0.041675 0.075146
v 0.579639 0.048618 0.045359
v 0.579639 0.048618 0.075146
v 0.561650 0.050986 0.045359
v 0.561650 0.050986 0.075146
v 0.543661 0.048618 0.045359
v 0.543661 0.048618 0.075146
v 0.526898 0.041675 0.045359
v 0.526898 0.041675 0.075146
v 0.512504 0.030629 0.045359
v 0.512504 0.030629 0.075146
v 0.501458 0.016234 0.075146
v 0.501458 0.016234 0.045359
v 0.494515 -0.000528 0.075146
v 0.494515 -0.000528 0.045359
v 0.492147 -0.018517 0.075146
v 0.492147 -0.018517 0.045359
v 0.494515 -0.036506 0.075146
v 0.494515 -0.036506 0.045359
v 0.501458 -0.053269 0.075146
v 0.501458 -0.053269 0.045359
v 0.512504 -0.067663 0.075146
v 0.512504 -0.067663 0.045359
v 0.526898 -0.078708 0.045359
v 0.526898 -0.078708 0.075146
v 0.543661 -0.085652 0.045359
v 0.543661 -0.085652 0.075146
v 0.561650 -0.088020 0.045359
v 0.561650 -0.088020 0.075146
v 0.579639 -0.085652 0.045359
v 0.579639 -0.085652 0.075146
v 0.596401 -0.078708 0.045359
v 0.596401 -0.078708 0.075146
v 0.610796 -0.067663 0.045359
v 0.610796 -0.067663 0.075146
v 0.621841 -0.053269 0.075146
v 0.621841 -0.053269 0.045359
vn 0 0 1
vn -1 0 0
vn -0.9659258358036645 0.25881900959356163 0
vn -0.9659258358036645 -0.25881900959356163 0
vn -0.866025402838329 -0.5000000016387101 0
vn -0.7071067811865476 -0.7071067811865476 0
vn -0.5000000016387101 -0.866025402838329 0
vn -0.25881900959356163 -0.9659258358036645 0
vn 0 -1 0
vn 0.25881900959356163 -0.9659258358036645 0
vn 0.5000000016387101 -0.866025402838329 0
vn 0.7071067811865476 -0.7071067811865476 0
vn 0.866025402838329 -0.5000000016387101 0
vn 0.9659258358036645 -0.25881900959356163 0
vn 1 0 0
vn 0.9659258358036645 0.25881900959356163 0
vn 0.866025402838329 0.5000000016387101 0
vn 0.7071067811865476 0.7071067811865476 0
vn 0.5000000016387101 0.866025402838329 0
vn 0.25881900959356163 0.9659258358036645 0
vn 0 1 0
vn -0.25881900959356163 0.9659258358036645 0
vn -0.5000000016387101 0.866025402838329 0
vn -0.7071067811865476 0.7071067811865476 0
vn -0.866025402838329 0.5000000016387101 0
usemtl material_0_0
f 1//1 2//1 3//1
f 2//1 1//1 4//1
f 2//1 4//1 5//1
f 5//1 4//1 6//1
f 5//1 6//1 7//1
f 7//1 6//1 8//1
f 7//1 8//1 9//1
f 9//1 8//1 10//1
f 10//1 8//1 11//1
f 11//1 8//1 12//1
f 11//1 12//1 13//1
f 13//1 12//1 14//1
f 14//1 12//1 15//1
f 15//1 12//1 16//1
f 15//1 16//1 17//1
f 17//1 16//1 18//1
f 18//1 16//1 19//1
f 18//1 19//1 20//1
f 20//1 19//1 21//1
f 21//1 19//1 22//1
f 22//1 19//1 23//1
f 22//1 23//1 24//1
f 24//1 23//1 25//1
f 25//1 23//1 26//1
f 9//1 27//1 28//1
f 27//1 9//1 10//1
f 28//1 27//1 29//1
f 28//1 29//1 30//1
f 28//1 30//1 31//1
f 28//1 31//1 32//1
f 32//1 31//1 33//1
f 32//1 33//1 34//1
f 32//1 34//1 35//1
f 32//1 35//1 36//1
f 36//1 35//1 37//1
f 36//1 37//1 38//1
f 36//1 38//1 39//1
f 39//1 38//1 40//1
f 39//1 40//1 41//1
f 39//1 41//1 26//1
f 39//1 26//1 23//1
f 39//1 23//1 42//1
f 39//1 42//1 43//1
f 43//1 42//1 44//1
f 43//1 44//1 45//1
f 45//1 44//1 46//1
f 46//1 44//1 47//1
f 46//1 47//1 48//1
f 49//2 50//3 51//3
f 50//3 49//2 52//2
f 53//4 52//2 49//2
f 52//2 53//4 54//4
f 55//5 54//4 53//4
f 54//4 55//5 56//5
f 57//6 56//5 55//5
f 56//5 57//6 58//6
f 59//7 57//6 60//7
f 57//6 59//7 58//6
f 61//8 60//7 62//8
f 60//7 61//8 59//7
f 63//9 62//8 64//9
f 62//8 63//9 61//8
f 65//10 64//9 66//10
f 64//9 65//10 63//9
f 67//11 66//10 68//11
f 66//10 67//11 65//10
f 69//12 68//11 70//12
f 68//11 69//12 67//11
f 69//12 71//13 72//13
f 71//13 69//12 70//12
f 72//13 73//14 74//14
f 73//14 72//13 71//13
f 74//14 75//15 76//15
f 75//15 74//14 73//14
f 76//15 77//16 78//16
f 77//16 76//15 75//15
f 78//16 79//17 80//17
f 79//17 78//16 77//16
f 80//17 81//18 82//18
f 81//18 80//17 79//17
f 83//19 81//18 84//19
f 81//18 83//19 82//18
f 85//20 84//19 86//20
f 84//19 85//20 83//19
f 87//21 86//20 88//21
f 86//20 87//21 85//20
f 89//22 88//21 90//22
f 88//21 89//22 87//21
f 91//23 90//22 92//23
f 90//22 91//23 89//22
f 93//24 92//23 94//24
f 92//23 93//24 91//23
f 95//25 93//24 94//24
f 93//24 95//25 96//25
f 51//3 96//25 95//25
f 96//25 51//3 50//3
