mtllib new-5.mtl
v 0.334507 0.767215 0.035085
v 0.334507 -0.927036 0.013536
v 0.334507 -0.927036 0.035085
v 0.334507 -0.590111 0.013536
v 0.334507 -0.586261 0.013536
v 0.334507 -0.251261 0.013536
v 0.334507 -0.247410 0.013536
v 0.334507 0.087589 0.013536
v 0.334507 0.091440 0.013536
v 0.334507 0.426439 0.013536
v 0.334507 0.430290 0.013536
v 0.334507 0.767215 0.013536
v -0.322110 0.767215 0.013536
v 0.334507 0.767215 0.035085
v -0.322110 0.767215 0.035085
v -0.322122 0.767228 0.035336
v -0.329406 -0.927036 0.013536
v -0.324299 -0.927036 0.037480
v -0.329406 -0.927036 0.037480
v -0.324070 -0.927036 0.037466
v -0.323843 -0.927036 0.037427
v -0.323622 -0.927036 0.037362
v -0.323408 -0.927036 0.037273
v -0.323204 -0.927036 0.037159
v -0.323012 -0.927036 0.037022
v -0.322834 -0.927036 0.036865
v -0.322672 -0.927036 0.036687
v 0.336695 -0.927036 0.037480
v 0.341802 -0.927036 0.013536
v 0.341802 -0.927036 0.037480
v 0.336467 -0.927036 0.037466
v 0.336240 -0.927036 0.037427
v 0.336019 -0.927036 0.037362
v 0.335805 -0.927036 0.037273
v 0.335601 -0.927036 0.037159
v 0.335409 -0.927036 0.037022
v 0.335231 -0.927036 0.036865
v 0.335069 -0.927036 0.036687
v 0.334925 -0.927036 0.036493
v 0.334800 -0.927036 0.036282
v 0.334696 -0.927036 0.036059
v 0.334614 -0.927036 0.035825
v 0.334555 -0.927036 0.035583
v 0.334519 -0.927036 0.035336
v 0.334507 -0.927036 0.035085
v 0.334519 0.767228 0.035336
v 0.334507 -0.927036 0.035085
v 0.334519 -0.927036 0.035336
v 0.334507 0.767215 0.035085
v -0.322110 0.767215 0.035085
v 0.334507 0.767215 0.035085
v -0.322158 0.767265 0.035583
v -0.322217 0.767328 0.035825
v -0.322299 0.767415 0.036059
v -0.322403 0.767524 0.036282
v -0.322528 0.767656 0.036493
v -0.322672 0.767808 0.036687
v -0.322834 0.767979 0.036865
v -0.323012 0.768167 0.037022
v -0.323204 0.768370 0.037159
v -0.323408 0.768585 0.037273
v -0.323622 0.768811 0.037362
v -0.323843 0.769045 0.037427
v -0.324070 0.769284 0.037466
v -0.324299 0.769525 0.037480
v 0.341802 0.774916 0.037480
v 0.336695 0.769525 0.037480
v 0.341802 -0.927036 0.037480
v -0.329406 0.774916 0.037480
v -0.324299 0.769525 0.037480
v 0.336695 -0.927036 0.037480
v -0.329406 0.774916 0.037480
v -0.329406 -0.927036 0.013536
v -0.329406 -0.927036 0.037480
v 0.336467 0.769284 0.037466
v 0.336695 -0.927036 0.037480
v 0.336695 0.769525 0.037480
v 0.336467 -0.927036 0.037466
v 0.334507 -0.927036 0.037480
v 0.336240 -0.927036 0.037427
v 0.336467 -0.927036 0.037466
v 0.336019 -0.927036 0.037362
v 0.335805 -0.927036 0.037273
v 0.335601 -0.927036 0.037159
v 0.335409 -0.927036 0.037022
v 0.335231 -0.927036 0.036865
v 0.335069 -0.927036 0.036687
v 0.334925 -0.927036 0.036493
v 0.334800 -0.927036 0.036282
v 0.334696 -0.927036 0.036059
v 0.334614 -0.927036 0.035825
v 0.334555 -0.927036 0.035583
v 0.334519 -0.927036 0.035336
v 0.336240 0.769045 0.037427
v 0.336240 -0.927036 0.037427
v 0.336019 0.768811 0.037362
v 0.336019 -0.927036 0.037362
v 0.335805 0.768585 0.037273
v 0.335805 -0.927036 0.037273
v 0.335601 0.768370 0.037159
v 0.335601 -0.927036 0.037159
v 0.335409 0.768167 0.037022
v 0.335409 -0.927036 0.037022
v 0.335231 0.767979 0.036865
v 0.335231 -0.927036 0.036865
v 0.335069 0.767808 0.036687
v 0.335069 -0.927036 0.036687
v 0.334925 -0.927036 0.036493
v 0.334925 0.767656 0.036493
v 0.334800 -0.927036 0.036282
v 0.334800 0.767524 0.036282
v 0.334696 -0.927036 0.036059
v 0.334696 0.767415 0.036059
v 0.334614 -0.927036 0.035825
v 0.334614 0.767328 0.035825
v 0.334555 -0.927036 0.035583
v 0.334555 0.767265 0.035583
v 0.392873 0.828824 0.037480
v 0.341802 0.774916 0.037480
v 0.392873 -0.927036 0.037480
v -0.380476 0.828824 0.037480
v -0.329406 0.774916 0.037480
v -0.329406 -0.927036 0.037480
v -0.380476 -0.927036 0.037480
v 0.341802 -0.927036 0.037480
v 0.341802 -0.927036 0.043066
v 0.341802 0.774916 0.037480
v 0.341802 -0.927036 0.037480
v 0.341802 0.774916 0.043066
v -0.329406 0.774916 0.037480
v 0.341802 0.774916 0.043066
v -0.329406 0.774916 0.043066
v 0.341802 0.774916 0.037480
v 0.343762 -0.927036 0.045448
v 0.392873 -0.927036 0.045461
v 0.343991 -0.927036 0.045461
v 0.392873 -0.927036 0.037480
v 0.343536 -0.927036 0.045408
v 0.343315 -0.927036 0.045344
v 0.343101 -0.927036 0.045254
v 0.342897 -0.927036 0.045140
v 0.342705 -0.927036 0.045004
v 0.342527 -0.927036 0.044846
v 0.342365 -0.927036 0.044669
v 0.342220 -0.927036 0.044474
v 0.342096 -0.927036 0.044264
v 0.341992 -0.927036 0.044040
v 0.341910 -0.927036 0.043806
v 0.341850 -0.927036 0.043564
v 0.341814 -0.927036 0.043317
v 0.341802 -0.927036 0.043066
v 0.341802 -0.927036 0.037480
v 0.341814 0.774929 0.043317
v 0.341802 -0.927036 0.043066
v 0.341814 -0.927036 0.043317
v 0.341802 0.774916 0.043066
v -0.329406 0.774916 0.043066
v -0.329418 0.774929 0.043317
v 0.341802 0.774916 0.043066
v -0.380476 -0.927036 0.037480
v -0.331594 -0.927036 0.045461
v -0.380476 -0.927036 0.045461
v -0.331366 -0.927036 0.045448
v -0.331139 -0.927036 0.045408
v -0.330918 -0.927036 0.045344
v -0.330704 -0.927036 0.045254
v -0.330500 -0.927036 0.045140
v -0.330308 -0.927036 0.045004
v -0.330130 -0.927036 0.044846
v -0.329968 -0.927036 0.044669
v -0.329824 -0.927036 0.044474
v -0.329699 -0.927036 0.044264
v -0.329595 -0.927036 0.044040
v -0.329513 -0.927036 0.043806
v -0.329453 -0.927036 0.043564
v -0.329418 -0.927036 0.043317
v -0.329406 -0.927036 0.043066
v -0.329406 -0.927036 0.037480
v 0.343762 0.776985 0.045448
v 0.343991 -0.927036 0.045461
v 0.343991 0.777226 0.045461
v 0.343762 -0.927036 0.045448
v 0.343536 0.776746 0.045408
v 0.343536 -0.927036 0.045408
v 0.341802 -0.927036 0.045461
v 0.343536 -0.927036 0.045408
v 0.343762 -0.927036 0.045448
v 0.343315 -0.927036 0.045344
v 0.343101 -0.927036 0.045254
v 0.342897 -0.927036 0.045140
v 0.342705 -0.927036 0.045004
v 0.342527 -0.927036 0.044846
v 0.342365 -0.927036 0.044669
v 0.342220 -0.927036 0.044474
v 0.342096 -0.927036 0.044264
v 0.341992 -0.927036 0.044040
v 0.341910 -0.927036 0.043806
v 0.341850 -0.927036 0.043564
v 0.341814 -0.927036 0.043317
v 0.343315 0.776513 0.045344
v 0.343315 -0.927036 0.045344
v 0.343101 0.776287 0.045254
v 0.343101 -0.927036 0.045254
v 0.342897 0.776071 0.045140
v 0.342897 -0.927036 0.045140
v 0.342705 0.775868 0.045004
v 0.342705 -0.927036 0.045004
v 0.342527 0.775680 0.044846
v 0.342527 -0.927036 0.044846
v 0.342365 0.775509 0.044669
v 0.342365 -0.927036 0.044669
v 0.342220 -0.927036 0.044474
v 0.342220 0.775357 0.044474
v 0.342096 -0.927036 0.044264
v 0.342096 0.775226 0.044264
v 0.341992 -0.927036 0.044040
v 0.341992 0.775116 0.044040
v 0.341910 -0.927036 0.043806
v 0.341910 0.775029 0.043806
v 0.341850 -0.927036 0.043564
v 0.341850 0.774967 0.043564
v 0.392873 0.828824 0.037480
v 0.392873 -0.927036 0.045461
v 0.392873 -0.927036 0.037480
v 0.392873 0.828824 0.045461
v 0.392873 0.828824 0.045461
v 0.343991 0.777226 0.045461
v 0.392873 -0.927036 0.045461
v -0.380476 0.828824 0.045461
v -0.331594 0.777226 0.045461
v -0.331594 -0.927036 0.045461
v -0.380476 -0.927036 0.045461
v 0.343991 -0.927036 0.045461
v -0.329453 0.774967 0.043564
v -0.329406 -0.927036 0.045461
v -0.329453 -0.927036 0.043564
v -0.329418 -0.927036 0.043317
v -0.329513 -0.927036 0.043806
v -0.329595 -0.927036 0.044040
v -0.329699 -0.927036 0.044264
v -0.329824 -0.927036 0.044474
v -0.329968 -0.927036 0.044669
v -0.330130 -0.927036 0.044846
v -0.330308 -0.927036 0.045004
v -0.330500 -0.927036 0.045140
v -0.330704 -0.927036 0.045254
v -0.330918 -0.927036 0.045344
v -0.331139 -0.927036 0.045408
v -0.331366 -0.927036 0.045448
v -0.329513 0.775029 0.043806
v -0.329595 0.775116 0.044040
v -0.329699 0.775226 0.044264
v -0.329824 0.775357 0.044474
v -0.329968 0.775509 0.044669
v -0.330130 0.775680 0.044846
v -0.330308 0.775868 0.045004
v -0.330500 0.776071 0.045140
v -0.330704 0.776287 0.045254
v -0.330918 0.776513 0.045344
v -0.331139 0.776746 0.045408
v -0.331366 0.776985 0.045448
v -0.331594 0.777226 0.045461
v -0.380476 0.828824 0.045461
v -0.380476 -0.927036 0.037480
v -0.380476 -0.927036 0.045461
v -0.380476 0.828824 0.037480
v 0.392873 0.828824 0.045461
v -0.380476 0.828824 0.037480
v -0.380476 0.828824 0.045461
v 0.392873 0.828824 0.037480
vn 0.000000 0.000000 1.000000
vn 0.000000 0.000000 -1.000000
vn 1.000000 0.000000 0.000000
vn -1.000000 0.000000 0.000000
vn 0.000000 -1.000000 0.000000
vn 0.000000 1.000000 0.000000
vn 0.718545 -0.680720 0.142525
vn -0.718545 0.680720 -0.142525
vn -0.718545 -0.680720 0.142525
vn -0.998854 0.000000 0.047852
vn -0.995416 0.000000 0.095637
vn 0.718545 0.680720 -0.142525
vn 0.998854 0.000000 -0.047852
vn 0.995416 0.000000 -0.095637
vn 0.000000 -0.998724 0.050504
vn 0.000000 0.998724 -0.050504
vn 0.696989 -0.660298 0.279664
vn -0.696989 0.660298 -0.279664
vn 0.663128 -0.628220 0.406940
vn -0.663128 0.628220 -0.406940
vn 0.619492 -0.586881 0.521345
vn -0.619492 0.586881 -0.521345
vn 0.568761 -0.538820 0.621437
vn -0.568761 0.538820 -0.621437
vn 0.513355 -0.486331 0.707070
vn -0.513355 0.486331 -0.707070
vn 0.455219 -0.431256 0.778970
vn -0.455219 0.431256 -0.778970
vn 0.395772 -0.374938 0.838324
vn -0.395772 0.374938 -0.838324
vn 0.335958 -0.318273 0.886473
vn -0.335958 0.318273 -0.886473
vn 0.276346 -0.261799 0.924713
vn -0.276346 0.261799 -0.924713
vn 0.217222 -0.205787 0.954184
vn -0.217222 0.205787 -0.954184
vn 0.158673 -0.150320 0.975821
vn -0.158673 0.150320 -0.975821
vn 0.100657 -0.095359 0.990341
vn -0.100657 0.095359 -0.990341
vn 0.043050 -0.040784 0.998240
vn -0.043050 0.040784 -0.998240
vn 0.028643 -0.027136 0.999221
vn -0.028643 0.027136 -0.999221
vn -0.043050 -0.040784 0.998240
vn -0.057238 0.000000 0.998361
vn -0.028643 -0.027136 0.999221
vn 0.043050 0.040784 -0.998240
vn 0.057238 0.000000 -0.998361
vn 0.028643 0.027136 -0.999221
vn -0.114226 0.000000 0.993455
vn 0.114226 0.000000 -0.993455
vn -0.100657 -0.095359 0.990341
vn 0.100657 0.095359 -0.990341
vn -0.226484 0.000000 0.974015
vn 0.226484 0.000000 -0.974015
vn -0.158673 -0.150320 0.975821
vn 0.158673 0.150320 -0.975821
vn -0.334918 0.000000 0.942247
vn 0.334918 0.000000 -0.942247
vn -0.217222 -0.205787 0.954184
vn 0.217222 0.205787 -0.954184
vn -0.437881 0.000000 0.899033
vn 0.437881 0.000000 -0.899033
vn -0.276346 -0.261799 0.924713
vn 0.276346 0.261799 -0.924713
vn -0.534001 0.000000 0.845484
vn 0.534001 0.000000 -0.845484
vn -0.335958 -0.318273 0.886473
vn 0.335958 0.318273 -0.886473
vn -0.622211 0.000000 0.782850
vn 0.622211 0.000000 -0.782850
vn -0.395772 -0.374938 0.838324
vn 0.395772 0.374938 -0.838324
vn -0.701743 0.000000 0.712431
vn 0.701743 0.000000 -0.712431
vn -0.455219 -0.431256 0.778970
vn 0.455219 0.431256 -0.778970
vn -0.772102 0.000000 0.635498
vn 0.772102 0.000000 -0.635498
vn -0.833018 0.000000 0.553245
vn 0.833018 0.000000 -0.553245
vn -0.513355 -0.486331 0.707070
vn 0.513355 0.486331 -0.707070
vn -0.884389 0.000000 0.466751
vn 0.884389 0.000000 -0.466751
vn -0.568761 -0.538820 0.621437
vn 0.568761 0.538820 -0.621437
vn -0.926227 0.000000 0.376966
vn 0.926227 0.000000 -0.376966
vn -0.619492 -0.586881 0.521345
vn 0.619492 0.586881 -0.521345
vn -0.958610 0.000000 0.284721
vn 0.958610 0.000000 -0.284721
vn -0.663128 -0.628220 0.406940
vn 0.663128 0.628220 -0.406940
vn -0.981642 0.000000 0.190735
vn 0.981642 0.000000 -0.190735
vn -0.696989 -0.660298 0.279664
vn 0.696989 0.660298 -0.279664
usemtl material-0
f 1//4 2//4 3//4
f 3//3 2//3 1//3
f 2//4 1//4 4//4
f 4//3 1//3 2//3
f 4//4 1//4 5//4
f 5//3 1//3 4//3
f 5//4 1//4 6//4
f 6//3 1//3 5//3
f 6//4 1//4 7//4
f 7//3 1//3 6//3
f 7//4 1//4 8//4
f 8//3 1//3 7//3
f 8//4 1//4 9//4
f 9//3 1//3 8//3
f 9//4 1//4 10//4
f 10//3 1//3 9//3
f 10//4 1//4 11//4
f 11//3 1//3 10//3
f 11//4 1//4 12//4
f 12//3 1//3 11//3
f 13//5 14//5 15//5
f 15//6 14//6 13//6
f 17//5 18//5 19//5
f 19//6 18//6 17//6
f 18//5 17//5 20//5
f 20//6 17//6 18//6
f 20//5 17//5 21//5
f 21//6 17//6 20//6
f 21//5 17//5 22//5
f 22//6 17//6 21//6
f 22//5 17//5 23//5
f 23//6 17//6 22//6
f 23//5 17//5 24//5
f 24//6 17//6 23//6
f 24//5 17//5 25//5
f 25//6 17//6 24//6
f 25//5 17//5 26//5
f 26//6 17//6 25//6
f 26//5 17//5 27//5
f 27//6 17//6 26//6
f 28//5 29//5 30//5
f 30//6 29//6 28//6
f 29//5 28//5 31//5
f 31//6 28//6 29//6
f 29//5 31//5 32//5
f 32//6 31//6 29//6
f 29//5 32//5 33//5
f 33//6 32//6 29//6
f 29//5 33//5 34//5
f 34//6 33//6 29//6
f 29//5 34//5 35//5
f 35//6 34//6 29//6
f 29//5 35//5 36//5
f 36//6 35//6 29//6
f 29//5 36//5 37//5
f 37//6 36//6 29//6
f 29//5 37//5 38//5
f 38//6 37//6 29//6
f 29//5 38//5 39//5
f 39//6 38//6 29//6
f 29//5 39//5 40//5
f 40//6 39//6 29//6
f 29//5 40//5 41//5
f 41//6 40//6 29//6
f 29//5 41//5 42//5
f 42//6 41//6 29//6
f 29//5 42//5 43//5
f 43//6 42//6 29//6
f 29//5 43//5 44//5
f 44//6 43//6 29//6
f 29//5 44//5 45//5
f 45//6 44//6 29//6
f 46//9 47//10 48//11
f 48//14 47//13 46//12
f 47//10 46//9 49//10
f 49//13 46//12 47//13
f 50//15 46//9 16//7
f 16//8 46//12 50//16
f 46//9 50//15 51//15
f 51//16 50//16 46//12
f 66//1 67//1 68//1
f 68//2 67//2 66//2
f 67//1 66//1 69//1
f 69//2 66//2 67//2
f 67//1 69//1 70//1
f 70//2 69//2 67//2
f 71//1 68//1 67//1
f 67//2 68//2 71//2
f 72//4 73//4 74//4
f 74//3 73//3 72//3
f 75//45 76//46 77//47
f 77//50 76//49 75//48
f 76//46 75//45 78//51
f 78//52 75//48 76//49
f 79//5 80//5 81//5
f 81//6 80//6 79//6
f 80//5 79//5 82//5
f 82//6 79//6 80//6
f 82//5 79//5 83//5
f 83//6 79//6 82//6
f 83//5 79//5 84//5
f 84//6 79//6 83//6
f 84//5 79//5 85//5
f 85//6 79//6 84//6
f 85//5 79//5 86//5
f 86//6 79//6 85//6
f 86//5 79//5 87//5
f 87//6 79//6 86//6
f 87//5 79//5 88//5
f 88//6 79//6 87//6
f 88//5 79//5 89//5
f 89//6 79//6 88//6
f 89//5 79//5 90//5
f 90//6 79//6 89//6
f 90//5 79//5 91//5
f 91//6 79//6 90//6
f 91//5 79//5 92//5
f 92//6 79//6 91//6
f 92//5 79//5 93//5
f 93//6 79//6 92//6
f 94//53 78//51 75//45
f 75//48 78//52 94//54
f 78//51 94//53 95//55
f 95//56 94//54 78//52
f 96//57 95//55 94//53
f 94//54 95//56 96//58
f 95//55 96//57 97//59
f 97//60 96//58 95//56
f 98//61 97//59 96//57
f 96//58 97//60 98//62
f 97//59 98//61 99//63
f 99//64 98//62 97//60
f 100//65 99//63 98//61
f 98//62 99//64 100//66
f 99//63 100//65 101//67
f 101//68 100//66 99//64
f 102//69 101//67 100//65
f 100//66 101//68 102//70
f 101//67 102//69 103//71
f 103//72 102//70 101//68
f 104//73 103//71 102//69
f 102//70 103//72 104//74
f 103//71 104//73 105//75
f 105//76 104//74 103//72
f 106//77 105//75 104//73
f 104//74 105//76 106//78
f 105//75 106//77 107//79
f 107//80 106//78 105//76
f 106//77 108//81 107//79
f 107//80 108//82 106//78
f 108//81 106//77 109//83
f 109//84 106//78 108//82
f 109//83 110//85 108//81
f 108//82 110//86 109//84
f 110//85 109//83 111//87
f 111//88 109//84 110//86
f 111//87 112//89 110//85
f 110//86 112//90 111//88
f 112//89 111//87 113//91
f 113//92 111//88 112//90
f 113//91 114//93 112//89
f 112//90 114//94 113//92
f 114//93 113//91 115//95
f 115//96 113//92 114//94
f 115//95 116//97 114//93
f 114//94 116//98 115//96
f 116//97 115//95 117//99
f 117//100 115//96 116//98
f 117//99 48//11 116//97
f 116//98 48//14 117//100
f 48//11 117//99 46//9
f 46//12 117//100 48//14
f 16//7 117//99 52//17
f 52//18 117//100 16//8
f 117//99 16//7 46//9
f 46//12 16//8 117//100
f 52//17 115//95 53//19
f 53//20 115//96 52//18
f 115//95 52//17 117//99
f 117//100 52//18 115//96
f 53//19 113//91 54//21
f 54//22 113//92 53//20
f 113//91 53//19 115//95
f 115//96 53//20 113//92
f 54//21 111//87 55//23
f 55//24 111//88 54//22
f 111//87 54//21 113//91
f 113//92 54//22 111//88
f 55//23 109//83 56//25
f 56//26 109//84 55//24
f 109//83 55//23 111//87
f 111//88 55//24 109//84
f 56//25 106//77 57//27
f 57//28 106//78 56//26
f 106//77 56//25 109//83
f 109//84 56//26 106//78
f 58//29 106//77 104//73
f 104//74 106//78 58//30
f 106//77 58//29 57//27
f 57//28 58//30 106//78
f 59//31 104//73 102//69
f 102//70 104//74 59//32
f 104//73 59//31 58//29
f 58//30 59//32 104//74
f 60//33 102//69 100//65
f 100//66 102//70 60//34
f 102//69 60//33 59//31
f 59//32 60//34 102//70
f 61//35 100//65 98//61
f 98//62 100//66 61//36
f 100//65 61//35 60//33
f 60//34 61//36 100//66
f 62//37 98//61 96//57
f 96//58 98//62 62//38
f 98//61 62//37 61//35
f 61//36 62//38 98//62
f 63//39 96//57 94//53
f 94//54 96//58 63//40
f 96//57 63//39 62//37
f 62//38 63//40 96//58
f 64//41 94//53 75//45
f 75//48 94//54 64//42
f 94//53 64//41 63//39
f 63//40 64//42 94//54
f 65//43 75//45 77//47
f 77//50 75//48 65//44
f 75//45 65//43 64//41
f 64//42 65//44 75//48
f 118//1 119//1 120//1
f 120//2 119//2 118//2
f 119//1 118//1 121//1
f 121//2 118//2 119//2
f 119//1 121//1 122//1
f 122//2 121//2 119//2
f 122//1 121//1 123//1
f 123//2 121//2 122//2
f 123//1 121//1 124//1
f 124//2 121//2 123//2
f 125//1 120//1 119//1
f 119//2 120//2 125//2
f 126//4 127//4 128//4
f 128//3 127//3 126//3
f 127//4 126//4 129//4
f 129//3 126//3 127//3
f 130//5 131//5 132//5
f 132//6 131//6 130//6
f 131//5 130//5 133//5
f 133//6 130//6 131//6
f 134//5 135//5 136//5
f 136//6 135//6 134//6
f 135//5 134//5 137//5
f 137//6 134//6 135//6
f 137//5 134//5 138//5
f 138//6 134//6 137//6
f 137//5 138//5 139//5
f 139//6 138//6 137//6
f 137//5 139//5 140//5
f 140//6 139//6 137//6
f 137//5 140//5 141//5
f 141//6 140//6 137//6
f 137//5 141//5 142//5
f 142//6 141//6 137//6
f 137//5 142//5 143//5
f 143//6 142//6 137//6
f 137//5 143//5 144//5
f 144//6 143//6 137//6
f 137//5 144//5 145//5
f 145//6 144//6 137//6
f 137//5 145//5 146//5
f 146//6 145//6 137//6
f 137//5 146//5 147//5
f 147//6 146//6 137//6
f 137//5 147//5 148//5
f 148//6 147//6 137//6
f 137//5 148//5 149//5
f 149//6 148//6 137//6
f 137//5 149//5 150//5
f 150//6 149//6 137//6
f 137//5 150//5 151//5
f 151//6 150//6 137//6
f 137//5 151//5 152//5
f 152//6 151//6 137//6
f 153//9 154//10 155//11
f 155//14 154//13 153//12
f 154//10 153//9 156//10
f 156//13 153//12 154//13
f 157//15 153//9 158//7
f 158//8 153//12 157//16
f 153//9 157//15 159//15
f 159//16 157//16 153//12
f 160//5 161//5 162//5
f 162//6 161//6 160//6
f 161//5 160//5 163//5
f 163//6 160//6 161//6
f 163//5 160//5 164//5
f 164//6 160//6 163//6
f 164//5 160//5 165//5
f 165//6 160//6 164//6
f 165//5 160//5 166//5
f 166//6 160//6 165//6
f 166//5 160//5 167//5
f 167//6 160//6 166//6
f 167//5 160//5 168//5
f 168//6 160//6 167//6
f 168//5 160//5 169//5
f 169//6 160//6 168//6
f 169//5 160//5 170//5
f 170//6 160//6 169//6
f 170//5 160//5 171//5
f 171//6 160//6 170//6
f 171//5 160//5 172//5
f 172//6 160//6 171//6
f 172//5 160//5 173//5
f 173//6 160//6 172//6
f 173//5 160//5 174//5
f 174//6 160//6 173//6
f 174//5 160//5 175//5
f 175//6 160//6 174//6
f 175//5 160//5 176//5
f 176//6 160//6 175//6
f 176//5 160//5 177//5
f 177//6 160//6 176//6
f 177//5 160//5 178//5
f 178//6 160//6 177//6
f 179//45 180//46 181//47
f 181//50 180//49 179//48
f 180//46 179//45 182//51
f 182//52 179//48 180//49
f 183//53 182//51 179//45
f 179//48 182//52 183//54
f 182//51 183//53 184//55
f 184//56 183//54 182//52
f 185//5 186//5 187//5
f 187//6 186//6 185//6
f 186//5 185//5 188//5
f 188//6 185//6 186//6
f 188//5 185//5 189//5
f 189//6 185//6 188//6
f 189//5 185//5 190//5
f 190//6 185//6 189//6
f 190//5 185//5 191//5
f 191//6 185//6 190//6
f 191//5 185//5 192//5
f 192//6 185//6 191//6
f 192//5 185//5 193//5
f 193//6 185//6 192//6
f 193//5 185//5 194//5
f 194//6 185//6 193//6
f 194//5 185//5 195//5
f 195//6 185//6 194//6
f 195//5 185//5 196//5
f 196//6 185//6 195//6
f 196//5 185//5 197//5
f 197//6 185//6 196//6
f 197//5 185//5 198//5
f 198//6 185//6 197//6
f 198//5 185//5 199//5
f 199//6 185//6 198//6
f 200//57 184//55 183//53
f 183//54 184//56 200//58
f 184//55 200//57 201//59
f 201//60 200//58 184//56
f 202//61 201//59 200//57
f 200//58 201//60 202//62
f 201//59 202//61 203//63
f 203//64 202//62 201//60
f 204//65 203//63 202//61
f 202//62 203//64 204//66
f 203//63 204//65 205//67
f 205//68 204//66 203//64
f 206//69 205//67 204//65
f 204//66 205//68 206//70
f 205//67 206//69 207//71
f 207//72 206//70 205//68
f 208//73 207//71 206//69
f 206//70 207//72 208//74
f 207//71 208//73 209//75
f 209//76 208//74 207//72
f 210//77 209//75 208//73
f 208//74 209//76 210//78
f 209//75 210//77 211//79
f 211//80 210//78 209//76
f 210//77 212//81 211//79
f 211//80 212//82 210//78
f 212//81 210//77 213//83
f 213//84 210//78 212//82
f 213//83 214//85 212//81
f 212//82 214//86 213//84
f 214//85 213//83 215//87
f 215//88 213//84 214//86
f 215//87 216//89 214//85
f 214//86 216//90 215//88
f 216//89 215//87 217//91
f 217//92 215//88 216//90
f 217//91 218//93 216//89
f 216//90 218//94 217//92
f 218//93 217//91 219//95
f 219//96 217//92 218//94
f 219//95 220//97 218//93
f 218//94 220//98 219//96
f 220//97 219//95 221//99
f 221//100 219//96 220//98
f 221//99 155//11 220//97
f 220//98 155//14 221//100
f 155//11 221//99 153//9
f 153//12 221//100 155//14
f 222//3 223//3 224//3
f 224//4 223//4 222//4
f 223//3 222//3 225//3
f 225//4 222//4 223//4
f 226//1 227//1 228//1
f 228//2 227//2 226//2
f 227//1 226//1 229//1
f 229//2 226//2 227//2
f 227//1 229//1 230//1
f 230//2 229//2 227//2
f 230//1 229//1 231//1
f 231//2 229//2 230//2
f 231//1 229//1 232//1
f 232//2 229//2 231//2
f 233//1 228//1 227//1
f 227//2 228//2 233//2
f 158//7 221//99 234//17
f 234//18 221//100 158//8
f 221//99 158//7 153//9
f 153//12 158//8 221//100
f 235//5 236//5 237//5
f 237//6 236//6 235//6
f 236//5 235//5 238//5
f 238//6 235//6 236//6
f 238//5 235//5 239//5
f 239//6 235//6 238//6
f 239//5 235//5 240//5
f 240//6 235//6 239//6
f 240//5 235//5 241//5
f 241//6 235//6 240//6
f 241//5 235//5 242//5
f 242//6 235//6 241//6
f 242//5 235//5 243//5
f 243//6 235//6 242//6
f 243//5 235//5 244//5
f 244//6 235//6 243//6
f 244//5 235//5 245//5
f 245//6 235//6 244//6
f 245//5 235//5 246//5
f 246//6 235//6 245//6
f 246//5 235//5 247//5
f 247//6 235//6 246//6
f 247//5 235//5 248//5
f 248//6 235//6 247//6
f 248//5 235//5 249//5
f 249//6 235//6 248//6
f 263//4 264//4 265//4
f 265//3 264//3 263//3
f 264//4 263//4 266//4
f 266//3 263//3 264//3
f 262//43 179//45 181//47
f 181//50 179//48 262//44
f 179//45 262//43 261//41
f 261//42 262//44 179//48
f 261//41 183//53 179//45
f 179//48 183//54 261//42
f 183//53 261//41 260//39
f 260//40 261//42 183//54
f 260//39 200//57 183//53
f 183//54 200//58 260//40
f 200//57 260//39 259//37
f 259//38 260//40 200//58
f 259//37 202//61 200//57
f 200//58 202//62 259//38
f 202//61 259//37 258//35
f 258//36 259//38 202//62
f 258//35 204//65 202//61
f 202//62 204//66 258//36
f 204//65 258//35 257//33
f 257//34 258//36 204//66
f 257//33 206//69 204//65
f 204//66 206//70 257//34
f 206//69 257//33 256//31
f 256//32 257//34 206//70
f 256//31 208//73 206//69
f 206//70 208//74 256//32
f 208//73 256//31 255//29
f 255//30 256//32 208//74
f 255//29 210//77 208//73
f 208//74 210//78 255//30
f 210//77 255//29 254//27
f 254//28 255//30 210//78
f 253//25 210//77 254//27
f 254//28 210//78 253//26
f 210//77 253//25 213//83
f 213//84 253//26 210//78
f 252//23 213//83 253//25
f 253//26 213//84 252//24
f 213//83 252//23 215//87
f 215//88 252//24 213//84
f 251//21 215//87 252//23
f 252//24 215//88 251//22
f 215//87 251//21 217//91
f 217//92 251//22 215//88
f 250//19 217//91 251//21
f 251//22 217//92 250//20
f 217//91 250//19 219//95
f 219//96 250//20 217//92
f 234//17 219//95 250//19
f 250//20 219//96 234//18
f 219//95 234//17 221//99
f 221//100 234//18 219//96
f 267//6 268//6 269//6
f 269//5 268//5 267//5
f 268//6 267//6 270//6
f 270//5 267//5 268//5