mtllib new-4.mtl
v -0.322110 -0.586261 0.009545
v -0.322110 -0.590111 0.013536
v -0.322110 -0.590111 0.009545
v -0.322110 -0.247410 0.009545
v -0.322110 -0.251261 0.013536
v -0.322110 -0.251261 0.009545
v -0.322110 0.091440 0.009545
v -0.322110 0.087589 0.013536
v -0.322110 0.087589 0.009545
v -0.322110 0.430290 0.009545
v -0.322110 0.426439 0.013536
v -0.322110 0.426439 0.009545
v -0.322110 -0.586261 0.013536
v -0.322110 -0.247410 0.013536
v -0.322110 0.091440 0.013536
v -0.322110 0.430290 0.013536
v -0.322110 0.430290 0.009545
v 0.334507 0.430290 0.013536
v 0.334507 0.430290 0.009545
v 0.334507 -0.590111 0.013536
v 0.334507 -0.586261 0.013536
v 0.334507 -0.590111 0.009545
v 0.334507 -0.251261 0.013536
v 0.334507 -0.247410 0.013536
v 0.334507 -0.251261 0.009545
v 0.334507 0.087589 0.013536
v 0.334507 0.091440 0.013536
v 0.334507 0.087589 0.009545
v 0.334507 0.426439 0.013536
v 0.334507 0.430290 0.013536
v 0.334507 0.426439 0.009545
v 0.334507 0.430290 0.009545
v 0.334507 0.091440 0.009545
v 0.334507 -0.247410 0.009545
v 0.334507 -0.586261 0.009545
v -0.329406 -0.927036 0.013536
v -0.322672 -0.927036 0.036687
v -0.322528 -0.927036 0.036493
v -0.322403 -0.927036 0.036282
v -0.322299 -0.927036 0.036059
v -0.322217 -0.927036 0.035825
v -0.322158 -0.927036 0.035583
v -0.322122 -0.927036 0.035336
v -0.322110 -0.927036 0.035085
v -0.322110 -0.927036 0.013536
v 0.334507 -0.590111 0.013536
v -0.322110 -0.590111 0.009545
v -0.322110 -0.590111 0.013536
v 0.334507 -0.590111 0.009545
v -0.322110 -0.586261 0.009545
v 0.334507 -0.590111 0.009545
v 0.334507 -0.586261 0.009545
v -0.322110 -0.590111 0.009545
v -0.322110 -0.586261 0.009545
v 0.334507 -0.586261 0.013536
v -0.322110 -0.586261 0.013536
v 0.334507 -0.586261 0.009545
v 0.334507 -0.251261 0.013536
v -0.322110 -0.251261 0.009545
v -0.322110 -0.251261 0.013536
v 0.334507 -0.251261 0.009545
v -0.322110 -0.247410 0.009545
v 0.334507 -0.251261 0.009545
v 0.334507 -0.247410 0.009545
v -0.322110 -0.251261 0.009545
v -0.322110 -0.247410 0.009545
v 0.334507 -0.247410 0.013536
v -0.322110 -0.247410 0.013536
v 0.334507 -0.247410 0.009545
v 0.334507 0.087589 0.013536
v -0.322110 0.087589 0.009545
v 0.334507 0.087589 0.009545
v -0.322110 0.091440 0.009545
v 0.334507 0.087589 0.009545
v 0.334507 0.091440 0.009545
v -0.322110 0.087589 0.009545
v -0.322110 0.091440 0.009545
v 0.334507 0.091440 0.013536
v 0.334507 0.091440 0.009545
v 0.334507 0.426439 0.013536
v -0.322110 0.426439 0.009545
v 0.334507 0.426439 0.009545
v -0.322110 0.430290 0.009545
v 0.334507 0.426439 0.009545
v 0.334507 0.430290 0.009545
v -0.322110 0.426439 0.009545
v 0.341802 -0.927036 0.013536
v 0.334507 -0.927036 0.035085
v 0.334507 -0.927036 0.013536
v -0.329406 0.774916 0.037480
v -0.329406 -0.927036 0.013536
v -0.329406 0.774916 0.013536
v 0.341802 -0.927036 0.013536
v 0.341802 0.774916 0.037480
v 0.341802 -0.927036 0.037480
v 0.341802 0.774916 0.013536
v 0.341802 0.774916 0.037480
v -0.329406 0.774916 0.013536
v -0.329406 0.774916 0.037480
v 0.341802 0.774916 0.013536
vn 0.000000 0.000000 1.000000
vn 0.000000 0.000000 -1.000000
vn 1.000000 0.000000 0.000000
vn -1.000000 0.000000 0.000000
vn 0.000000 -1.000000 0.000000
vn 0.000000 1.000000 0.000000
usemtl material-0
f 1//3 2//3 3//3
f 3//4 2//4 1//4
f 4//3 5//3 6//3
f 6//4 5//4 4//4
f 7//3 8//3 9//3
f 9//4 8//4 7//4
f 10//3 11//3 12//3
f 12//4 11//4 10//4
f 13//3 2//3 1//3
f 1//4 2//4 13//4
f 14//3 5//3 4//3
f 4//4 5//4 14//4
f 15//3 8//3 7//3
f 7//4 8//4 15//4
f 16//3 11//3 10//3
f 10//4 11//4 16//4
f 18//5 17//5 19//5
f 19//6 17//6 18//6
f 20//4 21//4 22//4
f 22//3 21//3 20//3
f 23//4 24//4 25//4
f 25//3 24//3 23//3
f 26//4 27//4 28//4
f 28//3 27//3 26//3
f 29//4 30//4 31//4
f 31//3 30//3 29//3
f 32//4 31//4 30//4
f 30//3 31//3 32//3
f 33//4 28//4 27//4
f 27//3 28//3 33//3
f 34//4 25//4 24//4
f 24//3 25//3 34//3
f 35//4 22//4 21//4
f 21//3 22//3 35//3
f 37//5 36//5 38//5
f 38//6 36//6 37//6
f 38//5 36//5 39//5
f 39//6 36//6 38//6
f 39//5 36//5 40//5
f 40//6 36//6 39//6
f 40//5 36//5 41//5
f 41//6 36//6 40//6
f 41//5 36//5 42//5
f 42//6 36//6 41//6
f 42//5 36//5 43//5
f 43//6 36//6 42//6
f 43//5 36//5 44//5
f 44//6 36//6 43//6
f 44//5 36//5 45//5
f 45//6 36//6 44//6
f 46//6 47//6 48//6
f 48//5 47//5 46//5
f 47//6 46//6 49//6
f 49//5 46//5 47//5
f 50//1 51//1 52//1
f 52//2 51//2 50//2
f 51//1 50//1 53//1
f 53//2 50//2 51//2
f 54//5 55//5 56//5
f 56//6 55//6 54//6
f 55//5 54//5 57//5
f 57//6 54//6 55//6
f 58//6 59//6 60//6
f 60//5 59//5 58//5
f 59//6 58//6 61//6
f 61//5 58//5 59//5
f 62//1 63//1 64//1
f 64//2 63//2 62//2
f 63//1 62//1 65//1
f 65//2 62//2 63//2
f 66//5 67//5 68//5
f 68//6 67//6 66//6
f 67//5 66//5 69//5
f 69//6 66//6 67//6
f 71//6 70//6 72//6
f 72//5 70//5 71//5
f 73//1 74//1 75//1
f 75//2 74//2 73//2
f 74//1 73//1 76//1
f 76//2 73//2 74//2
f 78//5 77//5 79//5
f 79//6 77//6 78//6
f 81//6 80//6 82//6
f 82//5 80//5 81//5
f 83//1 84//1 85//1
f 85//2 84//2 83//2
f 84//1 83//1 86//1
f 86//2 83//2 84//2
f 87//5 88//5 89//5
f 89//6 88//6 87//6
f 91//4 90//4 92//4
f 92//3 90//3 91//3
f 93//3 94//3 95//3
f 95//4 94//4 93//4
f 94//3 93//3 96//3
f 96//4 93//4 94//4
f 97//6 98//6 99//6
f 99//5 98//5 97//5
f 98//6 97//6 100//6
f 100//5 97//5 98//5