# SSTK version 0.8.0
# 9
mtllib original-9.mtl
o #ID32
v 0.281451 -0.107385 -0.014398
v 0.280545 -0.120441 -0.014398
v 0.280545 -0.108119 -0.014398
v 0.259329 -0.105086 -0.014398
v 0.259329 -0.115849 -0.014398
v 0.258657 -0.110468 -0.014398
v 0.261297 -0.100071 -0.014398
v 0.261297 -0.120864 -0.014398
v 0.264427 -0.095765 -0.014398
v 0.264427 -0.125171 -0.014398
v 0.268507 -0.092460 -0.014398
v 0.268507 -0.128475 -0.014398
v 0.273258 -0.090383 -0.014398
v 0.273258 -0.130552 -0.014398
v 0.273978 -0.104118 -0.014398
v 0.274128 -0.102922 -0.014398
v 0.278356 -0.089675 -0.014398
v 0.274565 -0.101807 -0.014398
v 0.275261 -0.100850 -0.014398
v 0.276167 -0.100116 -0.014398
v 0.277223 -0.099654 -0.014398
v 0.278356 -0.099497 -0.014398
v 0.283454 -0.090383 -0.014398
v 0.279489 -0.099654 -0.014398
v 0.280545 -0.100116 -0.014398
v 0.281451 -0.100850 -0.014398
v 0.282147 -0.101807 -0.014398
v 0.282584 -0.102922 -0.014398
v 0.282733 -0.104118 -0.014398
v 0.276242 -0.121039 -0.014398
v 0.278356 -0.131261 -0.014398
v 0.274128 -0.105314 -0.014398
v 0.276167 -0.120441 -0.014398
v 0.274565 -0.106428 -0.014398
v 0.275261 -0.107385 -0.014398
v 0.276167 -0.108119 -0.014398
v 0.276460 -0.121596 -0.014398
v 0.276808 -0.122075 -0.014398
v 0.277262 -0.122442 -0.014398
v 0.277789 -0.122673 -0.014398
v 0.278356 -0.122751 -0.014398
v 0.278922 -0.122673 -0.014398
v 0.283454 -0.130552 -0.014398
v 0.279450 -0.122442 -0.014398
v 0.279904 -0.122075 -0.014398
v 0.280251 -0.121596 -0.014398
v 0.280470 -0.121039 -0.014398
v 0.282147 -0.106428 -0.014398
v 0.282584 -0.105314 -0.014398
v 0.288205 -0.092460 -0.014398
v 0.288205 -0.128475 -0.014398
v 0.292285 -0.095765 -0.014398
v 0.292285 -0.125171 -0.014398
v 0.295415 -0.100071 -0.014398
v 0.295415 -0.120864 -0.014398
v 0.297383 -0.105086 -0.014398
v 0.297383 -0.115849 -0.014398
v 0.298054 -0.110468 -0.014398
v 0.298054 -0.110468 -0.014398
v 0.297383 -0.105086 -0.014398
v 0.297383 -0.115849 -0.014398
v 0.295415 -0.120864 -0.014398
v 0.295415 -0.100071 -0.014398
v 0.292285 -0.125171 -0.014398
v 0.292285 -0.095765 -0.014398
v 0.288205 -0.128475 -0.014398
v 0.288205 -0.092460 -0.014398
v 0.283454 -0.130552 -0.014398
v 0.283454 -0.090383 -0.014398
v 0.282733 -0.104118 -0.014398
v 0.282584 -0.105314 -0.014398
v 0.282147 -0.106428 -0.014398
v 0.281451 -0.107385 -0.014398
v 0.280545 -0.120441 -0.014398
v 0.280470 -0.121039 -0.014398
v 0.280251 -0.121596 -0.014398
v 0.279904 -0.122075 -0.014398
v 0.279450 -0.122442 -0.014398
v 0.278922 -0.122673 -0.014398
v 0.278356 -0.131261 -0.014398
v 0.278356 -0.122751 -0.014398
v 0.277789 -0.122673 -0.014398
v 0.277262 -0.122442 -0.014398
v 0.276808 -0.122075 -0.014398
v 0.276460 -0.121596 -0.014398
v 0.276242 -0.121039 -0.014398
v 0.276167 -0.108119 -0.014398
v 0.275261 -0.107385 -0.014398
v 0.276167 -0.120441 -0.014398
v 0.274565 -0.106428 -0.014398
v 0.274128 -0.105314 -0.014398
v 0.273978 -0.104118 -0.014398
v 0.273258 -0.130552 -0.014398
v 0.282584 -0.102922 -0.014398
v 0.282147 -0.101807 -0.014398
v 0.281451 -0.100850 -0.014398
v 0.280545 -0.100116 -0.014398
v 0.279489 -0.099654 -0.014398
v 0.278356 -0.099497 -0.014398
v 0.278356 -0.089675 -0.014398
v 0.277223 -0.099654 -0.014398
v 0.276167 -0.100116 -0.014398
v 0.275261 -0.100850 -0.014398
v 0.274565 -0.101807 -0.014398
v 0.274128 -0.102922 -0.014398
v 0.273258 -0.090383 -0.014398
v 0.268507 -0.128475 -0.014398
v 0.268507 -0.092460 -0.014398
v 0.264427 -0.125171 -0.014398
v 0.264427 -0.095765 -0.014398
v 0.261297 -0.120864 -0.014398
v 0.261297 -0.100071 -0.014398
v 0.259329 -0.115849 -0.014398
v 0.259329 -0.105086 -0.014398
v 0.258657 -0.110468 -0.014398
v 0.280545 -0.108119 -0.014398
vn 0 0 -1
vn 0 0 1
usemtl material_0_0
f 1//1 2//1 3//1
f 4//1 5//1 6//1
f 5//1 4//1 7//1
f 5//1 7//1 8//1
f 8//1 7//1 9//1
f 8//1 9//1 10//1
f 10//1 9//1 11//1
f 10//1 11//1 12//1
f 12//1 11//1 13//1
f 12//1 13//1 14//1
f 14//1 13//1 15//1
f 15//1 13//1 16//1
f 16//1 13//1 17//1
f 16//1 17//1 18//1
f 18//1 17//1 19//1
f 19//1 17//1 20//1
f 20//1 17//1 21//1
f 21//1 17//1 22//1
f 22//1 17//1 23//1
f 22//1 23//1 24//1
f 24//1 23//1 25//1
f 25//1 23//1 26//1
f 26//1 23//1 27//1
f 27//1 23//1 28//1
f 28//1 23//1 29//1
f 14//1 30//1 31//1
f 30//1 14//1 32//1
f 32//1 14//1 15//1
f 30//1 32//1 33//1
f 33//1 32//1 34//1
f 33//1 34//1 35//1
f 33//1 35//1 36//1
f 31//1 30//1 37//1
f 31//1 37//1 38//1
f 31//1 38//1 39//1
f 31//1 39//1 40//1
f 31//1 40//1 41//1
f 31//1 41//1 42//1
f 31//1 42//1 43//1
f 43//1 42//1 44//1
f 43//1 44//1 45//1
f 43//1 45//1 46//1
f 43//1 46//1 47//1
f 43//1 47//1 2//1
f 43//1 2//1 1//1
f 43//1 1//1 48//1
f 43//1 48//1 49//1
f 43//1 49//1 29//1
f 43//1 29//1 23//1
f 43//1 23//1 50//1
f 43//1 50//1 51//1
f 51//1 50//1 52//1
f 51//1 52//1 53//1
f 53//1 52//1 54//1
f 53//1 54//1 55//1
f 55//1 54//1 56//1
f 55//1 56//1 57//1
f 57//1 56//1 58//1
usemtl material_1_0
f 59//2 60//2 61//2
f 61//2 60//2 62//2
f 60//2 63//2 62//2
f 62//2 63//2 64//2
f 63//2 65//2 64//2
f 64//2 65//2 66//2
f 65//2 67//2 66//2
f 66//2 67//2 68//2
f 67//2 69//2 68//2
f 69//2 70//2 68//2
f 70//2 71//2 68//2
f 71//2 72//2 68//2
f 72//2 73//2 68//2
f 73//2 74//2 68//2
f 74//2 75//2 68//2
f 75//2 76//2 68//2
f 76//2 77//2 68//2
f 77//2 78//2 68//2
f 78//2 79//2 68//2
f 68//2 79//2 80//2
f 79//2 81//2 80//2
f 81//2 82//2 80//2
f 82//2 83//2 80//2
f 83//2 84//2 80//2
f 84//2 85//2 80//2
f 85//2 86//2 80//2
f 87//2 88//2 89//2
f 88//2 90//2 89//2
f 90//2 91//2 89//2
f 89//2 91//2 86//2
f 92//2 93//2 91//2
f 91//2 93//2 86//2
f 80//2 86//2 93//2
f 70//2 69//2 94//2
f 94//2 69//2 95//2
f 95//2 69//2 96//2
f 96//2 69//2 97//2
f 97//2 69//2 98//2
f 98//2 69//2 99//2
f 69//2 100//2 99//2
f 99//2 100//2 101//2
f 101//2 100//2 102//2
f 102//2 100//2 103//2
f 103//2 100//2 104//2
f 104//2 100//2 105//2
f 100//2 106//2 105//2
f 105//2 106//2 92//2
f 92//2 106//2 93//2
f 93//2 106//2 107//2
f 106//2 108//2 107//2
f 107//2 108//2 109//2
f 108//2 110//2 109//2
f 109//2 110//2 111//2
f 110//2 112//2 111//2
f 111//2 112//2 113//2
f 112//2 114//2 113//2
f 115//2 113//2 114//2
f 116//2 74//2 73//2
