# SSTK version 0.8.0
# 6
mtllib original-6.mtl
o #ID14
v 0.269991 -0.046600 -0.014398
v 0.269991 -0.051332 -0.014398
v 0.269695 -0.048966 -0.014398
v 0.270856 -0.044395 -0.014398
v 0.270856 -0.053537 -0.014398
v 0.272232 -0.042502 -0.014398
v 0.272232 -0.055430 -0.014398
v 0.274026 -0.041049 -0.014398
v 0.274026 -0.056883 -0.014398
v 0.276114 -0.040136 -0.014398
v 0.276114 -0.057796 -0.014398
v 0.278356 -0.039824 -0.014398
v 0.278356 -0.058108 -0.014398
v 0.280597 -0.040136 -0.014398
v 0.280597 -0.057796 -0.014398
v 0.282686 -0.041049 -0.014398
v 0.282686 -0.056883 -0.014398
v 0.284480 -0.055430 -0.014398
v 0.284480 -0.042502 -0.014398
v 0.285856 -0.044395 -0.014398
v 0.285856 -0.053537 -0.014398
v 0.286721 -0.046600 -0.014398
v 0.286721 -0.051332 -0.014398
v 0.287016 -0.048966 -0.014398
vn 0 0 -1
vn 0 0 1
usemtl material_0_2
f 1//1 2//1 3//1
f 3//2 2//2 1//2
f 2//1 1//1 4//1
f 4//2 1//2 2//2
f 2//1 4//1 5//1
f 5//2 4//2 2//2
f 5//1 4//1 6//1
f 6//2 4//2 5//2
f 5//1 6//1 7//1
f 7//2 6//2 5//2
f 7//1 6//1 8//1
f 8//2 6//2 7//2
f 7//1 8//1 9//1
f 9//2 8//2 7//2
f 9//1 8//1 10//1
f 10//2 8//2 9//2
f 9//1 10//1 11//1
f 11//2 10//2 9//2
f 11//1 10//1 12//1
f 12//2 10//2 11//2
f 11//1 12//1 13//1
f 13//2 12//2 11//2
f 13//1 12//1 14//1
f 14//2 12//2 13//2
f 13//1 14//1 15//1
f 15//2 14//2 13//2
f 15//1 14//1 16//1
f 16//2 14//2 15//2
f 15//1 16//1 17//1
f 17//2 16//2 15//2
f 17//1 16//1 18//1
f 18//2 16//2 17//2
f 18//1 16//1 19//1
f 19//2 16//2 18//2
f 18//1 19//1 20//1
f 20//2 19//2 18//2
f 18//1 20//1 21//1
f 21//2 20//2 18//2
f 21//1 20//1 22//1
f 22//2 20//2 21//2
f 21//1 22//1 23//1
f 23//2 22//2 21//2
f 23//1 22//1 24//1
f 24//2 22//2 23//2
