# SSTK version 0.8.0
# 3
mtllib original-3.mtl
o #ID5
v -0.027227 -0.398040 0.019095
v -0.044700 -0.129393 0.124642
v -0.044700 -0.398040 0.124642
v -0.027227 -0.129393 0.019095
v -0.027227 -0.129393 0.019095
v -0.027227 -0.398040 0.019095
v -0.044700 -0.129393 0.124642
v -0.044700 -0.398040 0.124642
v -0.044700 -0.129393 0.124642
v -0.051629 -0.398040 0.123495
v -0.044700 -0.398040 0.124642
v -0.560706 -0.398040 0.039218
v -0.560706 -0.129393 0.039218
v -0.560706 -0.129393 0.039218
v -0.044700 -0.129393 0.124642
v -0.560706 -0.398040 0.039218
v -0.051629 -0.398040 0.123495
v -0.044700 -0.398040 0.124642
vn 0.9865721565470055 0 0.1633259928063832
vn -0.9865721565470055 0 -0.1633259928063832
vn -0.16332599280640095 0 0.9865721565470026
vn 0.16332599280640095 0 -0.9865721565470026
usemtl material_0_0
f 1//1 2//1 3//1
f 2//1 1//1 4//1
f 5//2 6//2 7//2
f 8//2 7//2 6//2
f 9//3 10//3 11//3
f 10//3 9//3 12//3
f 12//3 9//3 13//3
f 14//4 15//4 16//4
f 16//4 15//4 17//4
f 18//4 17//4 15//4
