# SSTK version 0.8.0
# 4
mtllib original-4.mtl
o #ID13
v -0.543233 -0.129393 -0.066329
v -0.560706 -0.398040 0.039218
v -0.560706 -0.129393 0.039218
v -0.543233 -0.398040 -0.066329
v -0.543233 -0.398040 -0.066329
v -0.543233 -0.129393 -0.066329
v -0.560706 -0.398040 0.039218
v -0.560706 -0.129393 0.039218
v -0.560706 -0.129393 0.039218
v -0.027227 -0.129393 0.019095
v -0.543233 -0.129393 -0.066329
v -0.044700 -0.129393 0.124642
v -0.044700 -0.129393 0.124642
v -0.560706 -0.129393 0.039218
v -0.027227 -0.129393 0.019095
v -0.543233 -0.129393 -0.066329
v -0.027227 -0.398040 0.019095
v -0.560706 -0.398040 0.039218
v -0.543233 -0.398040 -0.066329
v -0.051629 -0.398040 0.123495
v -0.044700 -0.398040 0.124642
v -0.044700 -0.398040 0.124642
v -0.027227 -0.398040 0.019095
v -0.051629 -0.398040 0.123495
v -0.560706 -0.398040 0.039218
v -0.543233 -0.398040 -0.066329
vt -15.95285 0.3954315
vt -15.83285 0.2055502
vt -15.83285 0.3954315
vt -15.95285 0.2055502
vt 0.4480566 -3.66846
vt 1.046445 -3.654237
vt 0.4676557 -3.593859
vt 1.026846 -3.728839
vt -32.70518 -3.612785
vt -32.11852 -3.688402
vt -32.11852 -3.612785
vt -32.69731 -3.688402
vt -32.70518 -3.688402
vn -0.9865721565470039 0 -0.16332599280639287
vn 0 1 0
vn 0 -1 0
vn 0.9865721565470039 0 0.16332599280639287
usemtl material_0_0
f 5//4 6//4 7//4
f 8//4 7//4 6//4
f 13//3 14//3 15//3
f 16//3 15//3 14//3
f 22//2 23//2 24//2
f 24//2 23//2 25//2
f 26//2 25//2 23//2
usemtl material_1_0
f 1/1/1 2/2/1 3/3/1
f 2/2/1 1/1/1 4/4/1
f 9/5/2 10/6/2 11/7/2
f 10/6/2 9/5/2 12/8/2
f 17/9/3 18/10/3 19/11/3
f 18/10/3 17/9/3 20/12/3
f 20/12/3 17/9/3 21/13/3
