# SSTK version 0.8.0
# 12
mtllib original-12.mtl
o #ID79
v -0.748005 0.604817 0.039218
v -0.748005 -0.621625 0.038302
v -0.748005 -0.607660 0.039218
v -0.748005 0.618781 0.038302
v -0.748005 -0.635350 0.035572
v -0.748005 0.632507 0.035572
v -0.748005 -0.648601 0.031074
v -0.748005 0.645758 0.031074
v -0.748005 -0.661152 0.024884
v -0.748005 0.658309 0.024884
v -0.748005 -0.672788 0.017110
v -0.748005 0.669945 0.017110
v -0.748005 -0.683309 0.007883
v -0.748005 0.680466 0.007883
v -0.748005 -0.692536 -0.002638
v -0.748005 0.689693 -0.002638
v -0.748005 -0.700311 -0.014274
v -0.748005 0.697468 -0.014274
v -0.748005 -0.706500 -0.026825
v -0.748005 0.703657 -0.026825
v -0.748005 -0.710998 -0.040077
v -0.748005 0.708155 -0.040077
v -0.748005 -0.713729 -0.053802
v -0.748005 0.710885 -0.053802
v -0.748005 -0.714644 -0.067766
v -0.748005 0.711800 -0.067766
v -0.748005 0.711800 -0.067766
v -0.748005 0.710885 -0.053802
v -0.748005 -0.714644 -0.067766
v -0.748005 -0.713729 -0.053802
v -0.748005 0.708155 -0.040077
v -0.748005 -0.710998 -0.040077
v -0.748005 0.703657 -0.026825
v -0.748005 -0.706500 -0.026825
v -0.748005 0.697468 -0.014274
v -0.748005 -0.700311 -0.014274
v -0.748005 0.689693 -0.002638
v -0.748005 -0.692536 -0.002638
v -0.748005 0.680466 0.007883
v -0.748005 -0.683309 0.007883
v -0.748005 0.669945 0.017110
v -0.748005 -0.672788 0.017110
v -0.748005 0.658309 0.024884
v -0.748005 -0.661152 0.024884
v -0.748005 0.645758 0.031074
v -0.748005 -0.648601 0.031074
v -0.748005 0.632507 0.035572
v -0.748005 -0.635350 0.035572
v -0.748005 0.618781 0.038302
v -0.748005 -0.621625 0.038302
v -0.748005 0.604817 0.039218
v -0.748005 -0.607660 0.039218
v -0.748005 -0.714644 -0.067766
v -0.560706 -0.398040 -0.067766
v 0.714100 -0.714644 -0.067766
v -0.748005 0.711800 -0.067766
v -0.560706 0.410278 -0.067766
v -0.037677 0.410278 -0.067766
v 0.009871 0.410278 -0.067766
v 0.532901 0.410278 -0.067766
v 0.532901 -0.398040 -0.067766
v 0.714100 0.711800 -0.067766
v -0.037677 -0.398040 -0.067766
v 0.009871 -0.398040 -0.067766
v 0.009871 0.410278 -0.067766
v -0.037677 0.410278 -0.067766
v 0.009871 -0.398040 -0.067766
v -0.037677 -0.398040 -0.067766
v -0.748005 0.711800 -0.067766
v 0.532901 0.410278 -0.067766
v 0.714100 0.711800 -0.067766
v 0.532901 -0.398040 -0.067766
v -0.560706 -0.398040 -0.067766
v 0.714100 -0.714644 -0.067766
v -0.560706 0.410278 -0.067766
v -0.748005 -0.714644 -0.067766
v 0.714100 -0.714644 -0.067766
v -0.748005 -0.713729 -0.053802
v -0.748005 -0.714644 -0.067766
v 0.714100 -0.713729 -0.053802
v 0.714100 -0.713729 -0.053802
v 0.714100 -0.714644 -0.067766
v -0.748005 -0.713729 -0.053802
v -0.748005 -0.714644 -0.067766
v -0.748005 -0.710998 -0.040077
v 0.714100 -0.710998 -0.040077
v 0.714100 -0.710998 -0.040077
v -0.748005 -0.710998 -0.040077
v -0.748005 -0.706500 -0.026825
v 0.714100 -0.706500 -0.026825
v 0.714100 -0.706500 -0.026825
v -0.748005 -0.706500 -0.026825
v -0.748005 -0.700311 -0.014274
v 0.714100 -0.700311 -0.014274
v 0.714100 -0.700311 -0.014274
v -0.748005 -0.700311 -0.014274
v -0.748005 -0.692536 -0.002638
v 0.714100 -0.692536 -0.002638
v 0.714100 -0.692536 -0.002638
v -0.748005 -0.692536 -0.002638
v -0.748005 -0.683309 0.007883
v 0.714100 -0.683309 0.007883
v 0.714100 -0.683309 0.007883
v -0.748005 -0.683309 0.007883
v 0.714100 -0.672788 0.017110
v -0.748005 -0.672788 0.017110
v -0.748005 -0.672788 0.017110
v 0.714100 -0.672788 0.017110
v 0.714100 -0.661152 0.024884
v -0.748005 -0.661152 0.024884
v -0.748005 -0.661152 0.024884
v 0.714100 -0.661152 0.024884
v 0.714100 -0.648601 0.031074
v -0.748005 -0.648601 0.031074
v -0.748005 -0.648601 0.031074
v 0.714100 -0.648601 0.031074
v 0.714100 -0.635350 0.035572
v -0.748005 -0.635350 0.035572
v -0.748005 -0.635350 0.035572
v 0.714100 -0.635350 0.035572
v 0.714100 -0.621625 0.038302
v -0.748005 -0.621625 0.038302
v -0.748005 -0.621625 0.038302
v 0.714100 -0.621625 0.038302
v 0.714100 -0.607660 0.039218
v -0.748005 -0.607660 0.039218
v -0.748005 -0.607660 0.039218
v 0.714100 -0.607660 0.039218
v 0.532901 -0.398040 0.039218
v 0.714100 0.604817 0.039218
v 0.532901 0.410278 0.039218
v 0.009871 0.410278 0.039218
v -0.037677 0.410278 0.039218
v -0.560706 0.410278 0.039218
v -0.560706 -0.398040 0.039218
v -0.748005 0.604817 0.039218
v 0.009871 -0.398040 0.039218
v -0.037677 -0.398040 0.039218
v -0.037677 0.410278 0.039218
v 0.009871 0.410278 0.039218
v -0.037677 -0.398040 0.039218
v 0.009871 -0.398040 0.039218
v 0.714100 0.604817 0.039218
v -0.560706 0.410278 0.039218
v -0.748005 0.604817 0.039218
v -0.560706 -0.398040 0.039218
v 0.532901 -0.398040 0.039218
v 0.532901 0.410278 0.039218
v 0.714100 0.618781 0.038302
v -0.748005 0.618781 0.038302
v -0.748005 0.618781 0.038302
v 0.714100 0.618781 0.038302
v 0.714100 0.632507 0.035572
v -0.748005 0.632507 0.035572
v -0.748005 0.632507 0.035572
v 0.714100 0.632507 0.035572
v 0.714100 0.645758 0.031074
v -0.748005 0.645758 0.031074
v -0.748005 0.645758 0.031074
v 0.714100 0.645758 0.031074
v 0.714100 0.658309 0.024884
v -0.748005 0.658309 0.024884
v -0.748005 0.658309 0.024884
v 0.714100 0.658309 0.024884
v 0.714100 0.669945 0.017110
v -0.748005 0.669945 0.017110
v -0.748005 0.669945 0.017110
v 0.714100 0.669945 0.017110
v 0.714100 0.680466 0.007883
v -0.748005 0.680466 0.007883
v -0.748005 0.680466 0.007883
v 0.714100 0.680466 0.007883
v -0.748005 0.689693 -0.002638
v 0.714100 0.689693 -0.002638
v 0.714100 0.689693 -0.002638
v -0.748005 0.689693 -0.002638
v -0.748005 0.697468 -0.014274
v 0.714100 0.697468 -0.014274
v 0.714100 0.697468 -0.014274
v -0.748005 0.697468 -0.014274
v -0.748005 0.703657 -0.026825
v 0.714100 0.703657 -0.026825
v 0.714100 0.703657 -0.026825
v -0.748005 0.703657 -0.026825
v -0.748005 0.708155 -0.040077
v 0.714100 0.708155 -0.040077
v 0.714100 0.708155 -0.040077
v -0.748005 0.708155 -0.040077
v -0.748005 0.710885 -0.053802
v 0.714100 0.710885 -0.053802
v 0.714100 0.710885 -0.053802
v -0.748005 0.710885 -0.053802
v -0.748005 0.711800 -0.067766
v 0.714100 0.711800 -0.067766
v 0.714100 0.711800 -0.067766
v -0.748005 0.711800 -0.067766
v 0.714100 -0.621625 0.038302
v 0.714100 0.604817 0.039218
v 0.714100 -0.607660 0.039218
v 0.714100 0.618781 0.038302
v 0.714100 -0.635350 0.035572
v 0.714100 0.632507 0.035572
v 0.714100 -0.648601 0.031074
v 0.714100 0.645758 0.031074
v 0.714100 -0.661152 0.024884
v 0.714100 0.658309 0.024884
v 0.714100 -0.672788 0.017110
v 0.714100 0.669945 0.017110
v 0.714100 -0.683309 0.007883
v 0.714100 0.680466 0.007883
v 0.714100 -0.692536 -0.002638
v 0.714100 0.689693 -0.002638
v 0.714100 -0.700311 -0.014274
v 0.714100 0.697468 -0.014274
v 0.714100 -0.706500 -0.026825
v 0.714100 0.703657 -0.026825
v 0.714100 -0.710998 -0.040077
v 0.714100 0.708155 -0.040077
v 0.714100 -0.713729 -0.053802
v 0.714100 0.710885 -0.053802
v 0.714100 -0.714644 -0.067766
v 0.714100 0.711800 -0.067766
v 0.714100 0.711800 -0.067766
v 0.714100 -0.714644 -0.067766
v 0.714100 0.710885 -0.053802
v 0.714100 -0.713729 -0.053802
v 0.714100 0.708155 -0.040077
v 0.714100 -0.710998 -0.040077
v 0.714100 0.703657 -0.026825
v 0.714100 -0.706500 -0.026825
v 0.714100 0.697468 -0.014274
v 0.714100 -0.700311 -0.014274
v 0.714100 0.689693 -0.002638
v 0.714100 -0.692536 -0.002638
v 0.714100 0.680466 0.007883
v 0.714100 -0.683309 0.007883
v 0.714100 0.669945 0.017110
v 0.714100 -0.672788 0.017110
v 0.714100 0.658309 0.024884
v 0.714100 -0.661152 0.024884
v 0.714100 0.645758 0.031074
v 0.714100 -0.648601 0.031074
v 0.714100 0.632507 0.035572
v 0.714100 -0.635350 0.035572
v 0.714100 0.618781 0.038302
v 0.714100 -0.621625 0.038302
v 0.714100 0.604817 0.039218
v 0.714100 -0.607660 0.039218
vn -1 0 0
vn 1 0 0
vn 0 0 -1
vn 0 0 1
vn 0 -0.9978589230889555 0.06540313151332994
vn 0 -0.9914448610250887 0.13052619486885528
vn 0 0.9914448610250887 -0.13052619486885528
vn 0 0.9978589230889555 -0.06540313151332994
vn 0 -0.9659258358036646 0.2588190095935614
vn 0 0.9659258358036646 -0.2588190095935614
vn 0 -0.9238795391929067 0.3826834162342324
vn 0 0.9238795391929067 -0.3826834162342324
vn 0 -0.8660254028383291 0.5000000016387098
vn 0 0.8660254028383291 -0.5000000016387098
vn 0 -0.7933533393698234 0.6087614302095278
vn 0 0.7933533393698234 -0.6087614302095278
vn 0 -0.7071067811865477 0.7071067811865475
vn 0 0.7071067811865477 -0.7071067811865475
vn 0 -0.6087614302095282 0.7933533393698232
vn 0 0.6087614302095282 -0.7933533393698232
vn 0 -0.5000000016387103 0.8660254028383289
vn 0 0.5000000016387103 -0.8660254028383289
vn 0 -0.38268341623423285 0.9238795391929064
vn 0 0.38268341623423285 -0.9238795391929064
vn 0 -0.25881900959356186 0.9659258358036644
vn 0 0.25881900959356186 -0.9659258358036644
vn 0 -0.13052619486885572 0.9914448610250887
vn 0 0.13052619486885572 -0.9914448610250887
vn 0 -0.03271907959347864 0.9994645875820491
vn 0 0.03271907959347864 -0.9994645875820491
vn 0 0.032719079593478195 0.9994645875820491
vn 0 -0.032719079593478195 -0.9994645875820491
vn 0 0.13052619486885528 0.9914448610250887
vn 0 -0.13052619486885528 -0.9914448610250887
vn 0 0.2588190095935614 0.9659258358036646
vn 0 -0.2588190095935614 -0.9659258358036646
vn 0 0.3826834162342324 0.9238795391929067
vn 0 -0.3826834162342324 -0.9238795391929067
vn 0 0.5000000016387098 0.8660254028383291
vn 0 -0.5000000016387098 -0.8660254028383291
vn 0 0.6087614302095278 0.7933533393698234
vn 0 -0.6087614302095278 -0.7933533393698234
vn 0 0.7071067811865475 0.7071067811865477
vn 0 -0.7071067811865475 -0.7071067811865477
vn 0 0.7933533393698232 0.6087614302095282
vn 0 -0.7933533393698232 -0.6087614302095282
vn 0 0.8660254028383289 0.5000000016387103
vn 0 -0.8660254028383289 -0.5000000016387103
vn 0 0.9238795391929064 0.38268341623423285
vn 0 -0.9238795391929064 -0.38268341623423285
vn 0 0.9659258358036644 0.25881900959356186
vn 0 -0.9659258358036644 -0.25881900959356186
vn 0 0.9914448610250887 0.13052619486885572
vn 0 -0.9914448610250887 -0.13052619486885572
vn 0 0.9978589230889555 0.06540313151333038
vn 0 -0.9978589230889555 -0.06540313151333038
usemtl material_0_0
f 1//1 2//1 3//1
f 2//1 1//1 4//1
f 2//1 4//1 5//1
f 5//1 4//1 6//1
f 5//1 6//1 7//1
f 7//1 6//1 8//1
f 7//1 8//1 9//1
f 9//1 8//1 10//1
f 9//1 10//1 11//1
f 11//1 10//1 12//1
f 11//1 12//1 13//1
f 13//1 12//1 14//1
f 13//1 14//1 15//1
f 15//1 14//1 16//1
f 15//1 16//1 17//1
f 17//1 16//1 18//1
f 17//1 18//1 19//1
f 19//1 18//1 20//1
f 19//1 20//1 21//1
f 21//1 20//1 22//1
f 21//1 22//1 23//1
f 23//1 22//1 24//1
f 23//1 24//1 25//1
f 25//1 24//1 26//1
f 27//2 28//2 29//2
f 29//2 28//2 30//2
f 28//2 31//2 30//2
f 30//2 31//2 32//2
f 31//2 33//2 32//2
f 32//2 33//2 34//2
f 33//2 35//2 34//2
f 34//2 35//2 36//2
f 35//2 37//2 36//2
f 36//2 37//2 38//2
f 37//2 39//2 38//2
f 38//2 39//2 40//2
f 39//2 41//2 40//2
f 40//2 41//2 42//2
f 41//2 43//2 42//2
f 42//2 43//2 44//2
f 43//2 45//2 44//2
f 44//2 45//2 46//2
f 45//2 47//2 46//2
f 46//2 47//2 48//2
f 47//2 49//2 48//2
f 48//2 49//2 50//2
f 49//2 51//2 50//2
f 52//2 50//2 51//2
f 53//3 54//3 55//3
f 54//3 53//3 56//3
f 54//3 56//3 57//3
f 57//3 56//3 58//3
f 58//3 56//3 59//3
f 59//3 56//3 60//3
f 55//3 61//3 62//3
f 61//3 55//3 54//3
f 61//3 54//3 63//3
f 61//3 63//3 64//3
f 62//3 61//3 60//3
f 62//3 60//3 56//3
f 58//3 64//3 63//3
f 64//3 58//3 59//3
f 65//4 66//4 67//4
f 68//4 67//4 66//4
f 69//4 70//4 71//4
f 70//4 72//4 71//4
f 67//4 68//4 72//4
f 68//4 73//4 72//4
f 73//4 74//4 72//4
f 71//4 72//4 74//4
f 70//4 69//4 65//4
f 65//4 69//4 66//4
f 66//4 69//4 75//4
f 75//4 69//4 73//4
f 69//4 76//4 73//4
f 74//4 73//4 76//4
f 77//5 78//6 79//5
f 78//6 77//5 80//6
f 81//7 82//8 83//7
f 84//8 83//7 82//8
f 80//6 85//9 78//6
f 85//9 80//6 86//9
f 87//10 81//7 88//10
f 83//7 88//10 81//7
f 86//9 89//11 85//9
f 89//11 86//9 90//11
f 91//12 87//10 92//12
f 88//10 92//12 87//10
f 90//11 93//13 89//11
f 93//13 90//11 94//13
f 95//14 91//12 96//14
f 92//12 96//14 91//12
f 94//13 97//15 93//13
f 97//15 94//13 98//15
f 99//16 95//14 100//16
f 96//14 100//16 95//14
f 98//15 101//17 97//15
f 101//17 98//15 102//17
f 103//18 99//16 104//18
f 100//16 104//18 99//16
f 105//19 101//17 102//17
f 101//17 105//19 106//19
f 107//20 108//20 104//18
f 103//18 104//18 108//20
f 109//21 106//19 105//19
f 106//19 109//21 110//21
f 111//22 112//22 107//20
f 108//20 107//20 112//22
f 113//23 110//21 109//21
f 110//21 113//23 114//23
f 115//24 116//24 111//22
f 112//22 111//22 116//24
f 117//25 114//23 113//23
f 114//23 117//25 118//25
f 119//26 120//26 115//24
f 116//24 115//24 120//26
f 121//27 118//25 117//25
f 118//25 121//27 122//27
f 123//28 124//28 119//26
f 120//26 119//26 124//28
f 125//29 122//27 121//27
f 122//27 125//29 126//29
f 127//30 128//30 123//28
f 124//28 123//28 128//30
f 125//29 129//4 126//29
f 129//4 125//29 130//31
f 129//4 130//31 131//4
f 131//4 130//31 132//4
f 132//4 130//31 133//4
f 133//4 130//31 134//4
f 126//29 135//4 136//31
f 135//4 126//29 129//4
f 135//4 129//4 137//4
f 135//4 137//4 138//4
f 136//31 135//4 134//4
f 136//31 134//4 130//31
f 132//4 138//4 137//4
f 138//4 132//4 133//4
f 139//3 140//3 141//3
f 142//3 141//3 140//3
f 143//32 144//3 145//32
f 144//3 146//3 145//32
f 141//3 142//3 146//3
f 142//3 147//3 146//3
f 147//3 127//30 146//3
f 145//32 146//3 127//30
f 144//3 143//32 139//3
f 139//3 143//32 140//3
f 140//3 143//32 148//3
f 148//3 143//32 147//3
f 143//32 128//30 147//3
f 127//30 147//3 128//30
f 149//33 136//31 130//31
f 136//31 149//33 150//33
f 151//34 152//34 145//32
f 143//32 145//32 152//34
f 153//35 150//33 149//33
f 150//33 153//35 154//35
f 155//36 156//36 151//34
f 152//34 151//34 156//36
f 157//37 154//35 153//35
f 154//35 157//37 158//37
f 159//38 160//38 155//36
f 156//36 155//36 160//38
f 161//39 158//37 157//37
f 158//37 161//39 162//39
f 163//40 164//40 159//38
f 160//38 159//38 164//40
f 165//41 162//39 161//39
f 162//39 165//41 166//41
f 167//42 168//42 163//40
f 164//40 163//40 168//42
f 169//43 166//41 165//41
f 166//41 169//43 170//43
f 171//44 172//44 167//42
f 168//42 167//42 172//44
f 169//43 173//45 170//43
f 173//45 169//43 174//45
f 175//46 172//44 176//46
f 171//44 176//46 172//44
f 174//45 177//47 173//45
f 177//47 174//45 178//47
f 179//48 175//46 180//48
f 176//46 180//48 175//46
f 178//47 181//49 177//47
f 181//49 178//47 182//49
f 183//50 179//48 184//50
f 180//48 184//50 179//48
f 182//49 185//51 181//49
f 185//51 182//49 186//51
f 187//52 183//50 188//52
f 184//50 188//52 183//50
f 186//51 189//53 185//51
f 189//53 186//51 190//53
f 191//54 187//52 192//54
f 188//52 192//54 187//52
f 190//53 193//55 189//53
f 193//55 190//53 194//55
f 195//56 191//54 196//56
f 192//54 196//56 191//54
f 197//2 198//2 199//2
f 198//2 197//2 200//2
f 200//2 197//2 201//2
f 200//2 201//2 202//2
f 202//2 201//2 203//2
f 202//2 203//2 204//2
f 204//2 203//2 205//2
f 204//2 205//2 206//2
f 206//2 205//2 207//2
f 206//2 207//2 208//2
f 208//2 207//2 209//2
f 208//2 209//2 210//2
f 210//2 209//2 211//2
f 210//2 211//2 212//2
f 212//2 211//2 213//2
f 212//2 213//2 214//2
f 214//2 213//2 215//2
f 214//2 215//2 216//2
f 216//2 215//2 217//2
f 216//2 217//2 218//2
f 218//2 217//2 219//2
f 218//2 219//2 220//2
f 220//2 219//2 221//2
f 220//2 221//2 222//2
f 223//1 224//1 225//1
f 224//1 226//1 225//1
f 225//1 226//1 227//1
f 226//1 228//1 227//1
f 227//1 228//1 229//1
f 228//1 230//1 229//1
f 229//1 230//1 231//1
f 230//1 232//1 231//1
f 231//1 232//1 233//1
f 232//1 234//1 233//1
f 233//1 234//1 235//1
f 234//1 236//1 235//1
f 235//1 236//1 237//1
f 236//1 238//1 237//1
f 237//1 238//1 239//1
f 238//1 240//1 239//1
f 239//1 240//1 241//1
f 240//1 242//1 241//1
f 241//1 242//1 243//1
f 242//1 244//1 243//1
f 243//1 244//1 245//1
f 244//1 246//1 245//1
f 245//1 246//1 247//1
f 248//1 247//1 246//1
