# SSTK version 0.8.0
# 11
mtllib original-11.mtl
o #ID73
v 0.532901 0.410278 -0.067766
v 0.532901 -0.398040 0.039218
v 0.532901 0.410278 0.039218
v 0.532901 -0.398040 -0.067766
v 0.532901 -0.398040 -0.067766
v 0.532901 0.410278 -0.067766
v 0.532901 -0.398040 0.039218
v 0.532901 0.410278 0.039218
v 0.532901 0.410278 -0.067766
v 0.009871 0.410278 0.039218
v 0.009871 0.410278 -0.067766
v 0.532901 0.410278 0.039218
v 0.532901 0.410278 0.039218
v 0.532901 0.410278 -0.067766
v 0.009871 0.410278 0.039218
v 0.009871 0.410278 -0.067766
v 0.532901 -0.398040 0.039218
v 0.009871 -0.398040 -0.067766
v 0.009871 -0.398040 0.039218
v 0.532901 -0.398040 -0.067766
v 0.532901 -0.398040 -0.067766
v 0.532901 -0.398040 0.039218
v 0.009871 -0.398040 -0.067766
v 0.009871 -0.398040 0.039218
v 0.009871 -0.398040 -0.067766
v 0.009871 0.410278 0.039218
v 0.009871 -0.398040 0.039218
v 0.009871 0.410278 -0.067766
v 0.009871 0.410278 -0.067766
v 0.009871 -0.398040 -0.067766
v 0.009871 0.410278 0.039218
v 0.009871 -0.398040 0.039218
vn -1 0 0
vn 1 0 0
vn 0 -1 0
vn 0 1 0
usemtl material_0_0
f 1//1 2//1 3//1
f 2//1 1//1 4//1
f 5//2 6//2 7//2
f 8//2 7//2 6//2
f 9//3 10//3 11//3
f 10//3 9//3 12//3
f 13//4 14//4 15//4
f 16//4 15//4 14//4
f 17//4 18//4 19//4
f 18//4 17//4 20//4
f 21//3 22//3 23//3
f 24//3 23//3 22//3
f 25//2 26//2 27//2
f 26//2 25//2 28//2
f 29//1 30//1 31//1
f 32//1 31//1 30//1
