# SSTK version 0.8.0
# 13
mtllib original-13.mtl
o Group2/mesh25/mesh25-geometry#mesh25-geometry
v 0.525771 -0.435929 0.122904
v 0.325686 -0.335887 0.122904
v -0.354599 -0.335887 0.122904
v 0.525771 0.444440 0.122904
v -0.354599 -0.335887 0.102896
v -0.554683 -0.435929 0.122904
v 0.525771 -0.435929 0.102896
v 0.325686 0.344398 0.122904
v 0.325686 -0.335887 0.102896
v -0.354599 0.344398 0.122904
v 0.524915 -0.448987 0.122904
v -0.554683 0.444440 0.122904
v 0.525771 0.444440 0.102896
v 0.524915 -0.448987 0.102896
v -0.354599 0.344398 0.102896
v -0.553827 -0.448987 0.122904
v -0.554683 -0.435929 0.102896
v 0.524915 0.457498 0.122904
v 0.325686 0.344398 0.102896
v -0.554683 0.444440 0.102896
v 0.522362 -0.461822 0.122904
v -0.553827 -0.448987 0.102896
v 0.522362 -0.461822 0.102896
v 0.524915 0.457498 0.102896
v -0.553827 0.457498 0.122904
v -0.551274 -0.461822 0.122904
v -0.551274 -0.461822 0.102896
v -0.553827 0.457498 0.102896
v 0.522362 0.470333 0.122904
v -0.551274 0.470333 0.122904
v 0.518155 -0.474214 0.122904
v 0.518155 -0.474214 0.102896
v -0.551274 0.470333 0.102896
v 0.522362 0.470333 0.102896
v -0.547068 -0.474214 0.122904
v -0.547068 -0.474214 0.102896
v 0.518155 0.482725 0.122904
v -0.547068 0.482725 0.122904
v 0.512367 -0.485950 0.122904
v 0.512367 -0.485950 0.102896
v -0.547068 0.482725 0.102896
v 0.518155 0.482725 0.102896
v -0.541280 -0.485950 0.122904
v -0.541280 -0.485950 0.102896
v 0.512367 0.494461 0.122904
v -0.541280 0.494461 0.122904
v 0.505097 -0.496831 0.122904
v 0.505097 -0.496831 0.102896
v -0.541280 0.494461 0.102896
v 0.512367 0.494461 0.102896
v -0.534010 -0.496831 0.122904
v -0.534010 -0.496831 0.102896
v 0.505097 0.505342 0.122904
v -0.534010 0.505342 0.122904
v 0.496469 -0.506670 0.122904
v 0.496469 -0.506670 0.102896
v -0.534010 0.505342 0.102896
v 0.505097 0.505342 0.102896
v -0.525382 -0.506670 0.122904
v -0.525382 -0.506670 0.102896
v 0.496469 0.515181 0.122904
v -0.525382 0.515181 0.122904
v 0.486630 -0.515298 0.122904
v -0.525382 0.515181 0.102896
v 0.496469 0.515181 0.102896
v -0.515543 -0.515298 0.122904
v -0.515543 -0.515298 0.102896
v 0.486630 -0.515298 0.102896
v 0.486630 0.523809 0.102896
v -0.515543 0.523809 0.122904
v 0.475749 -0.522568 0.122904
v -0.515543 0.523809 0.102896
v 0.486630 0.523809 0.122904
v -0.504662 -0.522568 0.122904
v -0.504662 -0.522568 0.102896
v 0.475749 -0.522568 0.102896
v 0.475749 0.531079 0.102896
v -0.504662 0.531079 0.102896
v -0.504662 0.531079 0.122904
v 0.464013 -0.528356 0.122904
v 0.475749 0.531079 0.122904
v -0.492926 -0.528356 0.122904
v -0.492926 -0.528356 0.102896
v 0.464013 -0.528356 0.102896
v 0.464013 0.536867 0.102896
v -0.492926 0.536867 0.102896
v -0.492926 0.536867 0.122904
v 0.451621 -0.532563 0.122904
v 0.464013 0.536867 0.122904
v -0.480534 -0.532563 0.122904
v -0.480534 -0.532563 0.102896
v 0.451621 -0.532563 0.102896
v 0.451621 0.541074 0.102896
v -0.480534 0.541074 0.102896
v -0.480534 0.541074 0.122904
v 0.438787 -0.535116 0.122904
v 0.451621 0.541074 0.122904
v -0.467699 -0.535116 0.122904
v -0.467699 -0.535116 0.102896
v 0.438787 -0.535116 0.102896
v 0.438787 0.543627 0.102896
v -0.467699 0.543627 0.102896
v -0.467699 0.543627 0.122904
v 0.425728 -0.535971 0.122904
v 0.438787 0.543627 0.122904
v -0.454641 -0.535971 0.122904
v -0.454641 -0.535971 0.102896
v 0.425728 -0.535971 0.102896
v 0.425728 0.544482 0.102896
v -0.454641 0.544482 0.102896
v -0.454641 0.544482 0.122904
v 0.425728 0.544482 0.122904
vn 0 0 1
vn 0 1 0
vn 1 0 0
vn 0.9978589320009053 -0.06540299554311302 0
vn -1 0 0
vn 0 0 -1
vn 0.9978589320009053 0.06540299554311302 0
vn 0 -1 0
vn -0.9978589320009053 -0.06540299554311302 0
vn 0.9807853313461203 -0.19509006590875128 0
vn -0.9807853313461203 -0.19509006590875128 0
vn -0.9978589320009053 0.06540299554311302 0
vn 0.9807853313461203 0.19509006590875128 0
vn 0.9469302577445085 -0.3214390874923564 0
vn -0.9807853313461203 0.19509006590875128 0
vn -0.9469302577445085 -0.3214390874923564 0
vn 0.9469302577445085 0.3214390874923564 0
vn 0.8968726692109988 -0.4422888368728498 0
vn -0.9469302577445085 0.3214390874923564 0
vn -0.8968726692109988 -0.4422888368728498 0
vn 0.8968726692109988 0.4422888368728498 0
vn 0.8314698396094833 -0.5555698928305779 0
vn -0.8968726692109988 0.4422888368728498 0
vn -0.8314698396094833 -0.5555698928305779 0
vn 0.8314698396094833 0.5555698928305779 0
vn 0.7518397995159294 -0.6593458241801846 0
vn -0.8314698396094833 0.5555698928305779 0
vn -0.7518397995159294 -0.6593458241801846 0
vn 0.7518397995159294 0.6593458241801846 0
vn 0.6593458241801846 -0.7518397995159294 0
vn -0.7518397995159294 0.6593458241801846 0
vn -0.6593458241801846 -0.7518397995159294 0
vn 0.6593458241801846 0.7518397995159294 0
vn 0.5555698928305779 -0.8314698396094833 0
vn -0.6593458241801846 0.7518397995159294 0
vn -0.5555698928305779 -0.8314698396094833 0
vn 0.5555698928305779 0.8314698396094833 0
vn 0.4422888368728498 -0.8968726692109988 0
vn -0.5555698928305779 0.8314698396094833 0
vn -0.4422888368728498 -0.8968726692109988 0
vn 0.4422888368728498 0.8968726692109988 0
vn -0.4422888368728498 0.8968726692109988 0
vn 0.3214390874923564 -0.9469302577445085 0
vn -0.3214390874923564 -0.9469302577445085 0
vn 0.3214390874923564 0.9469302577445085 0
vn -0.3214390874923564 0.9469302577445085 0
vn 0.19509006590875128 -0.9807853313461203 0
vn -0.19509006590875128 -0.9807853313461203 0
vn 0.19509006590875128 0.9807853313461203 0
vn -0.19509006590875128 0.9807853313461203 0
vn 0.06540299554311302 -0.9978589320009053 0
vn -0.06540299554311302 -0.9978589320009053 0
vn 0.06540299554311302 0.9978589320009053 0
vn -0.06540299554311302 0.9978589320009053 0
usemtl material_0_0
f 1//1 2//1 3//1
f 2//1 1//1 4//1
f 2//2 5//2 3//2
f 6//1 1//1 3//1
f 7//3 4//3 1//3
f 2//1 4//1 8//1
f 5//2 2//2 9//2
f 5//3 10//3 3//3
f 6//1 11//1 1//1
f 6//1 3//1 12//1
f 4//3 7//3 13//3
f 1//4 14//4 7//4
f 8//1 4//1 10//1
f 8//5 9//5 2//5
f 9//6 7//6 5//6
f 10//3 5//3 15//3
f 12//1 3//1 10//1
f 16//1 11//1 6//1
f 14//4 1//4 11//4
f 12//5 17//5 6//5
f 7//6 9//6 13//6
f 13//7 18//7 4//7
f 14//6 17//6 7//6
f 10//1 4//1 12//1
f 10//8 19//8 8//8
f 9//5 8//5 19//5
f 7//6 17//6 5//6
f 5//6 20//6 15//6
f 19//8 10//8 15//8
f 16//1 21//1 11//1
f 6//9 22//9 16//9
f 11//10 23//10 14//10
f 17//5 12//5 20//5
f 22//9 6//9 17//9
f 13//6 9//6 19//6
f 18//7 13//7 24//7
f 25//1 4//1 18//1
f 14//6 22//6 17//6
f 12//1 4//1 25//1
f 5//6 17//6 20//6
f 15//6 20//6 19//6
f 26//1 21//1 16//1
f 23//10 11//10 21//10
f 27//11 16//11 22//11
f 23//6 22//6 14//6
f 25//12 20//12 12//12
f 13//6 19//6 20//6
f 13//6 28//6 24//6
f 24//13 29//13 18//13
f 25//1 18//1 30//1
f 26//1 31//1 21//1
f 16//11 27//11 26//11
f 21//14 32//14 23//14
f 23//6 27//6 22//6
f 20//12 25//12 28//12
f 13//6 20//6 28//6
f 24//6 28//6 33//6
f 29//13 24//13 34//13
f 30//1 18//1 29//1
f 30//15 28//15 25//15
f 35//1 31//1 26//1
f 32//14 21//14 31//14
f 36//16 26//16 27//16
f 32//6 27//6 23//6
f 28//15 30//15 33//15
f 24//6 33//6 34//6
f 34//17 37//17 29//17
f 30//1 29//1 38//1
f 35//1 39//1 31//1
f 26//16 36//16 35//16
f 31//18 40//18 32//18
f 32//6 36//6 27//6
f 38//19 33//19 30//19
f 34//6 33//6 41//6
f 37//17 34//17 42//17
f 38//1 29//1 37//1
f 43//1 39//1 35//1
f 40//18 31//18 39//18
f 44//20 35//20 36//20
f 40//6 36//6 32//6
f 33//19 38//19 41//19
f 34//6 41//6 42//6
f 42//21 45//21 37//21
f 38//1 37//1 46//1
f 43//1 47//1 39//1
f 35//20 44//20 43//20
f 39//22 48//22 40//22
f 40//6 44//6 36//6
f 46//23 41//23 38//23
f 42//6 41//6 49//6
f 45//21 42//21 50//21
f 46//1 37//1 45//1
f 51//1 47//1 43//1
f 48//22 39//22 47//22
f 52//24 43//24 44//24
f 48//6 44//6 40//6
f 41//23 46//23 49//23
f 42//6 49//6 50//6
f 50//25 53//25 45//25
f 46//1 45//1 54//1
f 51//1 55//1 47//1
f 43//24 52//24 51//24
f 47//26 56//26 48//26
f 48//6 52//6 44//6
f 54//27 49//27 46//27
f 50//6 49//6 57//6
f 53//25 50//25 58//25
f 54//1 45//1 53//1
f 59//1 55//1 51//1
f 56//26 47//26 55//26
f 60//28 51//28 52//28
f 56//6 52//6 48//6
f 49//27 54//27 57//27
f 50//6 57//6 58//6
f 58//29 61//29 53//29
f 54//1 53//1 62//1
f 59//1 63//1 55//1
f 51//28 60//28 59//28
f 63//30 56//30 55//30
f 56//6 60//6 52//6
f 62//31 57//31 54//31
f 58//6 57//6 64//6
f 61//29 58//29 65//29
f 62//1 53//1 61//1
f 66//1 63//1 59//1
f 67//32 59//32 60//32
f 56//30 63//30 68//30
f 68//6 60//6 56//6
f 57//31 62//31 64//31
f 58//6 64//6 65//6
f 69//33 61//33 65//33
f 62//1 61//1 70//1
f 66//1 71//1 63//1
f 59//32 67//32 66//32
f 68//6 67//6 60//6
f 71//34 68//34 63//34
f 70//35 64//35 62//35
f 65//6 64//6 72//6
f 61//33 69//33 73//33
f 65//6 72//6 69//6
f 70//1 61//1 73//1
f 74//1 71//1 66//1
f 75//36 66//36 67//36
f 76//6 67//6 68//6
f 68//34 71//34 76//34
f 64//35 70//35 72//35
f 77//37 73//37 69//37
f 69//6 72//6 78//6
f 70//1 73//1 79//1
f 74//1 80//1 71//1
f 66//36 75//36 74//36
f 76//6 75//6 67//6
f 80//38 76//38 71//38
f 79//39 72//39 70//39
f 73//37 77//37 81//37
f 69//6 78//6 77//6
f 72//39 79//39 78//39
f 79//1 73//1 81//1
f 82//1 80//1 74//1
f 83//40 74//40 75//40
f 84//6 75//6 76//6
f 76//38 80//38 84//38
f 85//41 81//41 77//41
f 77//6 78//6 86//6
f 87//42 78//42 79//42
f 79//1 81//1 87//1
f 82//1 88//1 80//1
f 74//40 83//40 82//40
f 84//6 83//6 75//6
f 88//43 84//43 80//43
f 81//41 85//41 89//41
f 77//6 86//6 85//6
f 78//42 87//42 86//42
f 87//1 81//1 89//1
f 90//1 88//1 82//1
f 91//44 82//44 83//44
f 92//6 83//6 84//6
f 84//43 88//43 92//43
f 93//45 89//45 85//45
f 85//6 86//6 94//6
f 95//46 86//46 87//46
f 87//1 89//1 95//1
f 90//1 96//1 88//1
f 82//44 91//44 90//44
f 92//6 91//6 83//6
f 96//47 92//47 88//47
f 89//45 93//45 97//45
f 85//6 94//6 93//6
f 86//46 95//46 94//46
f 95//1 89//1 97//1
f 98//1 96//1 90//1
f 99//48 90//48 91//48
f 100//6 91//6 92//6
f 92//47 96//47 100//47
f 101//49 97//49 93//49
f 93//6 94//6 102//6
f 103//50 94//50 95//50
f 95//1 97//1 103//1
f 98//1 104//1 96//1
f 90//48 99//48 98//48
f 100//6 99//6 91//6
f 104//51 100//51 96//51
f 97//49 101//49 105//49
f 93//6 102//6 101//6
f 94//50 103//50 102//50
f 103//1 97//1 105//1
f 104//1 98//1 106//1
f 107//52 98//52 99//52
f 108//6 99//6 100//6
f 100//51 104//51 108//51
f 109//53 105//53 101//53
f 101//6 102//6 110//6
f 111//54 102//54 103//54
f 103//1 105//1 111//1
f 98//52 107//52 106//52
f 106//8 108//8 104//8
f 99//6 108//6 107//6
f 105//53 109//53 112//53
f 101//6 110//6 109//6
f 102//54 111//54 110//54
f 111//1 105//1 112//1
f 108//8 106//8 107//8
f 110//2 112//2 109//2
f 112//2 110//2 111//2
usemtl material_1_0
f 3//6 2//6 1//6
f 4//6 1//6 2//6
f 3//8 5//8 2//8
f 3//6 1//6 6//6
f 1//5 4//5 7//5
f 8//6 4//6 2//6
f 9//8 2//8 5//8
f 3//5 10//5 5//5
f 1//6 11//6 6//6
f 12//6 3//6 6//6
f 13//5 7//5 4//5
f 7//12 14//12 1//12
f 10//6 4//6 8//6
f 2//3 9//3 8//3
f 5//1 7//1 9//1
f 15//5 5//5 10//5
f 10//6 3//6 12//6
f 6//6 11//6 16//6
f 11//12 1//12 14//12
f 6//3 17//3 12//3
f 13//1 9//1 7//1
f 4//9 18//9 13//9
f 7//1 17//1 14//1
f 12//6 4//6 10//6
f 8//2 19//2 10//2
f 19//3 8//3 9//3
f 5//1 17//1 7//1
f 15//1 20//1 5//1
f 15//2 10//2 19//2
f 11//6 21//6 16//6
f 16//7 22//7 6//7
f 14//15 23//15 11//15
f 20//3 12//3 17//3
f 17//7 6//7 22//7
f 19//1 9//1 13//1
f 24//9 13//9 18//9
f 18//6 4//6 25//6
f 17//1 22//1 14//1
f 25//6 4//6 12//6
f 20//1 17//1 5//1
f 19//1 20//1 15//1
f 16//6 21//6 26//6
f 21//15 11//15 23//15
f 22//13 16//13 27//13
f 14//1 22//1 23//1
f 12//4 20//4 25//4
f 20//1 19//1 13//1
f 24//1 28//1 13//1
f 18//11 29//11 24//11
f 30//6 18//6 25//6
f 21//6 31//6 26//6
f 26//13 27//13 16//13
f 23//19 32//19 21//19
f 22//1 27//1 23//1
f 28//4 25//4 20//4
f 28//1 20//1 13//1
f 33//1 28//1 24//1
f 34//11 24//11 29//11
f 29//6 18//6 30//6
f 25//10 28//10 30//10
f 26//6 31//6 35//6
f 31//19 21//19 32//19
f 27//17 26//17 36//17
f 23//1 27//1 32//1
f 33//10 30//10 28//10
f 34//1 33//1 24//1
f 29//16 37//16 34//16
f 38//6 29//6 30//6
f 31//6 39//6 35//6
f 35//17 36//17 26//17
f 32//23 40//23 31//23
f 27//1 36//1 32//1
f 30//14 33//14 38//14
f 41//1 33//1 34//1
f 42//16 34//16 37//16
f 37//6 29//6 38//6
f 35//6 39//6 43//6
f 39//23 31//23 40//23
f 36//21 35//21 44//21
f 32//1 36//1 40//1
f 41//14 38//14 33//14
f 42//1 41//1 34//1
f 37//20 45//20 42//20
f 46//6 37//6 38//6
f 39//6 47//6 43//6
f 43//21 44//21 35//21
f 40//27 48//27 39//27
f 36//1 44//1 40//1
f 38//18 41//18 46//18
f 49//1 41//1 42//1
f 50//20 42//20 45//20
f 45//6 37//6 46//6
f 43//6 47//6 51//6
f 47//27 39//27 48//27
f 44//25 43//25 52//25
f 40//1 44//1 48//1
f 49//18 46//18 41//18
f 50//1 49//1 42//1
f 45//24 53//24 50//24
f 54//6 45//6 46//6
f 47//6 55//6 51//6
f 51//25 52//25 43//25
f 48//31 56//31 47//31
f 44//1 52//1 48//1
f 46//22 49//22 54//22
f 57//1 49//1 50//1
f 58//24 50//24 53//24
f 53//6 45//6 54//6
f 51//6 55//6 59//6
f 55//31 47//31 56//31
f 52//29 51//29 60//29
f 48//1 52//1 56//1
f 57//22 54//22 49//22
f 58//1 57//1 50//1
f 53//28 61//28 58//28
f 62//6 53//6 54//6
f 55//6 63//6 59//6
f 59//29 60//29 51//29
f 55//35 56//35 63//35
f 52//1 60//1 56//1
f 54//26 57//26 62//26
f 64//1 57//1 58//1
f 65//28 58//28 61//28
f 61//6 53//6 62//6
f 59//6 63//6 66//6
f 60//33 59//33 67//33
f 68//35 63//35 56//35
f 56//1 60//1 68//1
f 64//26 62//26 57//26
f 65//1 64//1 58//1
f 65//32 61//32 69//32
f 70//6 61//6 62//6
f 63//6 71//6 66//6
f 66//33 67//33 59//33
f 60//1 67//1 68//1
f 63//39 68//39 71//39
f 62//30 64//30 70//30
f 72//1 64//1 65//1
f 73//32 69//32 61//32
f 69//1 72//1 65//1
f 73//6 61//6 70//6
f 66//6 71//6 74//6
f 67//37 66//37 75//37
f 68//1 67//1 76//1
f 76//39 71//39 68//39
f 72//30 70//30 64//30
f 69//36 73//36 77//36
f 78//1 72//1 69//1
f 79//6 73//6 70//6
f 71//6 80//6 74//6
f 74//37 75//37 66//37
f 67//1 75//1 76//1
f 71//42 76//42 80//42
f 70//34 72//34 79//34
f 81//36 77//36 73//36
f 77//1 78//1 69//1
f 78//34 79//34 72//34
f 81//6 73//6 79//6
f 74//6 80//6 82//6
f 75//41 74//41 83//41
f 76//1 75//1 84//1
f 84//42 80//42 76//42
f 77//40 81//40 85//40
f 86//1 78//1 77//1
f 79//38 78//38 87//38
f 87//6 81//6 79//6
f 80//6 88//6 82//6
f 82//41 83//41 74//41
f 75//1 83//1 84//1
f 80//46 84//46 88//46
f 89//40 85//40 81//40
f 85//1 86//1 77//1
f 86//38 87//38 78//38
f 89//6 81//6 87//6
f 82//6 88//6 90//6
f 83//45 82//45 91//45
f 84//1 83//1 92//1
f 92//46 88//46 84//46
f 85//44 89//44 93//44
f 94//1 86//1 85//1
f 87//43 86//43 95//43
f 95//6 89//6 87//6
f 88//6 96//6 90//6
f 90//45 91//45 82//45
f 83//1 91//1 92//1
f 88//50 92//50 96//50
f 97//44 93//44 89//44
f 93//1 94//1 85//1
f 94//43 95//43 86//43
f 97//6 89//6 95//6
f 90//6 96//6 98//6
f 91//49 90//49 99//49
f 92//1 91//1 100//1
f 100//50 96//50 92//50
f 93//48 97//48 101//48
f 102//1 94//1 93//1
f 95//47 94//47 103//47
f 103//6 97//6 95//6
f 96//6 104//6 98//6
f 98//49 99//49 90//49
f 91//1 99//1 100//1
f 96//54 100//54 104//54
f 105//48 101//48 97//48
f 101//1 102//1 93//1
f 102//47 103//47 94//47
f 105//6 97//6 103//6
f 106//6 98//6 104//6
f 99//53 98//53 107//53
f 100//1 99//1 108//1
f 108//54 104//54 100//54
f 101//52 105//52 109//52
f 110//1 102//1 101//1
f 103//51 102//51 111//51
f 111//6 105//6 103//6
f 106//53 107//53 98//53
f 104//2 108//2 106//2
f 107//1 108//1 99//1
f 112//52 109//52 105//52
f 109//1 110//1 101//1
f 110//51 111//51 102//51
f 112//6 105//6 111//6
f 107//2 106//2 108//2
f 109//8 112//8 110//8
f 111//8 110//8 112//8
