# SSTK version 0.8.0
# 8
mtllib original-8.mtl
o mesh6/mesh6-geometry#mesh6-geometry
v -0.036891 -0.705182 0.093752
v -0.049141 -0.776877 0.022058
v -0.049141 -0.705182 0.093752
v -0.036891 -0.776877 0.022058
v -0.049141 -0.712398 0.100968
v -0.036891 -0.747157 0.051777
v -0.036891 -0.784092 0.029273
v -0.049141 -0.784092 0.029273
v -0.036891 -0.712398 0.100968
v -0.036891 -0.754373 0.058993
v -0.036891 -0.755359 0.043576
v -0.008089 -0.732625 0.080741
v -0.008089 -0.725410 0.073525
v -0.036891 -0.762575 0.050791
v -0.032069 -0.759257 0.054109
v -0.032069 -0.752042 0.046893
v 0.007159 -0.725410 0.073525
v -0.022751 -0.754143 0.059223
v -0.022751 -0.746927 0.052007
v 0.007159 -0.732625 0.080741
v -0.004896 -0.784092 0.029273
v -0.004896 -0.776877 0.022058
v 0.011199 -0.784092 0.029273
v 0.011199 -0.776877 0.022058
vn 0.5773502169377684 0.8164966178753662 0
vn -0.5773502169377684 0 -0.8164966178753662
vn -0.5773502169377684 0.8164966178753662 0
vn 0.5773502169377684 0 -0.8164966178753662
vn 0.5773502169377684 -0.8164966178753662 0
vn 0.5773502169377684 0 0.8164966178753662
vn -0.5773502169377684 -0.8164966178753662 0
vn -0.5773502169377684 0 0.8164966178753662
vn 0.2176229484185662 0.9592319708404234 -0.18031716068973302
vn -0.2176229484185662 -0.9592319708404234 0.18031716068973302
vn 0.21762294841856625 -0.1803171606897334 0.9592319708404234
vn -0.21762294841856625 0.1803171606897334 -0.9592319708404234
vn 0.8096691573659959 0.0955492495634121 -0.5790562982285119
vn -0.8096691573659959 -0.0955492495634121 0.5790562982285119
vn -0.34928681047729976 0.23128534164074793 0.9080230254617541
vn 0.34928681047729976 -0.23128534164074793 -0.9080230254617541
vn -0.34928681047729976 0.9080230254617541 0.23128534164074838
vn 0.34928681047729976 -0.9080230254617541 -0.23128534164074838
vn 0.8096691573659959 -0.579056298228512 0.09554924956341185
vn -0.8096691573659959 0.579056298228512 -0.09554924956341185
vn -0.05618300651898511 -0.9886239173676526 -0.1395213954457319
vn 0.05618300651898511 0.9886239173676526 0.1395213954457319
vn -0.05618300651898512 -0.13952139544573156 -0.9886239173676529
vn 0.05618300651898512 0.13952139544573156 0.9886239173676529
vn 0.5641680479736709 0.7266202603496784 -0.3920936251648876
vn -0.5641680479736709 -0.7266202603496784 0.3920936251648876
vn 0.8301978203276997 -0.42276426112601645 0.36337578157839573
vn -0.8301978203276997 0.42276426112601645 -0.36337578157839573
vn 0.8301978203276996 0.3633757815783958 -0.4227642611260162
vn -0.8301978203276996 -0.3633757815783958 0.4227642611260162
vn 0.5641680479736709 -0.3920936251648879 0.7266202603496781
vn -0.5641680479736709 0.3920936251648879 -0.7266202603496781
vn -0.38484473719904966 -0.8986494957248091 -0.2105317365238325
vn 0.38484473719904966 0.8986494957248091 0.2105317365238325
vn -0.38484473719904966 -0.21053173652383206 -0.8986494957248093
vn 0.38484473719904966 0.21053173652383206 0.8986494957248093
vn 0.5899821845184203 -0.7349197418274489 0.33438599705003835
vn -0.5899821845184203 0.7349197418274489 -0.33438599705003835
vn 0.5899821845184204 0.33438599705003874 -0.7349197418274488
vn -0.5899821845184204 -0.33438599705003874 0.7349197418274488
usemtl material_0_0
f 1//1 2//2 3//3
f 2//2 1//1 4//4
f 3//5 2//6 1//7
f 4//8 1//7 2//6
f 2//2 5//8 3//3
f 3//5 5//4 2//6
f 5//8 1//1 3//3
f 3//5 1//7 5//4
f 4//4 1//1 6//9
f 6//10 1//7 4//8
f 7//5 2//2 4//4
f 4//8 2//6 7//3
f 5//8 2//2 8//7
f 8//1 2//6 5//4
f 1//1 5//8 9//6
f 9//2 5//4 1//7
f 1//1 10//11 6//9
f 6//10 10//12 1//7
f 4//4 6//9 11//13
f 11//14 6//10 4//8
f 2//2 7//5 8//7
f 8//1 7//3 2//6
f 11//13 7//5 4//4
f 4//8 7//3 11//14
f 7//5 5//8 8//7
f 8//1 5//4 7//3
f 5//8 7//5 9//6
f 9//2 7//3 5//4
f 10//11 1//1 9//6
f 9//2 1//7 10//12
f 12//15 6//9 10//11
f 10//12 6//10 12//16
f 13//17 11//13 6//9
f 6//10 11//14 13//18
f 7//5 11//13 14//19
f 14//20 11//14 7//3
f 9//6 7//5 14//19
f 14//20 7//3 9//2
f 9//6 14//19 10//11
f 10//12 14//20 9//2
f 6//9 12//15 13//17
f 13//18 12//16 6//10
f 10//11 15//21 12//15
f 12//16 15//22 10//12
f 11//13 13//17 16//23
f 16//24 13//18 11//14
f 11//13 15//21 14//19
f 14//20 15//22 11//14
f 15//21 10//11 14//19
f 14//20 10//12 15//22
f 12//15 17//25 13//17
f 13//18 17//26 12//16
f 12//15 15//21 18//27
f 18//28 15//22 12//16
f 16//23 13//17 19//29
f 19//30 13//18 16//24
f 15//21 11//13 16//23
f 16//24 11//14 15//22
f 17//25 12//15 20//31
f 20//32 12//16 17//26
f 19//29 13//17 17//25
f 17//26 13//18 19//30
f 21//33 18//27 15//21
f 15//22 18//28 21//34
f 12//15 18//27 20//31
f 20//32 18//28 12//16
f 19//29 22//35 16//23
f 16//24 22//36 19//30
f 22//35 15//21 16//23
f 16//24 15//22 22//36
f 18//27 17//25 20//31
f 20//32 17//26 18//28
f 17//25 18//27 19//29
f 19//30 18//28 17//26
f 18//27 21//33 23//37
f 23//38 21//34 18//28
f 15//21 22//35 21//33
f 21//34 22//36 15//22
f 22//35 19//29 24//39
f 24//40 19//30 22//36
f 23//37 19//29 18//27
f 18//28 19//30 23//38
f 22//35 23//37 21//33
f 21//34 23//38 22//36
f 19//29 23//37 24//39
f 24//40 23//38 19//30
f 23//37 22//35 24//39
f 24//40 22//36 23//38
