# SSTK version 0.8.0
# 14
mtllib original-14.mtl
o Group3/mesh26/mesh26-geometry#mesh26-geometry
v 0.325686 0.356914 0.113329
v -0.354599 0.305129 -0.079937
v -0.354599 0.356914 0.113329
v 0.325686 0.305129 -0.079937
v -0.354599 -0.351977 0.096134
v -0.334591 0.260281 0.139222
v 0.325686 -0.351977 0.096134
v 0.285670 0.266476 -0.069580
v -0.354599 -0.300191 0.289400
v -0.314582 -0.313323 0.085777
v -0.334591 0.202301 0.154758
v 0.305678 0.260281 0.139222
v 0.325686 -0.300191 0.289400
v 0.285670 -0.313323 0.085777
v -0.314582 0.266476 -0.069580
v -0.079660 0.212623 0.151992
v 0.305678 0.202301 0.154758
v -0.074482 0.250618 0.141812
v 0.285670 0.307904 0.085033
v -0.314582 0.307904 0.085033
v -0.074482 0.211965 0.152169
v -0.084486 0.214554 0.151475
v 0.050747 0.212623 0.151992
v -0.079660 0.249959 0.141988
v 0.045569 0.250618 0.141812
v 0.285670 -0.271895 0.240390
v -0.314582 -0.271895 0.240390
v 0.045569 0.211965 0.152169
v -0.073494 0.228326 0.162078
v -0.088630 0.217625 0.150652
v 0.055573 0.214554 0.151475
v -0.084486 0.248029 0.142505
v -0.073494 0.241403 0.158573
v 0.050747 0.249959 0.141988
v -0.070836 0.241741 0.158483
v -0.070836 0.227988 0.162168
v -0.075185 0.229002 0.161896
v -0.091809 0.221628 0.149579
v 0.047525 0.227988 0.162168
v 0.059717 0.217625 0.150652
v 0.051874 0.229002 0.161896
v -0.088630 0.244957 0.143328
v 0.055573 0.248029 0.142505
v 0.047525 0.241741 0.158483
v 0.050184 0.228326 0.162078
v -0.076636 0.230078 0.161608
v -0.093808 0.226289 0.148330
v 0.062897 0.221628 0.149579
v -0.091809 0.240955 0.144401
v -0.075185 0.240727 0.158755
v 0.059717 0.244957 0.143328
v 0.051874 0.240727 0.158755
v 0.050184 0.241403 0.158573
v 0.053326 0.230078 0.161608
v -0.077750 0.231480 0.161232
v -0.094490 0.231291 0.146990
v 0.064895 0.226289 0.148330
v -0.093808 0.236293 0.145650
v -0.076636 0.239651 0.159043
v 0.062897 0.240955 0.144401
v 0.054439 0.231480 0.161232
v -0.078450 0.233112 0.160795
v 0.065577 0.231291 0.146990
v -0.077750 0.238249 0.159419
v 0.064895 0.236293 0.145650
v 0.054439 0.238249 0.159419
v 0.053326 0.239651 0.159043
v 0.055139 0.233112 0.160795
v -0.078689 0.234865 0.160325
v -0.078450 0.236617 0.159856
v 0.055139 0.236617 0.159856
v 0.055378 0.234865 0.160325
vn 0 0.9659258492011171 -0.2588189595935752
vn -1 0 0
vn 0 0.2588189595935752 0.9659258492011171
vn 1 0 0
vn 0 -0.2588189595935752 -0.9659258492011171
vn 0 -0.9659258492011171 0.2588189595935752
vn 0.18242497869367585 0.4796309439815073 -0.8582978997551025
vn 0.047133015158475004 0.5211031675922774 -0.8521912740737057
vn 0.3451602566217414 0.3926732919470075 -0.8524506337849213
vn 0.18242495592859873 -0.8445217959749597 -0.5034918783631743
vn 0.047133024998561826 -0.8773844653499281 -0.4774672532405815
vn -0.04839597737619256 -0.8839885867592999 -0.4649967826266101
vn -0.04839601770256477 0.5330581949849943 -0.8446933089766208
vn 0.4786429909562801 0.27316199483874093 -0.8344359842337493
vn -0.19465790966424887 0.5251187563058325 -0.8284676155293947
vn -0.3838491600307786 0.47353319742100347 -0.792733330498918
vn 0.3451601749360226 -0.7662903883756075 -0.5419072746524952
vn -0.19465796163399018 -0.8689998287249301 -0.45491491033878223
vn 0.5772797009966131 0.1297269328076284 -0.8061755824394498
vn -0.5533590011338326 0.3717860007617897 -0.7453650015272529
vn 0.4786429999085792 -0.6537829998751274 -0.5860619998880623
vn -0.3838490925679068 -0.8064581944830621 -0.4497611084630529
vn 0.6376477755786296 -0.02905998977228011 -0.7697797290745325
vn -0.6878890799131108 0.22551002619783966 -0.6898940801460347
vn 0.5772798093100785 -0.5154348297390179 -0.6333047908036297
vn -0.5533588617416456 -0.6946588264374298 -0.45961188516460616
vn 0.657954677186131 -0.19490590437285216 -0.7273976431151634
vn -0.774448656967724 0.045384979897295064 -0.6310067205035226
vn 0.6376478601402467 -0.35972292109946213 -0.6811788505922909
vn -0.6878891343523279 -0.5402441055156267 -0.48471109466941803
vn -0.8043241765266549 -0.1537880337521709 -0.5739441259646789
vn -0.7744489143885496 -0.35480796077775606 -0.5237749420993023
vn -0.047133015158475004 -0.5211031675922774 0.8521912740737057
vn -0.18242497869367585 -0.4796309439815073 0.8582978997551025
vn -0.3451602566217414 -0.3926732919470075 0.8524506337849213
vn -0.18242495592859873 0.8445217959749597 0.5034918783631743
vn -0.047133024998561826 0.8773844653499281 0.4774672532405815
vn 0.04839597737619256 0.8839885867592999 0.4649967826266101
vn 0.04839601770256477 -0.5330581949849943 0.8446933089766208
vn -0.4786429909562801 -0.27316199483874093 0.8344359842337493
vn 0.19465790966424887 -0.5251187563058325 0.8284676155293947
vn 0.3838491600307786 -0.47353319742100347 0.792733330498918
vn -0.3451601749360226 0.7662903883756075 0.5419072746524952
vn 0.19465796163399018 0.8689998287249301 0.45491491033878223
vn -0.5772797009966131 -0.1297269328076284 0.8061755824394498
vn 0.5533590011338326 -0.3717860007617897 0.7453650015272529
vn -0.4786429999085792 0.6537829998751274 0.5860619998880623
vn 0.3838490925679068 0.8064581944830621 0.4497611084630529
vn -0.6376477755786296 0.02905998977228011 0.7697797290745325
vn 0.6878890799131108 -0.22551002619783966 0.6898940801460347
vn -0.5772798093100785 0.5154348297390179 0.6333047908036297
vn 0.5533588617416456 0.6946588264374298 0.45961188516460616
vn -0.657954677186131 0.19490590437285216 0.7273976431151634
vn 0.774448656967724 -0.045384979897295064 0.6310067205035226
vn -0.6376478601402467 0.35972292109946213 0.6811788505922909
vn 0.6878891343523279 0.5402441055156267 0.48471109466941803
vn 0.8043241765266549 0.1537880337521709 0.5739441259646789
vn 0.7744489143885496 0.35480796077775606 0.5237749420993023
usemtl material_0_0
f 1//1 2//1 3//1
f 2//1 1//1 4//1
f 5//2 3//2 2//2
f 3//3 6//3 1//3
f 1//4 7//4 4//4
f 4//5 8//5 2//5
f 3//2 5//2 9//2
f 10//5 5//5 2//5
f 3//3 11//3 6//3
f 12//3 1//3 6//3
f 7//4 1//4 13//4
f 7//5 14//5 4//5
f 4//5 14//5 8//5
f 15//5 2//5 8//5
f 5//6 13//6 9//6
f 9//3 11//3 3//3
f 5//5 10//5 7//5
f 10//5 2//5 15//5
f 17//3 1//3 12//3
f 1//3 17//3 13//3
f 13//6 5//6 7//6
f 14//5 7//5 10//5
f 11//3 9//3 13//3
f 11//3 13//3 17//3
usemtl material_1_0
f 3//6 2//6 1//6
f 4//6 1//6 2//6
f 2//4 3//4 5//4
f 1//5 6//5 3//5
f 4//2 7//2 1//2
f 2//3 8//3 4//3
f 9//4 5//4 3//4
f 2//3 5//3 10//3
f 6//5 11//5 3//5
f 6//5 1//5 12//5
f 13//2 1//2 7//2
f 4//3 14//3 7//3
f 8//3 14//3 4//3
f 8//3 2//3 15//3
f 9//1 13//1 5//1
f 3//5 11//5 9//5
f 7//3 10//3 5//3
f 15//3 2//3 10//3
f 6//5 16//5 11//5
f 12//5 1//5 17//5
f 12//5 18//5 6//5
f 13//5 17//5 1//5
f 7//1 5//1 13//1
f 10//3 7//3 14//3
f 13//5 9//5 11//5
f 21//5 11//5 16//5
f 22//5 16//5 6//5
f 12//5 17//5 23//5
f 18//5 24//5 6//5
f 18//5 12//5 25//5
f 17//5 13//5 11//5
f 28//5 11//5 21//5
f 16//7 29//7 21//8
f 16//7 22//9 29//7
f 30//5 22//5 6//5
f 23//5 17//5 28//5
f 31//5 12//5 23//5
f 24//5 32//5 6//5
f 24//10 18//11 33//10
f 25//5 12//5 34//5
f 18//11 25//12 35//11
f 11//5 28//5 17//5
f 21//8 36//8 28//13
f 36//8 21//8 29//7
f 37//9 29//7 22//9
f 22//9 30//14 37//9
f 38//5 30//5 6//5
f 28//13 39//13 23//15
f 40//5 12//5 31//5
f 31//16 23//15 41//16
f 32//5 42//5 6//5
f 24//10 33//10 32//17
f 35//11 33//10 18//11
f 34//5 12//5 43//5
f 25//12 34//18 44//12
f 44//12 35//11 25//12
f 39//13 28//13 36//8
f 29//5 45//5 36//5
f 37//5 41//5 29//5
f 46//14 37//9 30//14
f 30//14 38//19 46//14
f 47//5 38//5 6//5
f 45//15 23//15 39//13
f 48//5 12//5 40//5
f 31//16 41//16 40//20
f 45//15 41//16 23//15
f 42//5 49//5 6//5
f 32//17 50//17 42//21
f 50//17 32//17 33//10
f 35//5 44//5 33//5
f 43//5 12//5 51//5
f 43//22 52//22 34//18
f 53//18 44//12 34//18
f 39//5 36//5 45//5
f 41//5 45//5 29//5
f 54//5 41//5 37//5
f 46//5 54//5 37//5
f 55//19 46//14 38//19
f 38//19 47//23 55//19
f 56//5 47//5 6//5
f 57//5 12//5 48//5
f 40//20 54//20 48//24
f 54//20 40//20 41//16
f 49//5 58//5 6//5
f 42//21 59//21 49//25
f 59//21 42//21 50//17
f 33//5 53//5 50//5
f 44//5 53//5 33//5
f 51//5 12//5 60//5
f 43//22 51//26 52//22
f 53//18 34//18 52//22
f 61//5 54//5 46//5
f 55//5 61//5 46//5
f 62//23 55//19 47//23
f 47//23 56//27 62//23
f 58//5 56//5 6//5
f 63//5 12//5 57//5
f 48//24 61//24 57//28
f 61//24 48//24 54//20
f 49//25 64//25 58//29
f 64//25 49//25 59//21
f 50//5 52//5 59//5
f 53//5 52//5 50//5
f 60//5 12//5 65//5
f 60//30 66//30 51//26
f 67//26 52//22 51//26
f 68//5 61//5 55//5
f 62//5 68//5 55//5
f 69//27 62//23 56//27
f 58//29 70//29 56//27
f 65//5 12//5 63//5
f 57//28 68//28 63//31
f 68//28 57//28 61//24
f 70//29 58//29 64//25
f 59//5 67//5 64//5
f 52//5 67//5 59//5
f 65//32 71//32 60//30
f 67//26 51//26 66//30
f 66//30 60//30 71//32
f 72//5 68//5 62//5
f 69//5 72//5 62//5
f 69//27 56//27 70//29
f 63//31 72//31 65//32
f 72//31 63//31 68//28
f 64//5 66//5 70//5
f 67//5 66//5 64//5
f 71//32 65//32 72//31
f 66//5 71//5 70//5
f 71//5 72//5 69//5
f 70//5 71//5 69//5
usemtl material_2_0
f 11//3 16//3 6//3
f 6//3 18//3 12//3
f 16//3 11//3 21//3
f 6//3 16//3 22//3
f 23//3 17//3 12//3
f 6//3 24//3 18//3
f 25//3 12//3 18//3
f 21//3 11//3 28//3
f 6//3 22//3 30//3
f 28//3 17//3 23//3
f 23//3 12//3 31//3
f 6//3 32//3 24//3
f 34//3 12//3 25//3
f 17//3 28//3 11//3
f 6//3 30//3 38//3
f 31//3 12//3 40//3
f 6//3 42//3 32//3
f 43//3 12//3 34//3
f 6//3 38//3 47//3
f 40//3 12//3 48//3
f 6//3 49//3 42//3
f 51//3 12//3 43//3
f 6//3 47//3 56//3
f 48//3 12//3 57//3
f 6//3 58//3 49//3
f 60//3 12//3 51//3
f 6//3 56//3 58//3
f 57//3 12//3 63//3
f 65//3 12//3 60//3
f 63//3 12//3 65//3
usemtl material_3_0
f 14//2 19//2 8//2
f 8//4 19//4 14//4
f 19//6 15//6 8//6
f 8//1 15//1 19//1
f 20//4 10//4 15//4
f 15//2 10//2 20//2
f 10//1 26//1 14//1
f 14//6 26//6 10//6
f 19//2 14//2 26//2
f 26//4 14//4 19//4
f 15//6 19//6 20//6
f 20//1 19//1 15//1
f 10//4 20//4 27//4
f 27//2 20//2 10//2
f 26//1 10//1 27//1
f 27//6 10//6 26//6
f 26//5 20//5 19//5
f 19//3 20//3 26//3
f 20//5 26//5 27//5
f 27//3 26//3 20//3
usemtl material_4_0
f 21//33 29//34 16//34
f 29//34 22//35 16//34
f 33//36 18//37 24//36
f 35//37 25//38 18//37
f 28//39 36//33 21//33
f 29//34 21//33 36//33
f 22//35 29//34 37//35
f 37//35 30//40 22//35
f 23//41 39//39 28//39
f 41//42 23//41 31//42
f 32//43 33//36 24//36
f 18//37 33//36 35//37
f 44//38 34//44 25//38
f 25//38 35//37 44//38
f 36//33 28//39 39//39
f 36//3 45//3 29//3
f 29//3 41//3 37//3
f 30//40 37//35 46//40
f 46//40 38//45 30//40
f 39//39 23//41 45//41
f 40//46 41//42 31//42
f 23//41 41//42 45//41
f 42//47 50//43 32//43
f 33//36 32//43 50//43
f 33//3 44//3 35//3
f 34//44 52//48 43//48
f 34//44 44//38 53//44
f 45//3 36//3 39//3
f 29//3 45//3 41//3
f 37//3 41//3 54//3
f 37//3 54//3 46//3
f 38//45 46//40 55//45
f 55//45 47//49 38//45
f 48//50 54//46 40//46
f 41//42 40//46 54//46
f 49//51 59//47 42//47
f 50//43 42//47 59//47
f 50//3 53//3 33//3
f 33//3 53//3 44//3
f 52//48 51//52 43//48
f 52//48 34//44 53//44
f 46//3 54//3 61//3
f 46//3 61//3 55//3
f 47//49 55//45 62//49
f 62//49 56//53 47//49
f 57//54 61//50 48//50
f 54//46 48//50 61//50
f 58//55 64//51 49//51
f 59//47 49//51 64//51
f 59//3 52//3 50//3
f 50//3 52//3 53//3
f 51//52 66//56 60//56
f 51//52 52//48 67//52
f 55//3 61//3 68//3
f 55//3 68//3 62//3
f 56//53 62//49 69//53
f 56//53 70//55 58//55
f 63//57 68//54 57//54
f 61//50 57//54 68//54
f 64//51 58//55 70//55
f 64//3 67//3 59//3
f 59//3 67//3 52//3
f 60//56 71//58 65//58
f 66//56 51//52 67//52
f 71//58 60//56 66//56
f 62//3 68//3 72//3
f 62//3 72//3 69//3
f 70//55 56//53 69//53
f 65//58 72//57 63//57
f 68//54 63//57 72//57
f 70//3 66//3 64//3
f 64//3 66//3 67//3
f 72//57 65//58 71//58
f 70//3 71//3 66//3
f 69//3 72//3 71//3
f 69//3 71//3 70//3
