# SSTK version 0.8.0
# 15
mtllib original-15.mtl
o mesh28/mesh28-geometry#mesh28-geometry
v 0.522362 0.470333 0.102896
v 0.518155 0.482725 0.122904
v 0.522362 0.470333 0.122904
v 0.518155 0.482725 0.102896
v 0.524915 0.457498 0.102896
v 0.512367 0.494461 0.122904
v 0.524915 0.457498 0.122904
v 0.512367 0.494461 0.102896
v 0.525771 0.444440 0.102896
v 0.505097 0.505342 0.122904
v 0.525771 0.444440 0.122904
v 0.505097 0.505342 0.102896
v 0.525771 -0.435929 0.102896
v 0.496469 0.515181 0.122904
v 0.525771 -0.435929 0.122904
v 0.496469 0.515181 0.102896
v 0.524915 -0.448987 0.102896
v 0.486630 0.523809 0.102896
v 0.524915 -0.448987 0.122904
v 0.486630 0.523809 0.122904
v 0.522362 -0.461822 0.102896
v 0.475749 0.531079 0.102896
v 0.522362 -0.461822 0.122904
v 0.475749 0.531079 0.122904
v 0.518155 -0.474214 0.102896
v 0.464013 0.536867 0.102896
v 0.518155 -0.474214 0.122904
v 0.464013 0.536867 0.122904
v 0.512367 -0.485950 0.102896
v 0.451621 0.541074 0.102896
v 0.512367 -0.485950 0.122904
v 0.451621 0.541074 0.122904
v 0.505097 -0.496831 0.102896
v 0.438787 0.543627 0.102896
v 0.505097 -0.496831 0.122904
v 0.438787 0.543627 0.122904
v 0.496469 -0.506670 0.102896
v 0.425728 0.544482 0.102896
v 0.496469 -0.506670 0.122904
v 0.425728 0.544482 0.122904
v 0.486630 -0.515298 0.122904
v -0.454641 0.544482 0.102896
v 0.486630 -0.515298 0.102896
v -0.454641 0.544482 0.122904
v 0.475749 -0.522568 0.122904
v -0.467699 0.543627 0.102896
v 0.475749 -0.522568 0.102896
v -0.467699 0.543627 0.122904
v 0.464013 -0.528356 0.122904
v -0.480534 0.541074 0.102896
v 0.464013 -0.528356 0.102896
v -0.480534 0.541074 0.122904
v 0.451621 -0.532563 0.122904
v -0.492926 0.536867 0.102896
v 0.451621 -0.532563 0.102896
v -0.492926 0.536867 0.122904
v 0.438787 -0.535116 0.122904
v -0.504662 0.531079 0.102896
v 0.438787 -0.535116 0.102896
v -0.504662 0.531079 0.122904
v 0.425728 -0.535971 0.122904
v -0.515543 0.523809 0.102896
v 0.425728 -0.535971 0.102896
v -0.515543 0.523809 0.122904
v -0.454641 -0.535971 0.122904
v -0.525382 0.515181 0.102896
v -0.454641 -0.535971 0.102896
v -0.525382 0.515181 0.122904
v -0.467699 -0.535116 0.122904
v -0.534010 0.505342 0.102896
v -0.467699 -0.535116 0.102896
v -0.534010 0.505342 0.122904
v -0.480534 -0.532563 0.122904
v -0.541280 0.494461 0.102896
v -0.480534 -0.532563 0.102896
v -0.541280 0.494461 0.122904
v -0.492926 -0.528356 0.122904
v -0.547068 0.482725 0.102896
v -0.492926 -0.528356 0.102896
v -0.547068 0.482725 0.122904
v -0.504662 -0.522568 0.122904
v -0.551274 0.470333 0.102896
v -0.504662 -0.522568 0.102896
v -0.551274 0.470333 0.122904
v -0.515543 -0.515298 0.122904
v -0.553827 0.457498 0.102896
v -0.515543 -0.515298 0.102896
v -0.553827 0.457498 0.122904
v -0.525382 -0.506670 0.122904
v -0.554683 0.444440 0.102896
v -0.525382 -0.506670 0.102896
v -0.554683 0.444440 0.122904
v -0.534010 -0.496831 0.122904
v -0.554683 -0.435929 0.102896
v -0.534010 -0.496831 0.102896
v -0.554683 -0.435929 0.122904
v -0.541280 -0.485950 0.122904
v -0.553827 -0.448987 0.102896
v -0.541280 -0.485950 0.102896
v -0.553827 -0.448987 0.122904
v -0.547068 -0.474214 0.122904
v -0.551274 -0.461822 0.102896
v -0.547068 -0.474214 0.102896
v -0.551274 -0.461822 0.122904
vn 0.965925849201117 0.2588189595935754 0
vn 0.9238797538373538 0.38268289803626016 0
vn 0.9914448886106773 0.1305259853353411 0
vn 0.8660253028382762 0.5000001748438417 0
vn 0.9994645906263837 0.03271898659853486 0
vn 0.7933534213778813 0.6087613233345314 0
vn 0.9994645906263837 -0.03271898659853486 0
vn 0.7071067811865476 0.7071067811865476 0
vn 0.9914448886106773 -0.1305259853353411 0
vn 0.6087613233345314 0.7933534213778813 0
vn 0.965925849201117 -0.2588189595935754 0
vn 0.5000001748438417 0.8660253028382762 0
vn 0.9238797538373538 -0.38268289803626016 0
vn 0.38268289803626016 0.9238797538373538 0
vn 0.8660253028382762 -0.5000001748438417 0
vn 0.2588189595935754 0.965925849201117 0
vn 0.7933534213778813 -0.6087613233345314 0
vn 0.1305259853353411 0.9914448886106773 0
vn 0.7071067811865476 -0.7071067811865476 0
vn 0.03271898659853486 0.9994645906263837 0
vn 0.6087613233345314 -0.7933534213778813 0
vn -0.03271898659853486 0.9994645906263837 0
vn 0.5000001748438417 -0.8660253028382762 0
vn -0.1305259853353411 0.9914448886106773 0
vn 0.38268289803626016 -0.9238797538373538 0
vn -0.2588189595935754 0.965925849201117 0
vn 0.2588189595935754 -0.965925849201117 0
vn -0.38268289803626016 0.9238797538373538 0
vn 0.1305259853353411 -0.9914448886106773 0
vn -0.5000001748438417 0.8660253028382762 0
vn 0.03271898659853486 -0.9994645906263837 0
vn -0.6087613233345314 0.7933534213778813 0
vn -0.03271898659853486 -0.9994645906263837 0
vn -0.7071067811865476 0.7071067811865476 0
vn -0.1305259853353411 -0.9914448886106773 0
vn -0.7933534213778813 0.6087613233345314 0
vn -0.2588189595935754 -0.965925849201117 0
vn -0.8660253028382762 0.5000001748438417 0
vn -0.38268289803626016 -0.9238797538373538 0
vn -0.9238797538373538 0.38268289803626016 0
vn -0.5000001748438417 -0.8660253028382762 0
vn -0.965925849201117 0.2588189595935754 0
vn -0.6087613233345314 -0.7933534213778813 0
vn -0.9914448886106773 0.1305259853353411 0
vn -0.7071067811865476 -0.7071067811865476 0
vn -0.9994645906263837 0.03271898659853486 0
vn -0.7933534213778813 -0.6087613233345314 0
vn -0.9994645906263837 -0.03271898659853486 0
vn -0.8660253028382762 -0.5000001748438417 0
vn -0.9914448886106773 -0.1305259853353411 0
vn -0.9238797538373538 -0.38268289803626016 0
vn -0.965925849201117 -0.2588189595935754 0
usemtl material_0_0
f 1//1 2//2 3//1
f 2//2 1//1 4//2
f 3//1 5//3 1//1
f 4//2 6//4 2//2
f 5//3 3//1 7//3
f 6//4 4//2 8//4
f 7//3 9//5 5//3
f 8//4 10//6 6//4
f 9//5 7//3 11//5
f 10//6 8//4 12//6
f 11//5 13//7 9//5
f 12//6 14//8 10//6
f 13//7 11//5 15//7
f 14//8 12//6 16//8
f 15//7 17//9 13//7
f 18//10 14//8 16//8
f 17//9 15//7 19//9
f 14//8 18//10 20//10
f 19//9 21//11 17//9
f 22//12 20//10 18//10
f 21//11 19//9 23//11
f 20//10 22//12 24//12
f 23//11 25//13 21//11
f 26//14 24//12 22//12
f 25//13 23//11 27//13
f 24//12 26//14 28//14
f 27//13 29//15 25//13
f 30//16 28//14 26//14
f 29//15 27//13 31//15
f 28//14 30//16 32//16
f 31//15 33//17 29//15
f 34//18 32//16 30//16
f 33//17 31//15 35//17
f 32//16 34//18 36//18
f 35//17 37//19 33//17
f 38//20 36//18 34//18
f 37//19 35//17 39//19
f 36//18 38//20 40//20
f 41//21 37//19 39//19
f 42//22 40//20 38//20
f 37//19 41//21 43//21
f 40//20 42//22 44//22
f 45//23 43//21 41//21
f 46//24 44//22 42//22
f 43//21 45//23 47//23
f 44//22 46//24 48//24
f 49//25 47//23 45//23
f 50//26 48//24 46//24
f 47//23 49//25 51//25
f 48//24 50//26 52//26
f 53//27 51//25 49//25
f 54//28 52//26 50//26
f 51//25 53//27 55//27
f 52//26 54//28 56//28
f 57//29 55//27 53//27
f 58//30 56//28 54//28
f 55//27 57//29 59//29
f 56//28 58//30 60//30
f 61//31 59//29 57//29
f 62//32 60//30 58//30
f 59//29 61//31 63//31
f 60//30 62//32 64//32
f 65//33 63//31 61//31
f 66//34 64//32 62//32
f 63//31 65//33 67//33
f 64//32 66//34 68//34
f 69//35 67//33 65//33
f 70//36 68//34 66//34
f 67//33 69//35 71//35
f 68//34 70//36 72//36
f 73//37 71//35 69//35
f 74//38 72//36 70//36
f 71//35 73//37 75//37
f 72//36 74//38 76//38
f 77//39 75//37 73//37
f 78//40 76//38 74//38
f 75//37 77//39 79//39
f 76//38 78//40 80//40
f 81//41 79//39 77//39
f 82//42 80//40 78//40
f 79//39 81//41 83//41
f 80//40 82//42 84//42
f 85//43 83//41 81//41
f 86//44 84//42 82//42
f 83//41 85//43 87//43
f 84//42 86//44 88//44
f 89//45 87//43 85//43
f 90//46 88//44 86//44
f 87//43 89//45 91//45
f 88//44 90//46 92//46
f 93//47 91//45 89//45
f 94//48 92//46 90//46
f 91//45 93//47 95//47
f 92//46 94//48 96//48
f 97//49 95//47 93//47
f 98//50 96//48 94//48
f 95//47 97//49 99//49
f 96//48 98//50 100//50
f 101//51 99//49 97//49
f 102//52 100//50 98//50
f 99//49 101//51 103//51
f 100//50 102//52 104//52
f 104//52 103//51 101//51
f 103//51 104//52 102//52
usemtl material_1_0
f 3//52 2//51 1//52
f 4//51 1//52 2//51
f 1//52 5//50 3//52
f 2//51 6//49 4//51
f 7//50 3//52 5//50
f 8//49 4//51 6//49
f 5//50 9//48 7//50
f 6//49 10//47 8//49
f 11//48 7//50 9//48
f 12//47 8//49 10//47
f 9//48 13//46 11//48
f 10//47 14//45 12//47
f 15//46 11//48 13//46
f 16//45 12//47 14//45
f 13//46 17//44 15//46
f 16//45 14//45 18//43
f 19//44 15//46 17//44
f 20//43 18//43 14//45
f 17//44 21//42 19//44
f 18//43 20//43 22//41
f 23//42 19//44 21//42
f 24//41 22//41 20//43
f 21//42 25//40 23//42
f 22//41 24//41 26//39
f 27//40 23//42 25//40
f 28//39 26//39 24//41
f 25//40 29//38 27//40
f 26//39 28//39 30//37
f 31//38 27//40 29//38
f 32//37 30//37 28//39
f 29//38 33//36 31//38
f 30//37 32//37 34//35
f 35//36 31//38 33//36
f 36//35 34//35 32//37
f 33//36 37//34 35//36
f 34//35 36//35 38//33
f 39//34 35//36 37//34
f 40//33 38//33 36//35
f 39//34 37//34 41//32
f 38//33 40//33 42//31
f 43//32 41//32 37//34
f 44//31 42//31 40//33
f 41//32 43//32 45//30
f 42//31 44//31 46//29
f 47//30 45//30 43//32
f 48//29 46//29 44//31
f 45//30 47//30 49//28
f 46//29 48//29 50//27
f 51//28 49//28 47//30
f 52//27 50//27 48//29
f 49//28 51//28 53//26
f 50//27 52//27 54//25
f 55//26 53//26 51//28
f 56//25 54//25 52//27
f 53//26 55//26 57//24
f 54//25 56//25 58//23
f 59//24 57//24 55//26
f 60//23 58//23 56//25
f 57//24 59//24 61//22
f 58//23 60//23 62//21
f 63//22 61//22 59//24
f 64//21 62//21 60//23
f 61//22 63//22 65//20
f 62//21 64//21 66//19
f 67//20 65//20 63//22
f 68//19 66//19 64//21
f 65//20 67//20 69//18
f 66//19 68//19 70//17
f 71//18 69//18 67//20
f 72//17 70//17 68//19
f 69//18 71//18 73//16
f 70//17 72//17 74//15
f 75//16 73//16 71//18
f 76//15 74//15 72//17
f 73//16 75//16 77//14
f 74//15 76//15 78//13
f 79//14 77//14 75//16
f 80//13 78//13 76//15
f 77//14 79//14 81//12
f 78//13 80//13 82//11
f 83//12 81//12 79//14
f 84//11 82//11 80//13
f 81//12 83//12 85//10
f 82//11 84//11 86//9
f 87//10 85//10 83//12
f 88//9 86//9 84//11
f 85//10 87//10 89//8
f 86//9 88//9 90//7
f 91//8 89//8 87//10
f 92//7 90//7 88//9
f 89//8 91//8 93//6
f 90//7 92//7 94//5
f 95//6 93//6 91//8
f 96//5 94//5 92//7
f 93//6 95//6 97//4
f 94//5 96//5 98//3
f 99//4 97//4 95//6
f 100//3 98//3 96//5
f 97//4 99//4 101//2
f 98//3 100//3 102//1
f 103//2 101//2 99//4
f 104//1 102//1 100//3
f 101//2 103//2 104//1
f 102//1 104//1 103//2
