# SSTK version 0.8.0
# 2
mtllib original-2.mtl
o #ID215
v -0.447735 -0.270390 0.051250
v -0.487728 -0.362671 0.043904
v -0.487717 -0.293456 0.047306
v -0.477915 -0.377331 0.043712
v -0.410710 -0.325803 0.050992
v -0.410710 -0.325803 0.050992
v -0.447735 -0.270390 0.051250
v -0.477915 -0.377331 0.043712
v -0.487728 -0.362671 0.043904
v -0.487717 -0.293456 0.047306
v -0.477211 -0.210617 0.051456
v -0.487717 -0.293456 0.047306
v -0.487695 -0.214957 0.050491
v -0.447735 -0.270390 0.051250
v -0.447735 -0.270390 0.051250
v -0.477211 -0.210617 0.051456
v -0.487717 -0.293456 0.047306
v -0.487695 -0.214957 0.050491
v -0.410710 -0.325803 0.050992
v -0.426673 -0.435761 0.043354
v -0.477915 -0.377331 0.043712
v -0.386405 -0.395528 0.048282
v -0.387693 -0.352025 0.050773
v -0.386387 -0.353538 0.050819
v -0.386387 -0.353538 0.050819
v -0.387693 -0.352025 0.050773
v -0.386405 -0.395528 0.048282
v -0.410710 -0.325803 0.050992
v -0.426673 -0.435761 0.043354
v -0.477915 -0.377331 0.043712
v -0.487728 -0.362671 0.043904
v -0.487717 -0.293456 0.047306
v -0.477915 -0.377331 0.043712
v -0.410710 -0.325803 0.050992
v -0.410710 -0.325377 0.051050
v -0.410710 -0.325377 0.051050
v -0.410710 -0.325803 0.050992
v -0.477915 -0.377331 0.043712
v -0.487728 -0.362671 0.043904
v -0.487717 -0.293456 0.047306
v -0.487692 -0.179731 0.051483
v -0.487692 -0.179731 0.051483
v -0.368244 -0.487004 0.042946
v -0.344376 -0.395521 0.050409
v -0.316664 -0.419852 0.050335
v -0.316664 -0.419852 0.050335
v -0.344376 -0.395521 0.050409
v -0.368244 -0.487004 0.042946
v -0.487806 -0.494012 0.034629
v -0.487751 -0.384871 0.042439
v -0.486488 -0.495514 0.034620
v -0.486488 -0.495514 0.034620
v -0.487806 -0.494012 0.034629
v -0.487751 -0.384871 0.042439
v -0.353589 -0.496816 0.042979
v -0.284348 -0.496831 0.045886
v -0.261252 -0.456878 0.049948
v -0.261252 -0.456878 0.049948
v -0.284348 -0.496831 0.045886
v -0.353589 -0.496816 0.042979
v -0.484987 -0.496831 0.034493
v -0.375794 -0.496831 0.041657
v -0.375794 -0.496831 0.041657
v -0.484987 -0.496831 0.034493
v -0.487807 -0.496831 0.034396
v -0.487807 -0.496831 0.034396
v -0.205828 -0.496831 0.048523
v -0.201481 -0.486354 0.049531
v -0.201481 -0.486354 0.049531
v -0.205828 -0.496831 0.048523
v -0.170747 -0.496798 0.049411
v -0.170747 -0.496798 0.049411
vn 0.06847218355945715 0.050312288700872086 -0.996383577586604
vn 0.05752434265896295 0.02462227032058118 -0.9980404269396678
vn 0.0749824984716126 0.04040664030894256 -0.9963658606866748
vn 0.07689908160795385 0.03578334055620436 -0.9963965494653683
vn 0.03618324499681985 0.024710319375203668 -0.999039625289145
vn 0.06152772643760981 0.06010882277756896 -0.9962937660668731
vn 0.06359122293043265 0.07049498993692578 -0.9954831052107338
vn 0.07166501494722023 0.06574990231239976 -0.9952593008751662
vn 0.05724410430476027 0.06409957127780572 -0.9963003349815491
vn 0.06100245717303251 0.059393211570152406 -0.9963689811702469
vn 0.06079733769932381 0.05911377075066068 -0.9963981362067638
vn 0.06874323248756802 0.0502551401419249 -0.9963677979925264
vn 0.0358960062735738 0.02817726924353742 -0.9989582164593197
vn 0.07475705340661147 0.026294548769069177 -0.9968550444628306
vn 0.05530840967831138 0.07776444328102806 -0.9954364224700882
vn 0.052070077522126515 0.06596967986464919 -0.9964620957996323
vn 0.04622551146441574 0.06801618756924596 -0.9966127634735561
vn 0.07704151108535873 0.07364946858434807 -0.9943039582275269
vn 0.07542715121233605 0.06951475951259148 -0.9947253103595474
vn 0.06474670835464187 0.09290175546506571 -0.9935678776957052
vn 0.04630175131423601 0.07719585142530405 -0.9959402333212357
vn 0.040034380735967386 0.07756087234812584 -0.9961834968717789
vn 0.032092876653325914 0.06653796924111699 -0.9972676400632794
vn 0.057597339247306666 0.09382419855609746 -0.9939213078895817
vn 0.063065255294943 0.08259690932855705 -0.9945856042312065
vn 0.060269629270479116 0.10829269710842816 -0.9922904129036928
vn 0.030339855518480216 0.08322773059403024 -0.9960685910253797
vn 0.020669248062721562 0.061605979636687104 -0.9978865093073089
vn 0.012737278575157744 0.04261585863526792 -0.9990103354456736
vn -0.06847218355945715 -0.050312288700872086 0.996383577586604
vn -0.03618324499681985 -0.024710319375203668 0.999039625289145
vn -0.05752434265896295 -0.02462227032058118 0.9980404269396678
vn -0.0749824984716126 -0.04040664030894256 0.9963658606866748
vn -0.07689908160795385 -0.03578334055620436 0.9963965494653683
vn -0.06079733769932381 -0.05911377075066068 0.9963981362067638
vn -0.06100245717303251 -0.059393211570152406 0.9963689811702469
vn -0.05724410430476027 -0.06409957127780572 0.9963003349815491
vn -0.06152772643760981 -0.06010882277756896 0.9962937660668731
vn -0.06359122293043265 -0.07049498993692578 0.9954831052107338
vn -0.07166501494722023 -0.06574990231239976 0.9952593008751662
vn -0.0358960062735738 -0.02817726924353742 0.9989582164593197
vn -0.06874323248756802 -0.0502551401419249 0.9963677979925264
vn -0.07475705340661147 -0.026294548769069177 0.9968550444628306
vn -0.04622551146441574 -0.06801618756924596 0.9966127634735561
vn -0.052070077522126515 -0.06596967986464919 0.9964620957996323
vn -0.05530840967831138 -0.07776444328102806 0.9954364224700882
vn -0.06474670835464187 -0.09290175546506571 0.9935678776957052
vn -0.07704151108535873 -0.07364946858434807 0.9943039582275269
vn -0.07542715121233605 -0.06951475951259148 0.9947253103595474
vn -0.032092876653325914 -0.06653796924111699 0.9972676400632794
vn -0.040034380735967386 -0.07756087234812584 0.9961834968717789
vn -0.04630175131423601 -0.07719585142530405 0.9959402333212357
vn -0.063065255294943 -0.08259690932855705 0.9945856042312065
vn -0.057597339247306666 -0.09382419855609746 0.9939213078895817
vn -0.060269629270479116 -0.10829269710842816 0.9922904129036928
vn -0.020669248062721562 -0.061605979636687104 0.9978865093073089
vn -0.030339855518480216 -0.08322773059403024 0.9960685910253797
vn -0.012737278575157744 -0.04261585863526792 0.9990103354456736
usemtl material_0_0
f 1//1 2//1 3//1
f 2//1 1//1 4//1
f 4//1 1//1 5//1
f 11//2 12//3 13//4
f 12//3 11//2 14//5
f 19//6 20//7 21//8
f 20//7 19//6 22//9
f 22//9 19//6 23//10
f 22//9 23//10 24//11
f 14//5 31//12 32//12
f 31//12 14//5 33//12
f 33//12 14//5 34//12
f 34//12 14//5 35//13
f 11//2 13//4 41//14
f 22//9 43//15 20//7
f 43//15 22//9 44//16
f 43//15 44//16 45//17
f 21//8 49//18 50//19
f 49//18 21//8 51//20
f 51//20 21//8 20//7
f 45//17 55//21 43//15
f 55//21 45//17 56//22
f 56//22 45//17 57//23
f 20//7 61//24 51//20
f 61//24 20//7 62//25
f 62//25 20//7 43//15
f 51//20 65//26 49//18
f 57//23 67//27 56//22
f 67//27 57//23 68//28
f 55//21 62//25 43//15
f 71//29 67//27 68//28
usemtl material_1_0
f 6//30 7//30 8//30
f 8//30 7//30 9//30
f 10//30 9//30 7//30
f 15//31 16//32 17//33
f 18//34 17//33 16//32
f 25//35 26//36 27//37
f 26//36 28//38 27//37
f 27//37 28//38 29//39
f 30//40 29//39 28//38
f 36//41 15//31 37//42
f 37//42 15//31 38//42
f 38//42 15//31 39//42
f 40//42 39//42 15//31
f 42//43 18//34 16//32
f 46//44 47//45 48//46
f 47//45 27//37 48//46
f 29//39 48//46 27//37
f 29//39 30//40 52//47
f 52//47 30//40 53//48
f 54//49 53//48 30//40
f 58//50 46//44 59//51
f 59//51 46//44 60//52
f 48//46 60//52 46//44
f 48//46 29//39 63//53
f 63//53 29//39 64//54
f 52//47 64//54 29//39
f 53//48 66//55 52//47
f 69//56 58//50 70//57
f 59//51 70//57 58//50
f 48//46 63//53 60//52
f 69//56 70//57 72//58
