# SSTK version 0.8.0
# 23
mtllib original-23.mtl
o #ID345
v -0.353589 0.465562 0.042979
v -0.368244 0.455720 0.042946
v -0.375794 0.465547 0.041657
v -0.375794 0.465547 0.041657
v -0.368244 0.455720 0.042946
v -0.353589 0.465562 0.042979
vn 0.046318584622170166 -0.07717262142676856 -0.9959412508881836
vn 0.05533291409421231 -0.07773876117647004 -0.9954370666338432
vn 0.06309624693352471 -0.0825728506345359 -0.99458563631343
vn -0.06309624693352471 0.0825728506345359 0.99458563631343
vn -0.05533291409421231 0.07773876117647004 0.9954370666338432
vn -0.046318584622170166 0.07717262142676856 0.9959412508881836
usemtl material_0_0
f 4//4 5//5 6//6
usemtl material_1_0
f 1//1 2//2 3//3
