# SSTK version 0.8.0
# 7
mtllib original-7.mtl
o #ID247
v -0.260901 0.424988 0.050004
v -0.297984 0.364245 0.052503
v -0.316237 0.388013 0.050390
v -0.225795 0.364245 0.055004
v -0.225795 0.364245 0.055004
v -0.260901 0.424988 0.050004
v -0.297984 0.364245 0.052503
v -0.316237 0.388013 0.050390
v -0.201213 0.454424 0.049587
v -0.194435 0.364233 0.055958
v -0.169001 0.376763 0.055648
v -0.169001 0.376763 0.055648
v -0.201213 0.454424 0.049587
v -0.194435 0.364233 0.055958
v -0.316664 0.388013 0.050335
v -0.343316 0.364252 0.050459
v -0.316664 0.388013 0.050335
v -0.343316 0.364252 0.050459
v -0.168597 0.465572 0.049566
v -0.116393 0.394621 0.055281
v -0.135435 0.465547 0.049923
v -0.135435 0.465547 0.049923
v -0.168597 0.465572 0.049566
v -0.116393 0.394621 0.055281
v -0.069851 0.465506 0.050525
v -0.061904 0.405460 0.054900
v -0.061904 0.405460 0.054900
v -0.069851 0.465506 0.050525
v -0.163810 0.364245 0.056400
v -0.108245 0.364260 0.057128
v -0.108245 0.364260 0.057128
v -0.163810 0.364245 0.056400
v -0.006496 0.465498 0.050185
v -0.006466 0.409094 0.054513
v -0.006466 0.409094 0.054513
v -0.006496 0.465498 0.050185
v -0.056461 0.364245 0.057281
v -0.056461 0.364245 0.057281
v 0.048972 0.405460 0.054126
v 0.056856 0.465506 0.049640
v 0.056856 0.465506 0.049640
v 0.048972 0.405460 0.054126
v -0.006448 0.364245 0.057123
v -0.006448 0.364245 0.057123
v 0.103461 0.394621 0.053746
v 0.122427 0.465547 0.048123
v 0.122427 0.465547 0.048123
v 0.103461 0.394621 0.053746
v 0.043562 0.364239 0.056679
v 0.043562 0.364239 0.056679
v 0.095335 0.364245 0.055633
v 0.095335 0.364245 0.055633
v 0.150890 0.364245 0.054203
v 0.156070 0.376763 0.053379
v 0.156070 0.376763 0.053379
v 0.150890 0.364245 0.054203
v 0.181473 0.364240 0.053309
v 0.181473 0.364240 0.053309
v 0.188193 0.454424 0.046869
v 0.212849 0.364245 0.051941
v 0.247882 0.424988 0.046452
v 0.247882 0.424988 0.046452
v 0.188193 0.454424 0.046869
v 0.212849 0.364245 0.051941
v 0.284992 0.364242 0.048616
v 0.303218 0.388013 0.046066
v 0.303218 0.388013 0.046066
v 0.284992 0.364242 0.048616
v 0.330305 0.364248 0.045801
v 0.330305 0.364248 0.045801
vn 0.012096170276854173 -0.033311530483141956 -0.9993718149925501
vn 0.037584442261333485 -0.0598067081342311 -0.9975021640889062
vn 0.03130488410154847 -0.04632669086940162 -0.9984356974510074
vn 0.029051246762283277 -0.06578899287928755 -0.9974105641497317
vn 0.012200999081111013 -0.046160430229099096 -0.9988595248094135
vn 0.02457627155373417 -0.06562808838790955 -0.9975414582317197
vn 0.01766608326939286 -0.062460959732920686 -0.9978910451603229
vn 0.04820460529336884 -0.059677987508291674 -0.9970530847630283
vn 0.04728007812915871 -0.05801044904757466 -0.9971957591232522
vn 0.016532296842660298 -0.07016896946403105 -0.9973981145387544
vn 0.010459802339027512 -0.06469581815327324 -0.9978502110279411
vn 0.013152682854185518 -0.07111928784727531 -0.9973810975900003
vn 0.002762132978107267 -0.07350263086109173 -0.9972911981351832
vn 0.0013253060878150045 -0.06616332721969971 -0.997807926253842
vn 0.013371522207269582 -0.05583628091142637 -0.9983503954663617
vn 0.007527600857027237 -0.05759859783490345 -0.9983114427636249
vn -0.006963523741087141 -0.07474631858716305 -0.997178267510265
vn -0.0067719039913226725 -0.06702972731180526 -0.9977279974887129
vn 0.0000350431136045548 -0.05807912056769001 -0.9983119825615957
vn -0.015437147381728973 -0.06650832029900935 -0.9976664461691187
vn -0.016685924112578472 -0.07350602736392685 -0.9971551754254113
vn -0.006563444066773797 -0.05863919760713763 -0.9982576649873385
vn -0.024675241536067954 -0.0645492473693042 -0.9976094060899753
vn -0.027402397983635935 -0.07158908237836263 -0.9970577274506077
vn -0.014250816361657722 -0.05882829739622747 -0.9981663917696725
vn -0.021968224430659808 -0.057033329597249945 -0.9981305507950428
vn -0.02699876556519675 -0.05457553158655126 -0.9981445676904728
vn -0.03169198309202367 -0.062125718888390004 -0.9975650421202097
vn -0.03858408895393816 -0.06548099246464995 -0.9971075707793211
vn -0.019677198910072007 -0.031379448514559996 -0.9993138336148337
vn -0.0426512573856853 -0.06624222692289555 -0.9968915876943266
vn -0.0361854113888277 -0.04854982887152821 -0.9981650815968102
vn -0.05175079111655587 -0.062473909878934024 -0.9967040012979027
vn -0.0564750751235533 -0.06331594089551888 -0.9963943283250384
vn -0.06276707614947154 -0.0604463329784935 -0.9961960324058209
vn -0.029051246762283277 0.06578899287928755 0.9974105641497317
vn -0.012096170276854173 0.033311530483141956 0.9993718149925501
vn -0.037584442261333485 0.0598067081342311 0.9975021640889062
vn -0.03130488410154847 0.04632669086940162 0.9984356974510074
vn -0.01766608326939286 0.062460959732920686 0.9978910451603229
vn -0.012200999081111013 0.046160430229099096 0.9988595248094135
vn -0.02457627155373417 0.06562808838790955 0.9975414582317197
vn -0.04820460529336884 0.059677987508291674 0.9970530847630283
vn -0.04728007812915871 0.05801044904757466 0.9971957591232522
vn -0.013152682854185518 0.07111928784727531 0.9973810975900003
vn -0.016532296842660298 0.07016896946403105 0.9973981145387544
vn -0.010459802339027512 0.06469581815327324 0.9978502110279411
vn -0.0013253060878150045 0.06616332721969971 0.997807926253842
vn -0.002762132978107267 0.07350263086109173 0.9972911981351832
vn -0.007527600857027237 0.05759859783490345 0.9983114427636249
vn -0.013371522207269582 0.05583628091142637 0.9983503954663617
vn 0.0067719039913226725 0.06702972731180526 0.9977279974887129
vn 0.006963523741087141 0.07474631858716305 0.997178267510265
vn -0.0000350431136045548 0.05807912056769001 0.9983119825615957
vn 0.016685924112578472 0.07350602736392685 0.9971551754254113
vn 0.015437147381728973 0.06650832029900935 0.9976664461691187
vn 0.006563444066773797 0.05863919760713763 0.9982576649873385
vn 0.027402397983635935 0.07158908237836263 0.9970577274506077
vn 0.024675241536067954 0.0645492473693042 0.9976094060899753
vn 0.014250816361657722 0.05882829739622747 0.9981663917696725
vn 0.021968224430659808 0.057033329597249945 0.9981305507950428
vn 0.03169198309202367 0.062125718888390004 0.9975650421202097
vn 0.02699876556519675 0.05457553158655126 0.9981445676904728
vn 0.03858408895393816 0.06548099246464995 0.9971075707793211
vn 0.0361854113888277 0.04854982887152821 0.9981650815968102
vn 0.019677198910072007 0.031379448514559996 0.9993138336148337
vn 0.0426512573856853 0.06624222692289555 0.9968915876943266
vn 0.0564750751235533 0.06331594089551888 0.9963943283250384
vn 0.05175079111655587 0.062473909878934024 0.9967040012979027
vn 0.06276707614947154 0.0604463329784935 0.9961960324058209
usemtl material_0_0
f 1//1 2//2 3//3
f 2//2 1//1 4//4
f 9//5 4//4 1//1
f 4//4 9//5 10//6
f 10//6 9//5 11//7
f 15//8 2//2 16//9
f 2//2 15//8 3//3
f 19//10 11//7 9//5
f 11//7 19//10 20//11
f 20//11 19//10 21//12
f 25//13 20//11 21//12
f 20//11 25//13 26//14
f 20//11 29//15 11//7
f 29//15 20//11 30//16
f 33//17 26//14 25//13
f 26//14 33//17 34//18
f 26//14 30//16 20//11
f 30//16 26//14 37//19
f 33//17 39//20 34//18
f 39//20 33//17 40//21
f 34//18 37//19 26//14
f 37//19 34//18 43//22
f 40//21 45//23 39//20
f 45//23 40//21 46//24
f 39//20 43//22 34//18
f 43//22 39//20 49//25
f 39//20 51//26 49//25
f 51//26 39//20 45//23
f 45//23 53//27 51//26
f 53//27 45//23 54//28
f 57//29 53//27 54//28
f 59//30 57//29 54//28
f 57//29 59//30 60//31
f 60//31 59//30 61//32
f 61//32 65//33 60//31
f 65//33 61//32 66//34
f 69//35 65//33 66//34
usemtl material_1_0
f 5//36 6//37 7//38
f 8//39 7//38 6//37
f 12//40 13//41 14//42
f 14//42 13//41 5//36
f 6//37 5//36 13//41
f 8//39 17//43 7//38
f 18//44 7//38 17//43
f 22//45 23//46 24//47
f 24//47 23//46 12//40
f 13//41 12//40 23//46
f 27//48 28//49 24//47
f 22//45 24//47 28//49
f 31//50 24//47 32//51
f 12//40 32//51 24//47
f 35//52 36//53 27//48
f 28//49 27//48 36//53
f 38//54 27//48 31//50
f 24//47 31//50 27//48
f 41//55 36//53 42//56
f 35//52 42//56 36//53
f 44//57 35//52 38//54
f 27//48 38//54 35//52
f 47//58 41//55 48//59
f 42//56 48//59 41//55
f 50//60 42//56 44//57
f 35//52 44//57 42//56
f 48//59 42//56 52//61
f 50//60 52//61 42//56
f 55//62 48//59 56//63
f 52//61 56//63 48//59
f 55//62 56//63 58//64
f 62//65 63//66 64//67
f 64//67 63//66 58//64
f 55//62 58//64 63//66
f 67//68 62//65 68//69
f 64//67 68//69 62//65
f 67//68 68//69 70//70
