# SSTK version 0.8.0
# 15
mtllib original-15.mtl
o #ID297
v 0.434715 0.239106 0.045089
v 0.463544 0.179066 0.044946
v 0.434109 0.238756 0.045152
v 0.464191 0.179334 0.044884
v 0.474668 0.146297 0.044869
v 0.474668 0.148472 0.044813
v 0.474668 0.148472 0.044813
v 0.464191 0.179334 0.044884
v 0.474668 0.146297 0.044869
v 0.463544 0.179066 0.044946
v 0.434715 0.239106 0.045089
v 0.434109 0.238756 0.045152
v 0.373359 0.322232 0.045398
v 0.397135 0.294093 0.045410
v 0.373359 0.321172 0.045456
v 0.373997 0.321505 0.045396
v 0.397690 0.294520 0.045348
v 0.397690 0.294520 0.045348
v 0.397135 0.294093 0.045410
v 0.373997 0.321505 0.045396
v 0.373359 0.322232 0.045398
v 0.373359 0.321172 0.045456
vn -0.029477776426775265 -0.014738410123959236 -0.9994567724338811
vn -0.012278870385779092 -0.002388249034262082 -0.9999217597435308
vn -0.000683096857987733 0.004616189054828602 -0.9999891120293726
vn 0.010911752760711253 0.011619150144642605 -0.9998729564307686
vn -0.011780125921776661 -0.008412152000515738 -0.9998952266772692
vn -0.005620487178338277 -0.002974539851855059 -0.9999797809138683
vn -0.031999663149792634 -0.024117860022340003 -0.9991968526703047
vn -0.035762216650222695 -0.02313895075760607 -0.9990924145533783
vn 0.012278870385779092 0.002388249034262082 0.9999217597435308
vn 0.029477776426775265 0.014738410123959236 0.9994567724338811
vn 0.000683096857987733 -0.004616189054828602 0.9999891120293726
vn 0.035762216650222695 0.02313895075760607 0.9990924145533783
vn 0.011780125921776661 0.008412152000515738 0.9998952266772692
vn 0.031999663149792634 0.024117860022340003 0.9991968526703047
vn -0.010911752760711253 -0.011619150144642605 0.9998729564307686
vn 0.005620487178338277 0.002974539851855059 0.9999797809138683
usemtl material_0_0
f 7//9 8//9 9//9
f 9//9 8//9 10//9
f 8//9 11//10 10//9
f 12//11 10//9 11//10
f 11//10 18//12 12//11
f 12//11 18//12 19//13
f 18//12 20//14 19//13
f 20//14 21//15 19//13
f 22//16 19//13 21//15
usemtl material_1_0
f 1//1 2//2 3//3
f 2//2 1//1 4//2
f 2//2 4//2 5//2
f 5//2 4//2 6//2
f 13//4 14//5 15//6
f 14//5 13//4 16//7
f 14//5 16//7 17//8
f 14//5 17//8 3//3
f 3//3 17//8 1//1
