# SSTK version 0.8.0
# 9
mtllib original-9.mtl
o #ID259
v 0.373897 0.364245 0.121506
v -0.385833 0.300621 0.130234
v -0.385857 0.364245 0.126810
v 0.373921 0.300621 0.124930
v 0.373921 0.300621 0.124930
v 0.373897 0.364245 0.121506
v -0.385833 0.300621 0.130234
v -0.385857 0.364245 0.126810
v -0.386387 -0.353538 0.050819
v -0.386265 -0.395528 0.068298
v -0.386405 -0.395528 0.048282
v -0.386173 -0.333179 0.081424
v -0.386387 -0.352479 0.050880
v -0.386371 -0.307139 0.053120
v -0.386092 -0.270536 0.093066
v -0.386350 -0.234969 0.056125
v -0.386021 -0.207634 0.103217
v -0.386331 -0.203617 0.057297
v -0.385961 -0.144509 0.111870
v -0.386337 -0.172996 0.057954
v -0.386346 -0.117437 0.059070
v -0.385911 -0.081195 0.119023
v -0.386326 -0.065655 0.059584
v -0.385871 -0.017730 0.124669
v -0.386331 -0.015642 0.059679
v -0.385843 0.045851 0.128807
v -0.386328 0.034371 0.059632
v -0.386330 0.086149 0.058995
v -0.385824 0.109513 0.131433
v -0.386323 0.141705 0.058134
v -0.385816 0.173219 0.132547
v -0.386336 0.160828 0.057528
v -0.386343 0.172282 0.057165
v -0.386353 0.198065 0.056330
v -0.385819 0.236934 0.132147
v -0.386362 0.203692 0.056147
v -0.386357 0.211900 0.055803
v -0.386371 0.275855 0.053120
v -0.385833 0.300621 0.130234
v -0.386395 0.321172 0.050760
v -0.385857 0.364245 0.126810
v -0.386395 0.322232 0.050702
v -0.386405 0.364245 0.048282
v -0.386405 0.364245 0.048282
v -0.386395 0.322232 0.050702
v -0.385857 0.364245 0.126810
v -0.386395 0.321172 0.050760
v -0.385833 0.300621 0.130234
v -0.386371 0.275855 0.053120
v -0.385819 0.236934 0.132147
v -0.386357 0.211900 0.055803
v -0.386362 0.203692 0.056147
v -0.386353 0.198065 0.056330
v -0.385816 0.173219 0.132547
v -0.386343 0.172282 0.057165
v -0.386336 0.160828 0.057528
v -0.386323 0.141705 0.058134
v -0.385824 0.109513 0.131433
v -0.386330 0.086149 0.058995
v -0.385843 0.045851 0.128807
v -0.386328 0.034371 0.059632
v -0.386331 -0.015642 0.059679
v -0.385871 -0.017730 0.124669
v -0.386326 -0.065655 0.059584
v -0.385911 -0.081195 0.119023
v -0.386346 -0.117437 0.059070
v -0.385961 -0.144509 0.111870
v -0.386337 -0.172996 0.057954
v -0.386331 -0.203617 0.057297
v -0.386021 -0.207634 0.103217
v -0.386350 -0.234969 0.056125
v -0.386092 -0.270536 0.093066
v -0.386371 -0.307139 0.053120
v -0.386173 -0.333179 0.081424
v -0.386387 -0.352479 0.050880
v -0.386387 -0.353538 0.050819
v -0.386265 -0.395528 0.068298
v -0.386405 -0.395528 0.048282
v -0.385857 0.364245 0.126810
v -0.344376 0.364252 0.050409
v -0.386405 0.364245 0.048282
v -0.343316 0.364252 0.050459
v -0.297984 0.364245 0.052503
v -0.225795 0.364245 0.055004
v -0.194435 0.364233 0.055958
v -0.163810 0.364245 0.056400
v -0.108245 0.364260 0.057128
v -0.056461 0.364245 0.057281
v -0.006448 0.364245 0.057123
v 0.331364 0.364248 0.045734
v 0.373897 0.364245 0.121506
v 0.373349 0.364245 0.042978
v 0.330305 0.364248 0.045801
v 0.284992 0.364242 0.048616
v 0.212849 0.364245 0.051941
v 0.181473 0.364240 0.053309
v 0.150890 0.364245 0.054203
v 0.095335 0.364245 0.055633
v 0.043562 0.364239 0.056679
v -0.385857 0.364245 0.126810
v -0.006448 0.364245 0.057123
v 0.373897 0.364245 0.121506
v 0.043562 0.364239 0.056679
v 0.095335 0.364245 0.055633
v 0.150890 0.364245 0.054203
v 0.181473 0.364240 0.053309
v 0.212849 0.364245 0.051941
v 0.284992 0.364242 0.048616
v 0.330305 0.364248 0.045801
v 0.331364 0.364248 0.045734
v 0.373349 0.364245 0.042978
v -0.056461 0.364245 0.057281
v -0.108245 0.364260 0.057128
v -0.163810 0.364245 0.056400
v -0.194435 0.364233 0.055958
v -0.225795 0.364245 0.055004
v -0.297984 0.364245 0.052503
v -0.343316 0.364252 0.050459
v -0.344376 0.364252 0.050409
v -0.386405 0.364245 0.048282
v -0.385819 0.236934 0.132147
v 0.373935 0.236934 0.126843
v 0.373935 0.236934 0.126843
v -0.385819 0.236934 0.132147
v 0.373581 -0.333179 0.076120
v -0.386265 -0.395528 0.068298
v -0.386173 -0.333179 0.081424
v 0.373489 -0.395528 0.062994
v 0.373489 -0.395528 0.062994
v 0.373581 -0.333179 0.076120
v -0.386265 -0.395528 0.068298
v -0.386173 -0.333179 0.081424
v 0.330305 -0.395524 0.045801
v 0.331364 -0.395524 0.045734
v 0.330913 -0.395917 0.045717
v -0.386265 -0.395528 0.068298
v -0.344376 -0.395521 0.050409
v -0.386405 -0.395528 0.048282
v -0.343316 -0.395521 0.050459
v -0.297984 -0.395528 0.052503
v -0.225795 -0.395528 0.055004
v -0.194435 -0.395539 0.055958
v -0.163810 -0.395528 0.056400
v -0.108245 -0.395512 0.057128
v -0.085346 -0.395522 0.057196
v -0.056461 -0.395528 0.057281
v -0.006448 -0.395528 0.057123
v 0.373489 -0.395528 0.062994
v 0.373349 -0.395528 0.042978
v 0.284992 -0.395531 0.048616
v 0.212849 -0.395528 0.051941
v 0.181473 -0.395532 0.053309
v 0.150890 -0.395528 0.054203
v 0.095335 -0.395528 0.055633
v 0.072445 -0.395534 0.056095
v 0.043562 -0.395534 0.056679
v -0.386265 -0.395528 0.068298
v -0.006448 -0.395528 0.057123
v 0.373489 -0.395528 0.062994
v 0.043562 -0.395534 0.056679
v 0.072445 -0.395534 0.056095
v 0.095335 -0.395528 0.055633
v 0.150890 -0.395528 0.054203
v 0.181473 -0.395532 0.053309
v 0.212849 -0.395528 0.051941
v 0.284992 -0.395531 0.048616
v 0.330305 -0.395524 0.045801
v 0.331364 -0.395524 0.045734
v 0.373349 -0.395528 0.042978
v -0.056461 -0.395528 0.057281
v -0.085346 -0.395522 0.057196
v -0.108245 -0.395512 0.057128
v -0.163810 -0.395528 0.056400
v -0.194435 -0.395539 0.055958
v -0.225795 -0.395528 0.055004
v -0.297984 -0.395528 0.052503
v -0.343316 -0.395521 0.050459
v -0.344376 -0.395521 0.050409
v -0.386405 -0.395528 0.048282
v 0.330913 -0.395917 0.045717
v -0.385816 0.173219 0.132547
v 0.373937 0.173219 0.127243
v 0.373937 0.173219 0.127243
v -0.385816 0.173219 0.132547
v -0.385824 0.109513 0.131433
v 0.373930 0.109513 0.126129
v 0.373930 0.109513 0.126129
v -0.385824 0.109513 0.131433
v -0.385843 0.045851 0.128807
v 0.373911 0.045851 0.123503
v 0.373911 0.045851 0.123503
v -0.385843 0.045851 0.128807
v -0.385871 -0.017730 0.124669
v 0.373882 -0.017730 0.119365
v 0.373882 -0.017730 0.119365
v -0.385871 -0.017730 0.124669
v -0.385911 -0.081195 0.119023
v 0.373843 -0.081195 0.113718
v 0.373843 -0.081195 0.113718
v -0.385911 -0.081195 0.119023
v -0.385961 -0.144509 0.111870
v 0.373793 -0.144509 0.106566
v 0.373793 -0.144509 0.106566
v -0.385961 -0.144509 0.111870
v -0.386021 -0.207634 0.103217
v 0.373733 -0.207634 0.097912
v 0.373733 -0.207634 0.097912
v -0.386021 -0.207634 0.103217
v -0.386092 -0.270536 0.093066
v 0.373662 -0.270536 0.087762
v 0.373662 -0.270536 0.087762
v -0.386092 -0.270536 0.093066
vn -0.006971168009751029 -0.053750918625045885 -0.9985300403911459
vn -0.0069751328456848 -0.041888299999284034 -0.99909795207725
vn 0.0069751328456848 0.041888299999284034 0.99909795207725
vn 0.006971168009751029 0.053750918625045885 0.9985300403911459
vn 0.9999754415007006 0.000004092970998470394 -0.007008307836193638
vn -0.9999754415007006 -0.000004092970998470394 0.007008307836193638
vn 0.0000028431729768900863 1 0.0000197088613566246
vn -0.0000028431729768900863 -1 -0.0000197088613566246
vn -0.0069801106887076875 -0.01814702053115439 -0.9998109639829998
vn 0.0069801106887076875 0.01814702053115439 0.9998109639829998
vn -0.0068481025581323424 0.19437950075446384 -0.9809024993228423
vn -0.006831503689577983 0.20601529404455857 -0.9785249251690389
vn 0.006831503689577983 -0.20601529404455857 0.9785249251690389
vn 0.0068481025581323424 -0.19437950075446384 0.9809024993228423
vn 0.00005994714569551975 0.999995793298265 -0.0028999641572774065
vn -0.00005994714569551975 -0.999995793298265 0.0028999641572774065
vn -0.006981150655033234 0.005604497970172072 -0.9999599257660449
vn 0.006981150655033234 -0.005604497970172072 0.9999599257660449
vn -0.006978252158473323 0.029352850359896415 -0.9995447534615758
vn 0.006978252158473323 -0.029352850359896415 0.9995447534615758
vn -0.006971416831920762 0.053084650844958545 -0.9985656809604586
vn 0.006971416831920762 -0.053084650844958545 0.9985656809604586
vn -0.006960648535342157 0.07678649680383867 -0.9970232611531998
vn 0.006960648535342157 -0.07678649680383867 0.9970232611531998
vn -0.006945953357859295 0.10044500123950355 -0.9949183662280774
vn 0.006945953357859295 -0.10044500123950355 0.9949183662280774
vn -0.0069273395332264944 0.12404689457936373 -0.9922521755643611
vn 0.0069273395332264944 -0.12404689457936373 0.9922521755643611
vn -0.006904817598515563 0.14757880013728314 -0.9890261984618868
vn 0.006904817598515563 -0.14757880013728314 0.9890261984618868
vn -0.006878400319243511 0.17102739542788636 -0.9852422634165678
vn 0.006878400319243511 -0.17102739542788636 0.9852422634165678
usemtl material_0_0
f 1//1 2//2 3//1
f 2//2 1//1 4//2
f 5//3 6//4 7//3
f 8//4 7//3 6//4
f 9//5 10//5 11//5
f 10//5 9//5 12//5
f 12//5 9//5 13//5
f 12//5 13//5 14//5
f 12//5 14//5 15//5
f 15//5 14//5 16//5
f 15//5 16//5 17//5
f 17//5 16//5 18//5
f 17//5 18//5 19//5
f 19//5 18//5 20//5
f 19//5 20//5 21//5
f 19//5 21//5 22//5
f 22//5 21//5 23//5
f 22//5 23//5 24//5
f 24//5 23//5 25//5
f 24//5 25//5 26//5
f 26//5 25//5 27//5
f 26//5 27//5 28//5
f 26//5 28//5 29//5
f 29//5 28//5 30//5
f 29//5 30//5 31//5
f 31//5 30//5 32//5
f 31//5 32//5 33//5
f 31//5 33//5 34//5
f 31//5 34//5 35//5
f 35//5 34//5 36//5
f 35//5 36//5 37//5
f 35//5 37//5 38//5
f 35//5 38//5 39//5
f 39//5 38//5 40//5
f 39//5 40//5 41//5
f 41//5 40//5 42//5
f 41//5 42//5 43//5
f 44//6 45//6 46//6
f 45//6 47//6 46//6
f 46//6 47//6 48//6
f 47//6 49//6 48//6
f 48//6 49//6 50//6
f 49//6 51//6 50//6
f 51//6 52//6 50//6
f 52//6 53//6 50//6
f 50//6 53//6 54//6
f 53//6 55//6 54//6
f 55//6 56//6 54//6
f 56//6 57//6 54//6
f 54//6 57//6 58//6
f 57//6 59//6 58//6
f 58//6 59//6 60//6
f 59//6 61//6 60//6
f 61//6 62//6 60//6
f 60//6 62//6 63//6
f 62//6 64//6 63//6
f 63//6 64//6 65//6
f 64//6 66//6 65//6
f 65//6 66//6 67//6
f 66//6 68//6 67//6
f 68//6 69//6 67//6
f 67//6 69//6 70//6
f 69//6 71//6 70//6
f 70//6 71//6 72//6
f 71//6 73//6 72//6
f 72//6 73//6 74//6
f 73//6 75//6 74//6
f 75//6 76//6 74//6
f 74//6 76//6 77//6
f 78//6 77//6 76//6
f 79//7 80//7 81//7
f 80//7 79//7 82//7
f 82//7 79//7 83//7
f 83//7 79//7 84//7
f 84//7 79//7 85//7
f 85//7 79//7 86//7
f 86//7 79//7 87//7
f 87//7 79//7 88//7
f 88//7 79//7 89//7
f 90//7 91//7 92//7
f 91//7 90//7 93//7
f 91//7 93//7 94//7
f 91//7 94//7 95//7
f 91//7 95//7 96//7
f 91//7 96//7 97//7
f 91//7 97//7 98//7
f 91//7 98//7 99//7
f 91//7 99//7 89//7
f 91//7 89//7 79//7
f 100//8 101//8 102//8
f 101//8 103//8 102//8
f 103//8 104//8 102//8
f 104//8 105//8 102//8
f 105//8 106//8 102//8
f 106//8 107//8 102//8
f 107//8 108//8 102//8
f 108//8 109//8 102//8
f 109//8 110//8 102//8
f 111//8 102//8 110//8
f 101//8 100//8 112//8
f 112//8 100//8 113//8
f 113//8 100//8 114//8
f 114//8 100//8 115//8
f 115//8 100//8 116//8
f 116//8 100//8 117//8
f 117//8 100//8 118//8
f 118//8 100//8 119//8
f 120//8 119//8 100//8
f 4//2 121//9 2//2
f 121//9 4//2 122//9
f 123//10 5//3 124//10
f 7//3 124//10 5//3
f 125//11 126//12 127//11
f 126//12 125//11 128//12
f 129//13 130//14 131//13
f 132//14 131//13 130//14
f 133//15 134//15 135//15
f 136//15 137//15 138//15
f 137//15 136//15 139//15
f 139//15 136//15 140//15
f 140//15 136//15 141//15
f 141//15 136//15 142//15
f 142//15 136//15 143//15
f 143//15 136//15 144//15
f 144//15 136//15 145//15
f 145//15 136//15 146//15
f 146//15 136//15 147//15
f 134//15 148//15 149//15
f 148//15 134//15 133//15
f 148//15 133//15 150//15
f 148//15 150//15 151//15
f 148//15 151//15 152//15
f 148//15 152//15 153//15
f 148//15 153//15 154//15
f 148//15 154//15 155//15
f 148//15 155//15 156//15
f 148//15 156//15 147//15
f 148//15 147//15 136//15
f 157//16 158//16 159//16
f 158//16 160//16 159//16
f 160//16 161//16 159//16
f 161//16 162//16 159//16
f 162//16 163//16 159//16
f 163//16 164//16 159//16
f 164//16 165//16 159//16
f 165//16 166//16 159//16
f 166//16 167//16 159//16
f 167//16 168//16 159//16
f 169//16 159//16 168//16
f 158//16 157//16 170//16
f 170//16 157//16 171//16
f 171//16 157//16 172//16
f 172//16 157//16 173//16
f 173//16 157//16 174//16
f 174//16 157//16 175//16
f 175//16 157//16 176//16
f 176//16 157//16 177//16
f 177//16 157//16 178//16
f 179//16 178//16 157//16
f 180//16 168//16 167//16
f 122//9 181//17 121//9
f 181//17 122//9 182//17
f 183//18 123//10 184//18
f 124//10 184//18 123//10
f 182//17 185//19 181//17
f 185//19 182//17 186//19
f 187//20 183//18 188//20
f 184//18 188//20 183//18
f 186//19 189//21 185//19
f 189//21 186//19 190//21
f 191//22 187//20 192//22
f 188//20 192//22 187//20
f 190//21 193//23 189//21
f 193//23 190//21 194//23
f 195//24 191//22 196//24
f 192//22 196//24 191//22
f 194//23 197//25 193//23
f 197//25 194//23 198//25
f 199//26 195//24 200//26
f 196//24 200//26 195//24
f 198//25 201//27 197//25
f 201//27 198//25 202//27
f 203//28 199//26 204//28
f 200//26 204//28 199//26
f 202//27 205//29 201//27
f 205//29 202//27 206//29
f 207//30 203//28 208//30
f 204//28 208//30 203//28
f 206//29 209//31 205//29
f 209//31 206//29 210//31
f 211//32 207//30 212//32
f 208//30 212//32 207//30
f 210//31 127//11 209//31
f 127//11 210//31 125//11
f 130//14 211//32 132//14
f 212//32 132//14 211//32
