# SSTK version 0.8.0
# 10
mtllib original-10.mtl
o #ID265
v 0.155402 0.465544 0.047052
v 0.122427 0.465547 0.048123
v 0.125173 0.475817 0.047309
v 0.125173 0.475817 0.047309
v 0.122427 0.465547 0.048123
v 0.155402 0.465544 0.047052
v 0.125354 0.476493 0.047249
v 0.155402 0.465544 0.047052
v 0.125173 0.475817 0.047309
v 0.157575 0.465544 0.046978
v 0.157575 0.465544 0.046978
v 0.125354 0.476493 0.047249
v 0.155402 0.465544 0.047052
v 0.125173 0.475817 0.047309
v 0.125354 0.476493 0.047249
v 0.155402 0.465544 0.047052
v 0.125173 0.475817 0.047309
v 0.157575 0.465544 0.046978
v 0.157575 0.465544 0.046978
v 0.125354 0.476493 0.047249
v 0.155402 0.465544 0.047052
v 0.125173 0.475817 0.047309
v 0.059991 0.489495 0.047705
v 0.059900 0.488801 0.047764
v 0.125354 0.476493 0.047249
v 0.125354 0.476493 0.047249
v 0.059991 0.489495 0.047705
v 0.059900 0.488801 0.047764
v -0.006510 0.493154 0.048228
v -0.006510 0.493854 0.048170
v -0.006510 0.493154 0.048228
v -0.006510 0.493854 0.048170
v -0.072919 0.488801 0.048692
v -0.073011 0.489495 0.048634
v -0.072919 0.488801 0.048692
v -0.073011 0.489495 0.048634
v -0.138193 0.475817 0.049147
v -0.138374 0.476493 0.049090
v -0.138193 0.475817 0.049147
v -0.138374 0.476493 0.049090
v -0.138374 0.476493 0.049090
v -0.168597 0.465572 0.049566
v -0.170747 0.465580 0.049411
v -0.138193 0.475817 0.049147
v -0.138193 0.475817 0.049147
v -0.138374 0.476493 0.049090
v -0.168597 0.465572 0.049566
v -0.170747 0.465580 0.049411
v -0.138374 0.476493 0.049090
v -0.168597 0.465572 0.049566
v -0.170747 0.465580 0.049411
v -0.138193 0.475817 0.049147
v -0.138193 0.475817 0.049147
v -0.138374 0.476493 0.049090
v -0.168597 0.465572 0.049566
v -0.170747 0.465580 0.049411
v -0.135435 0.465547 0.049923
v -0.168597 0.465572 0.049566
v -0.168597 0.465572 0.049566
v -0.135435 0.465547 0.049923
vn -0.03238507480774629 -0.07038313897603998 -0.9969941929006287
vn -0.02667427389038917 -0.07400995211617531 -0.9969007022267474
vn -0.02596912758331975 -0.0763051582757888 -0.9967462702378517
vn -0.0343659252534516 -0.07636900330912379 -0.9964872094086533
vn -0.01833699706499697 -0.08645953311460423 -0.9960865944646795
vn -0.017135033364482893 -0.07890481115587655 -0.9967348802003737
vn -0.028203226367150443 -0.08591629144262604 -0.9959030921165116
vn -0.006960272287705094 -0.07866917823297483 -0.996876479312171
vn -0.006954664044419187 -0.08720558318312471 -0.9961660599065402
vn 0.0032170437479651973 -0.07890983114566473 -0.9968765666711633
vn 0.0044276689827207625 -0.08645953311460423 -0.9962455243969651
vn 0.009528228042469748 -0.07698336254308151 -0.9969868478379899
vn 0.014347779995932598 -0.08613944259117413 -0.9961797717476852
vn 0.04248099461774546 -0.16035979266504297 -0.9861440574240214
vn 0.00951200070061232 -0.0748869269006586 -0.9971466642485682
vn 0.010671995077081562 -0.07247183664939061 -0.9973133616941761
vn 0.02596912758331975 0.0763051582757888 0.9967462702378517
vn 0.02667427389038917 0.07400995211617531 0.9969007022267474
vn 0.03238507480774629 0.07038313897603998 0.9969941929006287
vn 0.0343659252534516 0.07636900330912379 0.9964872094086533
vn 0.028203226367150443 0.08591629144262604 0.9959030921165116
vn 0.01833699706499697 0.08645953311460423 0.9960865944646795
vn 0.017135033364482893 0.07890481115587655 0.9967348802003737
vn 0.006960272287705094 0.07866917823297483 0.996876479312171
vn 0.006954664044419187 0.08720558318312471 0.9961660599065402
vn -0.0032170437479651973 0.07890983114566473 0.9968765666711633
vn -0.0044276689827207625 0.08645953311460423 0.9962455243969651
vn -0.009528228042469748 0.07698336254308151 0.9969868478379899
vn -0.014347779995932598 0.08613944259117413 0.9961797717476852
vn -0.04248099461774546 0.16035979266504297 0.9861440574240214
vn -0.010671995077081562 0.07247183664939061 0.9973133616941761
vn -0.00951200070061232 0.0748869269006586 0.9971466642485682
usemtl material_0_0
f 4//17 5//18 6//19
f 11//20 12//20 13//20
f 14//20 13//20 12//20
f 19//20 20//20 21//20
f 22//20 21//20 20//20
f 26//21 27//22 4//17
f 28//23 4//17 27//22
f 28//23 27//22 31//24
f 32//25 31//24 27//22
f 31//24 32//25 35//26
f 36//27 35//26 32//25
f 35//26 36//27 39//28
f 40//29 39//28 36//27
f 45//30 46//30 47//30
f 48//30 47//30 46//30
f 53//30 54//30 55//30
f 56//30 55//30 54//30
f 39//28 59//31 60//32
usemtl material_1_0
f 1//1 2//2 3//3
f 7//4 8//4 9//4
f 8//4 7//4 10//4
f 15//4 16//4 17//4
f 16//4 15//4 18//4
f 23//5 3//3 24//6
f 3//3 23//5 25//7
f 23//5 29//8 30//9
f 29//8 23//5 24//6
f 30//9 33//10 34//11
f 33//10 30//9 29//8
f 34//11 37//12 38//13
f 37//12 34//11 33//10
f 41//14 42//14 43//14
f 42//14 41//14 44//14
f 49//14 50//14 51//14
f 50//14 49//14 52//14
f 57//15 58//16 37//12
