# SSTK version 0.8.0
# 32
mtllib original-32.mtl
o #ID399
v 0.303218 -0.419296 0.046066
v 0.303644 -0.419852 0.046004
v 0.303218 -0.419852 0.046066
v 0.303644 -0.419296 0.046004
v 0.303644 -0.419296 0.046004
v 0.303218 -0.419296 0.046066
v 0.303644 -0.419852 0.046004
v 0.303218 -0.419852 0.046066
v 0.247882 -0.456272 0.046452
v 0.188461 -0.486354 0.046809
v 0.188193 -0.485707 0.046869
v 0.248232 -0.456878 0.046391
v 0.303218 -0.419296 0.046066
v 0.303218 -0.419852 0.046066
v 0.303218 -0.419852 0.046066
v 0.303218 -0.419296 0.046066
v 0.248232 -0.456878 0.046391
v 0.247882 -0.456272 0.046452
v 0.188461 -0.486354 0.046809
v 0.188193 -0.485707 0.046869
v 0.303218 -0.419296 0.046066
v 0.303644 -0.419852 0.046004
v 0.303218 -0.419852 0.046066
v 0.303644 -0.419296 0.046004
v 0.303644 -0.419296 0.046004
v 0.303218 -0.419296 0.046066
v 0.303644 -0.419852 0.046004
v 0.303218 -0.419852 0.046066
v 0.303218 -0.419296 0.046066
v 0.303644 -0.419852 0.046004
v 0.303218 -0.419852 0.046066
v 0.303644 -0.419296 0.046004
v 0.303644 -0.419296 0.046004
v 0.303218 -0.419296 0.046066
v 0.303644 -0.419852 0.046004
v 0.303218 -0.419852 0.046066
v 0.157575 -0.496835 0.046978
v 0.155402 -0.496835 0.047052
v 0.157575 -0.496835 0.046978
v 0.155402 -0.496835 0.047052
vn -0.011307743688787382 0 -0.9999360654225192
vn -0.025825123108909654 0.033666831440526956 -0.9990993981967784
vn -0.03158627688542146 0.06449052083966436 -0.9974183073487002
vn -0.028069788447383705 0.05542544155659591 -0.9980681877531092
vn -0.03179954531384868 0.043291108226228385 -0.9985562922872088
vn -0.032442520767276266 0.0402648288455325 -0.9986622183723106
vn -0.035391022714362695 0.043146488121945326 -0.9984417139092169
vn -0.009298914097903874 0 -0.999956764163631
vn -0.14230826967772123 0 -0.9898223862801513
vn -0.033249399431930796 0.0817145361746844 -0.9961010049262936
vn -0.03122850492673306 0.07202704003939883 -0.9969136803069781
vn 0.011307743688787382 0 0.9999360654225192
vn 0.035391022714362695 -0.043146488121945326 0.9984417139092169
vn 0.032442520767276266 -0.0402648288455325 0.9986622183723106
vn 0.03179954531384868 -0.043291108226228385 0.9985562922872088
vn 0.025825123108909654 -0.033666831440526956 0.9990993981967784
vn 0.03158627688542146 -0.06449052083966436 0.9974183073487002
vn 0.028069788447383705 -0.05542544155659591 0.9980681877531092
vn 0.009298914097903874 0 0.999956764163631
vn 0.14230826967772123 0 0.9898223862801513
vn 0.033249399431930796 -0.0817145361746844 0.9961010049262936
vn 0.03122850492673306 -0.07202704003939883 0.9969136803069781
usemtl material_0_0
f 5//12 6//12 7//12
f 8//12 7//12 6//12
f 15//13 16//14 17//15
f 16//14 18//16 17//15
f 17//15 18//16 19//17
f 20//18 19//17 18//16
f 25//19 26//19 27//19
f 28//19 27//19 26//19
f 33//20 34//20 35//20
f 36//20 35//20 34//20
f 19//17 20//18 39//21
f 40//22 39//21 20//18
usemtl material_1_0
f 1//1 2//1 3//1
f 2//1 1//1 4//1
f 9//2 10//3 11//4
f 10//3 9//2 12//5
f 12//5 9//2 13//6
f 12//5 13//6 14//7
f 21//8 22//8 23//8
f 22//8 21//8 24//8
f 29//9 30//9 31//9
f 30//9 29//9 32//9
f 11//4 37//10 38//11
f 37//10 11//4 10//3
