# SSTK version 0.8.0
# 28
mtllib original-28.mtl
o #ID375
v 0.373411 0.172282 0.051861
v 0.373431 0.141705 0.052829
v 0.373414 0.159277 0.052273
v 0.385929 0.146898 0.051774
v 0.385929 0.146898 0.051774
v 0.373411 0.172282 0.051861
v 0.373431 0.141705 0.052829
v 0.373414 0.159277 0.052273
vn -0.07370534366880394 -0.032713481268670096 -0.9967433724173679
vn -0.06699312301597259 -0.02278582023262506 -0.9974932219643867
vn -0.07106314586312251 -0.0316164413080081 -0.9969706264173755
vn -0.07204529738231433 -0.026592139349390784 -0.997046805947402
vn 0.07204529738231433 0.026592139349390784 0.997046805947402
vn 0.07370534366880394 0.032713481268670096 0.9967433724173679
vn 0.06699312301597259 0.02278582023262506 0.9974932219643867
vn 0.07106314586312251 0.0316164413080081 0.9969706264173755
usemtl material_0_0
f 5//5 6//6 7//7
f 8//8 7//7 6//6
usemtl material_1_0
f 1//1 2//2 3//3
f 2//2 1//1 4//4
