# SSTK version 0.8.0
# 36
mtllib original-36.mtl
o #ID423
v -0.510940 0.050769 0.051750
v -0.487685 -0.015642 0.053495
v -0.515293 -0.015642 0.051780
v -0.487675 0.047708 0.053341
v -0.487675 0.047708 0.053341
v -0.510940 0.050769 0.051750
v -0.487685 -0.015642 0.053495
v -0.515293 -0.015642 0.051780
v -0.497956 0.116044 0.051659
v -0.487682 0.113293 0.052382
v -0.487682 0.113293 0.052382
v -0.497956 0.116044 0.051659
v -0.510940 -0.082053 0.051750
v -0.487685 -0.078991 0.053495
v -0.487657 -0.048660 0.053493
v -0.487657 -0.048660 0.053493
v -0.487685 -0.078991 0.053495
v -0.510940 -0.082053 0.051750
v -0.497956 -0.147328 0.051659
v -0.487682 -0.144576 0.052382
v -0.487682 -0.144576 0.052382
v -0.497956 -0.147328 0.051659
vn 0.07050816117091417 -0.009995015832007664 -0.9974611264940676
vn 0.06585857463081377 -0.0005310182180219462 -0.9978288260855415
vn 0.07111117742308849 -0.0002548775025331574 -0.9974683631489074
vn 0.06529077435948022 -0.0086396605700186 -0.997828878640408
vn -0.06529077435948022 0.0086396605700186 0.997828878640408
vn -0.07050816117091417 0.009995015832007664 0.9974611264940676
vn -0.06585857463081377 0.0005310182180219462 0.9978288260855415
vn -0.07111117742308849 0.0002548775025331574 0.9974683631489074
vn 0.06876309175676819 -0.02024237946104622 -0.9974276331071871
vn 0.06527363740467415 -0.01851019004244696 -0.9976957076807316
vn -0.06527363740467415 0.01851019004244696 0.9976957076807316
vn -0.06876309175676819 0.02024237946104622 0.9974276331071871
vn 0.07246244482547123 0.010145789520760121 -0.9973195360790422
vn 0.06926995114155783 0.00883688509396155 -0.9975588119658322
vn 0.06730267953554621 0.0025521949190777187 -0.997729339865492
vn -0.06730267953554621 -0.0025521949190777187 0.997729339865492
vn -0.06926995114155783 -0.00883688509396155 0.9975588119658322
vn -0.07246244482547123 -0.010145789520760121 0.9973195360790422
vn 0.06983884102645814 0.0213423297580475 -0.9973299560549557
vn 0.06819283060691002 0.02007595934014636 -0.9974701467765289
vn -0.06819283060691002 -0.02007595934014636 0.9974701467765289
vn -0.06983884102645814 -0.0213423297580475 0.9973299560549557
usemtl material_0_0
f 1//1 2//2 3//3
f 2//2 1//1 4//4
f 5//5 6//6 7//7
f 8//8 7//7 6//6
f 9//9 4//4 1//1
f 4//4 9//9 10//10
f 11//11 12//12 5//5
f 6//6 5//5 12//12
f 2//2 13//13 3//3
f 13//13 2//2 14//14
f 14//14 2//2 15//15
f 16//16 7//7 17//17
f 17//17 7//7 18//18
f 8//8 18//18 7//7
f 14//14 19//19 13//13
f 19//19 14//14 20//20
f 21//21 17//17 22//22
f 18//18 22//22 17//17
