# SSTK version 0.8.0
# 39
mtllib original-39.mtl
o #ID441
v -0.487682 -0.144576 0.052382
v -0.487691 -0.177558 0.051542
v -0.497956 -0.147328 0.051659
v -0.497956 -0.147328 0.051659
v -0.487691 -0.177558 0.051542
v -0.487682 -0.144576 0.052382
v -0.487692 -0.179731 0.051483
v -0.498633 -0.147509 0.051605
v -0.487692 -0.179731 0.051483
v -0.498633 -0.147509 0.051605
v -0.510940 -0.082053 0.051750
v -0.511635 -0.082144 0.051696
v -0.510940 -0.082053 0.051750
v -0.511635 -0.082144 0.051696
v -0.515293 -0.015642 0.051780
v -0.515993 -0.015642 0.051727
v -0.515293 -0.015642 0.051780
v -0.515993 -0.015642 0.051727
v -0.511635 0.050861 0.051696
v -0.510940 0.050769 0.051750
v -0.510940 0.050769 0.051750
v -0.511635 0.050861 0.051696
v -0.498633 0.116225 0.051605
v -0.497956 0.116044 0.051659
v -0.497956 0.116044 0.051659
v -0.498633 0.116225 0.051605
v -0.487687 0.148472 0.051532
v -0.487687 0.146297 0.051587
v -0.487687 0.146297 0.051587
v -0.487687 0.148472 0.051532
v -0.487682 0.113293 0.052382
v -0.487682 0.113293 0.052382
vn 0.06819283060691002 0.02007595934014636 -0.9974701467765289
vn 0.06880860705180931 0.0271920887378384 -0.9972592270346077
vn 0.06983884102645814 0.0213423297580475 -0.9973299560549557
vn 0.07831675556941307 0.02911507858955531 -0.9965032854917262
vn 0.07667986819815165 0.022723849283468617 -0.9967967819404597
vn 0.07246244482547123 0.010145789520760121 -0.9973195360790422
vn 0.07950276211563231 0.01138261041004544 -0.9967696559367356
vn 0.07111117742308849 -0.0002548775025331574 -0.9974683631489074
vn 0.0802487940001177 0 -0.9967748647821768
vn 0.07950276211563231 -0.011382610410045218 -0.9967696559367356
vn 0.07050816117091417 -0.009995015832007664 -0.9974611264940676
vn 0.07709584984349178 -0.022142818986598933 -0.9967777713734574
vn 0.06876309175676819 -0.02024237946104622 -0.9974276331071871
vn 0.07948052753559326 -0.02811655881944574 -0.9964398149726938
vn 0.06918190368505844 -0.025803480440303186 -0.997270296659676
vn 0.06527363740467415 -0.01851019004244696 -0.9976957076807316
vn -0.06983884102645814 -0.0213423297580475 0.9973299560549557
vn -0.06880860705180931 -0.0271920887378384 0.9972592270346077
vn -0.06819283060691002 -0.02007595934014636 0.9974701467765289
vn -0.07831675556941307 -0.02911507858955531 0.9965032854917262
vn -0.07667986819815165 -0.022723849283468617 0.9967967819404597
vn -0.07246244482547123 -0.010145789520760121 0.9973195360790422
vn -0.07950276211563231 -0.01138261041004544 0.9967696559367356
vn -0.07111117742308849 0.0002548775025331574 0.9974683631489074
vn -0.0802487940001177 0 0.9967748647821768
vn -0.07050816117091417 0.009995015832007664 0.9974611264940676
vn -0.07950276211563231 0.011382610410045218 0.9967696559367356
vn -0.06876309175676819 0.02024237946104622 0.9974276331071871
vn -0.07709584984349178 0.022142818986598933 0.9967777713734574
vn -0.06918190368505844 0.025803480440303186 0.997270296659676
vn -0.07948052753559326 0.02811655881944574 0.9964398149726938
vn -0.06527363740467415 0.01851019004244696 0.9976957076807316
usemtl material_0_0
f 4//17 5//18 6//19
f 5//18 4//17 9//20
f 10//21 9//20 4//17
f 4//17 13//22 10//21
f 14//23 10//21 13//22
f 13//22 17//24 14//23
f 18//25 14//23 17//24
f 21//26 22//27 17//24
f 18//25 17//24 22//27
f 25//28 26//29 21//26
f 22//27 21//26 26//29
f 29//30 30//31 25//28
f 26//29 25//28 30//31
f 29//30 25//28 32//32
usemtl material_1_0
f 1//1 2//2 3//3
f 3//3 7//4 8//5
f 7//4 3//3 2//2
f 11//6 8//5 12//7
f 8//5 11//6 3//3
f 15//8 12//7 16//9
f 12//7 15//8 11//6
f 19//10 15//8 16//9
f 15//8 19//10 20//11
f 23//12 20//11 19//10
f 20//11 23//12 24//13
f 27//14 24//13 23//12
f 24//13 27//14 28//15
f 31//16 24//13 28//15
