# SSTK version 0.8.0
# 4
mtllib original-4.mtl
o #ID229
v 0.474548 -0.496831 0.027678
v 0.471727 -0.496832 0.027917
v 0.473232 -0.495514 0.027920
v 0.473232 -0.495514 0.027920
v 0.471727 -0.496832 0.027917
v 0.474548 -0.496831 0.027678
v 0.413545 -0.435761 0.037488
v 0.362638 -0.496821 0.036607
v 0.355116 -0.487004 0.037896
v 0.413545 -0.435761 0.037488
v 0.362638 -0.496821 0.036607
v 0.355116 -0.487004 0.037896
v 0.330913 -0.395917 0.045717
v 0.303644 -0.419852 0.046004
v 0.331364 -0.395524 0.045734
v 0.373349 -0.395528 0.042978
v 0.373349 -0.395528 0.042978
v 0.331364 -0.395524 0.045734
v 0.330913 -0.395917 0.045717
v 0.303644 -0.419852 0.046004
v 0.464786 -0.377331 0.037131
v 0.474604 -0.384871 0.035720
v 0.474550 -0.494012 0.027911
v 0.474550 -0.494012 0.027911
v 0.474604 -0.384871 0.035720
v 0.464786 -0.377331 0.037131
v 0.397690 -0.325803 0.045348
v 0.373367 -0.353538 0.045515
v 0.397690 -0.325803 0.045348
v 0.373367 -0.353538 0.045515
v 0.303644 -0.419852 0.046004
v 0.271269 -0.496831 0.042007
v 0.248232 -0.456878 0.046391
v 0.340408 -0.496831 0.037999
v 0.355116 -0.487004 0.037896
v 0.355116 -0.487004 0.037896
v 0.303644 -0.419852 0.046004
v 0.340408 -0.496831 0.037999
v 0.271269 -0.496831 0.042007
v 0.248232 -0.456878 0.046391
v 0.303218 -0.419852 0.046066
v 0.271269 -0.496831 0.042007
v 0.248232 -0.456878 0.046391
v 0.340408 -0.496831 0.037999
v 0.303644 -0.419852 0.046004
v 0.355116 -0.487004 0.037896
v 0.355116 -0.487004 0.037896
v 0.303644 -0.419852 0.046004
v 0.340408 -0.496831 0.037999
v 0.303218 -0.419852 0.046066
v 0.271269 -0.496831 0.042007
v 0.248232 -0.456878 0.046391
v 0.434715 -0.270390 0.045089
v 0.474638 -0.293456 0.040587
v 0.474627 -0.362671 0.037185
v 0.474627 -0.362671 0.037185
v 0.474638 -0.293456 0.040587
v 0.434715 -0.270390 0.045089
v 0.192793 -0.496831 0.045740
v 0.188461 -0.486354 0.046809
v 0.271269 -0.496831 0.042007
v 0.271269 -0.496831 0.042007
v 0.192793 -0.496831 0.045740
v 0.188461 -0.486354 0.046809
v 0.464191 -0.210617 0.044884
v 0.474660 -0.214957 0.043772
v 0.474660 -0.214957 0.043772
v 0.464191 -0.210617 0.044884
v 0.157575 -0.496835 0.046978
v 0.157575 -0.496835 0.046978
v 0.474663 -0.179731 0.044765
v 0.474663 -0.179731 0.044765
vn -0.08402968294289209 0.0984374339418548 -0.9915891709692377
vn -0.0798425395953481 0.08466650909365943 -0.993205291522784
vn -0.08357796542737335 0.08380181744182985 -0.992971288149092
vn -0.07753562691030694 0.07024523127123558 -0.9945118571657535
vn -0.07384515651888682 0.08121191110327994 -0.9939575032936037
vn -0.0693143229400008 0.0774015384616149 -0.9945876162908649
vn -0.06685397839998668 0.06808083212132493 -0.9954373641117567
vn -0.07123970201428717 0.06415595237517825 -0.9953938510116233
vn -0.08481579480297038 0.06210171793884287 -0.9944594801101676
vn -0.08928680424117423 0.06954279112107714 -0.9935751943318073
vn -0.08805895804237136 0.07114070983312079 -0.9935716478004651
vn -0.07634892585776368 0.05329351182902664 -0.9956558858949687
vn -0.07453937281857918 0.05928892238566614 -0.9954540198231956
vn -0.05770664891603692 0.07596146057135131 -0.9954395005115823
vn -0.035391022714362695 0.043146488121945326 -0.9984417139092169
vn -0.057654095514811064 0.07620995940442442 -0.9954235517396328
vn -0.03179954531384868 0.043291108226228385 -0.9985562922872088
vn -0.06369872322343553 0.03423240903987256 -0.9973818801397142
vn -0.08453882044833226 0.04701175897004666 -0.9953105456869966
vn -0.08424088458728543 0.05320199947507899 -0.9950241306701086
vn -0.04273465479082337 0.08385331130338787 -0.9955613348575599
vn -0.03158627688542146 0.06449052083966436 -0.9974183073487002
vn -0.047357721046296576 0.08193656062647343 -0.9955117509552589
vn -0.049355996668985616 0.016894189828951873 -0.9986383589382267
vn -0.09080602461904812 0.03577714078261947 -0.9952257342383715
vn -0.033249399431930796 0.0817145361746844 -0.9961010049262936
vn -0.012948320126108958 0.0011526560357133313 -0.9999155026250844
vn 0.08357796542737335 -0.08380181744182985 0.992971288149092
vn 0.0798425395953481 -0.08466650909365943 0.993205291522784
vn 0.08402968294289209 -0.0984374339418548 0.9915891709692377
vn 0.07753562691030694 -0.07024523127123558 0.9945118571657535
vn 0.07384515651888682 -0.08121191110327994 0.9939575032936037
vn 0.0693143229400008 -0.0774015384616149 0.9945876162908649
vn 0.07123970201428717 -0.06415595237517825 0.9953938510116233
vn 0.06685397839998668 -0.06808083212132493 0.9954373641117567
vn 0.08805895804237136 -0.07114070983312079 0.9935716478004651
vn 0.08928680424117423 -0.06954279112107714 0.9935751943318073
vn 0.08481579480297038 -0.06210171793884287 0.9944594801101676
vn 0.07634892585776368 -0.05329351182902664 0.9956558858949687
vn 0.07453937281857918 -0.05928892238566614 0.9954540198231956
vn 0.05770664891603692 -0.07596146057135131 0.9954395005115823
vn 0.057654095514811064 -0.07620995940442442 0.9954235517396328
vn 0.035391022714362695 -0.043146488121945326 0.9984417139092169
vn 0.03179954531384868 -0.043291108226228385 0.9985562922872088
vn 0.08424088458728543 -0.05320199947507899 0.9950241306701086
vn 0.08453882044833226 -0.04701175897004666 0.9953105456869966
vn 0.06369872322343553 -0.03423240903987256 0.9973818801397142
vn 0.047357721046296576 -0.08193656062647343 0.9955117509552589
vn 0.04273465479082337 -0.08385331130338787 0.9955613348575599
vn 0.03158627688542146 -0.06449052083966436 0.9974183073487002
vn 0.09080602461904812 -0.03577714078261947 0.9952257342383715
vn 0.049355996668985616 -0.016894189828951873 0.9986383589382267
vn 0.033249399431930796 -0.0817145361746844 0.9961010049262936
vn 0.012948320126108958 -0.0011526560357133313 0.9999155026250844
usemtl material_0_0
f 1//1 2//2 3//3
f 7//4 8//5 9//6
f 8//5 7//4 2//2
f 2//2 7//4 3//3
f 13//7 9//6 14//7
f 9//6 13//7 15//7
f 9//6 15//7 16//8
f 9//6 16//8 7//4
f 21//9 3//3 7//4
f 3//3 21//9 22//10
f 3//3 22//10 23//11
f 27//12 16//8 28//13
f 16//8 27//12 7//4
f 7//4 27//12 21//9
f 31//14 32//14 33//14
f 32//14 31//14 34//14
f 34//14 31//14 35//14
f 41//15 42//16 43//17
f 42//16 41//15 44//16
f 44//16 41//15 45//16
f 44//16 45//16 46//16
f 53//18 21//9 27//12
f 21//9 53//18 54//19
f 21//9 54//19 55//20
f 43//17 59//21 60//22
f 59//21 43//17 61//23
f 65//24 54//19 53//18
f 54//19 65//24 66//25
f 59//21 69//26 60//22
f 66//25 65//24 71//27
usemtl material_1_0
f 4//28 5//29 6//30
f 4//28 10//31 5//29
f 5//29 10//31 11//32
f 12//33 11//32 10//31
f 10//31 17//34 12//33
f 17//34 18//35 12//33
f 18//35 19//35 12//33
f 20//35 12//33 19//35
f 24//36 25//37 4//28
f 25//37 26//38 4//28
f 10//31 4//28 26//38
f 26//38 29//39 10//31
f 10//31 29//39 17//34
f 30//40 17//34 29//39
f 36//41 37//41 38//41
f 38//41 37//41 39//41
f 40//41 39//41 37//41
f 47//42 48//42 49//42
f 48//42 50//43 49//42
f 49//42 50//43 51//42
f 52//44 51//42 50//43
f 56//45 57//46 26//38
f 57//46 58//47 26//38
f 29//39 26//38 58//47
f 62//48 52//44 63//49
f 64//50 63//49 52//44
f 67//51 68//52 57//46
f 58//47 57//46 68//52
f 64//50 70//53 63//49
f 72//54 68//52 67//51
