# SSTK version 0.8.0
# 12
mtllib original-12.mtl
o #ID279
v -0.163810 0.364245 0.056400
v -0.194435 0.364233 0.055958
v -0.169001 0.376763 0.055648
v -0.169001 0.376763 0.055648
v -0.194435 0.364233 0.055958
v -0.163810 0.364245 0.056400
vn 0.013371522207269582 -0.05583628091142637 -0.9983503954663617
vn 0.02457627155373417 -0.06562808838790955 -0.9975414582317197
vn 0.01766608326939286 -0.062460959732920686 -0.9978910451603229
vn -0.01766608326939286 0.062460959732920686 0.9978910451603229
vn -0.02457627155373417 0.06562808838790955 0.9975414582317197
vn -0.013371522207269582 0.05583628091142637 0.9983503954663617
usemtl material_0_0
f 4//4 5//5 6//6
usemtl material_1_0
f 1//1 2//2 3//3
