# SSTK version 0.8.0
# 33
mtllib original-33.mtl
o #ID405
v 0.125173 -0.507100 0.047309
v 0.059991 -0.520779 0.047705
v 0.059900 -0.520084 0.047764
v 0.125354 -0.507777 0.047249
v 0.125354 -0.507777 0.047249
v 0.125173 -0.507100 0.047309
v 0.059991 -0.520779 0.047705
v 0.059900 -0.520084 0.047764
v -0.006510 -0.525137 0.048170
v -0.006510 -0.524437 0.048228
v -0.006510 -0.525137 0.048170
v -0.006510 -0.524437 0.048228
v 0.155402 -0.496835 0.047052
v 0.157575 -0.496835 0.046978
v 0.157575 -0.496835 0.046978
v 0.155402 -0.496835 0.047052
v -0.072919 -0.520084 0.048692
v -0.073011 -0.520779 0.048634
v -0.072919 -0.520084 0.048692
v -0.073011 -0.520779 0.048634
v 0.122427 -0.496831 0.048123
v 0.122427 -0.496831 0.048123
v -0.138193 -0.507100 0.049147
v -0.138374 -0.507777 0.049090
v -0.138193 -0.507100 0.049147
v -0.138374 -0.507777 0.049090
v -0.168597 -0.496806 0.049566
v -0.170747 -0.496798 0.049411
v -0.168597 -0.496806 0.049566
v -0.170747 -0.496798 0.049411
v -0.135435 -0.496831 0.049923
v -0.135435 -0.496831 0.049923
vn -0.028166634247309082 0.07638139026566523 -0.9966807532686996
vn -0.01833699706499697 0.08645953311460446 -0.9960865944646795
vn -0.01715660812292346 0.07901851891488329 -0.9967255010614581
vn -0.02967828651169741 0.08363689736275014 -0.9960542498826369
vn -0.006954664044457337 0.08720558318312494 -0.9961660599065398
vn -0.006960226485846886 0.07879425992466461 -0.9968666008299156
vn -0.03415002907861341 0.07576905648306535 -0.9965404284792444
vn -0.036067231364252106 0.08527169586911584 -0.995704721644586
vn 0.003238767304946908 0.07902372765603159 -0.996867474067486
vn 0.0044276689827207625 0.08645953311460446 -0.9962455243969651
vn -0.026709253341133315 0.07413516244309154 -0.9968904621248493
vn 0.018294433446379717 0.09896890795298723 -0.9949223431823556
vn 0.021221162248793793 0.10411930084150513 -0.9943383898176146
vn 0.03964002764266123 0.1517886946931226 -0.9876177703807515
vn 0.024684762012140645 0.09477186393167693 -0.9951929241766744
vn 0.009598307540943403 0.07499757103073798 -0.9971375215244078
vn 0.02967828651169741 -0.08363689736275014 0.9960542498826369
vn 0.028166634247309082 -0.07638139026566523 0.9966807532686996
vn 0.01833699706499697 -0.08645953311460446 0.9960865944646795
vn 0.01715660812292346 -0.07901851891488329 0.9967255010614581
vn 0.006954664044457337 -0.08720558318312494 0.9961660599065398
vn 0.006960226485846886 -0.07879425992466461 0.9968666008299156
vn 0.036067231364252106 -0.08527169586911584 0.995704721644586
vn 0.03415002907861341 -0.07576905648306535 0.9965404284792444
vn -0.003238767304946908 -0.07902372765603159 0.996867474067486
vn -0.0044276689827207625 -0.08645953311460446 0.9962455243969651
vn 0.026709253341133315 -0.07413516244309154 0.9968904621248493
vn -0.018294433446379717 -0.09896890795298723 0.9949223431823556
vn -0.021221162248793793 -0.10411930084150513 0.9943383898176146
vn -0.03964002764266123 -0.1517886946931226 0.9876177703807515
vn -0.024684762012140645 -0.09477186393167693 0.9951929241766744
vn -0.009598307540943403 -0.07499757103073798 0.9971375215244078
usemtl material_0_0
f 5//17 6//18 7//19
f 8//20 7//19 6//18
f 7//19 8//20 11//21
f 12//22 11//21 8//20
f 15//23 16//24 5//17
f 6//18 5//17 16//24
f 12//22 19//25 11//21
f 20//26 11//21 19//25
f 22//27 6//18 16//24
f 19//25 25//28 20//26
f 26//29 20//26 25//28
f 25//28 29//30 26//29
f 30//31 26//29 29//30
f 29//30 25//28 32//32
usemtl material_1_0
f 1//1 2//2 3//3
f 2//2 1//1 4//4
f 3//3 9//5 10//6
f 9//5 3//3 2//2
f 13//7 4//4 1//1
f 4//4 13//7 14//8
f 17//9 9//5 18//10
f 9//5 17//9 10//6
f 13//7 1//1 21//11
f 23//12 18//10 24//13
f 18//10 23//12 17//9
f 27//14 24//13 28//15
f 24//13 27//14 23//12
f 31//16 23//12 27//14
