# SSTK version 0.8.0
# 24
mtllib original-24.mtl
o #ID351
v 0.474627 0.331387 0.037185
v 0.464786 0.346047 0.037131
v 0.474604 0.353588 0.035720
v 0.474604 0.353588 0.035720
v 0.464786 0.346047 0.037131
v 0.474627 0.331387 0.037185
vn -0.09227887180248054 -0.06564572281063469 -0.9935669322675401
vn -0.08533006452238635 -0.06568107785696599 -0.9941854837504682
vn -0.08928680424117423 -0.06954279112107692 -0.9935751943318073
vn 0.08928680424117423 0.06954279112107692 0.9935751943318073
vn 0.08533006452238635 0.06568107785696599 0.9941854837504682
vn 0.09227887180248054 0.06564572281063469 0.9935669322675401
usemtl material_0_0
f 4//4 5//5 6//6
usemtl material_1_0
f 1//1 2//2 3//3
