# SSTK version 0.8.0
# 18
mtllib original-18.mtl
o #ID315
v 0.473843 -0.496831 -0.073315
v -0.488512 0.465547 -0.066597
v -0.488512 -0.496831 -0.066597
v 0.473843 0.465547 -0.073315
v -0.487807 0.465547 0.034396
v 0.473843 0.465547 -0.073315
v -0.488512 0.465547 -0.066597
v 0.474548 0.465547 0.027678
v -0.484987 0.465547 0.034493
v 0.471727 0.465546 0.027917
v -0.375794 0.465547 0.041657
v 0.362638 0.465558 0.036607
v -0.353589 0.465562 0.042979
v 0.340408 0.465547 0.037999
v 0.271269 0.465547 0.042007
v -0.284348 0.465547 0.045886
v -0.205828 0.465547 0.048523
v 0.192793 0.465547 0.045740
v -0.170747 0.465580 0.049411
v 0.157575 0.465544 0.046978
v 0.155402 0.465544 0.047052
v 0.122427 0.465547 0.048123
v -0.168597 0.465572 0.049566
v -0.135435 0.465547 0.049923
v -0.069851 0.465506 0.050525
v 0.056856 0.465506 0.049640
v -0.006496 0.465498 0.050185
vn 0.006981260297961552 0 0.9999756307053949
vn 0.000005826039948682035 0.9999999986017372 0.00005256027768206614
usemtl material_0_0
f 1//1 2//1 3//1
f 2//1 1//1 4//1
f 5//2 6//2 7//2
f 6//2 5//2 8//2
f 8//2 5//2 9//2
f 8//2 9//2 10//2
f 10//2 9//2 11//2
f 10//2 11//2 12//2
f 12//2 11//2 13//2
f 12//2 13//2 14//2
f 14//2 13//2 15//2
f 15//2 13//2 16//2
f 15//2 16//2 17//2
f 15//2 17//2 18//2
f 18//2 17//2 19//2
f 18//2 19//2 20//2
f 20//2 19//2 21//2
f 21//2 19//2 22//2
f 22//2 19//2 23//2
f 22//2 23//2 24//2
f 22//2 24//2 25//2
f 22//2 25//2 26//2
f 26//2 25//2 27//2
