# SSTK version 0.8.0
# 30
mtllib original-30.mtl
o #ID387
v 0.355116 -0.487004 0.037896
v 0.353093 -0.496831 0.037205
v 0.340408 -0.496831 0.037999
v 0.362638 -0.496821 0.036607
v 0.362638 -0.496821 0.036607
v 0.355116 -0.487004 0.037896
v 0.353093 -0.496831 0.037205
v 0.340408 -0.496831 0.037999
vn -0.0693143229400008 0.0774015384616149 -0.9945876162908649
vn -0.0622949935962777 0.08282577776514184 -0.994615113654744
vn -0.07384515651888682 0.08121191110327994 -0.9939575032936037
vn 0.07384515651888682 -0.08121191110327994 0.9939575032936037
vn 0.0693143229400008 -0.0774015384616149 0.9945876162908649
vn 0.0622949935962777 -0.08282577776514184 0.994615113654744
usemtl material_0_0
f 5//4 6//5 7//6
f 8//6 7//6 6//5
usemtl material_1_0
f 1//1 2//2 3//2
f 2//2 1//1 4//3
