# SSTK version 0.8.0
# 31
mtllib original-31.mtl
o #ID393
v -0.316237 -0.419296 0.050390
v -0.261252 -0.456878 0.049948
v -0.316664 -0.419852 0.050335
v -0.260901 -0.456272 0.050004
v -0.260901 -0.456272 0.050004
v -0.316237 -0.419296 0.050390
v -0.261252 -0.456878 0.049948
v -0.316664 -0.419852 0.050335
v -0.343316 -0.395521 0.050459
v -0.344376 -0.395521 0.050409
v -0.343316 -0.395521 0.050459
v -0.344376 -0.395521 0.050409
v -0.201481 -0.486354 0.049531
v -0.201213 -0.485707 0.049587
v -0.170747 -0.496798 0.049411
v -0.168597 -0.496806 0.049566
v -0.168597 -0.496806 0.049566
v -0.201213 -0.485707 0.049587
v -0.170747 -0.496798 0.049411
v -0.201481 -0.486354 0.049531
v -0.169001 -0.408046 0.055648
v -0.116393 -0.425905 0.055281
v -0.135435 -0.496831 0.049923
v -0.135435 -0.496831 0.049923
v -0.116393 -0.425905 0.055281
v -0.169001 -0.408046 0.055648
vn 0.042048277260040845 0.061174891802650344 -0.9972409814043929
vn 0.032092876653325914 0.06653796924111699 -0.9972676400632794
vn 0.04622551146441574 0.06801618756924596 -0.9966127634735561
vn 0.02773173604434813 0.05887603086609242 -0.9978800347764362
vn 0.048147134167162625 0.05777927798997145 -0.9971676932725242
vn 0.052070077522126515 0.06596967986464919 -0.9964620957996323
vn 0.020669248062721562 0.061605979636687104 -0.9978865093073089
vn 0.016229291512794713 0.052520800593934505 -0.9984879446452846
vn 0.012737278575157744 0.04261585863526792 -0.9990103354456736
vn 0.016306666259779726 0.06646666239030283 -0.997655389112987
vn 0.01774302145367113 0.06236172001357773 -0.9978958868873261
vn 0.010563014098033851 0.06458679170664101 -0.9978561865670864
vn 0.013377485521770878 0.07089106698269605 -0.9973943550588051
vn -0.02773173604434813 -0.05887603086609242 0.9978800347764362
vn -0.042048277260040845 -0.061174891802650344 0.9972409814043929
vn -0.032092876653325914 -0.06653796924111699 0.9972676400632794
vn -0.04622551146441574 -0.06801618756924596 0.9966127634735561
vn -0.048147134167162625 -0.05777927798997145 0.9971676932725242
vn -0.052070077522126515 -0.06596967986464919 0.9964620957996323
vn -0.016306666259779726 -0.06646666239030283 0.997655389112987
vn -0.016229291512794713 -0.052520800593934505 0.9984879446452846
vn -0.012737278575157744 -0.04261585863526792 0.9990103354456736
vn -0.020669248062721562 -0.061605979636687104 0.9978865093073089
vn -0.013377485521770878 -0.07089106698269605 0.9973943550588051
vn -0.010563014098033851 -0.06458679170664101 0.9978561865670864
vn -0.01774302145367113 -0.06236172001357773 0.9978958868873261
usemtl material_0_0
f 5//14 6//15 7//16
f 8//17 7//16 6//15
f 6//15 11//18 8//17
f 12//19 8//17 11//18
f 17//20 18//21 19//22
f 19//22 18//21 20//23
f 18//21 5//14 20//23
f 7//16 20//23 5//14
f 24//24 25//25 17//20
f 25//25 26//26 17//20
f 18//21 17//20 26//26
usemtl material_1_0
f 1//1 2//2 3//3
f 2//2 1//1 4//4
f 9//5 3//3 10//6
f 3//3 9//5 1//1
f 4//4 13//7 2//2
f 13//7 4//4 14//8
f 13//7 14//8 15//9
f 15//9 14//8 16//10
f 21//11 16//10 14//8
f 16//10 21//11 22//12
f 16//10 22//12 23//13
