# SSTK version 0.8.0
# 16
mtllib original-16.mtl
o #ID303
v -0.170747 0.465580 0.049411
v -0.201213 0.454424 0.049587
v -0.201481 0.455071 0.049531
v -0.168597 0.465572 0.049566
v -0.168597 0.465572 0.049566
v -0.170747 0.465580 0.049411
v -0.201213 0.454424 0.049587
v -0.201481 0.455071 0.049531
v -0.261252 0.425594 0.049948
v -0.316237 0.388013 0.050390
v -0.316237 0.388568 0.050390
v -0.260901 0.424988 0.050004
v -0.201481 0.455071 0.049531
v -0.201213 0.454424 0.049587
v -0.201213 0.454424 0.049587
v -0.201481 0.455071 0.049531
v -0.260901 0.424988 0.050004
v -0.261252 0.425594 0.049948
v -0.316237 0.388013 0.050390
v -0.316237 0.388568 0.050390
v -0.316237 0.388568 0.050390
v -0.316664 0.388013 0.050335
v -0.316664 0.388568 0.050335
v -0.316237 0.388013 0.050390
v -0.316237 0.388013 0.050390
v -0.316237 0.388568 0.050390
v -0.316664 0.388013 0.050335
v -0.316664 0.388568 0.050335
v -0.316237 0.388568 0.050390
v -0.316664 0.388013 0.050335
v -0.316664 0.388568 0.050335
v -0.316237 0.388013 0.050390
v -0.316237 0.388013 0.050390
v -0.316237 0.388568 0.050390
v -0.316664 0.388013 0.050335
v -0.316664 0.388568 0.050335
v -0.316237 0.388568 0.050390
v -0.316664 0.388013 0.050335
v -0.316664 0.388568 0.050335
v -0.316237 0.388013 0.050390
v -0.316237 0.388013 0.050390
v -0.316237 0.388568 0.050390
v -0.316664 0.388013 0.050335
v -0.316664 0.388568 0.050335
v -0.170747 0.465580 0.049411
v -0.201213 0.454424 0.049587
v -0.201481 0.455071 0.049531
v -0.168597 0.465572 0.049566
v -0.168597 0.465572 0.049566
v -0.170747 0.465580 0.049411
v -0.201213 0.454424 0.049587
v -0.201481 0.455071 0.049531
vn 0.04736026291994059 -0.14480490208116154 -0.9883261333332327
vn 0.017738939059718944 -0.04307020877049619 -0.9989145544827652
vn 0.03130488410154847 -0.04632669086940162 -0.9984356974510074
vn 0.02120843364570469 -0.042689871679991644 -0.9988632424903028
vn 0.012096170276854173 -0.033311530483141956 -0.9993718149925501
vn 0.018622472387057457 -0.058645700938092675 -0.9981051474086652
vn 0.012200999081111013 -0.046160430229099096 -0.9988595248094135
vn -0.0026546462177757936 0 -0.9999964764205214
vn -0.004663568995560985 0 -0.9999891255029845
vn 0.12847431937718362 0 -0.9917128360874278
vn -0.04736026291994059 0.14480490208116154 0.9883261333332327
vn -0.012200999081111013 0.046160430229099096 0.9988595248094135
vn -0.018622472387057457 0.058645700938092675 0.9981051474086652
vn -0.012096170276854173 0.033311530483141956 0.9993718149925501
vn -0.017738939059718944 0.04307020877049619 0.9989145544827652
vn -0.03130488410154847 0.04632669086940162 0.9984356974510074
vn -0.02120843364570469 0.042689871679991644 0.9988632424903028
vn 0.0026546462177757936 0 0.9999964764205214
vn 0.004663568995560985 0 0.9999891255029845
vn -0.12847431937718362 0 0.9917128360874278
usemtl material_0_0
f 5//11 6//11 7//11
f 8//11 7//11 6//11
f 15//12 16//13 17//14
f 16//13 18//15 17//14
f 17//14 18//15 19//16
f 20//17 19//16 18//15
f 25//18 26//18 27//18
f 28//18 27//18 26//18
f 33//19 34//19 35//19
f 36//19 35//19 34//19
f 41//20 42//20 43//20
f 44//20 43//20 42//20
f 49//11 50//11 51//11
f 52//11 51//11 50//11
usemtl material_1_0
f 1//1 2//1 3//1
f 2//1 1//1 4//1
f 9//2 10//3 11//4
f 10//3 9//2 12//5
f 12//5 9//2 13//6
f 12//5 13//6 14//7
f 21//8 22//8 23//8
f 22//8 21//8 24//8
f 29//9 30//9 31//9
f 30//9 29//9 32//9
f 37//10 38//10 39//10
f 38//10 37//10 40//10
f 45//1 46//1 47//1
f 46//1 45//1 48//1
