# SSTK version 0.8.0
# 19
mtllib original-19.mtl
o #ID321
v 0.373367 -0.353538 0.045515
v 0.373489 -0.395528 0.062994
v 0.373349 -0.395528 0.042978
v 0.373581 -0.333179 0.076120
v 0.373367 -0.352479 0.045576
v 0.373373 -0.339050 0.046239
v 0.373383 -0.307139 0.047816
v 0.373662 -0.270536 0.087762
v 0.373404 -0.234969 0.050821
v 0.373733 -0.207634 0.097912
v 0.373423 -0.203617 0.051993
v 0.373793 -0.144509 0.106566
v 0.373417 -0.172996 0.052650
v 0.373408 -0.117437 0.053765
v 0.373843 -0.081195 0.113718
v 0.373421 -0.094539 0.053993
v 0.373428 -0.065655 0.054280
v 0.373882 -0.017730 0.119365
v 0.373426 -0.040434 0.054376
v 0.373423 -0.015642 0.054375
v 0.373911 0.045851 0.123503
v 0.373427 0.017800 0.054343
v 0.373426 0.034371 0.054328
v 0.373429 0.054196 0.054083
v 0.373930 0.109513 0.126129
v 0.373424 0.086149 0.053691
v 0.373430 0.102594 0.053436
v 0.373431 0.141705 0.052829
v 0.373937 0.173219 0.127243
v 0.373414 0.159277 0.052273
v 0.373411 0.172282 0.051861
v 0.373399 0.198868 0.051000
v 0.373935 0.236934 0.126843
v 0.373392 0.203692 0.050843
v 0.373383 0.275855 0.047816
v 0.373921 0.300621 0.124930
v 0.373359 0.321172 0.045456
v 0.373897 0.364245 0.121506
v 0.373359 0.322232 0.045398
v 0.373349 0.364245 0.042978
vn 0.9999754660621127 0.0000035217589990040466 -0.007004802742250033
usemtl material_0_0
f 1//1 2//1 3//1
f 2//1 1//1 4//1
f 4//1 1//1 5//1
f 4//1 5//1 6//1
f 4//1 6//1 7//1
f 4//1 7//1 8//1
f 8//1 7//1 9//1
f 8//1 9//1 10//1
f 10//1 9//1 11//1
f 10//1 11//1 12//1
f 12//1 11//1 13//1
f 12//1 13//1 14//1
f 12//1 14//1 15//1
f 15//1 14//1 16//1
f 15//1 16//1 17//1
f 15//1 17//1 18//1
f 18//1 17//1 19//1
f 18//1 19//1 20//1
f 18//1 20//1 21//1
f 21//1 20//1 22//1
f 21//1 22//1 23//1
f 21//1 23//1 24//1
f 21//1 24//1 25//1
f 25//1 24//1 26//1
f 25//1 26//1 27//1
f 25//1 27//1 28//1
f 25//1 28//1 29//1
f 29//1 28//1 30//1
f 29//1 30//1 31//1
f 29//1 31//1 32//1
f 29//1 32//1 33//1
f 33//1 32//1 34//1
f 33//1 34//1 35//1
f 33//1 35//1 36//1
f 36//1 35//1 37//1
f 36//1 37//1 38//1
f 38//1 37//1 39//1
f 38//1 39//1 40//1
