# SSTK version 0.8.0
# 11
mtllib original-11.mtl
o #ID273
v 0.122427 0.465547 0.048123
v 0.156070 0.376763 0.053379
v 0.103461 0.394621 0.053746
v 0.155402 0.465544 0.047052
v 0.188193 0.454424 0.046869
v 0.188193 0.454424 0.046869
v 0.155402 0.465544 0.047052
v 0.156070 0.376763 0.053379
v 0.122427 0.465547 0.048123
v 0.103461 0.394621 0.053746
v 0.157575 0.465544 0.046978
v 0.188461 0.455071 0.046809
v 0.247882 0.424988 0.046452
v 0.248232 0.425594 0.046391
v 0.248232 0.425594 0.046391
v 0.188461 0.455071 0.046809
v 0.247882 0.424988 0.046452
v 0.157575 0.465544 0.046978
v 0.303218 0.388013 0.046066
v 0.303644 0.388568 0.046004
v 0.303644 0.388568 0.046004
v 0.303218 0.388013 0.046066
v 0.330305 0.364248 0.045801
v 0.331364 0.364248 0.045734
v 0.331364 0.364248 0.045734
v 0.330305 0.364248 0.045801
vn -0.027402397983635935 -0.07158908237836263 -0.9970577274506077
vn -0.03169198309202367 -0.062125718888390004 -0.9975650421202097
vn -0.024675241536067954 -0.0645492473693042 -0.9976094060899753
vn -0.028317221556998475 -0.06323987112115338 -0.9975965385183891
vn -0.019677198910072007 -0.031379448514559996 -0.9993138336148337
vn -0.008133759307244031 -0.00596733418488828 -0.9999491151464946
vn -0.02386776807234054 -0.04238303957088524 -0.9988163032329708
vn -0.0361854113888277 -0.04854982887152821 -0.9981650815968102
vn -0.04131497724904314 -0.05687620264729002 -0.9975260248371145
vn -0.0564750751235533 -0.06331594089551888 -0.9963943283250384
vn -0.060297633122484075 -0.06867535828616125 -0.995815188980412
vn -0.06276707614947154 -0.0604463329784935 -0.9961960324058209
vn -0.06607359718943412 -0.06657015304055068 -0.9955916303779407
vn 0.019677198910072007 0.031379448514559996 0.9993138336148337
vn 0.028317221556998475 0.06323987112115338 0.9975965385183891
vn 0.03169198309202367 0.062125718888390004 0.9975650421202097
vn 0.027402397983635935 0.07158908237836263 0.9970577274506077
vn 0.024675241536067954 0.0645492473693042 0.9976094060899753
vn 0.04131497724904314 0.05687620264729002 0.9975260248371145
vn 0.02386776807234054 0.04238303957088524 0.9988163032329708
vn 0.0361854113888277 0.04854982887152821 0.9981650815968102
vn 0.008133759307244031 0.00596733418488828 0.9999491151464946
vn 0.060297633122484075 0.06867535828616125 0.995815188980412
vn 0.0564750751235533 0.06331594089551888 0.9963943283250384
vn 0.06607359718943412 0.06657015304055068 0.9955916303779407
vn 0.06276707614947154 0.0604463329784935 0.9961960324058209
usemtl material_0_0
f 6//14 7//15 8//16
f 7//15 9//17 8//16
f 10//18 8//16 9//17
f 15//19 16//20 17//21
f 17//21 16//20 6//14
f 16//20 18//22 6//14
f 7//15 6//14 18//22
f 21//23 15//19 22//24
f 17//21 22//24 15//19
f 25//25 21//23 26//26
f 22//24 26//26 21//23
usemtl material_1_0
f 1//1 2//2 3//3
f 2//2 1//1 4//4
f 2//2 4//4 5//5
f 11//6 5//5 4//4
f 5//5 11//6 12//7
f 5//5 12//7 13//8
f 13//8 12//7 14//9
f 14//9 19//10 13//8
f 19//10 14//9 20//11
f 20//11 23//12 19//10
f 23//12 20//11 24//13
