# SSTK version 0.8.0
# 2
mtllib original-2.mtl
o #ID14
v 0.388751 0.893360 0.022869
v -0.386856 0.893360 -0.020220
v -0.386856 0.893360 0.022869
v 0.388751 0.893360 -0.020220
v -0.386856 -0.830210 -0.020220
v -0.257588 -0.528585 -0.020220
v 0.388751 -0.830210 -0.020220
v -0.386856 0.893360 -0.020220
v -0.257588 0.764092 -0.020220
v 0.259483 0.764092 -0.020220
v 0.259483 -0.528585 -0.020220
v 0.388751 0.893360 -0.020220
v -0.386856 0.893360 -0.020220
v -0.386856 -0.830210 0.022869
v -0.386856 0.893360 0.022869
v -0.386856 -0.830210 -0.020220
v 0.388751 -0.830210 0.022869
v 0.259483 -0.528585 0.022869
v -0.386856 -0.830210 0.022869
v 0.388751 0.893360 0.022869
v 0.259483 0.764092 0.022869
v -0.257588 0.764092 0.022869
v -0.257588 -0.528585 0.022869
v -0.386856 0.893360 0.022869
v 0.388751 -0.830210 -0.020220
v 0.388751 0.893360 0.022869
v 0.388751 -0.830210 0.022869
v 0.388751 0.893360 -0.020220
v 0.388751 -0.830210 -0.020220
v -0.386856 -0.830210 0.022869
v -0.386856 -0.830210 -0.020220
v 0.388751 -0.830210 0.022869
vn 0 1 0
vn 0 -1 0
vn 0 0 -1
vn 0 0 1
vn -1 0 0
vn 1 0 0
usemtl material_0_2
f 1//1 2//1 3//1
f 3//2 2//2 1//2
f 2//1 1//1 4//1
f 4//2 1//2 2//2
f 5//3 6//3 7//3
f 7//4 6//4 5//4
f 6//3 5//3 8//3
f 8//4 5//4 6//4
f 6//3 8//3 9//3
f 9//4 8//4 6//4
f 9//3 8//3 10//3
f 10//4 8//4 9//4
f 7//3 11//3 12//3
f 12//4 11//4 7//4
f 11//3 7//3 6//3
f 6//4 7//4 11//4
f 12//3 11//3 10//3
f 10//4 11//4 12//4
f 12//3 10//3 8//3
f 8//4 10//4 12//4
f 13//5 14//5 15//5
f 15//6 14//6 13//6
f 14//5 13//5 16//5
f 16//6 13//6 14//6
f 17//4 18//4 19//4
f 19//3 18//3 17//3
f 18//4 17//4 20//4
f 20//3 17//3 18//3
f 18//4 20//4 21//4
f 21//3 20//3 18//3
f 21//4 20//4 22//4
f 22//3 20//3 21//3
f 19//4 23//4 24//4
f 24//3 23//3 19//3
f 23//4 19//4 18//4
f 18//3 19//3 23//3
f 24//4 23//4 22//4
f 22//3 23//3 24//3
f 24//4 22//4 20//4
f 20//3 22//3 24//3
f 25//6 26//6 27//6
f 27//5 26//5 25//5
f 26//6 25//6 28//6
f 28//5 25//5 26//5
f 29//2 30//2 31//2
f 31//1 30//1 29//1
f 30//2 29//2 32//2
f 32//1 29//1 30//1
