mtllib new-0.mtl
v 0.267097 0.074879 -0.043673
v 0.263483 0.073705 -0.044582
v 0.267097 0.074879 -0.044582
v 0.263483 0.073705 -0.043673
v 0.266974 0.082396 -0.044582
v 0.270388 0.076779 -0.043673
v 0.286969 0.064219 -0.043673
v 0.259703 0.073308 -0.044582
v 0.267445 0.082458 -0.044582
v 0.270388 0.076779 -0.044582
v 0.259703 0.073308 -0.043673
v 0.255924 0.073705 -0.044582
v 0.273212 0.079322 -0.043673
v 0.255924 0.073705 -0.043673
v 0.252433 0.082396 -0.044582
v 0.267670 0.082534 -0.044582
v 0.273212 0.079322 -0.044582
v 0.275445 0.082396 -0.043673
v 0.232438 0.064219 -0.043673
v 0.252310 0.074879 -0.044582
v 0.267883 0.082640 -0.044582
v 0.273212 0.103647 -0.044582
v 0.275445 0.082396 -0.044582
v 0.276991 0.085868 -0.043673
v 0.252310 0.074879 -0.043673
v 0.286969 0.064219 -0.039129
v 0.251962 0.082458 -0.044582
v 0.268081 0.082772 -0.044582
v 0.270388 0.106190 -0.044582
v 0.275445 0.100573 -0.044582
v 0.276991 0.085868 -0.044582
v 0.277781 0.089585 -0.043673
v 0.249019 0.076779 -0.043673
v 0.232438 0.064219 -0.039129
v 0.286969 0.118750 -0.043673
v 0.251737 0.082534 -0.044582
v 0.268260 0.082929 -0.044582
v 0.268792 0.084214 -0.044582
v 0.270388 0.106190 -0.043673
v 0.275445 0.100573 -0.043673
v 0.276991 0.097102 -0.044582
v 0.277781 0.089585 -0.044582
v 0.246195 0.079322 -0.043673
v 0.249019 0.076779 -0.044582
v 0.232438 0.118750 -0.039129
v 0.286969 0.118750 -0.039129
v 0.251524 0.082640 -0.044582
v 0.252433 0.100573 -0.044582
v 0.267445 0.100511 -0.044582
v 0.251962 0.100511 -0.044582
v 0.268416 0.083107 -0.044582
v 0.268730 0.083743 -0.044582
v 0.273212 0.103647 -0.043673
v 0.267097 0.108090 -0.043673
v 0.276991 0.097102 -0.043673
v 0.277781 0.093385 -0.044582
v 0.277781 0.093385 -0.043673
v 0.243962 0.082396 -0.043673
v 0.246195 0.079322 -0.044582
v 0.250677 0.083743 -0.044582
v 0.232438 0.118750 -0.043673
v 0.251326 0.082772 -0.044582
v 0.266974 0.100573 -0.044582
v 0.251737 0.100435 -0.044582
v 0.268548 0.083305 -0.044582
v 0.268654 0.083518 -0.044582
v 0.267097 0.108090 -0.044582
v 0.242416 0.085868 -0.043673
v 0.249019 0.106190 -0.044582
v 0.250615 0.084214 -0.044582
v 0.250753 0.083518 -0.044582
v 0.242416 0.097102 -0.043673
v 0.251147 0.082929 -0.044582
v 0.267670 0.100435 -0.044582
v 0.255924 0.109264 -0.044582
v 0.252310 0.108090 -0.044582
v 0.251524 0.100330 -0.044582
v 0.263483 0.109264 -0.043673
v 0.241626 0.089585 -0.043673
v 0.243962 0.082396 -0.044582
v 0.246195 0.103647 -0.044582
v 0.250615 0.098755 -0.044582
v 0.250859 0.083305 -0.044582
v 0.255924 0.109264 -0.043673
v 0.243962 0.100573 -0.043673
v 0.241626 0.093385 -0.043673
v 0.250991 0.083107 -0.044582
v 0.259703 0.109662 -0.044582
v 0.263483 0.109264 -0.044582
v 0.267883 0.100330 -0.044582
v 0.259703 0.109662 -0.043673
v 0.242416 0.085868 -0.044582
v 0.246195 0.103647 -0.043673
v 0.250677 0.099226 -0.044582
v 0.252310 0.108090 -0.043673
v 0.242416 0.097102 -0.044582
v 0.241626 0.093385 -0.044582
v 0.251326 0.100197 -0.044582
v 0.268081 0.100197 -0.044582
v 0.268416 0.099862 -0.044582
v 0.241626 0.089585 -0.044582
v 0.243962 0.100573 -0.044582
v 0.249019 0.106190 -0.043673
v 0.251147 0.100041 -0.044582
v 0.268260 0.100041 -0.044582
v 0.250753 0.099451 -0.044582
v 0.250991 0.099862 -0.044582
v 0.250859 0.099664 -0.044582
vn 0.406737 -0.913545 0.000000
vn 0.207912 -0.978148 0.000000
vn 0.000000 0.000000 -1.000000
vn 0.587785 -0.809017 0.000000
vn 0.000000 -1.000000 0.000000
vn 0.743145 -0.669131 0.000000
vn -0.207912 -0.978148 0.000000
vn 0.866025 -0.500000 0.000000
vn -0.406737 -0.913545 0.000000
vn 0.951057 -0.309017 0.000000
vn 1.000000 0.000000 0.000000
vn 0.000000 0.000000 1.000000
vn -1.000000 0.000000 0.000000
vn 0.587785 0.809017 0.000000
vn 0.743145 0.669131 0.000000
vn 0.866025 0.500000 0.000000
vn 0.994522 -0.104528 0.000000
vn -0.587785 -0.809017 0.000000
vn 0.000000 1.000000 0.000000
vn 0.406737 0.913545 0.000000
vn 0.951057 0.309017 0.000000
vn 0.994522 0.104528 0.000000
vn -0.743145 -0.669131 0.000000
vn -0.866025 -0.500000 0.000000
vn 0.207912 0.978148 0.000000
vn -0.951057 -0.309017 0.000000
vn -0.994522 -0.104528 0.000000
vn -0.743145 0.669131 0.000000
vn -0.587785 0.809017 0.000000
vn -0.866025 0.500000 0.000000
vn -0.951057 0.309017 0.000000
vn -0.994522 0.104528 0.000000
vn -0.406737 0.913545 0.000000
vn -0.207912 0.978148 0.000000
vt -23.425285 3.284501
vt -23.424555 3.281452
vt -23.424555 3.284501
vt -23.425285 3.281452
vt -2.772711 2.085475
vt -2.775512 2.092447
vt -2.775611 2.086417
vt -23.424555 3.446958
vt -23.425285 3.450006
vt -23.425285 3.446958
vt -2.791552 2.077865
vt -23.425285 2.975514
vt -23.424555 2.972465
vt -23.424555 2.975514
vt -2.769680 2.085156
vt -2.775890 2.092496
vt -23.424555 3.450006
vt -2.778251 2.087941
vt -23.425285 2.972465
vt -2.766648 2.085475
vt -23.424555 3.461748
vt -23.425285 3.464796
vt -23.425285 3.461748
vt -2.780516 2.089981
vt 23.425285 -2.536549
vt 23.424555 -2.533501
vt 23.424555 -2.536549
vt -2.763847 2.092447
vt -2.776070 2.092558
vt -23.424555 3.464796
vt -2.782308 2.092447
vt -2.747807 2.077865
vt 23.425285 -2.533501
vt -2.763749 2.086417
vt -2.776241 2.092642
vt -2.780516 2.109494
vt -23.424555 3.328224
vt -23.425285 3.325176
vt -23.424555 3.325176
vt -23.425285 3.328224
vt -2.783548 2.095232
vt -23.428930 2.791552
vt -23.425285 2.747807
vt -23.425285 2.791552
vt 23.425285 -1.986792
vt 23.424555 -1.983743
vt 23.424555 -1.986792
vt -2.763470 2.092496
vt -2.775512 2.107028
vt -2.763847 2.107028
vt -2.776400 2.092748
vt -2.778251 2.111534
vt -2.782308 2.107028
vt -23.424555 3.046260
vt -23.425285 3.043212
vt -23.424555 3.043212
vt -23.425285 3.046260
vt -2.784181 2.098213
vt -2.761109 2.087941
vt 23.425285 -1.983743
vt -23.428930 2.747807
vt -23.425285 2.121610
vt -23.428930 2.077865
vt -23.425285 2.077865
vt -2.763289 2.092558
vt -2.775890 2.106979
vt -2.763470 2.106979
vt -2.776070 2.106917
vt -2.776543 2.092874
vt -2.776970 2.093905
vt -23.425285 -0.651750
vt -23.424555 -0.654799
vt -23.424555 -0.651750
vt -23.424555 0.072271
vt -23.425285 0.069222
vt -23.424555 0.069222
vt -2.783548 2.104243
vt -23.424555 2.631226
vt -23.425285 2.628178
vt -23.424555 2.628178
vt -23.425285 2.631226
vt -2.791552 2.121610
vt -2.758844 2.089981
vt 23.424555 -1.347220
vt 23.425285 -1.350268
vt 23.425285 -1.347220
vt 23.424555 -1.350268
vt 2.791552 2.077865
vt 2.747807 2.121610
vt 2.747807 2.077865
vt 23.428930 2.121610
vt 23.425285 2.077865
vt 23.428930 2.077865
vt -23.428930 2.121610
vt -2.763118 2.092642
vt -2.763289 2.106917
vt -2.776669 2.093017
vt -2.776921 2.093528
vt -23.425285 -0.654799
vt -23.424555 -1.350268
vt -23.425285 -1.347220
vt -23.425285 -1.350268
vt -23.425285 0.072271
vt -23.425285 0.790151
vt -23.424555 0.793200
vt -23.425285 0.793200
vt -23.424555 0.790151
vt -2.784181 2.101262
vt -23.424555 2.101262
vt -23.425285 2.098213
vt -23.424555 2.098213
vt -2.757052 2.092447
vt 23.424555 -0.651750
vt 23.425285 -0.654799
vt 23.425285 -0.651750
vt 23.424555 -0.654799
vt -2.762439 2.093528
vt 2.791552 2.121610
vt 23.425285 2.121610
vt 23.425285 2.791552
vt 23.428930 2.747807
vt 23.428930 2.791552
vt -2.762959 2.092748
vt -2.776241 2.106833
vt -2.776775 2.093176
vt -2.776860 2.093347
vt -23.424555 -1.347220
vt -2.775611 2.113058
vt -23.425285 1.476480
vt -23.424555 1.479529
vt -23.425285 1.479529
vt -23.424555 1.476480
vt -23.425285 2.101262
vt -2.755812 2.095232
vt 23.425285 0.072271
vt 23.424555 0.069222
vt 23.425285 0.069222
vt -2.761109 2.111534
vt -2.762389 2.093905
vt -2.762500 2.093347
vt 23.425285 2.747807
vt -2.747807 2.121610
vt -2.755812 2.104243
vt -2.762816 2.092874
vt -2.763118 2.106833
vt -2.766648 2.114000
vt -2.763749 2.113058
vt -2.776400 2.106727
vt -23.424555 -1.986792
vt -23.425285 -1.983743
vt -23.425285 -1.986792
vt -2.772711 2.114000
vt -2.755178 2.098213
vt 23.425285 0.793200
vt 23.424555 0.790151
vt 23.425285 0.790151
vt 23.424555 0.072271
vt -2.758844 2.109494
vt -2.762389 2.105570
vt -2.762584 2.093176
vt -2.757052 2.107028
vt -2.755178 2.101262
vt -2.762690 2.093017
vt -2.762959 2.106727
vt -2.769680 2.114319
vt -2.776543 2.106601
vt -2.776669 2.106458
vt -23.424555 -1.983743
vt 23.425285 1.479529
vt 23.424555 1.476480
vt 23.425285 1.476480
vt 23.424555 0.793200
vt 23.425285 3.461748
vt 23.424555 3.464796
vt 23.424555 3.461748
vt -2.762439 2.105948
vt 23.425285 3.046260
vt 23.424555 3.043212
vt 23.425285 3.043212
vt 23.425285 2.631226
vt 23.424555 2.628178
vt 23.425285 2.628178
vt -2.762816 2.106601
vt 23.425285 3.281452
vt 23.424555 3.284501
vt 23.424555 3.281452
vt 23.425285 2.972465
vt 23.424555 2.975514
vt 23.424555 2.972465
vt -23.424555 -2.536549
vt -23.425285 -2.533501
vt -23.425285 -2.536549
vt 23.425285 2.101262
vt 23.424555 2.098213
vt 23.425285 2.098213
vt 23.424555 1.479529
vt 23.425285 3.464796
vt 23.424555 3.325176
vt 23.425285 3.328224
vt 23.424555 3.328224
vt -2.762500 2.106128
vt 23.425285 3.284501
vt 23.425285 2.975514
vt 23.425285 3.325176
vt 23.424555 3.046260
vt 23.424555 2.631226
vt 23.424555 2.101262
vt -2.762690 2.106458
vt 23.424555 3.450006
vt 23.425285 3.446958
vt 23.425285 3.450006
vt -23.424555 -2.533501
vt 23.424555 3.446958
vt -2.762584 2.106299
usemtl material-0
f 1/1/1 2/2/2 3/3/1
f 2/2/2 1/1/1 4/4/2
f 2/5/3 5/6/3 3/7/3
f 3/8/1 6/9/4 1/10/1
f 7/11/3 4/5/3 1/7/3
f 4/12/2 8/13/5 2/14/2
f 8/15/3 5/6/3 2/5/3
f 3/7/3 5/6/3 9/16/3
f 6/9/4 3/8/1 10/17/4
f 7/11/3 1/7/3 6/18/3
f 7/11/3 11/15/3 4/5/3
f 8/13/5 4/12/2 11/19/5
f 12/20/3 5/6/3 8/15/3
f 3/7/3 9/16/3 10/18/3
f 10/21/4 13/22/6 6/23/4
f 7/11/3 6/18/3 13/24/3
f 7/11/3 14/20/3 11/15/3
f 11/25/5 12/26/7 8/27/5
f 12/20/3 15/28/3 5/6/3
f 10/18/3 9/16/3 16/29/3
f 13/22/6 10/21/4 17/30/6
f 7/11/3 13/24/3 18/31/3
f 19/32/3 14/20/3 7/11/3
f 12/26/7 11/25/5 14/33/7
f 20/34/3 15/28/3 12/20/3
f 10/18/3 16/29/3 21/35/3
f 10/18/3 22/36/3 17/24/3
f 23/37/8 13/38/6 17/39/6
f 13/38/6 23/37/8 18/40/8
f 7/11/3 18/31/3 24/41/3
f 14/20/3 19/32/3 25/34/3
f 26/42/5 19/43/5 7/44/5
f 14/45/7 20/46/9 12/47/7
f 20/34/3 27/48/3 15/28/3
f 10/18/3 21/35/3 28/51/3
f 10/18/3 29/52/3 22/36/3
f 17/24/3 22/36/3 30/53/3
f 17/24/3 30/53/3 23/31/3
f 31/54/10 18/55/8 23/56/8
f 18/55/8 31/54/10 24/57/10
f 7/11/3 24/41/3 32/58/3
f 25/34/3 19/32/3 33/59/3
f 20/46/9 14/45/7 25/60/9
f 19/43/5 26/42/5 34/61/5
f 35/62/11 26/63/11 7/64/11
f 20/34/3 36/65/3 27/48/3
f 10/18/3 28/51/3 37/69/3
f 39/71/14 22/72/15 29/73/14
f 22/74/15 40/75/16 30/76/16
f 23/31/3 30/53/3 41/77/3
f 23/31/3 41/77/3 31/41/3
f 42/78/17 24/79/10 31/80/10
f 24/79/10 42/78/17 32/81/17
f 7/11/3 32/58/3 35/82/3
f 33/59/3 19/32/3 43/83/3
f 44/84/18 25/85/9 33/86/18
f 25/85/9 44/84/18 20/87/9
f 26/88/12 45/89/12 34/90/12
f 45/91/13 19/92/13 34/93/13
f 26/63/11 35/62/11 46/94/11
f 20/34/3 47/95/3 36/65/3
f 10/18/3 37/69/3 51/97/3
f 10/18/3 52/98/3 38/70/3
f 22/72/15 39/71/14 53/99/15
f 29/100/14 54/101/20 39/102/14
f 40/75/16 22/74/15 53/103/15
f 55/104/21 30/105/16 40/106/16
f 30/105/16 55/104/21 41/107/21
f 31/41/3 41/77/3 56/108/3
f 31/41/3 56/108/3 42/58/3
f 56/109/22 32/110/17 42/111/17
f 57/108/3 35/82/3 32/58/3
f 43/83/3 19/32/3 58/112/3
f 59/113/23 33/114/18 43/115/23
f 33/114/18 59/113/23 44/116/18
f 44/59/3 60/117/3 20/34/3
f 45/89/12 26/88/12 46/118/12
f 19/92/13 45/91/13 61/119/13
f 35/120/19 45/121/19 46/122/19
f 20/34/3 62/123/3 47/95/3
f 10/18/3 51/97/3 65/125/3
f 10/18/3 66/126/3 52/98/3
f 39/52/3 35/82/3 53/36/3
f 54/101/20 29/100/14 67/127/20
f 54/128/3 35/82/3 39/52/3
f 53/36/3 35/82/3 40/53/3
f 40/53/3 35/82/3 55/77/3
f 57/129/22 41/130/21 55/131/21
f 41/130/21 57/129/22 56/132/22
f 32/110/17 56/109/22 57/133/22
f 55/77/3 35/82/3 57/108/3
f 58/112/3 19/32/3 68/134/3
f 58/135/24 59/136/23 43/137/23
f 59/83/3 69/138/3 44/59/3
f 20/34/3 60/117/3 71/140/3
f 45/121/19 35/120/19 61/141/19
f 61/142/3 72/143/3 19/32/3
f 20/34/3 73/144/3 62/123/3
f 48/50/3 75/146/3 63/49/3
f 50/67/3 76/147/3 48/50/3
f 63/49/3 67/128/3 49/66/3
f 64/96/3 76/147/3 50/67/3
f 10/18/3 65/125/3 66/126/3
f 49/66/3 67/128/3 29/52/3
f 67/149/20 78/150/25 54/151/20
f 78/152/3 35/82/3 54/128/3
f 68/134/3 19/32/3 79/153/3
f 68/154/26 80/155/24 58/156/24
f 59/136/23 58/135/24 80/157/24
f 59/83/3 81/158/3 69/138/3
f 44/59/3 69/138/3 82/159/3
f 44/59/3 82/159/3 70/139/3
f 20/34/3 71/140/3 83/160/3
f 84/146/3 61/142/3 35/82/3
f 72/143/3 61/142/3 85/161/3
f 19/32/3 72/143/3 86/162/3
f 20/34/3 87/163/3 73/144/3
f 49/66/3 29/52/3 74/68/3
f 48/50/3 76/147/3 75/146/3
f 63/49/3 75/146/3 88/165/3
f 63/49/3 89/152/3 67/128/3
f 77/145/3 76/147/3 64/96/3
f 78/150/25 67/149/20 89/168/25
f 91/165/3 35/82/3 78/152/3
f 79/153/3 19/32/3 86/162/3
f 79/169/27 92/170/26 68/171/26
f 80/155/24 68/154/26 92/172/26
f 80/112/3 81/158/3 59/83/3
f 93/173/28 69/174/29 81/175/28
f 82/159/3 69/138/3 94/176/3
f 20/34/3 83/160/3 87/163/3
f 95/147/3 61/142/3 84/146/3
f 84/146/3 35/82/3 91/165/3
f 85/161/3 61/142/3 93/158/3
f 85/177/30 96/178/31 72/179/31
f 72/180/31 97/181/32 86/182/32
f 74/68/3 29/52/3 90/124/3
f 95/184/33 75/185/34 76/186/33
f 84/187/34 88/188/19 75/189/34
f 63/49/3 88/165/3 89/152/3
f 98/164/3 76/147/3 77/145/3
f 89/190/25 91/191/19 78/192/25
f 86/193/32 101/194/27 79/195/27
f 92/170/26 79/169/27 101/196/27
f 92/134/3 102/161/3 80/112/3
f 80/112/3 102/161/3 81/158/3
f 69/174/29 93/173/28 103/197/29
f 102/198/30 93/199/28 81/200/28
f 94/176/3 69/138/3 76/147/3
f 103/138/3 61/142/3 95/147/3
f 75/185/34 95/184/33 84/202/34
f 88/188/19 84/187/34 91/203/19
f 93/158/3 61/142/3 103/138/3
f 93/199/28 102/198/30 85/204/30
f 96/178/31 85/177/30 102/205/30
f 97/181/32 72/180/31 96/206/31
f 101/194/27 86/193/32 97/207/32
f 90/124/3 29/52/3 99/148/3
f 76/209/33 103/210/29 95/211/33
f 91/191/19 89/190/25 88/212/19
f 104/183/3 76/147/3 98/164/3
f 105/166/3 29/52/3 100/167/3
f 101/153/3 96/143/3 92/134/3
f 92/134/3 96/143/3 102/161/3
f 103/210/29 76/209/33 69/213/29
f 94/176/3 76/147/3 106/201/3
f 96/143/3 101/153/3 97/162/3
f 99/148/3 29/52/3 105/166/3
f 107/208/3 76/147/3 104/183/3
f 106/201/3 76/147/3 108/214/3
f 108/214/3 76/147/3 107/208/3
usemtl material-1
f 3//33 2//34 1//33
f 4//34 1//33 2//34
f 3//12 5//12 2//12
f 1//33 6//29 3//33
f 1//12 4//12 7//12
f 2//34 8//19 4//34
f 2//12 5//12 8//12
f 9//12 5//12 3//12
f 10//29 3//33 6//29
f 6//12 1//12 7//12
f 4//12 11//12 7//12
f 11//19 4//34 8//19
f 8//12 5//12 12//12
f 10//12 9//12 3//12
f 6//29 13//28 10//29
f 13//12 6//12 7//12
f 11//12 14//12 7//12
f 8//19 12//25 11//19
f 5//12 15//12 12//12
f 16//12 9//12 10//12
f 17//28 10//29 13//28
f 18//12 13//12 7//12
f 7//12 14//12 19//12
f 14//25 11//19 12//25
f 12//12 15//12 20//12
f 21//12 16//12 10//12
f 17//12 22//12 10//12
f 17//28 13//28 23//30
f 18//30 23//30 13//28
f 24//12 18//12 7//12
f 25//12 19//12 14//12
f 7//19 19//19 26//19
f 12//25 20//20 14//25
f 15//12 27//12 20//12
f 28//12 21//12 10//12
f 22//12 29//12 10//12
f 30//12 22//12 17//12
f 23//12 30//12 17//12
f 23//30 18//30 31//31
f 24//31 31//31 18//30
f 32//12 24//12 7//12
f 33//12 19//12 25//12
f 25//20 14//25 20//20
f 34//19 26//19 19//19
f 7//13 26//13 35//13
f 27//12 36//12 20//12
f 37//12 28//12 10//12
f 29//18 22//23 39//18
f 30//24 40//24 22//23
f 41//12 30//12 23//12
f 31//12 41//12 23//12
f 31//31 24//31 42//32
f 32//32 42//32 24//31
f 35//12 32//12 7//12
f 43//12 19//12 33//12
f 33//14 25//20 44//14
f 20//20 44//14 25//20
f 34//3 45//3 26//3
f 34//11 19//11 45//11
f 46//13 35//13 26//13
f 36//12 47//12 20//12
f 51//12 37//12 10//12
f 38//12 52//12 10//12
f 53//23 39//18 22//23
f 39//18 54//9 29//18
f 53//23 22//23 40//24
f 40//24 30//24 55//26
f 41//26 55//26 30//24
f 56//12 41//12 31//12
f 42//12 56//12 31//12
f 42//32 32//32 56//27
f 32//12 35//12 57//12
f 58//12 19//12 43//12
f 43//15 33//14 59//15
f 44//14 59//15 33//14
f 20//12 60//12 44//12
f 46//3 26//3 45//3
f 61//11 45//11 19//11
f 46//5 45//5 35//5
f 47//12 62//12 20//12
f 65//12 51//12 10//12
f 52//12 66//12 10//12
f 53//12 35//12 39//12
f 67//9 29//18 54//9
f 39//12 35//12 54//12
f 40//12 35//12 53//12
f 55//12 35//12 40//12
f 55//26 41//26 57//27
f 56//27 57//27 41//26
f 57//27 56//27 32//32
f 57//12 35//12 55//12
f 68//12 19//12 58//12
f 43//15 59//15 58//16
f 44//12 69//12 59//12
f 71//12 60//12 20//12
f 61//5 35//5 45//5
f 19//12 72//12 61//12
f 62//12 73//12 20//12
f 63//12 75//12 48//12
f 48//12 76//12 50//12
f 49//12 67//12 63//12
f 50//12 76//12 64//12
f 66//12 65//12 10//12
f 29//12 67//12 49//12
f 54//9 78//7 67//9
f 54//12 35//12 78//12
f 79//12 19//12 68//12
f 58//16 80//16 68//21
f 80//16 58//16 59//15
f 69//12 81//12 59//12
f 82//12 69//12 44//12
f 70//12 82//12 44//12
f 83//12 71//12 20//12
f 35//12 61//12 84//12
f 85//12 61//12 72//12
f 86//12 72//12 19//12
f 73//12 87//12 20//12
f 74//12 29//12 49//12
f 75//12 76//12 48//12
f 88//12 75//12 63//12
f 67//12 89//12 63//12
f 64//12 76//12 77//12
f 89//7 67//9 78//7
f 78//12 35//12 91//12
f 86//12 19//12 79//12
f 68//21 92//21 79//22
f 92//21 68//21 80//16
f 59//12 81//12 80//12
f 81//6 69//4 93//6
f 94//12 69//12 82//12
f 87//12 83//12 20//12
f 84//12 61//12 95//12
f 91//12 35//12 84//12
f 93//12 61//12 85//12
f 72//10 96//10 85//8
f 86//17 97//17 72//10
f 90//12 29//12 74//12
f 76//1 75//2 95//1
f 75//2 88//5 84//2
f 89//12 88//12 63//12
f 77//12 76//12 98//12
f 78//7 91//5 89//7
f 79//22 101//22 86//17
f 101//22 79//22 92//21
f 80//12 102//12 92//12
f 81//12 102//12 80//12
f 103//4 93//6 69//4
f 81//6 93//6 102//8
f 76//12 69//12 94//12
f 95//12 61//12 103//12
f 84//2 95//1 75//2
f 91//5 84//2 88//5
f 103//12 61//12 93//12
f 85//8 102//8 93//6
f 102//8 85//8 96//10
f 96//10 72//10 97//17
f 97//17 86//17 101//22
f 99//12 29//12 90//12
f 95//1 103//4 76//1
f 88//5 89//7 91//5
f 98//12 76//12 104//12
f 100//12 29//12 105//12
f 92//12 96//12 101//12
f 102//12 96//12 92//12
f 69//4 76//1 103//4
f 106//12 76//12 94//12
f 97//12 101//12 96//12
f 105//12 29//12 99//12
f 104//12 76//12 107//12
f 108//12 76//12 106//12
f 107//12 76//12 108//12