mtllib new-2.mtl
v 0.080679 0.666785 0.000406
v -0.106544 -0.574700 0.000406
v 0.080679 -0.574700 -0.004138
v -0.106544 0.666785 -0.004138
v 0.080679 0.666785 -0.004138
v -0.106544 -0.574700 -0.004138
v -0.106544 0.666785 -0.040946
v 0.080679 0.666785 -0.040946
v -0.106544 -0.574700 -0.040946
vn -1.000000 0.000000 0.000000
vn 0.000000 1.000000 0.000000
vn 0.000000 0.000000 1.000000
vn 0.000000 -1.000000 0.000000
vn 1.000000 0.000000 0.000000
vn 0.000000 0.000000 -1.000000
vt -0.333907 0.539106
vt -0.363434 0.388917
vt -0.363434 0.539106
vt 0.363434 0.252989
vt 0.333907 1.248906
vt 0.363434 1.248906
vt -0.333907 0.388917
vt 0.333907 0.252989
usemtl material-0
f 7/1/4 5/2/4 4/3/4
f 6/4/5 7/5/5 4/6/5
f 5/2/4 7/1/4 8/7/4
f 7/5/5 6/4/5 9/8/5
usemtl material-1
f 3//1 1//1 5//1
f 5//5 1//5 3//5
f 1//4 4//4 5//4
f 5//2 4//2 1//2
f 2//2 3//2 6//2
f 6//4 3//4 2//4
f 4//5 2//5 6//5
f 6//1 2//1 4//1
f 4//2 5//2 7//2
f 4//1 7//1 6//1
f 8//2 7//2 5//2
f 9//1 6//1 7//1
usemtl material-2
f 6//6 5//6 3//6
f 3//3 5//3 6//3
f 5//6 6//6 4//6
f 4//3 6//3 5//3