mtllib new-6.mtl
v 0.335156 0.921262 0.035397
v 0.335156 -0.829177 0.035397
v 0.335156 0.921262 0.049938
v -0.361021 -0.829177 0.049938
v -0.361021 0.921262 0.049938
v 0.335156 -0.829177 0.049938
v 0.396049 0.982154 0.049938
v 0.396049 -0.890070 0.049938
v -0.421913 -0.890070 0.049938
v -0.421913 0.982154 0.049938
v -0.361021 -0.829177 -0.039129
v 0.396049 0.982154 -0.053670
v -0.361021 0.921262 -0.039129
v 0.335156 -0.829177 -0.053670
v 0.396049 -0.890070 -0.053670
v -0.421913 0.982154 -0.053670
v 0.335156 0.921262 -0.053670
v -0.361021 0.921262 -0.053670
v -0.361021 -0.829177 -0.053670
v -0.421913 -0.890070 -0.053670
vn -1.000000 0.000000 0.000000
vn 0.000000 1.000000 0.000000
vn 0.000000 0.000000 1.000000
vn 0.000000 -1.000000 0.000000
vn 1.000000 0.000000 0.000000
vn 0.000000 0.000000 -1.000000
usemtl material-1
f 1//5 3//5 2//5
f 6//5 2//5 3//5
f 3//2 1//2 5//2
f 6//6 3//6 7//6
f 3//6 5//6 7//6
f 6//6 8//6 4//6
f 5//6 4//6 9//6
f 7//6 8//6 6//6
f 7//6 5//6 10//6
f 8//6 9//6 4//6
f 9//6 10//6 5//6
f 7//1 12//1 8//1
f 7//4 10//4 12//4
f 8//2 15//2 9//2
f 10//5 9//5 16//5
f 15//1 8//1 12//1
f 16//4 12//4 10//4
f 13//1 18//1 11//1
f 20//2 9//2 15//2
f 20//5 16//5 9//5
f 12//3 14//3 15//3
f 12//3 16//3 18//3
f 19//1 11//1 18//1
f 14//3 12//3 17//3
f 14//3 19//3 15//3
f 15//3 19//3 20//3
f 20//3 18//3 16//3
f 17//3 12//3 18//3
f 18//3 20//3 19//3
usemtl material-3
f 2//1 3//1 1//1
f 3//1 2//1 6//1
f 5//4 1//4 3//4
f 7//3 3//3 6//3
f 7//3 5//3 3//3
f 4//3 8//3 6//3
f 9//3 4//3 5//3
f 6//3 8//3 7//3
f 10//3 5//3 7//3
f 4//3 9//3 8//3
f 5//3 10//3 9//3
f 8//5 12//5 7//5
f 12//2 10//2 7//2
f 9//4 15//4 8//4
f 16//1 9//1 10//1
f 12//5 8//5 15//5
f 10//2 12//2 16//2
f 11//5 18//5 13//5
f 15//4 9//4 20//4
f 9//1 16//1 20//1
f 15//6 14//6 12//6
f 18//6 16//6 12//6
f 18//5 11//5 19//5
f 17//6 12//6 14//6
f 15//6 19//6 14//6
f 20//6 19//6 15//6
f 16//6 18//6 20//6
f 18//6 12//6 17//6
f 19//6 20//6 18//6