mtllib new-1.mtl
v 0.266974 0.082396 -0.044582
v 0.267445 0.082458 -0.044582
v 0.270388 0.076779 -0.044582
v 0.266974 0.082396 -0.071847
v 0.252433 0.082396 -0.044582
v 0.266974 0.082396 -0.076391
v 0.267670 0.082534 -0.044582
v 0.267445 0.082458 -0.076391
v 0.157913 0.079670 -0.076391
v 0.266974 0.100573 -0.076391
v 0.252433 0.082396 -0.076391
v 0.267883 0.082640 -0.044582
v 0.251962 0.082458 -0.044582
v 0.157913 0.079670 -0.071847
v 0.266974 0.100573 -0.071847
v 0.252433 0.100573 -0.076391
v 0.251962 0.082458 -0.076391
v 0.267670 0.082534 -0.076391
v 0.268081 0.082772 -0.044582
v 0.270388 0.106190 -0.044582
v 0.251737 0.082534 -0.044582
v 0.267445 0.100511 -0.076391
v 0.157913 0.103300 -0.071847
v 0.252433 0.100573 -0.071847
v 0.251962 0.100511 -0.076391
v 0.267670 0.100435 -0.076391
v 0.267883 0.082640 -0.076391
v 0.268260 0.082929 -0.044582
v 0.268792 0.084214 -0.044582
v 0.249019 0.076779 -0.044582
v 0.251524 0.082640 -0.044582
v 0.251737 0.082534 -0.076391
v 0.248797 0.100573 -0.071847
v 0.157913 0.103300 -0.076391
v 0.252433 0.100573 -0.044582
v 0.267445 0.100511 -0.044582
v 0.251962 0.100511 -0.044582
v 0.248797 0.100573 -0.076391
v 0.251737 0.100435 -0.076391
v 0.268081 0.082772 -0.076391
v 0.268416 0.083107 -0.044582
v 0.268730 0.083743 -0.044582
v 0.268792 0.098755 -0.044582
v 0.250677 0.083743 -0.044582
v 0.251326 0.082772 -0.044582
v 0.251524 0.082640 -0.076391
v 0.266974 0.100573 -0.044582
v 0.251737 0.100435 -0.044582
v 0.267883 0.100330 -0.076391
v 0.268260 0.082929 -0.076391
v 0.268416 0.083107 -0.076391
v 0.268548 0.083305 -0.044582
v 0.268654 0.083518 -0.044582
v 0.268792 0.084214 -0.076391
v 0.268730 0.099226 -0.044582
v 0.268792 0.098755 -0.076391
v 0.250615 0.084214 -0.044582
v 0.250753 0.083518 -0.044582
v 0.251147 0.082929 -0.044582
v 0.251326 0.082772 -0.076391
v 0.251524 0.100330 -0.076391
v 0.267670 0.100435 -0.044582
v 0.250615 0.084214 -0.076391
v 0.251524 0.100330 -0.044582
v 0.268081 0.100197 -0.076391
v 0.268548 0.083305 -0.076391
v 0.268730 0.083743 -0.076391
v 0.268654 0.099451 -0.044582
v 0.268730 0.099226 -0.076391
v 0.250615 0.098755 -0.044582
v 0.250677 0.083743 -0.076391
v 0.250753 0.083518 -0.076391
v 0.250859 0.083305 -0.044582
v 0.250991 0.083107 -0.044582
v 0.251147 0.082929 -0.076391
v 0.251326 0.100197 -0.076391
v 0.250615 0.098755 -0.076391
v 0.267883 0.100330 -0.044582
v 0.268260 0.100041 -0.076391
v 0.268416 0.099862 -0.076391
v 0.268654 0.083518 -0.076391
v 0.268548 0.099664 -0.044582
v 0.268654 0.099451 -0.076391
v 0.250677 0.099226 -0.044582
v 0.250859 0.083305 -0.076391
v 0.251147 0.100041 -0.076391
v 0.251326 0.100197 -0.044582
v 0.250677 0.099226 -0.076391
v 0.250991 0.083107 -0.076391
v 0.268081 0.100197 -0.044582
v 0.268548 0.099664 -0.076391
v 0.268416 0.099862 -0.044582
v 0.250753 0.099451 -0.076391
v 0.250991 0.099862 -0.076391
v 0.251147 0.100041 -0.044582
v 0.268260 0.100041 -0.044582
v 0.250753 0.099451 -0.044582
v 0.250859 0.099664 -0.076391
v 0.250991 0.099862 -0.044582
v 0.250859 0.099664 -0.044582
vn 0.000000 0.000000 -1.000000
vn 0.000000 -1.000000 0.000000
vn 0.360360 -0.932813 0.000000
vn 0.227076 -0.973877 0.000000
vn 0.065403 -0.997859 0.000000
vn -0.065403 -0.997859 0.000000
vn 0.024992 -0.999688 0.000000
vn 0.493687 0.869640 0.000000
vn 0.382683 -0.923880 0.000000
vn 0.866025 -0.500000 0.000000
vn 0.353517 0.935428 0.000000
vn -0.227076 -0.973877 0.000000
vn 0.500000 -0.866025 0.000000
vn 1.000000 0.000000 0.000000
vn 0.000000 0.000000 1.000000
vn -1.000000 0.000000 0.000000
vn -0.032684 0.999466 0.000000
vn 0.227076 0.973877 0.000000
vn -0.043592 0.999049 0.000000
vn 0.608761 -0.793353 0.000000
vn 0.866025 0.500000 0.000000
vn -0.382683 -0.923880 0.000000
vn -0.065403 0.997859 0.000000
vn 0.000000 1.000000 0.000000
vn -0.227076 0.973877 0.000000
vn 0.707107 -0.707107 0.000000
vn -0.500000 -0.866025 0.000000
vn 0.382683 0.923880 0.000000
vn 0.029987 0.999550 0.000000
vn 0.065403 0.997859 0.000000
vn -0.382683 0.923880 0.000000
vn 0.793353 -0.608761 0.000000
vn 0.973877 -0.227076 0.000000
vn 0.997859 -0.065403 0.000000
vn 0.997859 0.065403 0.000000
vn -0.866025 -0.500000 0.000000
vn -0.608761 -0.793353 0.000000
vn -0.500000 0.866025 0.000000
vn 0.500000 0.866025 0.000000
vn 0.923880 -0.382683 0.000000
vn 0.973877 0.227076 0.000000
vn -0.997859 -0.065403 0.000000
vn -0.973877 -0.227076 0.000000
vn -0.923880 -0.382683 0.000000
vn -0.707107 -0.707107 0.000000
vn 0.608761 0.793353 0.000000
vn 0.923880 0.382683 0.000000
vn -0.997859 0.065403 0.000000
vn -0.866025 0.500000 0.000000
vn -0.793353 -0.608761 0.000000
vn -0.608761 0.793353 0.000000
vn 0.707107 0.707107 0.000000
vn -0.973877 0.227076 0.000000
vn -0.707107 0.707107 0.000000
vn 0.793353 0.608761 0.000000
vn -0.793353 0.608761 0.000000
vn -0.923880 0.382683 0.000000
vn -0.360360 0.932813 0.000000
vn -0.024992 0.999688 0.000000
vn -0.493687 -0.869640 0.000000
vn -0.353517 -0.935428 0.000000
vn 0.032684 -0.999466 0.000000
vn 0.043592 -0.999049 0.000000
vn -0.029987 -0.999550 0.000000
vt -2.775512 2.092447
vt -2.775890 2.092496
vt -2.778251 2.087941
vt -23.402683 3.024887
vt -23.424555 3.025267
vt -23.424555 3.024887
vt -2.763847 2.092447
vt -23.399038 3.024887
vt -23.424555 2.763847
vt -23.402683 2.775512
vt -23.424555 2.775512
vt -2.776070 2.092558
vt -23.399038 3.025267
vt -23.402683 2.826940
vt -23.399038 2.739424
vt -23.399038 2.826940
vt -23.399038 2.107028
vt -23.402683 2.092447
vt -23.399038 2.092447
vt -23.399038 2.763847
vt -23.399038 2.775512
vt -23.399038 3.301185
vt -23.424555 3.301375
vt -23.424555 3.301185
vt -2.776241 2.092642
vt -2.763470 2.092496
vt -2.775512 2.107028
vt -23.402683 2.739424
vt -2.688023 2.090260
vt -23.402683 2.107028
vt -2.763847 2.107028
vt 23.424555 -2.467083
vt 23.399038 -2.466702
vt 23.399038 -2.467083
vt -23.399038 3.301375
vt -23.399038 3.415296
vt -23.424555 3.415487
vt -23.424555 3.415296
vt -2.776400 2.092748
vt -2.778251 2.111534
vt -2.761109 2.087941
vt -2.763289 2.092558
vt 23.424555 -2.466702
vt -2.775890 2.106979
vt 2.775512 2.092447
vt 2.688023 2.109216
vt 2.688023 2.090260
vt 23.402683 2.109216
vt 23.399038 2.090260
vt 23.402683 2.090260
vt 23.399038 2.775512
vt 23.402683 2.763847
vt 23.402683 2.775512
vt -23.402683 -2.476745
vt -23.399038 -2.477126
vt -23.399038 -2.476745
vt 2.763847 2.107028
vt 2.775512 2.107028
vt 23.399038 2.763847
vt -2.763470 2.106979
vt -2.776070 2.106917
vt -23.399038 3.415487
vt -23.399038 3.470970
vt -23.424555 3.471161
vt -23.424555 3.470970
vt -2.776543 2.092874
vt -2.776970 2.093905
vt -2.763118 2.092642
vt 23.399038 -1.944011
vt 23.424555 -1.944202
vt 23.424555 -1.944011
vt 23.399038 -1.944202
vt 2.760931 2.107028
vt 23.399038 2.109216
vt 23.424555 2.763847
vt -23.424555 -2.477126
vt 23.402683 2.760931
vt 23.399038 3.015224
vt 23.424555 3.014844
vt 23.402683 3.015224
vt -2.760931 2.107028
vt 23.399038 3.014844
vt -2.763289 2.106917
vt -23.399038 3.471161
vt -23.399038 3.467253
vt -23.424555 3.467443
vt -23.424555 3.467253
vt -2.776669 2.093017
vt -2.776921 2.093528
vt -2.776970 2.105570
vt -2.762439 2.093528
vt -2.762959 2.092748
vt 23.399038 -1.552613
vt 23.424555 -1.552804
vt 23.424555 -1.552613
vt 23.399038 -1.552804
vt -23.424555 -1.951308
vt -23.399038 -1.951498
vt -23.399038 -1.951308
vt -23.399038 -2.696507
vt -23.402683 -2.623566
vt -23.402683 -2.696507
vt -23.399038 -2.623566
vt -2.688023 2.109216
vt 23.424555 2.775512
vt 23.424555 3.015224
vt -23.424555 -2.476745
vt 23.399038 2.760931
vt 23.399038 3.294079
vt 23.424555 3.293888
vt 23.424555 3.294079
vt 23.399038 3.293888
vt -2.776241 2.106833
vt -23.399038 3.467443
vt -23.424555 3.404208
vt -23.399038 3.404399
vt -23.424555 3.404399
vt -2.776775 2.093176
vt -2.776860 2.093347
vt -23.424555 2.438078
vt -23.399038 2.438459
vt -23.424555 2.438459
vt -2.776921 2.105948
vt -23.424555 2.093905
vt -23.399038 2.105570
vt -23.424555 2.105570
vt -2.762389 2.093905
vt -2.762500 2.093347
vt -2.762816 2.092874
vt 23.399038 -1.134648
vt 23.424555 -1.134839
vt 23.424555 -1.134648
vt 23.399038 -1.134839
vt -2.763118 2.106833
vt -23.424555 -1.951498
vt 23.399038 3.410184
vt 23.424555 3.409994
vt 23.424555 3.410184
vt -23.424555 -1.557916
vt -23.399038 -1.558107
vt -23.399038 -1.557916
vt -2.776400 2.106727
vt -23.399038 3.404208
vt -23.399038 3.283106
vt -23.424555 3.282915
vt -23.399038 3.282915
vt -23.424555 3.283106
vt -23.424555 2.874846
vt -23.399038 2.875036
vt -23.424555 2.875036
vt -23.399038 2.438078
vt -23.399038 2.093905
vt -2.776860 2.106128
vt -23.424555 1.725089
vt -23.399038 1.725470
vt -23.424555 1.725470
vt -23.399038 1.725089
vt -2.762389 2.105570
vt 23.424555 1.715427
vt 23.399038 1.715047
vt 23.424555 1.715047
vt 23.424555 1.094467
vt 23.399038 1.094277
vt 23.424555 1.094277
vt -2.762584 2.093176
vt -2.762690 2.093017
vt 23.399038 -0.697267
vt 23.424555 -0.697458
vt 23.424555 -0.697267
vt 23.399038 -0.697458
vt -2.762959 2.106727
vt 23.399038 3.409994
vt -23.424555 -1.558107
vt -23.424555 -1.137867
vt -23.399038 -1.138057
vt -23.399038 -1.137867
vt -2.776543 2.106601
vt -2.776669 2.106458
vt -23.399038 3.105639
vt -23.424555 3.105449
vt -23.399038 3.105449
vt -23.424555 3.105639
vt -23.399038 2.874846
vt -2.776775 2.106299
vt -23.424555 1.101573
vt -23.399038 1.101764
vt -23.424555 1.101764
vt -23.399038 1.101573
vt -2.762439 2.105948
vt 23.424555 2.105570
vt 23.399038 2.093905
vt 23.424555 2.093905
vt 23.399038 1.715427
vt 23.399038 1.094467
vt 23.399038 0.655453
vt 23.424555 0.655643
vt 23.399038 0.655643
vt 23.424555 0.655453
vt 23.424555 -0.247955
vt 23.399038 -0.248145
vt 23.424555 -0.248145
vt -2.762816 2.106601
vt 23.424555 3.467752
vt 23.399038 3.467942
vt 23.399038 3.467752
vt 23.424555 3.467942
vt 23.399038 2.105570
vt -23.424555 -1.138057
vt -23.424555 -0.698346
vt -23.399038 -0.698537
vt -23.399038 -0.698346
vt -23.424555 0.660755
vt -23.399038 0.660946
vt -23.424555 0.660946
vt -23.399038 0.660755
vt 23.424555 2.448501
vt 23.399038 2.448121
vt 23.424555 2.448121
vt -2.762500 2.106128
vt 23.399038 0.205412
vt 23.424555 0.205602
vt 23.399038 0.205602
vt 23.424555 0.205412
vt 23.399038 -0.247955
vt -2.762690 2.106458
vt 23.424555 3.466174
vt 23.399038 3.466365
vt 23.399038 3.466174
vt 23.424555 3.466365
vt 23.399038 2.448501
vt -23.424555 -0.698537
vt -23.399038 -0.246876
vt -23.424555 -0.247066
vt -23.399038 -0.247066
vt -23.399038 0.208821
vt -23.424555 0.208630
vt -23.399038 0.208630
vt -23.424555 0.208821
vt -2.762584 2.106299
vt 23.399038 3.405287
vt 23.424555 3.405478
vt 23.399038 3.405478
vt 23.399038 2.882142
vt 23.424555 2.882333
vt 23.399038 2.882333
vt 23.424555 2.882142
vt -23.424555 -0.246876
vt 23.399038 3.110751
vt 23.424555 3.110942
vt 23.399038 3.110942
vt 23.424555 3.405287
vt 23.424555 3.110751
vt 23.399038 3.286133
vt 23.424555 3.286324
vt 23.399038 3.286324
vt 23.424555 3.286133
usemtl material-0
f 4/4/3 2/5/4 1/6/5
f 6/8/3 2/5/4 4/4/3
f 5/9/6 4/10/3 1/11/5
f 2/5/4 6/8/3 8/13/4
f 4/14/3 9/15/7 6/16/3
f 10/17/8 4/18/3 6/19/3
f 4/10/3 11/20/6 6/21/3
f 11/20/6 4/10/3 5/9/6
f 8/22/4 7/23/9 2/24/4
f 10/27/1 8/2/1 6/1/1
f 9/15/7 4/14/3 14/28/7
f 9/29/1 11/7/1 6/1/1
f 4/18/3 10/17/8 15/30/11
f 6/1/1 16/31/1 10/27/1
f 11/7/1 16/31/1 6/1/1
f 5/32/6 17/33/12 11/34/6
f 7/23/9 8/22/4 18/35/9
f 18/36/9 12/37/13 7/38/9
f 17/33/12 5/32/6 13/43/12
f 8/2/1 10/27/1 22/44/1
f 4/45/15 23/46/15 14/47/15
f 23/48/16 9/49/16 14/50/16
f 9/29/1 17/26/1 11/7/1
f 10/51/8 24/52/17 15/53/11
f 15/54/11 22/55/18 10/56/8
f 24/57/15 4/45/15 15/58/15
f 24/52/17 10/51/8 16/59/19
f 11/7/1 25/60/1 16/31/1
f 17/26/1 25/60/1 11/7/1
f 8/2/1 26/61/1 18/12/1
f 12/37/13 18/36/9 27/62/13
f 27/63/13 19/64/20 12/65/13
f 3/3/1 29/67/1 20/40/1
f 32/69/22 13/70/12 21/71/22
f 13/70/12 32/69/22 17/72/12
f 8/2/1 22/44/1 26/61/1
f 23/46/15 4/45/15 33/73/15
f 9/49/16 23/48/16 34/74/16
f 9/29/1 32/42/1 17/26/1
f 35/75/23 15/53/11 24/52/17
f 22/55/18 15/54/11 36/76/18
f 33/73/15 4/45/15 24/57/15
f 16/59/19 33/77/24 24/52/17
f 16/78/19 37/79/25 24/80/17
f 25/60/1 38/81/1 16/31/1
f 37/79/25 16/78/19 25/82/25
f 17/26/1 39/83/1 25/60/1
f 18/12/1 26/61/1 27/25/1
f 19/64/20 27/63/13 40/84/20
f 40/85/20 28/86/26 19/87/20
f 43/90/1 20/40/1 29/67/1
f 46/93/27 21/94/22 31/95/27
f 21/94/22 46/93/27 32/96/22
f 32/42/1 39/83/1 17/26/1
f 36/97/18 26/98/28 22/99/18
f 38/100/29 23/101/29 33/102/29
f 23/101/29 38/100/29 34/103/29
f 38/81/1 9/29/1 34/104/1
f 9/29/1 46/68/1 32/42/1
f 15/53/11 35/75/23 47/105/30
f 24/80/17 37/79/25 35/106/23
f 36/76/18 15/54/11 47/107/30
f 33/77/24 16/59/19 38/108/24
f 39/83/1 38/81/1 25/60/1
f 25/109/25 48/110/31 37/111/25
f 48/110/31 25/109/25 39/112/31
f 27/25/1 26/61/1 49/113/1
f 27/25/1 49/113/1 40/39/1
f 28/86/26 40/85/20 50/114/26
f 28/115/26 51/116/32 41/117/32
f 42/120/33 54/121/34 29/122/34
f 55/123/1 20/40/1 43/90/1
f 29/124/34 56/125/35 43/126/35
f 44/91/1 30/41/1 57/127/1
f 60/130/37 31/131/27 45/132/37
f 31/131/27 60/130/37 46/133/27
f 46/68/1 61/134/1 32/42/1
f 32/42/1 61/134/1 39/83/1
f 26/98/28 36/97/18 62/135/28
f 9/29/1 38/81/1 63/127/1
f 9/29/1 60/92/1 46/68/1
f 61/134/1 38/81/1 39/83/1
f 39/136/31 64/137/38 48/138/31
f 62/139/28 49/140/39 26/141/28
f 40/39/1 49/113/1 65/142/1
f 40/39/1 65/142/1 50/66/1
f 51/116/32 28/115/26 50/143/26
f 66/144/10 41/145/32 51/146/32
f 41/145/32 66/144/10 52/147/10
f 53/148/40 67/149/33 42/150/33
f 54/121/34 42/120/33 67/151/33
f 56/125/35 29/124/34 54/152/34
f 68/153/1 20/40/1 55/123/1
f 43/154/35 69/155/41 55/156/41
f 69/155/41 43/154/35 56/157/35
f 57/159/42 71/160/43 44/161/43
f 44/162/43 72/163/44 58/164/44
f 75/167/45 45/168/37 59/169/45
f 45/168/37 75/167/45 60/170/37
f 60/92/1 76/171/1 46/68/1
f 46/68/1 76/171/1 61/134/1
f 64/137/38 39/136/31 61/172/38
f 38/81/1 77/158/1 63/127/1
f 9/29/1 63/127/1 71/91/1
f 9/29/1 75/129/1 60/92/1
f 76/171/1 38/81/1 61/134/1
f 49/140/39 62/139/28 78/173/39
f 78/174/39 65/175/46 49/176/39
f 50/66/1 65/142/1 79/177/1
f 50/66/1 80/178/1 51/88/1
f 51/88/1 80/178/1 66/118/1
f 81/179/40 52/180/10 66/181/10
f 52/180/10 81/179/40 53/182/40
f 67/149/33 53/148/40 81/183/40
f 67/89/1 56/90/1 54/67/1
f 82/184/1 20/40/1 68/153/1
f 55/185/41 83/186/47 68/187/47
f 83/186/47 55/185/41 69/188/41
f 67/89/1 69/123/1 56/90/1
f 70/190/48 63/191/42 57/192/42
f 71/160/43 57/159/42 63/193/42
f 72/163/44 44/162/43 71/194/43
f 85/195/36 58/196/44 72/197/44
f 58/196/44 85/195/36 73/198/36
f 74/199/50 75/200/45 59/201/45
f 75/129/1 86/202/1 60/92/1
f 60/92/1 86/202/1 76/171/1
f 87/203/51 61/204/38 76/205/51
f 61/204/38 87/203/51 64/206/38
f 77/158/1 38/81/1 88/189/1
f 77/158/1 71/91/1 63/127/1
f 63/191/42 70/190/48 77/207/48
f 9/29/1 71/91/1 72/128/1
f 9/29/1 89/166/1 75/129/1
f 86/202/1 38/81/1 76/171/1
f 65/175/46 78/174/39 90/208/46
f 90/209/46 79/210/52 65/211/46
f 50/66/1 79/177/1 80/178/1
f 66/118/1 80/178/1 91/184/1
f 66/118/1 91/184/1 81/119/1
f 81/119/1 83/153/1 67/89/1
f 92/178/1 20/40/1 82/184/1
f 68/212/47 91/213/21 82/214/21
f 91/213/21 68/212/47 83/215/47
f 67/89/1 83/153/1 69/123/1
f 84/216/53 77/217/48 70/218/48
f 71/91/1 88/189/1 72/128/1
f 72/128/1 93/219/1 85/165/1
f 9/29/1 72/128/1 85/165/1
f 89/220/50 73/221/36 85/222/36
f 73/221/36 89/220/50 74/223/50
f 75/200/45 74/199/50 89/224/50
f 75/129/1 94/225/1 86/202/1
f 95/226/54 76/227/51 86/228/54
f 76/227/51 95/226/54 87/229/51
f 88/189/1 38/81/1 93/219/1
f 71/91/1 77/158/1 88/189/1
f 77/217/48 84/216/53 88/230/53
f 9/29/1 85/165/1 89/166/1
f 89/166/1 94/225/1 75/129/1
f 94/225/1 38/81/1 86/202/1
f 79/210/52 90/209/46 96/231/52
f 79/232/52 92/233/55 80/234/55
f 80/235/55 82/236/21 91/237/21
f 81/119/1 91/184/1 83/153/1
f 82/236/21 80/235/55 92/238/55
f 72/128/1 88/189/1 93/219/1
f 85/165/1 93/219/1 98/239/1
f 85/165/1 98/239/1 89/166/1
f 94/240/56 95/241/54 86/242/54
f 93/219/1 38/81/1 98/239/1
f 88/243/53 97/244/57 93/245/57
f 97/244/57 88/243/53 84/246/53
f 89/166/1 98/239/1 94/225/1
f 98/239/1 38/81/1 94/225/1
f 92/233/55 79/232/52 96/247/52
f 93/248/57 100/249/49 98/250/49
f 95/241/54 94/240/56 99/251/56
f 100/249/49 93/248/57 97/252/57
f 98/253/49 99/254/56 94/255/56
f 99/254/56 98/253/49 100/256/49
usemtl material-1
f 1//23 2//25 4//58
f 4//58 2//25 6//58
f 1//23 4//58 5//30
f 8//25 6//58 2//25
f 6//58 9//59 4//58
f 6//58 4//58 10//60
f 6//58 11//30 4//58
f 5//30 4//58 11//30
f 2//25 7//31 8//25
f 6//15 8//15 10//15
f 14//59 4//58 9//59
f 6//15 11//15 9//15
f 15//61 10//60 4//58
f 10//15 16//15 6//15
f 6//15 16//15 11//15
f 11//30 17//18 5//30
f 18//31 8//25 7//31
f 7//31 12//38 18//31
f 13//18 5//30 17//18
f 22//15 10//15 8//15
f 14//1 23//1 4//1
f 14//14 9//14 23//14
f 11//15 17//15 9//15
f 15//61 24//62 10//60
f 10//60 22//12 15//61
f 15//1 4//1 24//1
f 16//63 10//60 24//62
f 16//15 25//15 11//15
f 11//15 25//15 17//15
f 18//15 26//15 8//15
f 27//38 18//31 12//38
f 12//38 19//51 27//38
f 20//15 29//15 3//15
f 21//28 13//18 32//28
f 17//18 32//28 13//18
f 26//15 22//15 8//15
f 33//1 4//1 23//1
f 34//14 23//14 9//14
f 17//15 32//15 9//15
f 24//62 15//61 35//5
f 36//12 15//61 22//12
f 24//1 4//1 33//1
f 24//62 33//2 16//63
f 24//62 37//4 16//63
f 16//15 38//15 25//15
f 25//4 16//63 37//4
f 25//15 39//15 17//15
f 27//15 26//15 18//15
f 40//51 27//38 19//51
f 19//51 28//54 40//51
f 29//15 20//15 43//15
f 31//39 21//28 46//39
f 32//28 46//39 21//28
f 17//15 39//15 32//15
f 22//12 26//22 36//12
f 33//64 23//64 38//64
f 34//64 38//64 23//64
f 34//15 9//15 38//15
f 32//15 46//15 9//15
f 47//6 35//5 15//61
f 35//5 37//4 24//62
f 47//6 15//61 36//12
f 38//2 16//63 33//2
f 25//15 38//15 39//15
f 37//4 48//9 25//4
f 39//9 25//4 48//9
f 49//15 26//15 27//15
f 40//15 49//15 27//15
f 50//54 40//51 28//54
f 41//56 51//56 28//54
f 29//48 54//48 42//53
f 43//15 20//15 55//15
f 43//42 56//42 29//48
f 57//15 30//15 44//15
f 45//46 31//39 60//46
f 46//39 60//46 31//39
f 32//15 61//15 46//15
f 39//15 61//15 32//15
f 62//22 36//12 26//22
f 63//15 38//15 9//15
f 46//15 60//15 9//15
f 39//15 38//15 61//15
f 48//9 64//13 39//9
f 26//22 49//27 62//22
f 65//15 49//15 40//15
f 50//15 65//15 40//15
f 50//54 28//54 51//56
f 51//56 41//56 66//49
f 52//49 66//49 41//56
f 42//53 67//53 53//57
f 67//53 42//53 54//48
f 54//48 29//48 56//42
f 55//15 20//15 68//15
f 55//43 69//43 43//42
f 56//42 43//42 69//43
f 44//41 71//41 57//35
f 58//47 72//47 44//41
f 59//52 45//46 75//52
f 60//46 75//52 45//46
f 46//15 76//15 60//15
f 61//15 76//15 46//15
f 61//13 39//9 64//13
f 63//15 77//15 38//15
f 71//15 63//15 9//15
f 60//15 75//15 9//15
f 61//15 38//15 76//15
f 78//27 62//22 49//27
f 49//27 65//37 78//27
f 79//15 65//15 50//15
f 51//15 80//15 50//15
f 66//15 80//15 51//15
f 66//49 52//49 81//57
f 53//57 81//57 52//49
f 81//57 53//57 67//53
f 54//15 56//15 67//15
f 68//15 20//15 82//15
f 68//44 83//44 55//43
f 69//43 55//43 83//44
f 56//15 69//15 67//15
f 57//35 63//35 70//34
f 63//35 57//35 71//41
f 71//41 44//41 72//47
f 72//47 58//47 85//21
f 73//21 85//21 58//47
f 59//52 75//52 74//55
f 60//15 86//15 75//15
f 76//15 86//15 60//15
f 76//20 61//13 87//20
f 64//13 87//20 61//13
f 88//15 38//15 77//15
f 63//15 71//15 77//15
f 77//34 70//34 63//35
f 72//15 71//15 9//15
f 75//15 89//15 9//15
f 76//15 38//15 86//15
f 90//37 78//27 65//37
f 65//37 79//45 90//37
f 80//15 79//15 50//15
f 91//15 80//15 66//15
f 81//15 91//15 66//15
f 67//15 83//15 81//15
f 82//15 20//15 92//15
f 82//36 91//36 68//44
f 83//44 68//44 91//36
f 69//15 83//15 67//15
f 70//34 77//34 84//33
f 72//15 88//15 71//15
f 85//15 93//15 72//15
f 85//15 72//15 9//15
f 85//21 73//21 89//55
f 74//55 89//55 73//21
f 89//55 74//55 75//52
f 86//15 94//15 75//15
f 86//26 76//20 95//26
f 87//20 95//26 76//20
f 93//15 38//15 88//15
f 88//15 77//15 71//15
f 88//33 84//33 77//34
f 89//15 85//15 9//15
f 75//15 94//15 89//15
f 86//15 38//15 94//15
f 96//45 90//37 79//45
f 80//50 92//50 79//45
f 91//36 82//36 80//50
f 83//15 91//15 81//15
f 92//50 80//50 82//36
f 93//15 88//15 72//15
f 98//15 93//15 85//15
f 89//15 98//15 85//15
f 86//26 95//26 94//32
f 98//15 38//15 93//15
f 93//40 97//40 88//33
f 84//33 88//33 97//40
f 94//15 98//15 89//15
f 94//15 38//15 98//15
f 96//45 79//45 92//50
f 98//10 100//10 93//40
f 99//32 94//32 95//26
f 97//40 93//40 100//10
f 94//32 99//32 98//10
f 100//10 98//10 99//32