mtllib new-5.mtl
v 0.080679 -0.574700 -0.004138
v 0.080679 0.666785 -0.004138
v -0.106544 -0.574700 -0.004138
v 0.080679 -0.574700 -0.040946
v -0.106544 0.666785 -0.040946
v 0.080679 0.666785 -0.040946
v -0.106544 -0.574700 -0.040946
v 0.107944 0.694050 -0.040946
v 0.107944 -0.601965 -0.040946
v -0.133809 -0.601965 -0.040946
v -0.133809 0.694050 -0.040946
v 0.107944 -0.601965 -0.039129
v -0.133809 0.694050 -0.039129
v -0.133809 -0.601965 -0.039129
v 0.107944 0.694050 -0.039129
v 0.335156 0.921262 -0.039129
v 0.335156 -0.829177 -0.039129
v -0.361021 -0.829177 -0.039129
v -0.361021 0.921262 -0.039129
v 0.335156 -0.829177 -0.053670
v 0.335156 0.921262 -0.053670
v -0.361021 0.921262 -0.053670
v -0.361021 -0.829177 -0.053670
vn -1.000000 0.000000 0.000000
vn 0.000000 1.000000 0.000000
vn 0.000000 0.000000 1.000000
vn 0.000000 -1.000000 0.000000
vn 1.000000 0.000000 0.000000
vn 0.000000 0.000000 -1.000000
vt -0.363434 1.248906
vt -0.333907 0.252989
vt -0.363434 0.252989
vt 0.333907 0.388917
vt 0.363434 0.539106
vt 0.363434 0.388917
vt -0.333907 1.248906
vt 0.333907 0.539106
vt -0.388917 1.248906
vt -0.367045 1.270779
vt -0.388917 0.252989
vt -0.539106 1.248906
vt -0.367045 0.231117
vt -0.539106 0.252989
vt -0.560979 0.231117
vt -0.560979 1.270779
vt 0.333907 1.270779
vt 0.335365 0.231117
vt 0.333907 0.231117
vt 0.335365 0.560979
vt 0.333907 0.367045
vt 0.333907 0.560979
vt -0.333907 0.367045
vt -0.335365 0.560979
vt -0.333907 0.560979
vt 0.335365 1.270779
vt -0.335365 0.367045
vt -0.333907 0.231117
vt -0.335365 1.270779
vt -0.333907 1.270779
vt 0.335365 0.367045
vt -0.335365 0.231117
usemtl material-0
f 2/1/1 4/2/1 1/3/1
f 4/4/2 3/5/2 1/6/2
f 4/2/1 2/1/1 6/7/1
f 3/5/2 4/4/2 7/8/2
f 6/9/6 8/10/6 4/11/6
f 5/12/6 8/10/6 6/9/6
f 9/13/6 7/14/6 4/11/6
f 9/13/6 4/11/6 8/10/6
f 7/14/6 10/15/6 5/12/6
f 5/12/6 11/16/6 8/10/6
f 10/15/6 7/14/6 9/13/6
f 8/17/5 12/18/5 9/19/5
f 11/16/6 5/12/6 10/15/6
f 13/20/2 8/21/2 11/22/2
f 9/23/4 14/24/4 10/25/4
f 12/18/5 8/17/5 15/26/5
f 14/24/4 9/23/4 12/27/4
f 10/28/1 13/29/1 11/30/1
f 8/21/2 13/20/2 15/31/2
f 13/29/1 10/28/1 14/32/1
usemtl material-1
f 1//5 4//5 2//5
f 1//4 3//4 4//4
f 6//5 2//5 4//5
f 7//4 4//4 3//4
f 4//3 8//3 6//3
f 6//3 8//3 5//3
f 4//3 7//3 9//3
f 8//3 4//3 9//3
f 5//3 10//3 7//3
f 8//3 11//3 5//3
f 9//3 7//3 10//3
f 9//1 12//1 8//1
f 10//3 5//3 11//3
f 11//4 8//4 13//4
f 10//2 14//2 9//2
f 15//1 8//1 12//1
f 12//2 9//2 14//2
f 11//5 13//5 10//5
f 15//4 13//4 8//4
f 14//5 10//5 13//5
f 12//3 16//3 15//3
f 12//3 14//3 17//3
f 15//3 16//3 13//3
f 13//3 18//3 14//3
f 16//3 12//3 17//3
f 17//3 14//3 18//3
f 16//3 19//3 13//3
f 18//3 13//3 19//3
f 17//5 20//5 16//5
f 17//4 18//4 20//4
f 16//2 21//2 19//2
f 21//5 16//5 20//5
f 23//4 20//4 18//4
f 22//2 19//2 21//2
usemtl material-3
f 15//6 16//6 12//6
f 17//6 14//6 12//6
f 13//6 16//6 15//6
f 14//6 18//6 13//6
f 17//6 12//6 16//6
f 18//6 14//6 17//6
f 13//6 19//6 16//6
f 19//6 13//6 18//6
f 16//1 20//1 17//1
f 20//2 18//2 17//2
f 19//4 21//4 16//4
f 20//1 16//1 21//1
f 18//2 20//2 23//2
f 21//4 19//4 22//4