mtllib new-4.mtl
v 0.080679 0.666785 0.037214
v 0.080679 -0.574700 0.000406
v 0.080679 -0.574700 0.037214
v -0.106544 -0.574700 0.037214
v 0.107944 0.694050 0.037214
v -0.106544 -0.574700 0.000406
v 0.107944 -0.601965 0.037214
v -0.106544 0.666785 0.037214
v -0.133809 -0.601965 0.037214
v -0.133809 0.694050 0.037214
v 0.107944 0.694050 0.035397
v 0.107944 -0.601965 0.035397
v -0.133809 -0.601965 0.035397
v -0.133809 0.694050 0.035397
v 0.335156 0.921262 0.035397
v 0.335156 -0.829177 0.035397
v -0.361021 -0.829177 0.035397
v -0.361021 0.921262 0.035397
v -0.361021 -0.829177 0.049938
v -0.361021 0.921262 0.049938
v 0.335156 -0.829177 0.049938
vn -1.000000 0.000000 0.000000
vn 0.000000 1.000000 0.000000
vn 0.000000 0.000000 1.000000
vn 0.000000 -1.000000 0.000000
vn 1.000000 0.000000 0.000000
vn 0.000000 0.000000 -1.000000
vt 0.367079 0.388917
vt 0.396607 0.539106
vt 0.396607 0.388917
vt 0.367045 1.270779
vt 0.388917 1.248906
vt 0.388917 0.252989
vt 0.367079 0.539106
vt 0.539106 0.252989
vt 0.367045 0.231117
vt 0.539106 1.248906
vt 0.560979 0.231117
vt 0.560979 1.270779
vt 0.396607 0.231117
vt 0.395149 1.270779
vt 0.396607 1.270779
vt -0.396607 0.560979
vt -0.395149 0.367045
vt -0.396607 0.367045
vt 0.395149 0.367045
vt 0.396607 0.560979
vt 0.396607 0.367045
vt 0.395149 0.231117
vt -0.395149 0.560979
vt -0.396607 1.270779
vt -0.395149 0.231117
vt -0.396607 0.231117
vt 0.395149 0.560979
vt -0.395149 1.270779
usemtl material-0
f 2/1/2 4/2/2 3/3/2
f 5/4/3 1/5/3 3/6/3
f 4/2/2 2/1/2 6/7/2
f 4/8/3 7/9/3 3/6/3
f 5/4/3 8/10/3 1/5/3
f 3/6/3 7/9/3 5/4/3
f 4/8/3 9/11/3 7/9/3
f 10/12/3 8/10/3 5/4/3
f 7/13/5 11/14/5 5/15/5
f 9/11/3 4/8/3 8/10/3
f 9/16/4 12/17/4 7/18/4
f 8/10/3 10/12/3 9/11/3
f 11/19/2 10/20/2 5/21/2
f 11/14/5 7/13/5 12/22/5
f 12/17/4 9/16/4 13/23/4
f 10/24/1 13/25/1 9/26/1
f 10/20/2 11/19/2 14/27/2
f 13/25/1 10/24/1 14/28/1
usemtl material-1
f 3//4 4//4 2//4
f 3//6 1//6 5//6
f 6//4 2//4 4//4
f 3//6 7//6 4//6
f 1//6 8//6 5//6
f 5//6 7//6 3//6
f 7//6 9//6 4//6
f 5//6 8//6 10//6
f 5//1 11//1 7//1
f 8//6 4//6 9//6
f 7//2 12//2 9//2
f 9//6 10//6 8//6
f 5//4 10//4 11//4
f 12//1 7//1 11//1
f 13//2 9//2 12//2
f 9//5 13//5 10//5
f 14//4 11//4 10//4
f 12//6 11//6 15//6
f 12//6 16//6 13//6
f 14//5 10//5 13//5
f 11//6 14//6 15//6
f 15//6 16//6 12//6
f 16//6 17//6 13//6
f 14//6 13//6 17//6
f 15//6 14//6 18//6
f 17//4 16//4 19//4
f 17//6 18//6 14//6
f 18//2 20//2 15//2
f 21//4 19//4 16//4
f 17//1 19//1 18//1
f 20//1 18//1 19//1
usemtl material-3
f 15//3 11//3 12//3
f 13//3 16//3 12//3
f 15//3 14//3 11//3
f 12//3 16//3 15//3
f 13//3 17//3 16//3
f 17//3 13//3 14//3
f 18//3 14//3 15//3
f 19//2 16//2 17//2
f 14//3 18//3 17//3
f 15//4 20//4 18//4
f 16//2 19//2 21//2
f 18//5 19//5 17//5
f 19//5 18//5 20//5