# SSTK version 0.8.0
# 5
mtllib original-5.mtl
o mesh5/mesh5-geometry#mesh5-geometry
v 0.255830 -0.183884 0.014402
v 0.255830 -0.174475 0.014402
v 0.256450 -0.179179 0.014402
v 0.254014 -0.188268 0.014402
v 0.256450 -0.179179 0.087110
v 0.255830 -0.183884 0.087110
v 0.254014 -0.188268 0.087110
v 0.254014 -0.170091 0.014402
v 0.255830 -0.174475 0.087110
v 0.251126 -0.192032 0.087110
v 0.251126 -0.192032 0.014402
v 0.254014 -0.170091 0.087110
v 0.251126 -0.166326 0.087110
v 0.251126 -0.166326 0.014402
v 0.247361 -0.194921 0.014402
v 0.247361 -0.163437 0.087110
v 0.247361 -0.194921 0.087110
v 0.247361 -0.163437 0.014402
v 0.242977 -0.196737 0.014402
v 0.242977 -0.161622 0.087110
v 0.242977 -0.196737 0.087110
v 0.242977 -0.161622 0.014402
v 0.238273 -0.197356 0.014402
v 0.238273 -0.161002 0.087110
v 0.238273 -0.197356 0.087110
v 0.238273 -0.161002 0.014402
v 0.233568 -0.196737 0.014402
v 0.233568 -0.161622 0.087110
v 0.233568 -0.196737 0.087110
v 0.233568 -0.161622 0.014402
v 0.229184 -0.194921 0.014402
v 0.229184 -0.163437 0.087110
v 0.229184 -0.194921 0.087110
v 0.229184 -0.163437 0.014402
v 0.225420 -0.192032 0.014402
v 0.225420 -0.166326 0.087110
v 0.225420 -0.192032 0.087110
v 0.225420 -0.166326 0.014402
v 0.222531 -0.188268 0.087110
v 0.222531 -0.188268 0.014402
v 0.222531 -0.170091 0.014402
v 0.222531 -0.170091 0.087110
v 0.220715 -0.183884 0.087110
v 0.220715 -0.174475 0.087110
v 0.220715 -0.183884 0.014402
v 0.220715 -0.174475 0.014402
v 0.220096 -0.179179 0.087110
v 0.220096 -0.179179 0.014402
vt 0.000497 0.010808
vt 0.000497 0.018355
vt 0 0.014582
vt 0.001954 0.007291
vt 0.058326 0.018263
vt 0 0.014457
vt 0.058326 0.014457
vt 0 0.01065
vt 0.058326 0.01065
vt 0.058326 0.009795
vt 0 0.005988
vt 0.058326 0.005988
vt 0.001954 0.021872
vt 0 0.018263
vt 0 0.009795
vt 0 0.000788
vt 0.058326 0.004595
vt 0 0.004595
vt 0.004271 0.004271
vt 0.058326 0.020955
vt 0 0.017148
vt 0.058326 0.017148
vt -0.000497 0.018355
vt -0.000497 0.010808
vt -0.001954 0.021872
vt -0.001954 0.007291
vt 0.058326 0.000788
vt -0.004271 0.024892
vt -0.004271 0.004271
vt 0.004271 0.024892
vt 0 0.020955
vt 0 -0.000788
vt 0.058326 -0.004595
vt 0.058326 -0.000788
vt -0.007291 0.027209
vt 0.007291 0.001954
vt 0.058326 0.022348
vt 0 0.018542
vt 0.058326 0.018542
vt 0 0.022348
vt 0 -0.004595
vt -0.007291 0.001954
vt 0.007291 0.027209
vt 0 -0.005988
vt 0.058326 -0.009795
vt 0.058326 -0.005988
vt -0.010808 0.028666
vt 0.010808 0.000497
vt 0 -0.009795
vt -0.010808 0.000497
vt 0.010808 0.028666
vt 0 -0.01065
vt 0.058326 -0.014457
vt 0.058326 -0.01065
vt -0.014582 0.029163
vt 0.014582 0
vt 0 -0.014457
vt -0.014582 0
vt 0.014582 0.029163
vt -0.058326 0.018263
vt -0.058326 0.014457
vt -0.018355 0.028666
vt 0.018355 0.000497
vt -0.058326 -0.01065
vt -0.018355 0.000497
vt 0.018355 0.028666
vt -0.058326 0.020955
vt -0.058326 0.017148
vt -0.058326 -0.014457
vt -0.021872 0.027209
vt 0.021872 0.001954
vt -0.058326 -0.005988
vt -0.021872 0.001954
vt 0.021872 0.027209
vt -0.058326 0.022348
vt -0.058326 0.018542
vt -0.058326 -0.009795
vt -0.024892 0.024892
vt 0.024892 0.004271
vt -0.058326 -0.000788
vt -0.024892 0.004271
vt 0.024892 0.024892
vt -0.058326 -0.004595
vt -0.027209 0.007291
vt 0.027209 0.007291
vt -0.058326 0.000788
vt -0.058326 0.004595
vt -0.027209 0.021872
vt 0.027209 0.021872
vt -0.028666 0.018355
vt 0.028666 0.010808
vt -0.028666 0.010808
vt -0.058326 0.005988
vt -0.058326 0.009795
vt 0.028666 0.018355
vt -0.029163 0.014582
vt -0.058326 0.01065
vt 0.029163 0.014582
vn 0 0 -1
vn 0 0 1
vn 0.965925849201117 0.2588189595935754 0
vn 1 0 0
vn -1 0 0
vn -0.965925849201117 -0.2588189595935754 0
vn 0.965925849201117 -0.2588189595935754 0
vn -0.965925849201117 0.2588189595935754 0
vn 0.8660253028382762 -0.5000001748438417 0
vn -0.8660253028382762 0.5000001748438417 0
vn 0.7071067811865475 -0.7071067811865475 0
vn -0.7071067811865475 0.7071067811865475 0
vn 0.8660253028382762 0.5000001748438417 0
vn -0.8660253028382762 -0.5000001748438417 0
vn 0.5000001748438417 -0.8660253028382762 0
vn -0.5000001748438417 0.8660253028382762 0
vn 0.7071067811865475 0.7071067811865475 0
vn -0.7071067811865475 -0.7071067811865475 0
vn 0.5000001748438417 0.8660253028382762 0
vn -0.5000001748438417 -0.8660253028382762 0
vn 0.2588189595935754 -0.965925849201117 0
vn -0.2588189595935754 0.965925849201117 0
vn 0.2588189595935754 0.965925849201117 0
vn -0.2588189595935754 -0.965925849201117 0
vn 0 -1 0
vn 0 1 0
usemtl material_0_0
f 1/1/1 2/2/1 3/3/1
f 2/2/1 1/1/1 4/4/1
f 3/3/2 2/2/2 1/1/2
f 4/4/2 1/1/2 2/2/2
f 2/5/3 5/6/4 3/7/4
f 3/7/5 5/6/5 2/5/6
f 3/7/4 6/8/7 1/9/7
f 1/9/8 6/8/8 3/7/5
f 1/10/7 7/11/9 4/12/9
f 4/12/10 7/11/10 1/10/8
f 2/2/1 4/4/1 8/13/1
f 8/13/2 4/4/2 2/2/2
f 5/6/4 2/5/3 9/14/3
f 9/14/6 2/5/6 5/6/5
f 6/8/7 3/7/4 5/6/4
f 5/6/5 3/7/5 6/8/8
f 7/11/9 1/10/7 6/15/7
f 6/15/8 1/10/8 7/11/10
f 10/16/11 4/17/9 7/18/9
f 7/18/10 4/17/10 10/16/12
f 8/13/1 4/4/1 11/19/1
f 11/19/2 4/4/2 8/13/2
f 8/20/13 9/21/3 2/22/3
f 2/22/6 9/21/6 8/20/14
f 9/23/2 6/24/2 5/3/2
f 5/3/1 6/24/1 9/23/1
f 6/24/2 12/25/2 7/26/2
f 7/26/1 12/25/1 6/24/1
f 4/17/9 10/16/11 11/27/11
f 11/27/12 10/16/12 4/17/10
f 7/26/2 13/28/2 10/29/2
f 10/29/1 13/28/1 7/26/1
f 8/13/1 11/19/1 14/30/1
f 14/30/2 11/19/2 8/13/2
f 9/21/3 8/20/13 12/31/13
f 12/31/14 8/20/14 9/21/6
f 6/24/2 9/23/2 12/25/2
f 12/25/1 9/23/1 6/24/1
f 7/26/2 12/25/2 13/28/2
f 13/28/1 12/25/1 7/26/1
f 10/32/11 15/33/15 11/34/11
f 11/34/12 15/33/16 10/32/12
f 10/29/2 13/28/2 16/35/2
f 16/35/1 13/28/1 10/29/1
f 14/30/1 11/19/1 15/36/1
f 15/36/2 11/19/2 14/30/2
f 14/37/17 12/38/13 8/39/13
f 8/39/14 12/38/14 14/37/18
f 12/38/13 14/37/17 13/40/17
f 13/40/18 14/37/18 12/38/14
f 15/33/15 10/32/11 17/41/15
f 17/41/16 10/32/12 15/33/16
f 14/39/17 16/40/19 13/38/17
f 13/38/18 16/40/20 14/39/18
f 10/29/2 16/35/2 17/42/2
f 17/42/1 16/35/1 10/29/1
f 14/30/1 15/36/1 18/43/1
f 18/43/2 15/36/2 14/30/2
f 17/44/15 19/45/21 15/46/15
f 15/46/16 19/45/22 17/44/16
f 16/40/19 14/39/17 18/37/19
f 18/37/20 14/39/18 16/40/20
f 17/42/2 16/35/2 20/47/2
f 20/47/1 16/35/1 17/42/1
f 18/43/1 15/36/1 19/48/1
f 19/48/2 15/36/2 18/43/2
f 19/45/21 17/44/15 21/49/21
f 21/49/22 17/44/16 19/45/22
f 18/22/19 20/31/23 16/21/19
f 16/21/20 20/31/24 18/22/20
f 17/42/2 20/47/2 21/50/2
f 21/50/1 20/47/1 17/42/1
f 18/43/1 19/48/1 22/51/1
f 22/51/2 19/48/2 18/43/2
f 21/52/21 23/53/25 19/54/21
f 19/54/22 23/53/26 21/52/22
f 20/31/23 18/22/19 22/20/23
f 22/20/24 18/22/20 20/31/24
f 21/50/2 20/47/2 24/55/2
f 24/55/1 20/47/1 21/50/1
f 22/51/1 19/48/1 23/56/1
f 23/56/2 19/48/2 22/51/2
f 23/53/25 21/52/21 25/57/25
f 25/57/26 21/52/22 23/53/26
f 22/7/23 24/14/26 20/6/23
f 20/6/24 24/14/25 22/7/24
f 21/50/2 24/55/2 25/58/2
f 25/58/1 24/55/1 21/50/1
f 22/51/1 23/56/1 26/59/1
f 26/59/2 23/56/2 22/51/2
f 25/6/25 27/60/24 23/61/25
f 23/61/26 27/60/23 25/6/26
f 24/14/26 22/7/23 26/5/26
f 26/5/25 22/7/24 24/14/25
f 25/58/2 24/55/2 28/62/2
f 28/62/1 24/55/1 25/58/1
f 26/59/1 23/56/1 27/63/1
f 27/63/2 23/56/2 26/59/2
f 27/60/24 25/6/25 29/14/24
f 29/14/23 25/6/26 27/60/23
f 26/64/26 28/57/22 24/52/26
f 24/52/25 28/57/21 26/64/25
f 25/58/2 28/62/2 29/65/2
f 29/65/1 28/62/1 25/58/1
f 26/59/1 27/63/1 30/66/1
f 30/66/2 27/63/2 26/59/2
f 29/21/24 31/67/20 27/68/24
f 27/68/23 31/67/19 29/21/23
f 28/57/22 26/64/26 30/69/22
f 30/69/21 26/64/25 28/57/21
f 29/65/2 28/62/2 32/70/2
f 32/70/1 28/62/1 29/65/1
f 30/66/1 27/63/1 31/71/1
f 31/71/2 27/63/2 30/66/2
f 31/67/20 29/21/24 33/31/20
f 33/31/19 29/21/23 31/67/19
f 30/72/22 32/49/16 28/44/22
f 28/44/21 32/49/15 30/72/21
f 29/65/2 32/70/2 33/73/2
f 33/73/1 32/70/1 29/65/1
f 30/66/1 31/71/1 34/74/1
f 34/74/2 31/71/2 30/66/2
f 33/38/20 35/75/18 31/76/20
f 31/76/19 35/75/17 33/38/19
f 32/49/16 30/72/22 34/77/16
f 34/77/15 30/72/21 32/49/15
f 33/73/2 32/70/2 36/78/2
f 36/78/1 32/70/1 33/73/1
f 34/74/1 31/71/1 35/79/1
f 35/79/2 31/71/2 34/74/2
f 35/75/18 33/38/20 37/40/18
f 37/40/17 33/38/19 35/75/17
f 34/80/16 36/41/12 32/32/16
f 32/32/15 36/41/11 34/80/15
f 33/73/2 36/78/2 37/81/2
f 37/81/1 36/78/1 33/73/1
f 34/74/1 35/79/1 38/82/1
f 38/82/2 35/79/2 34/74/2
f 39/40/14 35/76/18 37/38/18
f 37/38/17 35/76/17 39/40/13
f 36/41/12 34/80/16 38/83/12
f 38/83/11 34/80/15 36/41/11
f 37/81/2 36/78/2 39/84/2
f 39/84/1 36/78/1 37/81/1
f 38/82/1 35/79/1 40/85/1
f 40/85/2 35/79/2 38/82/2
f 35/76/18 39/40/14 40/75/14
f 40/75/13 39/40/13 35/76/17
f 41/86/10 36/18/12 38/87/12
f 38/87/11 36/18/11 41/86/9
f 39/84/2 36/78/2 42/88/2
f 42/88/1 36/78/1 39/84/1
f 38/82/1 40/85/1 41/89/1
f 41/89/2 40/85/2 38/82/2
f 43/31/6 40/68/14 39/21/14
f 39/21/13 40/68/13 43/31/3
f 36/18/12 41/86/10 42/16/10
f 42/16/9 41/86/9 36/18/11
f 39/84/2 42/88/2 44/90/2
f 44/90/1 42/88/1 39/84/1
f 41/89/1 40/85/1 45/91/1
f 45/91/2 40/85/2 41/89/2
f 40/68/14 43/31/6 45/67/6
f 45/67/3 43/31/3 40/68/13
f 39/84/2 44/90/2 43/92/2
f 43/92/1 44/90/1 39/84/1
f 46/93/8 42/15/10 41/94/10
f 41/94/9 42/15/9 46/93/7
f 42/15/10 46/93/8 44/11/8
f 44/11/7 46/93/7 42/15/9
f 41/89/1 45/91/1 46/95/1
f 46/95/2 45/91/2 41/89/2
f 47/14/5 45/61/6 43/6/6
f 43/6/3 45/61/3 47/14/4
f 43/92/2 44/90/2 47/96/2
f 47/96/1 44/90/1 43/92/1
f 48/97/5 44/6/8 46/61/8
f 46/61/7 44/6/7 48/97/4
f 46/95/1 45/91/1 48/98/1
f 48/98/2 45/91/2 46/95/2
f 45/61/6 47/14/5 48/60/5
f 48/60/4 47/14/4 45/61/3
f 44/6/8 48/97/5 47/8/5
f 47/8/4 48/97/4 44/6/7
