# SSTK version 0.8.0
# 4
mtllib original-4.mtl
o mesh4/mesh4-geometry#mesh4-geometry
v 0.256450 0.366129 0.014402
v 0.255830 0.361424 0.087110
v 0.255830 0.361424 0.014402
v 0.256450 0.366129 0.087110
v 0.254014 0.357040 0.087110
v 0.255830 0.370833 0.014402
v 0.255830 0.370833 0.087110
v 0.254014 0.357040 0.014402
v 0.254014 0.375217 0.087110
v 0.251126 0.353276 0.087110
v 0.251126 0.378982 0.087110
v 0.254014 0.375217 0.014402
v 0.251126 0.353276 0.014402
v 0.251126 0.378982 0.014402
v 0.247361 0.350387 0.014402
v 0.247361 0.381871 0.087110
v 0.247361 0.350387 0.087110
v 0.247361 0.381871 0.014402
v 0.242977 0.348571 0.014402
v 0.242977 0.383686 0.087110
v 0.242977 0.348571 0.087110
v 0.242977 0.383686 0.014402
v 0.238273 0.347952 0.014402
v 0.238273 0.384306 0.087110
v 0.238273 0.347952 0.087110
v 0.238273 0.384306 0.014402
v 0.233568 0.348571 0.014402
v 0.233568 0.383686 0.087110
v 0.233568 0.348571 0.087110
v 0.233568 0.383686 0.014402
v 0.229184 0.350387 0.014402
v 0.229184 0.381871 0.087110
v 0.229184 0.350387 0.087110
v 0.229184 0.381871 0.014402
v 0.225420 0.353276 0.014402
v 0.225420 0.378982 0.087110
v 0.225420 0.353276 0.087110
v 0.225420 0.378982 0.014402
v 0.222531 0.357040 0.087110
v 0.222531 0.375217 0.014402
v 0.222531 0.357040 0.014402
v 0.222531 0.375217 0.087110
v 0.220715 0.361424 0.087110
v 0.220715 0.370833 0.087110
v 0.220715 0.370833 0.014402
v 0.220715 0.361424 0.014402
v 0.220096 0.366129 0.087110
v 0.220096 0.366129 0.014402
vt 0.058326 0.44816
vt 0 0.444353
vt 0.058326 0.444353
vt 0 0.44816
vt 0 0.410135
vt 0.058326 0.413942
vt 0 0.413942
vt 0.000497 0.448253
vt 0.000497 0.455801
vt 0 0.452027
vt 0.058326 0.451966
vt -0.000497 0.455801
vt -0.000497 0.448253
vt 0.058326 0.410135
vt -0.001954 0.459318
vt -0.001954 0.444736
vt 0.001954 0.444736
vt 0 0.451966
vt 0 0.347837
vt 0.058326 0.351644
vt 0 0.351644
vt -0.004271 0.462338
vt 0.001954 0.459318
vt 0.058326 0.425102
vt 0 0.421295
vt 0.058326 0.421295
vt 0 0.425102
vt 0.058326 0.347837
vt -0.004271 0.441716
vt 0 0.36559
vt 0.058326 0.369397
vt 0 0.369397
vt 0.004271 0.441716
vt 0.058326 0.36559
vt 0 0.265511
vt 0.058326 0.261705
vt 0.058326 0.265511
vt -0.007291 0.464655
vt 0.058326 0.284842
vt 0 0.288648
vt 0 0.284842
vt 0.004271 0.462338
vt 0 0.261705
vt 0.007291 0.439399
vt -0.007291 0.439399
vt 0.058326 0.288648
vt 0 0.161415
vt 0.058326 0.157608
vt 0.058326 0.161415
vt 0.007291 0.464655
vt -0.010808 0.466111
vt 0.058326 0.184551
vt 0 0.188358
vt 0 0.184551
vt 0 0.157608
vt 0.010808 0.437942
vt -0.010808 0.437942
vt 0.058326 0.188358
vt 0 0.046448
vt 0.058326 0.042641
vt 0.058326 0.046448
vt 0.010808 0.466111
vt -0.014582 0.466608
vt 0.058326 0.071555
vt 0 0.075361
vt 0 0.071555
vt 0 0.042641
vt 0.014582 0.437445
vt -0.014582 0.437445
vt 0.058326 0.075361
vt -0.058326 0.075361
vt -0.058326 0.071555
vt 0.014582 0.466608
vt -0.018355 0.466111
vt -0.058326 0.046448
vt 0.018355 0.437942
vt -0.018355 0.437942
vt -0.058326 0.042641
vt -0.058326 0.188358
vt -0.058326 0.184551
vt 0.018355 0.466111
vt -0.021872 0.464655
vt -0.058326 0.161415
vt 0.021872 0.439399
vt -0.021872 0.439399
vt -0.058326 0.157608
vt -0.058326 0.288648
vt -0.058326 0.284842
vt 0.021872 0.464655
vt -0.024892 0.462338
vt -0.058326 0.265511
vt 0.024892 0.441716
vt -0.024892 0.441716
vt -0.058326 0.261705
vt -0.058326 0.36559
vt 0.024892 0.462338
vt -0.027209 0.444736
vt -0.058326 0.347837
vt -0.058326 0.351644
vt -0.058326 0.369397
vt 0.027209 0.444736
vt -0.027209 0.459318
vt 0.027209 0.459318
vt -0.058326 0.421295
vt -0.028666 0.455801
vt -0.058326 0.410135
vt -0.058326 0.413942
vt 0.028666 0.448253
vt -0.058326 0.425102
vt -0.028666 0.448253
vt 0.028666 0.455801
vt -0.058326 0.44816
vt -0.029163 0.452027
vt -0.058326 0.444353
vt 0.029163 0.452027
vt -0.058326 0.451966
vn 1 0 0
vn 0.965925849201117 -0.2588189595935754 0
vn -0.965925849201117 0.2588189595935754 0
vn -1 0 0
vn 0.8660253028382762 -0.5000001748438417 0
vn -0.8660253028382762 0.5000001748438417 0
vn 0 0 -1
vn 0 0 1
vn 0.965925849201117 0.2588189595935754 0
vn -0.965925849201117 -0.2588189595935754 0
vn 0.7071067811865475 -0.7071067811865475 0
vn -0.7071067811865475 0.7071067811865475 0
vn 0.8660253028382762 0.5000001748438417 0
vn -0.8660253028382762 -0.5000001748438417 0
vn 0.7071067811865475 0.7071067811865475 0
vn -0.7071067811865475 -0.7071067811865475 0
vn 0.5000001748438417 -0.8660253028382762 0
vn -0.5000001748438417 0.8660253028382762 0
vn 0.5000001748438417 0.8660253028382762 0
vn -0.5000001748438417 -0.8660253028382762 0
vn 0.2588189595935754 -0.965925849201117 0
vn -0.2588189595935754 0.965925849201117 0
vn 0.2588189595935754 0.965925849201117 0
vn -0.2588189595935754 -0.965925849201117 0
vn 0 -1 0
vn 0 1 0
usemtl material_0_0
f 1/1/1 2/2/2 3/3/2
f 2/2/2 1/1/1 4/4/1
f 3/3/3 2/2/3 1/1/4
f 4/4/4 1/1/4 2/2/3
f 5/5/5 3/6/2 2/7/2
f 2/7/3 3/6/3 5/5/6
f 3/8/7 6/9/7 1/10/7
f 1/10/8 6/9/8 3/8/8
f 6/11/9 4/4/1 1/1/1
f 1/1/4 4/4/4 6/11/10
f 7/12/8 2/13/8 4/10/8
f 4/10/7 2/13/7 7/12/7
f 3/6/2 5/5/5 8/14/5
f 8/14/6 5/5/6 3/6/3
f 2/13/8 9/15/8 5/16/8
f 5/16/7 9/15/7 2/13/7
f 6/9/7 3/8/7 8/17/7
f 8/17/8 3/8/8 6/9/8
f 4/4/1 6/11/9 7/18/9
f 7/18/10 6/11/10 4/4/4
f 2/13/8 7/12/8 9/15/8
f 9/15/7 7/12/7 2/13/7
f 10/19/11 8/20/5 5/21/5
f 5/21/6 8/20/6 10/19/12
f 5/16/8 9/15/8 11/22/8
f 11/22/7 9/15/7 5/16/7
f 6/9/7 8/17/7 12/23/7
f 12/23/8 8/17/8 6/9/8
f 12/24/13 7/25/9 6/26/9
f 6/26/10 7/25/10 12/24/14
f 7/25/9 12/24/13 9/27/13
f 9/27/14 12/24/14 7/25/10
f 8/20/5 10/19/11 13/28/11
f 13/28/12 10/19/12 8/20/6
f 5/16/8 11/22/8 10/29/8
f 10/29/7 11/22/7 5/16/7
f 9/30/13 14/31/15 11/32/15
f 11/32/16 14/31/16 9/30/14
f 12/23/7 8/17/7 13/33/7
f 13/33/8 8/17/8 12/23/8
f 14/31/15 9/30/13 12/34/13
f 12/34/14 9/30/14 14/31/16
f 10/35/11 15/36/17 13/37/11
f 13/37/12 15/36/18 10/35/12
f 10/29/8 11/22/8 16/38/8
f 16/38/7 11/22/7 10/29/7
f 14/39/15 16/40/19 11/41/15
f 11/41/16 16/40/20 14/39/16
f 12/23/7 13/33/7 14/42/7
f 14/42/8 13/33/8 12/23/8
f 15/36/17 10/35/11 17/43/17
f 17/43/18 10/35/12 15/36/18
f 14/42/7 13/33/7 15/44/7
f 15/44/8 13/33/8 14/42/8
f 10/29/8 16/38/8 17/45/8
f 17/45/7 16/38/7 10/29/7
f 16/40/19 14/39/15 18/46/19
f 18/46/20 14/39/16 16/40/20
f 17/47/17 19/48/21 15/49/17
f 15/49/18 19/48/22 17/47/18
f 14/42/7 15/44/7 18/50/7
f 18/50/8 15/44/8 14/42/8
f 17/45/8 16/38/8 20/51/8
f 20/51/7 16/38/7 17/45/7
f 18/52/19 20/53/23 16/54/19
f 16/54/20 20/53/24 18/52/20
f 19/48/21 17/47/17 21/55/21
f 21/55/22 17/47/18 19/48/22
f 18/50/7 15/44/7 19/56/7
f 19/56/8 15/44/8 18/50/8
f 17/45/8 20/51/8 21/57/8
f 21/57/7 20/51/7 17/45/7
f 20/53/23 18/52/19 22/58/23
f 22/58/24 18/52/20 20/53/24
f 21/59/21 23/60/25 19/61/21
f 19/61/22 23/60/26 21/59/22
f 18/50/7 19/56/7 22/62/7
f 22/62/8 19/56/8 18/50/8
f 21/57/8 20/51/8 24/63/8
f 24/63/7 20/51/7 21/57/7
f 22/64/23 24/65/26 20/66/23
f 20/66/24 24/65/25 22/64/24
f 23/60/25 21/59/21 25/67/25
f 25/67/26 21/59/22 23/60/26
f 22/62/7 19/56/7 23/68/7
f 23/68/8 19/56/8 22/62/8
f 21/57/8 24/63/8 25/69/8
f 25/69/7 24/63/7 21/57/7
f 24/65/26 22/64/23 26/70/26
f 26/70/25 22/64/24 24/65/25
f 25/66/25 27/71/24 23/72/25
f 23/72/26 27/71/23 25/66/26
f 22/62/7 23/68/7 26/73/7
f 26/73/8 23/68/8 22/62/8
f 25/69/8 24/63/8 28/74/8
f 28/74/7 24/63/7 25/69/7
f 26/75/26 28/67/22 24/59/26
f 24/59/25 28/67/21 26/75/25
f 27/71/24 25/66/25 29/65/24
f 29/65/23 25/66/26 27/71/23
f 26/73/7 23/68/7 27/76/7
f 27/76/8 23/68/8 26/73/8
f 25/69/8 28/74/8 29/77/8
f 29/77/7 28/74/7 25/69/7
f 28/67/22 26/75/26 30/78/22
f 30/78/21 26/75/25 28/67/21
f 29/54/24 31/79/20 27/80/24
f 27/80/23 31/79/19 29/54/23
f 26/73/7 27/76/7 30/81/7
f 30/81/8 27/76/8 26/73/8
f 29/77/8 28/74/8 32/82/8
f 32/82/7 28/74/7 29/77/7
f 30/83/22 32/55/18 28/47/22
f 28/47/21 32/55/17 30/83/21
f 31/79/20 29/54/24 33/53/20
f 33/53/19 29/54/23 31/79/19
f 30/81/7 27/76/7 31/84/7
f 31/84/8 27/76/8 30/81/8
f 29/77/8 32/82/8 33/85/8
f 33/85/7 32/82/7 29/77/7
f 32/55/18 30/83/22 34/86/18
f 34/86/17 30/83/21 32/55/17
f 33/41/20 35/87/16 31/88/20
f 31/88/19 35/87/15 33/41/19
f 30/81/7 31/84/7 34/89/7
f 34/89/8 31/84/8 30/81/8
f 33/85/8 32/82/8 36/90/8
f 36/90/7 32/82/7 33/85/7
f 34/91/18 36/43/12 32/35/18
f 32/35/17 36/43/11 34/91/17
f 35/87/16 33/41/20 37/40/16
f 37/40/15 33/41/19 35/87/15
f 34/89/7 31/84/7 35/92/7
f 35/92/8 31/84/8 34/89/8
f 33/85/8 36/90/8 37/93/8
f 37/93/7 36/90/7 33/85/7
f 36/43/12 34/91/18 38/94/12
f 38/94/11 34/91/17 36/43/11
f 39/32/14 35/95/16 37/30/16
f 37/30/15 35/95/15 39/32/13
f 34/89/7 35/92/7 38/96/7
f 38/96/8 35/92/8 34/89/8
f 37/93/8 36/90/8 39/97/8
f 39/97/7 36/90/7 37/93/7
f 40/98/6 36/21/12 38/99/12
f 38/99/11 36/21/11 40/98/5
f 35/95/16 39/32/14 41/100/14
f 41/100/13 39/32/13 35/95/15
f 38/96/7 35/92/7 41/101/7
f 41/101/8 35/92/8 38/96/8
f 39/97/8 36/90/8 42/102/8
f 42/102/7 36/90/7 39/97/7
f 36/21/12 40/98/6 42/19/6
f 42/19/5 40/98/5 36/21/11
f 38/96/7 41/101/7 40/103/7
f 40/103/8 41/101/8 38/96/8
f 43/27/10 41/104/14 39/25/14
f 39/25/13 41/104/13 43/27/9
f 39/97/8 42/102/8 44/105/8
f 44/105/7 42/102/7 39/97/7
f 45/106/3 42/7/6 40/107/6
f 40/107/5 42/7/5 45/106/2
f 40/103/7 41/101/7 46/108/7
f 46/108/8 41/101/8 40/103/8
f 41/104/14 43/27/10 46/109/10
f 46/109/9 43/27/9 41/104/13
f 39/97/8 44/105/8 43/110/8
f 43/110/7 44/105/7 39/97/7
f 42/7/6 45/106/3 44/5/3
f 44/5/2 45/106/2 42/7/5
f 40/103/7 46/108/7 45/111/7
f 45/111/8 46/108/8 40/103/8
f 47/18/4 46/112/10 43/4/10
f 43/4/9 46/112/9 47/18/1
f 43/110/8 44/105/8 47/113/8
f 47/113/7 44/105/7 43/110/7
f 48/114/4 44/4/3 45/112/3
f 45/112/2 44/4/2 48/114/1
f 45/111/7 46/108/7 48/115/7
f 48/115/8 46/108/8 45/111/8
f 46/112/10 47/18/4 48/116/4
f 48/116/1 47/18/1 46/112/9
f 44/4/3 48/114/4 47/2/4
f 47/2/1 48/114/1 44/4/2
