# SSTK version 0.8.0
# 29
mtllib original-29.mtl
o Group7/Group8/mesh70/mesh70-geometry#mesh70-geometry
v 0.352355 -0.921393 -0.048605
v 0.353371 0.856211 -0.049069
v 0.353371 -0.921393 -0.049069
v 0.352355 0.855111 -0.048605
v 0.354430 0.857357 -0.049434
v 0.389981 -0.921393 -0.058031
v 0.351390 -0.921393 -0.048046
v -0.356683 0.856211 -0.049069
v 0.354430 -0.921393 -0.049434
v -0.357741 0.857357 -0.049434
v 0.351390 0.854068 -0.048046
v -0.355666 0.855111 -0.048605
v 0.389981 0.895824 -0.058031
v -0.393292 0.895824 -0.058031
v 0.350487 -0.921393 -0.047399
v -0.355666 -0.921393 -0.048605
v -0.356683 -0.921393 -0.049069
v -0.357741 -0.921393 -0.049434
v 0.349654 -0.921393 -0.046669
v 0.389981 -0.921393 0.060944
v 0.350487 0.853091 -0.047399
v -0.354702 0.854068 -0.048046
v -0.354702 -0.921393 -0.048046
v -0.393292 0.895824 0.060944
v -0.393292 -0.921393 -0.058031
v 0.348900 -0.921393 -0.045863
v 0.389981 0.895824 0.060944
v 0.354430 -0.921393 0.052348
v 0.348230 -0.921393 -0.044990
v 0.349654 0.852189 -0.046669
v 0.353371 -0.921393 0.051982
v -0.353799 0.853091 -0.047399
v -0.353799 -0.921393 -0.047399
v 0.354430 0.857357 0.052348
v -0.393292 -0.921393 0.060944
v 0.347653 -0.921393 -0.044057
v 0.348230 0.850649 -0.044990
v 0.348900 0.851373 -0.045863
v 0.352355 -0.921393 0.051518
v -0.352966 -0.921393 -0.046669
v -0.357741 0.857357 0.052348
v -0.357741 -0.921393 0.052348
v 0.347173 -0.921393 -0.043073
v 0.347653 0.850024 -0.044057
v -0.352966 0.852189 -0.046669
v 0.351390 -0.921393 0.050960
v 0.353371 0.856211 0.051982
v -0.352211 -0.921393 -0.045863
v -0.356683 -0.921393 0.051982
v 0.346795 -0.921393 -0.042049
v 0.347173 0.849505 -0.043073
v -0.352211 0.851373 -0.045863
v -0.351542 0.850649 -0.044990
v 0.350487 -0.921393 0.050312
v 0.352355 0.855111 0.051518
v -0.351542 -0.921393 -0.044990
v -0.356683 0.856211 0.051982
v -0.355666 -0.921393 0.051518
v 0.346524 -0.921393 -0.040994
v 0.346795 0.849096 -0.042049
v -0.350965 0.850024 -0.044057
v 0.349654 -0.921393 0.049582
v 0.351390 0.854068 0.050960
v -0.350965 -0.921393 -0.044057
v -0.354702 -0.921393 0.050960
v 0.346524 -0.921393 0.043907
v 0.346524 0.848802 -0.040994
v -0.350485 0.849505 -0.043073
v 0.348900 -0.921393 0.048776
v 0.350487 0.853091 0.050312
v -0.355666 0.855111 0.051518
v -0.350485 -0.921393 -0.043073
v -0.353799 -0.921393 0.050312
v 0.346795 -0.921393 0.044963
v 0.346524 0.848802 0.043907
v -0.350107 0.849096 -0.042049
v 0.348230 -0.921393 0.047903
v 0.349654 0.852189 0.049582
v -0.354702 0.854068 0.050960
v -0.350107 -0.921393 -0.042049
v -0.352966 -0.921393 0.049582
v 0.347173 -0.921393 0.045987
v 0.346795 0.849096 0.044963
v 0.346524 0.848802 0.001457
v -0.349835 0.848802 -0.040994
v 0.347653 -0.921393 0.046970
v 0.348900 0.851373 0.048776
v -0.353799 0.853091 0.050312
v -0.349835 -0.921393 -0.040994
v -0.352211 -0.921393 0.048776
v 0.347173 0.849505 0.045987
v -0.349835 0.848802 0.043907
v 0.348230 0.850649 0.047903
v -0.352966 0.852189 0.049582
v -0.349835 -0.921393 0.043907
v -0.351542 -0.921393 0.047903
v 0.347653 0.850024 0.046970
v -0.350107 0.849096 0.044963
v -0.351542 0.850649 0.047903
v -0.352211 0.851373 0.048776
v -0.350107 -0.921393 0.044963
v -0.350965 -0.921393 0.046970
v -0.350485 0.849505 0.045987
v -0.350965 0.850024 0.046970
v -0.350485 -0.921393 0.045987
vn -0.3428309279951318 0 -0.939397123058186
vn 0.3428309279951318 0 0.939397123058186
vn -0.2658567770308681 0 -0.9640125383555752
vn 0.2658567770308681 0 0.9640125383555752
vn 0 1 0
vn 0 -1 0
vn -0.4200232472625406 0 -0.907513345223656
vn 0.4200232472625406 0 0.907513345223656
vn 0 -0.37370656722357554 -0.9275469808122774
vn 0 0.37370656722357554 0.9275469808122774
vn 0 -0.2912592453308342 -0.9566441616449205
vn 0 0.2912592453308342 0.9566441616449205
vn -0.18975404053700276 0 -0.9818316577193269
vn 0.18975404053700276 0 0.9818316577193269
vn 0 -0.20866522354697237 -0.9779871289961295
vn 0 0.20866522354697237 0.9779871289961295
vn -0.49716938507874037 0 -0.8676535037331593
vn 0.49716938507874037 0 0.8676535037331593
vn 0 -0.4550024526336026 -0.8904901841667914
vn 0 0.4550024526336026 0.8904901841667914
vn 0.34283092799513143 0 -0.9393971230581862
vn -0.34283092799513143 0 0.9393971230581862
vn 0.2658567770308677 0 -0.9640125383555752
vn -0.2658567770308677 0 0.9640125383555752
vn 0.18975404053700234 0 -0.9818316577193269
vn -0.18975404053700234 0 0.9818316577193269
vn 1 0 0
vn -1 0 0
vn 0.42002324726254014 0 -0.9075133452236563
vn -0.42002324726254014 0 0.9075133452236563
vn -0.5737773263821063 0 -0.8190113428578397
vn 0.5737773263821063 0 0.8190113428578397
vn 0 -0.5346032635963455 -0.8451031597101838
vn 0 0.5346032635963455 0.8451031597101838
vn -0.6490625941417568 0 -0.7607350056925034
vn 0.6490625941417568 0 0.7607350056925034
vn 0.49716938507873987 0 -0.8676535037331594
vn -0.49716938507873987 0 0.8676535037331594
vn 0 -0.20866522354697237 0.9779871289961295
vn 0 0.20866522354697237 -0.9779871289961295
vn -0.7218810427161646 0 -0.692017167537788
vn 0.7218810427161646 0 0.692017167537788
vn 0 -0.6117924308166668 -0.7910183446642902
vn 0 0.6117924308166668 0.7910183446642902
vn -0.7906795763302296 0 -0.61223019165527
vn 0.7906795763302296 0 0.61223019165527
vn 0 -0.6856542649694297 -0.7279273514089378
vn 0 0.6856542649694297 0.7279273514089378
vn 0.5737773263821059 0 -0.81901134285784
vn -0.5737773263821059 0 0.81901134285784
vn 0 -0.2912592453308342 0.9566441616449205
vn 0 0.2912592453308342 -0.9566441616449205
vn -0.8534937736672255 0 -0.5211030400134687
vn 0.8534937736672255 0 0.5211030400134687
vn 0 -0.7550655036019136 -0.6556493615267148
vn 0 0.7550655036019136 0.6556493615267148
vn 0 -0.8187031030562499 -0.5742170574321764
vn 0 0.8187031030562499 0.5742170574321764
vn 0.6490625941417565 0 -0.7607350056925035
vn -0.6490625941417565 0 0.7607350056925035
vn -0.9080140418543953 0 -0.4189397328915515
vn 0.9080140418543953 0 0.4189397328915515
vn 0 -0.875088673363949 -0.48396261606669955
vn 0 0.875088673363949 0.48396261606669955
vn 0 -0.37370656722357554 0.9275469808122774
vn 0 0.37370656722357554 -0.9275469808122774
vn 0.7218810427161644 0 -0.6920171675377883
vn -0.7218810427161644 0 0.6920171675377883
vn -0.9517716283563328 0 -0.3068073784248589
vn 0.9517716283563328 0 0.3068073784248589
vn 0 -0.9226653610439418 -0.38560164876417785
vn 0 0.9226653610439418 0.38560164876417785
vn 0.7906795763302293 0 -0.6122301916552704
vn -0.7906795763302293 0 0.6122301916552704
vn 0 -0.4550024526336026 0.8904901841667914
vn 0 0.4550024526336026 -0.8904901841667914
vn 0 -0.9599163703010248 -0.2802865712589628
vn 0 0.9599163703010248 0.2802865712589628
vn 0.8534937736672252 0 -0.5211030400134693
vn -0.8534937736672252 0 0.5211030400134693
vn 0 -0.5346032635963455 0.8451031597101838
vn 0 0.5346032635963455 -0.8451031597101838
vn -0.9517716283563326 0 0.3068073784248593
vn 0.9517716283563326 0 -0.3068073784248593
vn 0.908014041854395 0 -0.41893973289155195
vn -0.908014041854395 0 0.41893973289155195
vn 0 -0.6117924308166668 0.7910183446642902
vn 0 0.6117924308166668 -0.7910183446642902
vn 0 -0.9599163703010248 0.2802865712589628
vn 0 0.9599163703010248 -0.2802865712589628
vn 0 -0.6856542649694297 0.7279273514089378
vn 0 0.6856542649694297 -0.7279273514089378
vn 0 -0.9226653610439418 0.38560164876417785
vn 0 0.9226653610439418 -0.38560164876417785
vn 0 -0.7550655036019136 0.6556493615267148
vn 0 0.7550655036019136 -0.6556493615267148
vn 0 -0.875088673363949 0.48396261606669955
vn 0 0.875088673363949 -0.48396261606669955
vn 0 -0.8187031030562499 0.5742170574321764
vn 0 0.8187031030562499 -0.5742170574321764
usemtl material_0_0
f 1//1 2//1 3//1
f 2//1 1//1 4//1
f 3//2 2//2 1//2
f 4//2 1//2 2//2
f 5//3 3//3 2//3
f 2//4 3//4 5//4
f 1//5 6//5 3//5
f 3//6 6//6 1//6
f 7//7 4//7 1//7
f 1//8 4//8 7//8
f 4//9 8//9 2//9
f 2//10 8//10 4//10
f 3//3 5//3 9//3
f 9//4 5//4 3//4
f 2//11 10//11 5//11
f 5//12 10//12 2//12
f 7//5 6//5 1//5
f 1//6 6//6 7//6
f 3//5 6//5 9//5
f 9//6 6//6 3//6
f 4//7 7//7 11//7
f 11//8 7//8 4//8
f 8//9 4//9 12//9
f 12//10 4//10 8//10
f 10//11 2//11 8//11
f 8//12 2//12 10//12
f 13//13 9//13 5//13
f 5//14 9//14 13//14
f 14//15 5//15 10//15
f 10//16 5//16 14//16
f 15//5 6//5 7//5
f 7//6 6//6 15//6
f 9//13 13//13 6//13
f 6//14 13//14 9//14
f 15//17 11//17 7//17
f 7//18 11//18 15//18
f 11//19 12//19 4//19
f 4//20 12//20 11//20
f 16//21 8//21 12//21
f 12//22 8//22 16//22
f 17//23 10//23 8//23
f 8//24 10//24 17//24
f 5//15 14//15 13//15
f 13//16 14//16 5//16
f 18//25 14//25 10//25
f 10//26 14//26 18//26
f 19//5 6//5 15//5
f 15//6 6//6 19//6
f 13//27 20//27 6//27
f 6//28 20//28 13//28
f 11//17 15//17 21//17
f 21//18 15//18 11//18
f 12//19 11//19 22//19
f 22//20 11//20 12//20
f 8//21 16//21 17//21
f 17//22 16//22 8//22
f 12//29 23//29 16//29
f 16//30 23//30 12//30
f 10//23 17//23 18//23
f 18//24 17//24 10//24
f 24//5 13//5 14//5
f 14//6 13//6 24//6
f 14//25 18//25 25//25
f 25//26 18//26 14//26
f 26//5 6//5 19//5
f 19//6 6//6 26//6
f 19//31 21//31 15//31
f 15//32 21//32 19//32
f 20//27 13//27 27//27
f 27//28 13//28 20//28
f 6//5 28//5 20//5
f 20//6 28//6 6//6
f 21//33 22//33 11//33
f 11//34 22//34 21//34
f 23//29 12//29 22//29
f 22//30 12//30 23//30
f 25//5 16//5 17//5
f 17//6 16//6 25//6
f 25//5 23//5 16//5
f 16//6 23//6 25//6
f 25//5 17//5 18//5
f 18//6 17//6 25//6
f 13//5 24//5 27//5
f 27//6 24//6 13//6
f 25//28 24//28 14//28
f 14//27 24//27 25//27
f 29//5 6//5 26//5
f 26//6 6//6 29//6
f 26//35 30//35 19//35
f 19//36 30//36 26//36
f 21//31 19//31 30//31
f 30//32 19//32 21//32
f 27//26 28//26 20//26
f 20//25 28//25 27//25
f 28//5 6//5 31//5
f 31//6 6//6 28//6
f 22//33 21//33 32//33
f 32//34 21//34 22//34
f 22//37 33//37 23//37
f 23//38 33//38 22//38
f 25//5 33//5 23//5
f 23//6 33//6 25//6
f 24//39 34//39 27//39
f 27//40 34//40 24//40
f 24//28 25//28 35//28
f 35//27 25//27 24//27
f 36//5 6//5 29//5
f 29//6 6//6 36//6
f 37//41 26//41 29//41
f 29//42 26//42 37//42
f 30//35 26//35 38//35
f 38//36 26//36 30//36
f 30//43 32//43 21//43
f 21//44 32//44 30//44
f 28//26 27//26 34//26
f 34//25 27//25 28//25
f 31//5 6//5 39//5
f 39//6 6//6 31//6
f 34//24 31//24 28//24
f 28//23 31//23 34//23
f 33//37 22//37 32//37
f 32//38 22//38 33//38
f 25//5 40//5 33//5
f 33//6 40//6 25//6
f 34//39 24//39 41//39
f 41//40 24//40 34//40
f 42//5 25//5 35//5
f 35//6 25//6 42//6
f 42//14 24//14 35//14
f 35//13 24//13 42//13
f 43//5 6//5 36//5
f 36//6 6//6 43//6
f 44//45 29//45 36//45
f 36//46 29//46 44//46
f 26//41 37//41 38//41
f 38//42 37//42 26//42
f 29//45 44//45 37//45
f 37//46 44//46 29//46
f 38//47 45//47 30//47
f 30//48 45//48 38//48
f 32//43 30//43 45//43
f 45//44 30//44 32//44
f 39//5 6//5 46//5
f 46//6 6//6 39//6
f 47//22 39//22 31//22
f 31//21 39//21 47//21
f 31//24 34//24 47//24
f 47//23 34//23 31//23
f 32//49 40//49 33//49
f 33//50 40//50 32//50
f 25//5 48//5 40//5
f 40//6 48//6 25//6
f 24//14 42//14 41//14
f 41//13 42//13 24//13
f 41//51 47//51 34//51
f 34//52 47//52 41//52
f 25//5 42//5 49//5
f 49//6 42//6 25//6
f 50//5 6//5 43//5
f 43//6 6//6 50//6
f 51//53 36//53 43//53
f 43//54 36//54 51//54
f 36//53 51//53 44//53
f 44//54 51//54 36//54
f 37//55 52//55 38//55
f 38//56 52//56 37//56
f 44//57 53//57 37//57
f 37//58 53//58 44//58
f 45//47 38//47 52//47
f 52//48 38//48 45//48
f 40//49 32//49 45//49
f 45//50 32//50 40//50
f 46//5 6//5 54//5
f 54//6 6//6 46//6
f 55//30 46//30 39//30
f 39//29 46//29 55//29
f 39//22 47//22 55//22
f 55//21 47//21 39//21
f 25//5 56//5 48//5
f 48//6 56//6 25//6
f 45//59 48//59 40//59
f 40//60 48//60 45//60
f 49//4 41//4 42//4
f 42//3 41//3 49//3
f 47//51 41//51 57//51
f 57//52 41//52 47//52
f 25//5 49//5 58//5
f 58//6 49//6 25//6
f 59//5 6//5 50//5
f 50//6 6//6 59//6
f 60//61 43//61 50//61
f 50//62 43//62 60//62
f 43//61 60//61 51//61
f 51//62 60//62 43//62
f 51//63 61//63 44//63
f 44//64 61//64 51//64
f 52//55 37//55 53//55
f 53//56 37//56 52//56
f 53//57 44//57 61//57
f 61//58 44//58 53//58
f 48//59 45//59 52//59
f 52//60 45//60 48//60
f 54//5 6//5 62//5
f 62//6 6//6 54//6
f 63//38 54//38 46//38
f 46//37 54//37 63//37
f 46//30 55//30 63//30
f 63//29 55//29 46//29
f 57//65 55//65 47//65
f 47//66 55//66 57//66
f 25//5 64//5 56//5
f 56//6 64//6 25//6
f 52//67 56//67 48//67
f 48//68 56//68 52//68
f 41//4 49//4 57//4
f 57//3 49//3 41//3
f 58//2 57//2 49//2
f 49//1 57//1 58//1
f 25//5 58//5 65//5
f 65//6 58//6 25//6
f 66//5 6//5 59//5
f 59//6 6//6 66//6
f 67//69 50//69 59//69
f 59//70 50//70 67//70
f 50//69 67//69 60//69
f 60//70 67//70 50//70
f 60//71 68//71 51//71
f 51//72 68//72 60//72
f 61//63 51//63 68//63
f 68//64 51//64 61//64
f 56//67 52//67 53//67
f 53//68 52//68 56//68
f 64//73 53//73 61//73
f 61//74 53//74 64//74
f 62//5 6//5 69//5
f 69//6 6//6 62//6
f 70//50 62//50 54//50
f 54//49 62//49 70//49
f 54//38 63//38 70//38
f 70//37 63//37 54//37
f 71//75 63//75 55//75
f 55//76 63//76 71//76
f 55//65 57//65 71//65
f 71//66 57//66 55//66
f 25//5 72//5 64//5
f 64//6 72//6 25//6
f 53//73 64//73 56//73
f 56//74 64//74 53//74
f 57//2 58//2 71//2
f 71//1 58//1 57//1
f 65//8 71//8 58//8
f 58//7 71//7 65//7
f 25//5 65//5 73//5
f 73//6 65//6 25//6
f 74//5 6//5 66//5
f 66//6 6//6 74//6
f 75//28 59//28 66//28
f 66//27 59//27 75//27
f 59//28 75//28 67//28
f 67//27 75//27 59//27
f 67//77 76//77 60//77
f 60//78 76//78 67//78
f 68//71 60//71 76//71
f 76//72 60//72 68//72
f 72//79 61//79 68//79
f 68//80 61//80 72//80
f 61//79 72//79 64//79
f 64//80 72//80 61//80
f 69//5 6//5 77//5
f 77//6 6//6 69//6
f 78//60 69//60 62//60
f 62//59 69//59 78//59
f 62//50 70//50 78//50
f 78//49 70//49 62//49
f 79//81 70//81 63//81
f 63//82 70//82 79//82
f 63//75 71//75 79//75
f 79//76 71//76 63//76
f 25//5 80//5 72//5
f 72//6 80//6 25//6
f 71//8 65//8 79//8
f 79//7 65//7 71//7
f 73//18 79//18 65//18
f 65//17 79//17 73//17
f 25//5 73//5 81//5
f 81//6 73//6 25//6
f 82//5 6//5 74//5
f 74//6 6//6 82//6
f 83//83 66//83 74//83
f 74//84 66//84 83//84
f 66//83 83//83 75//83
f 75//84 83//84 66//84
f 67//28 75//28 84//28
f 84//27 75//27 67//27
f 76//77 67//77 85//77
f 85//78 67//78 76//78
f 80//85 68//85 76//85
f 76//86 68//86 80//86
f 68//85 80//85 72//85
f 72//86 80//86 68//86
f 77//5 6//5 86//5
f 86//6 6//6 77//6
f 87//68 77//68 69//68
f 69//67 77//67 87//67
f 69//60 78//60 87//60
f 87//59 78//59 69//59
f 88//87 78//87 70//87
f 70//88 78//88 88//88
f 70//81 79//81 88//81
f 88//82 79//82 70//82
f 25//5 89//5 80//5
f 80//6 89//6 25//6
f 79//18 73//18 88//18
f 88//17 73//17 79//17
f 81//32 88//32 73//32
f 73//31 88//31 81//31
f 25//5 81//5 90//5
f 90//6 81//6 25//6
f 86//5 6//5 82//5
f 82//6 6//6 86//6
f 91//86 74//86 82//86
f 82//85 74//85 91//85
f 74//86 91//86 83//86
f 83//85 91//85 74//85
f 83//89 92//89 75//89
f 75//90 92//90 83//90
f 75//6 85//6 84//6
f 84//5 85//5 75//5
f 84//6 85//6 67//6
f 67//5 85//5 84//5
f 89//84 76//84 85//84
f 85//83 76//83 89//83
f 76//84 89//84 80//84
f 80//83 89//83 76//83
f 93//74 86//74 77//74
f 77//73 86//73 93//73
f 77//68 87//68 93//68
f 93//67 87//67 77//67
f 94//91 87//91 78//91
f 78//92 87//92 94//92
f 78//87 88//87 94//87
f 94//88 88//88 78//88
f 25//5 95//5 89//5
f 89//6 95//6 25//6
f 88//32 81//32 94//32
f 94//31 81//31 88//31
f 90//36 94//36 81//36
f 81//35 94//35 90//35
f 25//5 90//5 96//5
f 96//6 90//6 25//6
f 97//80 82//80 86//80
f 86//79 82//79 97//79
f 82//80 97//80 91//80
f 91//79 97//79 82//79
f 91//93 98//93 83//93
f 83//94 98//94 91//94
f 92//89 83//89 98//89
f 98//90 83//90 92//90
f 85//6 75//6 92//6
f 92//5 75//5 85//5
f 85//27 95//27 89//27
f 89//28 95//28 85//28
f 86//74 93//74 97//74
f 97//73 93//73 86//73
f 87//95 99//95 93//95
f 93//96 99//96 87//96
f 87//91 94//91 100//91
f 100//92 94//92 87//92
f 25//5 101//5 95//5
f 95//6 101//6 25//6
f 94//36 90//36 100//36
f 100//35 90//35 94//35
f 99//42 90//42 96//42
f 96//41 90//41 99//41
f 25//5 96//5 102//5
f 102//6 96//6 25//6
f 97//97 103//97 91//97
f 91//98 103//98 97//98
f 98//93 91//93 103//93
f 103//94 91//94 98//94
f 101//70 92//70 98//70
f 98//69 92//69 101//69
f 95//27 85//27 92//27
f 92//28 85//28 95//28
f 93//99 104//99 97//99
f 97//100 104//100 93//100
f 99//95 87//95 100//95
f 100//96 87//96 99//96
f 104//99 93//99 99//99
f 99//100 93//100 104//100
f 25//5 105//5 101//5
f 101//6 105//6 25//6
f 92//70 101//70 95//70
f 95//69 101//69 92//69
f 90//42 99//42 100//42
f 100//41 99//41 90//41
f 96//46 104//46 99//46
f 99//45 104//45 96//45
f 104//46 96//46 102//46
f 102//45 96//45 104//45
f 25//5 102//5 105//5
f 105//6 102//6 25//6
f 103//97 97//97 104//97
f 104//98 97//98 103//98
f 105//62 98//62 103//62
f 103//61 98//61 105//61
f 98//62 105//62 101//62
f 101//61 105//61 98//61
f 102//54 103//54 104//54
f 104//53 103//53 102//53
f 103//54 102//54 105//54
f 105//53 102//53 103//53
