# SSTK version 0.8.0
# 3
mtllib original-3.mtl
o #ID17
v 0.015314 0.358401 0.070734
v -0.373680 -0.354135 0.070734
v -0.373680 0.358401 0.070734
v -0.373680 0.358401 0.070734
v -0.373680 -0.354135 0.070734
v 0.015314 0.358401 0.070734
v 0.015314 0.358401 0.070734
v -0.008223 -0.379917 0.070734
v -0.373680 -0.354135 0.070734
v -0.373680 -0.354135 0.070734
v -0.008223 -0.379917 0.070734
v 0.015314 0.358401 0.070734
v 0.015314 0.358401 0.070734
v 0.002073 -0.378306 0.070734
v -0.008223 -0.379917 0.070734
v -0.008223 -0.379917 0.070734
v 0.002073 -0.378306 0.070734
v 0.015314 0.358401 0.070734
v -0.373680 -0.354135 0.070734
v -0.008223 -0.379917 0.070734
v -0.372209 -0.365415 0.070734
v -0.372209 -0.365415 0.070734
v -0.008223 -0.379917 0.070734
v -0.373680 -0.354135 0.070734
v 0.009430 -0.373472 0.070734
v 0.009430 -0.373472 0.070734
v -0.372209 -0.365415 0.070734
v -0.008223 -0.379917 0.070734
v -0.367796 -0.373472 0.070734
v -0.367796 -0.373472 0.070734
v -0.008223 -0.379917 0.070734
v -0.372209 -0.365415 0.070734
v 0.013842 -0.365415 0.070734
v 0.013842 -0.365415 0.070734
v -0.367796 -0.373472 0.070734
v -0.008223 -0.379917 0.070734
v -0.360440 -0.378306 0.070734
v -0.360440 -0.378306 0.070734
v -0.008223 -0.379917 0.070734
v -0.367796 -0.373472 0.070734
v 0.015314 -0.354135 0.070734
v 0.015314 -0.354135 0.070734
v -0.360440 -0.378306 0.070734
v -0.008223 -0.379917 0.070734
v -0.350142 -0.379917 0.070734
v -0.350142 -0.379917 0.070734
v -0.008223 -0.379917 0.070734
v -0.360440 -0.378306 0.070734
vn -2.752778948798473e-7 0 -1
vn 2.752778948798473e-7 0 1
vn -2.8495669487984664e-7 5.283936314419359e-9 -1
vn 2.8495669487984664e-7 -5.283936314419359e-9 1
vn -1.1920929487985177e-7 0 -1
vn 1.1920929487985177e-7 0 1
vn -2.868724948798465e-7 -2.1871907162161826e-8 -1
vn 2.868724948798465e-7 2.1871907162161826e-8 1
vn -2.897219948798451e-7 -9.33909178827064e-8 -1
vn 2.897219948798451e-7 9.33909178827064e-8 1
vn -2.927821948798359e-7 -2.6410966573226597e-7 -1
vn 2.927821948798359e-7 2.6410966573226597e-7 1
vn -2.967652948796548e-7 -0.0000011347908527623224 -1
vn -2.0826712487985036e-7 -1.1168028550969746e-9 -1
vn 2.967652948796548e-7 0.0000011347908527623224 1
vn 2.0826712487985036e-7 1.1168028550969746e-9 1
usemtl material_0_0
f 1//1 2//1 3//1
f 4//2 5//2 6//2
f 7//3 8//3 9//3
f 10//4 11//4 12//4
f 13//5 14//5 15//5
f 16//6 17//6 18//6
f 19//7 20//7 21//7
f 22//8 23//8 24//8
f 13//5 25//5 14//5
f 17//6 26//6 18//6
f 27//9 28//9 29//9
f 30//10 31//10 32//10
f 13//5 33//5 25//5
f 26//6 34//6 18//6
f 35//11 36//11 37//11
f 38//12 39//12 40//12
f 13//5 41//5 33//5
f 34//6 42//6 18//6
f 43//13 44//14 45//13
f 46//15 47//16 48//15
