# SSTK version 0.8.0
# 9
mtllib original-9.mtl
o _3DGeom_4/_3DGeom_4_Defintion/ID51#ID51
v 0.209925 0.358401 0.062330
v 0.403082 0.173821 0.062330
v 0.403082 0.358401 0.062330
v 0.403082 0.358401 0.062330
v 0.403082 0.173821 0.062330
v 0.209925 0.358401 0.062330
v 0.209925 0.358401 0.062330
v 0.403082 -0.010758 0.062330
v 0.403082 0.173821 0.062330
v 0.403082 0.173821 0.062330
v 0.403082 -0.010758 0.062330
v 0.209925 0.358401 0.062330
v 0.209925 0.358401 0.062330
v 0.403082 -0.195338 0.062330
v 0.403082 -0.010758 0.062330
v 0.403082 -0.010758 0.062330
v 0.403082 -0.195338 0.062330
v 0.209925 0.358401 0.062330
v 0.209925 0.358401 0.062330
v -0.176389 -0.379917 0.062330
v 0.403082 -0.195338 0.062330
v 0.403082 -0.195338 0.062330
v -0.176389 -0.379917 0.062330
v 0.209925 0.358401 0.062330
v 0.209925 0.358401 0.062330
v -0.369546 0.173821 0.062331
v -0.176389 -0.379917 0.062330
v -0.176389 -0.379917 0.062330
v -0.369546 0.173821 0.062331
v 0.209925 0.358401 0.062330
v 0.403082 -0.195338 0.062330
v -0.176389 -0.379917 0.062330
v 0.016767 -0.379917 0.062330
v 0.016767 -0.379917 0.062330
v -0.176389 -0.379917 0.062330
v 0.403082 -0.195338 0.062330
v 0.016767 0.358401 0.062330
v -0.369546 0.173821 0.062331
v 0.209925 0.358401 0.062330
v 0.209925 0.358401 0.062330
v -0.369546 0.173821 0.062331
v 0.016767 0.358401 0.062330
v -0.369546 0.173821 0.062331
v -0.369546 -0.010758 0.062331
v -0.176389 -0.379917 0.062330
v -0.176389 -0.379917 0.062330
v -0.369546 -0.010758 0.062331
v -0.369546 0.173821 0.062331
v 0.403082 -0.195338 0.062330
v 0.016767 -0.379917 0.062330
v 0.209925 -0.379917 0.062330
v 0.209925 -0.379917 0.062330
v 0.016767 -0.379917 0.062330
v 0.403082 -0.195338 0.062330
v -0.176389 0.358401 0.062330
v -0.369546 0.173821 0.062331
v 0.016767 0.358401 0.062330
v 0.016767 0.358401 0.062330
v -0.369546 0.173821 0.062331
v -0.176389 0.358401 0.062330
v -0.369546 -0.010758 0.062331
v -0.369546 -0.195338 0.062331
v -0.176389 -0.379917 0.062330
v -0.176389 -0.379917 0.062330
v -0.369546 -0.195338 0.062331
v -0.369546 -0.010758 0.062331
v 0.403082 -0.195338 0.062330
v 0.209925 -0.379917 0.062330
v 0.403082 -0.379917 0.062330
v 0.403082 -0.379917 0.062330
v 0.209925 -0.379917 0.062330
v 0.403082 -0.195338 0.062330
v -0.369546 0.358401 0.062331
v -0.369546 0.173821 0.062331
v -0.176389 0.358401 0.062330
v -0.176389 0.358401 0.062330
v -0.369546 0.173821 0.062331
v -0.369546 0.358401 0.062331
v -0.369546 -0.195338 0.062331
v -0.369546 -0.379917 0.062331
v -0.176389 -0.379917 0.062330
v -0.176389 -0.379917 0.062330
v -0.369546 -0.379917 0.062331
v -0.369546 -0.195338 0.062331
vn -3.7942399124942284e-8 0 1
vn 3.7942399124942284e-8 0 -1
vn -1.43694991249428e-8 8.222758848954143e-9 1
vn 1.43694991249428e-8 -8.222758848954143e-9 -1
vn 2.0564256087505354e-7 -1.068951720365851e-7 1
vn -2.0564256087505354e-7 1.068951720365851e-7 -1
vn -3.794309912494217e-8 8.222978848896536e-8 1
vn 3.794309912494217e-8 -8.222978848896536e-8 -1
vn 4.063405087505312e-8 4.1113369244878664e-7 1
vn -4.063405087505312e-8 -4.1113369244878664e-7 -1
vn 5.120871008750139e-7 0 1
vn -5.120871008750139e-7 0 -1
vn 4.063405087505641e-8 -8.222781848948146e-8 1
vn -4.063405087505641e-8 8.222781848948146e-8 -1
vn -3.7943099124936016e-8 5.755903494274172e-7 1
vn 3.7943099124936016e-8 -5.755903494274172e-7 -1
usemtl material_0_0
f 1//1 2//1 3//1
f 4//2 5//2 6//2
f 7//1 8//1 9//1
f 10//2 11//2 12//2
f 13//1 14//1 15//1
f 16//2 17//2 18//2
f 19//3 20//3 21//3
f 22//4 23//4 24//4
f 25//5 26//5 27//5
f 28//6 29//6 30//6
f 31//7 32//7 33//7
f 34//8 35//8 36//8
f 37//9 38//9 39//9
f 40//10 41//10 42//10
f 43//11 44//11 45//11
f 46//12 47//12 48//12
f 49//13 50//13 51//13
f 52//14 53//14 54//14
f 55//15 56//15 57//15
f 58//16 59//16 60//16
f 61//11 62//11 63//11
f 64//12 65//12 66//12
f 67//1 68//1 69//1
f 70//2 71//2 72//2
f 73//11 74//11 75//11
f 76//12 77//12 78//12
f 79//11 80//11 81//11
f 82//12 83//12 84//12
