# SSTK version 0.8.0
# 7
mtllib original-7.mtl
o #ID37
v -0.008223 0.332729 0.085015
v -0.350142 -0.354246 0.148760
v -0.008223 -0.354246 0.148760
v -0.008223 -0.354246 0.148760
v -0.350142 -0.354246 0.148760
v -0.008223 0.332729 0.085015
v -0.008223 -0.365477 0.148190
v -0.008223 -0.365477 0.148190
v 0.002073 0.343961 0.083230
v 0.002073 0.343961 0.083230
v -0.350142 0.332729 0.085016
v -0.350142 0.332729 0.085016
v 0.002073 -0.354239 0.147141
v 0.002073 -0.354239 0.147141
v -0.350142 -0.365477 0.148190
v -0.350142 -0.365477 0.148190
v -0.360440 0.343961 0.083230
v -0.360440 0.343961 0.083230
v -0.360440 -0.354198 0.147141
v -0.360440 -0.354198 0.147141
v 0.002073 -0.364768 0.146607
v 0.002073 -0.364768 0.146607
v -0.008223 -0.373499 0.144100
v -0.008223 -0.373499 0.144100
v -0.367796 0.351983 0.080254
v -0.367796 0.351983 0.080254
v 0.009430 0.351983 0.080254
v 0.009430 0.351983 0.080254
v 0.009430 -0.354218 0.142284
v 0.009430 -0.354218 0.142284
v -0.359797 -0.365450 0.146662
v -0.359797 -0.365450 0.146662
v -0.350142 -0.373499 0.144101
v -0.350142 -0.373499 0.144101
v -0.367796 -0.354163 0.142284
v -0.367796 -0.354163 0.142284
v 0.002073 -0.372289 0.142773
v 0.002073 -0.372289 0.142773
v 0.009430 -0.362641 0.141857
v 0.009430 -0.362641 0.141857
v -0.008223 -0.378313 0.136490
v -0.008223 -0.378313 0.136490
v -0.372209 -0.354142 0.134189
v -0.372209 -0.354142 0.134189
v -0.372209 0.356797 0.076089
v -0.372209 0.356797 0.076089
v 0.013842 0.356797 0.076089
v 0.013842 0.356797 0.076089
v 0.013842 -0.354184 0.134189
v 0.013842 -0.354184 0.134189
v -0.366693 -0.365431 0.142075
v -0.366693 -0.365431 0.142075
v -0.357865 -0.373487 0.142873
v -0.357865 -0.373487 0.142873
v -0.350142 -0.378313 0.136490
v -0.350142 -0.378313 0.136490
v 0.002073 -0.376802 0.135638
v 0.002073 -0.376802 0.135638
v 0.009430 -0.368659 0.138789
v 0.009430 -0.368659 0.138789
v 0.013842 -0.359097 0.133940
v 0.013842 -0.359097 0.133940
v -0.008223 -0.379917 0.125360
v -0.008223 -0.379917 0.125360
v -0.370830 -0.365419 0.134428
v -0.370830 -0.365419 0.134428
v -0.373680 -0.354135 0.122857
v -0.373680 -0.354135 0.122857
v -0.373680 0.358401 0.070734
v -0.373680 0.358401 0.070734
v 0.015314 0.358401 0.070734
v 0.015314 0.358401 0.070734
v 0.015314 -0.354135 0.122857
v 0.015314 -0.354135 0.122857
v -0.363383 -0.373479 0.139184
v -0.363383 -0.373479 0.139184
v -0.354648 -0.378310 0.135772
v -0.354648 -0.378310 0.135772
v -0.350142 -0.379917 0.125360
v -0.350142 -0.379917 0.125360
v 0.002073 -0.378306 0.125203
v 0.002073 -0.378306 0.125203
v 0.009430 -0.372269 0.133082
v 0.009430 -0.372269 0.133082
v 0.013842 -0.362607 0.132151
v 0.013842 -0.362607 0.132151
v -0.350142 -0.379917 0.070734
v -0.350142 -0.379917 0.070734
v -0.372209 -0.365415 0.123721
v -0.372209 -0.365415 0.123721
v -0.366693 -0.373473 0.133035
v -0.366693 -0.373473 0.133035
v 0.015314 -0.354135 0.070734
v 0.015314 -0.354135 0.070734
v -0.008223 -0.379917 0.070734
v -0.008223 -0.379917 0.070734
v 0.013842 -0.364713 0.128821
v 0.013842 -0.364713 0.128821
v -0.357865 -0.378308 0.133613
v -0.357865 -0.378308 0.133613
v -0.360440 -0.378306 0.070734
v -0.360440 -0.378306 0.070734
v -0.373680 -0.354135 0.070734
v -0.373680 -0.354135 0.070734
v 0.013842 -0.365415 0.070734
v 0.013842 -0.365415 0.070734
v 0.002073 -0.378306 0.070734
v 0.002073 -0.378306 0.070734
v 0.009430 -0.373472 0.124734
v 0.009430 -0.373472 0.124734
v 0.013842 -0.365415 0.123952
v 0.013842 -0.365415 0.123952
v -0.359797 -0.378306 0.130013
v -0.359797 -0.378306 0.130013
v -0.360440 -0.378306 0.124972
v -0.360440 -0.378306 0.124972
v -0.373680 0.358401 0.070734
v -0.373680 0.358401 0.070734
v -0.372209 -0.365415 0.070734
v -0.372209 -0.365415 0.070734
v -0.367796 -0.373472 0.124426
v -0.367796 -0.373472 0.124426
v -0.367796 -0.373472 0.070734
v -0.367796 -0.373472 0.070734
v 0.009430 -0.373472 0.070734
v 0.009430 -0.373472 0.070734
vn 0.02747858757996024 0.11616481445551483 0.9928497686493793
vn -0.07754307504665756 0.02070618637112809 0.9967739590088983
vn 0.07740995264299512 0.020481906505961017 0.9967889399154117
vn -0.07740995264299512 -0.020481906505961017 -0.9967889399154117
vn 0.07754307504665756 -0.02070618637112809 -0.9967739590088983
vn -0.02747858757996024 -0.11616481445551483 -0.9928497686493793
vn 0.08147982188459439 -0.25885673940746806 0.9624729747317526
vn -0.08147982188459439 0.25885673940746806 -0.9624729747317526
vn 0.12191282194832366 0.19556757105404793 0.973083032940466
vn -0.12191282194832366 -0.19556757105404793 -0.973083032940466
vn -0.028189033014125696 0.11569892371461019 0.9928842517982693
vn 0.028189033014125696 -0.11569892371461019 -0.9928842517982693
vn 0.3576589147065966 0.018069027376743783 0.9336774662486816
vn -0.3576589147065966 -0.018069027376743783 -0.9336774662486816
vn -0.07535461778179968 -0.25516782843194913 0.9639559434498458
vn 0.07535461778179968 0.25516782843194913 -0.9639559434498458
vn -0.12389769311267955 0.19411347682814303 0.9731234863854875
vn 0.12389769311267955 -0.19411347682814303 -0.9731234863854875
vn -0.36153969630106964 0.012755301229957392 0.93226946227422
vn 0.36153969630106964 -0.012755301229957392 -0.93226946227422
vn 0.36806123520297473 -0.24238134692966704 0.8976537248858386
vn -0.36806123520297473 0.24238134692966704 -0.8976537248858386
vn 0.0850421598211364 -0.6712182986439632 0.7363652806986897
vn -0.0850421598211364 0.6712182986439632 -0.7363652806986897
vn -0.30927672491775976 0.34777168795033675 0.8851004239544336
vn 0.30927672491775976 -0.34777168795033675 -0.8851004239544336
vn 0.3069813177561671 0.34973126629048845 0.8851273986989324
vn -0.3069813177561671 -0.34973126629048845 -0.8851273986989324
vn 0.7306645952705874 0.011982721742554067 0.6826314258790823
vn -0.7306645952705874 -0.011982721742554067 -0.6826314258790823
vn -0.35078699527567214 -0.26238061602461127 0.8989465480661301
vn 0.35078699527567214 0.26238061602461127 -0.8989465480661301
vn -0.05924871187449763 -0.6662236586738144 0.7433946642023265
vn 0.05924871187449763 0.6662236586738144 -0.7433946642023265
vn -0.7355312218652165 -0.0110817021921631 0.6774001900929657
vn 0.7355312218652165 0.0110817021921631 -0.6774001900929657
vn 0.37852908044265615 -0.6235247213700071 0.6840560335964387
vn -0.37852908044265615 0.6235247213700071 -0.6840560335964387
vn 0.7371299955168028 -0.17156898260361553 0.6536080277335633
vn -0.7371299955168028 0.17156898260361553 -0.6536080277335633
vn 0.08147379928085295 -0.9344414882950742 0.3466714943338001
vn -0.08147379928085295 0.9344414882950742 -0.3466714943338001
vn -0.9498623778968692 -0.04038266203552709 0.3100495180822402
vn 0.9498623778968692 0.04038266203552709 -0.3100495180822402
vn -0.5714713845000058 0.5870275413277514 0.5734275215058494
vn 0.5714713845000058 -0.5870275413277514 -0.5734275215058494
vn 0.5705770059448277 0.5881736253622691 0.5731436702217352
vn -0.5705770059448277 -0.5881736253622691 -0.5731436702217352
vn 0.9487063366533731 0.004774626613757472 0.3161225865616625
vn -0.9487063366533731 -0.004774626613757472 -0.3161225865616625
vn -0.7067977529204001 -0.2795450140645439 0.6498396121954454
vn 0.7067977529204001 0.2795450140645439 -0.6498396121954454
vn -0.27119120303337696 -0.6646606401746746 0.6961907531703515
vn 0.27119120303337696 0.6646606401746746 -0.6961907531703515
vn -0.029280916515466823 -0.9343161402924651 0.3552407323449902
vn 0.029280916515466823 0.9343161402924651 -0.3552407323449902
vn 0.36804594140878 -0.8714249629740021 0.32428493476923015
vn -0.36804594140878 0.8714249629740021 -0.32428493476923015
vn 0.7468969482499327 -0.4479343365806577 0.4914262699601881
vn -0.7468969482499327 0.4479343365806577 -0.4914262699601881
vn 0.9486119754956711 -0.07677275878321702 0.3069873995052799
vn -0.9486119754956711 0.07677275878321702 -0.3069873995052799
vn 0.07759665300630245 -0.9944242941744132 0.07140786089737942
vn -0.07759665300630245 0.9944242941744132 -0.07140786089737942
vn -0.9091606038090781 -0.2919277058688133 0.2969936211902271
vn 0.9091606038090781 0.2919277058688133 -0.2969936211902271
vn -0.9961667760584363 -0.05935691699747771 0.06425348770219444
vn 0.9961667760584363 0.05935691699747771 -0.06425348770219444
vn -0.6254153610270171 0.6833834410866507 0.37662009856088974
vn 0.6254153610270171 -0.6833834410866507 -0.37662009856088974
vn 0.6479390050823953 0.6677333934839161 0.3664794140457131
vn -0.6479390050823953 -0.6677333934839161 -0.3664794140457131
vn 0.9974332832371976 -0.048815314306460494 0.05238234988835164
vn -0.9974332832371976 0.048815314306460494 -0.05238234988835164
vn -0.5487613915541608 -0.6691097106608414 0.5011518035874022
vn 0.5487613915541608 0.6691097106608414 -0.5011518035874022
vn -0.1323382351799231 -0.9309012737546953 0.34045471069049593
vn 0.1323382351799231 0.9309012737546953 -0.34045471069049593
vn -0.06356120003648116 -0.9963332290668555 0.05727189980378955
vn 0.06356120003648116 0.9963332290668555 -0.05727189980378955
vn 0.3580664271958236 -0.9312925106783997 0.06695291830488766
vn -0.3580664271958236 0.9312925106783997 -0.06695291830488766
vn 0.7371270904840778 -0.6349619768441734 0.23122919460270927
vn -0.7371270904840778 0.6349619768441734 -0.23122919460270927
vn 0.9511540845272937 -0.207958265272769 0.2281650003654958
vn -0.9511540845272937 0.207958265272769 -0.2281650003654958
vn -0.07752584819616207 -0.9969903424113323 9.241805673798753e-9
vn 0.07752584819616207 0.9969903424113323 -9.241805673798753e-9
vn -0.9510065712002319 -0.3031398103425859 0.060768058381352234
vn 0.9510065712002319 0.3031398103425859 -0.060768058381352234
vn -0.7100709676411027 -0.6656423114501214 0.2296073477059645
vn 0.7100709676411027 0.6656423114501214 -0.2296073477059645
vn 0.9978973626994024 -0.06481399168063404 0
vn -0.9978973626994024 0.06481399168063404 0
vn 0.07753706259775464 -0.996989470317371 -1.1440820423391932e-9
vn -0.07753706259775464 0.996989470317371 1.1440820423391932e-9
vn 0.9486111821329308 -0.2985803104854734 0.10481709461133537
vn -0.9486111821329308 0.2985803104854734 -0.10481709461133537
vn -0.2741373419305952 -0.9299347220581129 0.24509208569419022
vn 0.2741373419305952 0.9299347220581129 -0.24509208569419022
vn -0.36004301745031486 -0.9329357028141171 4.292049269930838e-8
vn 0.36004301745031486 0.9329357028141171 -4.292049269930838e-8
vn -0.9978973633461719 -0.06481398172265042 1.1895869223114214e-7
vn 0.9978973633461719 0.06481398172265042 -1.1895869223114214e-7
vn 0.9506724624888341 -0.31019650073045046 0
vn -0.9506724624888341 0.31019650073045046 0
vn 0.3600313225618376 -0.9329402160773079 0
vn -0.3600313225618376 0.9329402160773079 0
vn 0.7307709390352599 -0.6808791351498252 0.04875897844654248
vn -0.7307709390352599 0.6808791351498252 -0.04875897844654248
vn 0.9485587171085637 -0.31580551446782335 0.02243294962926549
vn -0.9485587171085637 0.31580551446782335 -0.02243294962926549
vn -0.3581387961312139 -0.9269643856932072 0.1116854080088343
vn 0.3581387961312139 0.9269643856932072 -0.1116854080088343
vn -0.36853561294962384 -0.929289286292545 0.024554518316140212
vn 0.36853561294962384 0.929289286292545 -0.024554518316140212
vn -1 0 1.1920934617215553e-7
vn 1 0 -1.1920934617215553e-7
vn -0.9506724919783315 -0.31019641035269324 1.1332904619221783e-7
vn 0.9506724919783315 0.31019641035269324 -1.1332904619221783e-7
vn -0.7406620268281229 -0.6701570358617416 0.04805527338244274
vn 0.7406620268281229 0.6701570358617416 -0.04805527338244274
vn -0.7349332513816426 -0.6781394517454356 8.761091237434736e-8
vn 0.7349332513816426 0.6781394517454356 -8.761091237434736e-8
vn 0.7349171254413619 -0.678156927807278 1.6928773794348394e-9
vn -0.7349171254413619 0.678156927807278 -1.6928773794348394e-9
usemtl material_0_0
f 1//1 2//2 3//3
f 4//4 5//5 6//6
f 2//2 7//7 3//3
f 4//4 8//8 5//5
f 9//9 1//1 3//3
f 4//4 6//6 10//10
f 11//11 2//2 1//1
f 6//6 5//5 12//12
f 13//13 3//3 7//7
f 8//8 4//4 14//14
f 2//2 15//15 7//7
f 8//8 16//16 5//5
f 17//17 1//1 9//9
f 10//10 6//6 18//18
f 9//9 3//3 13//13
f 14//14 4//4 10//10
f 17//17 11//11 1//1
f 6//6 12//12 18//18
f 11//11 19//19 2//2
f 5//5 20//20 12//12
f 13//13 7//7 21//21
f 22//22 8//8 14//14
f 19//19 15//15 2//2
f 5//5 16//16 20//20
f 15//15 23//23 7//7
f 8//8 24//24 16//16
f 25//25 17//17 9//9
f 10//10 18//18 26//26
f 27//27 9//9 13//13
f 14//14 10//10 28//28
f 17//17 19//19 11//11
f 12//12 20//20 18//18
f 21//21 7//7 23//23
f 24//24 8//8 22//22
f 29//29 13//13 21//21
f 22//22 14//14 30//30
f 19//19 31//31 15//15
f 16//16 32//32 20//20
f 15//15 33//33 23//23
f 24//24 34//34 16//16
f 25//25 35//35 17//17
f 18//18 36//36 26//26
f 25//25 9//9 27//27
f 28//28 10//10 26//26
f 27//27 13//13 29//29
f 30//30 14//14 28//28
f 17//17 35//35 19//19
f 20//20 36//36 18//18
f 21//21 23//23 37//37
f 38//38 24//24 22//22
f 29//29 21//21 39//39
f 40//40 22//22 30//30
f 35//35 31//31 19//19
f 20//20 32//32 36//36
f 31//31 33//33 15//15
f 16//16 34//34 32//32
f 41//41 23//23 33//33
f 34//34 24//24 42//42
f 25//25 43//43 35//35
f 36//36 44//44 26//26
f 45//45 25//25 27//27
f 28//28 26//26 46//46
f 47//47 27//27 29//29
f 30//30 28//28 48//48
f 37//37 23//23 41//41
f 42//42 24//24 38//38
f 39//39 21//21 37//37
f 38//38 22//22 40//40
f 49//49 29//29 39//39
f 40//40 30//30 50//50
f 35//35 51//51 31//31
f 32//32 52//52 36//36
f 31//31 53//53 33//33
f 34//34 54//54 32//32
f 41//41 33//33 55//55
f 56//56 34//34 42//42
f 43//43 51//51 35//35
f 36//36 52//52 44//44
f 45//45 43//43 25//25
f 26//26 44//44 46//46
f 45//45 27//27 47//47
f 48//48 28//28 46//46
f 47//47 29//29 49//49
f 50//50 30//30 48//48
f 57//57 37//37 41//41
f 42//42 38//38 58//58
f 39//39 37//37 59//59
f 60//60 38//38 40//40
f 61//61 49//49 39//39
f 40//40 50//50 62//62
f 51//51 53//53 31//31
f 32//32 54//54 52//52
f 33//33 53//53 55//55
f 56//56 54//54 34//34
f 63//63 41//41 55//55
f 56//56 42//42 64//64
f 43//43 65//65 51//51
f 52//52 66//66 44//44
f 45//45 67//67 43//43
f 44//44 68//68 46//46
f 47//47 69//69 45//45
f 46//46 70//70 48//48
f 71//71 47//47 49//49
f 50//50 48//48 72//72
f 57//57 41//41 63//63
f 64//64 42//42 58//58
f 59//59 37//37 57//57
f 58//58 38//38 60//60
f 61//61 39//39 59//59
f 60//60 40//40 62//62
f 73//73 49//49 61//61
f 62//62 50//50 74//74
f 51//51 75//75 53//53
f 54//54 76//76 52//52
f 55//55 53//53 77//77
f 78//78 54//54 56//56
f 63//63 55//55 79//79
f 80//80 56//56 64//64
f 67//67 65//65 43//43
f 44//44 66//66 68//68
f 65//65 75//75 51//51
f 52//52 76//76 66//66
f 69//69 67//67 45//45
f 46//46 68//68 70//70
f 71//71 69//69 47//47
f 48//48 70//70 72//72
f 71//71 49//49 73//73
f 74//74 50//50 72//72
f 81//81 57//57 63//63
f 64//64 58//58 82//82
f 83//83 59//59 57//57
f 58//58 60//60 84//84
f 85//85 61//61 59//59
f 60//60 62//62 86//86
f 73//73 61//61 85//85
f 86//86 62//62 74//74
f 77//77 53//53 75//75
f 76//76 54//54 78//78
f 55//55 77//77 79//79
f 80//80 78//78 56//56
f 63//63 79//79 87//87
f 88//88 80//80 64//64
f 67//67 89//89 65//65
f 66//66 90//90 68//68
f 91//91 75//75 65//65
f 66//66 76//76 92//92
f 71//71 73//73 93//93
f 94//94 74//74 72//72
f 81//81 63//63 95//95
f 96//96 64//64 82//82
f 83//83 57//57 81//81
f 82//82 58//58 84//84
f 85//85 59//59 83//83
f 84//84 60//60 86//86
f 73//73 85//85 97//97
f 98//98 86//86 74//74
f 77//77 75//75 99//99
f 100//100 76//76 78//78
f 79//79 77//77 99//99
f 100//100 78//78 80//80
f 79//79 101//101 87//87
f 88//88 102//102 80//80
f 95//95 63//63 87//87
f 88//88 64//64 96//96
f 103//103 89//89 67//67
f 68//68 90//90 104//104
f 89//89 91//91 65//65
f 66//66 92//92 90//90
f 99//99 75//75 91//91
f 92//92 76//76 100//100
f 93//93 73//73 105//105
f 106//106 74//74 94//94
f 107//107 81//81 95//95
f 96//96 82//82 108//108
f 109//109 83//83 81//81
f 82//82 84//84 110//110
f 97//97 85//85 83//83
f 84//84 86//86 98//98
f 73//73 97//97 111//111
f 112//112 98//98 74//74
f 79//79 99//99 113//113
f 114//114 100//100 80//80
f 79//79 115//115 101//101
f 102//102 116//116 80//80
f 103//103 67//67 117//117
f 118//118 68//68 104//104
f 119//119 89//89 103//103
f 104//104 90//90 120//120
f 89//89 121//121 91//91
f 92//92 122//122 90//90
f 99//99 91//91 113//113
f 114//114 92//92 100//100
f 105//105 73//73 111//111
f 112//112 74//74 106//106
f 109//109 81//81 107//107
f 108//108 82//82 110//110
f 109//109 97//97 83//83
f 84//84 98//98 110//110
f 111//111 97//97 109//109
f 110//110 98//98 112//112
f 79//79 113//113 115//115
f 116//116 114//114 80//80
f 115//115 123//123 101//101
f 102//102 124//124 116//116
f 119//119 121//121 89//89
f 90//90 122//122 120//120
f 113//113 91//91 121//121
f 122//122 92//92 114//114
f 105//105 111//111 125//125
f 126//126 112//112 106//106
f 125//125 109//109 107//107
f 108//108 110//110 126//126
f 125//125 111//111 109//109
f 110//110 112//112 126//126
f 113//113 121//121 115//115
f 116//116 122//122 114//114
f 115//115 121//121 123//123
f 124//124 122//122 116//116
f 123//123 121//121 119//119
f 120//120 122//122 124//124
