# SSTK version 0.8.0
# 7
mtllib original-7.mtl
o #ID28
v 0.049470 -0.361165 0.194277
v -0.062838 -0.366063 0.194534
v 0.037630 -0.366063 0.194534
v -0.074678 -0.361165 0.194277
v -0.079582 -0.349341 0.193657
v 0.054375 -0.349341 0.193657
v 0.049470 -0.337517 0.193038
v -0.074678 -0.337517 0.193038
v 0.037630 -0.332620 0.192781
v -0.062838 -0.332620 0.192781
vn 0 0.05233461027732334 0.9986296052927336
usemtl material_0_0
f 1//1 2//1 3//1
f 2//1 1//1 4//1
f 4//1 1//1 5//1
f 5//1 1//1 6//1
f 5//1 6//1 7//1
f 5//1 7//1 8//1
f 8//1 7//1 9//1
f 8//1 9//1 10//1
