# SSTK version 0.8.0
# 3
mtllib original-3.mtl
o #ID14
v 0.665554 -0.667983 -0.026120
v 0.682299 0.705077 0.024114
v 0.682299 -0.684727 0.024114
v 0.665554 0.688332 -0.026120
v -0.087954 -0.458675 -0.026120
v 0.439501 -0.458675 -0.026120
v -0.464709 -0.458675 -0.026120
v 0.062747 -0.458675 -0.026120
v -0.690761 -0.667983 -0.026120
v 0.665554 -0.667983 -0.026120
v -0.473081 -0.456431 -0.026120
v -0.479210 -0.450302 -0.026120
v -0.481453 -0.441930 -0.026120
v -0.690761 0.688332 -0.026120
v -0.481453 -0.065176 -0.026120
v -0.481453 0.085526 -0.026120
v -0.481453 0.462280 -0.026120
v -0.479210 0.470652 -0.026120
v -0.476145 0.473717 -0.026120
v -0.473081 0.476781 -0.026120
v -0.464709 0.479024 -0.026120
v -0.087954 0.479024 -0.026120
v 0.439501 0.479024 -0.026120
v 0.456246 -0.441930 -0.026120
v 0.665554 0.688332 -0.026120
v 0.454003 -0.450302 -0.026120
v 0.450938 -0.453367 -0.026120
v 0.447874 -0.456431 -0.026120
v 0.456246 -0.065176 -0.026120
v 0.456246 0.085526 -0.026120
v 0.456246 0.462280 -0.026120
v 0.454003 0.470652 -0.026120
v 0.447874 0.476781 -0.026120
v 0.062747 0.479024 -0.026120
v 0.682299 0.705077 0.024114
v -0.690761 0.688332 -0.026120
v -0.707506 0.705077 0.024114
v 0.665554 0.688332 -0.026120
v 0.682299 -0.684727 0.024114
v 0.682299 0.705077 0.141327
v 0.682299 -0.684727 0.141327
v 0.682299 0.705077 0.024114
v -0.690761 -0.667983 -0.026120
v 0.682299 -0.684727 0.024114
v -0.707506 -0.684727 0.024114
v 0.665554 -0.667983 -0.026120
v -0.690761 0.688332 -0.026120
v -0.707506 -0.684727 0.024114
v -0.707506 0.705077 0.024114
v -0.690761 -0.667983 -0.026120
v 0.682299 0.705077 0.141327
v -0.707506 0.705077 0.024114
v -0.707506 0.705077 0.141327
v 0.682299 0.705077 0.024114
v 0.682299 -0.684727 0.024114
v -0.707506 -0.684727 0.141327
v -0.707506 -0.684727 0.024114
v 0.682299 -0.684727 0.141327
v 0.682299 -0.684727 0.141327
v 0.439501 -0.458675 0.141327
v -0.707506 -0.684727 0.141327
v 0.447874 -0.456431 0.141327
v 0.454003 -0.450302 0.141327
v 0.456246 -0.441930 0.141327
v 0.682299 0.705077 0.141327
v 0.456246 0.462280 0.141327
v 0.454003 0.470652 0.141327
v 0.447874 0.476781 0.141327
v 0.439501 0.479024 0.141327
v -0.464709 0.479024 0.141327
v -0.481453 -0.441930 0.141327
v -0.707506 0.705077 0.141327
v -0.479210 -0.450302 0.141327
v -0.473081 -0.456431 0.141327
v -0.464709 -0.458675 0.141327
v -0.481453 0.462280 0.141327
v -0.479210 0.470652 0.141327
v -0.473081 0.476781 0.141327
v -0.707506 0.705077 0.141327
v -0.707506 -0.684727 0.024114
v -0.707506 -0.684727 0.141327
v -0.707506 0.705077 0.024114
vn 0.9486832880505133 0 -0.31622779601683737
vn 0 0 -1
vn 0 0.9486832880505134 -0.31622779601683715
vn 1 0 0
vn 0 -0.9486832880505134 -0.31622779601683765
vn -0.9486832880505133 0 -0.31622779601683737
vn 0 1 0
vn 0 -1 0
vn 0 0 1
vn -1 0 0
usemtl material_0_0
f 1//1 2//1 3//1
f 2//1 1//1 4//1
f 5//2 6//2 7//2
f 6//2 5//2 8//2
f 9//2 7//2 10//2
f 7//2 9//2 11//2
f 11//2 9//2 12//2
f 12//2 9//2 13//2
f 13//2 9//2 14//2
f 13//2 14//2 15//2
f 15//2 14//2 16//2
f 16//2 14//2 17//2
f 17//2 14//2 18//2
f 18//2 14//2 19//2
f 19//2 14//2 20//2
f 20//2 14//2 21//2
f 21//2 14//2 22//2
f 22//2 14//2 23//2
f 10//2 24//2 25//2
f 24//2 10//2 26//2
f 26//2 10//2 27//2
f 27//2 10//2 28//2
f 28//2 10//2 6//2
f 6//2 10//2 7//2
f 25//2 24//2 29//2
f 25//2 29//2 30//2
f 25//2 30//2 31//2
f 25//2 31//2 32//2
f 25//2 32//2 33//2
f 25//2 33//2 23//2
f 25//2 23//2 14//2
f 23//2 34//2 22//2
f 35//3 36//3 37//3
f 36//3 35//3 38//3
f 39//4 40//4 41//4
f 40//4 39//4 42//4
f 43//5 44//5 45//5
f 44//5 43//5 46//5
f 47//6 48//6 49//6
f 48//6 47//6 50//6
f 51//7 52//7 53//7
f 52//7 51//7 54//7
f 55//8 56//8 57//8
f 56//8 55//8 58//8
f 59//9 60//9 61//9
f 60//9 59//9 62//9
f 62//9 59//9 63//9
f 63//9 59//9 64//9
f 64//9 59//9 65//9
f 64//9 65//9 66//9
f 66//9 65//9 67//9
f 67//9 65//9 68//9
f 68//9 65//9 69//9
f 69//9 65//9 70//9
f 61//9 71//9 72//9
f 71//9 61//9 73//9
f 73//9 61//9 74//9
f 74//9 61//9 75//9
f 75//9 61//9 60//9
f 72//9 71//9 76//9
f 72//9 76//9 77//9
f 72//9 77//9 78//9
f 72//9 78//9 70//9
f 72//9 70//9 65//9
f 79//10 80//10 81//10
f 80//10 79//10 82//10
