# SSTK version 0.8.0
# 10
mtllib original-10.mtl
o #ID43
v -0.331693 -0.367779 -0.377757
v 0.287262 -0.371603 -0.377757
v -0.312469 -0.371603 -0.377757
v 0.306485 -0.367779 -0.377757
v -0.347990 -0.356890 -0.377757
v 0.322782 -0.356890 -0.377757
v -0.358879 -0.340593 -0.377757
v 0.333672 -0.340593 -0.377757
v -0.362703 -0.321369 -0.377757
v 0.337496 -0.321369 -0.377757
v -0.362703 0.341719 -0.377757
v 0.337496 0.341719 -0.377757
v -0.358879 0.360942 -0.377757
v 0.333672 0.360942 -0.377757
v -0.347990 0.377239 -0.377757
v 0.322782 0.377239 -0.377757
v -0.331693 0.388128 -0.377757
v 0.306485 0.388128 -0.377757
v -0.312469 0.391952 -0.377757
v 0.287262 0.391952 -0.377757
v -0.312469 -0.371603 -0.377757
v 0.287262 -0.371603 -0.026120
v -0.312469 -0.371603 -0.026120
v 0.287262 -0.371603 -0.377757
v -0.331693 -0.367779 -0.377757
v -0.331693 -0.367779 -0.026120
v -0.347990 -0.356890 -0.377757
v -0.347990 -0.356890 -0.026120
v -0.358879 -0.340593 -0.377757
v -0.358879 -0.340593 -0.026120
v -0.362703 -0.321369 -0.377757
v -0.362703 -0.321369 -0.026120
v -0.362703 0.341719 -0.026120
v -0.362703 0.341719 -0.377757
v -0.358879 0.360942 -0.377757
v -0.358879 0.360942 -0.026120
v -0.347990 0.377239 -0.377757
v -0.347990 0.377239 -0.026120
v -0.331693 0.388128 -0.026120
v -0.331693 0.388128 -0.377757
v -0.312469 0.391952 -0.026120
v -0.312469 0.391952 -0.377757
v 0.287262 0.391952 -0.026120
v 0.287262 0.391952 -0.377757
v 0.306485 0.388128 -0.026120
v 0.306485 0.388128 -0.377757
v 0.322782 0.377239 -0.026120
v 0.322782 0.377239 -0.377757
v 0.333672 0.360942 -0.377757
v 0.333672 0.360942 -0.026120
v 0.337496 0.341719 -0.377757
v 0.337496 0.341719 -0.026120
v 0.337496 -0.321369 -0.377757
v 0.337496 -0.321369 -0.026120
v 0.333672 -0.340593 -0.377757
v 0.333672 -0.340593 -0.026120
v 0.322782 -0.356890 -0.377757
v 0.322782 -0.356890 -0.026120
v 0.306485 -0.367779 -0.026120
v 0.306485 -0.367779 -0.377757
vn 0 0 -1
vn -0.09801714260491001 -0.9951847264480945 0
vn 0.09801714260491001 -0.9951847264480945 0
vn -0.38268341623423263 -0.9238795391929066 0
vn -0.7071067811865476 -0.7071067811865476 0
vn -0.9238795391929066 -0.38268341623423263 0
vn -0.9951847264480945 -0.09801714260491001 0
vn -0.9951847264480945 0.09801714260491001 0
vn -0.9238795391929066 0.38268341623423263 0
vn -0.7071067811865476 0.7071067811865476 0
vn -0.38268341623423263 0.9238795391929066 0
vn -0.09801714260491001 0.9951847264480945 0
vn 0.09801714260491001 0.9951847264480945 0
vn 0.38268341623423263 0.9238795391929066 0
vn 0.7071067811865476 0.7071067811865476 0
vn 0.9238795391929066 0.38268341623423263 0
vn 0.9951847264480945 0.09801714260491001 0
vn 0.9951847264480945 -0.09801714260491001 0
vn 0.9238795391929066 -0.38268341623423263 0
vn 0.7071067811865476 -0.7071067811865476 0
vn 0.38268341623423263 -0.9238795391929066 0
usemtl material_0_0
f 1//1 2//1 3//1
f 2//1 1//1 4//1
f 4//1 1//1 5//1
f 4//1 5//1 6//1
f 6//1 5//1 7//1
f 6//1 7//1 8//1
f 8//1 7//1 9//1
f 8//1 9//1 10//1
f 10//1 9//1 11//1
f 10//1 11//1 12//1
f 12//1 11//1 13//1
f 12//1 13//1 14//1
f 14//1 13//1 15//1
f 14//1 15//1 16//1
f 16//1 15//1 17//1
f 16//1 17//1 18//1
f 18//1 17//1 19//1
f 18//1 19//1 20//1
f 21//2 22//3 23//2
f 22//3 21//2 24//3
f 25//4 23//2 26//4
f 23//2 25//4 21//2
f 27//5 26//4 28//5
f 26//4 27//5 25//4
f 29//6 28//5 30//6
f 28//5 29//6 27//5
f 31//7 30//6 32//7
f 30//6 31//7 29//6
f 33//8 31//7 32//7
f 31//7 33//8 34//8
f 35//9 33//8 36//9
f 33//8 35//9 34//8
f 37//10 36//9 38//10
f 36//9 37//10 35//9
f 39//11 37//10 38//10
f 37//10 39//11 40//11
f 41//12 40//11 39//11
f 40//11 41//12 42//12
f 43//13 42//12 41//12
f 42//12 43//13 44//13
f 45//14 44//13 43//13
f 44//13 45//14 46//14
f 47//15 46//14 45//14
f 46//14 47//15 48//15
f 49//16 47//15 50//16
f 47//15 49//16 48//15
f 51//17 50//16 52//17
f 50//16 51//17 49//16
f 53//18 52//17 54//18
f 52//17 53//18 51//17
f 55//19 54//18 56//19
f 54//18 55//19 53//18
f 57//20 56//19 58//20
f 56//19 57//20 55//19
f 57//20 59//21 60//21
f 59//21 57//20 58//20
f 60//21 22//3 24//3
f 22//3 60//21 59//21
