# SSTK version 0.8.0
# 8
mtllib original-8.mtl
o #ID50
v -0.605351 -0.012058 0.040679
v -0.606289 0.011644 0.040679
v -0.609559 0.003377 0.040679
v -0.604332 -0.003226 0.040679
v -0.597290 -0.025877 0.040679
v -0.598592 -0.017082 0.040679
v -0.589462 -0.028981 0.040679
v -0.585928 -0.037139 0.040679
v -0.577563 -0.038112 0.040679
v -0.572038 -0.045077 0.040679
v -0.563706 -0.043851 0.040679
v -0.556567 -0.049149 0.040679
v -0.548836 -0.045809 0.040679
v -0.540569 -0.049079 0.040679
v -0.533967 -0.043851 0.040679
v -0.525134 -0.044870 0.040679
v -0.520110 -0.038112 0.040679
v -0.511315 -0.036810 0.040679
v -0.508211 -0.028981 0.040679
v -0.500053 -0.025447 0.040679
v -0.499081 -0.017082 0.040679
v -0.492115 -0.011557 0.040679
v -0.493341 -0.003226 0.040679
v -0.491384 0.011644 0.040679
v -0.488043 0.003914 0.040679
v -0.488114 0.019912 0.040679
v -0.605558 0.034846 0.040679
v -0.609630 0.019375 0.040679
v -0.604332 0.026514 0.040679
v -0.597620 0.048736 0.040679
v -0.598592 0.040371 0.040679
v -0.589462 0.052270 0.040679
v -0.586358 0.060098 0.040679
v -0.577563 0.061400 0.040679
v -0.572539 0.068158 0.040679
v -0.563706 0.067140 0.040679
v -0.557104 0.072367 0.040679
v -0.548836 0.069097 0.040679
v -0.541106 0.072438 0.040679
v -0.533967 0.067140 0.040679
v -0.525635 0.068366 0.040679
v -0.520110 0.061400 0.040679
v -0.511745 0.060428 0.040679
v -0.508211 0.052270 0.040679
v -0.500383 0.049165 0.040679
v -0.499081 0.040371 0.040679
v -0.492322 0.035346 0.040679
v -0.493341 0.026514 0.040679
vn 0 0 1
vn 0 0 -1
usemtl material_0_2
f 1//1 2//1 3//1
f 3//2 2//2 1//2
f 2//1 1//1 4//1
f 4//2 1//2 2//2
f 4//1 1//1 5//1
f 5//2 1//2 4//2
f 4//1 5//1 6//1
f 6//2 5//2 4//2
f 6//1 5//1 7//1
f 7//2 5//2 6//2
f 7//1 5//1 8//1
f 8//2 5//2 7//2
f 7//1 8//1 9//1
f 9//2 8//2 7//2
f 9//1 8//1 10//1
f 10//2 8//2 9//2
f 9//1 10//1 11//1
f 11//2 10//2 9//2
f 11//1 10//1 12//1
f 12//2 10//2 11//2
f 11//1 12//1 13//1
f 13//2 12//2 11//2
f 13//1 12//1 14//1
f 14//2 12//2 13//2
f 13//1 14//1 15//1
f 15//2 14//2 13//2
f 15//1 14//1 16//1
f 16//2 14//2 15//2
f 15//1 16//1 17//1
f 17//2 16//2 15//2
f 17//1 16//1 18//1
f 18//2 16//2 17//2
f 17//1 18//1 19//1
f 19//2 18//2 17//2
f 19//1 18//1 20//1
f 20//2 18//2 19//2
f 19//1 20//1 21//1
f 21//2 20//2 19//2
f 21//1 20//1 22//1
f 22//2 20//2 21//2
f 21//1 22//1 23//1
f 23//2 22//2 21//2
f 23//1 22//1 24//1
f 24//2 22//2 23//2
f 24//1 22//1 25//1
f 25//2 22//2 24//2
f 24//1 25//1 26//1
f 26//2 25//2 24//2
f 3//1 27//1 28//1
f 28//2 27//2 3//2
f 27//1 3//1 2//1
f 2//2 3//2 27//2
f 27//1 2//1 29//1
f 29//2 2//2 27//2
f 27//1 29//1 30//1
f 30//2 29//2 27//2
f 30//1 29//1 31//1
f 31//2 29//2 30//2
f 30//1 31//1 32//1
f 32//2 31//2 30//2
f 30//1 32//1 33//1
f 33//2 32//2 30//2
f 33//1 32//1 34//1
f 34//2 32//2 33//2
f 33//1 34//1 35//1
f 35//2 34//2 33//2
f 35//1 34//1 36//1
f 36//2 34//2 35//2
f 35//1 36//1 37//1
f 37//2 36//2 35//2
f 37//1 36//1 38//1
f 38//2 36//2 37//2
f 37//1 38//1 39//1
f 39//2 38//2 37//2
f 39//1 38//1 40//1
f 40//2 38//2 39//2
f 39//1 40//1 41//1
f 41//2 40//2 39//2
f 41//1 40//1 42//1
f 42//2 40//2 41//2
f 41//1 42//1 43//1
f 43//2 42//2 41//2
f 43//1 42//1 44//1
f 44//2 42//2 43//2
f 43//1 44//1 45//1
f 45//2 44//2 43//2
f 45//1 44//1 46//1
f 46//2 44//2 45//2
f 45//1 46//1 47//1
f 47//2 46//2 45//2
f 47//1 46//1 48//1
f 48//2 46//2 47//2
f 47//1 48//1 24//1
f 24//2 48//2 47//2
f 47//1 24//1 26//1
f 26//2 24//2 47//2
