# SSTK version 0.8.0
# 7
mtllib original-7.mtl
o #ID44
v -0.213694 -0.275621 0.040679
v -0.185204 -0.247131 0.040679
v -0.213694 0.298909 0.040679
v 0.169326 -0.275621 0.040679
v 0.140836 -0.247131 0.040679
v 0.169326 0.298909 0.040679
v -0.185204 0.270419 0.040679
v 0.140836 0.270419 0.040679
vn 0 0 1
vn 0 0 -1
usemtl material_0_2
f 1//1 2//1 3//1
f 3//2 2//2 1//2
f 2//1 1//1 4//1
f 4//2 1//2 2//2
f 2//1 4//1 5//1
f 5//2 4//2 2//2
f 5//1 4//1 6//1
f 6//2 4//2 5//2
f 3//1 7//1 6//1
f 6//2 7//2 3//2
f 7//1 3//1 2//1
f 2//2 3//2 7//2
f 6//1 7//1 8//1
f 8//2 7//2 6//2
f 6//1 8//1 5//1
f 5//2 8//2 6//2
