# SSTK version 0.8.0
# 4
mtllib original-4.mtl
o #ID26
v -0.493341 0.026514 0.040679
v -0.491384 0.011644 0.038764
v -0.491384 0.011644 0.040679
v -0.493341 0.026514 0.038764
v -0.499081 0.040371 0.040679
v -0.499081 0.040371 0.038764
v -0.533967 -0.043851 0.038764
v -0.520110 0.061400 0.038764
v -0.533967 0.067140 0.038764
v -0.520110 -0.038112 0.038764
v -0.508211 0.052270 0.038764
v -0.508211 -0.028981 0.038764
v -0.499081 0.040371 0.038764
v -0.499081 -0.017082 0.038764
v -0.493341 -0.003226 0.038764
v -0.493341 0.026514 0.038764
v -0.491384 0.011644 0.038764
v -0.493341 -0.003226 0.038764
v -0.493341 -0.003226 0.040679
v -0.508211 0.052270 0.040679
v -0.508211 0.052270 0.038764
v -0.520110 0.061400 0.040679
v -0.533967 0.067140 0.038764
v -0.520110 0.061400 0.038764
v -0.533967 0.067140 0.040679
v -0.533967 0.067140 0.038764
v -0.533967 -0.043851 0.034934
v -0.533967 -0.043851 0.038764
v -0.533967 0.067140 0.034934
v -0.533967 -0.043851 0.040679
v -0.520110 -0.038112 0.038764
v -0.533967 -0.043851 0.038764
v -0.520110 -0.038112 0.040679
v -0.508211 -0.028981 0.038764
v -0.508211 -0.028981 0.040679
v -0.499081 -0.017082 0.040679
v -0.499081 -0.017082 0.038764
v -0.533967 0.067140 0.038764
v -0.548836 0.069097 0.034934
v -0.533967 0.067140 0.034934
v -0.548836 0.069097 0.040679
v -0.533967 0.067140 0.040679
v -0.563706 -0.043851 0.034934
v -0.548836 0.069097 0.034934
v -0.563706 0.067140 0.034934
v -0.548836 -0.045809 0.034934
v -0.533967 -0.043851 0.034934
v -0.533967 0.067140 0.034934
v -0.548836 -0.045809 0.040679
v -0.533967 -0.043851 0.034934
v -0.548836 -0.045809 0.034934
v -0.533967 -0.043851 0.038764
v -0.533967 -0.043851 0.040679
v -0.563706 0.067140 0.034934
v -0.563706 0.067140 0.038764
v -0.563706 0.067140 0.040679
v -0.563706 0.067140 0.034934
v -0.563706 -0.043851 0.038764
v -0.563706 -0.043851 0.034934
v -0.563706 0.067140 0.038764
v -0.563706 -0.043851 0.038764
v -0.563706 -0.043851 0.034934
v -0.563706 -0.043851 0.040679
v -0.563706 0.067140 0.040679
v -0.577563 0.061400 0.038764
v -0.563706 0.067140 0.038764
v -0.577563 0.061400 0.040679
v -0.604332 -0.003226 0.038764
v -0.604332 0.026514 0.038764
v -0.606289 0.011644 0.038764
v -0.598592 -0.017082 0.038764
v -0.598592 0.040371 0.038764
v -0.589462 -0.028981 0.038764
v -0.589462 0.052270 0.038764
v -0.577563 0.061400 0.038764
v -0.577563 -0.038112 0.038764
v -0.563706 0.067140 0.038764
v -0.563706 -0.043851 0.038764
v -0.577563 -0.038112 0.040679
v -0.563706 -0.043851 0.038764
v -0.577563 -0.038112 0.038764
v -0.563706 -0.043851 0.040679
v -0.589462 0.052270 0.038764
v -0.589462 0.052270 0.040679
v -0.598592 0.040371 0.040679
v -0.598592 0.040371 0.038764
v -0.604332 0.026514 0.040679
v -0.604332 0.026514 0.038764
v -0.606289 0.011644 0.040679
v -0.606289 0.011644 0.038764
v -0.604332 -0.003226 0.040679
v -0.604332 -0.003226 0.038764
v -0.598592 -0.017082 0.040679
v -0.598592 -0.017082 0.038764
v -0.589462 -0.028981 0.040679
v -0.589462 -0.028981 0.038764
vn -0.9659258358036645 -0.25881900959356163 0
vn -1 0 0
vn 0.9659258358036645 0.25881900959356163 0
vn 1 0 0
vn -0.866025402838329 -0.5000000016387101 0
vn 0.866025402838329 0.5000000016387101 0
vn 0 0 1
vn 0 0 -1
vn -0.9659258358036645 0.25881900959356163 0
vn 0.9659258358036645 -0.25881900959356163 0
vn -0.7071067811865476 -0.7071067811865476 0
vn 0.7071067811865476 0.7071067811865476 0
vn -0.5000000016387101 -0.866025402838329 0
vn -0.38268341623423263 -0.9238795391929066 0
vn 0.5000000016387101 0.866025402838329 0
vn 0.38268341623423263 0.9238795391929066 0
vn -0.38268341623423263 0.9238795391929066 0
vn -0.5000000016387101 0.866025402838329 0
vn 0.38268341623423263 -0.9238795391929066 0
vn 0.5000000016387101 -0.866025402838329 0
vn -0.7071067811865476 0.7071067811865476 0
vn 0.7071067811865476 -0.7071067811865476 0
vn -0.866025402838329 0.5000000016387101 0
vn 0.866025402838329 -0.5000000016387101 0
vn -0.1305261948688555 -0.9914448610250887 0
vn 0 -1 0
vn 0.1305261948688555 0.9914448610250887 0
vn 0 1 0
vn -0.1305261948688555 0.9914448610250887 0
vn 0.1305261948688555 -0.9914448610250887 0
usemtl material_0_2
f 1//1 2//2 3//2
f 3//4 2//4 1//3
f 2//2 1//1 4//1
f 4//3 1//3 2//4
f 5//5 4//1 1//1
f 1//3 4//3 5//6
f 4//1 5//5 6//5
f 6//6 5//6 4//3
f 7//7 8//7 9//7
f 9//8 8//8 7//8
f 8//7 7//7 10//7
f 10//8 7//8 8//8
f 8//7 10//7 11//7
f 11//8 10//8 8//8
f 11//7 10//7 12//7
f 12//8 10//8 11//8
f 11//7 12//7 13//7
f 13//8 12//8 11//8
f 13//7 12//7 14//7
f 14//8 12//8 13//8
f 13//7 14//7 15//7
f 15//8 14//8 13//8
f 13//7 15//7 16//7
f 16//8 15//8 13//8
f 16//7 15//7 17//7
f 17//8 15//8 16//8
f 3//2 18//9 19//9
f 19//10 18//10 3//4
f 18//9 3//2 2//2
f 2//4 3//4 18//10
f 20//11 6//5 5//5
f 5//6 6//6 20//12
f 6//5 20//11 21//11
f 21//12 20//12 6//6
f 22//13 23//14 24//13
f 24//15 23//16 22//15
f 23//14 22//13 25//14
f 25//16 22//15 23//16
f 26//2 27//2 28//2
f 28//4 27//4 26//4
f 27//2 26//2 29//2
f 29//4 26//4 27//4
f 30//17 31//18 32//17
f 32//19 31//20 30//19
f 31//18 30//17 33//18
f 33//20 30//19 31//20
f 33//18 34//21 31//18
f 31//20 34//22 33//20
f 34//21 33//18 35//21
f 35//22 33//20 34//22
f 36//23 34//21 35//21
f 35//22 34//22 36//24
f 34//21 36//23 37//23
f 37//24 36//24 34//22
f 19//9 37//23 36//23
f 36//24 37//24 19//10
f 37//23 19//9 18//9
f 18//10 19//10 37//24
f 20//11 24//13 21//11
f 21//12 24//15 20//12
f 24//13 20//11 22//13
f 22//15 20//12 24//15
f 38//25 39//26 40//25
f 40//27 39//28 38//27
f 39//26 38//25 41//26
f 41//28 38//27 39//28
f 41//26 38//25 42//25
f 42//27 38//27 41//28
f 43//7 44//7 45//7
f 45//8 44//8 43//8
f 44//7 43//7 46//7
f 46//8 43//8 44//8
f 44//7 46//7 47//7
f 47//8 46//8 44//8
f 44//7 47//7 48//7
f 48//8 47//8 44//8
f 49//28 50//29 51//28
f 51//26 50//30 49//26
f 50//29 49//28 52//29
f 52//30 49//26 50//30
f 52//29 49//28 53//29
f 53//30 49//26 52//30
f 41//26 54//30 39//26
f 39//28 54//29 41//28
f 54//30 41//26 55//30
f 55//29 41//28 54//29
f 55//30 41//26 56//30
f 56//29 41//28 55//29
f 57//4 58//4 59//4
f 59//2 58//2 57//2
f 58//4 57//4 60//4
f 60//2 57//2 58//2
f 61//27 51//28 62//27
f 62//25 51//26 61//25
f 51//28 61//27 49//28
f 49//26 61//25 51//26
f 49//28 61//27 63//27
f 63//25 61//25 49//26
f 64//19 65//20 66//19
f 66//17 65//18 64//17
f 65//20 64//19 67//20
f 67//18 64//17 65//18
f 68//7 69//7 70//7
f 70//8 69//8 68//8
f 69//7 68//7 71//7
f 71//8 68//8 69//8
f 69//7 71//7 72//7
f 72//8 71//8 69//8
f 72//7 71//7 73//7
f 73//8 71//8 72//8
f 72//7 73//7 74//7
f 74//8 73//8 72//8
f 74//7 73//7 75//7
f 75//8 73//8 74//8
f 75//7 73//7 76//7
f 76//8 73//8 75//8
f 75//7 76//7 77//7
f 77//8 76//8 75//8
f 77//7 76//7 78//7
f 78//8 76//8 77//8
f 79//15 80//16 81//15
f 81//13 80//14 79//13
f 80//16 79//15 82//16
f 82//14 79//13 80//14
f 67//20 83//22 65//20
f 65//18 83//21 67//18
f 83//22 67//20 84//22
f 84//21 67//18 83//21
f 83//22 85//24 86//24
f 86//23 85//23 83//21
f 85//24 83//22 84//22
f 84//21 83//21 85//23
f 86//24 87//10 88//10
f 88//9 87//9 86//23
f 87//10 86//24 85//24
f 85//23 86//23 87//9
f 88//10 89//4 90//4
f 90//2 89//2 88//9
f 89//4 88//10 87//10
f 87//9 88//9 89//2
f 90//4 91//3 92//3
f 92//1 91//1 90//2
f 91//3 90//4 89//4
f 89//2 90//2 91//1
f 92//3 93//6 94//6
f 94//5 93//5 92//1
f 93//6 92//3 91//3
f 91//1 92//1 93//5
f 94//6 95//12 96//12
f 96//11 95//11 94//5
f 95//12 94//6 93//6
f 93//5 94//5 95//11
f 95//12 81//15 96//12
f 96//11 81//13 95//11
f 81//15 95//12 79//15
f 79//13 95//11 81//13
