# SSTK version 0.8.0
# 6
mtllib original-6.mtl
o #ID38
v 0.447139 -0.010012 0.040679
v 0.443991 0.021553 0.040679
v 0.443487 0.005563 0.040679
v 0.447015 0.011644 0.040679
v 0.448972 -0.003226 0.040679
v 0.454697 -0.024112 0.040679
v 0.454712 -0.017082 0.040679
v 0.465648 -0.035775 0.040679
v 0.463843 -0.028981 0.040679
v 0.475741 -0.038112 0.040679
v 0.479244 -0.044207 0.040679
v 0.489598 -0.043851 0.040679
v 0.494558 -0.048832 0.040679
v 0.504468 -0.045809 0.040679
v 0.510549 -0.049337 0.040679
v 0.519337 -0.043851 0.040679
v 0.526124 -0.045685 0.040679
v 0.533194 -0.038112 0.040679
v 0.540224 -0.038126 0.040679
v 0.545093 -0.028981 0.040679
v 0.551887 -0.027176 0.040679
v 0.554224 -0.017082 0.040679
v 0.560319 -0.013580 0.040679
v 0.559963 -0.003226 0.040679
v 0.561921 0.011644 0.040679
v 0.564944 0.001735 0.040679
v 0.448617 0.036868 0.040679
v 0.448972 0.026514 0.040679
v 0.457048 0.050464 0.040679
v 0.454712 0.040371 0.040679
v 0.463843 0.052270 0.040679
v 0.468711 0.061415 0.040679
v 0.475741 0.061400 0.040679
v 0.482811 0.068973 0.040679
v 0.489598 0.067140 0.040679
v 0.498387 0.072625 0.040679
v 0.504468 0.069097 0.040679
v 0.514377 0.072121 0.040679
v 0.519337 0.067140 0.040679
v 0.529692 0.067495 0.040679
v 0.533194 0.061400 0.040679
v 0.543288 0.059064 0.040679
v 0.545093 0.052270 0.040679
v 0.554238 0.047401 0.040679
v 0.554224 0.040371 0.040679
v 0.559963 0.026514 0.040679
v 0.561797 0.033301 0.040679
v 0.565449 0.017725 0.040679
vn 0 0 1
vn 0 0 -1
usemtl material_0_2
f 1//1 2//1 3//1
f 3//2 2//2 1//2
f 2//1 1//1 4//1
f 4//2 1//2 2//2
f 4//1 1//1 5//1
f 5//2 1//2 4//2
f 5//1 1//1 6//1
f 6//2 1//2 5//2
f 5//1 6//1 7//1
f 7//2 6//2 5//2
f 7//1 6//1 8//1
f 8//2 6//2 7//2
f 7//1 8//1 9//1
f 9//2 8//2 7//2
f 9//1 8//1 10//1
f 10//2 8//2 9//2
f 10//1 8//1 11//1
f 11//2 8//2 10//2
f 10//1 11//1 12//1
f 12//2 11//2 10//2
f 12//1 11//1 13//1
f 13//2 11//2 12//2
f 12//1 13//1 14//1
f 14//2 13//2 12//2
f 14//1 13//1 15//1
f 15//2 13//2 14//2
f 14//1 15//1 16//1
f 16//2 15//2 14//2
f 16//1 15//1 17//1
f 17//2 15//2 16//2
f 16//1 17//1 18//1
f 18//2 17//2 16//2
f 18//1 17//1 19//1
f 19//2 17//2 18//2
f 18//1 19//1 20//1
f 20//2 19//2 18//2
f 20//1 19//1 21//1
f 21//2 19//2 20//2
f 20//1 21//1 22//1
f 22//2 21//2 20//2
f 22//1 21//1 23//1
f 23//2 21//2 22//2
f 22//1 23//1 24//1
f 24//2 23//2 22//2
f 24//1 23//1 25//1
f 25//2 23//2 24//2
f 25//1 23//1 26//1
f 26//2 23//2 25//2
f 4//1 27//1 2//1
f 2//2 27//2 4//2
f 27//1 4//1 28//1
f 28//2 4//2 27//2
f 27//1 28//1 29//1
f 29//2 28//2 27//2
f 29//1 28//1 30//1
f 30//2 28//2 29//2
f 29//1 30//1 31//1
f 31//2 30//2 29//2
f 29//1 31//1 32//1
f 32//2 31//2 29//2
f 32//1 31//1 33//1
f 33//2 31//2 32//2
f 32//1 33//1 34//1
f 34//2 33//2 32//2
f 34//1 33//1 35//1
f 35//2 33//2 34//2
f 34//1 35//1 36//1
f 36//2 35//2 34//2
f 36//1 35//1 37//1
f 37//2 35//2 36//2
f 36//1 37//1 38//1
f 38//2 37//2 36//2
f 38//1 37//1 39//1
f 39//2 37//2 38//2
f 38//1 39//1 40//1
f 40//2 39//2 38//2
f 40//1 39//1 41//1
f 41//2 39//2 40//2
f 40//1 41//1 42//1
f 42//2 41//2 40//2
f 42//1 41//1 43//1
f 43//2 41//2 42//2
f 42//1 43//1 44//1
f 44//2 43//2 42//2
f 44//1 43//1 45//1
f 45//2 43//2 44//2
f 44//1 45//1 46//1
f 46//2 45//2 44//2
f 44//1 46//1 47//1
f 47//2 46//2 44//2
f 47//1 46//1 25//1
f 25//2 46//2 47//2
f 47//1 25//1 48//1
f 48//2 25//2 47//2
f 48//1 25//1 26//1
f 26//2 25//2 48//2
