# SSTK version 0.8.0
# 3
mtllib original-3.mtl
o Group3/mesh7/mesh7-geometry#mesh7-geometry
v 0.159230 0.257248 0.095223
v 0.140840 0.247005 0.105969
v 0.141533 0.246653 0.106011
v 0.153353 0.260233 0.094867
v -0.146947 0.246653 0.106011
v 0.163739 0.253358 0.095686
v 0.281039 0.290925 0.091207
v 0.140032 0.247227 0.105943
v -0.147479 0.246194 0.106066
v -0.146254 0.247005 0.105969
v 0.142065 0.246194 0.106066
v 0.146510 0.262110 0.094643
v -0.145446 0.247227 0.105943
v -0.169153 0.253358 0.095686
v -0.164644 0.257248 0.095223
v 0.166574 0.248828 0.096227
v 0.139166 0.262750 0.094567
v 0.137540 0.247444 0.105917
v -0.142954 0.247444 0.105917
v -0.147813 0.245660 0.106130
v -0.171988 0.248828 0.096227
v -0.158767 0.260233 0.094867
v 0.142399 0.245660 0.106130
v 0.167541 0.243966 0.096806
v -0.144580 0.262750 0.094567
v -0.151924 0.262110 0.094643
v -0.286453 0.290925 0.091207
v 0.142513 0.245086 0.106198
v 0.166574 0.239105 0.097386
v -0.172955 0.243966 0.096806
v 0.163739 0.234575 0.097926
v 0.142399 0.244513 0.106266
v -0.286453 0.337883 0.085607
v -0.147927 0.245086 0.106198
v -0.171988 0.239105 0.097386
v 0.159230 0.230684 0.098390
v 0.142065 0.243978 0.106330
v -0.147813 0.244513 0.106266
v 0.281039 0.337883 0.085607
v -0.286453 0.326684 -0.008309
v -0.169153 0.234575 0.097926
v 0.153353 0.227699 0.098746
v 0.141533 0.243519 0.106385
v -0.147479 0.243978 0.106330
v 0.281039 0.326684 -0.008309
v -0.286453 0.197008 0.102406
v -0.164644 0.230684 0.098390
v 0.281039 0.197008 0.102406
v 0.140840 0.243167 0.106427
v -0.146947 0.243519 0.106385
v -0.286453 -0.326108 0.069532
v -0.158767 0.227699 0.098746
v 0.281039 -0.326108 0.069532
v 0.146510 0.225823 0.098970
v 0.140032 0.242946 0.106453
v -0.146254 0.243167 0.106427
v 0.281039 -0.314909 0.163448
v -0.286453 -0.314909 0.163448
v -0.151924 0.225823 0.098970
v 0.139166 0.225183 0.099046
v -0.145446 0.242946 0.106453
v -0.144580 0.225183 0.099046
v 0.137540 0.242729 0.106479
v -0.142954 0.242729 0.106479
vn 0.4873367964126591 0.4185748251383102 0.7663536798519853
vn 0.3565610965038086 0.5081261375251196 0.7840102121935687
vn 0 0.11840394172325165 0.9929655112763971
vn 0.5780987529535974 0.3138968658584001 0.7531736781365697
vn 0.18953501514100532 0.5702230455522697 0.7993260638541654
vn -0.4873367964126591 0.4185748251383102 0.7663536798519853
vn -0.5780987529535974 0.3138968658584001 0.7531736781365697
vn -0.3565610965038086 0.5081261375251196 0.7840102121935687
vn 0.6306576392620415 0.202778884009903 0.7491005715123483
vn 0.048584995414111085 0.5934719439827791 0.8033869241691153
vn -0.6306576392620415 0.202778884009903 0.7491005715123483
vn -0.18953501514100532 0.5702230455522697 0.7993260638541654
vn -0.048584995414111085 0.5934719439827791 0.8033869241691153
vn 0.6477867250317599 0.09020296171124109 0.7564626789017072
vn -0.6477867250317599 0.09020296171124109 0.7564626789017072
vn 0.6306580514137692 -0.020948001707765136 0.7757780632445334
vn 0.5780988058149096 -0.12799295700678917 0.8058657293073295
vn -0.6306580514137692 -0.020948001707765136 0.7757780632445334
vn 0.48733707177549657 -0.22663703337933155 0.8432901242006219
vn -0.5780988058149096 -0.12799295700678917 0.8058657293073295
vn 0.35656107319718233 -0.3095250635413237 0.881509180961953
vn -0.48733707177549657 -0.22663703337933155 0.8432901242006219
vn 0.18953499160037798 -0.3662799837675706 0.9109969596273485
vn -0.35656107319718233 -0.3095250635413237 0.881509180961953
vn -0.18953499160037798 -0.3662799837675706 0.9109969596273485
vn 0.04858499054463299 -0.38792192450458224 0.9204108208742654
vn -0.04858499054463299 -0.38792192450458224 0.9204108208742654
vn -0.4873367964126591 -0.4185748251383102 -0.7663536798519853
vn -0.3565610965038086 -0.5081261375251196 -0.7840102121935687
vn 0 -0.11840394172325165 -0.9929655112763971
vn -0.5780987529535974 -0.3138968658584001 -0.7531736781365697
vn -0.18953501514100532 -0.5702230455522697 -0.7993260638541654
vn 0.5780987529535974 -0.3138968658584001 -0.7531736781365697
vn 0.4873367964126591 -0.4185748251383102 -0.7663536798519853
vn 0.3565610965038086 -0.5081261375251196 -0.7840102121935687
vn -0.6306576392620415 -0.202778884009903 -0.7491005715123483
vn -0.048584995414111085 -0.5934719439827791 -0.8033869241691153
vn 0.6306576392620415 -0.202778884009903 -0.7491005715123483
vn 0.18953501514100532 -0.5702230455522697 -0.7993260638541654
vn 0.048584995414111085 -0.5934719439827791 -0.8033869241691153
vn -0.6477867250317599 -0.09020296171124109 -0.7564626789017072
vn 0.6477867250317599 -0.09020296171124109 -0.7564626789017072
vn -0.6306580514137692 0.020948001707765136 -0.7757780632445334
vn -0.5780988058149096 0.12799295700678917 -0.8058657293073295
vn -1 0 0
vn 1 0 0
vn 0.6306580514137692 0.020948001707765136 -0.7757780632445334
vn -0.48733707177549657 0.22663703337933155 -0.8432901242006219
vn 0 0.9929655112763971 -0.11840394172325165
vn 0 -0.9929655112763971 0.11840394172325165
vn 0.5780988058149096 0.12799295700678917 -0.8058657293073295
vn -0.35656107319718233 0.3095250635413237 -0.881509180961953
vn 0.48733707177549657 0.22663703337933155 -0.8432901242006219
vn -0.18953499160037798 0.3662799837675706 -0.9109969596273485
vn 0.35656107319718233 0.3095250635413237 -0.881509180961953
vn 0.18953499160037798 0.3662799837675706 -0.9109969596273485
vn -0.04858499054463299 0.38792192450458224 -0.9204108208742654
vn 0.04858499054463299 0.38792192450458224 -0.9204108208742654
usemtl material_0_0
f 1//1 2//2 3//1
f 2//2 1//1 4//2
f 5//3 3//3 2//3
f 3//1 6//4 1//1
f 4//2 8//5 2//2
f 9//3 3//3 5//3
f 5//3 2//3 10//3
f 6//4 3//1 11//4
f 8//5 4//2 12//5
f 13//3 2//3 8//3
f 9//3 11//3 3//3
f 5//6 14//7 9//7
f 10//3 2//3 13//3
f 10//8 15//6 5//6
f 11//4 16//9 6//4
f 12//5 18//10 8//5
f 13//3 8//3 19//3
f 20//3 11//3 9//3
f 14//7 5//6 15//6
f 21//11 9//7 14//7
f 13//12 22//8 10//8
f 15//6 10//8 22//8
f 16//9 11//4 23//9
f 18//10 12//5 17//10
f 19//3 8//3 18//3
f 19//13 26//12 13//12
f 20//3 23//3 11//3
f 9//7 21//11 20//11
f 22//8 13//12 26//12
f 28//14 16//9 23//9
f 16//9 28//14 24//14
f 25//13 18//10 17//10
f 18//10 25//13 19//13
f 26//12 19//13 25//13
f 20//3 28//3 23//3
f 30//15 20//11 21//11
f 24//14 32//16 29//16
f 32//16 24//14 28//14
f 34//3 28//3 20//3
f 20//11 30//15 34//15
f 29//16 37//17 31//17
f 37//17 29//16 32//16
f 38//3 32//3 28//3
f 38//3 28//3 34//3
f 30//15 38//18 34//15
f 38//18 30//15 35//18
f 31//17 43//19 36//19
f 43//19 31//17 37//17
f 44//3 37//3 32//3
f 44//3 32//3 38//3
f 44//20 35//18 41//20
f 35//18 44//20 38//18
f 36//19 49//21 42//21
f 49//21 36//19 43//19
f 50//3 43//3 37//3
f 50//3 37//3 44//3
f 50//22 41//20 47//22
f 41//20 50//22 44//20
f 55//23 42//21 49//21
f 56//3 49//3 43//3
f 56//3 43//3 50//3
f 56//24 47//22 52//24
f 47//22 56//24 50//22
f 42//21 55//23 54//23
f 61//3 55//3 49//3
f 61//3 49//3 56//3
f 61//25 52//24 59//25
f 52//24 61//25 56//24
f 54//23 63//26 60//26
f 63//26 54//23 55//23
f 64//3 55//3 61//3
f 64//27 59//25 62//27
f 59//25 64//27 61//25
f 63//26 62//27 60//26
f 55//3 64//3 63//3
f 62//27 63//26 64//27
usemtl material_1_0
f 3//28 2//29 1//28
f 4//29 1//28 2//29
f 2//30 3//30 5//30
f 1//28 6//31 3//28
f 4//30 7//30 1//30
f 2//29 8//32 4//29
f 5//30 3//30 9//30
f 10//30 2//30 5//30
f 11//31 3//28 6//31
f 1//30 7//30 6//30
f 12//30 7//30 4//30
f 12//32 4//29 8//32
f 8//30 2//30 13//30
f 3//30 11//30 9//30
f 9//33 14//33 5//34
f 13//30 2//30 10//30
f 5//34 15//34 10//35
f 6//31 16//36 11//31
f 6//30 7//30 16//30
f 17//30 7//30 12//30
f 8//32 18//37 12//32
f 19//30 8//30 13//30
f 9//30 11//30 20//30
f 15//34 5//34 14//33
f 14//33 9//33 21//38
f 10//35 22//35 13//39
f 22//35 10//35 15//34
f 23//36 11//31 16//36
f 16//30 7//30 24//30
f 25//30 7//30 17//30
f 17//37 12//32 18//37
f 18//30 8//30 19//30
f 13//39 26//39 19//40
f 11//30 23//30 20//30
f 20//38 21//38 9//33
f 15//30 14//30 27//30
f 14//30 21//30 27//30
f 26//39 13//39 22//35
f 22//30 15//30 27//30
f 23//36 16//36 28//41
f 24//30 7//30 29//30
f 24//41 28//41 16//36
f 27//30 7//30 25//30
f 17//37 18//37 25//40
f 19//40 25//40 18//37
f 25//40 19//40 26//39
f 23//30 28//30 20//30
f 21//38 20//38 30//42
f 21//30 30//30 27//30
f 26//30 22//30 27//30
f 29//30 7//30 31//30
f 29//43 32//43 24//41
f 28//41 24//41 32//43
f 7//3 33//3 27//3
f 27//30 33//30 7//30
f 25//30 26//30 27//30
f 20//30 28//30 34//30
f 34//42 30//42 20//38
f 30//30 35//30 27//30
f 31//30 7//30 36//30
f 31//44 37//44 29//43
f 32//43 29//43 37//44
f 28//30 32//30 38//30
f 33//3 7//3 39//3
f 39//30 7//30 33//30
f 40//45 27//45 33//45
f 33//46 27//46 40//46
f 34//30 28//30 38//30
f 34//42 38//47 30//42
f 35//30 41//30 27//30
f 35//47 30//42 38//47
f 36//30 7//30 42//30
f 36//48 43//48 31//44
f 37//44 31//44 43//48
f 32//30 37//30 44//30
f 38//30 32//30 44//30
f 7//46 45//46 39//46
f 39//45 45//45 7//45
f 45//49 33//49 39//49
f 39//50 33//50 45//50
f 27//45 40//45 46//45
f 46//46 40//46 27//46
f 33//49 45//49 40//49
f 40//50 45//50 33//50
f 41//30 47//30 27//30
f 41//51 35//47 44//51
f 38//47 44//51 35//47
f 7//30 48//30 42//30
f 42//52 49//52 36//48
f 43//48 36//48 49//52
f 37//30 43//30 50//30
f 44//30 37//30 50//30
f 45//46 7//46 48//46
f 48//45 7//45 45//45
f 46//45 40//45 51//45
f 51//46 40//46 46//46
f 27//30 52//30 46//30
f 53//30 40//30 45//30
f 45//3 40//3 53//3
f 47//30 52//30 27//30
f 47//53 41//51 50//53
f 44//51 50//53 41//51
f 42//30 48//30 54//30
f 49//52 42//52 55//54
f 43//30 49//30 56//30
f 50//30 43//30 56//30
f 45//46 48//46 57//46
f 57//45 48//45 45//45
f 40//30 53//30 51//30
f 51//3 53//3 40//3
f 51//45 58//45 46//45
f 46//46 58//46 51//46
f 59//30 46//30 52//30
f 45//46 57//46 53//46
f 53//45 57//45 45//45
f 52//55 47//53 56//55
f 50//53 56//55 47//53
f 60//30 54//30 48//30
f 54//54 55//54 42//52
f 49//30 55//30 61//30
f 56//30 49//30 61//30
f 48//3 58//3 57//3
f 57//30 58//30 48//30
f 53//50 58//50 51//50
f 51//49 58//49 53//49
f 58//3 48//3 46//3
f 46//30 48//30 58//30
f 62//30 46//30 59//30
f 59//56 52//55 61//56
f 58//50 53//50 57//50
f 57//49 53//49 58//49
f 56//55 61//56 52//55
f 60//57 63//57 54//54
f 60//30 48//30 62//30
f 55//54 54//54 63//57
f 61//30 55//30 64//30
f 48//30 46//30 62//30
f 62//58 59//56 64//58
f 61//56 64//58 59//56
f 60//57 62//58 63//57
f 63//30 64//30 55//30
f 64//58 63//57 62//58
usemtl material_2_0
f 1//3 7//3 4//3
f 6//3 7//3 1//3
f 4//3 7//3 12//3
f 16//3 7//3 6//3
f 12//3 7//3 17//3
f 24//3 7//3 16//3
f 17//3 7//3 25//3
f 27//3 14//3 15//3
f 27//3 21//3 14//3
f 27//3 15//3 22//3
f 29//3 7//3 24//3
f 25//3 7//3 27//3
f 27//3 30//3 21//3
f 27//3 22//3 26//3
f 31//3 7//3 29//3
f 27//3 26//3 25//3
f 27//3 35//3 30//3
f 36//3 7//3 31//3
f 27//3 41//3 35//3
f 42//3 7//3 36//3
f 27//3 47//3 41//3
f 42//3 48//3 7//3
f 46//3 52//3 27//3
f 27//3 52//3 47//3
f 54//3 48//3 42//3
f 52//3 46//3 59//3
f 48//3 54//3 60//3
f 59//3 46//3 62//3
f 62//3 48//3 60//3
f 62//3 46//3 48//3
