# SSTK version 0.8.0
# 11
mtllib original-11.mtl
o mesh15/mesh15-geometry#mesh15-geometry
v 0.011603 -0.603356 0.076942
v 0.011612 -0.611517 0.076557
v 0.011323 -0.607420 0.076750
v 0.012445 -0.599730 0.077113
v 0.011323 -0.607540 0.079301
v 0.011603 -0.603477 0.079493
v 0.012445 -0.599850 0.079664
v 0.012481 -0.615118 0.076387
v 0.011612 -0.611637 0.079108
v 0.013849 -0.596661 0.079814
v 0.013849 -0.596541 0.077264
v 0.012481 -0.615238 0.078938
v 0.013928 -0.618223 0.076241
v 0.015814 -0.593909 0.079944
v 0.013928 -0.618343 0.078792
v 0.015814 -0.593789 0.077393
v 0.015955 -0.620831 0.076118
v 0.018232 -0.591572 0.077498
v 0.015955 -0.620952 0.078669
v 0.018232 -0.591693 0.080049
v 0.017321 -0.603310 0.076944
v 0.020996 -0.589989 0.077573
v 0.018506 -0.623017 0.078571
v 0.017321 -0.603431 0.079495
v 0.018201 -0.599404 0.077128
v 0.017321 -0.607828 0.076731
v 0.020996 -0.590109 0.080123
v 0.020211 -0.596346 0.077273
v 0.018506 -0.622897 0.076021
v 0.017514 -0.610826 0.079146
v 0.017321 -0.607948 0.079282
v 0.018201 -0.599525 0.079679
v 0.017514 -0.610706 0.076596
v 0.035883 -0.603310 0.076944
v 0.020211 -0.596466 0.079824
v 0.024105 -0.589039 0.077617
v 0.023210 -0.594291 0.077370
v 0.021526 -0.624493 0.078502
v 0.018091 -0.613344 0.079028
v 0.041630 -0.607948 0.079282
v 0.041630 -0.607828 0.076731
v 0.023210 -0.594411 0.079921
v 0.024105 -0.589159 0.080168
v 0.018091 -0.613224 0.076477
v 0.021526 -0.624372 0.075951
v 0.019053 -0.615501 0.078926
v 0.035883 -0.603431 0.079495
v 0.037736 -0.592613 0.077449
v 0.027560 -0.588722 0.077632
v 0.025035 -0.593762 0.077395
v 0.025035 -0.593882 0.079945
v 0.019053 -0.615381 0.076375
v 0.025015 -0.625378 0.078460
v 0.020399 -0.617297 0.078841
v 0.037736 -0.592733 0.080000
v 0.035317 -0.599321 0.079689
v 0.035694 -0.590871 0.077531
v 0.039400 -0.594844 0.077344
v 0.041630 -0.604628 0.076882
v 0.027560 -0.588843 0.080183
v 0.020399 -0.617177 0.076290
v 0.025015 -0.625258 0.075909
v 0.022085 -0.618711 0.078775
v 0.039400 -0.594964 0.079894
v 0.035694 -0.590992 0.080082
v 0.035317 -0.599201 0.077138
v 0.040625 -0.597522 0.077217
v 0.041630 -0.604748 0.079433
v 0.041379 -0.600750 0.077065
v 0.030638 -0.588958 0.077621
v 0.027214 -0.593585 0.077403
v 0.027214 -0.593705 0.079954
v 0.022085 -0.618590 0.076224
v 0.028973 -0.625673 0.078446
v 0.024066 -0.619720 0.078727
v 0.040625 -0.597643 0.079768
v 0.033872 -0.596403 0.079827
v 0.033872 -0.596283 0.077276
v 0.033339 -0.589784 0.080139
v 0.041379 -0.600870 0.079616
v 0.030638 -0.589078 0.080172
v 0.029409 -0.593758 0.077395
v 0.024066 -0.619600 0.076176
v 0.028973 -0.625553 0.075895
v 0.026341 -0.620326 0.078698
v 0.033339 -0.589664 0.077588
v 0.029409 -0.593878 0.079946
v 0.031219 -0.594275 0.077370
v 0.026341 -0.620206 0.076148
v 0.032506 -0.625422 0.078458
v 0.028910 -0.620528 0.078689
v 0.032691 -0.595122 0.077330
v 0.032691 -0.595243 0.079881
v 0.031219 -0.594396 0.079921
v 0.028910 -0.620408 0.076138
v 0.032506 -0.625302 0.075907
v 0.032726 -0.620089 0.078710
v 0.032726 -0.619969 0.076159
v 0.035631 -0.624701 0.078492
v 0.035631 -0.624580 0.075941
v 0.036102 -0.618960 0.078763
v 0.036102 -0.618839 0.076212
v 0.038395 -0.623744 0.078537
v 0.038395 -0.623623 0.075986
v 0.038803 -0.617564 0.078829
v 0.038803 -0.617443 0.076278
v 0.040970 -0.622724 0.078585
v 0.040970 -0.622604 0.076034
v 0.040625 -0.616293 0.078889
v 0.040625 -0.616173 0.076338
v 0.040970 -0.616173 0.076338
v 0.040970 -0.616293 0.078889
vn 0 0.047106449882179144 -0.998889875000992
vn 0 -0.047106449882179144 0.998889875000992
vn -0.9882484849248 -0.15268623005343496 -0.007200499698431587
vn -0.9999996863681521 -0.0007911205271824998 -0.00003730829633691958
vn 0.9999996863681521 0.0007911205271824998 0.00003730829633691958
vn 0.9882484849248 0.15268623005343496 0.007200499698431587
vn -0.9890078563376783 0.14769883106896248 0.006965299936992169
vn 0.9890078563376783 -0.14769883106896248 -0.006965299936992169
vn -0.9489059630483238 0.31520867552066933 0.014864863532456698
vn 0.9489059630483238 -0.31520867552066933 -0.014864863532456698
vn -0.8693778481758556 0.49359934419719326 0.023277553763650354
vn 0.8693778481758556 -0.49359934419719326 -0.023277553763650354
vn -0.9440305005738329 -0.32949198872879887 -0.015538447472617822
vn 0.9440305005738329 0.32949198872879887 0.015538447472617822
vn -0.7492032230790058 0.6616049120394814 0.031200495080361504
vn 0.7492032230790058 -0.6616049120394814 -0.031200495080361504
vn -0.8536159116692622 -0.5203246749679656 -0.024537888347116624
vn 0.8536159116692622 0.5203246749679656 0.024537888347116624
vn -0.5904263736294985 0.8061955324692788 0.03801921552710011
vn 0.5904263736294985 -0.8061955324692788 -0.03801921552710011
vn -0.7145902608611158 -0.6987666698800509 -0.032952999062092946
vn 0.7145902608611158 0.6987666698800509 0.032952999062092946
vn -0.39748404074036336 0.9165904266550259 0.04322530648903342
vn 0.39748404074036336 -0.9165904266550259 -0.04322530648903342
vn -0.5380018039238694 -0.842007913856799 -0.039708084531794974
vn 0.5380018039238694 0.842007913856799 0.039708084531794974
vn 0.9206542075330175 -0.3899457156058435 -0.01838937281143119
vn 0.9756307341267447 -0.21917535617594877 -0.01033604723553819
vn -0.9756307341267447 0.21917535617594877 0.01033604723553819
vn -0.9206542075330175 0.3899457156058435 0.01838937281143119
vn -0.19295203861931945 0.9801189255818487 0.046221234394282724
vn 0.19295203861931945 -0.9801189255818487 -0.046221234394282724
vn -0.34461086540473296 -0.9377035016038887 -0.04422097381115571
vn 0.34461086540473296 0.9377035016038887 0.04422097381115571
vn 0.7142498331065167 -0.699113865112559 -0.032969372373334555
vn -0.7142498331065167 0.699113865112559 0.032969372373334555
vn 0 0.9988898750009921 0.047106449882179144
vn 0 -0.9988898750009921 -0.047106449882179144
vn 0.9977791538285751 0.06653506546253395 0.003137713981348796
vn 0.9893791219406576 0.1451966513001352 0.0068473001365873965
vn -0.9893791219406576 -0.1451966513001352 -0.0068473001365873965
vn -0.9977791538285751 -0.06653506546253395 -0.003137713981348796
vn 0.42762590719619903 -0.9029522933837673 -0.042582148461800064
vn -0.42762590719619903 0.9029522933837673 0.042582148461800064
vn 0.9485791473154138 0.3161886478600929 0.014911077854023359
vn -0.9485791473154138 -0.3161886478600929 -0.014911077854023359
vn -0.007562003137165982 0.998861314387595 0.047105102997865606
vn 0.007562003137165982 -0.998861314387595 -0.047105102997865606
vn 0.18073092386561745 -0.9824407344926458 -0.046330728121098556
vn -0.18073092386561745 0.9824407344926458 0.046330728121098556
vn -0.16091894017404473 -0.9858719685252832 -0.04649254100762151
vn 0.16091894017404473 0.9858719685252832 0.04649254100762151
vn 0.8623339484914482 0.5057778654545125 0.023851878236852562
vn -0.8623339484914482 -0.5057778654545125 -0.023851878236852562
vn -0.9559421700871011 -0.29322916731722787 -0.013828336255994585
vn -0.990691541075579 -0.1359748191566093 -0.006412409580017845
vn 0.990691541075579 0.1359748191566093 0.006412409580017845
vn 0.9559421700871011 0.29322916731722787 0.013828336255994585
vn 0.999478057223135 0.03226913902701181 0.001521773939610203
vn 1 0 0
vn -1 0 0
vn -0.999478057223135 -0.03226913902701181 -0.001521773939610203
vn 0.7264457783289663 0.686460881043964 0.032372672802336605
vn -0.7264457783289663 -0.686460881043964 -0.032372672802336605
vn 0.5567680216835622 0.8297458810263313 0.03912982175284602
vn 0.7301620370209161 0.6825155101411093 0.032186613836925886
vn -0.5567680216835622 -0.8297458810263313 -0.03912982175284602
vn -0.7301620370209161 -0.6825155101411093 -0.032186613836925886
vn 0.8605481571671699 0.508803626000917 0.023994569479502847
vn -0.8605481571671699 -0.508803626000917 -0.023994569479502847
vn 0.16537398914923274 0.9851360885789656 0.046457837790902574
vn -0.16537398914923274 -0.9851360885789656 -0.046457837790902574
vn 0.0011770003702101523 -0.9988891831047615 -0.047106417253181765
vn -0.0011770003702101523 0.9988891831047615 0.047106417253181765
vn -0.001752000827729351 -0.9988883419501338 -0.04710637758533719
vn 0.001752000827729351 0.9988883419501338 0.04710637758533719
vn 0.5522888746526387 0.8327273459713219 0.03927042406799765
vn -0.5522888746526387 -0.8327273459713219 -0.03927042406799765
vn -0.8100520235256485 -0.5857070821177868 -0.027621244343268073
vn 0.8100520235256485 0.5857070821177868 0.027621244343268073
vn 0.3570190429847286 0.9330601411884357 0.04400199849648931
vn -0.3570190429847286 -0.9330601411884357 -0.04400199849648931
vn 0.9464153099384294 0.322593586233127 0.015213127074882144
vn -0.9464153099384294 -0.322593586233127 -0.015213127074882144
vn 0.9892284253310374 0.14621756171764871 0.006895445048874897
vn -0.9892284253310374 -0.14621756171764871 -0.006895445048874897
vn 0.3581101370515867 0.9326428498140111 0.04398231953516679
vn -0.3581101370515867 -0.9326428498140111 -0.04398231953516679
vn -0.17776191537012914 -0.9829810797892969 -0.0463562101579805
vn 0.17776191537012914 0.9829810797892969 0.0463562101579805
vn 0.14852705286770465 -0.9878105330011531 -0.046583961385994896
vn -0.14852705286770465 0.9878105330011531 0.046583961385994896
vn 0.16872502858200966 0.9845689505582048 0.04643109224124804
vn -0.16872502858200966 -0.9845689505582048 -0.04643109224124804
vn -0.60503096169131 -0.7953180601706148 -0.03750624696419292
vn 0.60503096169131 0.7953180601706148 0.03750624696419292
vn -0.3900899064531493 -0.9197545952448452 -0.04337452488920486
vn 0.3900899064531493 0.9197545952448452 0.04337452488920486
vn -0.01809700439842482 0.9987262926062636 0.04709873553240772
vn 0.01809700439842482 -0.9987262926062636 -0.04709873553240772
vn 0.27673995747555863 -0.9598780765229546 -0.045266700200245966
vn -0.27673995747555863 0.9598780765229546 0.045266700200245966
vn -0.2171879575919348 0.975046176275212 0.04598200961389569
vn 0.2171879575919348 -0.975046176275212 -0.04598200961389569
vn -0.3897168826761906 0.9199123634703347 0.04338196504972008
vn 0.3897168826761906 -0.9199123634703347 -0.04338196504972008
vn 0.3480508718271639 -0.936434932861755 -0.044161149628962094
vn -0.3480508718271639 0.936434932861755 0.044161149628962094
vn -0.5171653206688251 0.8549353846114819 0.04031772856608676
vn 0.5171653206688251 -0.8549353846114819 -0.04031772856608676
vn 0.3684569310201582 -0.9286127973092981 -0.043792267086856976
vn -0.3684569310201582 0.9286127973092981 0.043792267086856976
vn -0.5725133044307978 0.8189852436565423 0.03862236298522184
vn 0.5725133044307978 -0.8189852436565423 -0.03862236298522184
usemtl material_0_0
f 1//1 2//1 3//1
f 2//1 1//1 4//1
f 3//2 2//2 1//2
f 4//2 1//2 2//2
f 2//3 5//4 3//4
f 3//5 5//5 2//6
f 3//4 6//7 1//7
f 1//8 6//8 3//5
f 1//7 7//9 4//9
f 4//10 7//10 1//8
f 2//1 4//1 8//1
f 8//2 4//2 2//2
f 5//4 2//3 9//3
f 9//6 2//6 5//5
f 6//7 3//4 5//4
f 5//5 3//5 6//8
f 7//9 1//7 6//7
f 6//8 1//8 7//10
f 10//11 4//9 7//9
f 7//10 4//10 10//12
f 8//1 4//1 11//1
f 11//2 4//2 8//2
f 8//13 9//3 2//3
f 2//6 9//6 8//14
f 9//2 6//2 5//2
f 5//1 6//1 9//1
f 6//2 9//2 7//2
f 7//1 9//1 6//1
f 4//9 10//11 11//11
f 11//12 10//12 4//10
f 7//2 12//2 10//2
f 10//1 12//1 7//1
f 8//1 11//1 13//1
f 13//2 11//2 8//2
f 9//3 8//13 12//13
f 12//14 8//14 9//6
f 7//2 9//2 12//2
f 12//1 9//1 7//1
f 14//15 11//11 10//11
f 10//12 11//12 14//16
f 10//2 12//2 15//2
f 15//1 12//1 10//1
f 13//1 11//1 16//1
f 16//2 11//2 13//2
f 13//17 12//13 8//13
f 8//14 12//14 13//18
f 11//11 14//15 16//15
f 16//16 14//16 11//12
f 10//2 15//2 14//2
f 14//1 15//1 10//1
f 12//13 13//17 15//17
f 15//18 13//18 12//14
f 13//1 16//1 17//1
f 17//2 16//2 13//2
f 14//15 18//19 16//15
f 16//16 18//20 14//16
f 14//2 15//2 19//2
f 19//1 15//1 14//1
f 17//21 15//17 13//17
f 13//18 15//18 17//22
f 17//1 16//1 18//1
f 18//2 16//2 17//2
f 18//19 14//15 20//19
f 20//20 14//16 18//20
f 15//17 17//21 19//21
f 19//22 17//22 15//18
f 14//2 19//2 20//2
f 20//1 19//1 14//1
f 17//1 18//1 21//1
f 21//2 18//2 17//2
f 20//19 22//23 18//19
f 18//20 22//24 20//20
f 17//21 23//25 19//21
f 19//22 23//26 17//22
f 20//2 19//2 24//2
f 24//1 19//1 20//1
f 21//1 18//1 25//1
f 25//2 18//2 21//2
f 26//1 17//1 21//1
f 21//2 17//2 26//2
f 22//23 20//19 27//23
f 27//24 20//20 22//24
f 28//1 18//1 22//1
f 22//2 18//2 28//2
f 23//25 17//21 29//25
f 29//26 17//22 23//26
f 30//2 19//2 23//2
f 23//1 19//1 30//1
f 24//2 19//2 31//2
f 31//1 19//1 24//1
f 20//2 24//2 32//2
f 32//1 24//1 20//1
f 25//1 18//1 28//1
f 28//2 18//2 25//2
f 25//27 24//28 21//28
f 21//29 24//29 25//30
f 33//1 17//1 26//1
f 26//2 17//2 33//2
f 34//1 26//1 21//1
f 21//2 26//2 34//2
f 20//2 35//2 27//2
f 27//1 35//1 20//1
f 27//23 36//31 22//23
f 22//24 36//32 27//24
f 28//1 22//1 37//1
f 37//2 22//2 28//2
f 17//1 33//1 29//1
f 29//2 33//2 17//2
f 29//25 38//33 23//25
f 23//26 38//34 29//26
f 19//2 30//2 31//2
f 31//1 30//1 19//1
f 30//2 23//2 39//2
f 39//1 23//1 30//1
f 40//2 24//2 31//2
f 31//1 24//1 40//1
f 24//28 25//27 32//27
f 32//30 25//30 24//29
f 20//2 32//2 35//2
f 35//1 32//1 20//1
f 28//35 32//27 25//27
f 25//30 32//30 28//36
f 24//37 34//37 21//37
f 21//38 34//38 24//38
f 26//39 30//40 33//40
f 33//41 30//41 26//42
f 26//1 34//1 41//1
f 41//2 34//2 26//2
f 27//2 35//2 42//2
f 42//1 35//1 27//1
f 36//31 27//23 43//31
f 43//32 27//24 36//32
f 37//1 22//1 36//1
f 36//2 22//2 37//2
f 42//43 28//35 37//43
f 37//44 28//36 42//44
f 29//1 33//1 44//1
f 44//2 33//2 29//2
f 38//33 29//25 45//33
f 45//34 29//26 38//34
f 46//2 23//2 38//2
f 38//1 23//1 46//1
f 30//40 26//39 31//39
f 31//42 26//42 30//41
f 39//2 23//2 46//2
f 46//1 23//1 39//1
f 39//45 33//40 30//40
f 30//41 33//41 39//46
f 24//2 40//2 47//2
f 47//1 40//1 24//1
f 26//38 40//38 31//38
f 31//37 40//37 26//37
f 32//27 28//35 35//35
f 35//36 28//36 32//30
f 34//37 24//37 47//37
f 47//38 24//38 34//38
f 41//1 34//1 48//1
f 48//2 34//2 41//2
f 40//38 26//38 41//38
f 41//37 26//37 40//37
f 28//35 42//43 35//35
f 35//36 42//44 28//36
f 27//2 42//2 43//2
f 43//1 42//1 27//1
f 43//31 49//47 36//31
f 36//32 49//48 43//32
f 37//1 36//1 50//1
f 50//2 36//2 37//2
f 37//43 51//49 42//43
f 42//44 51//50 37//44
f 33//40 39//45 44//45
f 44//46 39//46 33//41
f 29//1 44//1 52//1
f 52//2 44//2 29//2
f 29//1 52//1 45//1
f 45//2 52//2 29//2
f 45//33 53//51 38//33
f 38//34 53//52 45//34
f 46//2 38//2 54//2
f 54//1 38//1 46//1
f 46//53 44//45 39//45
f 39//46 44//46 46//54
f 47//2 40//2 55//2
f 55//1 40//1 47//1
f 56//55 34//56 47//56
f 47//57 34//57 56//58
f 34//1 57//1 48//1
f 48//2 57//2 34//2
f 41//1 48//1 58//1
f 58//2 48//2 41//2
f 59//59 40//60 41//60
f 41//61 40//61 59//62
f 43//2 42//2 51//2
f 51//1 42//1 43//1
f 49//47 43//31 60//47
f 60//48 43//32 49//48
f 50//1 36//1 49//1
f 49//2 36//2 50//2
f 51//49 37//43 50//49
f 50//50 37//44 51//50
f 44//45 46//53 52//53
f 52//54 46//54 44//46
f 45//1 52//1 61//1
f 61//2 52//2 45//2
f 53//51 45//33 62//51
f 62//52 45//34 53//52
f 63//2 38//2 53//2
f 53//1 38//1 63//1
f 54//2 38//2 63//2
f 63//1 38//1 54//1
f 54//63 52//53 46//53
f 46//54 52//54 54//64
f 55//2 40//2 64//2
f 64//1 40//1 55//1
f 65//2 47//2 55//2
f 55//1 47//1 65//1
f 34//56 56//55 66//55
f 66//58 56//58 34//57
f 65//2 56//2 47//2
f 47//1 56//1 65//1
f 66//1 57//1 34//1
f 34//2 57//2 66//2
f 65//65 48//66 57//65
f 57//67 48//68 65//67
f 48//66 64//69 58//69
f 58//70 64//70 48//68
f 41//1 58//1 67//1
f 67//2 58//2 41//2
f 40//60 59//59 68//59
f 68//62 59//62 40//61
f 41//1 69//1 59//1
f 59//2 69//2 41//2
f 43//2 51//2 60//2
f 60//1 51//1 43//1
f 60//47 70//71 49//47
f 49//48 70//72 60//48
f 50//1 49//1 71//1
f 71//2 49//2 50//2
f 50//49 72//73 51//49
f 51//50 72//74 50//50
f 52//53 54//63 61//63
f 61//64 54//64 52//54
f 45//1 61//1 73//1
f 73//2 61//2 45//2
f 45//1 73//1 62//1
f 62//2 73//2 45//2
f 62//51 74//75 53//51
f 53//52 74//76 62//52
f 63//2 53//2 75//2
f 75//1 53//1 63//1
f 73//77 54//63 63//77
f 63//78 54//64 73//78
f 64//2 40//2 76//2
f 76//1 40//1 64//1
f 64//69 48//66 55//66
f 55//68 48//68 64//70
f 48//66 65//65 55//66
f 55//68 65//67 48//68
f 77//79 66//55 56//55
f 56//58 66//58 77//80
f 65//2 77//2 56//2
f 56//1 77//1 65//1
f 78//1 57//1 66//1
f 66//2 57//2 78//2
f 57//65 79//81 65//65
f 65//67 79//82 57//67
f 76//83 58//69 64//69
f 64//70 58//70 76//84
f 58//69 76//83 67//83
f 67//84 76//84 58//70
f 41//1 67//1 69//1
f 69//2 67//2 41//2
f 69//85 68//59 59//59
f 59//62 68//62 69//86
f 80//2 40//2 68//2
f 68//1 40//1 80//1
f 60//2 51//2 72//2
f 72//1 51//1 60//1
f 70//71 60//47 81//71
f 81//72 60//48 70//72
f 82//1 49//1 70//1
f 70//2 49//2 82//2
f 71//1 49//1 82//1
f 82//2 49//2 71//2
f 72//73 50//49 71//73
f 71//74 50//50 72//74
f 54//63 73//77 61//63
f 61//64 73//78 54//64
f 62//1 73//1 83//1
f 83//2 73//2 62//2
f 74//75 62//51 84//75
f 84//76 62//52 74//76
f 85//2 53//2 74//2
f 74//1 53//1 85//1
f 75//2 53//2 85//2
f 85//1 53//1 75//1
f 83//87 63//77 75//87
f 75//88 63//78 83//88
f 63//77 83//87 73//77
f 73//78 83//88 63//78
f 76//2 40//2 80//2
f 80//1 40//1 76//1
f 66//55 77//79 78//79
f 78//80 77//80 66//58
f 79//2 77//2 65//2
f 65//1 77//1 79//1
f 78//1 86//1 57//1
f 57//2 86//2 78//2
f 79//81 57//65 86//81
f 86//82 57//67 79//82
f 80//85 67//83 76//83
f 76//84 67//84 80//86
f 67//83 80//85 69//85
f 69//86 80//86 67//84
f 68//59 69//85 80//85
f 80//86 69//86 68//62
f 60//2 72//2 87//2
f 87//1 72//1 60//1
f 60//2 87//2 81//2
f 81//1 87//1 60//1
f 81//71 86//81 70//71
f 70//72 86//82 81//72
f 82//1 70//1 88//1
f 88//2 70//2 82//2
f 87//89 71//73 82//89
f 82//90 71//74 87//90
f 71//73 87//89 72//73
f 72//74 87//90 71//74
f 62//1 83//1 89//1
f 89//2 83//2 62//2
f 62//1 89//1 84//1
f 84//2 89//2 62//2
f 84//75 90//91 74//75
f 74//76 90//92 84//76
f 85//2 74//2 91//2
f 91//1 74//1 85//1
f 89//93 75//87 85//93
f 85//94 75//88 89//94
f 75//87 89//93 83//87
f 83//88 89//94 75//88
f 77//79 92//95 78//79
f 78//80 92//96 77//80
f 79//2 93//2 77//2
f 77//1 93//1 79//1
f 92//1 86//1 78//1
f 78//2 86//2 92//2
f 86//81 81//71 79//81
f 79//82 81//72 86//82
f 81//2 87//2 94//2
f 94//1 87//1 81//1
f 88//1 70//1 86//1
f 86//2 70//2 88//2
f 94//97 82//89 88//97
f 88//98 82//90 94//98
f 82//89 94//97 87//89
f 87//90 94//98 82//90
f 84//1 89//1 95//1
f 95//2 89//2 84//2
f 90//91 84//75 96//91
f 96//92 84//76 90//92
f 97//2 74//2 90//2
f 90//1 74//1 97//1
f 91//2 74//2 97//2
f 97//1 74//1 91//1
f 95//99 85//93 91//99
f 91//100 85//94 95//100
f 85//93 95//99 89//93
f 89//94 95//100 85//94
f 92//95 77//79 93//95
f 93//96 77//80 92//96
f 79//2 94//2 93//2
f 93//1 94//1 79//1
f 88//1 86//1 92//1
f 92//2 86//2 88//2
f 81//2 94//2 79//2
f 79//1 94//1 81//1
f 88//97 93//95 94//97
f 94//98 93//96 88//98
f 84//1 95//1 98//1
f 98//2 95//2 84//2
f 84//1 98//1 96//1
f 96//2 98//2 84//2
f 96//91 99//101 90//91
f 90//92 99//102 96//92
f 97//2 90//2 99//2
f 99//1 90//1 97//1
f 98//103 91//99 97//103
f 97//104 91//100 98//104
f 91//99 98//103 95//99
f 95//100 98//104 91//100
f 93//95 88//97 92//95
f 92//96 88//98 93//96
f 96//1 98//1 100//1
f 100//2 98//2 96//2
f 99//101 96//91 100//101
f 100//102 96//92 99//102
f 97//2 99//2 101//2
f 101//1 99//1 97//1
f 97//103 102//105 98//103
f 98//104 102//106 97//104
f 100//1 98//1 102//1
f 102//2 98//2 100//2
f 100//101 103//107 99//101
f 99//102 103//108 100//102
f 101//2 99//2 103//2
f 103//1 99//1 101//1
f 102//105 97//103 101//105
f 101//106 97//104 102//106
f 100//1 102//1 104//1
f 104//2 102//2 100//2
f 103//107 100//101 104//107
f 104//108 100//102 103//108
f 101//2 103//2 105//2
f 105//1 103//1 101//1
f 101//105 106//109 102//105
f 102//106 106//110 101//106
f 104//1 102//1 106//1
f 106//2 102//2 104//2
f 104//107 107//111 103//107
f 103//108 107//112 104//108
f 105//2 103//2 107//2
f 107//1 103//1 105//1
f 106//109 101//105 105//109
f 105//110 101//106 106//110
f 104//1 106//1 108//1
f 108//2 106//2 104//2
f 107//111 104//107 108//111
f 108//112 104//108 107//112
f 105//2 107//2 109//2
f 109//1 107//1 105//1
f 105//109 110//113 106//109
f 106//110 110//114 105//110
f 108//1 106//1 110//1
f 110//2 106//2 108//2
f 111//60 107//60 108//60
f 108//61 107//61 111//61
f 109//2 107//2 112//2
f 112//1 107//1 109//1
f 110//113 105//109 109//113
f 109//114 105//110 110//114
f 108//1 110//1 111//1
f 111//2 110//2 108//2
f 107//60 111//60 112//60
f 112//61 111//61 107//61
f 111//37 109//37 112//37
f 112//38 109//38 111//38
f 109//37 111//37 110//37
f 110//38 111//38 109//38
